<svg width="82" height="82" viewBox="0 0 82 82" fill="none" xmlns="http://www.w3.org/2000/svg">
<path d="M10.9999 51V50C10.4476 50 9.99992 50.4477 9.99992 51H10.9999ZM30.9999 51H31.9999C31.9999 50.4477 31.5522 50 30.9999 50V51ZM30.9999 71V72C31.5522 72 31.9999 71.5523 31.9999 71H30.9999ZM10.9999 71H9.99992C9.99992 71.5523 10.4476 72 10.9999 72V71ZM50.9999 51V50C50.4476 50 49.9999 50.4477 49.9999 51H50.9999ZM70.9999 51H71.9999C71.9999 50.4477 71.5522 50 70.9999 50V51ZM70.9999 71V72C71.5522 72 71.9999 71.5523 71.9999 71H70.9999ZM50.9999 71H49.9999C49.9999 71.5523 50.4476 72 50.9999 72V71ZM10.9999 20C10.4476 20 9.99992 20.4477 9.99992 21C9.99992 21.5523 10.4476 22 10.9999 22L10.9999 20ZM70.9999 22C71.5522 22 71.9999 21.5523 71.9999 21C71.9999 20.4477 71.5522 20 70.9999 20L70.9999 22ZM10.9999 30C10.4476 30 9.99992 30.4477 9.99992 31C9.99992 31.5523 10.4476 32 10.9999 32L10.9999 30ZM70.9999 32C71.5522 32 71.9999 31.5523 71.9999 31C71.9999 30.4477 71.5522 30 70.9999 30L70.9999 32ZM10.9999 40C10.4476 40 9.99992 40.4477 9.99992 41C9.99992 41.5523 10.4476 42 10.9999 42V40ZM70.9999 42C71.5522 42 71.9999 41.5523 71.9999 41C71.9999 40.4477 71.5522 40 70.9999 40V42ZM1 1V0C0.447715 0 0 0.447715 0 1L1 1ZM81 1H82C82 0.447715 81.5523 0 81 0V1ZM81 81V82C81.5523 82 82 81.5523 82 81H81ZM1 81H0C0 81.5523 0.447715 82 1 82L1 81ZM10.9999 52H30.9999V50H10.9999V52ZM29.9999 51V71H31.9999V51H29.9999ZM30.9999 70H10.9999V72H30.9999V70ZM11.9999 71V51H9.99992V71H11.9999ZM50.9999 52H70.9999V50H50.9999V52ZM69.9999 51V71H71.9999V51H69.9999ZM70.9999 70H50.9999V72H70.9999V70ZM51.9999 71V51H49.9999V71H51.9999ZM10.9999 22L70.9999 22L70.9999 20L10.9999 20L10.9999 22ZM10.9999 32L70.9999 32L70.9999 30L10.9999 30L10.9999 32ZM10.9999 42H70.9999V40H10.9999V42ZM1.21819 12H80.2523V10H1.21819V12ZM1 2H81V0H1V2ZM80 1C80 1.06102 80 1.12199 80 1.1829C80 1.24382 80 1.30468 80 1.36549C80 1.4263 80 1.48706 80 1.54777C80 1.60847 80 1.66913 80 1.72973C80 1.79034 80 1.85089 80 1.91139C80 1.97189 80 2.03234 80 2.09274C80 2.15314 80 2.21348 80 2.27378C80 2.33408 80 2.39432 80 2.45452C80 2.51471 80 2.57486 80 2.63495C80 2.69504 80 2.75509 80 2.81508C80 2.87507 80 2.93501 80 2.99491C80 3.0548 80 3.11464 80 3.17443C80 3.23423 80 3.29397 80 3.35366C80 3.41335 80 3.473 80 3.53259C80 3.59218 80 3.65173 80 3.71122C80 3.77072 80 3.83016 80 3.88956C80 3.94895 80 4.0083 80 4.0676C80 4.1269 80 4.18615 80 4.24535C80 4.30455 80 4.3637 80 4.4228C80 4.48191 80 4.54096 80 4.59997C80 4.65898 80 4.71794 80 4.77685C80 4.83576 80 4.89462 80 4.95343C80 5.01225 80 5.07101 80 5.12973C80 5.18845 80 5.24712 80 5.30575C80 5.36437 80 5.42295 80 5.48148C80 5.54001 80 5.59849 80 5.65692C80 5.71536 80 5.77375 80 5.83209C80 5.89043 80 5.94872 80 6.00697C80 6.06522 80 6.12342 80 6.18157C80 6.23973 80 6.29784 80 6.3559C80 6.41396 80 6.47198 80 6.52995C80 6.58792 80 6.64584 80 6.70372C80 6.76159 80 6.81943 80 6.87721C80 6.935 80 6.99274 80 7.05044C80 7.10813 80 7.16578 80 7.22339C80 7.28099 80 7.33855 80 7.39606C80 7.45358 80 7.51105 80 7.56847C80 7.6259 80 7.68328 80 7.74061C80 7.79795 80 7.85524 80 7.91249C80 7.96973 80 8.02694 80 8.08409C80 8.14125 80 8.19836 80 8.25543C80 8.3125 80 8.36953 80 8.42651C80 8.48349 80 8.54043 80 8.59733C80 8.65422 80 8.71107 80 8.76788C80 8.82469 80 8.88145 80 8.93817C80 8.99489 80 9.05157 80 9.10821C80 9.16484 80 9.22143 80 9.27798C80 9.33453 80 9.39104 80 9.4475C80 9.50397 80 9.56039 80 9.61677C80 9.67315 80 9.72949 80 9.78578C80 9.84208 80 9.89833 80 9.95454C80 10.0107 80 10.0669 80 10.123C80 10.1792 80 10.2353 80 10.2913C80 10.3473 80 10.4033 80 10.4593C80 10.5153 80 10.5712 80 10.6271C80 10.6829 80 10.7388 80 10.7946C80 10.8504 80 10.9061 80 10.9618C80 11.0176 80 11.0732 80 11.1289C80 11.1845 80 11.2401 80 11.2956C80 11.3512 80 11.4067 80 11.4622C80 11.5177 80 11.5731 80 11.6285C80 11.6839 80 11.7392 80 11.7945C80 11.8499 80 11.9051 80 11.9604C80 12.0156 80 12.0708 80 12.1259C80 12.1811 80 12.2362 80 12.2913C80 12.3464 80 12.4014 80 12.4564C80 12.5114 80 12.5664 80 12.6213C80 12.6762 80 12.7311 80 12.7859C80 12.8408 80 12.8956 80 12.9504C80 13.0051 80 13.0599 80 13.1145C80 13.1692 80 13.2239 80 13.2785C80 13.3331 80 13.3877 80 13.4422C80 13.4968 80 13.5513 80 13.6057C80 13.6602 80 13.7146 80 13.769C80 13.8234 80 13.8778 80 13.9321C80 13.9864 80 14.0407 80 14.0949C80 14.1492 80 14.2034 80 14.2575C80 14.3117 80 14.3658 80 14.4199C80 14.474 80 14.5281 80 14.5821C80 14.6361 80 14.6901 80 14.7441C80 14.798 80 14.8519 80 14.9058C80 14.9597 80 15.0135 80 15.0673C80 15.1212 80 15.1749 80 15.2287C80 15.2824 80 15.3361 80 15.3898C80 15.4434 80 15.4971 80 15.5507C80 15.6043 80 15.6578 80 15.7113C80 15.7649 80 15.8184 80 15.8718C80 15.9253 80 15.9787 80 16.0321C80 16.0855 80 16.1388 80 16.1921C80 16.2455 80 16.2987 80 16.352C80 16.4053 80 16.4585 80 16.5117C80 16.5648 80 16.618 80 16.6711C80 16.7242 80 16.7773 80 16.8304C80 16.8834 80 16.9364 80 16.9894C80 17.0424 80 17.0953 80 17.1483C80 17.2012 80 17.2541 80 17.3069C80 17.3598 80 17.4126 80 17.4654C80 17.5181 80 17.5709 80 17.6236C80 17.6763 80 17.729 80 17.7817C80 17.8343 80 17.887 80 17.9396C80 17.9922 80 18.0447 80 18.0972C80 18.1498 80 18.2023 80 18.2547C80 18.3072 80 18.3596 80 18.412C80 18.4644 80 18.5168 80 18.5692C80 18.6215 80 18.6738 80 18.7261C80 18.7784 80 18.8306 80 18.8828C80 18.935 80 18.9872 80 19.0394C80 19.0915 80 19.1437 80 19.1958C80 19.2479 80 19.2999 80 19.352C80 19.404 80 19.456 80 19.508C80 19.56 80 19.6119 80 19.6638C80 19.7157 80 19.7676 80 19.8195C80 19.8713 80 19.9232 80 19.975C80 20.0267 80 20.0785 80 20.1303C80 20.182 80 20.2337 80 20.2854C80 20.3371 80 20.3887 80 20.4403C80 20.492 80 20.5436 80 20.5951C80 20.6467 80 20.6982 80 20.7497C80 20.8013 80 20.8527 80 20.9042C80 20.9556 80 21.0071 80 21.0585C80 21.1099 80 21.1612 80 21.2126C80 21.2639 80 21.3152 80 21.3665C80 21.4178 80 21.4691 80 21.5203C80 21.5715 80 21.6228 80 21.6739C80 21.7251 80 21.7763 80 21.8274C80 21.8785 80 21.9296 80 21.9807C80 22.0318 80 22.0828 80 22.1338C80 22.1848 80 22.2358 80 22.2868C80 22.3378 80 22.3887 80 22.4396C80 22.4905 80 22.5414 80 22.5923C80 22.6431 80 22.694 80 22.7448C80 22.7956 80 22.8464 80 22.8971C80 22.9479 80 22.9986 80 23.0494C80 23.1001 80 23.1507 80 23.2014C80 23.2521 80 23.3027 80 23.3533C80 23.4039 80 23.4545 80 23.5051C80 23.5556 80 23.6062 80 23.6567C80 23.7072 80 23.7577 80 23.8081C80 23.8586 80 23.909 80 23.9595C80 24.0099 80 24.0603 80 24.1106C80 24.161 80 24.2113 80 24.2617C80 24.312 80 24.3623 80 24.4125C80 24.4628 80 24.5131 80 24.5633C80 24.6135 80 24.6637 80 24.7139C80 24.7641 80 24.8143 80 24.8644C80 24.9145 80 24.9646 80 25.0147C80 25.0648 80 25.1149 80 25.1649C80 25.215 80 25.265 80 25.315C80 25.365 80 25.415 80 25.4649C80 25.5149 80 25.5648 80 25.6147C80 25.6647 80 25.7145 80 25.7644C80 25.8143 80 25.8641 80 25.914C80 25.9638 80 26.0136 80 26.0634C80 26.1132 80 26.1629 80 26.2127C80 26.2624 80 26.3121 80 26.3618C80 26.4115 80 26.4612 80 26.5109C80 26.5605 80 26.6102 80 26.6598C80 26.7094 80 26.759 80 26.8086C80 26.8582 80 26.9077 80 26.9573C80 27.0068 80 27.0563 80 27.1058C80 27.1553 80 27.2048 80 27.2543C80 27.3037 80 27.3532 80 27.4026C80 27.452 80 27.5014 80 27.5508C80 27.6002 80 27.6496 80 27.6989C80 27.7483 80 27.7976 80 27.8469C80 27.8962 80 27.9455 80 27.9948C80 28.044 80 28.0933 80 28.1425C80 28.1918 80 28.241 80 28.2902C80 28.3394 80 28.3886 80 28.4377C80 28.4869 80 28.536 80 28.5852C80 28.6343 80 28.6834 80 28.7325C80 28.7816 80 28.8307 80 28.8797C80 28.9288 80 28.9778 80 29.0268C80 29.0759 80 29.1249 80 29.1739C80 29.2229 80 29.2718 80 29.3208C80 29.3697 80 29.4187 80 29.4676C80 29.5165 80 29.5654 80 29.6143C80 29.6632 80 29.7121 80 29.761C80 29.8098 80 29.8587 80 29.9075C80 29.9563 80 30.0051 80 30.0539C80 30.1027 80 30.1515 80 30.2003C80 30.249 80 30.2978 80 30.3465C80 30.3953 80 30.444 80 30.4927C80 30.5414 80 30.5901 80 30.6388C80 30.6874 80 30.7361 80 30.7847C80 30.8334 80 30.882 80 30.9306C80 30.9793 80 31.0279 80 31.0764C80 31.125 80 31.1736 80 31.2222C80 31.2707 80 31.3193 80 31.3678C80 31.4163 80 31.4649 80 31.5134C80 31.5619 80 31.6104 80 31.6588C80 31.7073 80 31.7558 80 31.8042C80 31.8527 80 31.9011 80 31.9496C80 31.998 80 32.0464 80 32.0948C80 32.1432 80 32.1916 80 32.24C80 32.2884 80 32.3367 80 32.3851C80 32.4334 80 32.4818 80 32.5301C80 32.5784 80 32.6267 80 32.675C80 32.7233 80 32.7716 80 32.8199C80 32.8682 80 32.9165 80 32.9647C80 33.013 80 33.0612 80 33.1094C80 33.1577 80 33.2059 80 33.2541C80 33.3023 80 33.3505 80 33.3987C80 33.4469 80 33.4951 80 33.5433C80 33.5914 80 33.6396 80 33.6877C80 33.7359 80 33.784 80 33.8321C80 33.8803 80 33.9284 80 33.9765C80 34.0246 80 34.0727 80 34.1208C80 34.1689 80 34.2169 80 34.265C80 34.3131 80 34.3611 80 34.4092C80 34.4572 80 34.5053 80 34.5533C80 34.6013 80 34.6493 80 34.6974C80 34.7454 80 34.7934 80 34.8414C80 34.8894 80 34.9373 80 34.9853C80 35.0333 80 35.0813 80 35.1292C80 35.1772 80 35.2251 80 35.2731C80 35.321 80 35.369 80 35.4169C80 35.4648 80 35.5127 80 35.5606C80 35.6085 80 35.6564 80 35.7043C80 35.7522 80 35.8001 80 35.848C80 35.8959 80 35.9438 80 35.9916C80 36.0395 80 36.0873 80 36.1352C80 36.1831 80 36.2309 80 36.2787C80 36.3266 80 36.3744 80 36.4222C80 36.4701 80 36.5179 80 36.5657C80 36.6135 80 36.6613 80 36.7091C80 36.7569 80 36.8047 80 36.8525C80 36.9003 80 36.9481 80 36.9958C80 37.0436 80 37.0914 80 37.1391C80 37.1869 80 37.2347 80 37.2824C80 37.3302 80 37.3779 80 37.4257C80 37.4734 80 37.5211 80 37.5689C80 37.6166 80 37.6643 80 37.7121C80 37.7598 80 37.8075 80 37.8552C80 37.9029 80 37.9506 80 37.9983C80 38.046 80 38.0937 80 38.1414C80 38.1891 80 38.2368 80 38.2845C80 38.3322 80 38.3799 80 38.4276C80 38.4753 80 38.5229 80 38.5706C80 38.6183 80 38.666 80 38.7136C80 38.7613 80 38.809 80 38.8566C80 38.9043 80 38.9519 80 38.9996C80 39.0473 80 39.0949 80 39.1426C80 39.1902 80 39.2379 80 39.2855C80 39.3331 80 39.3808 80 39.4284C80 39.4761 80 39.5237 80 39.5713C80 39.619 80 39.6666 80 39.7142C80 39.7619 80 39.8095 80 39.8571C80 39.9048 80 39.9524 80 40C80 40.0476 80 40.0953 80 40.1429C80 40.1905 80 40.2381 80 40.2857C80 40.3334 80 40.381 80 40.4286C80 40.4762 80 40.5238 80 40.5715C80 40.6191 80 40.6667 80 40.7143C80 40.7619 80 40.8095 80 40.8572C80 40.9048 80 40.9524 80 41C80 41.0476 80 41.0952 80 41.1428C80 41.1905 80 41.2381 80 41.2857C80 41.3333 80 41.3809 80 41.4285C80 41.4762 80 41.5238 80 41.5714C80 41.619 80 41.6666 80 41.7143C80 41.7619 80 41.8095 80 41.8571C80 41.9047 80 41.9524 80 42C80 42.0476 80 42.0952 80 42.1429C80 42.1905 80 42.2381 80 42.2858C80 42.3334 80 42.381 80 42.4287C80 42.4763 80 42.5239 80 42.5716C80 42.6192 80 42.6669 80 42.7145C80 42.7621 80 42.8098 80 42.8574C80 42.9051 80 42.9527 80 43.0004C80 43.0481 80 43.0957 80 43.1434C80 43.191 80 43.2387 80 43.2864C80 43.334 80 43.3817 80 43.4294C80 43.4771 80 43.5247 80 43.5724C80 43.6201 80 43.6678 80 43.7155C80 43.7632 80 43.8109 80 43.8586C80 43.9063 80 43.954 80 44.0017C80 44.0494 80 44.0971 80 44.1448C80 44.1925 80 44.2402 80 44.2879C80 44.3357 80 44.3834 80 44.4311C80 44.4789 80 44.5266 80 44.5743C80 44.6221 80 44.6698 80 44.7176C80 44.7653 80 44.8131 80 44.8609C80 44.9086 80 44.9564 80 45.0042C80 45.0519 80 45.0997 80 45.1475C80 45.1953 80 45.2431 80 45.2909C80 45.3387 80 45.3865 80 45.4343C80 45.4821 80 45.5299 80 45.5778C80 45.6256 80 45.6734 80 45.7213C80 45.7691 80 45.8169 80 45.8648C80 45.9127 80 45.9605 80 46.0084C80 46.0562 80 46.1041 80 46.152C80 46.1999 80 46.2478 80 46.2957C80 46.3436 80 46.3915 80 46.4394C80 46.4873 80 46.5352 80 46.5831C80 46.631 80 46.679 80 46.7269C80 46.7749 80 46.8228 80 46.8708C80 46.9187 80 46.9667 80 47.0147C80 47.0627 80 47.1106 80 47.1586C80 47.2066 80 47.2546 80 47.3026C80 47.3507 80 47.3987 80 47.4467C80 47.4947 80 47.5428 80 47.5908C80 47.6389 80 47.6869 80 47.735C80 47.7831 80 47.8311 80 47.8792C80 47.9273 80 47.9754 80 48.0235C80 48.0716 80 48.1197 80 48.1679C80 48.216 80 48.2641 80 48.3123C80 48.3604 80 48.4086 80 48.4567C80 48.5049 80 48.5531 80 48.6013C80 48.6495 80 48.6977 80 48.7459C80 48.7941 80 48.8423 80 48.8906C80 48.9388 80 48.987 80 49.0353C80 49.0835 80 49.1318 80 49.1801C80 49.2284 80 49.2767 80 49.325C80 49.3733 80 49.4216 80 49.4699C80 49.5182 80 49.5666 80 49.6149C80 49.6633 80 49.7116 80 49.76C80 49.8084 80 49.8568 80 49.9052C80 49.9536 80 50.002 80 50.0504C80 50.0989 80 50.1473 80 50.1958C80 50.2442 80 50.2927 80 50.3412C80 50.3896 80 50.4381 80 50.4866C80 50.5351 80 50.5837 80 50.6322C80 50.6807 80 50.7293 80 50.7778C80 50.8264 80 50.875 80 50.9236C80 50.9721 80 51.0207 80 51.0694C80 51.118 80 51.1666 80 51.2153C80 51.2639 80 51.3126 80 51.3612C80 51.4099 80 51.4586 80 51.5073C80 51.556 80 51.6047 80 51.6535C80 51.7022 80 51.751 80 51.7997C80 51.8485 80 51.8973 80 51.9461C80 51.9949 80 52.0437 80 52.0925C80 52.1413 80 52.1902 80 52.239C80 52.2879 80 52.3368 80 52.3857C80 52.4346 80 52.4835 80 52.5324C80 52.5813 80 52.6303 80 52.6792C80 52.7282 80 52.7771 80 52.8261C80 52.8751 80 52.9241 80 52.9732C80 53.0222 80 53.0712 80 53.1203C80 53.1693 80 53.2184 80 53.2675C80 53.3166 80 53.3657 80 53.4148C80 53.464 80 53.5131 80 53.5623C80 53.6114 80 53.6606 80 53.7098C80 53.759 80 53.8082 80 53.8575C80 53.9067 80 53.956 80 54.0052C80 54.0545 80 54.1038 80 54.1531C80 54.2024 80 54.2517 80 54.3011C80 54.3504 80 54.3998 80 54.4492C80 54.4986 80 54.548 80 54.5974C80 54.6468 80 54.6963 80 54.7457C80 54.7952 80 54.8447 80 54.8942C80 54.9437 80 54.9932 80 55.0427C80 55.0923 80 55.1418 80 55.1914C80 55.241 80 55.2906 80 55.3402C80 55.3898 80 55.4395 80 55.4891C80 55.5388 80 55.5885 80 55.6382C80 55.6879 80 55.7376 80 55.7873C80 55.8371 80 55.8868 80 55.9366C80 55.9864 80 56.0362 80 56.086C80 56.1359 80 56.1857 80 56.2356C80 56.2855 80 56.3353 80 56.3853C80 56.4352 80 56.4851 80 56.5351C80 56.585 80 56.635 80 56.685C80 56.735 80 56.785 80 56.8351C80 56.8851 80 56.9352 80 56.9853C80 57.0354 80 57.0855 80 57.1356C80 57.1857 80 57.2359 80 57.2861C80 57.3363 80 57.3865 80 57.4367C80 57.4869 80 57.5372 80 57.5875C80 57.6377 80 57.688 80 57.7383C80 57.7887 80 57.839 80 57.8894C80 57.9397 80 57.9901 80 58.0405C80 58.091 80 58.1414 80 58.1919C80 58.2423 80 58.2928 80 58.3433C80 58.3938 80 58.4444 80 58.4949C80 58.5455 80 58.5961 80 58.6467C80 58.6973 80 58.7479 80 58.7986C80 58.8493 80 58.8999 80 58.9506C80 59.0014 80 59.0521 80 59.1029C80 59.1536 80 59.2044 80 59.2552C80 59.306 80 59.3569 80 59.4077C80 59.4586 80 59.5095 80 59.5604C80 59.6113 80 59.6622 80 59.7132C80 59.7642 80 59.8152 80 59.8662C80 59.9172 80 59.9682 80 60.0193C80 60.0704 80 60.1215 80 60.1726C80 60.2237 80 60.2749 80 60.3261C80 60.3772 80 60.4285 80 60.4797C80 60.5309 80 60.5822 80 60.6335C80 60.6848 80 60.7361 80 60.7874C80 60.8388 80 60.8901 80 60.9415C80 60.9929 80 61.0444 80 61.0958C80 61.1473 80 61.1987 80 61.2503C80 61.3018 80 61.3533 80 61.4049C80 61.4564 80 61.508 80 61.5597C80 61.6113 80 61.6629 80 61.7146C80 61.7663 80 61.818 80 61.8697C80 61.9215 80 61.9733 80 62.025C80 62.0768 80 62.1287 80 62.1805C80 62.2324 80 62.2843 80 62.3362C80 62.3881 80 62.44 80 62.492C80 62.544 80 62.596 80 62.648C80 62.7001 80 62.7521 80 62.8042C80 62.8563 80 62.9085 80 62.9606C80 63.0128 80 63.065 80 63.1172C80 63.1694 80 63.2216 80 63.2739C80 63.3262 80 63.3785 80 63.4308C80 63.4832 80 63.5356 80 63.588C80 63.6404 80 63.6928 80 63.7453C80 63.7977 80 63.8502 80 63.9028C80 63.9553 80 64.0078 80 64.0604C80 64.113 80 64.1657 80 64.2183C80 64.271 80 64.3237 80 64.3764C80 64.4291 80 64.4819 80 64.5346C80 64.5874 80 64.6402 80 64.6931C80 64.7459 80 64.7988 80 64.8517C80 64.9047 80 64.9576 80 65.0106C80 65.0636 80 65.1166 80 65.1696C80 65.2227 80 65.2758 80 65.3289C80 65.382 80 65.4352 80 65.4883C80 65.5415 80 65.5947 80 65.648C80 65.7013 80 65.7545 80 65.8079C80 65.8612 80 65.9145 80 65.9679C80 66.0213 80 66.0747 80 66.1282C80 66.1816 80 66.2351 80 66.2887C80 66.3422 80 66.3957 80 66.4493C80 66.5029 80 66.5566 80 66.6102C80 66.6639 80 66.7176 80 66.7713C80 66.8251 80 66.8788 80 66.9327C80 66.9865 80 67.0403 80 67.0942C80 67.1481 80 67.202 80 67.2559C80 67.3099 80 67.3639 80 67.4179C80 67.4719 80 67.526 80 67.5801C80 67.6342 80 67.6883 80 67.7425C80 67.7966 80 67.8508 80 67.9051C80 67.9593 80 68.0136 80 68.0679C80 68.1222 80 68.1766 80 68.231C80 68.2854 80 68.3398 80 68.3943C80 68.4487 80 68.5032 80 68.5578C80 68.6123 80 68.6669 80 68.7215C80 68.7761 80 68.8308 80 68.8855C80 68.9401 80 68.9949 80 69.0496C80 69.1044 80 69.1592 80 69.2141C80 69.2689 80 69.3238 80 69.3787C80 69.4336 80 69.4886 80 69.5436C80 69.5986 80 69.6536 80 69.7087C80 69.7638 80 69.8189 80 69.8741C80 69.9292 80 69.9844 80 70.0396C80 70.0949 80 70.1501 80 70.2055C80 70.2608 80 70.3161 80 70.3715C80 70.4269 80 70.4823 80 70.5378C80 70.5933 80 70.6488 80 70.7044C80 70.7599 80 70.8155 80 70.8711C80 70.9268 80 70.9824 80 71.0382C80 71.0939 80 71.1496 80 71.2054C80 71.2612 80 71.3171 80 71.3729C80 71.4288 80 71.4847 80 71.5407C80 71.5967 80 71.6527 80 71.7087C80 71.7647 80 71.8208 80 71.877C80 71.9331 80 71.9893 80 72.0455C80 72.1017 80 72.1579 80 72.2142C80 72.2705 80 72.3269 80 72.3832C80 72.4396 80 72.496 80 72.5525C80 72.609 80 72.6655 80 72.722C80 72.7786 80 72.8352 80 72.8918C80 72.9484 80 73.0051 80 73.0618C80 73.1185 80 73.1753 80 73.2321C80 73.2889 80 73.3458 80 73.4027C80 73.4596 80 73.5165 80 73.5735C80 73.6305 80 73.6875 80 73.7446C80 73.8016 80 73.8587 80 73.9159C80 73.9731 80 74.0303 80 74.0875C80 74.1448 80 74.2021 80 74.2594C80 74.3167 80 74.3741 80 74.4315C80 74.489 80 74.5464 80 74.6039C80 74.6614 80 74.719 80 74.7766C80 74.8342 80 74.8919 80 74.9496C80 75.0073 80 75.065 80 75.1228C80 75.1806 80 75.2384 80 75.2963C80 75.3542 80 75.4121 80 75.4701C80 75.528 80 75.586 80 75.6441C80 75.7022 80 75.7603 80 75.8184C80 75.8766 80 75.9348 80 75.993C80 76.0513 80 76.1096 80 76.1679C80 76.2263 80 76.2846 80 76.3431C80 76.4015 80 76.46 80 76.5185C80 76.5771 80 76.6356 80 76.6943C80 76.7529 80 76.8115 80 76.8703C80 76.929 80 76.9878 80 77.0466C80 77.1054 80 77.1642 80 77.2232C80 77.2821 80 77.341 80 77.4C80 77.459 80 77.5181 80 77.5772C80 77.6363 80 77.6955 80 77.7547C80 77.8139 80 77.8731 80 77.9324C80 77.9917 80 78.051 80 78.1104C80 78.1698 80 78.2293 80 78.2888C80 78.3483 80 78.4078 80 78.4674C80 78.527 80 78.5866 80 78.6463C80 78.706 80 78.7658 80 78.8256C80 78.8854 80 78.9452 80 79.0051C80 79.065 80 79.1249 80 79.1849C80 79.2449 80 79.305 80 79.365C80 79.4251 80 79.4853 80 79.5455C80 79.6057 80 79.6659 80 79.7262C80 79.7865 80 79.8469 80 79.9073C80 79.9677 80 80.0281 80 80.0886C80 80.1491 80 80.2097 80 80.2703C80 80.3309 80 80.3915 80 80.4522C80 80.5129 80 80.5737 80 80.6345C80 80.6953 80 80.7562 80 80.8171C80 80.878 80 80.939 80 81H82C82 80.939 82 80.878 82 80.8171C82 80.7562 82 80.6953 82 80.6345C82 80.5737 82 80.5129 82 80.4522C82 80.3915 82 80.3309 82 80.2703C82 80.2097 82 80.1491 82 80.0886C82 80.0281 82 79.9677 82 79.9073C82 79.8469 82 79.7865 82 79.7262C82 79.6659 82 79.6057 82 79.5455C82 79.4853 82 79.4251 82 79.365C82 79.305 82 79.2449 82 79.1849C82 79.1249 82 79.065 82 79.0051C82 78.9452 82 78.8854 82 78.8256C82 78.7658 82 78.706 82 78.6463C82 78.5866 82 78.527 82 78.4674C82 78.4078 82 78.3483 82 78.2888C82 78.2293 82 78.1698 82 78.1104C82 78.051 82 77.9917 82 77.9324C82 77.8731 82 77.8139 82 77.7547C82 77.6955 82 77.6363 82 77.5772C82 77.5181 82 77.459 82 77.4C82 77.341 82 77.2821 82 77.2232C82 77.1642 82 77.1054 82 77.0466C82 76.9878 82 76.929 82 76.8703C82 76.8115 82 76.7529 82 76.6943C82 76.6356 82 76.5771 82 76.5185C82 76.46 82 76.4015 82 76.3431C82 76.2846 82 76.2263 82 76.1679C82 76.1096 82 76.0513 82 75.993C82 75.9348 82 75.8766 82 75.8184C82 75.7603 82 75.7022 82 75.6441C82 75.586 82 75.528 82 75.4701C82 75.4121 82 75.3542 82 75.2963C82 75.2384 82 75.1806 82 75.1228C82 75.065 82 75.0073 82 74.9496C82 74.8919 82 74.8342 82 74.7766C82 74.719 82 74.6614 82 74.6039C82 74.5464 82 74.489 82 74.4315C82 74.3741 82 74.3167 82 74.2594C82 74.2021 82 74.1448 82 74.0875C82 74.0303 82 73.9731 82 73.9159C82 73.8587 82 73.8016 82 73.7446C82 73.6875 82 73.6305 82 73.5735C82 73.5165 82 73.4596 82 73.4027C82 73.3458 82 73.2889 82 73.2321C82 73.1753 82 73.1185 82 73.0618C82 73.0051 82 72.9484 82 72.8918C82 72.8352 82 72.7786 82 72.722C82 72.6655 82 72.609 82 72.5525C82 72.496 82 72.4396 82 72.3832C82 72.3269 82 72.2705 82 72.2142C82 72.1579 82 72.1017 82 72.0455C82 71.9893 82 71.9331 82 71.877C82 71.8208 82 71.7647 82 71.7087C82 71.6527 82 71.5967 82 71.5407C82 71.4847 82 71.4288 82 71.3729C82 71.3171 82 71.2612 82 71.2054C82 71.1496 82 71.0939 82 71.0382C82 70.9824 82 70.9268 82 70.8711C82 70.8155 82 70.7599 82 70.7044C82 70.6488 82 70.5933 82 70.5378C82 70.4823 82 70.4269 82 70.3715C82 70.3161 82 70.2608 82 70.2055C82 70.1501 82 70.0949 82 70.0396C82 69.9844 82 69.9292 82 69.8741C82 69.8189 82 69.7638 82 69.7087C82 69.6536 82 69.5986 82 69.5436C82 69.4886 82 69.4336 82 69.3787C82 69.3238 82 69.2689 82 69.2141C82 69.1592 82 69.1044 82 69.0496C82 68.9949 82 68.9401 82 68.8855C82 68.8308 82 68.7761 82 68.7215C82 68.6669 82 68.6123 82 68.5578C82 68.5032 82 68.4487 82 68.3943C82 68.3398 82 68.2854 82 68.231C82 68.1766 82 68.1222 82 68.0679C82 68.0136 82 67.9593 82 67.9051C82 67.8508 82 67.7966 82 67.7425C82 67.6883 82 67.6342 82 67.5801C82 67.526 82 67.4719 82 67.4179C82 67.3639 82 67.3099 82 67.2559C82 67.202 82 67.1481 82 67.0942C82 67.0403 82 66.9865 82 66.9327C82 66.8788 82 66.8251 82 66.7713C82 66.7176 82 66.6639 82 66.6102C82 66.5566 82 66.5029 82 66.4493C82 66.3957 82 66.3422 82 66.2887C82 66.2351 82 66.1816 82 66.1282C82 66.0747 82 66.0213 82 65.9679C82 65.9145 82 65.8612 82 65.8079C82 65.7545 82 65.7013 82 65.648C82 65.5947 82 65.5415 82 65.4883C82 65.4352 82 65.382 82 65.3289C82 65.2758 82 65.2227 82 65.1696C82 65.1166 82 65.0636 82 65.0106C82 64.9576 82 64.9047 82 64.8517C82 64.7988 82 64.7459 82 64.6931C82 64.6402 82 64.5874 82 64.5346C82 64.4819 82 64.4291 82 64.3764C82 64.3237 82 64.271 82 64.2183C82 64.1657 82 64.113 82 64.0604C82 64.0078 82 63.9553 82 63.9028C82 63.8502 82 63.7977 82 63.7453C82 63.6928 82 63.6404 82 63.588C82 63.5356 82 63.4832 82 63.4308C82 63.3785 82 63.3262 82 63.2739C82 63.2216 82 63.1694 82 63.1172C82 63.065 82 63.0128 82 62.9606C82 62.9085 82 62.8563 82 62.8042C82 62.7521 82 62.7001 82 62.648C82 62.596 82 62.544 82 62.492C82 62.44 82 62.3881 82 62.3362C82 62.2843 82 62.2324 82 62.1805C82 62.1287 82 62.0768 82 62.025C82 61.9733 82 61.9215 82 61.8697C82 61.818 82 61.7663 82 61.7146C82 61.6629 82 61.6113 82 61.5597C82 61.508 82 61.4564 82 61.4049C82 61.3533 82 61.3018 82 61.2503C82 61.1987 82 61.1473 82 61.0958C82 61.0444 82 60.9929 82 60.9415C82 60.8901 82 60.8388 82 60.7874C82 60.7361 82 60.6848 82 60.6335C82 60.5822 82 60.5309 82 60.4797C82 60.4285 82 60.3772 82 60.3261C82 60.2749 82 60.2237 82 60.1726C82 60.1215 82 60.0704 82 60.0193C82 59.9682 82 59.9172 82 59.8662C82 59.8152 82 59.7642 82 59.7132C82 59.6622 82 59.6113 82 59.5604C82 59.5095 82 59.4586 82 59.4077C82 59.3569 82 59.306 82 59.2552C82 59.2044 82 59.1536 82 59.1029C82 59.0521 82 59.0014 82 58.9506C82 58.8999 82 58.8493 82 58.7986C82 58.7479 82 58.6973 82 58.6467C82 58.5961 82 58.5455 82 58.4949C82 58.4444 82 58.3938 82 58.3433C82 58.2928 82 58.2423 82 58.1919C82 58.1414 82 58.091 82 58.0405C82 57.9901 82 57.9397 82 57.8894C82 57.839 82 57.7887 82 57.7383C82 57.688 82 57.6377 82 57.5875C82 57.5372 82 57.4869 82 57.4367C82 57.3865 82 57.3363 82 57.2861C82 57.2359 82 57.1857 82 57.1356C82 57.0855 82 57.0354 82 56.9853C82 56.9352 82 56.8851 82 56.8351C82 56.785 82 56.735 82 56.685C82 56.635 82 56.585 82 56.5351C82 56.4851 82 56.4352 82 56.3853C82 56.3353 82 56.2855 82 56.2356C82 56.1857 82 56.1359 82 56.086C82 56.0362 82 55.9864 82 55.9366C82 55.8868 82 55.8371 82 55.7873C82 55.7376 82 55.6879 82 55.6382C82 55.5885 82 55.5388 82 55.4891C82 55.4395 82 55.3898 82 55.3402C82 55.2906 82 55.241 82 55.1914C82 55.1418 82 55.0923 82 55.0427C82 54.9932 82 54.9437 82 54.8942C82 54.8447 82 54.7952 82 54.7457C82 54.6963 82 54.6468 82 54.5974C82 54.548 82 54.4986 82 54.4492C82 54.3998 82 54.3504 82 54.3011C82 54.2517 82 54.2024 82 54.1531C82 54.1038 82 54.0545 82 54.0052C82 53.956 82 53.9067 82 53.8575C82 53.8082 82 53.759 82 53.7098C82 53.6606 82 53.6114 82 53.5623C82 53.5131 82 53.464 82 53.4148C82 53.3657 82 53.3166 82 53.2675C82 53.2184 82 53.1693 82 53.1203C82 53.0712 82 53.0222 82 52.9732C82 52.9241 82 52.8751 82 52.8261C82 52.7771 82 52.7282 82 52.6792C82 52.6303 82 52.5813 82 52.5324C82 52.4835 82 52.4346 82 52.3857C82 52.3368 82 52.2879 82 52.239C82 52.1902 82 52.1413 82 52.0925C82 52.0437 82 51.9949 82 51.9461C82 51.8973 82 51.8485 82 51.7997C82 51.751 82 51.7022 82 51.6535C82 51.6047 82 51.556 82 51.5073C82 51.4586 82 51.4099 82 51.3612C82 51.3126 82 51.2639 82 51.2153C82 51.1666 82 51.118 82 51.0694C82 51.0207 82 50.9721 82 50.9236C82 50.875 82 50.8264 82 50.7778C82 50.7293 82 50.6807 82 50.6322C82 50.5837 82 50.5351 82 50.4866C82 50.4381 82 50.3896 82 50.3412C82 50.2927 82 50.2442 82 50.1958C82 50.1473 82 50.0989 82 50.0504C82 50.002 82 49.9536 82 49.9052C82 49.8568 82 49.8084 82 49.76C82 49.7116 82 49.6633 82 49.6149C82 49.5666 82 49.5182 82 49.4699C82 49.4216 82 49.3733 82 49.325C82 49.2767 82 49.2284 82 49.1801C82 49.1318 82 49.0835 82 49.0353C82 48.987 82 48.9388 82 48.8906C82 48.8423 82 48.7941 82 48.7459C82 48.6977 82 48.6495 82 48.6013C82 48.5531 82 48.5049 82 48.4567C82 48.4086 82 48.3604 82 48.3123C82 48.2641 82 48.216 82 48.1679C82 48.1197 82 48.0716 82 48.0235C82 47.9754 82 47.9273 82 47.8792C82 47.8311 82 47.7831 82 47.735C82 47.6869 82 47.6389 82 47.5908C82 47.5428 82 47.4947 82 47.4467C82 47.3987 82 47.3507 82 47.3026C82 47.2546 82 47.2066 82 47.1586C82 47.1106 82 47.0627 82 47.0147C82 46.9667 82 46.9187 82 46.8708C82 46.8228 82 46.7749 82 46.7269C82 46.679 82 46.631 82 46.5831C82 46.5352 82 46.4873 82 46.4394C82 46.3915 82 46.3436 82 46.2957C82 46.2478 82 46.1999 82 46.152C82 46.1041 82 46.0562 82 46.0084C82 45.9605 82 45.9127 82 45.8648C82 45.8169 82 45.7691 82 45.7213C82 45.6734 82 45.6256 82 45.5778C82 45.5299 82 45.4821 82 45.4343C82 45.3865 82 45.3387 82 45.2909C82 45.2431 82 45.1953 82 45.1475C82 45.0997 82 45.0519 82 45.0042C82 44.9564 82 44.9086 82 44.8609C82 44.8131 82 44.7653 82 44.7176C82 44.6698 82 44.6221 82 44.5743C82 44.5266 82 44.4789 82 44.4311C82 44.3834 82 44.3357 82 44.2879C82 44.2402 82 44.1925 82 44.1448C82 44.0971 82 44.0494 82 44.0017C82 43.954 82 43.9063 82 43.8586C82 43.8109 82 43.7632 82 43.7155C82 43.6678 82 43.6201 82 43.5724C82 43.5247 82 43.4771 82 43.4294C82 43.3817 82 43.334 82 43.2864C82 43.2387 82 43.191 82 43.1434C82 43.0957 82 43.0481 82 43.0004C82 42.9527 82 42.9051 82 42.8574C82 42.8098 82 42.7621 82 42.7145C82 42.6669 82 42.6192 82 42.5716C82 42.5239 82 42.4763 82 42.4287C82 42.381 82 42.3334 82 42.2858C82 42.2381 82 42.1905 82 42.1429C82 42.0952 82 42.0476 82 42C82 41.9524 82 41.9047 82 41.8571C82 41.8095 82 41.7619 82 41.7143C82 41.6666 82 41.619 82 41.5714C82 41.5238 82 41.4762 82 41.4285C82 41.3809 82 41.3333 82 41.2857C82 41.2381 82 41.1905 82 41.1428C82 41.0952 82 41.0476 82 41C82 40.9524 82 40.9048 82 40.8572C82 40.8095 82 40.7619 82 40.7143C82 40.6667 82 40.6191 82 40.5715C82 40.5238 82 40.4762 82 40.4286C82 40.381 82 40.3334 82 40.2857C82 40.2381 82 40.1905 82 40.1429C82 40.0953 82 40.0476 82 40C82 39.9524 82 39.9048 82 39.8571C82 39.8095 82 39.7619 82 39.7142C82 39.6666 82 39.619 82 39.5713C82 39.5237 82 39.4761 82 39.4284C82 39.3808 82 39.3331 82 39.2855C82 39.2379 82 39.1902 82 39.1426C82 39.0949 82 39.0473 82 38.9996C82 38.9519 82 38.9043 82 38.8566C82 38.809 82 38.7613 82 38.7136C82 38.666 82 38.6183 82 38.5706C82 38.5229 82 38.4753 82 38.4276C82 38.3799 82 38.3322 82 38.2845C82 38.2368 82 38.1891 82 38.1414C82 38.0937 82 38.046 82 37.9983C82 37.9506 82 37.9029 82 37.8552C82 37.8075 82 37.7598 82 37.7121C82 37.6643 82 37.6166 82 37.5689C82 37.5211 82 37.4734 82 37.4257C82 37.3779 82 37.3302 82 37.2824C82 37.2347 82 37.1869 82 37.1391C82 37.0914 82 37.0436 82 36.9958C82 36.9481 82 36.9003 82 36.8525C82 36.8047 82 36.7569 82 36.7091C82 36.6613 82 36.6135 82 36.5657C82 36.5179 82 36.4701 82 36.4222C82 36.3744 82 36.3266 82 36.2787C82 36.2309 82 36.1831 82 36.1352C82 36.0873 82 36.0395 82 35.9916C82 35.9438 82 35.8959 82 35.848C82 35.8001 82 35.7522 82 35.7043C82 35.6564 82 35.6085 82 35.5606C82 35.5127 82 35.4648 82 35.4169C82 35.369 82 35.321 82 35.2731C82 35.2251 82 35.1772 82 35.1292C82 35.0813 82 35.0333 82 34.9853C82 34.9373 82 34.8894 82 34.8414C82 34.7934 82 34.7454 82 34.6974C82 34.6493 82 34.6013 82 34.5533C82 34.5053 82 34.4572 82 34.4092C82 34.3611 82 34.3131 82 34.265C82 34.2169 82 34.1689 82 34.1208C82 34.0727 82 34.0246 82 33.9765C82 33.9284 82 33.8803 82 33.8321C82 33.784 82 33.7359 82 33.6877C82 33.6396 82 33.5914 82 33.5433C82 33.4951 82 33.4469 82 33.3987C82 33.3505 82 33.3023 82 33.2541C82 33.2059 82 33.1577 82 33.1094C82 33.0612 82 33.013 82 32.9647C82 32.9165 82 32.8682 82 32.8199C82 32.7716 82 32.7233 82 32.675C82 32.6267 82 32.5784 82 32.5301C82 32.4818 82 32.4334 82 32.3851C82 32.3367 82 32.2884 82 32.24C82 32.1916 82 32.1432 82 32.0948C82 32.0464 82 31.998 82 31.9496C82 31.9011 82 31.8527 82 31.8042C82 31.7558 82 31.7073 82 31.6588C82 31.6104 82 31.5619 82 31.5134C82 31.4649 82 31.4163 82 31.3678C82 31.3193 82 31.2707 82 31.2222C82 31.1736 82 31.125 82 31.0764C82 31.0279 82 30.9793 82 30.9306C82 30.882 82 30.8334 82 30.7847C82 30.7361 82 30.6874 82 30.6388C82 30.5901 82 30.5414 82 30.4927C82 30.444 82 30.3953 82 30.3465C82 30.2978 82 30.249 82 30.2003C82 30.1515 82 30.1027 82 30.0539C82 30.0051 82 29.9563 82 29.9075C82 29.8587 82 29.8098 82 29.761C82 29.7121 82 29.6632 82 29.6143C82 29.5654 82 29.5165 82 29.4676C82 29.4187 82 29.3697 82 29.3208C82 29.2718 82 29.2229 82 29.1739C82 29.1249 82 29.0759 82 29.0268C82 28.9778 82 28.9288 82 28.8797C82 28.8307 82 28.7816 82 28.7325C82 28.6834 82 28.6343 82 28.5852C82 28.536 82 28.4869 82 28.4377C82 28.3886 82 28.3394 82 28.2902C82 28.241 82 28.1918 82 28.1425C82 28.0933 82 28.044 82 27.9948C82 27.9455 82 27.8962 82 27.8469C82 27.7976 82 27.7483 82 27.6989C82 27.6496 82 27.6002 82 27.5508C82 27.5014 82 27.452 82 27.4026C82 27.3532 82 27.3037 82 27.2543C82 27.2048 82 27.1553 82 27.1058C82 27.0563 82 27.0068 82 26.9573C82 26.9077 82 26.8582 82 26.8086C82 26.759 82 26.7094 82 26.6598C82 26.6102 82 26.5605 82 26.5109C82 26.4612 82 26.4115 82 26.3618C82 26.3121 82 26.2624 82 26.2127C82 26.1629 82 26.1132 82 26.0634C82 26.0136 82 25.9638 82 25.914C82 25.8641 82 25.8143 82 25.7644C82 25.7145 82 25.6647 82 25.6147C82 25.5648 82 25.5149 82 25.4649C82 25.415 82 25.365 82 25.315C82 25.265 82 25.215 82 25.1649C82 25.1149 82 25.0648 82 25.0147C82 24.9646 82 24.9145 82 24.8644C82 24.8143 82 24.7641 82 24.7139C82 24.6637 82 24.6135 82 24.5633C82 24.5131 82 24.4628 82 24.4125C82 24.3623 82 24.312 82 24.2617C82 24.2113 82 24.161 82 24.1106C82 24.0603 82 24.0099 82 23.9595C82 23.909 82 23.8586 82 23.8081C82 23.7577 82 23.7072 82 23.6567C82 23.6062 82 23.5556 82 23.5051C82 23.4545 82 23.4039 82 23.3533C82 23.3027 82 23.2521 82 23.2014C82 23.1507 82 23.1001 82 23.0494C82 22.9986 82 22.9479 82 22.8971C82 22.8464 82 22.7956 82 22.7448C82 22.694 82 22.6431 82 22.5923C82 22.5414 82 22.4905 82 22.4396C82 22.3887 82 22.3378 82 22.2868C82 22.2358 82 22.1848 82 22.1338C82 22.0828 82 22.0318 82 21.9807C82 21.9296 82 21.8785 82 21.8274C82 21.7763 82 21.7251 82 21.6739C82 21.6228 82 21.5715 82 21.5203C82 21.4691 82 21.4178 82 21.3665C82 21.3152 82 21.2639 82 21.2126C82 21.1612 82 21.1099 82 21.0585C82 21.0071 82 20.9556 82 20.9042C82 20.8527 82 20.8013 82 20.7497C82 20.6982 82 20.6467 82 20.5951C82 20.5436 82 20.492 82 20.4403C82 20.3887 82 20.3371 82 20.2854C82 20.2337 82 20.182 82 20.1303C82 20.0785 82 20.0267 82 19.975C82 19.9232 82 19.8713 82 19.8195C82 19.7676 82 19.7157 82 19.6638C82 19.6119 82 19.56 82 19.508C82 19.456 82 19.404 82 19.352C82 19.2999 82 19.2479 82 19.1958C82 19.1437 82 19.0915 82 19.0394C82 18.9872 82 18.935 82 18.8828C82 18.8306 82 18.7784 82 18.7261C82 18.6738 82 18.6215 82 18.5692C82 18.5168 82 18.4644 82 18.412C82 18.3596 82 18.3072 82 18.2547C82 18.2023 82 18.1498 82 18.0972C82 18.0447 82 17.9922 82 17.9396C82 17.887 82 17.8343 82 17.7817C82 17.729 82 17.6763 82 17.6236C82 17.5709 82 17.5181 82 17.4654C82 17.4126 82 17.3598 82 17.3069C82 17.2541 82 17.2012 82 17.1483C82 17.0953 82 17.0424 82 16.9894C82 16.9364 82 16.8834 82 16.8304C82 16.7773 82 16.7242 82 16.6711C82 16.618 82 16.5648 82 16.5117C82 16.4585 82 16.4053 82 16.352C82 16.2987 82 16.2455 82 16.1921C82 16.1388 82 16.0855 82 16.0321C82 15.9787 82 15.9253 82 15.8718C82 15.8184 82 15.7649 82 15.7113C82 15.6578 82 15.6043 82 15.5507C82 15.4971 82 15.4434 82 15.3898C82 15.3361 82 15.2824 82 15.2287C82 15.1749 82 15.1212 82 15.0673C82 15.0135 82 14.9597 82 14.9058C82 14.8519 82 14.798 82 14.7441C82 14.6901 82 14.6361 82 14.5821C82 14.5281 82 14.474 82 14.4199C82 14.3658 82 14.3117 82 14.2575C82 14.2034 82 14.1492 82 14.0949C82 14.0407 82 13.9864 82 13.9321C82 13.8778 82 13.8234 82 13.769C82 13.7146 82 13.6602 82 13.6057C82 13.5513 82 13.4968 82 13.4422C82 13.3877 82 13.3331 82 13.2785C82 13.2239 82 13.1692 82 13.1145C82 13.0599 82 13.0051 82 12.9504C82 12.8956 82 12.8408 82 12.7859C82 12.7311 82 12.6762 82 12.6213C82 12.5664 82 12.5114 82 12.4564C82 12.4014 82 12.3464 82 12.2913C82 12.2362 82 12.1811 82 12.1259C82 12.0708 82 12.0156 82 11.9604C82 11.9051 82 11.8499 82 11.7945C82 11.7392 82 11.6839 82 11.6285C82 11.5731 82 11.5177 82 11.4622C82 11.4067 82 11.3512 82 11.2956C82 11.2401 82 11.1845 82 11.1289C82 11.0732 82 11.0176 82 10.9618C82 10.9061 82 10.8504 82 10.7946C82 10.7388 82 10.6829 82 10.6271C82 10.5712 82 10.5153 82 10.4593C82 10.4033 82 10.3473 82 10.2913C82 10.2353 82 10.1792 82 10.123C82 10.0669 82 10.0107 82 9.95454C82 9.89833 82 9.84208 82 9.78578C82 9.72949 82 9.67315 82 9.61677C82 9.56039 82 9.50397 82 9.4475C82 9.39104 82 9.33453 82 9.27798C82 9.22143 82 9.16484 82 9.10821C82 9.05157 82 8.99489 82 8.93817C82 8.88145 82 8.82469 82 8.76788C82 8.71107 82 8.65422 82 8.59733C82 8.54043 82 8.48349 82 8.42651C82 8.36953 82 8.3125 82 8.25543C82 8.19836 82 8.14125 82 8.08409C82 8.02694 82 7.96973 82 7.91249C82 7.85524 82 7.79795 82 7.74061C82 7.68328 82 7.6259 82 7.56847C82 7.51105 82 7.45358 82 7.39606C82 7.33855 82 7.28099 82 7.22339C82 7.16578 82 7.10813 82 7.05044C82 6.99274 82 6.935 82 6.87721C82 6.81943 82 6.76159 82 6.70372C82 6.64584 82 6.58792 82 6.52995C82 6.47198 82 6.41396 82 6.3559C82 6.29784 82 6.23973 82 6.18157C82 6.12342 82 6.06522 82 6.00697C82 5.94872 82 5.89043 82 5.83209C82 5.77375 82 5.71536 82 5.65692C82 5.59849 82 5.54001 82 5.48148C82 5.42295 82 5.36437 82 5.30575C82 5.24712 82 5.18845 82 5.12973C82 5.07101 82 5.01225 82 4.95343C82 4.89462 82 4.83576 82 4.77685C82 4.71794 82 4.65898 82 4.59997C82 4.54096 82 4.48191 82 4.4228C82 4.3637 82 4.30455 82 4.24535C82 4.18615 82 4.1269 82 4.0676C82 4.0083 82 3.94895 82 3.88956C82 3.83016 82 3.77072 82 3.71122C82 3.65173 82 3.59218 82 3.53259C82 3.473 82 3.41335 82 3.35366C82 3.29397 82 3.23423 82 3.17443C82 3.11464 82 3.0548 82 2.99491C82 2.93501 82 2.87507 82 2.81508C82 2.75509 82 2.69504 82 2.63495C82 2.57486 82 2.51471 82 2.45452C82 2.39432 82 2.33408 82 2.27378C82 2.21348 82 2.15314 82 2.09274C82 2.03234 82 1.97189 82 1.91139C82 1.85089 82 1.79034 82 1.72973C82 1.66913 82 1.60847 82 1.54777C82 1.48706 82 1.4263 82 1.36549C82 1.30468 82 1.24382 82 1.1829C82 1.12199 82 1.06102 82 1H80ZM81 80H1V82H81V80ZM2 81V1H0V81H2Z" fill="#19242D"/>
<path d="M16 46H36V66H16V46Z" fill="#D1DEE7"/>
<path d="M56 46H76V66H56V46Z" fill="#D1DEE7"/>
<path d="M10.9999 51V50C10.4476 50 9.99992 50.4477 9.99992 51H10.9999ZM30.9999 51H31.9999C31.9999 50.4477 31.5522 50 30.9999 50V51ZM30.9999 71V72C31.5522 72 31.9999 71.5523 31.9999 71H30.9999ZM10.9999 71H9.99992C9.99992 71.5523 10.4476 72 10.9999 72V71ZM50.9999 51V50C50.4476 50 49.9999 50.4477 49.9999 51H50.9999ZM70.9999 51H71.9999C71.9999 50.4477 71.5522 50 70.9999 50V51ZM70.9999 71V72C71.5522 72 71.9999 71.5523 71.9999 71H70.9999ZM50.9999 71H49.9999C49.9999 71.5523 50.4476 72 50.9999 72V71ZM10.9999 20C10.4476 20 9.99992 20.4477 9.99992 21C9.99992 21.5523 10.4476 22 10.9999 22L10.9999 20ZM70.9999 22C71.5522 22 71.9999 21.5523 71.9999 21C71.9999 20.4477 71.5522 20 70.9999 20L70.9999 22ZM10.9999 30C10.4476 30 9.99992 30.4477 9.99992 31C9.99992 31.5523 10.4476 32 10.9999 32L10.9999 30ZM70.9999 32C71.5522 32 71.9999 31.5523 71.9999 31C71.9999 30.4477 71.5522 30 70.9999 30L70.9999 32ZM10.9999 40C10.4476 40 9.99992 40.4477 9.99992 41C9.99992 41.5523 10.4476 42 10.9999 42V40ZM70.9999 42C71.5522 42 71.9999 41.5523 71.9999 41C71.9999 40.4477 71.5522 40 70.9999 40V42ZM1 1V0C0.447715 0 0 0.447715 0 1L1 1ZM81 1H82C82 0.447715 81.5523 0 81 0V1ZM81 81V82C81.5523 82 82 81.5523 82 81H81ZM1 81H0C0 81.5523 0.447715 82 1 82L1 81ZM10.9999 52H30.9999V50H10.9999V52ZM29.9999 51V71H31.9999V51H29.9999ZM30.9999 70H10.9999V72H30.9999V70ZM11.9999 71V51H9.99992V71H11.9999ZM50.9999 52H70.9999V50H50.9999V52ZM69.9999 51V71H71.9999V51H69.9999ZM70.9999 70H50.9999V72H70.9999V70ZM51.9999 71V51H49.9999V71H51.9999ZM10.9999 22L70.9999 22L70.9999 20L10.9999 20L10.9999 22ZM10.9999 32L70.9999 32L70.9999 30L10.9999 30L10.9999 32ZM10.9999 42H70.9999V40H10.9999V42ZM1.21819 12H80.2523V10H1.21819V12ZM1 2H81V0H1V2ZM80 1C80 1.06102 80 1.12199 80 1.1829C80 1.24382 80 1.30468 80 1.36549C80 1.4263 80 1.48706 80 1.54777C80 1.60847 80 1.66913 80 1.72973C80 1.79034 80 1.85089 80 1.91139C80 1.97189 80 2.03234 80 2.09274C80 2.15314 80 2.21348 80 2.27378C80 2.33408 80 2.39432 80 2.45452C80 2.51471 80 2.57486 80 2.63495C80 2.69504 80 2.75509 80 2.81508C80 2.87507 80 2.93501 80 2.99491C80 3.0548 80 3.11464 80 3.17443C80 3.23423 80 3.29397 80 3.35366C80 3.41335 80 3.473 80 3.53259C80 3.59218 80 3.65173 80 3.71122C80 3.77072 80 3.83016 80 3.88956C80 3.94895 80 4.0083 80 4.0676C80 4.1269 80 4.18615 80 4.24535C80 4.30455 80 4.3637 80 4.4228C80 4.48191 80 4.54096 80 4.59997C80 4.65898 80 4.71794 80 4.77685C80 4.83576 80 4.89462 80 4.95343C80 5.01225 80 5.07101 80 5.12973C80 5.18845 80 5.24712 80 5.30575C80 5.36437 80 5.42295 80 5.48148C80 5.54001 80 5.59849 80 5.65692C80 5.71536 80 5.77375 80 5.83209C80 5.89043 80 5.94872 80 6.00697C80 6.06522 80 6.12342 80 6.18157C80 6.23973 80 6.29784 80 6.3559C80 6.41396 80 6.47198 80 6.52995C80 6.58792 80 6.64584 80 6.70372C80 6.76159 80 6.81943 80 6.87721C80 6.935 80 6.99274 80 7.05044C80 7.10813 80 7.16578 80 7.22339C80 7.28099 80 7.33855 80 7.39606C80 7.45358 80 7.51105 80 7.56847C80 7.6259 80 7.68328 80 7.74061C80 7.79795 80 7.85524 80 7.91249C80 7.96973 80 8.02694 80 8.08409C80 8.14125 80 8.19836 80 8.25543C80 8.3125 80 8.36953 80 8.42651C80 8.48349 80 8.54043 80 8.59733C80 8.65422 80 8.71107 80 8.76788C80 8.82469 80 8.88145 80 8.93817C80 8.99489 80 9.05157 80 9.10821C80 9.16484 80 9.22143 80 9.27798C80 9.33453 80 9.39104 80 9.4475C80 9.50397 80 9.56039 80 9.61677C80 9.67315 80 9.72949 80 9.78578C80 9.84208 80 9.89833 80 9.95454C80 10.0107 80 10.0669 80 10.123C80 10.1792 80 10.2353 80 10.2913C80 10.3473 80 10.4033 80 10.4593C80 10.5153 80 10.5712 80 10.6271C80 10.6829 80 10.7388 80 10.7946C80 10.8504 80 10.9061 80 10.9618C80 11.0176 80 11.0732 80 11.1289C80 11.1845 80 11.2401 80 11.2956C80 11.3512 80 11.4067 80 11.4622C80 11.5177 80 11.5731 80 11.6285C80 11.6839 80 11.7392 80 11.7945C80 11.8499 80 11.9051 80 11.9604C80 12.0156 80 12.0708 80 12.1259C80 12.1811 80 12.2362 80 12.2913C80 12.3464 80 12.4014 80 12.4564C80 12.5114 80 12.5664 80 12.6213C80 12.6762 80 12.7311 80 12.7859C80 12.8408 80 12.8956 80 12.9504C80 13.0051 80 13.0599 80 13.1145C80 13.1692 80 13.2239 80 13.2785C80 13.3331 80 13.3877 80 13.4422C80 13.4968 80 13.5513 80 13.6057C80 13.6602 80 13.7146 80 13.769C80 13.8234 80 13.8778 80 13.9321C80 13.9864 80 14.0407 80 14.0949C80 14.1492 80 14.2034 80 14.2575C80 14.3117 80 14.3658 80 14.4199C80 14.474 80 14.5281 80 14.5821C80 14.6361 80 14.6901 80 14.7441C80 14.798 80 14.8519 80 14.9058C80 14.9597 80 15.0135 80 15.0673C80 15.1212 80 15.1749 80 15.2287C80 15.2824 80 15.3361 80 15.3898C80 15.4434 80 15.4971 80 15.5507C80 15.6043 80 15.6578 80 15.7113C80 15.7649 80 15.8184 80 15.8718C80 15.9253 80 15.9787 80 16.0321C80 16.0855 80 16.1388 80 16.1921C80 16.2455 80 16.2987 80 16.352C80 16.4053 80 16.4585 80 16.5117C80 16.5648 80 16.618 80 16.6711C80 16.7242 80 16.7773 80 16.8304C80 16.8834 80 16.9364 80 16.9894C80 17.0424 80 17.0953 80 17.1483C80 17.2012 80 17.2541 80 17.3069C80 17.3598 80 17.4126 80 17.4654C80 17.5181 80 17.5709 80 17.6236C80 17.6763 80 17.729 80 17.7817C80 17.8343 80 17.887 80 17.9396C80 17.9922 80 18.0447 80 18.0972C80 18.1498 80 18.2023 80 18.2547C80 18.3072 80 18.3596 80 18.412C80 18.4644 80 18.5168 80 18.5692C80 18.6215 80 18.6738 80 18.7261C80 18.7784 80 18.8306 80 18.8828C80 18.935 80 18.9872 80 19.0394C80 19.0915 80 19.1437 80 19.1958C80 19.2479 80 19.2999 80 19.352C80 19.404 80 19.456 80 19.508C80 19.56 80 19.6119 80 19.6638C80 19.7157 80 19.7676 80 19.8195C80 19.8713 80 19.9232 80 19.975C80 20.0267 80 20.0785 80 20.1303C80 20.182 80 20.2337 80 20.2854C80 20.3371 80 20.3887 80 20.4403C80 20.492 80 20.5436 80 20.5951C80 20.6467 80 20.6982 80 20.7497C80 20.8013 80 20.8527 80 20.9042C80 20.9556 80 21.0071 80 21.0585C80 21.1099 80 21.1612 80 21.2126C80 21.2639 80 21.3152 80 21.3665C80 21.4178 80 21.4691 80 21.5203C80 21.5715 80 21.6228 80 21.6739C80 21.7251 80 21.7763 80 21.8274C80 21.8785 80 21.9296 80 21.9807C80 22.0318 80 22.0828 80 22.1338C80 22.1848 80 22.2358 80 22.2868C80 22.3378 80 22.3887 80 22.4396C80 22.4905 80 22.5414 80 22.5923C80 22.6431 80 22.694 80 22.7448C80 22.7956 80 22.8464 80 22.8971C80 22.9479 80 22.9986 80 23.0494C80 23.1001 80 23.1507 80 23.2014C80 23.2521 80 23.3027 80 23.3533C80 23.4039 80 23.4545 80 23.5051C80 23.5556 80 23.6062 80 23.6567C80 23.7072 80 23.7577 80 23.8081C80 23.8586 80 23.909 80 23.9595C80 24.0099 80 24.0603 80 24.1106C80 24.161 80 24.2113 80 24.2617C80 24.312 80 24.3623 80 24.4125C80 24.4628 80 24.5131 80 24.5633C80 24.6135 80 24.6637 80 24.7139C80 24.7641 80 24.8143 80 24.8644C80 24.9145 80 24.9646 80 25.0147C80 25.0648 80 25.1149 80 25.1649C80 25.215 80 25.265 80 25.315C80 25.365 80 25.415 80 25.4649C80 25.5149 80 25.5648 80 25.6147C80 25.6647 80 25.7145 80 25.7644C80 25.8143 80 25.8641 80 25.914C80 25.9638 80 26.0136 80 26.0634C80 26.1132 80 26.1629 80 26.2127C80 26.2624 80 26.3121 80 26.3618C80 26.4115 80 26.4612 80 26.5109C80 26.5605 80 26.6102 80 26.6598C80 26.7094 80 26.759 80 26.8086C80 26.8582 80 26.9077 80 26.9573C80 27.0068 80 27.0563 80 27.1058C80 27.1553 80 27.2048 80 27.2543C80 27.3037 80 27.3532 80 27.4026C80 27.452 80 27.5014 80 27.5508C80 27.6002 80 27.6496 80 27.6989C80 27.7483 80 27.7976 80 27.8469C80 27.8962 80 27.9455 80 27.9948C80 28.044 80 28.0933 80 28.1425C80 28.1918 80 28.241 80 28.2902C80 28.3394 80 28.3886 80 28.4377C80 28.4869 80 28.536 80 28.5852C80 28.6343 80 28.6834 80 28.7325C80 28.7816 80 28.8307 80 28.8797C80 28.9288 80 28.9778 80 29.0268C80 29.0759 80 29.1249 80 29.1739C80 29.2229 80 29.2718 80 29.3208C80 29.3697 80 29.4187 80 29.4676C80 29.5165 80 29.5654 80 29.6143C80 29.6632 80 29.7121 80 29.761C80 29.8098 80 29.8587 80 29.9075C80 29.9563 80 30.0051 80 30.0539C80 30.1027 80 30.1515 80 30.2003C80 30.249 80 30.2978 80 30.3465C80 30.3953 80 30.444 80 30.4927C80 30.5414 80 30.5901 80 30.6388C80 30.6874 80 30.7361 80 30.7847C80 30.8334 80 30.882 80 30.9306C80 30.9793 80 31.0279 80 31.0764C80 31.125 80 31.1736 80 31.2222C80 31.2707 80 31.3193 80 31.3678C80 31.4163 80 31.4649 80 31.5134C80 31.5619 80 31.6104 80 31.6588C80 31.7073 80 31.7558 80 31.8042C80 31.8527 80 31.9011 80 31.9496C80 31.998 80 32.0464 80 32.0948C80 32.1432 80 32.1916 80 32.24C80 32.2884 80 32.3367 80 32.3851C80 32.4334 80 32.4818 80 32.5301C80 32.5784 80 32.6267 80 32.675C80 32.7233 80 32.7716 80 32.8199C80 32.8682 80 32.9165 80 32.9647C80 33.013 80 33.0612 80 33.1094C80 33.1577 80 33.2059 80 33.2541C80 33.3023 80 33.3505 80 33.3987C80 33.4469 80 33.4951 80 33.5433C80 33.5914 80 33.6396 80 33.6877C80 33.7359 80 33.784 80 33.8321C80 33.8803 80 33.9284 80 33.9765C80 34.0246 80 34.0727 80 34.1208C80 34.1689 80 34.2169 80 34.265C80 34.3131 80 34.3611 80 34.4092C80 34.4572 80 34.5053 80 34.5533C80 34.6013 80 34.6493 80 34.6974C80 34.7454 80 34.7934 80 34.8414C80 34.8894 80 34.9373 80 34.9853C80 35.0333 80 35.0813 80 35.1292C80 35.1772 80 35.2251 80 35.2731C80 35.321 80 35.369 80 35.4169C80 35.4648 80 35.5127 80 35.5606C80 35.6085 80 35.6564 80 35.7043C80 35.7522 80 35.8001 80 35.848C80 35.8959 80 35.9438 80 35.9916C80 36.0395 80 36.0873 80 36.1352C80 36.1831 80 36.2309 80 36.2787C80 36.3266 80 36.3744 80 36.4222C80 36.4701 80 36.5179 80 36.5657C80 36.6135 80 36.6613 80 36.7091C80 36.7569 80 36.8047 80 36.8525C80 36.9003 80 36.9481 80 36.9958C80 37.0436 80 37.0914 80 37.1391C80 37.1869 80 37.2347 80 37.2824C80 37.3302 80 37.3779 80 37.4257C80 37.4734 80 37.5211 80 37.5689C80 37.6166 80 37.6643 80 37.7121C80 37.7598 80 37.8075 80 37.8552C80 37.9029 80 37.9506 80 37.9983C80 38.046 80 38.0937 80 38.1414C80 38.1891 80 38.2368 80 38.2845C80 38.3322 80 38.3799 80 38.4276C80 38.4753 80 38.5229 80 38.5706C80 38.6183 80 38.666 80 38.7136C80 38.7613 80 38.809 80 38.8566C80 38.9043 80 38.9519 80 38.9996C80 39.0473 80 39.0949 80 39.1426C80 39.1902 80 39.2379 80 39.2855C80 39.3331 80 39.3808 80 39.4284C80 39.4761 80 39.5237 80 39.5713C80 39.619 80 39.6666 80 39.7142C80 39.7619 80 39.8095 80 39.8571C80 39.9048 80 39.9524 80 40C80 40.0476 80 40.0953 80 40.1429C80 40.1905 80 40.2381 80 40.2857C80 40.3334 80 40.381 80 40.4286C80 40.4762 80 40.5238 80 40.5715C80 40.6191 80 40.6667 80 40.7143C80 40.7619 80 40.8095 80 40.8572C80 40.9048 80 40.9524 80 41C80 41.0476 80 41.0952 80 41.1428C80 41.1905 80 41.2381 80 41.2857C80 41.3333 80 41.3809 80 41.4285C80 41.4762 80 41.5238 80 41.5714C80 41.619 80 41.6666 80 41.7143C80 41.7619 80 41.8095 80 41.8571C80 41.9047 80 41.9524 80 42C80 42.0476 80 42.0952 80 42.1429C80 42.1905 80 42.2381 80 42.2858C80 42.3334 80 42.381 80 42.4287C80 42.4763 80 42.5239 80 42.5716C80 42.6192 80 42.6669 80 42.7145C80 42.7621 80 42.8098 80 42.8574C80 42.9051 80 42.9527 80 43.0004C80 43.0481 80 43.0957 80 43.1434C80 43.191 80 43.2387 80 43.2864C80 43.334 80 43.3817 80 43.4294C80 43.4771 80 43.5247 80 43.5724C80 43.6201 80 43.6678 80 43.7155C80 43.7632 80 43.8109 80 43.8586C80 43.9063 80 43.954 80 44.0017C80 44.0494 80 44.0971 80 44.1448C80 44.1925 80 44.2402 80 44.2879C80 44.3357 80 44.3834 80 44.4311C80 44.4789 80 44.5266 80 44.5743C80 44.6221 80 44.6698 80 44.7176C80 44.7653 80 44.8131 80 44.8609C80 44.9086 80 44.9564 80 45.0042C80 45.0519 80 45.0997 80 45.1475C80 45.1953 80 45.2431 80 45.2909C80 45.3387 80 45.3865 80 45.4343C80 45.4821 80 45.5299 80 45.5778C80 45.6256 80 45.6734 80 45.7213C80 45.7691 80 45.8169 80 45.8648C80 45.9127 80 45.9605 80 46.0084C80 46.0562 80 46.1041 80 46.152C80 46.1999 80 46.2478 80 46.2957C80 46.3436 80 46.3915 80 46.4394C80 46.4873 80 46.5352 80 46.5831C80 46.631 80 46.679 80 46.7269C80 46.7749 80 46.8228 80 46.8708C80 46.9187 80 46.9667 80 47.0147C80 47.0627 80 47.1106 80 47.1586C80 47.2066 80 47.2546 80 47.3026C80 47.3507 80 47.3987 80 47.4467C80 47.4947 80 47.5428 80 47.5908C80 47.6389 80 47.6869 80 47.735C80 47.7831 80 47.8311 80 47.8792C80 47.9273 80 47.9754 80 48.0235C80 48.0716 80 48.1197 80 48.1679C80 48.216 80 48.2641 80 48.3123C80 48.3604 80 48.4086 80 48.4567C80 48.5049 80 48.5531 80 48.6013C80 48.6495 80 48.6977 80 48.7459C80 48.7941 80 48.8423 80 48.8906C80 48.9388 80 48.987 80 49.0353C80 49.0835 80 49.1318 80 49.1801C80 49.2284 80 49.2767 80 49.325C80 49.3733 80 49.4216 80 49.4699C80 49.5182 80 49.5666 80 49.6149C80 49.6633 80 49.7116 80 49.76C80 49.8084 80 49.8568 80 49.9052C80 49.9536 80 50.002 80 50.0504C80 50.0989 80 50.1473 80 50.1958C80 50.2442 80 50.2927 80 50.3412C80 50.3896 80 50.4381 80 50.4866C80 50.5351 80 50.5837 80 50.6322C80 50.6807 80 50.7293 80 50.7778C80 50.8264 80 50.875 80 50.9236C80 50.9721 80 51.0207 80 51.0694C80 51.118 80 51.1666 80 51.2153C80 51.2639 80 51.3126 80 51.3612C80 51.4099 80 51.4586 80 51.5073C80 51.556 80 51.6047 80 51.6535C80 51.7022 80 51.751 80 51.7997C80 51.8485 80 51.8973 80 51.9461C80 51.9949 80 52.0437 80 52.0925C80 52.1413 80 52.1902 80 52.239C80 52.2879 80 52.3368 80 52.3857C80 52.4346 80 52.4835 80 52.5324C80 52.5813 80 52.6303 80 52.6792C80 52.7282 80 52.7771 80 52.8261C80 52.8751 80 52.9241 80 52.9732C80 53.0222 80 53.0712 80 53.1203C80 53.1693 80 53.2184 80 53.2675C80 53.3166 80 53.3657 80 53.4148C80 53.464 80 53.5131 80 53.5623C80 53.6114 80 53.6606 80 53.7098C80 53.759 80 53.8082 80 53.8575C80 53.9067 80 53.956 80 54.0052C80 54.0545 80 54.1038 80 54.1531C80 54.2024 80 54.2517 80 54.3011C80 54.3504 80 54.3998 80 54.4492C80 54.4986 80 54.548 80 54.5974C80 54.6468 80 54.6963 80 54.7457C80 54.7952 80 54.8447 80 54.8942C80 54.9437 80 54.9932 80 55.0427C80 55.0923 80 55.1418 80 55.1914C80 55.241 80 55.2906 80 55.3402C80 55.3898 80 55.4395 80 55.4891C80 55.5388 80 55.5885 80 55.6382C80 55.6879 80 55.7376 80 55.7873C80 55.8371 80 55.8868 80 55.9366C80 55.9864 80 56.0362 80 56.086C80 56.1359 80 56.1857 80 56.2356C80 56.2855 80 56.3353 80 56.3853C80 56.4352 80 56.4851 80 56.5351C80 56.585 80 56.635 80 56.685C80 56.735 80 56.785 80 56.8351C80 56.8851 80 56.9352 80 56.9853C80 57.0354 80 57.0855 80 57.1356C80 57.1857 80 57.2359 80 57.2861C80 57.3363 80 57.3865 80 57.4367C80 57.4869 80 57.5372 80 57.5875C80 57.6377 80 57.688 80 57.7383C80 57.7887 80 57.839 80 57.8894C80 57.9397 80 57.9901 80 58.0405C80 58.091 80 58.1414 80 58.1919C80 58.2423 80 58.2928 80 58.3433C80 58.3938 80 58.4444 80 58.4949C80 58.5455 80 58.5961 80 58.6467C80 58.6973 80 58.7479 80 58.7986C80 58.8493 80 58.8999 80 58.9506C80 59.0014 80 59.0521 80 59.1029C80 59.1536 80 59.2044 80 59.2552C80 59.306 80 59.3569 80 59.4077C80 59.4586 80 59.5095 80 59.5604C80 59.6113 80 59.6622 80 59.7132C80 59.7642 80 59.8152 80 59.8662C80 59.9172 80 59.9682 80 60.0193C80 60.0704 80 60.1215 80 60.1726C80 60.2237 80 60.2749 80 60.3261C80 60.3772 80 60.4285 80 60.4797C80 60.5309 80 60.5822 80 60.6335C80 60.6848 80 60.7361 80 60.7874C80 60.8388 80 60.8901 80 60.9415C80 60.9929 80 61.0444 80 61.0958C80 61.1473 80 61.1987 80 61.2503C80 61.3018 80 61.3533 80 61.4049C80 61.4564 80 61.508 80 61.5597C80 61.6113 80 61.6629 80 61.7146C80 61.7663 80 61.818 80 61.8697C80 61.9215 80 61.9733 80 62.025C80 62.0768 80 62.1287 80 62.1805C80 62.2324 80 62.2843 80 62.3362C80 62.3881 80 62.44 80 62.492C80 62.544 80 62.596 80 62.648C80 62.7001 80 62.7521 80 62.8042C80 62.8563 80 62.9085 80 62.9606C80 63.0128 80 63.065 80 63.1172C80 63.1694 80 63.2216 80 63.2739C80 63.3262 80 63.3785 80 63.4308C80 63.4832 80 63.5356 80 63.588C80 63.6404 80 63.6928 80 63.7453C80 63.7977 80 63.8502 80 63.9028C80 63.9553 80 64.0078 80 64.0604C80 64.113 80 64.1657 80 64.2183C80 64.271 80 64.3237 80 64.3764C80 64.4291 80 64.4819 80 64.5346C80 64.5874 80 64.6402 80 64.6931C80 64.7459 80 64.7988 80 64.8517C80 64.9047 80 64.9576 80 65.0106C80 65.0636 80 65.1166 80 65.1696C80 65.2227 80 65.2758 80 65.3289C80 65.382 80 65.4352 80 65.4883C80 65.5415 80 65.5947 80 65.648C80 65.7013 80 65.7545 80 65.8079C80 65.8612 80 65.9145 80 65.9679C80 66.0213 80 66.0747 80 66.1282C80 66.1816 80 66.2351 80 66.2887C80 66.3422 80 66.3957 80 66.4493C80 66.5029 80 66.5566 80 66.6102C80 66.6639 80 66.7176 80 66.7713C80 66.8251 80 66.8788 80 66.9327C80 66.9865 80 67.0403 80 67.0942C80 67.1481 80 67.202 80 67.2559C80 67.3099 80 67.3639 80 67.4179C80 67.4719 80 67.526 80 67.5801C80 67.6342 80 67.6883 80 67.7425C80 67.7966 80 67.8508 80 67.9051C80 67.9593 80 68.0136 80 68.0679C80 68.1222 80 68.1766 80 68.231C80 68.2854 80 68.3398 80 68.3943C80 68.4487 80 68.5032 80 68.5578C80 68.6123 80 68.6669 80 68.7215C80 68.7761 80 68.8308 80 68.8855C80 68.9401 80 68.9949 80 69.0496C80 69.1044 80 69.1592 80 69.2141C80 69.2689 80 69.3238 80 69.3787C80 69.4336 80 69.4886 80 69.5436C80 69.5986 80 69.6536 80 69.7087C80 69.7638 80 69.8189 80 69.8741C80 69.9292 80 69.9844 80 70.0396C80 70.0949 80 70.1501 80 70.2055C80 70.2608 80 70.3161 80 70.3715C80 70.4269 80 70.4823 80 70.5378C80 70.5933 80 70.6488 80 70.7044C80 70.7599 80 70.8155 80 70.8711C80 70.9268 80 70.9824 80 71.0382C80 71.0939 80 71.1496 80 71.2054C80 71.2612 80 71.3171 80 71.3729C80 71.4288 80 71.4847 80 71.5407C80 71.5967 80 71.6527 80 71.7087C80 71.7647 80 71.8208 80 71.877C80 71.9331 80 71.9893 80 72.0455C80 72.1017 80 72.1579 80 72.2142C80 72.2705 80 72.3269 80 72.3832C80 72.4396 80 72.496 80 72.5525C80 72.609 80 72.6655 80 72.722C80 72.7786 80 72.8352 80 72.8918C80 72.9484 80 73.0051 80 73.0618C80 73.1185 80 73.1753 80 73.2321C80 73.2889 80 73.3458 80 73.4027C80 73.4596 80 73.5165 80 73.5735C80 73.6305 80 73.6875 80 73.7446C80 73.8016 80 73.8587 80 73.9159C80 73.9731 80 74.0303 80 74.0875C80 74.1448 80 74.2021 80 74.2594C80 74.3167 80 74.3741 80 74.4315C80 74.489 80 74.5464 80 74.6039C80 74.6614 80 74.719 80 74.7766C80 74.8342 80 74.8919 80 74.9496C80 75.0073 80 75.065 80 75.1228C80 75.1806 80 75.2384 80 75.2963C80 75.3542 80 75.4121 80 75.4701C80 75.528 80 75.586 80 75.6441C80 75.7022 80 75.7603 80 75.8184C80 75.8766 80 75.9348 80 75.993C80 76.0513 80 76.1096 80 76.1679C80 76.2263 80 76.2846 80 76.3431C80 76.4015 80 76.46 80 76.5185C80 76.5771 80 76.6356 80 76.6943C80 76.7529 80 76.8115 80 76.8703C80 76.929 80 76.9878 80 77.0466C80 77.1054 80 77.1642 80 77.2232C80 77.2821 80 77.341 80 77.4C80 77.459 80 77.5181 80 77.5772C80 77.6363 80 77.6955 80 77.7547C80 77.8139 80 77.8731 80 77.9324C80 77.9917 80 78.051 80 78.1104C80 78.1698 80 78.2293 80 78.2888C80 78.3483 80 78.4078 80 78.4674C80 78.527 80 78.5866 80 78.6463C80 78.706 80 78.7658 80 78.8256C80 78.8854 80 78.9452 80 79.0051C80 79.065 80 79.1249 80 79.1849C80 79.2449 80 79.305 80 79.365C80 79.4251 80 79.4853 80 79.5455C80 79.6057 80 79.6659 80 79.7262C80 79.7865 80 79.8469 80 79.9073C80 79.9677 80 80.0281 80 80.0886C80 80.1491 80 80.2097 80 80.2703C80 80.3309 80 80.3915 80 80.4522C80 80.5129 80 80.5737 80 80.6345C80 80.6953 80 80.7562 80 80.8171C80 80.878 80 80.939 80 81H82C82 80.939 82 80.878 82 80.8171C82 80.7562 82 80.6953 82 80.6345C82 80.5737 82 80.5129 82 80.4522C82 80.3915 82 80.3309 82 80.2703C82 80.2097 82 80.1491 82 80.0886C82 80.0281 82 79.9677 82 79.9073C82 79.8469 82 79.7865 82 79.7262C82 79.6659 82 79.6057 82 79.5455C82 79.4853 82 79.4251 82 79.365C82 79.305 82 79.2449 82 79.1849C82 79.1249 82 79.065 82 79.0051C82 78.9452 82 78.8854 82 78.8256C82 78.7658 82 78.706 82 78.6463C82 78.5866 82 78.527 82 78.4674C82 78.4078 82 78.3483 82 78.2888C82 78.2293 82 78.1698 82 78.1104C82 78.051 82 77.9917 82 77.9324C82 77.8731 82 77.8139 82 77.7547C82 77.6955 82 77.6363 82 77.5772C82 77.5181 82 77.459 82 77.4C82 77.341 82 77.2821 82 77.2232C82 77.1642 82 77.1054 82 77.0466C82 76.9878 82 76.929 82 76.8703C82 76.8115 82 76.7529 82 76.6943C82 76.6356 82 76.5771 82 76.5185C82 76.46 82 76.4015 82 76.3431C82 76.2846 82 76.2263 82 76.1679C82 76.1096 82 76.0513 82 75.993C82 75.9348 82 75.8766 82 75.8184C82 75.7603 82 75.7022 82 75.6441C82 75.586 82 75.528 82 75.4701C82 75.4121 82 75.3542 82 75.2963C82 75.2384 82 75.1806 82 75.1228C82 75.065 82 75.0073 82 74.9496C82 74.8919 82 74.8342 82 74.7766C82 74.719 82 74.6614 82 74.6039C82 74.5464 82 74.489 82 74.4315C82 74.3741 82 74.3167 82 74.2594C82 74.2021 82 74.1448 82 74.0875C82 74.0303 82 73.9731 82 73.9159C82 73.8587 82 73.8016 82 73.7446C82 73.6875 82 73.6305 82 73.5735C82 73.5165 82 73.4596 82 73.4027C82 73.3458 82 73.2889 82 73.2321C82 73.1753 82 73.1185 82 73.0618C82 73.0051 82 72.9484 82 72.8918C82 72.8352 82 72.7786 82 72.722C82 72.6655 82 72.609 82 72.5525C82 72.496 82 72.4396 82 72.3832C82 72.3269 82 72.2705 82 72.2142C82 72.1579 82 72.1017 82 72.0455C82 71.9893 82 71.9331 82 71.877C82 71.8208 82 71.7647 82 71.7087C82 71.6527 82 71.5967 82 71.5407C82 71.4847 82 71.4288 82 71.3729C82 71.3171 82 71.2612 82 71.2054C82 71.1496 82 71.0939 82 71.0382C82 70.9824 82 70.9268 82 70.8711C82 70.8155 82 70.7599 82 70.7044C82 70.6488 82 70.5933 82 70.5378C82 70.4823 82 70.4269 82 70.3715C82 70.3161 82 70.2608 82 70.2055C82 70.1501 82 70.0949 82 70.0396C82 69.9844 82 69.9292 82 69.8741C82 69.8189 82 69.7638 82 69.7087C82 69.6536 82 69.5986 82 69.5436C82 69.4886 82 69.4336 82 69.3787C82 69.3238 82 69.2689 82 69.2141C82 69.1592 82 69.1044 82 69.0496C82 68.9949 82 68.9401 82 68.8855C82 68.8308 82 68.7761 82 68.7215C82 68.6669 82 68.6123 82 68.5578C82 68.5032 82 68.4487 82 68.3943C82 68.3398 82 68.2854 82 68.231C82 68.1766 82 68.1222 82 68.0679C82 68.0136 82 67.9593 82 67.9051C82 67.8508 82 67.7966 82 67.7425C82 67.6883 82 67.6342 82 67.5801C82 67.526 82 67.4719 82 67.4179C82 67.3639 82 67.3099 82 67.2559C82 67.202 82 67.1481 82 67.0942C82 67.0403 82 66.9865 82 66.9327C82 66.8788 82 66.8251 82 66.7713C82 66.7176 82 66.6639 82 66.6102C82 66.5566 82 66.5029 82 66.4493C82 66.3957 82 66.3422 82 66.2887C82 66.2351 82 66.1816 82 66.1282C82 66.0747 82 66.0213 82 65.9679C82 65.9145 82 65.8612 82 65.8079C82 65.7545 82 65.7013 82 65.648C82 65.5947 82 65.5415 82 65.4883C82 65.4352 82 65.382 82 65.3289C82 65.2758 82 65.2227 82 65.1696C82 65.1166 82 65.0636 82 65.0106C82 64.9576 82 64.9047 82 64.8517C82 64.7988 82 64.7459 82 64.6931C82 64.6402 82 64.5874 82 64.5346C82 64.4819 82 64.4291 82 64.3764C82 64.3237 82 64.271 82 64.2183C82 64.1657 82 64.113 82 64.0604C82 64.0078 82 63.9553 82 63.9028C82 63.8502 82 63.7977 82 63.7453C82 63.6928 82 63.6404 82 63.588C82 63.5356 82 63.4832 82 63.4308C82 63.3785 82 63.3262 82 63.2739C82 63.2216 82 63.1694 82 63.1172C82 63.065 82 63.0128 82 62.9606C82 62.9085 82 62.8563 82 62.8042C82 62.7521 82 62.7001 82 62.648C82 62.596 82 62.544 82 62.492C82 62.44 82 62.3881 82 62.3362C82 62.2843 82 62.2324 82 62.1805C82 62.1287 82 62.0768 82 62.025C82 61.9733 82 61.9215 82 61.8697C82 61.818 82 61.7663 82 61.7146C82 61.6629 82 61.6113 82 61.5597C82 61.508 82 61.4564 82 61.4049C82 61.3533 82 61.3018 82 61.2503C82 61.1987 82 61.1473 82 61.0958C82 61.0444 82 60.9929 82 60.9415C82 60.8901 82 60.8388 82 60.7874C82 60.7361 82 60.6848 82 60.6335C82 60.5822 82 60.5309 82 60.4797C82 60.4285 82 60.3772 82 60.3261C82 60.2749 82 60.2237 82 60.1726C82 60.1215 82 60.0704 82 60.0193C82 59.9682 82 59.9172 82 59.8662C82 59.8152 82 59.7642 82 59.7132C82 59.6622 82 59.6113 82 59.5604C82 59.5095 82 59.4586 82 59.4077C82 59.3569 82 59.306 82 59.2552C82 59.2044 82 59.1536 82 59.1029C82 59.0521 82 59.0014 82 58.9506C82 58.8999 82 58.8493 82 58.7986C82 58.7479 82 58.6973 82 58.6467C82 58.5961 82 58.5455 82 58.4949C82 58.4444 82 58.3938 82 58.3433C82 58.2928 82 58.2423 82 58.1919C82 58.1414 82 58.091 82 58.0405C82 57.9901 82 57.9397 82 57.8894C82 57.839 82 57.7887 82 57.7383C82 57.688 82 57.6377 82 57.5875C82 57.5372 82 57.4869 82 57.4367C82 57.3865 82 57.3363 82 57.2861C82 57.2359 82 57.1857 82 57.1356C82 57.0855 82 57.0354 82 56.9853C82 56.9352 82 56.8851 82 56.8351C82 56.785 82 56.735 82 56.685C82 56.635 82 56.585 82 56.5351C82 56.4851 82 56.4352 82 56.3853C82 56.3353 82 56.2855 82 56.2356C82 56.1857 82 56.1359 82 56.086C82 56.0362 82 55.9864 82 55.9366C82 55.8868 82 55.8371 82 55.7873C82 55.7376 82 55.6879 82 55.6382C82 55.5885 82 55.5388 82 55.4891C82 55.4395 82 55.3898 82 55.3402C82 55.2906 82 55.241 82 55.1914C82 55.1418 82 55.0923 82 55.0427C82 54.9932 82 54.9437 82 54.8942C82 54.8447 82 54.7952 82 54.7457C82 54.6963 82 54.6468 82 54.5974C82 54.548 82 54.4986 82 54.4492C82 54.3998 82 54.3504 82 54.3011C82 54.2517 82 54.2024 82 54.1531C82 54.1038 82 54.0545 82 54.0052C82 53.956 82 53.9067 82 53.8575C82 53.8082 82 53.759 82 53.7098C82 53.6606 82 53.6114 82 53.5623C82 53.5131 82 53.464 82 53.4148C82 53.3657 82 53.3166 82 53.2675C82 53.2184 82 53.1693 82 53.1203C82 53.0712 82 53.0222 82 52.9732C82 52.9241 82 52.8751 82 52.8261C82 52.7771 82 52.7282 82 52.6792C82 52.6303 82 52.5813 82 52.5324C82 52.4835 82 52.4346 82 52.3857C82 52.3368 82 52.2879 82 52.239C82 52.1902 82 52.1413 82 52.0925C82 52.0437 82 51.9949 82 51.9461C82 51.8973 82 51.8485 82 51.7997C82 51.751 82 51.7022 82 51.6535C82 51.6047 82 51.556 82 51.5073C82 51.4586 82 51.4099 82 51.3612C82 51.3126 82 51.2639 82 51.2153C82 51.1666 82 51.118 82 51.0694C82 51.0207 82 50.9721 82 50.9236C82 50.875 82 50.8264 82 50.7778C82 50.7293 82 50.6807 82 50.6322C82 50.5837 82 50.5351 82 50.4866C82 50.4381 82 50.3896 82 50.3412C82 50.2927 82 50.2442 82 50.1958C82 50.1473 82 50.0989 82 50.0504C82 50.002 82 49.9536 82 49.9052C82 49.8568 82 49.8084 82 49.76C82 49.7116 82 49.6633 82 49.6149C82 49.5666 82 49.5182 82 49.4699C82 49.4216 82 49.3733 82 49.325C82 49.2767 82 49.2284 82 49.1801C82 49.1318 82 49.0835 82 49.0353C82 48.987 82 48.9388 82 48.8906C82 48.8423 82 48.7941 82 48.7459C82 48.6977 82 48.6495 82 48.6013C82 48.5531 82 48.5049 82 48.4567C82 48.4086 82 48.3604 82 48.3123C82 48.2641 82 48.216 82 48.1679C82 48.1197 82 48.0716 82 48.0235C82 47.9754 82 47.9273 82 47.8792C82 47.8311 82 47.7831 82 47.735C82 47.6869 82 47.6389 82 47.5908C82 47.5428 82 47.4947 82 47.4467C82 47.3987 82 47.3507 82 47.3026C82 47.2546 82 47.2066 82 47.1586C82 47.1106 82 47.0627 82 47.0147C82 46.9667 82 46.9187 82 46.8708C82 46.8228 82 46.7749 82 46.7269C82 46.679 82 46.631 82 46.5831C82 46.5352 82 46.4873 82 46.4394C82 46.3915 82 46.3436 82 46.2957C82 46.2478 82 46.1999 82 46.152C82 46.1041 82 46.0562 82 46.0084C82 45.9605 82 45.9127 82 45.8648C82 45.8169 82 45.7691 82 45.7213C82 45.6734 82 45.6256 82 45.5778C82 45.5299 82 45.4821 82 45.4343C82 45.3865 82 45.3387 82 45.2909C82 45.2431 82 45.1953 82 45.1475C82 45.0997 82 45.0519 82 45.0042C82 44.9564 82 44.9086 82 44.8609C82 44.8131 82 44.7653 82 44.7176C82 44.6698 82 44.6221 82 44.5743C82 44.5266 82 44.4789 82 44.4311C82 44.3834 82 44.3357 82 44.2879C82 44.2402 82 44.1925 82 44.1448C82 44.0971 82 44.0494 82 44.0017C82 43.954 82 43.9063 82 43.8586C82 43.8109 82 43.7632 82 43.7155C82 43.6678 82 43.6201 82 43.5724C82 43.5247 82 43.4771 82 43.4294C82 43.3817 82 43.334 82 43.2864C82 43.2387 82 43.191 82 43.1434C82 43.0957 82 43.0481 82 43.0004C82 42.9527 82 42.9051 82 42.8574C82 42.8098 82 42.7621 82 42.7145C82 42.6669 82 42.6192 82 42.5716C82 42.5239 82 42.4763 82 42.4287C82 42.381 82 42.3334 82 42.2858C82 42.2381 82 42.1905 82 42.1429C82 42.0952 82 42.0476 82 42C82 41.9524 82 41.9047 82 41.8571C82 41.8095 82 41.7619 82 41.7143C82 41.6666 82 41.619 82 41.5714C82 41.5238 82 41.4762 82 41.4285C82 41.3809 82 41.3333 82 41.2857C82 41.2381 82 41.1905 82 41.1428C82 41.0952 82 41.0476 82 41C82 40.9524 82 40.9048 82 40.8572C82 40.8095 82 40.7619 82 40.7143C82 40.6667 82 40.6191 82 40.5715C82 40.5238 82 40.4762 82 40.4286C82 40.381 82 40.3334 82 40.2857C82 40.2381 82 40.1905 82 40.1429C82 40.0953 82 40.0476 82 40C82 39.9524 82 39.9048 82 39.8571C82 39.8095 82 39.7619 82 39.7142C82 39.6666 82 39.619 82 39.5713C82 39.5237 82 39.4761 82 39.4284C82 39.3808 82 39.3331 82 39.2855C82 39.2379 82 39.1902 82 39.1426C82 39.0949 82 39.0473 82 38.9996C82 38.9519 82 38.9043 82 38.8566C82 38.809 82 38.7613 82 38.7136C82 38.666 82 38.6183 82 38.5706C82 38.5229 82 38.4753 82 38.4276C82 38.3799 82 38.3322 82 38.2845C82 38.2368 82 38.1891 82 38.1414C82 38.0937 82 38.046 82 37.9983C82 37.9506 82 37.9029 82 37.8552C82 37.8075 82 37.7598 82 37.7121C82 37.6643 82 37.6166 82 37.5689C82 37.5211 82 37.4734 82 37.4257C82 37.3779 82 37.3302 82 37.2824C82 37.2347 82 37.1869 82 37.1391C82 37.0914 82 37.0436 82 36.9958C82 36.9481 82 36.9003 82 36.8525C82 36.8047 82 36.7569 82 36.7091C82 36.6613 82 36.6135 82 36.5657C82 36.5179 82 36.4701 82 36.4222C82 36.3744 82 36.3266 82 36.2787C82 36.2309 82 36.1831 82 36.1352C82 36.0873 82 36.0395 82 35.9916C82 35.9438 82 35.8959 82 35.848C82 35.8001 82 35.7522 82 35.7043C82 35.6564 82 35.6085 82 35.5606C82 35.5127 82 35.4648 82 35.4169C82 35.369 82 35.321 82 35.2731C82 35.2251 82 35.1772 82 35.1292C82 35.0813 82 35.0333 82 34.9853C82 34.9373 82 34.8894 82 34.8414C82 34.7934 82 34.7454 82 34.6974C82 34.6493 82 34.6013 82 34.5533C82 34.5053 82 34.4572 82 34.4092C82 34.3611 82 34.3131 82 34.265C82 34.2169 82 34.1689 82 34.1208C82 34.0727 82 34.0246 82 33.9765C82 33.9284 82 33.8803 82 33.8321C82 33.784 82 33.7359 82 33.6877C82 33.6396 82 33.5914 82 33.5433C82 33.4951 82 33.4469 82 33.3987C82 33.3505 82 33.3023 82 33.2541C82 33.2059 82 33.1577 82 33.1094C82 33.0612 82 33.013 82 32.9647C82 32.9165 82 32.8682 82 32.8199C82 32.7716 82 32.7233 82 32.675C82 32.6267 82 32.5784 82 32.5301C82 32.4818 82 32.4334 82 32.3851C82 32.3367 82 32.2884 82 32.24C82 32.1916 82 32.1432 82 32.0948C82 32.0464 82 31.998 82 31.9496C82 31.9011 82 31.8527 82 31.8042C82 31.7558 82 31.7073 82 31.6588C82 31.6104 82 31.5619 82 31.5134C82 31.4649 82 31.4163 82 31.3678C82 31.3193 82 31.2707 82 31.2222C82 31.1736 82 31.125 82 31.0764C82 31.0279 82 30.9793 82 30.9306C82 30.882 82 30.8334 82 30.7847C82 30.7361 82 30.6874 82 30.6388C82 30.5901 82 30.5414 82 30.4927C82 30.444 82 30.3953 82 30.3465C82 30.2978 82 30.249 82 30.2003C82 30.1515 82 30.1027 82 30.0539C82 30.0051 82 29.9563 82 29.9075C82 29.8587 82 29.8098 82 29.761C82 29.7121 82 29.6632 82 29.6143C82 29.5654 82 29.5165 82 29.4676C82 29.4187 82 29.3697 82 29.3208C82 29.2718 82 29.2229 82 29.1739C82 29.1249 82 29.0759 82 29.0268C82 28.9778 82 28.9288 82 28.8797C82 28.8307 82 28.7816 82 28.7325C82 28.6834 82 28.6343 82 28.5852C82 28.536 82 28.4869 82 28.4377C82 28.3886 82 28.3394 82 28.2902C82 28.241 82 28.1918 82 28.1425C82 28.0933 82 28.044 82 27.9948C82 27.9455 82 27.8962 82 27.8469C82 27.7976 82 27.7483 82 27.6989C82 27.6496 82 27.6002 82 27.5508C82 27.5014 82 27.452 82 27.4026C82 27.3532 82 27.3037 82 27.2543C82 27.2048 82 27.1553 82 27.1058C82 27.0563 82 27.0068 82 26.9573C82 26.9077 82 26.8582 82 26.8086C82 26.759 82 26.7094 82 26.6598C82 26.6102 82 26.5605 82 26.5109C82 26.4612 82 26.4115 82 26.3618C82 26.3121 82 26.2624 82 26.2127C82 26.1629 82 26.1132 82 26.0634C82 26.0136 82 25.9638 82 25.914C82 25.8641 82 25.8143 82 25.7644C82 25.7145 82 25.6647 82 25.6147C82 25.5648 82 25.5149 82 25.4649C82 25.415 82 25.365 82 25.315C82 25.265 82 25.215 82 25.1649C82 25.1149 82 25.0648 82 25.0147C82 24.9646 82 24.9145 82 24.8644C82 24.8143 82 24.7641 82 24.7139C82 24.6637 82 24.6135 82 24.5633C82 24.5131 82 24.4628 82 24.4125C82 24.3623 82 24.312 82 24.2617C82 24.2113 82 24.161 82 24.1106C82 24.0603 82 24.0099 82 23.9595C82 23.909 82 23.8586 82 23.8081C82 23.7577 82 23.7072 82 23.6567C82 23.6062 82 23.5556 82 23.5051C82 23.4545 82 23.4039 82 23.3533C82 23.3027 82 23.2521 82 23.2014C82 23.1507 82 23.1001 82 23.0494C82 22.9986 82 22.9479 82 22.8971C82 22.8464 82 22.7956 82 22.7448C82 22.694 82 22.6431 82 22.5923C82 22.5414 82 22.4905 82 22.4396C82 22.3887 82 22.3378 82 22.2868C82 22.2358 82 22.1848 82 22.1338C82 22.0828 82 22.0318 82 21.9807C82 21.9296 82 21.8785 82 21.8274C82 21.7763 82 21.7251 82 21.6739C82 21.6228 82 21.5715 82 21.5203C82 21.4691 82 21.4178 82 21.3665C82 21.3152 82 21.2639 82 21.2126C82 21.1612 82 21.1099 82 21.0585C82 21.0071 82 20.9556 82 20.9042C82 20.8527 82 20.8013 82 20.7497C82 20.6982 82 20.6467 82 20.5951C82 20.5436 82 20.492 82 20.4403C82 20.3887 82 20.3371 82 20.2854C82 20.2337 82 20.182 82 20.1303C82 20.0785 82 20.0267 82 19.975C82 19.9232 82 19.8713 82 19.8195C82 19.7676 82 19.7157 82 19.6638C82 19.6119 82 19.56 82 19.508C82 19.456 82 19.404 82 19.352C82 19.2999 82 19.2479 82 19.1958C82 19.1437 82 19.0915 82 19.0394C82 18.9872 82 18.935 82 18.8828C82 18.8306 82 18.7784 82 18.7261C82 18.6738 82 18.6215 82 18.5692C82 18.5168 82 18.4644 82 18.412C82 18.3596 82 18.3072 82 18.2547C82 18.2023 82 18.1498 82 18.0972C82 18.0447 82 17.9922 82 17.9396C82 17.887 82 17.8343 82 17.7817C82 17.729 82 17.6763 82 17.6236C82 17.5709 82 17.5181 82 17.4654C82 17.4126 82 17.3598 82 17.3069C82 17.2541 82 17.2012 82 17.1483C82 17.0953 82 17.0424 82 16.9894C82 16.9364 82 16.8834 82 16.8304C82 16.7773 82 16.7242 82 16.6711C82 16.618 82 16.5648 82 16.5117C82 16.4585 82 16.4053 82 16.352C82 16.2987 82 16.2455 82 16.1921C82 16.1388 82 16.0855 82 16.0321C82 15.9787 82 15.9253 82 15.8718C82 15.8184 82 15.7649 82 15.7113C82 15.6578 82 15.6043 82 15.5507C82 15.4971 82 15.4434 82 15.3898C82 15.3361 82 15.2824 82 15.2287C82 15.1749 82 15.1212 82 15.0673C82 15.0135 82 14.9597 82 14.9058C82 14.8519 82 14.798 82 14.7441C82 14.6901 82 14.6361 82 14.5821C82 14.5281 82 14.474 82 14.4199C82 14.3658 82 14.3117 82 14.2575C82 14.2034 82 14.1492 82 14.0949C82 14.0407 82 13.9864 82 13.9321C82 13.8778 82 13.8234 82 13.769C82 13.7146 82 13.6602 82 13.6057C82 13.5513 82 13.4968 82 13.4422C82 13.3877 82 13.3331 82 13.2785C82 13.2239 82 13.1692 82 13.1145C82 13.0599 82 13.0051 82 12.9504C82 12.8956 82 12.8408 82 12.7859C82 12.7311 82 12.6762 82 12.6213C82 12.5664 82 12.5114 82 12.4564C82 12.4014 82 12.3464 82 12.2913C82 12.2362 82 12.1811 82 12.1259C82 12.0708 82 12.0156 82 11.9604C82 11.9051 82 11.8499 82 11.7945C82 11.7392 82 11.6839 82 11.6285C82 11.5731 82 11.5177 82 11.4622C82 11.4067 82 11.3512 82 11.2956C82 11.2401 82 11.1845 82 11.1289C82 11.0732 82 11.0176 82 10.9618C82 10.9061 82 10.8504 82 10.7946C82 10.7388 82 10.6829 82 10.6271C82 10.5712 82 10.5153 82 10.4593C82 10.4033 82 10.3473 82 10.2913C82 10.2353 82 10.1792 82 10.123C82 10.0669 82 10.0107 82 9.95454C82 9.89833 82 9.84208 82 9.78578C82 9.72949 82 9.67315 82 9.61677C82 9.56039 82 9.50397 82 9.4475C82 9.39104 82 9.33453 82 9.27798C82 9.22143 82 9.16484 82 9.10821C82 9.05157 82 8.99489 82 8.93817C82 8.88145 82 8.82469 82 8.76788C82 8.71107 82 8.65422 82 8.59733C82 8.54043 82 8.48349 82 8.42651C82 8.36953 82 8.3125 82 8.25543C82 8.19836 82 8.14125 82 8.08409C82 8.02694 82 7.96973 82 7.91249C82 7.85524 82 7.79795 82 7.74061C82 7.68328 82 7.6259 82 7.56847C82 7.51105 82 7.45358 82 7.39606C82 7.33855 82 7.28099 82 7.22339C82 7.16578 82 7.10813 82 7.05044C82 6.99274 82 6.935 82 6.87721C82 6.81943 82 6.76159 82 6.70372C82 6.64584 82 6.58792 82 6.52995C82 6.47198 82 6.41396 82 6.3559C82 6.29784 82 6.23973 82 6.18157C82 6.12342 82 6.06522 82 6.00697C82 5.94872 82 5.89043 82 5.83209C82 5.77375 82 5.71536 82 5.65692C82 5.59849 82 5.54001 82 5.48148C82 5.42295 82 5.36437 82 5.30575C82 5.24712 82 5.18845 82 5.12973C82 5.07101 82 5.01225 82 4.95343C82 4.89462 82 4.83576 82 4.77685C82 4.71794 82 4.65898 82 4.59997C82 4.54096 82 4.48191 82 4.4228C82 4.3637 82 4.30455 82 4.24535C82 4.18615 82 4.1269 82 4.0676C82 4.0083 82 3.94895 82 3.88956C82 3.83016 82 3.77072 82 3.71122C82 3.65173 82 3.59218 82 3.53259C82 3.473 82 3.41335 82 3.35366C82 3.29397 82 3.23423 82 3.17443C82 3.11464 82 3.0548 82 2.99491C82 2.93501 82 2.87507 82 2.81508C82 2.75509 82 2.69504 82 2.63495C82 2.57486 82 2.51471 82 2.45452C82 2.39432 82 2.33408 82 2.27378C82 2.21348 82 2.15314 82 2.09274C82 2.03234 82 1.97189 82 1.91139C82 1.85089 82 1.79034 82 1.72973C82 1.66913 82 1.60847 82 1.54777C82 1.48706 82 1.4263 82 1.36549C82 1.30468 82 1.24382 82 1.1829C82 1.12199 82 1.06102 82 1H80ZM81 80H1V82H81V80ZM2 81V1H0V81H2Z" fill="#5D87A1"/>
</svg>
