<?xml version="1.0" standalone="no"?>
<!DOCTYPE svg PUBLIC "-//W3C//DTD SVG 1.1//EN" "http://www.w3.org/Graphics/SVG/1.1/DTD/svg11.dtd" >
<svg xmlns="http://www.w3.org/2000/svg" xmlns:xlink="http://www.w3.org/1999/xlink" version="1.1">
<metadata>
Created by FontForge 20170731 at Wed Feb 20 11:00:53 2008
 By Aleksey,,,
Copyright (c) 2007 Monotype Imaging Inc. Soho is designed by Sebastian Lester. All rights reserved.
</metadata>
<defs>
<font id="SohoGothicPro-Bold" horiz-adv-x="1378" >
  <font-face 
    font-family="Soho Gothic Pro"
    font-weight="700"
    font-stretch="normal"
    units-per-em="2048"
    panose-1="2 11 8 3 3 5 4 2 2 4"
    ascent="1618"
    descent="-430"
    x-height="1167"
    cap-height="1522"
    bbox="-164 -594 3164 2388"
    underline-thickness="185"
    underline-position="-282"
    unicode-range="U+0020-FE6A"
  />
<missing-glyph horiz-adv-x="2048" 
d="M1792 0h-1536v1536h1536v-1536zM1663 129v1278h-1278v-1278h1278z" />
    <glyph glyph-name="f_f" unicode="ff" horiz-adv-x="1708" 
d="M1016 0v913h-416v-913h-356v913l-195 23v231h195v97q0 88 18.5 156t60.5 114t109.5 70t165.5 24q40 0 80 -3t76.5 -8t68 -11.5t54.5 -12.5v-200q-42 2 -86.5 4t-81.5 2q-38 0 -59.5 -7.5t-32.5 -24.5t-14 -43.5t-3 -63.5v-93h416v97q0 88 18.5 156t60.5 114t109.5 70
t165.5 24q40 0 80 -3t76.5 -8t68 -11.5t54.5 -12.5v-200q-42 2 -86.5 4t-81.5 2q-38 0 -59.5 -7.5t-32.5 -24t-14 -43t-3 -64.5v-93h273v-254h-273v-913h-356z" />
    <glyph glyph-name="f_i" unicode="fi" horiz-adv-x="1518" 
d="M1014 0v913h-414v-913h-356v913l-197 21v233h197v97q0 90 18.5 158.5t60 114t108.5 68.5t165 23q40 0 79.5 -3t76 -8t68 -11.5t54.5 -12.5v-200q-40 2 -84.5 4t-82.5 2q-37 0 -58.5 -7.5t-32 -24t-13.5 -43t-3 -64.5v-93h770v-1167h-356zM1008 1327v268h370v-268h-370z
" />
    <glyph glyph-name="f_l" unicode="fl" horiz-adv-x="1526" 
d="M1022 0v1389q-25 1 -58 3t-69.5 3.5t-75 2.5t-74.5 1q-40 0 -67.5 -4.5t-45 -19t-25 -42t-7.5 -73.5v-93h270v-254h-270v-913h-356v913l-197 23v231h197v93q0 109 26 180.5t77 113t125.5 58t172.5 16.5q48 0 103 -3.5t107 -9t96 -11t71 -9.5h356v-1595h-356z" />
    <glyph glyph-name="f_f_i" unicode="ffi" horiz-adv-x="2288" 
d="M1784 0v913h-414v-913h-354v913h-416v-913h-356v913l-195 23v231h195v97q0 89 18.5 157t60.5 114t109.5 69.5t165.5 23.5q40 0 80 -3t76.5 -8t68 -11.5t54.5 -12.5v-200q-42 2 -86.5 4t-81.5 2t-58.5 -7.5t-33 -24t-14.5 -43t-3 -64.5v-93h416v97q0 89 18.5 157t60 114
t108.5 69.5t165 23.5q40 0 80 -3t76.5 -8t68 -11.5t54.5 -12.5v-200q-42 2 -86 4t-82 2q-37 0 -58.5 -7.5t-33 -24t-14.5 -43t-3 -64.5v-93h770v-1167h-356zM1776 1327v268h372v-268h-372z" />
    <glyph glyph-name="f_f_l" unicode="ffl" horiz-adv-x="2294" 
d="M1790 0v1389q-24 1 -56.5 3t-68.5 3.5t-74 2.5t-73 1q-41 0 -69 -4.5t-45.5 -19t-25.5 -42t-8 -73.5v-93h272v-254h-272v-913h-356v913h-414v-913h-356v913l-195 23v231h195v97q0 89 18.5 157t60.5 114t109.5 69.5t165.5 23.5q40 0 80 -3t76.5 -8t68 -11.5t54.5 -12.5
v-200q-42 2 -86.5 4t-81.5 2q-38 0 -59.5 -7.5t-32.5 -24t-14 -43t-3 -64.5v-93h414v93q0 109 26 180.5t77 113t126.5 58t173.5 16.5q47 0 101 -3.5t105.5 -9t95.5 -11t71 -9.5h358v-1595h-358z" />
    <glyph glyph-name="f_b" unicode="fb" horiz-adv-x="2210" 
d="M2114 524q0 -151 -37.5 -256.5t-111.5 -172t-184 -96.5t-255 -30q-58 0 -110.5 1.5t-111 5.5t-128.5 9.5t-164 14.5v1386q-57 5 -125.5 9t-143.5 4q-39 0 -66 -4.5t-44.5 -19.5t-25 -43t-7.5 -75v-90h270v-254h-270v-913h-356v913l-197 23v231h197v90q0 108 26 179.5
t77.5 114t127 60t174.5 17.5q91 0 184.5 -8.5t178.5 -24.5h356v-440q59 25 121 35t119 10q261 0 383.5 -129.5t122.5 -402.5v-144zM1759 670q0 73 -9.5 122.5t-33 79.5t-62 43t-95.5 13q-16 0 -40 -1.5t-50.5 -5t-53.5 -10.5t-49 -18v-645q29 -2 71 -4t95 -2
q61 0 104.5 12.5t70.5 45t39.5 87.5t12.5 139v144z" />
    <glyph glyph-name="f_f_b" unicode="ffb" horiz-adv-x="2986" 
d="M2890 524q0 -151 -37.5 -256.5t-111.5 -172t-184 -96.5t-255 -30q-58 0 -116.5 2t-121 6t-130.5 9.5t-146 13.5v1389q-23 1 -54 3t-66.5 3.5t-73 2.5t-74.5 1q-39 0 -66.5 -4.5t-45 -19t-26 -42t-8.5 -73.5v-93h273v-254h-273v-913h-354v913h-420v-913h-356v913l-195 21
v233h195v97q0 88 18 156t60 114t109.5 70t166.5 24q78 0 151 -10.5t125 -24.5v-200q-49 2 -88.5 4t-74.5 2q-39 0 -61 -7.5t-33 -24t-14 -43t-3 -64.5v-93h420v93q0 107 26.5 178t77.5 113t125.5 59.5t171.5 17.5q45 0 97 -3.5t102 -8.5t94 -10.5t74 -10.5h356v-438
q51 22 114 32.5t126 10.5q261 0 383.5 -129.5t122.5 -402.5v-144zM2535 670q0 73 -9.5 122.5t-33 79.5t-62 43t-95.5 13q-15 0 -39 -1.5t-50.5 -5t-54 -10.5t-49.5 -18v-645q25 -2 69 -4t97 -2q61 0 104.5 12.5t70.5 45t39.5 87.5t12.5 139v144z" />
    <glyph glyph-name="f_h" unicode="fh" horiz-adv-x="2253" 
d="M1759 0v735q0 57 -8 94.5t-26 60t-47 31.5t-72 9q-34 0 -67.5 -5t-64.5 -13.5t-57.5 -18.5t-46.5 -19v-874h-356v1389q-50 3 -121.5 6.5t-142.5 3.5q-41 0 -69.5 -4.5t-46.5 -19t-26 -42t-8 -73.5v-93h272v-254h-272v-913h-356v913l-195 23v231h195v93q0 109 27 180.5
t79 113t128.5 58t174.5 16.5q49 0 101 -3.5t100 -8.5t89.5 -10.5t70.5 -10.5h356v-479q68 34 159.5 58t190.5 24q121 0 198.5 -33.5t121 -94.5t60 -145t16.5 -186v-739h-357z" />
    <glyph glyph-name="f_f_h" unicode="ffh" horiz-adv-x="3025" 
d="M2529 0v735q0 57 -7.5 94.5t-25 60t-46.5 31.5t-72 9q-34 0 -67.5 -5t-64 -13.5t-57 -18.5t-45.5 -19v-874h-358v1389q-50 3 -121.5 6.5t-142.5 3.5q-41 0 -70 -4.5t-47 -19t-26.5 -42t-8.5 -73.5v-93h272v-254h-272v-913h-354v913h-416v-913h-356v913l-195 23v231h195
v97q0 88 18 156t60 114t109.5 70t166.5 24q39 0 78.5 -3t76 -8t68 -11.5t53.5 -12.5v-200q-40 2 -84 4t-81 2q-38 0 -59.5 -7.5t-32.5 -24t-14 -43t-3 -64.5v-93h416v93q0 109 27 180.5t78.5 113t128 58t175.5 16.5q45 0 96 -3.5t100.5 -8.5t92.5 -10.5t72 -10.5h358v-479
q65 34 157 57t191 23q121 0 198.5 -33.5t121 -93.5t60 -144t16.5 -186v-739h-359z" />
    <glyph glyph-name="f_j" unicode="fj" horiz-adv-x="1526" 
d="M801 -203q29 -2 56 -3t58 -1q34 0 55 6.5t32.5 22t15.5 41.5t4 65v985h-422v-913h-356v913l-195 23v231h195v97q0 88 18.5 156t60.5 114t109.5 70t165.5 24q39 0 78.5 -3t76 -8t68 -11.5t53.5 -12.5v-200q-40 2 -84 4t-81 2t-58.5 -7.5t-33 -24t-14.5 -43t-3 -64.5v-93
h778v-1239q0 -104 -20.5 -175.5t-65.5 -115.5t-115.5 -63.5t-170.5 -19.5q-73 0 -129 6t-76 12v225zM1012 1327v268h372v-268h-372z" />
    <glyph glyph-name="f_f_j" unicode="ffj" horiz-adv-x="2296" 
d="M1571 -203q28 -2 55 -3t60 -1q34 0 54.5 6.5t31.5 22t14.5 41.5t3.5 65v985h-420v-913h-356v913h-414v-913h-356v913l-197 23v231h197v97q0 88 18.5 156t60.5 114t109 70t164 24q40 0 79.5 -3t76 -8t68 -11.5t54.5 -12.5v-200q-42 2 -86 4t-81 2t-58.5 -8t-32 -25
t-13.5 -43t-3 -63v-93h414v97q0 88 18.5 156t60.5 114t109.5 70t165.5 24q81 0 155.5 -11t121.5 -24v-200q-42 2 -86 4t-82 2q-37 0 -58.5 -7.5t-32 -24t-13.5 -43t-3 -64.5v-93h778v-1239q0 -104 -20.5 -175.5t-65.5 -115.5t-115.5 -63.5t-170.5 -19.5q-75 0 -129.5 6
t-75.5 12v225zM1782 1327v268h375v-268h-375z" />
    <glyph glyph-name="f_k" unicode="fk" horiz-adv-x="2152" 
d="M1731 0l-361 541v-541h-354v1389q-26 1 -57.5 3t-66 3.5t-71 2.5t-71.5 1q-41 0 -69.5 -4.5t-46.5 -19t-26 -42t-8 -73.5v-93h272v-254h-272v-913h-356v913l-195 23v231h195v93q0 109 27 180.5t79 113t128.5 58t174.5 16.5q49 0 101 -3.5t101 -8.5t90.5 -10.5t70.5 -10.5
h354v-944l367 516h383l-406 -561l420 -606h-403z" />
    <glyph glyph-name="f_f_k" unicode="ffk" horiz-adv-x="2925" 
d="M2501 0l-361 541v-541h-356v1389q-25 1 -56 3t-65.5 3.5t-70.5 2.5t-70 1q-41 0 -70 -4.5t-47 -19t-26.5 -42t-8.5 -73.5v-93h272v-254h-272v-913h-356v913h-414v-913h-356v913l-195 21v233h195v97q0 88 18.5 156t60.5 114t109.5 70t165.5 24q40 0 80 -3t76.5 -8
t68 -11.5t54.5 -12.5v-200q-42 2 -86.5 4t-81.5 2q-38 0 -59.5 -7.5t-32.5 -24t-14 -43t-3 -64.5v-93h414v93q0 109 27 180.5t79 113t128.5 58t174.5 16.5q49 0 101 -3.5t100 -8.5t89.5 -10.5t70.5 -10.5h356v-944l367 516h383l-406 -561l422 -606h-405z" />
    <glyph glyph-name=".notdef" horiz-adv-x="2048" 
d="M1792 0h-1536v1536h1536v-1536zM1663 129v1278h-1278v-1278h1278z" />
    <glyph glyph-name=".null" horiz-adv-x="0" 
 />
    <glyph glyph-name="nonmarkingreturn" horiz-adv-x="414" 
 />
    <glyph glyph-name="space" unicode=" " horiz-adv-x="414" 
 />
    <glyph glyph-name="exclam" unicode="!" horiz-adv-x="676" 
d="M174 457l-35 1140h398l-35 -1140h-328zM154 0v338h366v-338h-366z" />
    <glyph glyph-name="quotedbl" unicode="&#x22;" horiz-adv-x="987" 
d="M41 1040l80 537h313l-141 -537h-252zM553 1040l80 537h313l-143 -537h-250z" />
    <glyph glyph-name="numbersign" unicode="#" horiz-adv-x="1575" 
d="M838 0l41 365h-281l-39 -365h-297l43 365h-176v223h199l34 323h-233v222h260l43 389h295l-43 -389h279l45 389h295l-43 -389h182v-222h-207l-37 -323h244v-223h-268l-41 -365h-295zM938 911h-279l-36 -323h280z" />
    <glyph glyph-name="dollar" unicode="$" 
d="M539 -260v229q-61 3 -118 8t-106.5 11t-89.5 12.5t-67 13.5v250q49 -4 100.5 -8t109.5 -7.5t124.5 -6t144.5 -2.5q123 0 179 40t56 126q0 32 -8 57.5t-28 47t-54.5 42t-87.5 43.5l-221 94q-81 34 -146.5 72.5t-111.5 90t-71 119.5t-25 163q0 185 106 284t314 125v219h301
v-213q58 -3 113 -8.5t102 -12.5t85.5 -13.5t63.5 -12.5v-246q-106 10 -225.5 17.5t-247.5 7.5q-117 0 -177 -28.5t-60 -106.5q0 -29 7 -52.5t26.5 -44.5t52.5 -40.5t86 -40.5l217 -88q94 -40 164 -82.5t115.5 -95t68 -120t22.5 -157.5q0 -198 -107.5 -309t-305.5 -140v-237
h-301z" />
    <glyph glyph-name="percent" unicode="%" horiz-adv-x="2361" 
d="M2263 420q0 -214 -99 -327t-304 -113t-303.5 113t-98.5 327v78q0 211 98.5 324.5t303.5 113.5q103 0 178.5 -29t125.5 -84.5t74.5 -137t24.5 -187.5v-78zM1997 498q0 75 -10 122t-28 73.5t-43 36t-56 9.5t-56 -9.5t-43 -36t-27.5 -73.5t-9.5 -122v-78q0 -75 9.5 -122.5
t27.5 -74.5t43 -37t56 -10t56 10t43 37t28 74.5t10 122.5v78zM516 0l1018 1526h299l-1018 -1526h-299zM901 1040q0 -101 -21.5 -183t-69 -139.5t-124 -88.5t-186.5 -31q-111 0 -187.5 32t-124 90t-69 139.5t-21.5 180.5v74q0 100 21.5 181t69 138.5t124 89t187.5 31.5
q110 0 186.5 -31t124 -88t69 -138.5t21.5 -182.5v-74zM635 1114q0 73 -7.5 120.5t-24 75.5t-42 39t-61.5 11t-62 -11.5t-42 -40t-23.5 -75.5t-7.5 -119v-74q0 -74 7.5 -121t23.5 -75t42 -38.5t62 -10.5t61.5 10.5t42 38.5t24 75t7.5 121v74z" />
    <glyph glyph-name="ampersand" unicode="&#x26;" horiz-adv-x="1673" 
d="M1223 0l-88 82q-73 -50 -186 -81.5t-271 -31.5q-121 0 -226.5 19.5t-183.5 67.5t-123 127.5t-45 199.5v14q0 72 19.5 129.5t56.5 105t91.5 88t125.5 79.5l-16 18q-48 47 -86 91t-64 89t-39.5 93t-13.5 102v10q0 93 35 159.5t103.5 109.5t168 63t228.5 20q67 0 137 -4.5
t137 -11.5t127 -16.5t107 -18.5v-237q-54 4 -114 8t-122.5 6.5t-125.5 4t-122 1.5q-45 0 -81.5 -5t-62 -18.5t-39 -37t-13.5 -60.5v-6q0 -31 7 -55.5t22.5 -49t40.5 -50.5t61 -60l499 -481q26 57 35.5 128t9.5 146l-96 17v172h473v-172l-96 -17q0 -137 -32 -255t-97 -212
l203 -194v-76h-344zM604 590q-35 -18 -60 -37.5t-42 -43t-25 -51.5t-8 -63v-12q0 -48 19.5 -82.5t53 -56.5t77.5 -32.5t92 -10.5q158 0 241 59z" />
    <glyph glyph-name="quotesingle" unicode="'" horiz-adv-x="475" 
d="M41 1040l80 537h313l-141 -537h-252z" />
    <glyph glyph-name="parenleft" unicode="(" horiz-adv-x="817" 
d="M418 -412q-51 70 -105.5 167.5t-98.5 219t-72.5 265.5t-28.5 307v14q0 163 28.5 307.5t72.5 266.5t98.5 219.5t105.5 167.5h325q-65 -102 -116.5 -209.5t-88 -225.5t-56 -248.5t-19.5 -277.5v-14q0 -147 19.5 -277.5t56 -248.5t88 -225t116.5 -208h-325z" />
    <glyph glyph-name="parenright" unicode=")" horiz-adv-x="817" 
d="M74 -412q64 101 115.5 208t87.5 225t55.5 248.5t19.5 277.5v14q0 147 -19.5 277.5t-55.5 248.5t-87.5 225.5t-115.5 209.5h323q52 -70 106.5 -167.5t98.5 -219.5t72 -266.5t28 -307.5v-14q0 -163 -28 -307t-72 -265.5t-98.5 -219t-106.5 -167.5h-323z" />
    <glyph glyph-name="asterisk" unicode="*" horiz-adv-x="1126" 
d="M717 754l-78 100q-22 29 -40.5 61.5t-37.5 67.5q-17 -37 -36.5 -68t-39.5 -59l-77 -102l-203 147l78 103q18 27 44.5 54.5t55.5 53.5q-40 5 -77.5 12.5t-69.5 18.5l-125 39l77 237l123 -39q34 -11 70.5 -25.5t71.5 -33.5q-17 79 -17 145v127h252v-127q0 -34 -4.5 -71.5
t-13.5 -75.5q37 20 73 35t70 26l125 39l78 -237l-125 -39q-34 -11 -72 -19t-80 -14q31 -25 57 -53t48 -56l76 -100z" />
    <glyph glyph-name="plus" unicode="+" horiz-adv-x="1386" 
d="M827 655v-397h-268v397h-409v269h409v397h268v-397h408v-269h-408z" />
    <glyph glyph-name="comma" unicode="," horiz-adv-x="715" 
d="M57 -193l193 531h373l-277 -531h-289z" />
    <glyph glyph-name="hyphen" unicode="-" horiz-adv-x="770" 
d="M117 479v248h534v-248h-534z" />
    <glyph glyph-name="period" unicode="." horiz-adv-x="618" 
d="M129 0v336h358v-336h-358z" />
    <glyph glyph-name="slash" unicode="/" horiz-adv-x="1014" 
d="M39 0l571 1522h363l-570 -1522h-364z" />
    <glyph glyph-name="zero" unicode="0" horiz-adv-x="1446" 
d="M1346 668q0 -170 -37.5 -301t-114.5 -220.5t-194 -135.5t-277 -46t-277 46t-194 135.5t-114.5 220.5t-37.5 301v184q0 170 37.5 301t114.5 220t194 135t277 46t277 -46t194 -135t114.5 -220t37.5 -301v-184zM961 852q0 124 -16.5 205t-47.5 127.5t-75 65t-99 18.5
q-54 0 -98 -18.5t-75 -65t-48 -127.5t-17 -205v-184q0 -125 17 -205.5t48 -127t75 -65t98 -18.5q55 0 99 18.5t75 65t47.5 127t16.5 205.5v184z" />
    <glyph glyph-name="one" unicode="1" horiz-adv-x="1241" 
d="M104 0v256l328 16v928l-328 -88v270l433 146h276v-1256l326 -16v-256h-1035z" />
    <glyph glyph-name="two" unicode="2" horiz-adv-x="1333" 
d="M106 0v188q0 94 10.5 168.5t33 135.5t58.5 111t87 95t118 87t152 87q91 47 146 81.5t85 65t40 60t10 66.5q0 39 -13.5 65.5t-45.5 43t-84 23.5t-130 7q-55 0 -117.5 -2t-122 -5t-112 -7t-86.5 -8v229q52 15 114.5 27t128.5 20t132.5 12t126.5 4q156 0 269 -23t186 -70.5
t108 -121t35 -174.5q0 -78 -21.5 -142.5t-71 -123t-130.5 -114t-199 -115.5q-72 -37 -125 -66.5t-89.5 -56t-59.5 -52t-36 -54.5t-17.5 -63t-4.5 -77v-20h725v-281h-1100z" />
    <glyph glyph-name="three" unicode="3" horiz-adv-x="1335" 
d="M1233 420q0 -125 -37.5 -211.5t-113 -140.5t-189 -78.5t-266.5 -24.5q-75 0 -151 6.5t-144.5 16.5t-123.5 22t-87 23v233q39 -4 93 -8.5t116 -8.5t128 -6.5t130 -2.5q67 0 117 7.5t82.5 28.5t48.5 59.5t16 100.5v35q0 42 -7.5 75t-31.5 56.5t-68.5 36t-117.5 12.5h-414
v250h416q72 0 116 13.5t67.5 37.5t31.5 58t8 75v21q0 53 -12.5 87t-43 54t-81.5 27.5t-129 7.5q-130 0 -248.5 -7t-212.5 -15v231q27 9 80.5 20t122 20.5t146.5 16t153 6.5q144 0 257 -21t190.5 -69.5t118 -129t40.5 -199.5v-25q0 -50 -9.5 -98t-31 -91.5t-56 -80
t-83.5 -62.5q51 -24 85.5 -59.5t55.5 -77.5t30 -89t9 -95v-37z" />
    <glyph glyph-name="four" unicode="4" horiz-adv-x="1454" 
d="M782 0v346h-698v262l756 914h325v-914h203v-262h-203v-346h-383zM801 1118l-414 -510h414v510z" />
    <glyph glyph-name="five" unicode="5" horiz-adv-x="1313" 
d="M1212 451q0 -134 -42.5 -226.5t-122 -150.5t-193 -83.5t-256.5 -25.5q-85 0 -163.5 6.5t-144.5 15.5t-116.5 19.5t-79.5 18.5v237q36 -3 83.5 -8t103 -9.5t116.5 -8t123 -3.5q85 0 143.5 10.5t94.5 35t51.5 65.5t15.5 102v41q0 56 -13 94t-46.5 61t-91 32.5t-146.5 9.5
h-417l69 838h983v-275h-676l-26 -303h145q174 0 290 -26.5t186.5 -82t100 -141t29.5 -202.5v-41z" />
    <glyph glyph-name="six" unicode="6" horiz-adv-x="1409" 
d="M1309 471q0 -97 -22.5 -172.5t-63 -131.5t-96 -94.5t-121.5 -62.5t-140.5 -34.5t-152.5 -10.5q-158 0 -273 35t-191 111t-112.5 196t-36.5 289v340q0 97 11 180.5t38 152t72.5 121.5t115 89.5t165 55.5t223.5 19q80 0 158 -6t145.5 -14.5t120.5 -18.5t84 -18v-240
q-108 10 -220 17.5t-243 7.5q-100 0 -158 -18t-88 -54.5t-38.5 -91.5t-8.5 -129v-51q28 7 63 12.5t71.5 9.5t72 6.5t64.5 2.5q80 0 152.5 -7t135 -25.5t113 -49.5t86 -79.5t55 -115.5t19.5 -157v-64zM932 528q0 64 -14 104.5t-41.5 63.5t-69.5 31t-98 8q-44 0 -107 -5
t-125 -19v-176q0 -92 15.5 -152t45.5 -95t74.5 -49t102.5 -14q48 0 87.5 14t68.5 44t45 76t16 110v59z" />
    <glyph glyph-name="seven" unicode="7" horiz-adv-x="1303" 
d="M147 0l699 1247h-762v275h1139v-303l-670 -1219h-406z" />
    <glyph glyph-name="eight" unicode="8" horiz-adv-x="1462" 
d="M1358 436q0 -106 -23 -182t-64 -128.5t-98.5 -84t-126.5 -48.5t-148 -22.5t-163 -5.5h-10q-84 0 -162.5 5.5t-147.5 22.5t-126.5 48.5t-98.5 84t-63.5 128.5t-22.5 182v15q0 119 42 198.5t126 134.5q-38 25 -68 56t-51 70t-32.5 88t-11.5 110v18q0 135 48 218.5t131 130
t195.5 63t241.5 16.5h10q130 0 242.5 -16.5t195.5 -63t131 -130t48 -218.5v-18q0 -61 -11.5 -110t-32.5 -88t-51 -70t-67 -56q85 -55 126.5 -134.5t41.5 -198.5v-15zM981 455q0 57 -8 97t-27 66t-50.5 38t-78.5 12h-172q-48 0 -79.5 -12t-50 -38t-26.5 -66t-8 -97v-15
q0 -71 17 -115t48.5 -68.5t77 -33t101.5 -8.5h10q57 0 102.5 8.5t77.5 33t49 68.5t17 115v15zM977 1114q0 57 -17 93.5t-48.5 58t-76.5 29.5t-100 8h-10q-55 0 -100 -8t-76.5 -29.5t-48.5 -58t-17 -93.5v-18q0 -45 7.5 -80t26 -60t49.5 -38t79 -13h172q48 0 79 13t49 38
t25 60t7 80v18z" />
    <glyph glyph-name="nine" unicode="9" horiz-adv-x="1409" 
d="M930 582q-27 -7 -62 -13t-72 -10t-73 -6t-64 -2q-79 0 -151.5 7t-134.5 25.5t-112.5 49.5t-86 79.5t-55 115.5t-19.5 157v64q0 96 22.5 171t63 131t96 95t121.5 63t140.5 34.5t152.5 10.5q157 0 272 -34t191 -108.5t113 -192.5t37 -285v-344q0 -144 -26.5 -259.5
t-96 -196.5t-191.5 -125t-313 -44q-79 0 -157 6t-145.5 15t-121 19t-84.5 18v239q90 -8 212.5 -17t258.5 -9q97 0 154 18.5t86 55.5t37 91.5t8 126.5v54zM930 985q0 92 -15 152t-45 95t-74 48.5t-102 13.5q-48 0 -88.5 -14t-69.5 -43.5t-45 -75.5t-16 -110v-60
q0 -65 14 -105t41.5 -63t69.5 -31t98 -8q22 0 49.5 1.5t58 4t62.5 7t62 10.5v178z" />
    <glyph glyph-name="colon" unicode=":" horiz-adv-x="643" 
d="M141 0v338h359v-338h-359zM141 831v336h359v-336h-359z" />
    <glyph glyph-name="semicolon" unicode=";" horiz-adv-x="672" 
d="M12 -193l162 531h383l-258 -531h-287zM176 831v336h361v-336h-361z" />
    <glyph glyph-name="less" unicode="&#x3c;" horiz-adv-x="1386" 
d="M782 248l-571 543l571 542h392l-568 -542l568 -543h-392z" />
    <glyph glyph-name="equal" unicode="=" horiz-adv-x="1386" 
d="M193 375v268h999v-268h-999zM193 930v270h999v-270h-999z" />
    <glyph glyph-name="greater" unicode="&#x3e;" horiz-adv-x="1386" 
d="M600 248h-389l567 543l-567 542h389l574 -542z" />
    <glyph glyph-name="question" unicode="?" horiz-adv-x="1108" 
d="M238 0v336h358v-336h-358zM260 459v53q0 64 4 116.5t20 100.5t47.5 97t86.5 108q48 52 79.5 91t50 70t25.5 57.5t7 53.5v13q0 36 -12 59t-37 36.5t-62 19t-88 5.5q-35 0 -74.5 -1.5t-80.5 -3.5t-82 -5t-78 -6v233q88 31 202.5 47.5t241.5 16.5q239 0 362 -80t123 -260
v-16q0 -52 -10.5 -98t-35 -92t-65 -94.5t-100.5 -105.5q-72 -71 -114.5 -120t-64 -88.5t-28 -75t-6.5 -78.5v-53h-311z" />
    <glyph glyph-name="at" unicode="@" horiz-adv-x="1806" 
d="M1223 -199q-21 -4 -62.5 -9.5t-94 -10.5t-112 -8.5t-116.5 -3.5q-191 0 -331.5 37t-232.5 110.5t-137 183.5t-45 256q0 81 8.5 158t22.5 143q70 350 288 527.5t582 177.5q166 0 299.5 -38.5t227 -115t144 -189.5t50.5 -263q0 -146 -40 -268t-131.5 -210t-240.5 -137
t-368 -49q-122 0 -210.5 18t-146.5 57.5t-86 101.5t-28 151q0 17 0.5 38t2 43.5t3.5 44.5t4 40q12 116 47 196.5t92 131t136.5 73.5t181.5 23q105 0 200 -13.5t173 -31.5l-68 -648q148 39 215.5 153t67.5 288q0 115 -35.5 200.5t-104 141.5t-169 84t-230.5 28
q-281 0 -445 -146.5t-221 -438.5q-12 -62 -19 -130t-7 -141q0 -116 31 -200.5t97.5 -140t170.5 -82.5t250 -27q58 0 118.5 2t113.5 5t94 6t61 5v-123zM1014 805q-20 3 -47.5 4.5t-48.5 1.5q-39 0 -70 -8.5t-54 -35t-38.5 -74.5t-22.5 -126q-5 -55 -6.5 -89.5t-1.5 -59.5
q0 -40 9 -67t29.5 -43t52.5 -22.5t77 -6.5h35t35 2z" />
    <glyph glyph-name="A" unicode="A" horiz-adv-x="1532" 
d="M1087 0l-108 383h-432l-111 -383h-393l424 1522h594l428 -1522h-402zM817 1061q-14 56 -26 115.5t-21 117.5h-14q-10 -58 -21 -117.5t-26 -115.5l-109 -404h328z" />
    <glyph glyph-name="B" unicode="B" horiz-adv-x="1456" 
d="M1360 446q0 -97 -24 -169t-68.5 -123.5t-108.5 -84.5t-144 -52.5t-175 -27t-201 -7.5q-65 0 -120 1t-111 3t-118 5.5t-140 8.5v1522q83 5 147.5 8.5t120.5 5.5t109.5 3t115.5 1q168 0 300 -18t223 -65.5t138.5 -131t47.5 -213.5v-18q0 -48 -10.5 -94.5t-32 -87
t-55.5 -74.5t-80 -58q51 -23 86 -57.5t57.5 -75.5t32.5 -87t10 -91v-23zM989 471q0 46 -12 81.5t-41 60t-79 37t-126 12.5h-213v-404q21 -1 39 -1.5t36 -0.5h36.5h40.5q81 0 141 7.5t99.5 28.5t59 58.5t19.5 98.5v22zM985 1098q0 56 -20 89t-59 50.5t-97 23t-135 5.5h-40.5
h-36.5t-37.5 -0.5t-41.5 -1.5v-367h211q78 0 128 12t78.5 35.5t39 58t10.5 78.5v17z" />
    <glyph glyph-name="C" unicode="C" horiz-adv-x="1262" 
d="M1196 6q-29 -7 -79 -14t-108.5 -13t-118 -10t-106.5 -4q-163 0 -290 33.5t-214.5 115t-133.5 218t-46 342.5v176q0 206 46 341.5t133.5 216t214.5 113.5t290 33q47 0 106.5 -4t118 -10t108.5 -13.5t79 -15.5v-272q-38 3 -84 6t-95 6t-99 4.5t-97 1.5q-84 0 -147 -17
t-104.5 -62t-62 -124.5t-20.5 -203.5v-176q0 -125 20.5 -205t62.5 -126t105 -63.5t148 -17.5q47 0 96.5 1.5t98.5 3.5t94.5 5.5t83.5 6.5v-273z" />
    <glyph glyph-name="D" unicode="D" horiz-adv-x="1511" 
d="M1411 686q0 -183 -42 -315.5t-131 -219t-228.5 -128t-335.5 -41.5q-75 0 -138.5 1t-124.5 3t-124.5 5.5t-136.5 8.5v1522q73 5 134.5 8.5t122 5.5t125 3t142.5 1q192 0 331 -41.5t229.5 -127t133.5 -216.5t43 -311v-158zM1034 844q0 121 -19.5 200t-62.5 125t-110.5 64
t-163.5 18h-156v-983h156q96 0 163.5 19.5t110.5 67.5t62.5 128.5t19.5 202.5v158z" />
    <glyph glyph-name="E" unicode="E" horiz-adv-x="1286" 
d="M150 0v1522h1036v-279h-654v-332h611v-264h-611v-371h654v-276h-1036z" />
    <glyph glyph-name="F" unicode="F" horiz-adv-x="1268" 
d="M150 0v1522h1038v-281h-656v-332h611v-264h-611v-645h-382z" />
    <glyph glyph-name="G" unicode="G" horiz-adv-x="1444" 
d="M963 821h356v-807q-40 -8 -98.5 -16.5t-130 -15.5t-152.5 -12t-166 -5q-91 0 -175.5 12t-159.5 42.5t-137 81.5t-106.5 129.5t-69 187.5t-24.5 254v180q0 152 27.5 263.5t75.5 189.5t113 126.5t140.5 76t158 37t165.5 9.5q85 0 168.5 -6t155.5 -14.5t127 -18t82 -16.5
v-260l-100 5t-124.5 6t-127.5 5t-109 2q-60 0 -110.5 -5.5t-92 -20.5t-73.5 -43t-53.5 -73t-32.5 -109.5t-11 -153.5v-180q0 -122 18.5 -201.5t57 -126t96.5 -64.5t137 -18q47 0 92 0.5t83 3.5v555z" />
    <glyph glyph-name="H" unicode="H" horiz-adv-x="1638" 
d="M1106 0v641h-571v-641h-385v1522h385v-590h571v590h383v-1522h-383z" />
    <glyph glyph-name="I" unicode="I" horiz-adv-x="682" 
d="M150 0v1522h382v-1522h-382z" />
    <glyph glyph-name="J" unicode="J" horiz-adv-x="682" 
d="M-76 -188q31 -2 57.5 -3.5t51.5 -1.5q39 0 62 7t35.5 22.5t16 41t3.5 61.5v1583h382v-1569q0 -105 -24 -180t-73.5 -122t-126 -69t-181.5 -22q-26 0 -54.5 1.5t-56 4t-51.5 5.5t-41 7v234z" />
    <glyph glyph-name="K" unicode="K" horiz-adv-x="1511" 
d="M1034 0l-493 707v-707h-385v1522h385v-705l520 705h442l-567 -752l561 -770h-463z" />
    <glyph glyph-name="L" unicode="L" horiz-adv-x="1186" 
d="M150 0v1522h385v-1235h595v-287h-980z" />
    <glyph glyph-name="M" unicode="M" horiz-adv-x="1835" 
d="M1317 0v756q0 34 0.5 64.5t1.5 60t2.5 60t3.5 63.5h-4q-23 -53 -48.5 -101.5t-49.5 -93.5l-195 -356h-223l-191 356q-24 45 -49.5 95t-48.5 100h-4q1 -33 2.5 -63.5t2 -60t1 -60t0.5 -64.5v-756h-368v1522h374l295 -541q25 -43 49 -90.5t45 -95.5h5q23 48 47 96.5
t49 91.5l297 539h375v-1522h-369z" />
    <glyph glyph-name="N" unicode="N" horiz-adv-x="1589" 
d="M1042 0l-440 791q-28 49 -55.5 103t-50.5 105h-4q2 -60 4 -121.5t2 -123.5v-754h-348v1522h391l444 -777q28 -49 57 -106.5t52 -108.5h4q-3 54 -4.5 122.5t-1.5 138.5v731h348v-1522h-398z" />
    <glyph glyph-name="O" unicode="O" horiz-adv-x="1526" 
d="M1425 682q0 -197 -48 -334t-135.5 -222t-209.5 -123t-270 -38q-147 0 -269 38t-209.5 123t-135.5 222t-48 334v156q0 198 48.5 334.5t136 221.5t209 122.5t268.5 37.5t269 -37.5t209.5 -122.5t136 -221.5t48.5 -334.5v-156zM1049 838q0 119 -19 199.5t-55.5 129t-90 69.5
t-122.5 21q-68 0 -120.5 -21t-89.5 -69.5t-56 -129t-19 -199.5v-154q0 -122 19.5 -203t56 -129.5t89.5 -69t120 -20.5t120.5 20.5t90.5 69t56.5 129.5t19.5 203v154z" />
    <glyph glyph-name="P" unicode="P" horiz-adv-x="1415" 
d="M150 0v1522q63 4 122.5 7.5t118.5 6t120 3.5t126 1q99 0 190 -7.5t170.5 -27.5t145 -55.5t112 -90.5t72 -132.5t25.5 -182.5v-20q0 -106 -25.5 -185t-71 -135t-108.5 -92t-138 -56t-160.5 -28t-174.5 -8h-74.5t-81.5 2v-522h-368zM981 1044q-1 66 -21 107t-59.5 63.5
t-98.5 30.5t-138 8q-38 0 -76 -1t-70 -1v-442h146q80 0 139.5 9t99 33t59 66t19.5 107v20z" />
    <glyph glyph-name="Q" unicode="Q" horiz-adv-x="1526" 
d="M1221 -373q-23 -6 -57 -12t-75 -11.5t-85 -8.5t-86 -3q-76 0 -138 13.5t-106 48t-68 94.5t-24 154v82q-111 19 -200.5 69.5t-152 136t-96 206.5t-33.5 282v162q0 198 49.5 334.5t137.5 220.5t209.5 121.5t265.5 37.5q145 0 267 -37.5t210 -121.5t137 -220.5t49 -334.5
v-162q0 -163 -34.5 -285t-98 -207.5t-154 -135.5t-202.5 -68v-72q0 -24 4 -38.5t16 -22.5t35 -10.5t62 -2.5h168v-209zM1049 842q0 119 -19.5 198.5t-56.5 127.5t-90.5 68.5t-120.5 20.5t-120 -20.5t-89.5 -68.5t-56 -127.5t-19.5 -198.5v-164q0 -119 19.5 -199t56 -128
t89.5 -68.5t120 -20.5t120.5 20.5t90.5 68.5t56.5 128t19.5 199v164z" />
    <glyph glyph-name="R" unicode="R" horiz-adv-x="1470" 
d="M1059 0l-311 543h-230v-543h-368v1522q113 6 231.5 12t259.5 6q144 0 272 -18t225 -71t153.5 -149.5t56.5 -252.5v-15q0 -84 -16.5 -150t-48 -116.5t-76 -88t-101.5 -65.5l340 -614h-387zM977 1042q0 64 -19 105.5t-58.5 64.5t-100.5 32t-146 9h-67.5t-67.5 -2v-442h139
q85 0 146 11t99.5 36.5t56.5 67.5t18 104v14z" />
    <glyph glyph-name="S" unicode="S" horiz-adv-x="1323" 
d="M133 264q49 -4 101 -8t109.5 -7.5t122 -6t138.5 -2.5q129 0 186.5 40t57.5 126q0 32 -8 56t-28.5 44t-55 39.5t-88.5 42.5l-222 94q-81 34 -146.5 74t-111 92.5t-70 122t-24.5 164.5q0 113 38.5 192.5t114 130t186.5 73.5t255 23q76 0 145.5 -5t129.5 -12.5t108 -16.5
t82 -17v-246q-53 5 -105 9.5t-106 8t-111.5 5.5t-121.5 2q-118 0 -178 -28.5t-60 -106.5q0 -29 7.5 -50.5t26.5 -40t52.5 -36.5t85.5 -39l215 -88q95 -39 165.5 -83t116.5 -99t68.5 -124t22.5 -159q0 -118 -39.5 -205t-114.5 -144.5t-183.5 -85.5t-246.5 -28q-76 0 -152 4.5
t-144.5 11t-124.5 15.5t-93 18v250z" />
    <glyph glyph-name="T" unicode="T" horiz-adv-x="1372" 
d="M494 0v1243h-441v279h1266v-279h-440v-1243h-385z" />
    <glyph glyph-name="U" unicode="U" horiz-adv-x="1563" 
d="M1049 1522h374v-906q0 -164 -43 -286.5t-124.5 -203.5t-201 -121t-272.5 -40t-272.5 40t-202 121t-125.5 203.5t-43 286.5v906h379v-895q0 -102 12 -173t42 -115.5t81 -64.5t129 -20t129 20t82 64.5t43.5 115.5t12.5 173v895z" />
    <glyph glyph-name="V" unicode="V" horiz-adv-x="1534" 
d="M475 0l-418 1522h392l264 -1020q15 -65 28.5 -140t24.5 -137h4q6 31 12.5 66.5t13.5 71.5t14 71.5t15 67.5l265 1020h387l-420 -1522h-582z" />
    <glyph glyph-name="W" unicode="W" horiz-adv-x="2038" 
d="M1243 0l-178 723q-12 51 -23 106t-20 103h-6q-9 -48 -20 -103t-23 -106l-176 -723h-467l-254 1522h381l125 -832q11 -74 19.5 -149.5t16.5 -141.5h9q15 68 29.5 137t29.5 134l137 565h396l137 -569q15 -63 30 -132t29 -135h8q7 68 15.5 140.5t19.5 150.5l127 832h377
l-254 -1522h-465z" />
    <glyph glyph-name="X" unicode="X" horiz-adv-x="1505" 
d="M1047 0l-328 487l-316 -487h-354l494 776l-486 746h408l319 -471l301 471h355l-482 -758l498 -764h-409z" />
    <glyph glyph-name="Y" unicode="Y" horiz-adv-x="1446" 
d="M537 0v549l-508 973h391l205 -404q24 -52 50 -114t46 -119h10q19 57 47.5 119t52.5 114l205 404h381l-508 -973v-549h-372z" />
    <glyph glyph-name="Z" unicode="Z" horiz-adv-x="1348" 
d="M104 0v291l678 946h-659v285h1102v-295l-676 -942h694v-285h-1139z" />
    <glyph glyph-name="bracketleft" unicode="[" horiz-adv-x="895" 
d="M166 -414v1936h631v-267h-275v-1405h275v-264h-631z" />
    <glyph glyph-name="backslash" unicode="\" horiz-adv-x="1047" 
d="M627 0l-570 1522h359l571 -1522h-360z" />
    <glyph glyph-name="bracketright" unicode="]" horiz-adv-x="895" 
d="M96 -414v264h275v1405h-275v267h631v-1936h-631z" />
    <glyph glyph-name="asciicircum" unicode="^" horiz-adv-x="1386" 
d="M932 877l-240 509l-239 -509h-336l321 649h508l322 -649h-336z" />
    <glyph glyph-name="underscore" unicode="_" horiz-adv-x="1253" 
d="M18 -283v185h1215v-185h-1215z" />
    <glyph glyph-name="grave" unicode="`" horiz-adv-x="993" 
d="M434 1292l-342 299h406l268 -299h-332z" />
    <glyph glyph-name="a" unicode="a" horiz-adv-x="1247" 
d="M795 0v76q-29 -19 -67.5 -38t-86 -34.5t-101.5 -25t-112 -9.5q-167 0 -254.5 83.5t-87.5 250.5v47q0 117 42.5 186t118 105t180 46.5t228.5 10.5h109v64q0 54 -7.5 87.5t-31 52t-65.5 25.5t-111 7q-39 0 -84.5 -1t-94 -3.5t-99 -6.5t-99.5 -10v213q25 9 70.5 21.5
t105.5 24t130.5 19t144.5 7.5q136 0 231 -23.5t154 -75.5t85.5 -135t26.5 -202v-762h-325zM776 514h-119q-60 0 -104 -5t-72 -21t-41.5 -46t-13.5 -80v-47q0 -35 10 -57.5t27.5 -36t42 -19t53.5 -5.5q34 0 67.5 5.5t62.5 14t51.5 18t35.5 17.5v262z" />
    <glyph glyph-name="b" unicode="b" horiz-adv-x="1337" 
d="M1241 524q0 -151 -37.5 -256.5t-111.5 -172t-184 -96.5t-255 -30q-62 0 -118 1.5t-116 5.5t-127.5 10.5t-152.5 15.5v1593h359v-438q51 22 112.5 32.5t124.5 10.5q259 0 382.5 -129.5t123.5 -402.5v-144zM887 670q0 73 -10 122.5t-33 79.5t-61.5 43t-96.5 13
q-16 0 -40 -1.5t-50.5 -5t-53.5 -10.5t-48 -18v-645q27 -2 69.5 -4t93.5 -2q61 0 105 12.5t71.5 45t40.5 87.5t13 139v144z" />
    <glyph glyph-name="c" unicode="c" horiz-adv-x="1092" 
d="M1008 14q-26 -6 -64 -14t-87.5 -14.5t-110 -11.5t-130.5 -5q-134 0 -232 35t-162 104.5t-95 172t-31 237.5v131q0 138 31 241.5t95 171.5t162 102t232 34q70 0 130.5 -5t110 -11.5t87.5 -14.5t64 -14v-244q-117 8 -195 12.5t-129 4.5q-59 0 -102.5 -11t-72.5 -41.5
t-43.5 -84.5t-14.5 -140v-131q0 -86 14.5 -140t44 -85t73 -42t101.5 -11q51 0 129 4t195 12v-242z" />
    <glyph glyph-name="d" unicode="d" horiz-adv-x="1339" 
d="M868 0v59q-60 -37 -142 -63.5t-187 -26.5t-187 32.5t-139 98.5t-87 167t-30 239v143q0 154 37 259t105.5 169.5t167 92.5t221.5 28q63 0 114 -5t101 -13v415h356v-1595h-330zM846 913q-48 8 -95 12.5t-81 4.5q-55 0 -95.5 -10.5t-67.5 -41t-40.5 -85.5t-13.5 -144v-143
q0 -74 10.5 -124.5t34 -82t61.5 -45.5t94 -14q51 0 99.5 11t93.5 30v632z" />
    <glyph glyph-name="e" unicode="e" horiz-adv-x="1305" 
d="M1159 20q-68 -17 -185.5 -34t-268.5 -17q-161 0 -276 30t-189 98.5t-109 178.5t-35 271v63q0 153 36 264t107.5 183t176.5 106.5t243 34.5q165 0 272.5 -48.5t171 -132.5t89 -195.5t25.5 -237.5v-97h-768v-16q0 -58 7 -102.5t34.5 -74.5t81.5 -45.5t149 -15.5
q45 0 91.5 1.5t99 4.5t113 7.5t134.5 9.5v-236zM866 698q0 48 -7 92.5t-29 78.5t-63 54.5t-110 20.5q-66 0 -106.5 -20.5t-62.5 -55t-29.5 -78.5t-7.5 -92v-16h415v16z" />
    <glyph glyph-name="f" unicode="f" horiz-adv-x="936" 
d="M244 0v913l-195 19v235h195v97q0 88 18.5 156t60.5 114t109.5 70t165.5 24q81 0 152.5 -10.5t123.5 -24.5v-200q-49 2 -88.5 4t-74.5 2q-39 0 -61 -7.5t-33 -24t-14 -43t-3 -64.5v-93h272v-254h-272v-913h-356z" />
    <glyph glyph-name="g" unicode="g" horiz-adv-x="1341" 
d="M846 8q-15 -2 -37 -5t-47.5 -5.5t-52 -4t-50.5 -1.5q-134 0 -238.5 31t-175.5 97t-108 168.5t-37 246.5v118q0 141 36 244t112 170t193.5 99t281.5 32q128 0 252 -9t227 -22v-1198q0 -98 -26 -174t-89 -129t-169.5 -80.5t-266.5 -27.5q-84 0 -164 6t-146 13.5t-112 15.5
t-61 12v213q50 -2 107.5 -5t117 -5.5t118.5 -4.5t112 -2q75 0 119 10t67.5 30.5t30 52t6.5 75.5v39zM848 920q-17 3 -60.5 6.5t-99.5 3.5q-69 0 -114 -16.5t-71.5 -50.5t-37 -86t-10.5 -124v-118q0 -76 12 -128.5t39.5 -85t71.5 -47t108 -14.5q23 0 48 1t47 2.5t40 3t27 3.5
v650z" />
    <glyph glyph-name="h" unicode="h" 
d="M885 0v735q0 57 -8 94.5t-26 60t-47.5 31.5t-72.5 9q-34 0 -67.5 -5t-64 -13.5t-57 -18.5t-46.5 -19v-874h-357v1595h357v-479q68 34 159.5 58t190.5 24q121 0 198 -33.5t120.5 -94.5t60 -145t16.5 -186v-739h-356z" />
    <glyph glyph-name="i" unicode="i" horiz-adv-x="651" 
d="M147 0v1167h357v-1167h-357zM141 1327v268h371v-268h-371z" />
    <glyph glyph-name="j" unicode="j" horiz-adv-x="651" 
d="M-74 -205q29 0 57.5 -1t57.5 -1q34 0 55 6.5t32.5 22t15 41.5t3.5 65v1239h357v-1239q0 -107 -21 -178.5t-66.5 -115t-117 -62t-172.5 -18.5q-31 0 -61.5 1.5t-57.5 3.5t-48.5 5t-33.5 6v225zM141 1327v268h371v-268h-371z" />
    <glyph glyph-name="k" unicode="k" horiz-adv-x="1278" 
d="M856 0l-360 541v-541h-357v1595h357v-944l366 516h381l-405 -561l422 -606h-404z" />
    <glyph glyph-name="l" unicode="l" horiz-adv-x="649" 
d="M147 0v1595h357v-1595h-357z" />
    <glyph glyph-name="m" unicode="m" horiz-adv-x="1970" 
d="M1481 0v760q0 41 -2 73t-14 54t-37 33.5t-70 11.5q-42 0 -94.5 -16t-102.5 -42q5 -27 5.5 -56.5t0.5 -57.5v-760h-356v760q0 41 -2.5 73t-13.5 54t-34 33.5t-65 11.5q-51 0 -104 -19t-96 -41v-872h-357v1167h336v-92q72 57 163.5 90t188.5 33q108 0 173.5 -33.5
t103.5 -93.5q99 68 193 97.5t176 29.5q80 0 138.5 -16t98.5 -45t65 -69t39 -87.5t18.5 -101.5t4.5 -111v-768h-356z" />
    <glyph glyph-name="n" unicode="n" horiz-adv-x="1374" 
d="M885 0v739q0 53 -6 89.5t-21.5 59t-43 32.5t-69.5 10q-49 0 -113.5 -18.5t-135.5 -47.5v-864h-357v1167h336v-94q90 56 186.5 90.5t196.5 34.5q88 0 150.5 -16.5t105 -46t68 -71.5t38.5 -93t17 -110t4 -122v-739h-356z" />
    <glyph glyph-name="o" unicode="o" horiz-adv-x="1315" 
d="M1219 518q0 -144 -37.5 -247.5t-109.5 -170.5t-177 -99t-240 -32q-133 0 -237 32t-175.5 99t-109 170.5t-37.5 247.5v129q0 144 37.5 248.5t109 171.5t175.5 99t237 32q135 0 240 -32t177 -99t109.5 -171.5t37.5 -248.5v-129zM862 647q0 78 -12 131t-37 86t-64 47.5
t-94 14.5q-54 0 -92.5 -14.5t-63 -47.5t-36.5 -86t-12 -131v-129q0 -78 12 -131t36.5 -85.5t63 -47t92.5 -14.5q55 0 94 14.5t64 47t37 85.5t12 131v129z" />
    <glyph glyph-name="p" unicode="p" horiz-adv-x="1339" 
d="M139 -416v1583h330v-73q82 55 170.5 79.5t175.5 24.5q98 0 177.5 -29t135 -94t85.5 -171.5t30 -260.5v-104q0 -159 -38 -267.5t-108.5 -175.5t-171 -96t-225.5 -29q-25 0 -53 1.5t-55.5 4t-52.5 6t-43 7.5v-406h-357zM887 643q0 84 -11 138.5t-34 86.5t-59 45t-87 13
q-44 0 -91 -10.5t-113 -38.5v-621q48 -8 91 -13t85 -5q54 0 95 11.5t68.5 44.5t41.5 91.5t14 153.5v104z" />
    <glyph glyph-name="q" unicode="q" horiz-adv-x="1335" 
d="M842 -416v430q-63 -24 -127 -34.5t-127 -10.5q-127 0 -219.5 31t-153 98.5t-90 173t-29.5 254.5v99q0 169 38 279.5t113.5 175.5t187.5 91.5t259 26.5q60 0 114.5 -1.5t113 -5.5t124.5 -10.5t150 -15.5v-1581h-354zM842 918q-14 1 -34 2.5t-42 3t-43.5 2t-38.5 0.5
q-61 0 -105 -9t-72.5 -40.5t-42 -91.5t-13.5 -162v-97q0 -82 8.5 -136.5t29.5 -87.5t56 -46.5t88 -13.5q35 0 89.5 7t119.5 30v639z" />
    <glyph glyph-name="r" unicode="r" horiz-adv-x="891" 
d="M139 0v1167h332v-96q43 39 90.5 64t97 39t99.5 19t98 5v-299q-48 0 -97.5 -4t-96.5 -11t-89.5 -16.5t-76.5 -21.5v-846h-357z" />
    <glyph glyph-name="s" unicode="s" horiz-adv-x="1112" 
d="M104 233q19 -1 61.5 -4.5t98 -7.5t118 -7t122.5 -3q54 0 90 6.5t58.5 19t32 32t9.5 46.5q0 26 -8 43.5t-29 32t-56.5 29t-90.5 35.5l-94 34q-81 31 -143 67t-103.5 81t-62.5 101t-21 128q0 96 33 160t95.5 102t151.5 54t201 16q64 0 126.5 -4t117 -11t98.5 -15t72 -17
v-223q-105 9 -196.5 14.5t-184.5 5.5q-43 0 -75.5 -1.5t-54 -9t-32 -22.5t-10.5 -41q0 -23 7.5 -38.5t26 -28t49.5 -25t77 -30.5l102 -37q97 -35 164 -72t107.5 -81t58.5 -97.5t18 -122.5q0 -188 -126 -279.5t-390 -91.5q-62 0 -125.5 4.5t-120.5 11t-102 14.5t-70 15v217z
" />
    <glyph glyph-name="t" unicode="t" horiz-adv-x="926" 
d="M862 2q-12 -3 -37 -8.5t-60 -11t-76.5 -9.5t-86.5 -4q-93 0 -160.5 19.5t-111 62t-64 110.5t-20.5 165v587l-203 19v235h203v295h356v-295h262v-254h-262v-583q0 -36 2.5 -59t12 -36t28.5 -17.5t53 -4.5q21 0 45.5 0.5t47 2t41.5 2.5t30 3v-219z" />
    <glyph glyph-name="u" unicode="u" 
d="M903 0v94q-93 -54 -193.5 -89.5t-215.5 -35.5q-120 0 -191 38.5t-107.5 102.5t-47.5 147t-11 171v739h357v-739q0 -53 5.5 -89t21 -58.5t42.5 -32.5t70 -10q51 0 114 18t136 47v864h356v-1167h-336z" />
    <glyph glyph-name="v" unicode="v" horiz-adv-x="1270" 
d="M381 0l-344 1167h366l162 -635q20 -81 37.5 -162.5t34.5 -152.5q15 71 32.5 152.5t37.5 162.5l159 635h367l-344 -1167h-508z" />
    <glyph glyph-name="w" unicode="w" horiz-adv-x="1917" 
d="M1174 0l-156 500q-20 66 -33.5 122.5t-21.5 110.5h-9q-8 -54 -21.5 -110.5t-35.5 -122.5l-156 -500h-438l-246 1167h361l106 -577q14 -79 24 -149t13 -130h8q16 63 33 135.5t39 143.5l129 407h377l129 -407q23 -71 40 -143.5t34 -135.5h8q3 60 11 130t24 151l106 575h361
l-246 -1167h-440z" />
    <glyph glyph-name="x" unicode="x" horiz-adv-x="1260" 
d="M819 0l-221 334l-217 -334h-365l406 600l-377 567h395l209 -317l207 317h365l-394 -583l387 -584h-395z" />
    <glyph glyph-name="y" unicode="y" horiz-adv-x="1305" 
d="M471 12l-424 1155h383l172 -600q22 -74 37 -151t37 -158q15 81 31 157t36 154l156 598h363l-371 -1175q-37 -116 -79 -198t-98 -134.5t-131.5 -77t-179.5 -24.5q-96 0 -182.5 7t-146.5 19v228q37 -2 66.5 -3t54.5 -1.5t49 -0.5h51q32 0 56.5 7t43 23.5t32.5 43.5t26 68z
" />
    <glyph glyph-name="z" unicode="z" horiz-adv-x="1122" 
d="M82 0v262l551 649h-533v256h932v-266l-547 -649h549v-252h-952z" />
    <glyph glyph-name="braceleft" unicode="{" horiz-adv-x="946" 
d="M717 -416q-148 0 -245 18.5t-154 62.5t-80 117.5t-23 184.5v273q0 48 -7 80.5t-21.5 56t-38 42t-56.5 38.5v194q33 19 56.5 37t38 42t21.5 56t7 80v273q0 111 23 185t80 118t154 62t245 18h129v-267h-125q-49 0 -78.5 -3.5t-45.5 -15.5t-21 -35t-5 -62v-273
q0 -64 -9 -111t-28.5 -83t-50.5 -64.5t-75 -54.5q43 -27 74 -55.5t51 -64.5t29 -82.5t9 -110.5v-273q0 -39 5 -62.5t21 -36t45.5 -16.5t78.5 -4h127v-264h-131z" />
    <glyph glyph-name="bar" unicode="|" horiz-adv-x="688" 
d="M166 -416v1938h354v-1938h-354z" />
    <glyph glyph-name="braceright" unicode="}" horiz-adv-x="946" 
d="M100 -416v264h125q50 0 79.5 4t45.5 16.5t20.5 36t4.5 62.5v273q0 64 9 110.5t29 82.5t51 64.5t75 55.5q-44 26 -75 54.5t-51 64.5t-29 83t-9 111v273q0 38 -4.5 61t-20.5 35t-45.5 16t-79.5 4h-125v267h129q149 0 246.5 -18t154.5 -62t80 -118t23 -185v-273q0 -48 7 -80
t21.5 -56t37.5 -42t55 -37v-194q-32 -20 -55 -38.5t-37.5 -42t-21.5 -56t-7 -80.5v-273q0 -111 -23 -184.5t-80 -117.5t-154.5 -62.5t-246.5 -18.5h-129z" />
    <glyph glyph-name="asciitilde" unicode="~" horiz-adv-x="1386" 
d="M1233 999q0 -175 -64 -258.5t-206 -83.5q-38 0 -70.5 3t-62.5 10.5t-60 20.5t-63 32l-125 76q-34 20 -58 32.5t-55 12.5q-44 0 -59 -27t-15 -82v-65h-245v65q0 92 20 157.5t57.5 107t91 60.5t119.5 19q31 0 59.5 -4.5t56 -13.5t55.5 -23t59 -32l123 -74q37 -20 64 -30.5
t63 -10.5q24 0 38 7.5t21.5 21.5t9.5 34t2 45v66h244v-66z" />
    <glyph glyph-name="uni00A0" unicode="&#xa0;" horiz-adv-x="414" 
 />
    <glyph glyph-name="exclamdown" unicode="&#xa1;" horiz-adv-x="676" 
d="M139 -422l35 1141h328l35 -1141h-398zM154 838v338h366v-338h-366z" />
    <glyph glyph-name="cent" unicode="&#xa2;" horiz-adv-x="1110" 
d="M465 -248v234q-186 37 -275.5 172.5t-89.5 359.5v131q0 224 89.5 359t275.5 174v231h295v-223q91 -6 158 -18.5t92 -18.5v-242q-88 8 -172 11.5t-150 3.5q-59 0 -103 -11t-73 -41.5t-43 -84.5t-14 -140v-131q0 -86 14 -140t43 -85t73 -42t103 -11q62 0 144 4t178 10v-240
q-31 -9 -96.5 -20.5t-153.5 -18.5v-223h-295z" />
    <glyph glyph-name="sterling" unicode="&#xa3;" horiz-adv-x="1350" 
d="M166 0v223q53 51 73.5 109.5t20.5 120.5v206h-154v248h154v111q0 141 28 242.5t92 167t166 97t251 31.5q130 0 245 -12t199 -31v-256q-27 2 -72 5t-98 5.5t-109 4.5t-106 2q-75 0 -119 -11.5t-67 -40t-30 -78t-7 -124.5v-113h426v-248h-426v-206q0 -54 -14.5 -98
t-38.5 -83h661v-272h-1075z" />
    <glyph glyph-name="currency" unicode="&#xa4;" horiz-adv-x="1362" 
d="M1083 221l-163 158q-54 -31 -115 -47.5t-121 -16.5q-63 0 -123.5 16t-116.5 50l-168 -162l-155 152l166 161q-32 53 -49 113.5t-17 120.5t16 118.5t50 110.5l-168 164l157 150l166 -160q56 32 118 47.5t124 15.5q63 0 123.5 -14.5t114.5 -48.5l163 156l156 -152
l-162 -158q32 -54 50 -112.5t18 -118.5t-17 -120t-51 -114l162 -155zM934 766q0 51 -20.5 95.5t-55 77.5t-79.5 52t-95 19q-51 0 -97 -19t-80.5 -52t-54.5 -77.5t-20 -95.5q0 -52 20.5 -97t55.5 -78t80.5 -52t95.5 -19q49 0 94.5 19t80 52.5t55 78.5t20.5 96z" />
    <glyph glyph-name="yen" unicode="&#xa5;" horiz-adv-x="1532" 
d="M948 420v-420h-370v420h-486v203h451l-101 180h-350v205h244l-273 514h396l207 -404q24 -52 50 -114t46 -119h8q20 57 48 119t52 114l205 404h387l-272 -514h244v-205h-351l-102 -180h453v-203h-486z" />
    <glyph glyph-name="brokenbar" unicode="&#xa6;" horiz-adv-x="688" 
d="M166 723v797h354v-797h-354zM166 -416v799h354v-799h-354z" />
    <glyph glyph-name="section" unicode="&#xa7;" horiz-adv-x="1407" 
d="M172 -147q54 -4 115 -8t124 -7.5t124.5 -5.5t115.5 -2q70 0 115.5 11t72.5 32t37.5 52t10.5 71q0 34 -7 61t-29 51t-64.5 47.5t-112.5 51.5l-232 90q-77 28 -135 65.5t-96.5 86t-58 110.5t-19.5 139q0 57 16 119t50 113q-32 46 -48 100.5t-16 128.5q0 198 145 294.5
t441 96.5q79 0 156.5 -5.5t144 -13.5t117.5 -17t78 -15v-246q-41 3 -97 7.5t-119 8.5t-130 6.5t-130 2.5q-65 0 -109 -7.5t-72 -24t-40 -42.5t-12 -63q0 -31 6.5 -56t25.5 -46.5t52 -41.5t86 -41l229 -88q107 -38 177.5 -81.5t112.5 -95t59.5 -112.5t17.5 -133
q0 -52 -14 -109.5t-56 -119.5q34 -46 51 -101.5t17 -117.5q0 -223 -150 -333.5t-436 -110.5q-64 0 -133.5 4t-137.5 10.5t-130.5 15t-112.5 17.5v252zM977 406q0 44 -5 76t-23.5 57.5t-55 47.5t-100.5 46l-230 86q-32 12 -56 23.5t-42 23t-31.5 24t-25.5 27.5v-69
q0 -51 4.5 -84.5t22 -57.5t52.5 -43t97 -41l233 -88q52 -17 88.5 -38t71.5 -44v54z" />
    <glyph glyph-name="dieresis" unicode="&#xa8;" horiz-adv-x="1040" 
d="M639 1321v260h285v-260h-285zM117 1321v260h286v-260h-286z" />
    <glyph glyph-name="copyright" unicode="&#xa9;" horiz-adv-x="1759" 
d="M877 -14q-166 0 -306 50.5t-242 149.5t-159 244.5t-57 335.5q0 189 57 334.5t159 244.5t242 150t306 51t305 -50.5t240 -149.5t157.5 -244.5t56.5 -335.5t-56.5 -335.5t-157.5 -244.5t-240 -149.5t-305 -50.5zM877 150q127 0 233.5 41.5t182.5 120t118.5 193t42.5 261.5
t-42.5 261t-118.5 192.5t-182.5 119.5t-233.5 41q-128 0 -234.5 -41t-183 -119.5t-118.5 -192.5t-42 -261t42 -261.5t118.5 -193t183 -120t234.5 -41.5zM1133 350q-16 -5 -43.5 -10t-60 -8.5t-67 -5.5t-65.5 -2q-101 0 -176 26t-124 76t-73 122.5t-24 164.5v106
q0 186 97 287.5t300 101.5q31 0 65.5 -2t67 -5.5t60 -8.5t43.5 -10v-172q-129 12 -211 12q-50 0 -84 -10.5t-54.5 -34t-29.5 -62.5t-9 -96v-106q0 -56 9 -95t29.5 -63t54.5 -34.5t84 -10.5q42 0 94 2t117 8v-170z" />
    <glyph glyph-name="ordfeminine" unicode="&#xaa;" horiz-adv-x="938" 
d="M563 844v51q-18 -12 -44 -24.5t-57 -22.5t-66.5 -16.5t-73.5 -6.5q-106 0 -166 54t-60 159v27q0 76 30 120t81.5 66t120.5 27.5t147 5.5h66v35q0 31 -5 51t-19 31.5t-41 15.5t-70 4q-30 0 -63 -1.5t-66 -3.5t-64.5 -4.5t-58.5 -4.5v145q21 8 52.5 16.5t71.5 15t86.5 11
t96.5 4.5q89 0 152 -14.5t103.5 -47.5t59.5 -86.5t19 -131.5v-475h-232zM551 1161h-74q-38 0 -65 -2.5t-44 -11.5t-25.5 -26t-8.5 -46v-26q0 -21 6.5 -33.5t18 -18.5t26.5 -8t33 -2q20 0 40 3t38 8t32 11t23 11v141z" />
    <glyph glyph-name="guillemotleft" unicode="&#xab;" horiz-adv-x="1583" 
d="M1118 143l-315 455l315 453h369l-307 -453l307 -455h-369zM410 143l-316 455l316 453h368l-307 -453l307 -455h-368z" />
    <glyph glyph-name="logicalnot" unicode="&#xac;" horiz-adv-x="1386" 
d="M913 375v555h-720v270h999v-825h-279z" />
    <glyph glyph-name="uni00AD" unicode="&#xad;" horiz-adv-x="770" 
d="M117 479v248h534v-248h-534z" />
    <glyph glyph-name="registered" unicode="&#xae;" horiz-adv-x="1368" 
d="M682 373q-129 0 -234 42t-179.5 120t-115 188.5t-40.5 247.5t40.5 248t115 189t179.5 120.5t234 42.5q127 0 232 -42.5t179 -120.5t115 -189t41 -248t-41 -247.5t-115 -188.5t-179 -120t-232 -42zM682 510q95 0 171.5 31.5t130 91t82 145t28.5 193.5q0 106 -28.5 191.5
t-82 144.5t-130 91t-171.5 32q-97 0 -174 -32t-131 -91t-82.5 -144.5t-28.5 -191.5q0 -108 28.5 -193.5t82.5 -145t131 -91t174 -31.5zM793 674l-131 219h-60v-219h-160v620q32 2 57.5 3.5t49 2t46 0.5h48.5q61 0 113.5 -7.5t91 -29.5t60.5 -61t22 -102v-8q0 -69 -30 -110.5
t-81 -59.5l154 -248h-180zM770 1100q0 49 -29.5 63.5t-91.5 14.5h-47v-170h49q31 0 53.5 3.5t37 13t21.5 26.5t7 43v6z" />
    <glyph glyph-name="glyph113" unicode="&#xaf;" horiz-adv-x="1030" 
d="M96 1337v203h838v-203h-838z" />
    <glyph glyph-name="degree" unicode="&#xb0;" horiz-adv-x="885" 
d="M92 1219q0 70 27.5 131t75 107t111 72.5t136.5 26.5t137 -26.5t111.5 -72.5t75 -107t27.5 -131t-27.5 -131.5t-75 -107t-111.5 -71.5t-137 -26t-136.5 26t-111 71.5t-75 107t-27.5 131.5zM610 1219q0 36 -13 66t-36 51.5t-54 33.5t-67 12q-35 0 -65 -12t-52.5 -33.5
t-35.5 -51.5t-13 -66q0 -35 13 -64.5t35.5 -51.5t52.5 -34t65 -12q36 0 67 12t54 34t36 51.5t13 64.5z" />
    <glyph glyph-name="plusminus" unicode="&#xb1;" horiz-adv-x="1386" 
d="M160 0v219h1065v-219h-1065zM829 758v-381h-270v381h-403v268h403v379h270v-379h400v-268h-400z" />
    <glyph glyph-name="two.superior" unicode="&#xb2;" horiz-adv-x="930" 
d="M102 692v113q0 86 15.5 147.5t50 108.5t89 85t132.5 77q60 29 94.5 48.5t52.5 35.5t22.5 32t4.5 37q0 42 -33 59t-120 17q-39 0 -83 -1.5t-85 -4t-74.5 -5t-50.5 -3.5v153q27 8 67.5 14.5t86.5 11.5t94 8t90 3q195 0 284.5 -58.5t89.5 -185.5q0 -48 -14 -87t-45.5 -73.5
t-82.5 -66t-126 -65.5q-66 -30 -105.5 -52.5t-61 -44t-28 -47t-6.5 -61.5v-8h451v-187h-709z" />
    <glyph glyph-name="three.superior" unicode="&#xb3;" horiz-adv-x="922" 
d="M821 948q0 -74 -23.5 -126.5t-71 -85.5t-120.5 -48.5t-172 -15.5q-48 0 -98.5 3.5t-95.5 9.5t-80.5 13.5t-53.5 14.5v151q17 -2 52 -4t77 -3.5t86.5 -3t81.5 -1.5q41 0 70.5 4t48.5 15.5t28 33t9 56.5v18q0 23 -4.5 41t-19 30t-41.5 18.5t-72 6.5h-258v166h260
q44 0 70.5 7.5t41 20.5t19 31.5t4.5 40.5v13q0 27 -7.5 45.5t-25.5 30t-48 16t-75 4.5q-80 0 -158.5 -5.5t-138.5 -8.5v151q19 7 55 14.5t80.5 13.5t94.5 9.5t98 3.5q91 0 163 -12.5t122 -42t76 -78.5t26 -121v-12q0 -59 -25.5 -114.5t-86.5 -86.5q31 -15 52.5 -36.5t35 -47
t19 -54t5.5 -56.5v-19z" />
    <glyph glyph-name="acute" unicode="&#xb4;" horiz-adv-x="993" 
d="M545 1292h-334l270 299h406z" />
    <glyph glyph-name="mu" unicode="&#xb5;" horiz-adv-x="1456" 
d="M934 0v94q-81 -43 -155 -69.5t-146 -34.5q-60 -3 -109 6v-410h-356v1581h356v-739q0 -53 5.5 -89t21 -58.5t43 -32.5t70.5 -10q51 0 114 18t135 47v864h357v-1167h-336z" />
    <glyph glyph-name="paragraph" unicode="&#xb6;" horiz-adv-x="1542" 
d="M1198 -401v1708h-131l2 -1708h-219v901h-100q-134 0 -250.5 21.5t-203 78t-136 153.5t-49.5 248v21q0 102 22.5 178.5t64 132.5t100.5 92t131 58t155.5 30.5t175.5 8.5h655v-1923h-217z" />
    <glyph glyph-name="glyph121" unicode="&#xb7;" horiz-adv-x="618" 
d="M139 586v338h338v-338h-338z" />
    <glyph glyph-name="cedilla" unicode="&#xb8;" horiz-adv-x="930" 
d="M117 -416l215 287h379l-269 -287h-325z" />
    <glyph glyph-name="one.superior" unicode="&#xb9;" horiz-adv-x="834" 
d="M127 692v174l164 8v504l-166 -53v197l242 90h190v-738l166 -8v-174h-596z" />
    <glyph glyph-name="ordmasculine" unicode="&#xba;" horiz-adv-x="948" 
d="M850 1180q0 -94 -25.5 -161t-74 -110t-118.5 -63.5t-159 -20.5q-88 0 -158 20.5t-118.5 63.5t-74.5 110t-26 161v65q0 94 26 161.5t74.5 110t118.5 62.5t158 20q89 0 159 -20t118.5 -62.5t74 -110t25.5 -161.5v-65zM600 1245q0 48 -7 79.5t-22.5 51t-39.5 27.5t-58 8
q-33 0 -57 -8t-39.5 -27.5t-23 -51t-7.5 -79.5v-65q0 -47 7 -78.5t22.5 -51t39.5 -28t58 -8.5t58 8.5t39.5 28t22.5 51t7 78.5v65z" />
    <glyph glyph-name="guillemotright" unicode="&#xbb;" horiz-adv-x="1583" 
d="M807 143l303 455l-303 453h367l315 -453l-315 -455h-367zM96 143l307 455l-307 453h367l317 -453l-317 -455h-367z" />
    <glyph glyph-name="onequarter" unicode="&#xbc;" horiz-adv-x="2052" 
d="M408 0l1017 1526h301l-1015 -1526h-303zM127 618v175l164 8v504l-166 -54v197l242 90h190v-737l166 -8v-175h-596zM1571 0v201h-436v168l483 546h215v-542h123v-172h-123v-201h-262zM1585 651l-244 -278h244v278z" />
    <glyph glyph-name="onehalf" unicode="&#xbd;" horiz-adv-x="2238" 
d="M408 0l1017 1526h301l-1015 -1526h-303zM127 618v175l164 8v504l-166 -54v197l242 90h190v-737l166 -8v-175h-596zM1427 0v113q0 86 15.5 147.5t50 108.5t89 85t132.5 76q60 29 94.5 49t52.5 36t22.5 32t4.5 37q0 41 -33 58.5t-120 17.5q-39 0 -83 -1.5t-85 -4t-74.5 -5
t-50.5 -4.5v154q28 8 68.5 14.5t86 11.5t93.5 8t90 3q195 0 284.5 -58.5t89.5 -185.5q0 -48 -14 -87.5t-45.5 -74t-82.5 -66t-126 -65.5q-66 -30 -105.5 -52t-60.5 -44t-27.5 -47t-6.5 -61v-9h450v-186h-709z" />
    <glyph glyph-name="threequarters" unicode="&#xbe;" horiz-adv-x="2173" 
d="M477 0l1018 1526h303l-1020 -1526h-301zM106 791q17 -2 52 -4t77 -4t86.5 -3.5t81.5 -1.5q41 0 70.5 4t48.5 16t28 33t9 56q0 30 -4.5 51.5t-19 35.5t-41.5 20.5t-72 6.5h-258v166h260q44 0 70.5 7.5t41 22t19 35.5t4.5 48q0 28 -7.5 46.5t-25.5 29.5t-48 15.5t-75 4.5
q-80 0 -158.5 -5.5t-138.5 -8.5v151q19 7 55 14.5t80.5 13.5t94.5 9.5t98 3.5q91 0 163 -12.5t122 -43.5t76 -82t26 -128q0 -59 -25.5 -114.5t-86.5 -86.5q31 -14 52.5 -35.5t35 -47t19 -54.5t5.5 -57q0 -81 -23.5 -137.5t-71 -91.5t-120.5 -50.5t-172 -15.5q-48 0 -98.5 4
t-95.5 10t-80.5 13t-53.5 14v152zM1683 0v201h-436v168l484 546h215v-542h122v-172h-122v-201h-263zM1698 651l-244 -278h244v278z" />
    <glyph glyph-name="questiondown" unicode="&#xbf;" horiz-adv-x="1108" 
d="M1042 -379q-86 -31 -201.5 -47t-242.5 -16q-239 0 -362 81t-123 261v14q0 51 10.5 97.5t35 93t65 95t100.5 105.5q72 71 114.5 120.5t65 89t29 75t6.5 78.5v53h309v-53q0 -65 -4 -117t-20 -101t-47 -98t-85 -106q-48 -53 -79.5 -92t-50 -70t-25.5 -58t-7 -55v-12
q0 -35 12 -58t36 -36.5t61 -19t88 -5.5q35 0 74.5 1.5t80.5 3.5t81.5 5.5t78.5 6.5v-236zM512 844v336h358v-336h-358z" />
    <glyph glyph-name="Agrave" unicode="&#xc0;" horiz-adv-x="1532" 
d="M1087 0l-108 383h-432l-111 -383h-393l424 1522h594l428 -1522h-402zM817 1061q-14 56 -26 115.5t-21 117.5h-14q-10 -58 -21 -117.5t-26 -115.5l-109 -404h328zM670 1616l-342 299h406l268 -299h-332z" />
    <glyph glyph-name="Aacute" unicode="&#xc1;" horiz-adv-x="1532" 
d="M1087 0l-108 383h-432l-111 -383h-393l424 1522h594l428 -1522h-402zM817 1061q-14 56 -26 115.5t-21 117.5h-14q-10 -58 -21 -117.5t-26 -115.5l-109 -404h328zM889 1616h-334l270 299h406z" />
    <glyph glyph-name="Acircumflex" unicode="&#xc2;" horiz-adv-x="1532" 
d="M1087 0l-108 383h-432l-111 -383h-393l424 1522h594l428 -1522h-402zM817 1061q-14 56 -26 115.5t-21 117.5h-14q-10 -58 -21 -117.5t-26 -115.5l-109 -404h328zM942 1616l-178 168l-176 -168h-313l276 299h426l277 -299h-312z" />
    <glyph glyph-name="Atilde" unicode="&#xc3;" horiz-adv-x="1532" 
d="M1087 0l-108 383h-432l-111 -383h-393l424 1522h594l428 -1522h-402zM817 1061q-14 56 -26 115.5t-21 117.5h-14q-10 -58 -21 -117.5t-26 -115.5l-109 -404h328zM1228 1893q0 -78 -18 -132t-50.5 -88t-77 -49.5t-97.5 -15.5q-48 0 -99 13.5t-116 48.5l-97 53
q-34 20 -59 31.5t-51 11.5q-37 0 -50.5 -25.5t-13.5 -73.5v-49h-200v49q0 78 19 132t52 88t78.5 49.5t99.5 15.5q26 0 49.5 -3t47 -9.5t49 -18t57.5 -28.5l98 -53q33 -19 59.5 -31t57.5 -12q37 0 49.5 23t12.5 73v49h200v-49z" />
    <glyph glyph-name="Adieresis" unicode="&#xc4;" horiz-adv-x="1532" 
d="M1087 0l-108 383h-432l-111 -383h-393l424 1522h594l428 -1522h-402zM817 1061q-14 56 -26 115.5t-21 117.5h-14q-10 -58 -21 -117.5t-26 -115.5l-109 -404h328zM881 1638v260h285v-260h-285zM359 1638v260h286v-260h-286z" />
    <glyph glyph-name="Aring" unicode="&#xc5;" horiz-adv-x="1532" 
d="M1087 0l-108 383h-432l-111 -383h-393l424 1522h594l428 -1522h-402zM817 1061q-14 56 -26 115.5t-21 117.5h-14q-10 -58 -21 -117.5t-26 -115.5l-109 -404h328zM768 1586q-63 0 -117 16t-93.5 47t-62 77.5t-22.5 106.5q0 61 22.5 108t62 78.5t93.5 47.5t117 16
q62 0 115 -16t91.5 -47.5t60.5 -78.5t22 -108q0 -60 -22 -106.5t-60.5 -77.5t-91.5 -47t-115 -16zM768 1934q-51 0 -83 -23t-32 -76q0 -52 32 -75t83 -23q48 0 80 23t32 75t-32.5 75.5t-79.5 23.5z" />
    <glyph glyph-name="AE" unicode="&#xc6;" horiz-adv-x="2111" 
d="M979 0v383h-399l-109 -383h-389l412 1522h1521v-279h-653v-332h610v-264h-610v-371h653v-276h-1036zM979 1290h-184q-14 -54 -26 -111.5t-26 -111.5l-110 -412h346v635z" />
    <glyph glyph-name="Ccedilla" unicode="&#xc7;" horiz-adv-x="1262" 
d="M1196 6q-29 -7 -79 -14t-108.5 -13t-118 -10t-106.5 -4q-163 0 -290 33.5t-214.5 115t-133.5 218t-46 342.5v176q0 206 46 341.5t133.5 216t214.5 113.5t290 33q47 0 106.5 -4t118 -10t108.5 -13.5t79 -15.5v-272q-38 3 -84 6t-95 6t-99 4.5t-97 1.5q-84 0 -147 -17
t-104.5 -62t-62 -124.5t-20.5 -203.5v-176q0 -125 20.5 -205t62.5 -126t105 -63.5t148 -17.5q47 0 96.5 1.5t98.5 3.5t94.5 5.5t83.5 6.5v-273zM342 -416l215 287h379l-269 -287h-325z" />
    <glyph glyph-name="Egrave" unicode="&#xc8;" horiz-adv-x="1286" 
d="M150 0v1522h1036v-279h-654v-332h611v-264h-611v-371h654v-276h-1036zM553 1616l-342 299h406l268 -299h-332z" />
    <glyph glyph-name="Eacute" unicode="&#xc9;" horiz-adv-x="1286" 
d="M150 0v1522h1036v-279h-654v-332h611v-264h-611v-371h654v-276h-1036zM807 1616h-334l270 299h406z" />
    <glyph glyph-name="Ecircumflex" unicode="&#xca;" horiz-adv-x="1286" 
d="M150 0v1522h1036v-279h-654v-332h611v-264h-611v-371h654v-276h-1036zM850 1616l-178 168l-176 -168h-313l276 299h426l277 -299h-312z" />
    <glyph glyph-name="Edieresis" unicode="&#xcb;" horiz-adv-x="1286" 
d="M150 0v1522h1036v-279h-654v-332h611v-264h-611v-371h654v-276h-1036zM789 1638v260h285v-260h-285zM267 1638v260h286v-260h-286z" />
    <glyph glyph-name="Igrave" unicode="&#xcc;" horiz-adv-x="682" 
d="M150 0v1522h382v-1522h-382zM267 1616l-342 299h406l268 -299h-332z" />
    <glyph glyph-name="Iacute" unicode="&#xcd;" horiz-adv-x="682" 
d="M150 0v1522h382v-1522h-382zM466 1614h-334l270 299h406z" />
    <glyph glyph-name="Icircumflex" unicode="&#xce;" horiz-adv-x="682" 
d="M150 0v1522h382v-1522h-382zM523 1616l-178 168l-176 -168h-313l276 299h426l277 -299h-312z" />
    <glyph glyph-name="Idieresis" unicode="&#xcf;" horiz-adv-x="682" 
d="M150 0v1522h382v-1522h-382zM460 1638v260h285v-260h-285zM-62 1638v260h286v-260h-286z" />
    <glyph glyph-name="Eth" unicode="&#xd0;" horiz-adv-x="1511" 
d="M1411 686q0 -183 -42 -315.5t-131 -219t-228.5 -128t-335.5 -41.5q-136 0 -263.5 3.5t-260.5 14.5v651h-103v258h103v613q133 11 260.5 14.5t263.5 3.5q192 0 331 -41.5t229.5 -127t133.5 -216.5t43 -311v-158zM1034 844q0 121 -19.5 200t-62.5 125t-110.5 64t-163.5 18
h-156v-342h226v-258h-226v-383h156q96 0 163.5 19.5t110.5 67.5t62.5 128.5t19.5 202.5v158z" />
    <glyph glyph-name="Ntilde" unicode="&#xd1;" horiz-adv-x="1589" 
d="M1042 0l-440 791q-28 49 -55.5 103t-50.5 105h-4q2 -60 4 -121.5t2 -123.5v-754h-348v1522h391l444 -777q28 -49 57 -106.5t52 -108.5h4q-3 54 -4.5 122.5t-1.5 138.5v731h348v-1522h-398zM1259 1891q0 -78 -18 -132t-50.5 -88t-77 -49.5t-97.5 -15.5q-48 0 -99 13.5
t-116 48.5l-97 53q-34 20 -59 31.5t-51 11.5q-37 0 -50.5 -25.5t-13.5 -73.5v-49h-200v49q0 78 19 132t52 88t78.5 49.5t99.5 15.5q26 0 49.5 -3t47 -9.5t49 -18t57.5 -28.5l98 -53q33 -19 59.5 -31t57.5 -12q37 0 49.5 23t12.5 73v49h200v-49z" />
    <glyph glyph-name="Ograve" unicode="&#xd2;" horiz-adv-x="1526" 
d="M1425 682q0 -197 -48 -334t-135.5 -222t-209.5 -123t-270 -38q-147 0 -269 38t-209.5 123t-135.5 222t-48 334v156q0 198 48.5 334.5t136 221.5t209 122.5t268.5 37.5t269 -37.5t209.5 -122.5t136 -221.5t48.5 -334.5v-156zM1049 838q0 119 -19 199.5t-55.5 129t-90 69.5
t-122.5 21q-68 0 -120.5 -21t-89.5 -69.5t-56 -129t-19 -199.5v-154q0 -122 19.5 -203t56 -129.5t89.5 -69t120 -20.5t120.5 20.5t90.5 69t56.5 129.5t19.5 203v154zM672 1616l-342 299h406l268 -299h-332z" />
    <glyph glyph-name="Oacute" unicode="&#xd3;" horiz-adv-x="1526" 
d="M1425 682q0 -197 -48 -334t-135.5 -222t-209.5 -123t-270 -38q-147 0 -269 38t-209.5 123t-135.5 222t-48 334v156q0 198 48.5 334.5t136 221.5t209 122.5t268.5 37.5t269 -37.5t209.5 -122.5t136 -221.5t48.5 -334.5v-156zM1049 838q0 119 -19 199.5t-55.5 129t-90 69.5
t-122.5 21q-68 0 -120.5 -21t-89.5 -69.5t-56 -129t-19 -199.5v-154q0 -122 19.5 -203t56 -129.5t89.5 -69t120 -20.5t120.5 20.5t90.5 69t56.5 129.5t19.5 203v154zM860 1616h-334l270 299h406z" />
    <glyph glyph-name="Ocircumflex" unicode="&#xd4;" horiz-adv-x="1526" 
d="M1425 682q0 -197 -48 -334t-135.5 -222t-209.5 -123t-270 -38q-147 0 -269 38t-209.5 123t-135.5 222t-48 334v156q0 198 48.5 334.5t136 221.5t209 122.5t268.5 37.5t269 -37.5t209.5 -122.5t136 -221.5t48.5 -334.5v-156zM1049 838q0 119 -19 199.5t-55.5 129t-90 69.5
t-122.5 21q-68 0 -120.5 -21t-89.5 -69.5t-56 -129t-19 -199.5v-154q0 -122 19.5 -203t56 -129.5t89.5 -69t120 -20.5t120.5 20.5t90.5 69t56.5 129.5t19.5 203v154zM940 1614l-178 168l-176 -168h-313l276 299h426l277 -299h-312z" />
    <glyph glyph-name="Otilde" unicode="&#xd5;" horiz-adv-x="1526" 
d="M1425 682q0 -197 -48 -334t-135.5 -222t-209.5 -123t-270 -38q-147 0 -269 38t-209.5 123t-135.5 222t-48 334v156q0 198 48.5 334.5t136 221.5t209 122.5t268.5 37.5t269 -37.5t209.5 -122.5t136 -221.5t48.5 -334.5v-156zM1049 838q0 119 -19 199.5t-55.5 129t-90 69.5
t-122.5 21q-68 0 -120.5 -21t-89.5 -69.5t-56 -129t-19 -199.5v-154q0 -122 19.5 -203t56 -129.5t89.5 -69t120 -20.5t120.5 20.5t90.5 69t56.5 129.5t19.5 203v154zM1226 1891q0 -78 -18 -132t-50.5 -88t-77 -49.5t-97.5 -15.5q-48 0 -99 13.5t-116 48.5l-97 53
q-34 20 -59 31.5t-51 11.5q-37 0 -50.5 -25.5t-13.5 -73.5v-49h-200v49q0 78 19 132t52 88t78.5 49.5t99.5 15.5q26 0 49.5 -3t47 -9.5t49 -18t57.5 -28.5l98 -53q33 -19 59.5 -31t57.5 -12q37 0 49.5 23t12.5 73v49h200v-49z" />
    <glyph glyph-name="Odieresis" unicode="&#xd6;" horiz-adv-x="1526" 
d="M1425 682q0 -197 -48 -334t-135.5 -222t-209.5 -123t-270 -38q-147 0 -269 38t-209.5 123t-135.5 222t-48 334v156q0 198 48.5 334.5t136 221.5t209 122.5t268.5 37.5t269 -37.5t209.5 -122.5t136 -221.5t48.5 -334.5v-156zM1049 838q0 119 -19 199.5t-55.5 129t-90 69.5
t-122.5 21q-68 0 -120.5 -21t-89.5 -69.5t-56 -129t-19 -199.5v-154q0 -122 19.5 -203t56 -129.5t89.5 -69t120 -20.5t120.5 20.5t90.5 69t56.5 129.5t19.5 203v154zM881 1640v260h285v-260h-285zM359 1640v260h286v-260h-286z" />
    <glyph glyph-name="multiply" unicode="&#xd7;" horiz-adv-x="1386" 
d="M993 315l-299 289l-303 -293l-184 183l303 294l-303 291l182 183l305 -293l301 293l185 -185l-303 -291l301 -288z" />
    <glyph glyph-name="Oslash" unicode="&#xd8;" horiz-adv-x="1526" 
d="M1425 682q0 -197 -48 -334t-135.5 -222t-209.5 -123t-270 -38q-113 0 -210 22t-177 68l-41 -55h-281l160 211q-54 85 -83.5 200.5t-29.5 270.5v156q0 198 48.5 334.5t136 221.5t209 122.5t268.5 37.5q114 0 213.5 -22t179.5 -72l47 62h283l-168 -224q52 -83 80 -197
t28 -263v-156zM952 1190q-35 35 -82.5 51t-107.5 16q-68 0 -120.5 -21t-89.5 -69.5t-56 -129t-19 -199.5v-154q0 -65 6 -117zM1049 838q0 27 -1.5 52t-3.5 48l-466 -614q35 -34 81 -48t103 -14q67 0 120.5 20.5t90.5 69t56.5 129.5t19.5 203v154z" />
    <glyph glyph-name="Ugrave" unicode="&#xd9;" horiz-adv-x="1563" 
d="M1049 1522h374v-906q0 -164 -43 -286.5t-124.5 -203.5t-201 -121t-272.5 -40t-272.5 40t-202 121t-125.5 203.5t-43 286.5v906h379v-895q0 -102 12 -173t42 -115.5t81 -64.5t129 -20t129 20t82 64.5t43.5 115.5t12.5 173v895zM659 1616l-342 299h406l268 -299h-332z" />
    <glyph glyph-name="Uacute" unicode="&#xda;" horiz-adv-x="1563" 
d="M1049 1522h374v-906q0 -164 -43 -286.5t-124.5 -203.5t-201 -121t-272.5 -40t-272.5 40t-202 121t-125.5 203.5t-43 286.5v906h379v-895q0 -102 12 -173t42 -115.5t81 -64.5t129 -20t129 20t82 64.5t43.5 115.5t12.5 173v895zM916 1618h-334l270 299h406z" />
    <glyph glyph-name="Ucircumflex" unicode="&#xdb;" horiz-adv-x="1563" 
d="M1049 1522h374v-906q0 -164 -43 -286.5t-124.5 -203.5t-201 -121t-272.5 -40t-272.5 40t-202 121t-125.5 203.5t-43 286.5v906h379v-895q0 -102 12 -173t42 -115.5t81 -64.5t129 -20t129 20t82 64.5t43.5 115.5t12.5 173v895zM962 1616l-178 168l-176 -168h-313l276 299
h426l277 -299h-312z" />
    <glyph glyph-name="Udieresis" unicode="&#xdc;" horiz-adv-x="1563" 
d="M1049 1522h374v-906q0 -164 -43 -286.5t-124.5 -203.5t-201 -121t-272.5 -40t-272.5 40t-202 121t-125.5 203.5t-43 286.5v906h379v-895q0 -102 12 -173t42 -115.5t81 -64.5t129 -20t129 20t82 64.5t43.5 115.5t12.5 173v895zM899 1638v260h285v-260h-285zM377 1638v260
h286v-260h-286z" />
    <glyph glyph-name="Yacute" unicode="&#xdd;" horiz-adv-x="1446" 
d="M537 0v549l-508 973h391l205 -404q24 -52 50 -114t46 -119h10q19 57 47.5 119t52.5 114l205 404h381l-508 -973v-549h-372zM860 1616h-334l270 299h406z" />
    <glyph glyph-name="Thorn" unicode="&#xde;" horiz-adv-x="1427" 
d="M1364 797q0 -104 -25 -182t-70.5 -133.5t-108 -91.5t-138 -56.5t-161 -28.5t-175.5 -8h-39.5h-38t-41.5 0.5t-49 1.5v-299h-368v1544h368v-229q45 2 87.5 2h74.5q93 0 179.5 -7.5t162.5 -28t139 -56t108 -90.5t70 -132.5t25 -181.5v-24zM993 823q-1 64 -20.5 105
t-58.5 64t-98 31.5t-140 8.5q-44 0 -87 -1t-71 -1v-442q29 -2 71 -2h89q80 0 139 9t98 33t58.5 65t19.5 106v24z" />
    <glyph glyph-name="germandbls" unicode="&#xdf;" horiz-adv-x="1442" 
d="M1339 444q0 -105 -29.5 -191t-92 -147.5t-158.5 -95t-228 -33.5q-49 0 -94 4.5t-92 10.5v254h88q68 0 116.5 13t79 39.5t44.5 67.5t14 97v35q0 100 -60.5 153.5t-199.5 53.5h-82v225h82q67 0 112.5 13.5t74 39.5t41 64t12.5 86v18q0 42 -10 76.5t-36 59t-70 38.5t-112 14
q-66 0 -111.5 -15t-74 -49.5t-41 -91.5t-12.5 -141v-1042h-357v1042q0 134 31 239.5t102 179t186.5 112.5t285.5 39q160 0 267.5 -37t171.5 -98.5t91 -141t27 -164.5v-20q0 -51 -11 -98t-33.5 -88.5t-58 -76t-84.5 -59.5q58 -26 99.5 -64.5t68.5 -84.5t40 -97t13 -102v-37z
" />
    <glyph glyph-name="agrave" unicode="&#xe0;" horiz-adv-x="1247" 
d="M795 0v76q-29 -19 -67.5 -38t-86 -34.5t-101.5 -25t-112 -9.5q-167 0 -254.5 83.5t-87.5 250.5v47q0 117 42.5 186t118 105t180 46.5t228.5 10.5h109v64q0 54 -7.5 87.5t-31 52t-65.5 25.5t-111 7q-39 0 -84.5 -1t-94 -3.5t-99 -6.5t-99.5 -10v213q25 9 70.5 21.5
t105.5 24t130.5 19t144.5 7.5q136 0 231 -23.5t154 -75.5t85.5 -135t26.5 -202v-762h-325zM776 514h-119q-60 0 -104 -5t-72 -21t-41.5 -46t-13.5 -80v-47q0 -35 10 -57.5t27.5 -36t42 -19t53.5 -5.5q34 0 67.5 5.5t62.5 14t51.5 18t35.5 17.5v262zM545 1292l-342 299h406
l268 -299h-332z" />
    <glyph glyph-name="aacute" unicode="&#xe1;" horiz-adv-x="1247" 
d="M795 0v76q-29 -19 -67.5 -38t-86 -34.5t-101.5 -25t-112 -9.5q-167 0 -254.5 83.5t-87.5 250.5v47q0 117 42.5 186t118 105t180 46.5t228.5 10.5h109v64q0 54 -7.5 87.5t-31 52t-65.5 25.5t-111 7q-39 0 -84.5 -1t-94 -3.5t-99 -6.5t-99.5 -10v213q25 9 70.5 21.5
t105.5 24t130.5 19t144.5 7.5q136 0 231 -23.5t154 -75.5t85.5 -135t26.5 -202v-762h-325zM776 514h-119q-60 0 -104 -5t-72 -21t-41.5 -46t-13.5 -80v-47q0 -35 10 -57.5t27.5 -36t42 -19t53.5 -5.5q34 0 67.5 5.5t62.5 14t51.5 18t35.5 17.5v262zM768 1292h-334l270 299
h406z" />
    <glyph glyph-name="acircumflex" unicode="&#xe2;" horiz-adv-x="1247" 
d="M795 0v76q-29 -19 -67.5 -38t-86 -34.5t-101.5 -25t-112 -9.5q-167 0 -254.5 83.5t-87.5 250.5v47q0 117 42.5 186t118 105t180 46.5t228.5 10.5h109v64q0 54 -7.5 87.5t-31 52t-65.5 25.5t-111 7q-39 0 -84.5 -1t-94 -3.5t-99 -6.5t-99.5 -10v213q25 9 70.5 21.5
t105.5 24t130.5 19t144.5 7.5q136 0 231 -23.5t154 -75.5t85.5 -135t26.5 -202v-762h-325zM776 514h-119q-60 0 -104 -5t-72 -21t-41.5 -46t-13.5 -80v-47q0 -35 10 -57.5t27.5 -36t42 -19t53.5 -5.5q34 0 67.5 5.5t62.5 14t51.5 18t35.5 17.5v262zM807 1292l-178 168
l-176 -168h-313l276 299h426l277 -299h-312z" />
    <glyph glyph-name="atilde" unicode="&#xe3;" horiz-adv-x="1247" 
d="M795 0v76q-29 -19 -67.5 -38t-86 -34.5t-101.5 -25t-112 -9.5q-167 0 -254.5 83.5t-87.5 250.5v47q0 117 42.5 186t118 105t180 46.5t228.5 10.5h109v64q0 54 -7.5 87.5t-31 52t-65.5 25.5t-111 7q-39 0 -84.5 -1t-94 -3.5t-99 -6.5t-99.5 -10v213q25 9 70.5 21.5
t105.5 24t130.5 19t144.5 7.5q136 0 231 -23.5t154 -75.5t85.5 -135t26.5 -202v-762h-325zM776 514h-119q-60 0 -104 -5t-72 -21t-41.5 -46t-13.5 -80v-47q0 -35 10 -57.5t27.5 -36t42 -19t53.5 -5.5q34 0 67.5 5.5t62.5 14t51.5 18t35.5 17.5v262zM1093 1569
q0 -78 -18 -132t-50.5 -88t-77 -49.5t-97.5 -15.5q-48 0 -99 13.5t-116 48.5l-97 53q-34 20 -59 31.5t-51 11.5q-37 0 -50.5 -25.5t-13.5 -73.5v-49h-200v49q0 78 19 132t52 88t78.5 49.5t99.5 15.5q26 0 49.5 -3t47 -9.5t49 -18t57.5 -28.5l98 -53q33 -19 59.5 -31
t57.5 -12q37 0 49.5 23t12.5 73v49h200v-49z" />
    <glyph glyph-name="adieresis" unicode="&#xe4;" horiz-adv-x="1247" 
d="M795 0v76q-29 -19 -67.5 -38t-86 -34.5t-101.5 -25t-112 -9.5q-167 0 -254.5 83.5t-87.5 250.5v47q0 117 42.5 186t118 105t180 46.5t228.5 10.5h109v64q0 54 -7.5 87.5t-31 52t-65.5 25.5t-111 7q-39 0 -84.5 -1t-94 -3.5t-99 -6.5t-99.5 -10v213q25 9 70.5 21.5
t105.5 24t130.5 19t144.5 7.5q136 0 231 -23.5t154 -75.5t85.5 -135t26.5 -202v-762h-325zM776 514h-119q-60 0 -104 -5t-72 -21t-41.5 -46t-13.5 -80v-47q0 -35 10 -57.5t27.5 -36t42 -19t53.5 -5.5q34 0 67.5 5.5t62.5 14t51.5 18t35.5 17.5v262zM748 1321v260h285v-260
h-285zM226 1321v260h286v-260h-286z" />
    <glyph glyph-name="aring" unicode="&#xe5;" horiz-adv-x="1247" 
d="M795 0v76q-29 -19 -67.5 -38t-86 -34.5t-101.5 -25t-112 -9.5q-167 0 -254.5 83.5t-87.5 250.5v47q0 117 42.5 186t118 105t180 46.5t228.5 10.5h109v64q0 54 -7.5 87.5t-31 52t-65.5 25.5t-111 7q-39 0 -84.5 -1t-94 -3.5t-99 -6.5t-99.5 -10v213q25 9 70.5 21.5
t105.5 24t130.5 19t144.5 7.5q136 0 231 -23.5t154 -75.5t85.5 -135t26.5 -202v-762h-325zM776 514h-119q-60 0 -104 -5t-72 -21t-41.5 -46t-13.5 -80v-47q0 -35 10 -57.5t27.5 -36t42 -19t53.5 -5.5q34 0 67.5 5.5t62.5 14t51.5 18t35.5 17.5v262zM643 1259q-63 0 -117 16
t-93.5 47t-62 77.5t-22.5 106.5q0 61 22.5 108t62 78.5t93.5 47.5t117 16q62 0 115 -16t91.5 -47.5t60.5 -78.5t22 -108q0 -60 -22 -106.5t-60.5 -77.5t-91.5 -47t-115 -16zM643 1607q-51 0 -83 -23t-32 -76q0 -52 32 -75t83 -23q48 0 80 23t32 75t-32.5 75.5t-79.5 23.5z
" />
    <glyph glyph-name="ae" unicode="&#xe6;" horiz-adv-x="1972" 
d="M1829 18q-35 -8 -85.5 -16.5t-112.5 -15.5t-132 -11t-143 -4q-156 0 -269.5 32.5t-181.5 105.5q-57 -39 -112.5 -65.5t-113.5 -42.5t-120 -23t-131 -7q-167 0 -254.5 82.5t-87.5 249.5v47q0 117 42.5 186t118 105t180 46.5t228.5 10.5h109v64q0 51 -7 84t-29.5 52.5
t-64.5 27.5t-112 8q-84 0 -177.5 -4.5t-201.5 -14.5v211q25 9 70.5 21.5t105 24t130 19t145.5 7.5q73 0 128.5 -6t98 -18t74 -29t57.5 -39q63 43 147 66.5t199 23.5q109 0 192.5 -22.5t145.5 -62t104 -94.5t67.5 -119.5t36.5 -136.5t11 -147v-127h-766v-16q0 -57 7 -103
t34 -78t81 -49.5t149 -17.5q51 0 109.5 1.5t117 4.5t113.5 7t100 10v-228zM1536 698q0 48 -7 92.5t-29 78.5t-63.5 54.5t-109.5 20.5q-67 0 -107.5 -20.5t-62.5 -55t-29.5 -78.5t-7.5 -92v-16h416v16zM776 514h-119q-60 0 -104 -5t-72 -21t-41.5 -46t-13.5 -80v-47
q0 -35 9.5 -57.5t27 -36t42 -19t54.5 -5.5q34 0 67 5.5t61.5 14t51.5 18t37 17.5v262z" />
    <glyph glyph-name="ccedilla" unicode="&#xe7;" horiz-adv-x="1092" 
d="M1008 14q-26 -6 -64 -14t-87.5 -14.5t-110 -11.5t-130.5 -5q-134 0 -232 35t-162 104.5t-95 172t-31 237.5v131q0 138 31 241.5t95 171.5t162 102t232 34q70 0 130.5 -5t110 -11.5t87.5 -14.5t64 -14v-244q-117 8 -195 12.5t-129 4.5q-59 0 -102.5 -11t-72.5 -41.5
t-43.5 -84.5t-14.5 -140v-131q0 -86 14.5 -140t44 -85t73 -42t101.5 -11q51 0 129 4t195 12v-242zM223 -416l215 287h379l-269 -287h-325z" />
    <glyph glyph-name="egrave" unicode="&#xe8;" horiz-adv-x="1305" 
d="M1159 20q-68 -17 -185.5 -34t-268.5 -17q-161 0 -276 30t-189 98.5t-109 178.5t-35 271v63q0 153 36 264t107.5 183t176.5 106.5t243 34.5q165 0 272.5 -48.5t171 -132.5t89 -195.5t25.5 -237.5v-97h-768v-16q0 -58 7 -102.5t34.5 -74.5t81.5 -45.5t149 -15.5
q45 0 91.5 1.5t99 4.5t113 7.5t134.5 9.5v-236zM866 698q0 48 -7 92.5t-29 78.5t-63 54.5t-110 20.5q-66 0 -106.5 -20.5t-62.5 -55t-29.5 -78.5t-7.5 -92v-16h415v16zM586 1292l-342 299h406l268 -299h-332z" />
    <glyph glyph-name="eacute" unicode="&#xe9;" horiz-adv-x="1305" 
d="M1159 20q-68 -17 -185.5 -34t-268.5 -17q-161 0 -276 30t-189 98.5t-109 178.5t-35 271v63q0 153 36 264t107.5 183t176.5 106.5t243 34.5q165 0 272.5 -48.5t171 -132.5t89 -195.5t25.5 -237.5v-97h-768v-16q0 -58 7 -102.5t34.5 -74.5t81.5 -45.5t149 -15.5
q45 0 91.5 1.5t99 4.5t113 7.5t134.5 9.5v-236zM866 698q0 48 -7 92.5t-29 78.5t-63 54.5t-110 20.5q-66 0 -106.5 -20.5t-62.5 -55t-29.5 -78.5t-7.5 -92v-16h415v16zM799 1292h-334l270 299h406z" />
    <glyph glyph-name="ecircumflex" unicode="&#xea;" horiz-adv-x="1305" 
d="M1159 20q-68 -17 -185.5 -34t-268.5 -17q-161 0 -276 30t-189 98.5t-109 178.5t-35 271v63q0 153 36 264t107.5 183t176.5 106.5t243 34.5q165 0 272.5 -48.5t171 -132.5t89 -195.5t25.5 -237.5v-97h-768v-16q0 -58 7 -102.5t34.5 -74.5t81.5 -45.5t149 -15.5
q45 0 91.5 1.5t99 4.5t113 7.5t134.5 9.5v-236zM866 698q0 48 -7 92.5t-29 78.5t-63 54.5t-110 20.5q-66 0 -106.5 -20.5t-62.5 -55t-29.5 -78.5t-7.5 -92v-16h415v16zM835 1292l-178 168l-176 -168h-313l276 299h426l277 -299h-312z" />
    <glyph glyph-name="edieresis" unicode="&#xeb;" horiz-adv-x="1305" 
d="M1159 20q-68 -17 -185.5 -34t-268.5 -17q-161 0 -276 30t-189 98.5t-109 178.5t-35 271v63q0 153 36 264t107.5 183t176.5 106.5t243 34.5q165 0 272.5 -48.5t171 -132.5t89 -195.5t25.5 -237.5v-97h-768v-16q0 -58 7 -102.5t34.5 -74.5t81.5 -45.5t149 -15.5
q45 0 91.5 1.5t99 4.5t113 7.5t134.5 9.5v-236zM866 698q0 48 -7 92.5t-29 78.5t-63 54.5t-110 20.5q-66 0 -106.5 -20.5t-62.5 -55t-29.5 -78.5t-7.5 -92v-16h415v16zM770 1321v260h285v-260h-285zM248 1321v260h286v-260h-286z" />
    <glyph glyph-name="igrave" unicode="&#xec;" horiz-adv-x="651" 
d="M147 0v1167h357v-1167h-357zM220 1292l-342 299h406l268 -299h-332z" />
    <glyph glyph-name="iacute" unicode="&#xed;" horiz-adv-x="651" 
d="M147 0v1167h357v-1167h-357zM433 1292h-334l270 299h406z" />
    <glyph glyph-name="icircumflex" unicode="&#xee;" horiz-adv-x="651" 
d="M147 0v1167h357v-1167h-357zM505 1292l-178 168l-176 -168h-313l276 299h426l277 -299h-312z" />
    <glyph glyph-name="idieresis" unicode="&#xef;" horiz-adv-x="651" 
d="M147 0v1167h357v-1167h-357zM441 1321v260h285v-260h-285zM-81 1321v260h286v-260h-286z" />
    <glyph glyph-name="eth" unicode="&#xf0;" horiz-adv-x="1315" 
d="M1219 551q0 -150 -36 -259t-107 -180.5t-176 -106t-243 -34.5q-275 0 -418 131.5t-143 409.5v98q0 144 37.5 247.5t109 169.5t175 97t235.5 31q90 0 162 -35q-80 156 -254 223l-235 -169l-88 98l161 119q-43 8 -89 13t-93 5h-26.5t-34.5 -2v205q31 3 60 4.5t52 1.5
q99 0 183.5 -13t158.5 -34l154 112l90 -96l-94 -74q117 -54 203.5 -139t143.5 -195t84.5 -241t27.5 -276v-111zM862 629q0 70 -12 118.5t-36.5 79t-63.5 44.5t-93 14t-93 -14.5t-64 -46.5t-37 -83t-12 -125v-104q0 -76 12 -128t37 -84t64 -46t93 -14q55 0 93.5 14t63.5 46
t36.5 84t11.5 128v117z" />
    <glyph glyph-name="ntilde" unicode="&#xf1;" horiz-adv-x="1374" 
d="M885 0v739q0 53 -6 89.5t-21.5 59t-43 32.5t-69.5 10q-49 0 -113.5 -18.5t-135.5 -47.5v-864h-357v1167h336v-94q90 56 186.5 90.5t196.5 34.5q88 0 150.5 -16.5t105 -46t68 -71.5t38.5 -93t17 -110t4 -122v-739h-356zM1151 1569q0 -78 -18 -132t-50.5 -88t-77 -49.5
t-97.5 -15.5q-48 0 -99 13.5t-116 48.5l-97 53q-34 20 -59 31.5t-51 11.5q-37 0 -50.5 -25.5t-13.5 -73.5v-49h-200v49q0 78 19 132t52 88t78.5 49.5t99.5 15.5q26 0 49.5 -3t47 -9.5t49 -18t57.5 -28.5l98 -53q33 -19 59.5 -31t57.5 -12q37 0 49.5 23t12.5 73v49h200v-49z
" />
    <glyph glyph-name="ograve" unicode="&#xf2;" horiz-adv-x="1315" 
d="M1219 518q0 -144 -37.5 -247.5t-109.5 -170.5t-177 -99t-240 -32q-133 0 -237 32t-175.5 99t-109 170.5t-37.5 247.5v129q0 144 37.5 248.5t109 171.5t175.5 99t237 32q135 0 240 -32t177 -99t109.5 -171.5t37.5 -248.5v-129zM862 647q0 78 -12 131t-37 86t-64 47.5
t-94 14.5q-54 0 -92.5 -14.5t-63 -47.5t-36.5 -86t-12 -131v-129q0 -78 12 -131t36.5 -85.5t63 -47t92.5 -14.5q55 0 94 14.5t64 47t37 85.5t12 131v129zM555 1292l-342 299h406l268 -299h-332z" />
    <glyph glyph-name="oacute" unicode="&#xf3;" horiz-adv-x="1315" 
d="M1219 518q0 -144 -37.5 -247.5t-109.5 -170.5t-177 -99t-240 -32q-133 0 -237 32t-175.5 99t-109 170.5t-37.5 247.5v129q0 144 37.5 248.5t109 171.5t175.5 99t237 32q135 0 240 -32t177 -99t109.5 -171.5t37.5 -248.5v-129zM862 647q0 78 -12 131t-37 86t-64 47.5
t-94 14.5q-54 0 -92.5 -14.5t-63 -47.5t-36.5 -86t-12 -131v-129q0 -78 12 -131t36.5 -85.5t63 -47t92.5 -14.5q55 0 94 14.5t64 47t37 85.5t12 131v129zM770 1292h-334l270 299h406z" />
    <glyph glyph-name="ocircumflex" unicode="&#xf4;" horiz-adv-x="1315" 
d="M1219 518q0 -144 -37.5 -247.5t-109.5 -170.5t-177 -99t-240 -32q-133 0 -237 32t-175.5 99t-109 170.5t-37.5 247.5v129q0 144 37.5 248.5t109 171.5t175.5 99t237 32q135 0 240 -32t177 -99t109.5 -171.5t37.5 -248.5v-129zM862 647q0 78 -12 131t-37 86t-64 47.5
t-94 14.5q-54 0 -92.5 -14.5t-63 -47.5t-36.5 -86t-12 -131v-129q0 -78 12 -131t36.5 -85.5t63 -47t92.5 -14.5q55 0 94 14.5t64 47t37 85.5t12 131v129zM835 1292l-178 168l-176 -168h-313l276 299h426l277 -299h-312z" />
    <glyph glyph-name="otilde" unicode="&#xf5;" horiz-adv-x="1315" 
d="M1219 518q0 -144 -37.5 -247.5t-109.5 -170.5t-177 -99t-240 -32q-133 0 -237 32t-175.5 99t-109 170.5t-37.5 247.5v129q0 144 37.5 248.5t109 171.5t175.5 99t237 32q135 0 240 -32t177 -99t109.5 -171.5t37.5 -248.5v-129zM862 647q0 78 -12 131t-37 86t-64 47.5
t-94 14.5q-54 0 -92.5 -14.5t-63 -47.5t-36.5 -86t-12 -131v-129q0 -78 12 -131t36.5 -85.5t63 -47t92.5 -14.5q55 0 94 14.5t64 47t37 85.5t12 131v129zM1122 1569q0 -78 -18 -132t-50.5 -88t-77 -49.5t-97.5 -15.5q-48 0 -99 13.5t-116 48.5l-97 53q-34 20 -59 31.5
t-51 11.5q-37 0 -50.5 -25.5t-13.5 -73.5v-49h-200v49q0 78 19 132t52 88t78.5 49.5t99.5 15.5q26 0 49.5 -3t47 -9.5t49 -18t57.5 -28.5l98 -53q33 -19 59.5 -31t57.5 -12q37 0 49.5 23t12.5 73v49h200v-49z" />
    <glyph glyph-name="odieresis" unicode="&#xf6;" horiz-adv-x="1315" 
d="M1219 518q0 -144 -37.5 -247.5t-109.5 -170.5t-177 -99t-240 -32q-133 0 -237 32t-175.5 99t-109 170.5t-37.5 247.5v129q0 144 37.5 248.5t109 171.5t175.5 99t237 32q135 0 240 -32t177 -99t109.5 -171.5t37.5 -248.5v-129zM862 647q0 78 -12 131t-37 86t-64 47.5
t-94 14.5q-54 0 -92.5 -14.5t-63 -47.5t-36.5 -86t-12 -131v-129q0 -78 12 -131t36.5 -85.5t63 -47t92.5 -14.5q55 0 94 14.5t64 47t37 85.5t12 131v129zM776 1321v260h285v-260h-285zM254 1321v260h286v-260h-286z" />
    <glyph glyph-name="divide" unicode="&#xf7;" horiz-adv-x="1386" 
d="M518 154v313h348v-313h-348zM174 655v271h1036v-271h-1036zM518 1108v315h348v-315h-348z" />
    <glyph glyph-name="oslash" unicode="&#xf8;" horiz-adv-x="1315" 
d="M1219 518q0 -144 -37.5 -247.5t-109.5 -170.5t-177 -99t-240 -32q-103 0 -188.5 20t-153.5 58l-61 -78h-205l148 185q-48 65 -73.5 155t-25.5 209v129q0 144 37.5 248.5t109 171.5t175.5 99t237 32q99 0 181 -17t147 -53l57 70h205l-139 -170q56 -68 84.5 -162t28.5 -219
v-129zM862 647q0 20 -1 38.5t-3 35.5l-348 -432q25 -26 60.5 -37.5t84.5 -11.5q55 0 94 14.5t64 47t37 85.5t12 131v129zM788 887q-48 39 -133 39q-54 0 -92.5 -14.5t-63 -47.5t-36.5 -86t-12 -131v-178z" />
    <glyph glyph-name="ugrave" unicode="&#xf9;" 
d="M903 0v94q-93 -54 -193.5 -89.5t-215.5 -35.5q-120 0 -191 38.5t-107.5 102.5t-47.5 147t-11 171v739h357v-739q0 -53 5.5 -89t21 -58.5t42.5 -32.5t70 -10q51 0 114 18t136 47v864h356v-1167h-336zM586 1292l-342 299h406l268 -299h-332z" />
    <glyph glyph-name="uacute" unicode="&#xfa;" 
d="M903 0v94q-93 -54 -193.5 -89.5t-215.5 -35.5q-120 0 -191 38.5t-107.5 102.5t-47.5 147t-11 171v739h357v-739q0 -53 5.5 -89t21 -58.5t42.5 -32.5t70 -10q51 0 114 18t136 47v864h356v-1167h-336zM813 1292h-334l270 299h406z" />
    <glyph glyph-name="ucircumflex" unicode="&#xfb;" 
d="M903 0v94q-93 -54 -193.5 -89.5t-215.5 -35.5q-120 0 -191 38.5t-107.5 102.5t-47.5 147t-11 171v739h357v-739q0 -53 5.5 -89t21 -58.5t42.5 -32.5t70 -10q51 0 114 18t136 47v864h356v-1167h-336zM870 1292l-178 168l-176 -168h-313l276 299h426l277 -299h-312z" />
    <glyph glyph-name="udieresis" unicode="&#xfc;" 
d="M903 0v94q-93 -54 -193.5 -89.5t-215.5 -35.5q-120 0 -191 38.5t-107.5 102.5t-47.5 147t-11 171v739h357v-739q0 -53 5.5 -89t21 -58.5t42.5 -32.5t70 -10q51 0 114 18t136 47v864h356v-1167h-336zM809 1321v260h285v-260h-285zM287 1321v260h286v-260h-286z" />
    <glyph glyph-name="yacute" unicode="&#xfd;" horiz-adv-x="1305" 
d="M805 1292h-334l270 299h406zM471 12l-424 1155h383l172 -600q22 -74 37 -151t37 -158q15 81 31 157t36 154l156 598h363l-371 -1175q-37 -116 -79 -198t-98 -134.5t-131.5 -77t-179.5 -24.5q-96 0 -182.5 7t-146.5 19v228q37 -2 66.5 -3t54.5 -1.5t49 -0.5h51
q32 0 56.5 7t43 23.5t32.5 43.5t26 68z" />
    <glyph glyph-name="thorn" unicode="&#xfe;" horiz-adv-x="1339" 
d="M139 -416v2011h334v-499q85 54 167.5 78t170.5 24q100 0 180 -29.5t136 -94t86 -167t30 -248.5v-139q0 -151 -38 -256t-108 -170.5t-170.5 -95t-224.5 -29.5q-52 0 -105 5.5t-101 13.5v-404h-357zM887 659q0 75 -11 126.5t-34 82.5t-59 44.5t-87 13.5q-44 0 -91 -10.5
t-113 -38.5v-623q48 -8 95 -12t81 -4q54 0 95 11.5t68.5 43t41.5 86t14 141.5v139z" />
    <glyph glyph-name="ydieresis" unicode="&#xff;" horiz-adv-x="1305" 
d="M795 1321v260h285v-260h-285zM273 1321v260h286v-260h-286zM471 12l-424 1155h383l172 -600q22 -74 37 -151t37 -158q15 81 31 157t36 154l156 598h363l-371 -1175q-37 -116 -79 -198t-98 -134.5t-131.5 -77t-179.5 -24.5q-96 0 -182.5 7t-146.5 19v228q37 -2 66.5 -3
t54.5 -1.5t49 -0.5h51q32 0 56.5 7t43 23.5t32.5 43.5t26 68z" />
    <glyph glyph-name="Amacron" unicode="&#x100;" horiz-adv-x="1532" 
d="M1087 0l-108 383h-432l-111 -383h-393l424 1522h594l428 -1522h-402zM817 1061q-14 56 -26 115.5t-21 117.5h-14q-10 -58 -21 -117.5t-26 -115.5l-109 -404h328zM346 1656v205h838v-205h-838z" />
    <glyph glyph-name="amacron" unicode="&#x101;" horiz-adv-x="1247" 
d="M795 0v76q-29 -19 -67.5 -38t-86 -34.5t-101.5 -25t-112 -9.5q-167 0 -254.5 83.5t-87.5 250.5v47q0 117 42.5 186t118 105t180 46.5t228.5 10.5h109v64q0 54 -7.5 87.5t-31 52t-65.5 25.5t-111 7q-39 0 -84.5 -1t-94 -3.5t-99 -6.5t-99.5 -10v213q25 9 70.5 21.5
t105.5 24t130.5 19t144.5 7.5q136 0 231 -23.5t154 -75.5t85.5 -135t26.5 -202v-762h-325zM776 514h-119q-60 0 -104 -5t-72 -21t-41.5 -46t-13.5 -80v-47q0 -35 10 -57.5t27.5 -36t42 -19t53.5 -5.5q34 0 67.5 5.5t62.5 14t51.5 18t35.5 17.5v262zM211 1337v203h838v-203
h-838z" />
    <glyph glyph-name="Abreve" unicode="&#x102;" horiz-adv-x="1532" 
d="M1087 0l-108 383h-432l-111 -383h-393l424 1522h594l428 -1522h-402zM817 1061q-14 56 -26 115.5t-21 117.5h-14q-10 -58 -21 -117.5t-26 -115.5l-109 -404h328zM1192 1933q-10 -88 -48.5 -150t-96.5 -101t-130.5 -57t-150.5 -18q-77 0 -149 18t-130 57t-96.5 101
t-48.5 150h207q6 -46 25 -76.5t47.5 -48.5t65.5 -25.5t79 -7.5q44 0 81.5 7.5t66 25.5t47.5 48.5t26 76.5h205z" />
    <glyph glyph-name="abreve" unicode="&#x103;" horiz-adv-x="1247" 
d="M795 0v76q-29 -19 -67.5 -38t-86 -34.5t-101.5 -25t-112 -9.5q-167 0 -254.5 83.5t-87.5 250.5v47q0 117 42.5 186t118 105t180 46.5t228.5 10.5h109v64q0 54 -7.5 87.5t-31 52t-65.5 25.5t-111 7q-39 0 -84.5 -1t-94 -3.5t-99 -6.5t-99.5 -10v213q25 9 70.5 21.5
t105.5 24t130.5 19t144.5 7.5q136 0 231 -23.5t154 -75.5t85.5 -135t26.5 -202v-762h-325zM776 514h-119q-60 0 -104 -5t-72 -21t-41.5 -46t-13.5 -80v-47q0 -35 10 -57.5t27.5 -36t42 -19t53.5 -5.5q34 0 67.5 5.5t62.5 14t51.5 18t35.5 17.5v262zM1061 1614
q-10 -88 -48.5 -150t-96.5 -101t-130.5 -57t-150.5 -18q-77 0 -149 18t-130 57t-96.5 101t-48.5 150h207q6 -46 25 -76.5t47.5 -48.5t65.5 -25.5t79 -7.5q44 0 81.5 7.5t66 25.5t47.5 48.5t26 76.5h205z" />
    <glyph glyph-name="Aogonek" unicode="&#x104;" horiz-adv-x="1532" 
d="M1489 -410q-18 -5 -46 -11t-64 -11t-78.5 -8.5t-88.5 -3.5q-149 0 -228 51.5t-79 163.5q0 63 44.5 125.5t133.5 113.5l-104 373h-432l-111 -383h-393l424 1522h594l428 -1522q-89 -32 -143.5 -58.5t-85.5 -48t-41.5 -40t-10.5 -35.5q0 -35 24.5 -53.5t84.5 -18.5
q45 0 88.5 3.5t83.5 6.5v-166zM817 1061q-14 56 -26 115.5t-21 117.5h-14q-10 -58 -21 -117.5t-26 -115.5l-109 -404h328z" />
    <glyph glyph-name="aogonek" unicode="&#x105;" horiz-adv-x="1247" 
d="M1120 -410q-18 -5 -46 -11t-63.5 -11t-78 -8.5t-88.5 -3.5q-148 0 -227.5 42.5t-79.5 137.5q0 88 68 150t190 110v92q-29 -19 -67.5 -40t-86 -38.5t-101.5 -29t-112 -11.5q-167 0 -254.5 83.5t-87.5 250.5v47q0 117 42.5 186t118 105t180 46.5t228.5 10.5h109v64
q0 54 -7.5 87.5t-31 52t-65.5 25.5t-111 7q-39 0 -84.5 -1t-94 -3.5t-99 -6.5t-99.5 -10v213q25 9 70.5 21.5t105.5 24t130.5 19t144.5 7.5q136 0 231 -23.5t154 -75.5t85.5 -135t26.5 -202v-762q-87 -32 -141.5 -58.5t-85 -48t-41 -40t-10.5 -35.5q0 -35 23 -53.5t85 -18.5
q45 0 88.5 3.5t81.5 6.5v-166zM776 514h-119q-60 0 -104 -5t-72 -21t-41.5 -46t-13.5 -80v-47q0 -35 10 -57.5t27.5 -36t42 -19t53.5 -5.5q34 0 67.5 5.5t62.5 14t51.5 18t35.5 17.5v262z" />
    <glyph glyph-name="Cacute" unicode="&#x106;" horiz-adv-x="1262" 
d="M1196 6q-29 -7 -79 -14t-108.5 -13t-118 -10t-106.5 -4q-163 0 -290 33.5t-214.5 115t-133.5 218t-46 342.5v176q0 206 46 341.5t133.5 216t214.5 113.5t290 33q47 0 106.5 -4t118 -10t108.5 -13.5t79 -15.5v-272q-38 3 -84 6t-95 6t-99 4.5t-97 1.5q-84 0 -147 -17
t-104.5 -62t-62 -124.5t-20.5 -203.5v-176q0 -125 20.5 -205t62.5 -126t105 -63.5t148 -17.5q47 0 96.5 1.5t98.5 3.5t94.5 5.5t83.5 6.5v-273zM879 1616h-334l270 299h406z" />
    <glyph glyph-name="cacute" unicode="&#x107;" horiz-adv-x="1092" 
d="M1008 14q-26 -6 -64 -14t-87.5 -14.5t-110 -11.5t-130.5 -5q-134 0 -232 35t-162 104.5t-95 172t-31 237.5v131q0 138 31 241.5t95 171.5t162 102t232 34q70 0 130.5 -5t110 -11.5t87.5 -14.5t64 -14v-244q-117 8 -195 12.5t-129 4.5q-59 0 -102.5 -11t-72.5 -41.5
t-43.5 -84.5t-14.5 -140v-131q0 -86 14.5 -140t44 -85t73 -42t101.5 -11q51 0 129 4t195 12v-242zM750 1292h-334l270 299h406z" />
    <glyph glyph-name="Ccircumflex" unicode="&#x108;" horiz-adv-x="1262" 
d="M1196 6q-29 -7 -79 -14t-108.5 -13t-118 -10t-106.5 -4q-163 0 -290 33.5t-214.5 115t-133.5 218t-46 342.5v176q0 206 46 341.5t133.5 216t214.5 113.5t290 33q47 0 106.5 -4t118 -10t108.5 -13.5t79 -15.5v-272q-38 3 -84 6t-95 6t-99 4.5t-97 1.5q-84 0 -147 -17
t-104.5 -62t-62 -124.5t-20.5 -203.5v-176q0 -125 20.5 -205t62.5 -126t105 -63.5t148 -17.5q47 0 96.5 1.5t98.5 3.5t94.5 5.5t83.5 6.5v-273zM887 1616l-178 168l-176 -168h-313l276 299h426l277 -299h-312z" />
    <glyph glyph-name="ccircumflex" unicode="&#x109;" horiz-adv-x="1092" 
d="M1008 14q-26 -6 -64 -14t-87.5 -14.5t-110 -11.5t-130.5 -5q-134 0 -232 35t-162 104.5t-95 172t-31 237.5v131q0 138 31 241.5t95 171.5t162 102t232 34q70 0 130.5 -5t110 -11.5t87.5 -14.5t64 -14v-244q-117 8 -195 12.5t-129 4.5q-59 0 -102.5 -11t-72.5 -41.5
t-43.5 -84.5t-14.5 -140v-131q0 -86 14.5 -140t44 -85t73 -42t101.5 -11q51 0 129 4t195 12v-242zM788 1292l-178 168l-176 -168h-313l276 299h426l277 -299h-312z" />
    <glyph glyph-name="Cdotaccent" unicode="&#x10a;" horiz-adv-x="1262" 
d="M1196 6q-29 -7 -79 -14t-108.5 -13t-118 -10t-106.5 -4q-163 0 -290 33.5t-214.5 115t-133.5 218t-46 342.5v176q0 206 46 341.5t133.5 216t214.5 113.5t290 33q47 0 106.5 -4t118 -10t108.5 -13.5t79 -15.5v-272q-38 3 -84 6t-95 6t-99 4.5t-97 1.5q-84 0 -147 -17
t-104.5 -62t-62 -124.5t-20.5 -203.5v-176q0 -125 20.5 -205t62.5 -126t105 -63.5t148 -17.5q47 0 96.5 1.5t98.5 3.5t94.5 5.5t83.5 6.5v-273zM557 1638v260h369v-260h-369z" />
    <glyph glyph-name="cdotaccent" unicode="&#x10b;" horiz-adv-x="1092" 
d="M1008 14q-26 -6 -64 -14t-87.5 -14.5t-110 -11.5t-130.5 -5q-134 0 -232 35t-162 104.5t-95 172t-31 237.5v131q0 138 31 241.5t95 171.5t162 102t232 34q70 0 130.5 -5t110 -11.5t87.5 -14.5t64 -14v-244q-117 8 -195 12.5t-129 4.5q-59 0 -102.5 -11t-72.5 -41.5
t-43.5 -84.5t-14.5 -140v-131q0 -86 14.5 -140t44 -85t73 -42t101.5 -11q51 0 129 4t195 12v-242zM434 1333v260h369v-260h-369z" />
    <glyph glyph-name="Ccaron" unicode="&#x10c;" horiz-adv-x="1262" 
d="M1196 6q-29 -7 -79 -14t-108.5 -13t-118 -10t-106.5 -4q-163 0 -290 33.5t-214.5 115t-133.5 218t-46 342.5v176q0 206 46 341.5t133.5 216t214.5 113.5t290 33q47 0 106.5 -4t118 -10t108.5 -13.5t79 -15.5v-272q-38 3 -84 6t-95 6t-99 4.5t-97 1.5q-84 0 -147 -17
t-104.5 -62t-62 -124.5t-20.5 -203.5v-176q0 -125 20.5 -205t62.5 -126t105 -63.5t148 -17.5q47 0 96.5 1.5t98.5 3.5t94.5 5.5t83.5 6.5v-273zM526 1616l-276 299h313l176 -168l178 168h312l-277 -299h-426z" />
    <glyph glyph-name="ccaron" unicode="&#x10d;" horiz-adv-x="1092" 
d="M1008 14q-26 -6 -64 -14t-87.5 -14.5t-110 -11.5t-130.5 -5q-134 0 -232 35t-162 104.5t-95 172t-31 237.5v131q0 138 31 241.5t95 171.5t162 102t232 34q70 0 130.5 -5t110 -11.5t87.5 -14.5t64 -14v-244q-117 8 -195 12.5t-129 4.5q-59 0 -102.5 -11t-72.5 -41.5
t-43.5 -84.5t-14.5 -140v-131q0 -86 14.5 -140t44 -85t73 -42t101.5 -11q51 0 129 4t195 12v-242zM391 1292l-276 299h313l176 -168l178 168h312l-277 -299h-426z" />
    <glyph glyph-name="Dcaron" unicode="&#x10e;" horiz-adv-x="1511" 
d="M1411 686q0 -183 -42 -315.5t-131 -219t-228.5 -128t-335.5 -41.5q-75 0 -138.5 1t-124.5 3t-124.5 5.5t-136.5 8.5v1522q73 5 134.5 8.5t122 5.5t125 3t142.5 1q192 0 331 -41.5t229.5 -127t133.5 -216.5t43 -311v-158zM1034 844q0 121 -19.5 200t-62.5 125t-110.5 64
t-163.5 18h-156v-983h156q96 0 163.5 19.5t110.5 67.5t62.5 128.5t19.5 202.5v158zM532 1614l-276 299h313l176 -168l178 168h312l-277 -299h-426z" />
    <glyph glyph-name="dcaron" unicode="&#x10f;" horiz-adv-x="1694" 
d="M868 0v59q-60 -37 -142 -63.5t-187 -26.5t-187 32.5t-139 98.5t-87 167t-30 239v143q0 154 37 259t105.5 169.5t167 92.5t221.5 28q63 0 114 -5t101 -13v415h356v-1595h-330zM846 913q-48 8 -95 12.5t-81 4.5q-55 0 -95.5 -10.5t-67.5 -41t-40.5 -85.5t-13.5 -144v-143
q0 -74 10.5 -124.5t34 -82t61.5 -45.5t94 -14q51 0 99.5 11t93.5 30v632zM1554 1073h-256l119 522h318z" />
    <glyph glyph-name="Dcroat" unicode="&#x110;" horiz-adv-x="1511" 
d="M1411 686q0 -183 -42 -315.5t-131 -219t-228.5 -128t-335.5 -41.5q-136 0 -263.5 3.5t-260.5 14.5v651h-103v258h103v613q133 11 260.5 14.5t263.5 3.5q192 0 331 -41.5t229.5 -127t133.5 -216.5t43 -311v-158zM1034 844q0 121 -19.5 200t-62.5 125t-110.5 64t-163.5 18
h-156v-342h226v-258h-226v-383h156q96 0 163.5 19.5t110.5 67.5t62.5 128.5t19.5 202.5v158z" />
    <glyph glyph-name="dcroat" unicode="&#x111;" horiz-adv-x="1372" 
d="M868 0v59q-60 -37 -142 -63.5t-187 -26.5t-187 32.5t-139 98.5t-87 167t-30 239v143q0 154 37 259t105.5 169.5t167 92.5t221.5 28q63 0 114 -5t101 -13v127h-340v174h340v114h356v-114h117v-174h-117v-1307h-330zM846 913q-48 8 -95 12.5t-81 4.5q-55 0 -95.5 -10.5
t-67.5 -41t-40.5 -85.5t-13.5 -144v-143q0 -74 10.5 -124.5t34 -82t61.5 -45.5t94 -14q53 0 101 12t92 29v632z" />
    <glyph glyph-name="Emacron" unicode="&#x112;" horiz-adv-x="1286" 
d="M150 0v1522h1036v-279h-654v-332h611v-264h-611v-371h654v-276h-1036zM256 1656v205h838v-205h-838z" />
    <glyph glyph-name="emacron" unicode="&#x113;" horiz-adv-x="1305" 
d="M1159 20q-68 -17 -185.5 -34t-268.5 -17q-161 0 -276 30t-189 98.5t-109 178.5t-35 271v63q0 153 36 264t107.5 183t176.5 106.5t243 34.5q165 0 272.5 -48.5t171 -132.5t89 -195.5t25.5 -237.5v-97h-768v-16q0 -58 7 -102.5t34.5 -74.5t81.5 -45.5t149 -15.5
q45 0 91.5 1.5t99 4.5t113 7.5t134.5 9.5v-236zM866 698q0 48 -7 92.5t-29 78.5t-63 54.5t-110 20.5q-66 0 -106.5 -20.5t-62.5 -55t-29.5 -78.5t-7.5 -92v-16h415v16zM229 1337v203h838v-203h-838z" />
    <glyph glyph-name="Ebreve" unicode="&#x114;" horiz-adv-x="1286" 
d="M150 0v1522h1036v-279h-654v-332h611v-264h-611v-371h654v-276h-1036zM1104 1931q-10 -88 -48.5 -150t-96.5 -101t-130.5 -57t-150.5 -18q-77 0 -149 18t-130 57t-96.5 101t-48.5 150h207q6 -46 25 -76.5t47.5 -48.5t65.5 -25.5t79 -7.5q44 0 81.5 7.5t66 25.5t47.5 48.5
t26 76.5h205z" />
    <glyph glyph-name="ebreve" unicode="&#x115;" horiz-adv-x="1305" 
d="M1159 20q-68 -17 -185.5 -34t-268.5 -17q-161 0 -276 30t-189 98.5t-109 178.5t-35 271v63q0 153 36 264t107.5 183t176.5 106.5t243 34.5q165 0 272.5 -48.5t171 -132.5t89 -195.5t25.5 -237.5v-97h-768v-16q0 -58 7 -102.5t34.5 -74.5t81.5 -45.5t149 -15.5
q45 0 91.5 1.5t99 4.5t113 7.5t134.5 9.5v-236zM866 698q0 48 -7 92.5t-29 78.5t-63 54.5t-110 20.5q-66 0 -106.5 -20.5t-62.5 -55t-29.5 -78.5t-7.5 -92v-16h415v16zM1077 1614q-10 -88 -48.5 -150t-96.5 -101t-130.5 -57t-150.5 -18q-77 0 -149 18t-130 57t-96.5 101
t-48.5 150h207q6 -46 25 -76.5t47.5 -48.5t65.5 -25.5t79 -7.5q44 0 81.5 7.5t66 25.5t47.5 48.5t26 76.5h205z" />
    <glyph glyph-name="Edotaccent" unicode="&#x116;" horiz-adv-x="1286" 
d="M150 0v1522h1036v-279h-654v-332h611v-264h-611v-371h654v-276h-1036zM479 1638v260h369v-260h-369z" />
    <glyph glyph-name="edotaccent" unicode="&#x117;" horiz-adv-x="1305" 
d="M1159 20q-68 -17 -185.5 -34t-268.5 -17q-161 0 -276 30t-189 98.5t-109 178.5t-35 271v63q0 153 36 264t107.5 183t176.5 106.5t243 34.5q165 0 272.5 -48.5t171 -132.5t89 -195.5t25.5 -237.5v-97h-768v-16q0 -58 7 -102.5t34.5 -74.5t81.5 -45.5t149 -15.5
q45 0 91.5 1.5t99 4.5t113 7.5t134.5 9.5v-236zM866 698q0 48 -7 92.5t-29 78.5t-63 54.5t-110 20.5q-66 0 -106.5 -20.5t-62.5 -55t-29.5 -78.5t-7.5 -92v-16h415v16zM463 1333v260h369v-260h-369z" />
    <glyph glyph-name="Eogonek" unicode="&#x118;" horiz-adv-x="1286" 
d="M1186 -410q-18 -5 -46 -11t-64 -11t-78.5 -8.5t-88.5 -3.5q-148 0 -227.5 50t-79.5 152q0 73 61 136t191 106h-704v1522h1036v-279h-654v-332h611v-264h-611v-371h654v-276q-88 -32 -142.5 -58.5t-85 -48t-41 -40t-10.5 -35.5q0 -35 23.5 -53.5t85.5 -18.5q45 0 88.5 3.5
t81.5 6.5v-166z" />
    <glyph glyph-name="eogonek" unicode="&#x119;" horiz-adv-x="1305" 
d="M1159 -410q-18 -5 -46 -11t-63.5 -11t-78 -8.5t-88.5 -3.5q-150 0 -230 50t-80 152q0 54 36 110t110 101h-14q-161 0 -276 30t-189 98.5t-109 178.5t-35 271v63q0 153 36 264t107.5 183t176.5 106.5t243 34.5q165 0 272.5 -48.5t171 -132.5t89 -195.5t25.5 -237.5v-97
h-768v-16q0 -58 7 -102.5t34.5 -74.5t81.5 -45.5t149 -15.5q45 0 91.5 1.5t99 4.5t113 7.5t134.5 9.5v-236q-88 -32 -143 -61.5t-85.5 -55t-41 -47t-10.5 -38.5q0 -35 24 -53.5t84 -18.5q45 0 88.5 3.5t83.5 6.5v-166zM866 698q0 48 -7 92.5t-29 78.5t-63 54.5t-110 20.5
q-66 0 -106.5 -20.5t-62.5 -55t-29.5 -78.5t-7.5 -92v-16h415v16z" />
    <glyph glyph-name="Ecaron" unicode="&#x11a;" horiz-adv-x="1286" 
d="M150 0v1522h1036v-279h-654v-332h611v-264h-611v-371h654v-276h-1036zM463 1616l-276 299h313l176 -168l178 168h312l-277 -299h-426z" />
    <glyph glyph-name="ecaron" unicode="&#x11b;" horiz-adv-x="1305" 
d="M1159 20q-68 -17 -185.5 -34t-268.5 -17q-161 0 -276 30t-189 98.5t-109 178.5t-35 271v63q0 153 36 264t107.5 183t176.5 106.5t243 34.5q165 0 272.5 -48.5t171 -132.5t89 -195.5t25.5 -237.5v-97h-768v-16q0 -58 7 -102.5t34.5 -74.5t81.5 -45.5t149 -15.5
q45 0 91.5 1.5t99 4.5t113 7.5t134.5 9.5v-236zM866 698q0 48 -7 92.5t-29 78.5t-63 54.5t-110 20.5q-66 0 -106.5 -20.5t-62.5 -55t-29.5 -78.5t-7.5 -92v-16h415v16zM453 1292l-276 299h313l176 -168l178 168h312l-277 -299h-426z" />
    <glyph glyph-name="Gcircumflex" unicode="&#x11c;" horiz-adv-x="1444" 
d="M963 821h356v-807q-40 -8 -98.5 -16.5t-130 -15.5t-152.5 -12t-166 -5q-91 0 -175.5 12t-159.5 42.5t-137 81.5t-106.5 129.5t-69 187.5t-24.5 254v180q0 152 27.5 263.5t75.5 189.5t113 126.5t140.5 76t158 37t165.5 9.5q85 0 168.5 -6t155.5 -14.5t127 -18t82 -16.5
v-260l-100 5t-124.5 6t-127.5 5t-109 2q-60 0 -110.5 -5.5t-92 -20.5t-73.5 -43t-53.5 -73t-32.5 -109.5t-11 -153.5v-180q0 -122 18.5 -201.5t57 -126t96.5 -64.5t137 -18q47 0 92 0.5t83 3.5v555zM917 1616l-178 168l-176 -168h-313l276 299h426l277 -299h-312z" />
    <glyph glyph-name="gcircumflex" unicode="&#x11d;" horiz-adv-x="1341" 
d="M846 8q-15 -2 -37 -5t-47.5 -5.5t-52 -4t-50.5 -1.5q-134 0 -238.5 31t-175.5 97t-108 168.5t-37 246.5v118q0 141 36 244t112 170t193.5 99t281.5 32q128 0 252 -9t227 -22v-1198q0 -98 -26 -174t-89 -129t-169.5 -80.5t-266.5 -27.5q-84 0 -164 6t-146 13.5t-112 15.5
t-61 12v213q50 -2 107.5 -5t117 -5.5t118.5 -4.5t112 -2q75 0 119 10t67.5 30.5t30 52t6.5 75.5v39zM848 920q-17 3 -60.5 6.5t-99.5 3.5q-69 0 -114 -16.5t-71.5 -50.5t-37 -86t-10.5 -124v-118q0 -76 12 -128.5t39.5 -85t71.5 -47t108 -14.5q23 0 48 1t47 2.5t40 3t27 3.5
v650zM852 1292l-178 168l-176 -168h-313l276 299h426l277 -299h-312z" />
    <glyph glyph-name="Gbreve" unicode="&#x11e;" horiz-adv-x="1444" 
d="M963 821h356v-807q-40 -8 -98.5 -16.5t-130 -15.5t-152.5 -12t-166 -5q-91 0 -175.5 12t-159.5 42.5t-137 81.5t-106.5 129.5t-69 187.5t-24.5 254v180q0 152 27.5 263.5t75.5 189.5t113 126.5t140.5 76t158 37t165.5 9.5q85 0 168.5 -6t155.5 -14.5t127 -18t82 -16.5
v-260l-100 5t-124.5 6t-127.5 5t-109 2q-60 0 -110.5 -5.5t-92 -20.5t-73.5 -43t-53.5 -73t-32.5 -109.5t-11 -153.5v-180q0 -122 18.5 -201.5t57 -126t96.5 -64.5t137 -18q47 0 92 0.5t83 3.5v555zM1194 1940q-10 -88 -48.5 -150t-96.5 -101t-130.5 -57t-150.5 -18
q-77 0 -149 18t-130 57t-96.5 101t-48.5 150h207q6 -46 25 -76.5t47.5 -48.5t65.5 -25.5t79 -7.5q44 0 81.5 7.5t66 25.5t47.5 48.5t26 76.5h205z" />
    <glyph glyph-name="gbreve" unicode="&#x11f;" horiz-adv-x="1341" 
d="M846 8q-15 -2 -37 -5t-47.5 -5.5t-52 -4t-50.5 -1.5q-134 0 -238.5 31t-175.5 97t-108 168.5t-37 246.5v118q0 141 36 244t112 170t193.5 99t281.5 32q128 0 252 -9t227 -22v-1198q0 -98 -26 -174t-89 -129t-169.5 -80.5t-266.5 -27.5q-84 0 -164 6t-146 13.5t-112 15.5
t-61 12v213q50 -2 107.5 -5t117 -5.5t118.5 -4.5t112 -2q75 0 119 10t67.5 30.5t30 52t6.5 75.5v39zM848 920q-17 3 -60.5 6.5t-99.5 3.5q-69 0 -114 -16.5t-71.5 -50.5t-37 -86t-10.5 -124v-118q0 -76 12 -128.5t39.5 -85t71.5 -47t108 -14.5q23 0 48 1t47 2.5t40 3t27 3.5
v650zM1100 1614q-10 -88 -48.5 -150t-96.5 -101t-130.5 -57t-150.5 -18q-77 0 -149 18t-130 57t-96.5 101t-48.5 150h207q6 -46 25 -76.5t47.5 -48.5t65.5 -25.5t79 -7.5q44 0 81.5 7.5t66 25.5t47.5 48.5t26 76.5h205z" />
    <glyph glyph-name="Gdotaccent" unicode="&#x120;" horiz-adv-x="1444" 
d="M963 821h356v-807q-40 -8 -98.5 -16.5t-130 -15.5t-152.5 -12t-166 -5q-91 0 -175.5 12t-159.5 42.5t-137 81.5t-106.5 129.5t-69 187.5t-24.5 254v180q0 152 27.5 263.5t75.5 189.5t113 126.5t140.5 76t158 37t165.5 9.5q85 0 168.5 -6t155.5 -14.5t127 -18t82 -16.5
v-260l-100 5t-124.5 6t-127.5 5t-109 2q-60 0 -110.5 -5.5t-92 -20.5t-73.5 -43t-53.5 -73t-32.5 -109.5t-11 -153.5v-180q0 -122 18.5 -201.5t57 -126t96.5 -64.5t137 -18q47 0 92 0.5t83 3.5v555zM567 1638v260h369v-260h-369z" />
    <glyph glyph-name="gdotaccent" unicode="&#x121;" horiz-adv-x="1341" 
d="M846 8q-15 -2 -37 -5t-47.5 -5.5t-52 -4t-50.5 -1.5q-134 0 -238.5 31t-175.5 97t-108 168.5t-37 246.5v118q0 141 36 244t112 170t193.5 99t281.5 32q128 0 252 -9t227 -22v-1198q0 -98 -26 -174t-89 -129t-169.5 -80.5t-266.5 -27.5q-84 0 -164 6t-146 13.5t-112 15.5
t-61 12v213q50 -2 107.5 -5t117 -5.5t118.5 -4.5t112 -2q75 0 119 10t67.5 30.5t30 52t6.5 75.5v39zM848 920q-17 3 -60.5 6.5t-99.5 3.5q-69 0 -114 -16.5t-71.5 -50.5t-37 -86t-10.5 -124v-118q0 -76 12 -128.5t39.5 -85t71.5 -47t108 -14.5q23 0 48 1t47 2.5t40 3t27 3.5
v650zM492 1333v260h369v-260h-369z" />
    <glyph glyph-name="Gcommaaccent" unicode="&#x122;" horiz-adv-x="1444" 
d="M963 821h356v-807q-40 -8 -98.5 -16.5t-130 -15.5t-152.5 -12t-166 -5q-91 0 -175.5 12t-159.5 42.5t-137 81.5t-106.5 129.5t-69 187.5t-24.5 254v180q0 152 27.5 263.5t75.5 189.5t113 126.5t140.5 76t158 37t165.5 9.5q85 0 168.5 -6t155.5 -14.5t127 -18t82 -16.5
v-260l-100 5t-124.5 6t-127.5 5t-109 2q-60 0 -110.5 -5.5t-92 -20.5t-73.5 -43t-53.5 -73t-32.5 -109.5t-11 -153.5v-180q0 -122 18.5 -201.5t57 -126t96.5 -64.5t137 -18q47 0 92 0.5t83 3.5v555zM463 -416l137 287h369l-195 -287h-311z" />
    <glyph glyph-name="gcommaaccent" unicode="&#x123;" horiz-adv-x="1341" 
d="M1202 -31q0 -98 -26 -174t-89 -129t-169.5 -80.5t-266.5 -27.5q-84 0 -164 6t-146 13.5t-112 15.5t-61 12v213q50 -2 107.5 -5t117 -5.5t118.5 -4.5t112 -2q75 0 119 10t67.5 30.5t30 52t6.5 75.5v39q-15 -2 -37 -5t-47.5 -5.5t-52 -4t-50.5 -1.5q-134 0 -238.5 31
t-175.5 97t-108 168.5t-37 246.5v118q0 141 36 244t112 170t193.5 99t281.5 32q128 0 252 -9t227 -22v-1198zM848 920q-17 3 -60.5 6.5t-99.5 3.5q-69 0 -114 -16.5t-71.5 -50.5t-37 -86t-10.5 -124v-118q0 -76 12 -128.5t39.5 -85t71.5 -47t108 -14.5q23 0 48 1t47 2.5
t40 3t27 3.5v650zM713 1579h311l-137 -287h-369z" />
    <glyph glyph-name="Hcircumflex" unicode="&#x124;" horiz-adv-x="1638" 
d="M1106 0v641h-571v-641h-385v1522h385v-590h571v590h383v-1522h-383zM1001 1614l-178 168l-176 -168h-313l276 299h426l277 -299h-312z" />
    <glyph glyph-name="hcircumflex" unicode="&#x125;" 
d="M885 0v735q0 57 -8 94.5t-26 60t-47.5 31.5t-72.5 9q-34 0 -67.5 -5t-64 -13.5t-57 -18.5t-46.5 -19v-874h-357v1595h357v-479q68 34 159.5 58t190.5 24q121 0 198 -33.5t120.5 -94.5t60 -145t16.5 -186v-739h-356zM866 1632l-178 168l-176 -168h-313l276 299h426
l277 -299h-312z" />
    <glyph glyph-name="Hbar" unicode="&#x126;" horiz-adv-x="1638" 
d="M1106 0v641h-571v-641h-385v1133h-127v163h127v226h385v-226h571v226h383v-226h123v-163h-123v-1133h-383zM1106 1133h-571v-201h571v201z" />
    <glyph glyph-name="hbar" unicode="&#x127;" 
d="M885 0v735q0 57 -8 94.5t-26 60t-47.5 31.5t-72.5 9q-34 0 -67 -5t-63.5 -13.5t-56.5 -18.5t-46 -19v-874h-359v1311h-112v170h112v114h359v-114h344v-170h-344v-195q33 17 73.5 32t85.5 26t93 17.5t96 6.5q121 0 198 -33.5t120.5 -94.5t60 -145t16.5 -186v-739h-356z
" />
    <glyph glyph-name="Itilde" unicode="&#x128;" horiz-adv-x="682" 
d="M150 0v1522h382v-1522h-382zM805 1891q0 -78 -18 -132t-50.5 -88t-77 -49.5t-97.5 -15.5q-48 0 -99 13.5t-116 48.5l-97 53q-34 20 -59 31.5t-51 11.5q-37 0 -50.5 -25.5t-13.5 -73.5v-49h-200v49q0 78 19 132t52 88t78.5 49.5t99.5 15.5q26 0 49.5 -3t47 -9.5t49 -18
t57.5 -28.5l98 -53q33 -19 59.5 -31t57.5 -12q37 0 49.5 23t12.5 73v49h200v-49z" />
    <glyph glyph-name="itilde" unicode="&#x129;" horiz-adv-x="651" 
d="M147 0v1167h357v-1167h-357zM791 1569q0 -78 -18 -132t-50.5 -88t-77 -49.5t-97.5 -15.5q-48 0 -99 13.5t-116 48.5l-97 53q-34 20 -59 31.5t-51 11.5q-37 0 -50.5 -25.5t-13.5 -73.5v-49h-200v49q0 78 19 132t52 88t78.5 49.5t99.5 15.5q26 0 49.5 -3t47 -9.5t49 -18
t57.5 -28.5l98 -53q33 -19 59.5 -31t57.5 -12q37 0 49.5 23t12.5 73v49h200v-49z" />
    <glyph glyph-name="Imacron" unicode="&#x12a;" horiz-adv-x="682" 
d="M150 0v1522h382v-1522h-382zM-75 1656v205h838v-205h-838z" />
    <glyph glyph-name="imacron" unicode="&#x12b;" horiz-adv-x="651" 
d="M147 0v1167h357v-1167h-357zM-91 1337v203h838v-203h-838z" />
    <glyph glyph-name="Ibreve" unicode="&#x12c;" horiz-adv-x="682" 
d="M150 0v1522h382v-1522h-382zM767 1942q-10 -88 -48.5 -150t-96.5 -101t-130.5 -57t-150.5 -18q-77 0 -149 18t-130 57t-96.5 101t-48.5 150h207q6 -46 25 -76.5t47.5 -48.5t65.5 -25.5t79 -7.5q44 0 81.5 7.5t66 25.5t47.5 48.5t26 76.5h205z" />
    <glyph glyph-name="ibreve" unicode="&#x12d;" horiz-adv-x="651" 
d="M147 0v1167h357v-1167h-357zM752 1614q-10 -88 -48.5 -150t-96.5 -101t-130.5 -57t-150.5 -18q-77 0 -149 18t-130 57t-96.5 101t-48.5 150h207q6 -46 25 -76.5t47.5 -48.5t65.5 -25.5t79 -7.5q44 0 81.5 7.5t66 25.5t47.5 48.5t26 76.5h205z" />
    <glyph glyph-name="Iogonek" unicode="&#x12e;" horiz-adv-x="682" 
d="M627 -410q-18 -5 -46 -11t-64 -11t-78.5 -8.5t-88.5 -3.5q-74 0 -131.5 10.5t-97 35.5t-60 67t-20.5 106q0 63 27.5 122t81.5 107v1518h382v-1522q-58 -28 -94.5 -54.5t-56.5 -50t-27.5 -43t-7.5 -34.5q0 -35 24.5 -53.5t84.5 -18.5q45 0 88 3.5t84 6.5v-166z" />
    <glyph glyph-name="iogonek" unicode="&#x12f;" horiz-adv-x="651" 
d="M614 -410q-18 -5 -46.5 -11t-65 -11t-78.5 -8.5t-86 -3.5q-148 0 -227.5 52.5t-79.5 166.5q0 68 31 125.5t85 103.5v1163h357v-1167q-51 -28 -83.5 -53t-51 -47.5t-26 -42t-7.5 -35.5q0 -35 23 -55.5t85 -20.5q48 0 90 3.5t80 6.5v-166zM141 1327v268h371v-268h-371z" />
    <glyph glyph-name="Idotaccent" unicode="&#x130;" horiz-adv-x="682" 
d="M150 0v1522h382v-1522h-382zM159 1638v260h369v-260h-369z" />
    <glyph glyph-name="dotlessi" unicode="&#x131;" horiz-adv-x="651" 
d="M147 0v1167h357v-1167h-357z" />
    <glyph glyph-name="IJ" unicode="&#x132;" horiz-adv-x="1411" 
d="M641 -188q31 -2 57.5 -3.5t51.5 -1.5q39 0 62 7t35 22.5t15.5 41t3.5 61.5v1583h383v-1569q0 -105 -24 -180t-73.5 -122t-126 -69t-181.5 -22q-26 0 -54.5 1.5t-56 4t-51.5 5.5t-41 7v234zM162 0v1522h383v-1522h-383z" />
    <glyph glyph-name="ij" unicode="&#x133;" horiz-adv-x="1313" 
d="M150 0v1167h356v-1167h-356zM143 1327v268h371v-268h-371zM586 -205q29 0 57.5 -1t58.5 -1q34 0 54.5 6.5t32 22t15 41.5t3.5 65v1239h356v-1239q0 -107 -21 -178.5t-66 -115t-116.5 -62t-173.5 -18.5q-30 0 -60.5 1.5t-57 3.5t-48 5t-34.5 6v225zM801 1327v268h370v-268
h-370z" />
    <glyph glyph-name="Jcircumflex" unicode="&#x134;" horiz-adv-x="682" 
d="M-76 -188q31 -2 57.5 -3.5t51.5 -1.5q39 0 62 7t35.5 22.5t16 41t3.5 61.5v1583h382v-1569q0 -105 -24 -180t-73.5 -122t-126 -69t-181.5 -22q-26 0 -54.5 1.5t-56 4t-51.5 5.5t-41 7v234zM521 1616l-178 168l-176 -168h-313l276 299h426l277 -299h-312z" />
    <glyph glyph-name="jcircumflex" unicode="&#x135;" horiz-adv-x="651" 
d="M-74 -203q29 -2 57.5 -2h57.5q34 0 55 6t32.5 21.5t15 41t3.5 64.5v1239h357v-1239q0 -107 -21 -178.5t-66.5 -115t-117 -62t-172.5 -18.5q-31 0 -61.5 1.5t-57.5 4.5t-48.5 6t-33.5 6v225zM502 1292l-176 168l-179 -168h-311l277 299h426l276 -299h-313z" />
    <glyph glyph-name="Kcommaaccent" unicode="&#x136;" horiz-adv-x="1511" 
d="M1034 0l-493 707v-707h-385v1522h385v-705l520 705h442l-567 -752l561 -770h-463zM497 -416l137 287h369l-195 -287h-311z" />
    <glyph glyph-name="kcommaaccent" unicode="&#x137;" horiz-adv-x="1278" 
d="M856 0l-360 541v-541h-357v1595h357v-944l366 516h381l-405 -561l422 -606h-404zM356 -416l137 287h369l-195 -287h-311z" />
    <glyph glyph-name="kgreenlandic" unicode="&#x138;" horiz-adv-x="1278" 
d="M856 0l-360 541v-541h-357v1167h357v-516l366 516h381l-405 -561l422 -606h-404z" />
    <glyph glyph-name="Lacute" unicode="&#x139;" horiz-adv-x="1186" 
d="M150 0v1522h385v-1235h595v-287h-980zM750 1616h-334l270 299h406z" />
    <glyph glyph-name="lacute" unicode="&#x13a;" horiz-adv-x="649" 
d="M147 0v1595h357v-1595h-357zM458 1634h-334l270 299h406z" />
    <glyph glyph-name="Lcommaaccent" unicode="&#x13b;" horiz-adv-x="1186" 
d="M150 0v1522h385v-1235h595v-287h-980zM346 -416l137 287h369l-195 -287h-311z" />
    <glyph glyph-name="lcommaaccent" unicode="&#x13c;" horiz-adv-x="649" 
d="M147 0v1595h357v-1595h-357zM5 -416l137 287h369l-195 -287h-311z" />
    <glyph glyph-name="Lcaron" unicode="&#x13d;" horiz-adv-x="1186" 
d="M723 1033l123 524h319l-194 -524h-248zM150 0v1522h385v-1235h595v-287h-980z" />
    <glyph glyph-name="lcaron" unicode="&#x13e;" horiz-adv-x="1024" 
d="M147 0v1595h357v-1595h-357zM872 1071h-249l125 524h317z" />
    <glyph glyph-name="Ldot" unicode="&#x13f;" horiz-adv-x="1186" 
d="M719 713v338h338v-338h-338zM150 0v1522h385v-1235h595v-287h-980z" />
    <glyph glyph-name="ldot" unicode="&#x140;" horiz-adv-x="999" 
d="M641 586v338h338v-338h-338zM147 0v1595h357v-1595h-357z" />
    <glyph glyph-name="Lslash" unicode="&#x141;" horiz-adv-x="1186" 
d="M150 0v559l-134 -108v221l134 104v746h385v-523l196 154v-221l-196 -154v-489h595v-289h-980z" />
    <glyph glyph-name="lslash" unicode="&#x142;" horiz-adv-x="721" 
d="M182 0v545l-157 -139v270l157 139v780h357v-467l157 140v-271l-157 -139v-858h-357z" />
    <glyph glyph-name="Nacute" unicode="&#x143;" horiz-adv-x="1589" 
d="M1042 0l-440 791q-28 49 -55.5 103t-50.5 105h-4q2 -60 4 -121.5t2 -123.5v-754h-348v1522h391l444 -777q28 -49 57 -106.5t52 -108.5h4q-3 54 -4.5 122.5t-1.5 138.5v731h348v-1522h-398zM934 1616h-334l270 299h406z" />
    <glyph glyph-name="nacute" unicode="&#x144;" horiz-adv-x="1374" 
d="M885 0v739q0 53 -6 89.5t-21.5 59t-43 32.5t-69.5 10q-49 0 -113.5 -18.5t-135.5 -47.5v-864h-357v1167h336v-94q90 56 186.5 90.5t196.5 34.5q88 0 150.5 -16.5t105 -46t68 -71.5t38.5 -93t17 -110t4 -122v-739h-356zM828 1292h-334l270 299h406z" />
    <glyph glyph-name="Ncommaaccent" unicode="&#x145;" horiz-adv-x="1589" 
d="M1042 0l-440 791q-28 49 -55.5 103t-50.5 105h-4q2 -60 4 -121.5t2 -123.5v-754h-348v1522h391l444 -777q28 -49 57 -106.5t52 -108.5h4q-3 54 -4.5 122.5t-1.5 138.5v731h348v-1522h-398zM506 -416l137 287h369l-195 -287h-311z" />
    <glyph glyph-name="ncommaaccent" unicode="&#x146;" horiz-adv-x="1374" 
d="M885 0v739q0 53 -6 89.5t-21.5 59t-43 32.5t-69.5 10q-49 0 -113.5 -18.5t-135.5 -47.5v-864h-357v1167h336v-94q90 56 186.5 90.5t196.5 34.5q88 0 150.5 -16.5t105 -46t68 -71.5t38.5 -93t17 -110t4 -122v-739h-356zM383 -416l137 287h369l-195 -287h-311z" />
    <glyph glyph-name="Ncaron" unicode="&#x147;" horiz-adv-x="1589" 
d="M1042 0l-440 791q-28 49 -55.5 103t-50.5 105h-4q2 -60 4 -121.5t2 -123.5v-754h-348v1522h391l444 -777q28 -49 57 -106.5t52 -108.5h4q-3 54 -4.5 122.5t-1.5 138.5v731h348v-1522h-398zM584 1616l-276 299h313l176 -168l178 168h312l-277 -299h-426z" />
    <glyph glyph-name="ncaron" unicode="&#x148;" horiz-adv-x="1374" 
d="M885 0v739q0 53 -6 89.5t-21.5 59t-43 32.5t-69.5 10q-49 0 -113.5 -18.5t-135.5 -47.5v-864h-357v1167h336v-94q90 56 186.5 90.5t196.5 34.5q88 0 150.5 -16.5t105 -46t68 -71.5t38.5 -93t17 -110t4 -122v-739h-356zM485 1292l-276 299h313l176 -168l178 168h312
l-277 -299h-426z" />
    <glyph glyph-name="napostrophe" unicode="&#x149;" horiz-adv-x="1614" 
d="M1124 0v739q0 53 -6 89.5t-21.5 59t-42.5 32.5t-69 10q-49 0 -114 -18.5t-136 -47.5v-864h-356v1167h336v-94q90 56 186.5 90.5t196.5 34.5q88 0 150.5 -16.5t105 -46t68 -71.5t38.5 -93t17 -110t4 -122v-739h-357zM-20 1071l122 524h320l-195 -524h-247z" />
    <glyph glyph-name="Eng" unicode="&#x14a;" horiz-adv-x="1589" 
d="M831 -193h111q38 0 61 7t35 22.5t15.5 41t3.5 61.5v114l-455 738q-37 59 -60.5 108.5t-45.5 99.5h-7q4 -60 5.5 -121.5t1.5 -123.5v-754h-346v1522h391l444 -705q35 -60 60.5 -112t48.5 -105h4q-5 56 -6.5 124.5t-1.5 137.5v660h350v-1569q0 -105 -24 -180t-73.5 -122
t-126.5 -69t-182 -22q-24 0 -52.5 1.5t-56 4t-52.5 5.5t-42 7v229z" />
    <glyph glyph-name="eng" unicode="&#x14b;" horiz-adv-x="1374" 
d="M662 -201q29 -2 57.5 -3t60.5 -1q33 0 53.5 6.5t32 22t15.5 41.5t4 65v809q0 53 -6 89.5t-21.5 59t-43 32.5t-69.5 10q-48 0 -111.5 -17.5t-137.5 -48.5v-864h-357v1167h334v-94q90 56 189.5 90.5t201.5 34.5q129 0 204 -36t113.5 -98.5t49 -146t10.5 -178.5v-809
q0 -104 -21 -175.5t-66.5 -115.5t-116.5 -63.5t-171 -19.5q-30 0 -60.5 1.5t-58 4.5t-50 6t-35.5 6v225z" />
    <glyph glyph-name="Omacron" unicode="&#x14c;" horiz-adv-x="1526" 
d="M1425 682q0 -197 -48 -334t-135.5 -222t-209.5 -123t-270 -38q-147 0 -269 38t-209.5 123t-135.5 222t-48 334v156q0 198 48.5 334.5t136 221.5t209 122.5t268.5 37.5t269 -37.5t209.5 -122.5t136 -221.5t48.5 -334.5v-156zM1049 838q0 119 -19 199.5t-55.5 129t-90 69.5
t-122.5 21q-68 0 -120.5 -21t-89.5 -69.5t-56 -129t-19 -199.5v-154q0 -122 19.5 -203t56 -129.5t89.5 -69t120 -20.5t120.5 20.5t90.5 69t56.5 129.5t19.5 203v154zM344 1656v205h838v-205h-838z" />
    <glyph glyph-name="omacron" unicode="&#x14d;" horiz-adv-x="1315" 
d="M1219 518q0 -144 -37.5 -247.5t-109.5 -170.5t-177 -99t-240 -32q-133 0 -237 32t-175.5 99t-109 170.5t-37.5 247.5v129q0 144 37.5 248.5t109 171.5t175.5 99t237 32q135 0 240 -32t177 -99t109.5 -171.5t37.5 -248.5v-129zM862 647q0 78 -12 131t-37 86t-64 47.5
t-94 14.5q-54 0 -92.5 -14.5t-63 -47.5t-36.5 -86t-12 -131v-129q0 -78 12 -131t36.5 -85.5t63 -47t92.5 -14.5q55 0 94 14.5t64 47t37 85.5t12 131v129zM237 1337v203h838v-203h-838z" />
    <glyph glyph-name="Obreve" unicode="&#x14e;" horiz-adv-x="1526" 
d="M1425 682q0 -197 -48 -334t-135.5 -222t-209.5 -123t-270 -38q-147 0 -269 38t-209.5 123t-135.5 222t-48 334v156q0 198 48.5 334.5t136 221.5t209 122.5t268.5 37.5t269 -37.5t209.5 -122.5t136 -221.5t48.5 -334.5v-156zM1049 838q0 119 -19 199.5t-55.5 129t-90 69.5
t-122.5 21q-68 0 -120.5 -21t-89.5 -69.5t-56 -129t-19 -199.5v-154q0 -122 19.5 -203t56 -129.5t89.5 -69t120 -20.5t120.5 20.5t90.5 69t56.5 129.5t19.5 203v154zM1188 1931q-10 -88 -48.5 -150t-96.5 -101t-130.5 -57t-150.5 -18q-77 0 -149 18t-130 57t-96.5 101
t-48.5 150h207q6 -46 25 -76.5t47.5 -48.5t65.5 -25.5t79 -7.5q44 0 81.5 7.5t66 25.5t47.5 48.5t26 76.5h205z" />
    <glyph glyph-name="obreve" unicode="&#x14f;" horiz-adv-x="1315" 
d="M1219 518q0 -144 -37.5 -247.5t-109.5 -170.5t-177 -99t-240 -32q-133 0 -237 32t-175.5 99t-109 170.5t-37.5 247.5v129q0 144 37.5 248.5t109 171.5t175.5 99t237 32q135 0 240 -32t177 -99t109.5 -171.5t37.5 -248.5v-129zM862 647q0 78 -12 131t-37 86t-64 47.5
t-94 14.5q-54 0 -92.5 -14.5t-63 -47.5t-36.5 -86t-12 -131v-129q0 -78 12 -131t36.5 -85.5t63 -47t92.5 -14.5q55 0 94 14.5t64 47t37 85.5t12 131v129zM1081 1614q-10 -88 -48.5 -150t-96.5 -101t-130.5 -57t-150.5 -18q-77 0 -149 18t-130 57t-96.5 101t-48.5 150h207
q6 -46 25 -76.5t47.5 -48.5t65.5 -25.5t79 -7.5q44 0 81.5 7.5t66 25.5t47.5 48.5t26 76.5h205z" />
    <glyph glyph-name="Ohungarumlaut" unicode="&#x150;" horiz-adv-x="1526" 
d="M1425 682q0 -197 -48 -334t-135.5 -222t-209.5 -123t-270 -38q-147 0 -269 38t-209.5 123t-135.5 222t-48 334v156q0 198 48.5 334.5t136 221.5t209 122.5t268.5 37.5t269 -37.5t209.5 -122.5t136 -221.5t48.5 -334.5v-156zM1049 838q0 119 -19 199.5t-55.5 129t-90 69.5
t-122.5 21q-68 0 -120.5 -21t-89.5 -69.5t-56 -129t-19 -199.5v-154q0 -122 19.5 -203t56 -129.5t89.5 -69t120 -20.5t120.5 20.5t90.5 69t56.5 129.5t19.5 203v154zM1173 1614h-307l271 299h378zM612 1614h-307l270 299h377z" />
    <glyph glyph-name="ohungarumlaut" unicode="&#x151;" horiz-adv-x="1315" 
d="M1219 518q0 -144 -37.5 -247.5t-109.5 -170.5t-177 -99t-240 -32q-133 0 -237 32t-175.5 99t-109 170.5t-37.5 247.5v129q0 144 37.5 248.5t109 171.5t175.5 99t237 32q135 0 240 -32t177 -99t109.5 -171.5t37.5 -248.5v-129zM862 647q0 78 -12 131t-37 86t-64 47.5
t-94 14.5q-54 0 -92.5 -14.5t-63 -47.5t-36.5 -86t-12 -131v-129q0 -78 12 -131t36.5 -85.5t63 -47t92.5 -14.5q55 0 94 14.5t64 47t37 85.5t12 131v129zM1095 1292h-307l271 299h378zM534 1292h-307l270 299h377z" />
    <glyph glyph-name="OE" unicode="&#x152;" horiz-adv-x="2081" 
d="M1081 0q-83 -14 -164 -24.5t-172 -10.5q-94 0 -179 16t-157.5 51t-130.5 90.5t-99 134.5t-63 183.5t-22 237.5v162q0 198 48.5 334.5t135 220.5t206 121.5t261.5 37.5q85 0 169.5 -9t164.5 -23h908v-279h-654v-332h609v-264h-609v-371h654v-276h-906zM956 1243
q-29 4 -53 6.5t-46.5 4t-44.5 2.5t-46 1q-72 0 -127 -20.5t-92.5 -68.5t-56.5 -128t-19 -200v-162q0 -119 19.5 -199.5t57.5 -129t92.5 -69t125.5 -20.5q24 0 44 0.5t41 2t46 4t59 7.5v969z" />
    <glyph glyph-name="oe" unicode="&#x153;" horiz-adv-x="2077" 
d="M1925 18q-34 -8 -84.5 -16.5t-112.5 -15.5t-132.5 -11t-143.5 -4q-151 0 -252.5 33t-161.5 90q-68 -62 -163 -93.5t-222 -31.5q-133 0 -237 32t-175.5 99t-109 170.5t-37.5 247.5v129q0 144 37.5 248.5t109 171.5t175.5 99t237 32q257 0 387 -127q65 63 162.5 95
t222.5 32q109 0 193 -22.5t146 -62.5t103.5 -95t67 -120t36.5 -137t11 -147v-127h-765v-16q0 -57 6.5 -103t33.5 -78t81 -49.5t149 -17.5q51 0 109 1.5t116 4.5t113 7t100 10v-228zM1634 698q0 48 -7 93t-29.5 79.5t-63.5 55t-109 20.5q-66 0 -106.5 -20t-63 -52.5
t-30 -73.5t-8.5 -83v-35h417v16zM860 647q0 78 -12 131.5t-37 86.5t-64 48t-94 15q-54 0 -92.5 -15t-63 -48t-36.5 -86.5t-12 -131.5v-129q0 -78 12 -131t36.5 -85.5t63 -47t92.5 -14.5q55 0 94 14.5t64 47t37 85.5t12 131v129z" />
    <glyph glyph-name="Racute" unicode="&#x154;" horiz-adv-x="1470" 
d="M1059 0l-311 543h-230v-543h-368v1522q113 6 231.5 12t259.5 6q144 0 272 -18t225 -71t153.5 -149.5t56.5 -252.5v-15q0 -84 -16.5 -150t-48 -116.5t-76 -88t-101.5 -65.5l340 -614h-387zM977 1042q0 64 -19 105.5t-58.5 64.5t-100.5 32t-146 9h-67.5t-67.5 -2v-442h139
q85 0 146 11t99.5 36.5t56.5 67.5t18 104v14zM834 1616h-334l270 299h406z" />
    <glyph glyph-name="racute" unicode="&#x155;" horiz-adv-x="891" 
d="M139 0v1167h332v-96q43 39 90.5 64t97 39t99.5 19t98 5v-299q-48 0 -97.5 -4t-96.5 -11t-89.5 -16.5t-76.5 -21.5v-846h-357zM649 1292h-334l270 299h406z" />
    <glyph glyph-name="Rcommaaccent" unicode="&#x156;" horiz-adv-x="1470" 
d="M1059 0l-311 543h-230v-543h-368v1522q113 6 231.5 12t259.5 6q144 0 272 -18t225 -71t153.5 -149.5t56.5 -252.5v-15q0 -84 -16.5 -150t-48 -116.5t-76 -88t-101.5 -65.5l340 -614h-387zM977 1042q0 64 -19 105.5t-58.5 64.5t-100.5 32t-146 9h-67.5t-67.5 -2v-442h139
q85 0 146 11t99.5 36.5t56.5 67.5t18 104v14zM459 -416l137 287h369l-195 -287h-311z" />
    <glyph glyph-name="rcommaaccent" unicode="&#x157;" horiz-adv-x="891" 
d="M139 0v1167h332v-96q43 39 90.5 64t97 39t99.5 19t98 5v-299q-48 0 -97.5 -4t-96.5 -11t-89.5 -16.5t-76.5 -21.5v-846h-357zM132 -416l137 287h369l-195 -287h-311z" />
    <glyph glyph-name="Rcaron" unicode="&#x158;" horiz-adv-x="1470" 
d="M1059 0l-311 543h-230v-543h-368v1522q113 6 231.5 12t259.5 6q144 0 272 -18t225 -71t153.5 -149.5t56.5 -252.5v-15q0 -84 -16.5 -150t-48 -116.5t-76 -88t-101.5 -65.5l340 -614h-387zM977 1042q0 64 -19 105.5t-58.5 64.5t-100.5 32t-146 9h-67.5t-67.5 -2v-442h139
q85 0 146 11t99.5 36.5t56.5 67.5t18 104v14zM514 1614l-276 299h313l176 -168l178 168h312l-277 -299h-426z" />
    <glyph glyph-name="rcaron" unicode="&#x159;" horiz-adv-x="891" 
d="M139 0v1167h332v-96q43 39 90.5 64t97 39t99.5 19t98 5v-299q-48 0 -97.5 -4t-96.5 -11t-89.5 -16.5t-76.5 -21.5v-846h-357zM273 1292l-276 299h313l176 -168l178 168h312l-277 -299h-426z" />
    <glyph glyph-name="Sacute" unicode="&#x15a;" horiz-adv-x="1323" 
d="M133 264q49 -4 101 -8t109.5 -7.5t122 -6t138.5 -2.5q129 0 186.5 40t57.5 126q0 32 -8 56t-28.5 44t-55 39.5t-88.5 42.5l-222 94q-81 34 -146.5 74t-111 92.5t-70 122t-24.5 164.5q0 113 38.5 192.5t114 130t186.5 73.5t255 23q76 0 145.5 -5t129.5 -12.5t108 -16.5
t82 -17v-246q-53 5 -105 9.5t-106 8t-111.5 5.5t-121.5 2q-118 0 -178 -28.5t-60 -106.5q0 -29 7.5 -50.5t26.5 -40t52.5 -36.5t85.5 -39l215 -88q95 -39 165.5 -83t116.5 -99t68.5 -124t22.5 -159q0 -118 -39.5 -205t-114.5 -144.5t-183.5 -85.5t-246.5 -28q-76 0 -152 4.5
t-144.5 11t-124.5 15.5t-93 18v250zM778 1616h-334l270 299h406z" />
    <glyph glyph-name="sacute" unicode="&#x15b;" horiz-adv-x="1112" 
d="M104 233q19 -1 61.5 -4.5t98 -7.5t118 -7t122.5 -3q54 0 90 6.5t58.5 19t32 32t9.5 46.5q0 26 -8 43.5t-29 32t-56.5 29t-90.5 35.5l-94 34q-81 31 -143 67t-103.5 81t-62.5 101t-21 128q0 96 33 160t95.5 102t151.5 54t201 16q64 0 126.5 -4t117 -11t98.5 -15t72 -17
v-223q-105 9 -196.5 14.5t-184.5 5.5q-43 0 -75.5 -1.5t-54 -9t-32 -22.5t-10.5 -41q0 -23 7.5 -38.5t26 -28t49.5 -25t77 -30.5l102 -37q97 -35 164 -72t107.5 -81t58.5 -97.5t18 -122.5q0 -188 -126 -279.5t-390 -91.5q-62 0 -125.5 4.5t-120.5 11t-102 14.5t-70 15v217z
M709 1292h-334l270 299h406z" />
    <glyph glyph-name="Scircumflex" unicode="&#x15c;" horiz-adv-x="1323" 
d="M133 264q49 -4 101 -8t109.5 -7.5t122 -6t138.5 -2.5q129 0 186.5 40t57.5 126q0 32 -8 56t-28.5 44t-55 39.5t-88.5 42.5l-222 94q-81 34 -146.5 74t-111 92.5t-70 122t-24.5 164.5q0 113 38.5 192.5t114 130t186.5 73.5t255 23q76 0 145.5 -5t129.5 -12.5t108 -16.5
t82 -17v-246q-53 5 -105 9.5t-106 8t-111.5 5.5t-121.5 2q-118 0 -178 -28.5t-60 -106.5q0 -29 7.5 -50.5t26.5 -40t52.5 -36.5t85.5 -39l215 -88q95 -39 165.5 -83t116.5 -99t68.5 -124t22.5 -159q0 -118 -39.5 -205t-114.5 -144.5t-183.5 -85.5t-246.5 -28q-76 0 -152 4.5
t-144.5 11t-124.5 15.5t-93 18v250zM829 1616l-178 168l-176 -168h-313l276 299h426l277 -299h-312z" />
    <glyph glyph-name="scircumflex" unicode="&#x15d;" horiz-adv-x="1112" 
d="M104 233q19 -1 61.5 -4.5t98 -7.5t118 -7t122.5 -3q54 0 90 6.5t58.5 19t32 32t9.5 46.5q0 26 -8 43.5t-29 32t-56.5 29t-90.5 35.5l-94 34q-81 31 -143 67t-103.5 81t-62.5 101t-21 128q0 96 33 160t95.5 102t151.5 54t201 16q64 0 126.5 -4t117 -11t98.5 -15t72 -17
v-223q-105 9 -196.5 14.5t-184.5 5.5q-43 0 -75.5 -1.5t-54 -9t-32 -22.5t-10.5 -41q0 -23 7.5 -38.5t26 -28t49.5 -25t77 -30.5l102 -37q97 -35 164 -72t107.5 -81t58.5 -97.5t18 -122.5q0 -188 -126 -279.5t-390 -91.5q-62 0 -125.5 4.5t-120.5 11t-102 14.5t-70 15v217z
M732 1292l-178 168l-176 -168h-313l276 299h426l277 -299h-312z" />
    <glyph glyph-name="Scedilla" unicode="&#x15e;" horiz-adv-x="1323" 
d="M133 264q49 -4 101 -8t109.5 -7.5t122 -6t138.5 -2.5q129 0 186.5 40t57.5 126q0 32 -8 56t-28.5 44t-55 39.5t-88.5 42.5l-222 94q-81 34 -146.5 74t-111 92.5t-70 122t-24.5 164.5q0 113 38.5 192.5t114 130t186.5 73.5t255 23q76 0 145.5 -5t129.5 -12.5t108 -16.5
t82 -17v-246q-53 5 -105 9.5t-106 8t-111.5 5.5t-121.5 2q-118 0 -178 -28.5t-60 -106.5q0 -29 7.5 -50.5t26.5 -40t52.5 -36.5t85.5 -39l215 -88q95 -39 165.5 -83t116.5 -99t68.5 -124t22.5 -159q0 -118 -39.5 -205t-114.5 -144.5t-183.5 -85.5t-246.5 -28q-76 0 -152 4.5
t-144.5 11t-124.5 15.5t-93 18v250zM312 -416l215 287h379l-269 -287h-325z" />
    <glyph glyph-name="scedilla" unicode="&#x15f;" horiz-adv-x="1112" 
d="M104 233q19 -1 61.5 -4.5t98 -7.5t118 -7t122.5 -3q54 0 90 6.5t58.5 19t32 32t9.5 46.5q0 26 -8 43.5t-29 32t-56.5 29t-90.5 35.5l-94 34q-81 31 -143 67t-103.5 81t-62.5 101t-21 128q0 96 33 160t95.5 102t151.5 54t201 16q64 0 126.5 -4t117 -11t98.5 -15t72 -17
v-223q-105 9 -196.5 14.5t-184.5 5.5q-43 0 -75.5 -1.5t-54 -9t-32 -22.5t-10.5 -41q0 -23 7.5 -38.5t26 -28t49.5 -25t77 -30.5l102 -37q97 -35 164 -72t107.5 -81t58.5 -97.5t18 -122.5q0 -188 -126 -279.5t-390 -91.5q-62 0 -125.5 4.5t-120.5 11t-102 14.5t-70 15v217z
M193 -416l215 287h379l-269 -287h-325z" />
    <glyph glyph-name="Scaron" unicode="&#x160;" horiz-adv-x="1323" 
d="M133 264q49 -4 101 -8t109.5 -7.5t122 -6t138.5 -2.5q129 0 186.5 40t57.5 126q0 32 -8 56t-28.5 44t-55 39.5t-88.5 42.5l-222 94q-81 34 -146.5 74t-111 92.5t-70 122t-24.5 164.5q0 113 38.5 192.5t114 130t186.5 73.5t255 23q76 0 145.5 -5t129.5 -12.5t108 -16.5
t82 -17v-246q-53 5 -105 9.5t-106 8t-111.5 5.5t-121.5 2q-118 0 -178 -28.5t-60 -106.5q0 -29 7.5 -50.5t26.5 -40t52.5 -36.5t85.5 -39l215 -88q95 -39 165.5 -83t116.5 -99t68.5 -124t22.5 -159q0 -118 -39.5 -205t-114.5 -144.5t-183.5 -85.5t-246.5 -28q-76 0 -152 4.5
t-144.5 11t-124.5 15.5t-93 18v250zM448 1614l-276 299h313l176 -168l178 168h312l-277 -299h-426z" />
    <glyph glyph-name="scaron" unicode="&#x161;" horiz-adv-x="1112" 
d="M104 233q19 -1 61.5 -4.5t98 -7.5t118 -7t122.5 -3q54 0 90 6.5t58.5 19t32 32t9.5 46.5q0 26 -8 43.5t-29 32t-56.5 29t-90.5 35.5l-94 34q-81 31 -143 67t-103.5 81t-62.5 101t-21 128q0 96 33 160t95.5 102t151.5 54t201 16q64 0 126.5 -4t117 -11t98.5 -15t72 -17
v-223q-105 9 -196.5 14.5t-184.5 5.5q-43 0 -75.5 -1.5t-54 -9t-32 -22.5t-10.5 -41q0 -23 7.5 -38.5t26 -28t49.5 -25t77 -30.5l102 -37q97 -35 164 -72t107.5 -81t58.5 -97.5t18 -122.5q0 -188 -126 -279.5t-390 -91.5q-62 0 -125.5 4.5t-120.5 11t-102 14.5t-70 15v217z
M348 1292l-276 299h313l176 -168l178 168h312l-277 -299h-426z" />
    <glyph glyph-name="Tcedilla" unicode="&#x162;" horiz-adv-x="1372" 
d="M494 0v1243h-441v279h1266v-279h-440v-1243h-385zM381 -416l137 287h369l-195 -287h-311z" />
    <glyph glyph-name="tcedilla" unicode="&#x163;" horiz-adv-x="926" 
d="M225 -416l137 287h369l-195 -287h-311zM862 2q-12 -3 -37 -8.5t-60 -11t-76.5 -9.5t-86.5 -4q-93 0 -160.5 19.5t-111 62t-64 110.5t-20.5 165v587l-203 19v235h203v295h356v-295h262v-254h-262v-583q0 -36 2.5 -59t12 -36t28.5 -17.5t53 -4.5q21 0 45.5 0.5t47 2
t41.5 2.5t30 3v-219z" />
    <glyph glyph-name="Tcaron" unicode="&#x164;" horiz-adv-x="1372" 
d="M494 0v1243h-441v279h1266v-279h-440v-1243h-385zM473 1614l-276 299h313l176 -168l178 168h312l-277 -299h-426z" />
    <glyph glyph-name="tcaron" unicode="&#x165;" horiz-adv-x="993" 
d="M862 2q-12 -3 -37 -8.5t-60 -11t-76.5 -9.5t-86.5 -4q-93 0 -160.5 19.5t-111 62t-64 110.5t-20.5 165v587l-203 19v235h203v295h356v-295h262v-254h-262v-583q0 -36 2.5 -59t12 -36t28.5 -17.5t53 -4.5q21 0 45.5 0.5t47 2t41.5 2.5t30 3v-219zM901 1270h-205l68 325
h274z" />
    <glyph glyph-name="Tbar" unicode="&#x166;" horiz-adv-x="1372" 
d="M494 0v717h-381v227h381v299h-441v279h1266v-279h-440v-299h383v-227h-383v-717h-385z" />
    <glyph glyph-name="tbar" unicode="&#x167;" horiz-adv-x="926" 
d="M862 2q-11 -3 -35.5 -8t-59.5 -10.5t-77.5 -9t-87.5 -3.5q-93 0 -160 19t-110 61.5t-63.5 110t-20.5 164.5v266l-203 12v207h203v139l-203 11v206h203v285h356v-285h260v-217h-260v-139h260v-219h-260v-262q0 -38 2.5 -61.5t12 -37t28.5 -18t53 -4.5q41 0 86 2t76 4v-213
z" />
    <glyph glyph-name="Utilde" unicode="&#x168;" horiz-adv-x="1563" 
d="M1049 1522h374v-906q0 -164 -43 -286.5t-124.5 -203.5t-201 -121t-272.5 -40t-272.5 40t-202 121t-125.5 203.5t-43 286.5v906h379v-895q0 -102 12 -173t42 -115.5t81 -64.5t129 -20t129 20t82 64.5t43.5 115.5t12.5 173v895zM1249 1891q0 -78 -18 -132t-50.5 -88
t-77 -49.5t-97.5 -15.5q-48 0 -99 13.5t-116 48.5l-97 53q-34 20 -59 31.5t-51 11.5q-37 0 -50.5 -25.5t-13.5 -73.5v-49h-200v49q0 78 19 132t52 88t78.5 49.5t99.5 15.5q26 0 49.5 -3t47 -9.5t49 -18t57.5 -28.5l98 -53q33 -19 59.5 -31t57.5 -12q37 0 49.5 23t12.5 73v49
h200v-49z" />
    <glyph glyph-name="utilde" unicode="&#x169;" 
d="M903 0v94q-93 -54 -193.5 -89.5t-215.5 -35.5q-120 0 -191 38.5t-107.5 102.5t-47.5 147t-11 171v739h357v-739q0 -53 5.5 -89t21 -58.5t42.5 -32.5t70 -10q51 0 114 18t136 47v864h356v-1167h-336zM1155 1569q0 -78 -18 -132t-50.5 -88t-77 -49.5t-97.5 -15.5
q-48 0 -99 13.5t-116 48.5l-97 53q-34 20 -59 31.5t-51 11.5q-37 0 -50.5 -25.5t-13.5 -73.5v-49h-200v49q0 78 19 132t52 88t78.5 49.5t99.5 15.5q26 0 49.5 -3t47 -9.5t49 -18t57.5 -28.5l98 -53q33 -19 59.5 -31t57.5 -12q37 0 49.5 23t12.5 73v49h200v-49z" />
    <glyph glyph-name="Umacron" unicode="&#x16a;" horiz-adv-x="1563" 
d="M1049 1522h374v-906q0 -164 -43 -286.5t-124.5 -203.5t-201 -121t-272.5 -40t-272.5 40t-202 121t-125.5 203.5t-43 286.5v906h379v-895q0 -102 12 -173t42 -115.5t81 -64.5t129 -20t129 20t82 64.5t43.5 115.5t12.5 173v895zM364 1656v205h838v-205h-838z" />
    <glyph glyph-name="umacron" unicode="&#x16b;" 
d="M903 0v94q-93 -54 -193.5 -89.5t-215.5 -35.5q-120 0 -191 38.5t-107.5 102.5t-47.5 147t-11 171v739h357v-739q0 -53 5.5 -89t21 -58.5t42.5 -32.5t70 -10q51 0 114 18t136 47v864h356v-1167h-336zM272 1337v203h838v-203h-838z" />
    <glyph glyph-name="Ubreve" unicode="&#x16c;" horiz-adv-x="1563" 
d="M1049 1522h374v-906q0 -164 -43 -286.5t-124.5 -203.5t-201 -121t-272.5 -40t-272.5 40t-202 121t-125.5 203.5t-43 286.5v906h379v-895q0 -102 12 -173t42 -115.5t81 -64.5t129 -20t129 20t82 64.5t43.5 115.5t12.5 173v895zM1206 1921q-10 -88 -48.5 -150t-96.5 -101
t-130.5 -57t-150.5 -18q-77 0 -149 18t-130 57t-96.5 101t-48.5 150h207q6 -46 25 -76.5t47.5 -48.5t65.5 -25.5t79 -7.5q44 0 81.5 7.5t66 25.5t47.5 48.5t26 76.5h205z" />
    <glyph glyph-name="ubreve" unicode="&#x16d;" 
d="M903 0v94q-93 -54 -193.5 -89.5t-215.5 -35.5q-120 0 -191 38.5t-107.5 102.5t-47.5 147t-11 171v739h357v-739q0 -53 5.5 -89t21 -58.5t42.5 -32.5t70 -10q51 0 114 18t136 47v864h356v-1167h-336zM1116 1614q-10 -88 -48.5 -150t-96.5 -101t-130.5 -57t-150.5 -18
q-77 0 -149 18t-130 57t-96.5 101t-48.5 150h207q6 -46 25 -76.5t47.5 -48.5t65.5 -25.5t79 -7.5q44 0 81.5 7.5t66 25.5t47.5 48.5t26 76.5h205z" />
    <glyph glyph-name="Uring" unicode="&#x16e;" horiz-adv-x="1563" 
d="M1049 1522h374v-906q0 -164 -43 -286.5t-124.5 -203.5t-201 -121t-272.5 -40t-272.5 40t-202 121t-125.5 203.5t-43 286.5v906h379v-895q0 -102 12 -173t42 -115.5t81 -64.5t129 -20t129 20t82 64.5t43.5 115.5t12.5 173v895zM785 1586q-63 0 -117 16t-93.5 47t-62 77.5
t-22.5 106.5q0 61 22.5 108t62 78.5t93.5 47.5t117 16q62 0 115 -16t91.5 -47.5t60.5 -78.5t22 -108q0 -60 -22 -106.5t-60.5 -77.5t-91.5 -47t-115 -16zM785 1934q-51 0 -83 -23t-32 -76q0 -52 32 -75t83 -23q48 0 80 23t32 75t-32.5 75.5t-79.5 23.5z" />
    <glyph glyph-name="uring" unicode="&#x16f;" 
d="M903 0v94q-93 -54 -193.5 -89.5t-215.5 -35.5q-120 0 -191 38.5t-107.5 102.5t-47.5 147t-11 171v739h357v-739q0 -53 5.5 -89t21 -58.5t42.5 -32.5t70 -10q51 0 114 18t136 47v864h356v-1167h-336zM697 1264q-63 0 -117 16t-93.5 47t-62 77.5t-22.5 106.5q0 61 22.5 108
t62 78.5t93.5 47.5t117 16q62 0 115 -16t91.5 -47.5t60.5 -78.5t22 -108q0 -60 -22 -106.5t-60.5 -77.5t-91.5 -47t-115 -16zM697 1612q-51 0 -83 -23t-32 -76q0 -52 32 -75t83 -23q48 0 80 23t32 75t-32.5 75.5t-79.5 23.5z" />
    <glyph glyph-name="Uhungarumlaut" unicode="&#x170;" horiz-adv-x="1563" 
d="M1049 1522h374v-906q0 -164 -43 -286.5t-124.5 -203.5t-201 -121t-272.5 -40t-272.5 40t-202 121t-125.5 203.5t-43 286.5v906h379v-895q0 -102 12 -173t42 -115.5t81 -64.5t129 -20t129 20t82 64.5t43.5 115.5t12.5 173v895zM1194 1616h-307l271 299h378zM633 1616h-307
l270 299h377z" />
    <glyph glyph-name="uhungarumlaut" unicode="&#x171;" 
d="M903 0v94q-93 -54 -193.5 -89.5t-215.5 -35.5q-120 0 -191 38.5t-107.5 102.5t-47.5 147t-11 171v739h357v-739q0 -53 5.5 -89t21 -58.5t42.5 -32.5t70 -10q51 0 114 18t136 47v864h356v-1167h-336zM1097 1292h-307l271 299h378zM536 1292h-307l270 299h377z" />
    <glyph glyph-name="Uogonek" unicode="&#x172;" horiz-adv-x="1563" 
d="M1071 -410q-18 -5 -46 -11t-63.5 -11t-78 -8.5t-88.5 -3.5q-150 0 -230 50t-80 152q0 57 38 114t116 103q-240 34 -370 193t-130 448v906h379v-895q0 -102 12 -173t42 -115.5t81 -64.5t129 -20t129 20t82 64.5t43.5 115.5t12.5 173v895h374v-906q0 -270 -113.5 -426.5
t-324.5 -203.5q-61 -26 -99 -50t-59 -45.5t-28.5 -39.5t-7.5 -33q0 -35 24 -53.5t84 -18.5q45 0 88.5 3.5t83.5 6.5v-166z" />
    <glyph glyph-name="uogonek" unicode="&#x173;" 
d="M1239 -410q-18 -5 -46 -11t-64 -11t-78 -8.5t-88 -3.5q-149 0 -228.5 50t-79.5 152q0 34 16 69.5t47.5 68.5t78 62.5t106.5 53.5v82q-93 -54 -193.5 -89.5t-215.5 -35.5q-120 0 -191 38.5t-107.5 102.5t-47.5 147t-11 171v739h357v-739q0 -53 5.5 -89t21 -58.5
t42.5 -32.5t70 -10q51 0 114 18t136 47v864h356v-1167q-88 -32 -143 -58.5t-85.5 -48t-41.5 -40t-11 -35.5q0 -35 24.5 -53.5t86.5 -18.5q43 0 86.5 3.5t83.5 6.5v-166z" />
    <glyph glyph-name="Wcircumflex" unicode="&#x174;" horiz-adv-x="2038" 
d="M1243 0l-178 723q-12 51 -23 106t-20 103h-6q-9 -48 -20 -103t-23 -106l-176 -723h-467l-254 1522h381l125 -832q11 -74 19.5 -149.5t16.5 -141.5h9q15 68 29.5 137t29.5 134l137 565h396l137 -569q15 -63 30 -132t29 -135h8q7 68 15.5 140.5t19.5 150.5l127 832h377
l-254 -1522h-465zM1198 1616l-178 168l-176 -168h-313l276 299h426l277 -299h-312z" />
    <glyph glyph-name="wcircumflex" unicode="&#x175;" horiz-adv-x="1917" 
d="M1174 0l-156 500q-20 66 -33.5 122.5t-21.5 110.5h-9q-8 -54 -21.5 -110.5t-35.5 -122.5l-156 -500h-438l-246 1167h361l106 -577q14 -79 24 -149t13 -130h8q16 63 33 135.5t39 143.5l129 407h377l129 -407q23 -71 40 -143.5t34 -135.5h8q3 60 11 130t24 151l106 575h361
l-246 -1167h-440zM1136 1292l-178 168l-176 -168h-313l276 299h426l277 -299h-312z" />
    <glyph glyph-name="Ycircumflex" unicode="&#x176;" horiz-adv-x="1446" 
d="M537 0v549l-508 973h391l205 -404q24 -52 50 -114t46 -119h10q19 57 47.5 119t52.5 114l205 404h381l-508 -973v-549h-372zM905 1616l-178 168l-176 -168h-313l276 299h426l277 -299h-312z" />
    <glyph glyph-name="ycircumflex" unicode="&#x177;" horiz-adv-x="1305" 
d="M848 1292l-178 168l-176 -168h-313l276 299h426l277 -299h-312zM471 12l-424 1155h383l172 -600q22 -74 37 -151t37 -158q15 81 31 157t36 154l156 598h363l-371 -1175q-37 -116 -79 -198t-98 -134.5t-131.5 -77t-179.5 -24.5q-96 0 -182.5 7t-146.5 19v228
q37 -2 66.5 -3t54.5 -1.5t49 -0.5h51q32 0 56.5 7t43 23.5t32.5 43.5t26 68z" />
    <glyph glyph-name="Ydieresis" unicode="&#x178;" horiz-adv-x="1446" 
d="M537 0v549l-508 973h391l205 -404q24 -52 50 -114t46 -119h10q19 57 47.5 119t52.5 114l205 404h381l-508 -973v-549h-372zM844 1638v260h285v-260h-285zM322 1638v260h286v-260h-286z" />
    <glyph glyph-name="Zacute" unicode="&#x179;" horiz-adv-x="1348" 
d="M104 0v291l678 946h-659v285h1102v-295l-676 -942h694v-285h-1139zM832 1616h-334l270 299h406z" />
    <glyph glyph-name="zacute" unicode="&#x17a;" horiz-adv-x="1122" 
d="M82 0v262l551 649h-533v256h932v-266l-547 -649h549v-252h-952zM731 1292h-334l270 299h406z" />
    <glyph glyph-name="Zdotaccent" unicode="&#x17b;" horiz-adv-x="1348" 
d="M104 0v291l678 946h-659v285h1102v-295l-676 -942h694v-285h-1139zM490 1638v260h369v-260h-369z" />
    <glyph glyph-name="zdotaccent" unicode="&#x17c;" horiz-adv-x="1122" 
d="M82 0v262l551 649h-533v256h932v-266l-547 -649h549v-252h-952zM402 1333v260h369v-260h-369z" />
    <glyph glyph-name="Zcaron" unicode="&#x17d;" horiz-adv-x="1348" 
d="M104 0v291l678 946h-659v285h1102v-295l-676 -942h694v-285h-1139zM485 1616l-276 299h313l176 -168l178 168h312l-277 -299h-426z" />
    <glyph glyph-name="zcaron" unicode="&#x17e;" horiz-adv-x="1122" 
d="M82 0v262l551 649h-533v256h932v-266l-547 -649h549v-252h-952zM381 1292l-276 299h313l176 -168l178 168h312l-277 -299h-426z" />
    <glyph glyph-name="florin" unicode="&#x192;" horiz-adv-x="1356" 
d="M864 680l-88 -660q-14 -104 -49 -171.5t-87.5 -107t-119.5 -55.5t-145 -16q-90 0 -157 10t-118 21l27 205q50 -3 83.5 -4.5t68.5 -1.5q30 0 53.5 3.5t40.5 17t28.5 39.5t18.5 71l88 649h-270l32 246h271l39 276q13 105 48.5 173t88.5 107.5t121.5 55.5t148.5 16
q84 0 151.5 -10t116.5 -22l-24 -203q-54 3 -86.5 4.5t-61.5 1.5q-35 0 -60 -4.5t-42 -18.5t-28 -40t-17 -70l-37 -266h301l-31 -246h-305z" />
    <glyph glyph-name="Aringacute" unicode="&#x1fa;" horiz-adv-x="1532" 
d="M1087 0l-108 383h-432l-111 -383h-393l424 1522h594l428 -1522h-402zM817 1061q-14 56 -26 115.5t-21 117.5h-14q-10 -58 -21 -117.5t-26 -115.5l-109 -404h328zM1057 1806q0 -60 -22 -106.5t-60.5 -77.5t-91.5 -47t-115 -16q-63 0 -117 16t-93.5 47t-62 77.5
t-22.5 106.5q0 61 22.5 108t62 78.5t93.5 47.5t117 16q62 0 115 -16t91.5 -47.5t60.5 -78.5t22 -108zM881 1808q0 53 -31.5 76t-81.5 23t-82.5 -23t-32.5 -76q0 -52 32 -76t83 -24q50 0 81.5 24t31.5 76zM909 2089h-331l268 299h405z" />
    <glyph glyph-name="aringacute" unicode="&#x1fb;" horiz-adv-x="1247" 
d="M795 0v76q-29 -19 -67.5 -38t-86 -34.5t-101.5 -25t-112 -9.5q-167 0 -254.5 83.5t-87.5 250.5v47q0 117 42.5 186t118 105t180 46.5t228.5 10.5h109v64q0 54 -7.5 87.5t-31 52t-65.5 25.5t-111 7q-39 0 -84.5 -1t-94 -3.5t-99 -6.5t-99.5 -10v213q25 9 70.5 21.5
t105.5 24t130.5 19t144.5 7.5q136 0 231 -23.5t154 -75.5t85.5 -135t26.5 -202v-762h-325zM776 514h-119q-60 0 -104 -5t-72 -21t-41.5 -46t-13.5 -80v-47q0 -35 10 -57.5t27.5 -36t42 -19t53.5 -5.5q34 0 67.5 5.5t62.5 14t51.5 18t35.5 17.5v262zM645 1243q-63 0 -117 16
t-93.5 47.5t-62 77.5t-22.5 107t22.5 108.5t62 79t93.5 48t117 16.5q62 0 115 -16.5t91.5 -48t60.5 -79t22 -108.5t-22 -107t-60.5 -77.5t-91.5 -47.5t-115 -16zM645 1591q-51 0 -83 -22.5t-32 -75.5q0 -51 32 -74.5t83 -23.5q48 0 80.5 23.5t32.5 74.5q0 53 -32.5 75.5
t-80.5 22.5zM805 1774h-334l270 299h404z" />
    <glyph glyph-name="AEacute" unicode="&#x1fc;" horiz-adv-x="2111" 
d="M979 0v383h-399l-109 -383h-389l412 1522h1521v-279h-653v-332h610v-264h-610v-371h653v-276h-1036zM979 1290h-184q-14 -54 -26 -111.5t-26 -111.5l-110 -412h346v635zM1352 1616h-334l270 299h406z" />
    <glyph glyph-name="aeacute" unicode="&#x1fd;" horiz-adv-x="1972" 
d="M1829 18q-35 -8 -85.5 -16.5t-112.5 -15.5t-132 -11t-143 -4q-156 0 -269.5 32.5t-181.5 105.5q-57 -39 -112.5 -65.5t-113.5 -42.5t-120 -23t-131 -7q-167 0 -254.5 82.5t-87.5 249.5v47q0 117 42.5 186t118 105t180 46.5t228.5 10.5h109v64q0 51 -7 84t-29.5 52.5
t-64.5 27.5t-112 8q-84 0 -177.5 -4.5t-201.5 -14.5v211q25 9 70.5 21.5t105 24t130 19t145.5 7.5q73 0 128.5 -6t98 -18t74 -29t57.5 -39q63 43 147 66.5t199 23.5q109 0 192.5 -22.5t145.5 -62t104 -94.5t67.5 -119.5t36.5 -136.5t11 -147v-127h-766v-16q0 -57 7 -103
t34 -78t81 -49.5t149 -17.5q51 0 109.5 1.5t117 4.5t113.5 7t100 10v-228zM1536 698q0 48 -7 92.5t-29 78.5t-63.5 54.5t-109.5 20.5q-67 0 -107.5 -20.5t-62.5 -55t-29.5 -78.5t-7.5 -92v-16h416v16zM776 514h-119q-60 0 -104 -5t-72 -21t-41.5 -46t-13.5 -80v-47
q0 -35 9.5 -57.5t27 -36t42 -19t54.5 -5.5q34 0 67 5.5t61.5 14t51.5 18t37 17.5v262zM1151 1292h-334l270 299h406z" />
    <glyph glyph-name="Oslashacute" unicode="&#x1fe;" horiz-adv-x="1526" 
d="M1425 682q0 -197 -48 -334t-135.5 -222t-209.5 -123t-270 -38q-113 0 -210 22t-177 68l-41 -55h-281l160 211q-54 85 -83.5 200.5t-29.5 270.5v156q0 198 48.5 334.5t136 221.5t209 122.5t268.5 37.5q114 0 213.5 -22t179.5 -72l47 62h283l-168 -224q52 -83 80 -197
t28 -263v-156zM952 1190q-35 35 -82.5 51t-107.5 16q-68 0 -120.5 -21t-89.5 -69.5t-56 -129t-19 -199.5v-154q0 -65 6 -117zM1049 838q0 27 -1.5 52t-3.5 48l-466 -614q35 -34 81 -48t103 -14q67 0 120.5 20.5t90.5 69t56.5 129.5t19.5 203v154zM879 1616h-334l270 299h406
z" />
    <glyph glyph-name="oslashacute" unicode="&#x1ff;" horiz-adv-x="1315" 
d="M1219 518q0 -144 -37.5 -247.5t-109.5 -170.5t-177 -99t-240 -32q-103 0 -188.5 20t-153.5 58l-61 -78h-205l148 185q-48 65 -73.5 155t-25.5 209v129q0 144 37.5 248.5t109 171.5t175.5 99t237 32q99 0 181 -17t147 -53l57 70h205l-139 -170q56 -68 84.5 -162t28.5 -219
v-129zM862 647q0 20 -1 38.5t-3 35.5l-348 -432q25 -26 60.5 -37.5t84.5 -11.5q55 0 94 14.5t64 47t37 85.5t12 131v129zM788 887q-48 39 -133 39q-54 0 -92.5 -14.5t-63 -47.5t-36.5 -86t-12 -131v-178zM766 1292h-334l270 299h406z" />
    <glyph glyph-name="Scommaaccent" unicode="&#x218;" horiz-adv-x="1323" 
d="M133 264q49 -4 101 -8t109.5 -7.5t122 -6t138.5 -2.5q129 0 186.5 40t57.5 126q0 32 -8 56t-28.5 44t-55 39.5t-88.5 42.5l-222 94q-81 34 -146.5 74t-111 92.5t-70 122t-24.5 164.5q0 113 38.5 192.5t114 130t186.5 73.5t255 23q76 0 145.5 -5t129.5 -12.5t108 -16.5
t82 -17v-246q-53 5 -105 9.5t-106 8t-111.5 5.5t-121.5 2q-118 0 -178 -28.5t-60 -106.5q0 -29 7.5 -50.5t26.5 -40t52.5 -36.5t85.5 -39l215 -88q95 -39 165.5 -83t116.5 -99t68.5 -124t22.5 -159q0 -118 -39.5 -205t-114.5 -144.5t-183.5 -85.5t-246.5 -28q-76 0 -152 4.5
t-144.5 11t-124.5 15.5t-93 18v250zM379 -416l137 287h369l-195 -287h-311z" />
    <glyph glyph-name="scommaaccent" unicode="&#x219;" horiz-adv-x="1112" 
d="M104 233q19 -1 61.5 -4.5t98 -7.5t118 -7t122.5 -3q54 0 90 6.5t58.5 19t32 32t9.5 46.5q0 26 -8 43.5t-29 32t-56.5 29t-90.5 35.5l-94 34q-81 31 -143 67t-103.5 81t-62.5 101t-21 128q0 96 33 160t95.5 102t151.5 54t201 16q64 0 126.5 -4t117 -11t98.5 -15t72 -17
v-223q-105 9 -196.5 14.5t-184.5 5.5q-43 0 -75.5 -1.5t-54 -9t-32 -22.5t-10.5 -41q0 -23 7.5 -38.5t26 -28t49.5 -25t77 -30.5l102 -37q97 -35 164 -72t107.5 -81t58.5 -97.5t18 -122.5q0 -188 -126 -279.5t-390 -91.5q-62 0 -125.5 4.5t-120.5 11t-102 14.5t-70 15v217z
M241 -416l137 287h369l-195 -287h-311z" />
    <glyph glyph-name="Tcommaaccent" unicode="&#x21a;" horiz-adv-x="1372" 
d="M494 0v1243h-441v279h1266v-279h-440v-1243h-385zM381 -416l137 287h369l-195 -287h-311z" />
    <glyph glyph-name="tcommaaccent" unicode="&#x21b;" horiz-adv-x="926" 
d="M862 2q-12 -3 -37 -8.5t-60 -11t-76.5 -9.5t-86.5 -4q-93 0 -160.5 19.5t-111 62t-64 110.5t-20.5 165v587l-203 19v235h203v295h356v-295h262v-254h-262v-583q0 -36 2.5 -59t12 -36t28.5 -17.5t53 -4.5q21 0 45.5 0.5t47 2t41.5 2.5t30 3v-219zM225 -416l137 287h369
l-195 -287h-311z" />
    <glyph glyph-name="circumflex" unicode="&#x2c6;" horiz-adv-x="1116" 
d="M735 1292l-178 168l-176 -168h-313l276 299h426l277 -299h-312z" />
    <glyph glyph-name="caron" unicode="&#x2c7;" horiz-adv-x="1116" 
d="M344 1292l-276 299h313l176 -168l178 168h312l-277 -299h-426z" />
    <glyph glyph-name="uni02C9" unicode="&#x2c9;" horiz-adv-x="1030" 
d="M96 1337v203h838v-203h-838z" />
    <glyph glyph-name="breve" unicode="&#x2d8;" horiz-adv-x="1051" 
d="M950 1614q-10 -88 -48.5 -150t-96.5 -101t-130.5 -57t-150.5 -18q-77 0 -149 18t-130 57t-96.5 101t-48.5 150h207q6 -46 25 -76.5t47.5 -48.5t65.5 -25.5t79 -7.5q44 0 81.5 7.5t66 25.5t47.5 48.5t26 76.5h205z" />
    <glyph glyph-name="dotaccent" unicode="&#x2d9;" horiz-adv-x="872" 
d="M252 1333v260h369v-260h-369z" />
    <glyph glyph-name="ring" unicode="&#x2da;" horiz-adv-x="911" 
d="M459 1264q-63 0 -117 16t-93.5 47t-62 77.5t-22.5 106.5q0 61 22.5 108t62 78.5t93.5 47.5t117 16q62 0 115 -16t91.5 -47.5t60.5 -78.5t22 -108q0 -60 -22 -106.5t-60.5 -77.5t-91.5 -47t-115 -16zM459 1612q-51 0 -83 -23t-32 -76q0 -52 32 -75t83 -23q48 0 80 23
t32 75t-32.5 75.5t-79.5 23.5z" />
    <glyph glyph-name="ogonek" unicode="&#x2db;" horiz-adv-x="938" 
d="M778 -410q-18 -5 -46 -11t-63.5 -11t-78 -8.5t-88.5 -3.5q-150 0 -229.5 50t-79.5 152q0 40 19.5 78.5t59 72t100.5 62t144 49.5l262 -20q-88 -32 -143 -58.5t-85.5 -48t-41 -40t-10.5 -35.5q0 -35 24 -53.5t84 -18.5q45 0 88.5 3.5t83.5 6.5v-166z" />
    <glyph glyph-name="tilde" unicode="&#x2dc;" horiz-adv-x="1057" 
d="M997 1569q0 -78 -18 -132t-50.5 -88t-77 -49.5t-97.5 -15.5q-48 0 -99 13.5t-116 48.5l-97 53q-34 20 -59 31.5t-51 11.5q-37 0 -50.5 -25.5t-13.5 -73.5v-49h-200v49q0 78 19 132t52 88t78.5 49.5t99.5 15.5q26 0 49.5 -3t47 -9.5t49 -18t57.5 -28.5l98 -53
q33 -19 59.5 -31t57.5 -12q37 0 49.5 23t12.5 73v49h200v-49z" />
    <glyph glyph-name="hungarumlaut" unicode="&#x2dd;" horiz-adv-x="1272" 
d="M1040 1290h-307l271 299h378zM479 1290h-307l270 299h377z" />
    <glyph glyph-name="uni037E" unicode="&#x37e;" horiz-adv-x="573" 
d="M121 528v338h336v-338h-336z" />
    <glyph glyph-name="uni03A9" unicode="&#x3a9;" horiz-adv-x="1530" 
d="M836 0v436q121 29 174 124t53 249v119q0 96 -22 159.5t-61.5 101t-94.5 53t-121 15.5t-121 -15.5t-94.5 -53t-61.5 -101t-22 -159.5v-119q0 -77 12.5 -139.5t40 -109.5t70.5 -78t104 -46v-436h-573v231h303v72q-89 33 -151.5 84.5t-102 119t-58 150.5t-18.5 179l2 116
q0 154 45.5 267.5t131.5 188t210.5 110.5t282.5 36q159 0 284 -36t211 -110.5t131.5 -188t45.5 -267.5v-116q0 -96 -18.5 -179t-58.5 -150.5t-102.5 -119t-150.5 -84.5v-72h305v-231h-575z" />
    <glyph glyph-name="uni03BC" unicode="&#x3bc;" horiz-adv-x="1456" 
d="M934 0v94q-81 -43 -155 -69.5t-146 -34.5q-60 -3 -109 6v-410h-356v1581h356v-739q0 -53 5.5 -89t21 -58.5t43 -32.5t70.5 -10q51 0 114 18t135 47v864h357v-1167h-336z" />
    <glyph glyph-name="pi" unicode="&#x3c0;" horiz-adv-x="1499" 
d="M1413 -14q-17 -4 -39.5 -7t-47 -5.5t-49.5 -3.5t-46 -1q-94 0 -159 19.5t-105.5 61.5t-59 108t-18.5 159v547h-285v-864h-358v864h-170v303h1337v-303h-168v-553q0 -28 3 -47t11.5 -30t23.5 -16t40 -5h46t44 2v-229z" />
    <glyph glyph-name="Wgrave" unicode="&#x1e80;" horiz-adv-x="2038" 
d="M1243 0l-178 723q-12 51 -23 106t-20 103h-6q-9 -48 -20 -103t-23 -106l-176 -723h-467l-254 1522h381l125 -832q11 -74 19.5 -149.5t16.5 -141.5h9q15 68 29.5 137t29.5 134l137 565h396l137 -569q15 -63 30 -132t29 -135h8q7 68 15.5 140.5t19.5 150.5l127 832h377
l-254 -1522h-465zM915 1616l-342 299h406l268 -299h-332z" />
    <glyph glyph-name="wgrave" unicode="&#x1e81;" horiz-adv-x="1917" 
d="M1174 0l-156 500q-20 66 -33.5 122.5t-21.5 110.5h-9q-8 -54 -21.5 -110.5t-35.5 -122.5l-156 -500h-438l-246 1167h361l106 -577q14 -79 24 -149t13 -130h8q16 63 33 135.5t39 143.5l129 407h377l129 -407q23 -71 40 -143.5t34 -135.5h8q3 60 11 130t24 151l106 575h361
l-246 -1167h-440zM844 1292l-342 299h406l268 -299h-332z" />
    <glyph glyph-name="Wacute" unicode="&#x1e82;" horiz-adv-x="2038" 
d="M1243 0l-178 723q-12 51 -23 106t-20 103h-6q-9 -48 -20 -103t-23 -106l-176 -723h-467l-254 1522h381l125 -832q11 -74 19.5 -149.5t16.5 -141.5h9q15 68 29.5 137t29.5 134l137 565h396l137 -569q15 -63 30 -132t29 -135h8q7 68 15.5 140.5t19.5 150.5l127 832h377
l-254 -1522h-465zM1155 1616h-334l270 299h406z" />
    <glyph glyph-name="wacute" unicode="&#x1e83;" horiz-adv-x="1917" 
d="M1174 0l-156 500q-20 66 -33.5 122.5t-21.5 110.5h-9q-8 -54 -21.5 -110.5t-35.5 -122.5l-156 -500h-438l-246 1167h361l106 -577q14 -79 24 -149t13 -130h8q16 63 33 135.5t39 143.5l129 407h377l129 -407q23 -71 40 -143.5t34 -135.5h8q3 60 11 130t24 151l106 575h361
l-246 -1167h-440zM1096 1292h-334l270 299h406z" />
    <glyph glyph-name="Wdieresis" unicode="&#x1e84;" horiz-adv-x="2038" 
d="M1243 0l-178 723q-12 51 -23 106t-20 103h-6q-9 -48 -20 -103t-23 -106l-176 -723h-467l-254 1522h381l125 -832q11 -74 19.5 -149.5t16.5 -141.5h9q15 68 29.5 137t29.5 134l137 565h396l137 -569q15 -63 30 -132t29 -135h8q7 68 15.5 140.5t19.5 150.5l127 832h377
l-254 -1522h-465zM1139 1638v260h285v-260h-285zM617 1638v260h286v-260h-286z" />
    <glyph glyph-name="wdieresis" unicode="&#x1e85;" horiz-adv-x="1917" 
d="M1174 0l-156 500q-20 66 -33.5 122.5t-21.5 110.5h-9q-8 -54 -21.5 -110.5t-35.5 -122.5l-156 -500h-438l-246 1167h361l106 -577q14 -79 24 -149t13 -130h8q16 63 33 135.5t39 143.5l129 407h377l129 -407q23 -71 40 -143.5t34 -135.5h8q3 60 11 130t24 151l106 575h361
l-246 -1167h-440zM1075 1321v260h285v-260h-285zM553 1321v260h286v-260h-286z" />
    <glyph glyph-name="Ygrave" unicode="&#x1ef2;" horiz-adv-x="1446" 
d="M537 0v549l-508 973h391l205 -404q24 -52 50 -114t46 -119h10q19 57 47.5 119t52.5 114l205 404h381l-508 -973v-549h-372zM627 1614l-342 299h406l268 -299h-332z" />
    <glyph glyph-name="ygrave" unicode="&#x1ef3;" horiz-adv-x="1305" 
d="M577 1292l-342 299h406l268 -299h-332zM471 12l-424 1155h383l172 -600q22 -74 37 -151t37 -158q15 81 31 157t36 154l156 598h363l-371 -1175q-37 -116 -79 -198t-98 -134.5t-131.5 -77t-179.5 -24.5q-96 0 -182.5 7t-146.5 19v228q37 -2 66.5 -3t54.5 -1.5t49 -0.5h51
q32 0 56.5 7t43 23.5t32.5 43.5t26 68z" />
    <glyph glyph-name="figuredash" unicode="&#x2012;" horiz-adv-x="1481" 
d="M117 461v229h1247v-229h-1247z" />
    <glyph glyph-name="endash" unicode="&#x2013;" horiz-adv-x="971" 
d="M117 479v250h735v-250h-735z" />
    <glyph glyph-name="emdash" unicode="&#x2014;" horiz-adv-x="1331" 
d="M117 479v250h1095v-250h-1095z" />
    <glyph glyph-name="quoteleft" unicode="&#x2018;" horiz-adv-x="524" 
d="M41 1071l197 524h245l-123 -524h-319z" />
    <glyph glyph-name="quoteright" unicode="&#x2019;" horiz-adv-x="524" 
d="M41 1071l123 524h319l-194 -524h-248z" />
    <glyph glyph-name="quotesinglbase" unicode="&#x201a;" horiz-adv-x="524" 
d="M41 -203l123 525h319l-194 -525h-248z" />
    <glyph glyph-name="quotedblleft" unicode="&#x201c;" horiz-adv-x="983" 
d="M498 1071l196 524h248l-125 -524h-319zM41 1071l195 524h247l-123 -524h-319z" />
    <glyph glyph-name="quotedblright" unicode="&#x201d;" horiz-adv-x="983" 
d="M41 1071l125 524h319l-196 -524h-248zM500 1071l123 524h319l-194 -524h-248z" />
    <glyph glyph-name="quotedblbase" unicode="&#x201e;" horiz-adv-x="983" 
d="M500 -203l125 525h317l-194 -525h-248zM41 -203l123 525h319l-194 -525h-248z" />
    <glyph glyph-name="dagger" unicode="&#x2020;" horiz-adv-x="1104" 
d="M367 -266v1192h-246v270h246v397h356v-397h260v-270h-260v-1192h-356z" />
    <glyph glyph-name="daggerdbl" unicode="&#x2021;" horiz-adv-x="1104" 
d="M367 -266v704h-246v271h246v237h-246v271h246v374h356v-374h260v-271h-260v-237h260v-271h-260v-704h-356z" />
    <glyph glyph-name="bullet" unicode="&#x2022;" horiz-adv-x="1051" 
d="M915 752q0 -78 -31 -147t-84 -120t-124 -80.5t-152 -29.5t-151.5 29.5t-123.5 80.5t-83.5 120t-30.5 147q0 79 30.5 148t83.5 120t123.5 80.5t151.5 29.5t152 -29.5t124 -80.5t84 -120t31 -148z" />
    <glyph glyph-name="onedotenleader" unicode="&#x2024;" horiz-adv-x="604" 
d="M123 0v336h358v-336h-358z" />
    <glyph glyph-name="twodotenleader" unicode="&#x2025;" horiz-adv-x="1165" 
d="M682 0v336h360v-336h-360zM123 0v336h358v-336h-358z" />
    <glyph glyph-name="ellipsis" unicode="&#x2026;" horiz-adv-x="1929" 
d="M129 0v336h358v-336h-358zM786 0v336h357v-336h-357zM1442 0v336h358v-336h-358z" />
    <glyph glyph-name="perthousand" unicode="&#x2030;" horiz-adv-x="3262" 
d="M3164 414q0 -212 -99.5 -323t-301.5 -111q-205 0 -304.5 111t-99.5 323v75q0 214 99.5 324.5t304.5 110.5q202 0 301.5 -110.5t99.5 -324.5v-75zM2898 489q0 74 -10 120.5t-27.5 73t-42.5 36.5t-55 10q-32 0 -57 -10t-43 -36.5t-27.5 -73t-9.5 -120.5v-75
q0 -74 9.5 -120.5t27.5 -73t43 -36.5t57 -10q30 0 55 10t42.5 36.5t27.5 73t10 120.5v75zM2251 414q0 -214 -100 -324t-304 -110q-203 0 -302 111t-99 323v75q0 214 99 324.5t302 110.5q204 0 304 -110t100 -325v-75zM1985 489q0 74 -10 120.5t-28 73t-43.5 36.5t-56.5 10
t-56 -10t-42.5 -36.5t-27 -73t-9.5 -120.5v-75q0 -74 9.5 -120.5t27 -73t42.5 -36.5t56 -10t56.5 10t43.5 36.5t28 73t10 120.5v75zM510 0l1018 1526h299l-1016 -1526h-301zM901 1047q0 -101 -22 -181.5t-70.5 -137t-124.5 -86.5t-184 -30q-109 0 -185.5 31t-124.5 88
t-70 137t-22 179v73q0 99 22 179t70 137t124.5 87.5t185.5 30.5q108 0 184 -29.5t124.5 -85.5t70.5 -136.5t22 -182.5v-73zM635 1120q0 72 -7.5 119t-24 74.5t-42 38t-61.5 10.5t-62 -11.5t-42 -39.5t-23.5 -74.5t-7.5 -116.5v-73q0 -72 7.5 -118.5t23.5 -73.5t42 -37.5
t62 -10.5t61.5 10.5t42 37.5t24 73.5t7.5 118.5v73z" />
    <glyph glyph-name="guilsinglleft" unicode="&#x2039;" horiz-adv-x="870" 
d="M406 143l-312 455l312 453h368l-303 -453l303 -455h-368z" />
    <glyph glyph-name="guilsinglright" unicode="&#x203a;" horiz-adv-x="870" 
d="M96 143l303 455l-303 453h367l313 -453l-313 -455h-367z" />
    <glyph glyph-name="exclamdbl" unicode="&#x203c;" horiz-adv-x="1278" 
d="M748 0v336h366v-336h-366zM766 455l-33 1140h395l-32 -1140h-330zM162 0v336h366v-336h-366zM182 455l-35 1140h398l-33 -1140h-330z" />
    <glyph glyph-name="fraction" unicode="&#x2044;" horiz-adv-x="1139" 
d="M-90 0l1016 1526h303l-1018 -1526h-301z" />
    <glyph glyph-name="zero.superior" unicode="&#x2070;" horiz-adv-x="1006" 
d="M909 1114q0 -214 -98 -328t-305 -114q-208 0 -306 114t-98 328v72q0 213 98 327.5t306 114.5q207 0 305 -114.5t98 -327.5v-72zM643 1186q0 77 -10 125t-28 75t-43 36.5t-56 9.5q-32 0 -57 -9.5t-43 -36.5t-27.5 -75t-9.5 -125v-74q0 -76 9.5 -124t27.5 -75t43 -37
t57 -10q31 0 56 10t43 37t28 75t10 124v74z" />
    <glyph glyph-name="i.superior" unicode="&#x2071;" horiz-adv-x="475" 
d="M115 629v710h247v-710h-247zM109 1430v165h258v-165h-258z" />
    <glyph glyph-name="four.superior" unicode="&#x2074;" horiz-adv-x="971" 
d="M504 692v201h-436v168l483 547h215v-543h123v-172h-123v-201h-262zM518 1343l-244 -278h244v278z" />
    <glyph glyph-name="five.superior" unicode="&#x2075;" horiz-adv-x="924" 
d="M823 971q0 -82 -27.5 -139t-78 -92.5t-122.5 -51.5t-161 -16q-55 0 -105.5 3.5t-93.5 9t-76 12t-53 12.5v157q42 -5 75.5 -8t65 -5.5t62.5 -3.5t68 -1q51 0 85.5 6t55.5 20t30 36.5t9 56.5v20q0 31 -7.5 51t-27.5 32t-54 17t-87 5h-268l47 516h635v-181h-426l-17 -165h88
q109 0 182.5 -15.5t118 -48.5t63.5 -85t19 -126v-16z" />
    <glyph glyph-name="six.superior" unicode="&#x2076;" horiz-adv-x="977" 
d="M872 979q0 -87 -30.5 -145.5t-83 -94.5t-122.5 -51.5t-149 -15.5q-106 0 -180.5 23.5t-122 71.5t-69 121t-21.5 173v178q0 90 16.5 162t61 122.5t122.5 77.5t200 27q51 0 101.5 -4t94.5 -9.5t78.5 -12t54.5 -11.5v-157q-30 2 -66 4.5t-75 4t-79 2.5t-77 1q-58 0 -92 -9.5
t-52 -29t-23 -49.5t-5 -72v-26q16 4 36.5 7.5t42.5 6t43 3.5t38 1q77 0 142.5 -10t113.5 -39.5t75 -82t27 -136.5v-31zM612 1008q0 37 -8 60t-24 36t-40 17.5t-55 4.5q-24 0 -60.5 -3t-70.5 -11v-94q0 -54 9 -88.5t26 -54.5t42.5 -27.5t57.5 -7.5q54 0 88.5 32t34.5 107v29z
" />
    <glyph glyph-name="seven.superior" unicode="&#x2077;" horiz-adv-x="918" 
d="M133 692l436 735h-456v181h716v-197l-419 -719h-277z" />
    <glyph glyph-name="eight.superior" unicode="&#x2078;" horiz-adv-x="1008" 
d="M795 1163q52 -32 78 -80.5t26 -117.5q0 -99 -31.5 -157t-86.5 -88t-129 -39t-158 -9q-83 0 -155.5 9t-127 39t-86 88t-31.5 157q0 69 26 117.5t77 80.5q-48 32 -74.5 80.5t-26.5 128.5t31 130t85 78t128 38t160 10q84 0 156 -10t125 -39.5t83.5 -82t30.5 -136.5
q0 -71 -26 -118t-74 -79zM444 1090q-54 0 -74 -29t-20 -92q0 -42 10 -68.5t29.5 -40.5t47.5 -19t63 -5q33 0 59.5 5t45 19t28.5 40.5t10 68.5q0 63 -20 92t-76 29h-103zM547 1243q55 0 73.5 28.5t18.5 78.5q0 35 -9.5 57.5t-28.5 35t-46 17t-61 4.5q-32 0 -58.5 -4.5
t-45 -17t-28.5 -35t-10 -57.5q0 -25 4 -44.5t14.5 -33.5t28.5 -21.5t45 -7.5h103z" />
    <glyph glyph-name="nine.superior" unicode="&#x2079;" horiz-adv-x="977" 
d="M872 1057q0 -89 -16 -160t-60 -121t-121.5 -77t-199.5 -27q-51 0 -101.5 3.5t-95 8.5t-79.5 11t-56 12v157q28 -2 64 -4.5t76 -4.5t81.5 -3.5t81.5 -1.5q56 0 89.5 10t51 30t22.5 50.5t5 71.5v26q-16 -4 -37 -7t-42.5 -5t-42.5 -3t-37 -1q-78 0 -144 10t-114 39t-75.5 81
t-27.5 136v33q0 85 30.5 143.5t83 95t123 52.5t150.5 16q106 0 180.5 -23.5t121 -72t68 -122t21.5 -173.5v-180zM614 1282q0 54 -9 88t-26 53.5t-42.5 27t-59.5 7.5q-27 0 -49.5 -7.5t-39 -24t-25.5 -42.5t-9 -63v-31q0 -36 8 -58.5t23.5 -35.5t39 -17.5t54.5 -4.5
q26 0 63.5 3t71.5 9v96z" />
    <glyph glyph-name="parenleft.superior" unicode="&#x207d;" horiz-adv-x="588" 
d="M274 530q-30 41 -59.5 96.5t-53 123.5t-38 148t-14.5 169v10q0 89 14.5 169t38 149t53 125t59.5 98h230q-32 -49 -60 -108t-49 -127t-33 -144.5t-12 -161.5v-10q0 -84 12 -160.5t33 -144t49 -126t60 -106.5h-230z" />
    <glyph glyph-name="parenright.superior" unicode="&#x207e;" horiz-adv-x="588" 
d="M84 530q31 48 59 106.5t49 126t33.5 144t12.5 160.5v10q0 85 -12.5 161.5t-33.5 144.5t-49 127t-59 108h227q30 -42 60 -98t54 -125t39 -149t15 -169v-10q0 -89 -15 -169t-39 -148t-54 -123.5t-60 -96.5h-227z" />
    <glyph glyph-name="n.superior" unicode="&#x207f;" horiz-adv-x="942" 
d="M584 629v440q0 60 -16 85.5t-66 25.5q-31 0 -68.5 -11.5t-75.5 -25.5v-514h-249v710h233v-55q56 34 118 54t124 20q87 0 136.5 -23.5t75 -63.5t32 -91.5t6.5 -106.5v-444h-250z" />
    <glyph glyph-name="zero.inferior" unicode="&#x2080;" horiz-adv-x="1006" 
d="M909 0q0 -214 -98 -328t-305 -114q-208 0 -306 114t-98 328v72q0 213 98 327.5t306 114.5q207 0 305 -114.5t98 -327.5v-72zM643 72q0 76 -10 124t-28 75t-43 36.5t-56 9.5q-32 0 -57 -9.5t-43 -36.5t-27.5 -75t-9.5 -124v-74q0 -76 9.5 -124t27.5 -75t43 -37t57 -10
q31 0 56 10t43 37t28 75t10 124v74z" />
    <glyph glyph-name="one.inferior" unicode="&#x2081;" horiz-adv-x="834" 
d="M127 -422v174l164 8v504l-166 -53v197l242 90h190v-738l166 -8v-174h-596z" />
    <glyph glyph-name="two.inferior" unicode="&#x2082;" horiz-adv-x="930" 
d="M102 -422v113q0 86 15.5 147.5t50 108.5t89 85t132.5 77q60 29 94.5 48.5t52.5 35.5t22.5 32t4.5 37q0 41 -33 58.5t-120 17.5q-39 0 -83 -1.5t-85 -4t-74.5 -5t-50.5 -3.5v153q27 8 67.5 14.5t86.5 11.5t94 8t90 3q195 0 284.5 -58.5t89.5 -185.5q0 -48 -14 -87
t-45.5 -73.5t-82.5 -66.5t-126 -66q-66 -30 -105.5 -52t-61 -43.5t-28 -47t-6.5 -61.5v-9h451v-186h-709z" />
    <glyph glyph-name="three.inferior" unicode="&#x2083;" horiz-adv-x="922" 
d="M821 -166q0 -75 -23.5 -127.5t-71 -85.5t-120.5 -48t-172 -15q-48 0 -98.5 3.5t-95.5 9.5t-80.5 13.5t-53.5 14.5v151q17 -2 52 -4t77 -3.5t86.5 -3t81.5 -1.5q41 0 70.5 4t48.5 15.5t28 32.5t9 56v19q0 23 -4.5 41t-19 30t-41.5 18.5t-72 6.5h-258v166h260
q44 0 70.5 7.5t41 20.5t19 31.5t4.5 40.5v13q0 27 -7.5 45.5t-25.5 30t-48 16t-75 4.5q-80 0 -158.5 -5.5t-138.5 -8.5v151q19 7 55 14.5t80.5 13.5t94.5 9.5t98 3.5q91 0 163 -12.5t122 -42t76 -78.5t26 -121v-12q0 -59 -25.5 -114.5t-86.5 -86.5q31 -15 52.5 -36.5t35 -47
t19 -54t5.5 -56.5v-19z" />
    <glyph glyph-name="four.inferior" unicode="&#x2084;" horiz-adv-x="971" 
d="M504 -422v201h-436v168l483 547h215v-543h123v-172h-123v-201h-262zM518 229l-244 -278h244v278z" />
    <glyph glyph-name="five.inferior" unicode="&#x2085;" horiz-adv-x="924" 
d="M823 -143q0 -82 -27.5 -139t-78 -92.5t-122.5 -51.5t-161 -16q-55 0 -105.5 3.5t-93.5 9t-76 12t-53 11.5v158q42 -5 75.5 -8t65 -5.5t62.5 -3.5t68 -1q51 0 85.5 6t55.5 19.5t30 36.5t9 57v20q0 31 -7.5 51t-27.5 32t-54 16.5t-87 4.5h-268l47 517h635v-181h-426
l-17 -166h88q109 0 182.5 -15t118 -48t63.5 -85t19 -126v-16z" />
    <glyph glyph-name="six.inferior" unicode="&#x2086;" horiz-adv-x="977" 
d="M872 -135q0 -87 -30.5 -146t-83 -94.5t-122.5 -51t-149 -15.5q-106 0 -180.5 23.5t-122 71.5t-69 121t-21.5 173v178q0 90 16.5 162t61 122.5t122.5 77.5t200 27q51 0 101.5 -4t94.5 -10t78.5 -12.5t54.5 -10.5v-158q-30 3 -66 5t-75 4t-79 3t-77 1q-58 0 -92 -9.5
t-52 -29t-23 -49.5t-5 -72v-27q16 5 36.5 8.5t42.5 6t43 3.5t38 1q77 0 142.5 -10t113.5 -39.5t75 -82t27 -136.5v-31zM612 -106q0 37 -8 60t-24 36t-40 17.5t-55 4.5q-24 0 -60.5 -3t-70.5 -11v-94q0 -54 9 -88.5t26 -54.5t42.5 -27.5t57.5 -7.5q54 0 88.5 31.5t34.5 107.5
v29z" />
    <glyph glyph-name="seven.inferior" unicode="&#x2087;" horiz-adv-x="918" 
d="M133 -422l436 735h-456v181h716v-197l-419 -719h-277z" />
    <glyph glyph-name="eight.inferior" unicode="&#x2088;" horiz-adv-x="1008" 
d="M899 -162q0 -95 -31.5 -150.5t-86.5 -84t-129 -37t-158 -8.5q-83 0 -155.5 8.5t-127 37t-86 84t-31.5 150.5v12q0 70 26 117.5t79 81.5q-48 31 -75.5 77.5t-27.5 117.5v12q0 81 31 131t85 78.5t128 38.5t160 10q84 0 156.5 -10t126 -38.5t84 -78.5t30.5 -131v-12
q0 -71 -26 -117.5t-74 -77.5q52 -34 77 -81.5t25 -117.5v-12zM643 -147q0 64 -19.5 92t-74.5 28h-103q-55 0 -74.5 -27.5t-19.5 -92.5v-9q0 -39 10 -63.5t29 -38t46.5 -18.5t62.5 -5q33 0 59.5 5t45 18.5t28.5 38t10 63.5v9zM639 246q0 61 -38 82.5t-107 21.5
q-65 0 -102.5 -21.5t-37.5 -82.5v-10q0 -51 18.5 -80t73.5 -29h103q28 0 45.5 7.5t27.5 21.5t13.5 34t3.5 46v10z" />
    <glyph glyph-name="nine.inferior" unicode="&#x2089;" horiz-adv-x="977" 
d="M872 -57q0 -89 -16 -160t-60 -121t-121.5 -77t-199.5 -27q-51 0 -101.5 3.5t-95 8.5t-79.5 11t-56 11v158q28 -2 64 -4.5t76 -4.5t81.5 -3.5t81.5 -1.5q56 0 89.5 10t51 30t22.5 50.5t5 71.5v26q-16 -4 -37 -7t-42.5 -5t-42.5 -3t-37 -1q-78 0 -144 10t-114 39t-75.5 81
t-27.5 136v33q0 85 30.5 143.5t83 95t123 52.5t150.5 16q106 0 180.5 -23.5t121 -72t68 -122t21.5 -173.5v-180zM614 168q0 54 -9 88t-26 53.5t-42.5 27t-59.5 7.5q-27 0 -49.5 -7.5t-39 -24t-25.5 -42.5t-9 -63v-31q0 -36 8 -59t23.5 -35.5t39 -17.5t54.5 -5q26 0 63.5 3
t71.5 10v96z" />
    <glyph glyph-name="parenleft.inferior" unicode="&#x208d;" horiz-adv-x="588" 
d="M274 -475q-30 40 -59.5 95.5t-53 124t-38 148t-14.5 168.5v11q0 89 14.5 169t38 148.5t53 125t59.5 97.5h230q-32 -49 -60 -108t-49 -127t-33 -144.5t-12 -160.5v-11q0 -84 12 -160.5t33 -143.5t49 -125.5t60 -106.5h-230z" />
    <glyph glyph-name="parenright.inferior" unicode="&#x208e;" horiz-adv-x="588" 
d="M84 -475q31 48 59 106.5t49 125.5t33.5 143.5t12.5 160.5v11q0 84 -12.5 160.5t-33.5 144.5t-49 127t-59 108h227q30 -41 60 -97.5t54 -125t39 -148.5t15 -169v-11q0 -89 -15 -168.5t-39 -148t-54 -124t-60 -95.5h-227z" />
    <glyph glyph-name="colonmonetary" unicode="&#x20a1;" horiz-adv-x="1094" 
d="M686 -242v213q-17 -2 -31 -2h-28q-26 0 -46 1.5t-38 4.5v-217h-193v267q-124 60 -185 183t-61 310v133q0 184 61 307t185 185v268h193v-219q36 6 88 6h26t29 -2v215h193v-233q49 -7 83.5 -13.5t53.5 -11.5v-244q-31 1 -69.5 4t-81 6t-87 5t-86.5 2q-58 0 -101.5 -10.5
t-73 -40.5t-44 -84t-14.5 -140v-133q0 -85 14.5 -139t44 -85t73 -42.5t101.5 -11.5q62 0 146 4t178 12v-242q-20 -6 -54.5 -12t-82.5 -12v-232h-193z" />
    <glyph glyph-name="franc" unicode="&#x20a3;" horiz-adv-x="1307" 
d="M557 268v-268h-383v268h-96v203h96v1051h1036v-281h-653v-332h629v-270h-629v-168h328v-203h-328z" />
    <glyph glyph-name="lira" unicode="&#x20a4;" 
d="M176 0v223q51 50 72.5 106t21.5 117v58h-153v158h153v139h-153v160h153v59q0 141 28.5 242.5t92 167t166 96t250.5 30.5q127 0 244 -12t202 -31v-262q-49 5 -100.5 9t-101.5 7t-97 5t-86 2q-77 0 -122 -11.5t-68 -40.5t-30 -78t-7 -124v-59h428v-160h-428v-139h428v-158
h-428v-58q0 -52 -11.5 -92.5t-39.5 -81.5h663v-272h-1077z" />
    <glyph glyph-name="peseta" unicode="&#x20a7;" horiz-adv-x="1583" 
d="M1403 920q-12 -84 -43.5 -146.5t-79 -106.5t-108 -73t-131 -45t-148.5 -22.5t-160 -6.5h-81.5t-86.5 2v-522h-368v920h-121v231h121v371q123 8 250.5 13t248.5 5q135 0 254.5 -15t213 -57.5t155.5 -118.5t82 -198h119v-231h-117zM1040 1044q-1 66 -21 107t-59.5 63.5
t-99 30.5t-139.5 8q-40 0 -80.5 -1t-75.5 -1v-442h158q80 0 139.5 9t99 33t59 66t19.5 107v20z" />
    <glyph glyph-name="Euro" unicode="&#x20ac;" horiz-adv-x="1405" 
d="M1292 6q-28 -7 -74 -14t-99 -13t-108 -10t-102 -4q-147 0 -266 27t-205 92.5t-139 173.5t-68 270h-129v160h123v156h-123v160h129q17 159 70 264.5t139 169t204 90t265 26.5q47 0 102 -4t108 -10t99 -13.5t74 -15.5v-272q-5 0 -10 1t-10 1q-74 6 -156 11t-170 5
q-70 0 -125 -11t-95 -39.5t-66 -77.5t-37 -125h614l-41 -160h-584v-156h537l-41 -160h-487q11 -80 37 -131.5t66.5 -81.5t96.5 -41.5t127 -11.5q94 0 180.5 5t163.5 12v-273z" />
    <glyph glyph-name="litre" unicode="&#x2113;" horiz-adv-x="1104" 
d="M1018 88q-75 -54 -168.5 -89.5t-210.5 -35.5q-91 0 -160.5 22.5t-117 71t-71.5 126t-24 188.5l-139 -125l-76 125q57 57 110.5 108t104.5 105v649q0 100 22.5 173.5t70 120.5t121 70t175.5 23q96 0 162 -19.5t107 -55.5t59 -88t18 -116q0 -84 -26.5 -163.5t-75 -157
t-118 -154t-156.5 -153.5v-363q0 -51 7.5 -83.5t23 -52t40 -27t58.5 -7.5q38 0 82 17t86 45zM625 903q109 111 164 216t55 220q0 26 -4.5 49t-16.5 40t-32.5 26.5t-51.5 9.5q-40 0 -62.5 -15.5t-34 -45t-14.5 -72.5t-3 -98v-330z" />
    <glyph glyph-name="trademark" unicode="&#x2122;" horiz-adv-x="1995" 
d="M1604 686v387q0 72 6 144h-2q-16 -29 -30.5 -57.5t-31.5 -51.5l-102 -147h-123l-100 147q-16 22 -32 51.5t-30 57.5h-2q6 -72 6 -144v-387h-237v848h235l168 -256q16 -22 28.5 -45t24.5 -51h2q14 28 26 50.5t28 45.5l168 256h237v-848h-239zM319 686v674h-239v174h725
v-174h-240v-674h-246z" />
    <glyph glyph-name="Omega" unicode="&#x2126;" horiz-adv-x="1530" 
d="M836 0v436q121 29 174 124t53 249v119q0 96 -22 159.5t-61.5 101t-94.5 53t-121 15.5t-121 -15.5t-94.5 -53t-61.5 -101t-22 -159.5v-119q0 -77 12.5 -139.5t40 -109.5t70.5 -78t104 -46v-436h-573v231h303v72q-89 33 -151.5 84.5t-102 119t-58 150.5t-18.5 179l2 116
q0 154 45.5 267.5t131.5 188t210.5 110.5t282.5 36q159 0 284 -36t211 -110.5t131.5 -188t45.5 -267.5v-116q0 -96 -18.5 -179t-58.5 -150.5t-102.5 -119t-150.5 -84.5v-72h305v-231h-575z" />
    <glyph glyph-name="estimated" unicode="&#x212e;" horiz-adv-x="1346" 
d="M1198 274q-43 -62 -93 -114.5t-113 -91t-143 -60.5t-183 -22q-135 0 -246 47.5t-189.5 128.5t-121.5 189t-43 229q0 122 42 230t120.5 189t191.5 128t254 47t253.5 -48t191 -129.5t120 -190t41.5 -228.5h-950v-396q71 -62 153 -95.5t183 -33.5q93 0 163 21t125 57t97 83
t79 99zM1014 979q-30 25 -68.5 48.5t-83 40.5t-92.5 27.5t-96 10.5q-100 0 -189 -32t-155 -95v-334h684v334z" />
    <glyph glyph-name="onethird" unicode="&#x2153;" horiz-adv-x="2236" 
d="M389 0l1018 1526h301l-1016 -1526h-303zM127 618v175l164 8v504l-166 -54v197l242 90h190v-737l166 -8v-175h-596zM1440 172q17 -2 51.5 -4t76.5 -3.5t87 -3t82 -1.5q40 0 69.5 4t48.5 15.5t28 32.5t9 56q0 30 -4.5 51.5t-19 36t-41.5 21t-72 6.5h-258v166h260
q44 0 70.5 7.5t41 22t19 35.5t4.5 48t-7 45.5t-25 30t-48 16t-75 4.5q-81 0 -159 -5.5t-138 -9.5v152q19 7 54.5 14t80 13t94.5 10t98 4q91 0 163 -13t122 -43.5t76 -82t26 -127.5q0 -59 -25.5 -114.5t-86.5 -86.5q31 -15 52.5 -36.5t35 -47t19 -54.5t5.5 -57
q0 -81 -23 -137.5t-71 -91t-121 -50t-172 -15.5q-48 0 -98.5 3.5t-95.5 9.5t-80 13t-53 14v152z" />
    <glyph glyph-name="twothirds" unicode="&#x2154;" horiz-adv-x="2394" 
d="M526 0l1018 1526h301l-1018 -1526h-301zM1567 172q17 -2 51.5 -4t76.5 -3.5t87 -3t82 -1.5q40 0 69.5 4t48.5 15.5t28 32.5t9 56q0 30 -4.5 51.5t-19 36t-41.5 21t-72 6.5h-258v166h260q44 0 70.5 7.5t41 22t19 35.5t4.5 48t-7 45.5t-25 30t-48 16t-75 4.5
q-81 0 -159 -5.5t-138 -9.5v152q19 7 54.5 14t80 13t94.5 10t98 4q91 0 163 -13t122 -43.5t76 -82t26 -127.5q0 -59 -25.5 -114.5t-86.5 -86.5q31 -15 52.5 -36.5t35 -47t19 -54.5t5.5 -57q0 -81 -23 -137.5t-71 -91t-121 -50t-172 -15.5q-48 0 -98.5 3.5t-95.5 9.5t-80 13
t-53 14v152zM102 618v113q0 86 15.5 148t50 109t89 85t132.5 76q60 29 94.5 48.5t52.5 36t22.5 32t4.5 37.5q0 21 -7.5 35t-25.5 23t-47.5 13t-72.5 4q-39 0 -83 -1.5t-85 -4t-74.5 -5t-50.5 -3.5v154q27 7 67.5 14t86.5 11.5t94 7.5t90 3q195 0 284.5 -58t89.5 -185
q0 -48 -14 -87.5t-45.5 -74t-82.5 -66t-126 -65.5q-66 -30 -105.5 -52.5t-61 -44t-28 -47t-6.5 -61.5v-8h451v-187h-709z" />
    <glyph glyph-name="oneeighth" unicode="&#x215b;" horiz-adv-x="2263" 
d="M389 0l1018 1526h301l-1016 -1526h-303zM127 618v175l164 8v504l-166 -54v197l242 90h190v-737l166 -8v-175h-596zM1354 260q0 79 26 128t78 83q-48 31 -75 77t-27 118q0 85 31 138t85 82t127.5 39.5t159.5 10.5q84 0 156.5 -10.5t126 -39.5t84.5 -82t31 -138
q0 -72 -26.5 -118t-74.5 -77q53 -34 78 -83t25 -128q0 -95 -32 -150.5t-87 -84t-129 -37t-158 -8.5q-82 0 -154.5 8.5t-127 37t-86 84t-31.5 150.5zM1706 395q-28 0 -46 -7t-28.5 -22.5t-15 -40t-4.5 -59.5q0 -39 9.5 -63.5t28.5 -38t46.5 -18.5t62.5 -5q33 0 59.5 5
t45.5 18.5t29 38t10 63.5q0 70 -20 99.5t-75 29.5h-102zM1898 668q0 61 -38 82.5t-107 21.5q-65 0 -102 -21.5t-37 -82.5v-11q0 -25 4 -45t14.5 -34t28 -21.5t45.5 -7.5h102q28 0 45.5 7.5t27.5 21.5t13.5 34t3.5 45v11z" />
    <glyph glyph-name="threeeighths" unicode="&#x215c;" horiz-adv-x="2353" 
d="M467 0l1018 1526h301l-1016 -1526h-303zM2140 471q53 -34 78 -83t25 -128q0 -95 -32 -150.5t-87 -84t-129 -37t-158 -8.5q-82 0 -154.5 8.5t-127 37t-86 84t-31.5 150.5q0 79 26 128t78 83q-48 31 -75 77t-27 118q0 85 31 138t85 82t127.5 39.5t159.5 10.5
q84 0 156.5 -10.5t126 -39.5t84.5 -82t31 -138q0 -72 -26.5 -118t-74.5 -77zM1790 395q-28 0 -46 -7t-28.5 -22.5t-15 -40t-4.5 -59.5q0 -39 9.5 -63.5t28.5 -38t46.5 -18.5t62.5 -5q33 0 59.5 5t45.5 18.5t29 38t10 63.5q0 70 -20 99.5t-75 29.5h-102zM1982 668
q0 61 -38 82.5t-107 21.5q-65 0 -102 -21.5t-37 -82.5v-11q0 -25 4 -45t14.5 -34t28 -21.5t45.5 -7.5h102q28 0 45.5 7.5t27.5 21.5t13.5 34t3.5 45v11zM821 874q0 -74 -23.5 -126.5t-71 -85.5t-120.5 -48.5t-172 -15.5q-48 0 -98.5 4t-95.5 10t-80.5 13t-53.5 14v152
q17 -2 52 -4t77 -4t86.5 -3.5t81.5 -1.5q41 0 70.5 4t48.5 16t28 33t9 56v18q0 23 -4.5 41t-19 30t-41.5 18.5t-72 6.5h-258v166h260q44 0 70.5 7.5t41 20.5t19 31.5t4.5 41.5v12q0 28 -7.5 46.5t-25.5 29.5t-48 15.5t-75 4.5q-80 0 -158.5 -5.5t-138.5 -8.5v151
q19 7 55 14.5t80.5 13.5t94.5 9.5t98 3.5q91 0 163 -12.5t122 -42t76 -78.5t26 -121v-12q0 -59 -25.5 -114.5t-86.5 -86.5q31 -14 52.5 -35.5t35 -47t19 -54.5t5.5 -57v-19z" />
    <glyph glyph-name="fiveeighths" unicode="&#x215d;" horiz-adv-x="2353" 
d="M2144 469q53 -32 79 -81t26 -118q0 -98 -32 -156t-87 -88.5t-129 -39.5t-158 -9q-82 0 -154.5 9t-127 39.5t-86 88.5t-31.5 156q0 69 25.5 118t76.5 81q-47 32 -73.5 80.5t-26.5 128.5t31 130t85 78t127.5 38t159.5 10q84 0 156.5 -10t125.5 -39.5t83.5 -82t30.5 -136.5
q0 -72 -26.5 -118.5t-74.5 -78.5zM1794 395q-54 0 -74 -29t-20 -92q0 -42 10 -68t29 -40.5t47 -19.5t63 -5q33 0 59.5 5t45.5 19.5t29 40.5t10 68q0 63 -20.5 92t-76.5 29h-102zM1896 549q55 0 74 28.5t19 77.5q0 36 -10 58t-28.5 35t-46 17.5t-61.5 4.5q-32 0 -58 -4.5
t-44.5 -17.5t-28.5 -35t-10 -58q0 -24 4 -44t14.5 -33.5t28 -21t45.5 -7.5h102zM467 0l1018 1526h301l-1018 -1526h-301zM106 793q42 -5 75.5 -8.5t65 -6t62.5 -3.5t68 -1q51 0 85.5 6t55.5 22t30 43t9 68q0 31 -7.5 51t-27.5 32t-54 17t-87 5h-268l47 516h635v-180h-426
l-17 -166h88q109 0 182.5 -15.5t118 -48.5t63.5 -85t19 -126q0 -88 -27.5 -148.5t-78 -97.5t-122.5 -53t-161 -16q-55 0 -105.5 4t-93.5 9.5t-76 12t-53 11.5v158z" />
    <glyph glyph-name="seveneighths" unicode="&#x215e;" horiz-adv-x="2169" 
d="M283 0l1017 1526h302l-1018 -1526h-301zM133 618l436 736h-456v180h716v-197l-419 -719h-277zM1956 469q52 -32 78 -81t26 -118q0 -98 -31.5 -156t-86.5 -88.5t-129 -39.5t-158 -9q-82 0 -155 9t-127.5 39.5t-86 88.5t-31.5 156q0 69 26 118t77 81q-48 32 -74.5 80.5
t-26.5 128.5t31 130t85 78t128 38t160 10q84 0 156 -10t125 -39.5t83.5 -82t30.5 -136.5q0 -72 -26 -118.5t-74 -78.5zM1606 395q-54 0 -74.5 -29t-20.5 -92q0 -42 10 -68t29.5 -40.5t47.5 -19.5t63 -5q33 0 59.5 5t45 19.5t28.5 40.5t10 68q0 63 -20 92t-76 29h-102z
M1708 549q55 0 73.5 28.5t18.5 77.5q0 36 -9.5 58t-28.5 35t-46 17.5t-61 4.5q-32 0 -58.5 -4.5t-45 -17.5t-28.5 -35t-10 -58q0 -24 4 -44t14.5 -33.5t28.5 -21t46 -7.5h102z" />
    <glyph glyph-name="partialdiff" unicode="&#x2202;" horiz-adv-x="1374" 
d="M289 1589q74 17 150.5 25t150.5 8q172 0 299.5 -50t211.5 -142.5t125.5 -222.5t41.5 -289q0 -104 -11.5 -213t-31.5 -205q-30 -140 -82.5 -240t-129 -164.5t-178.5 -94.5t-231 -30q-246 0 -372 114t-126 323q0 46 3.5 93.5t11.5 92.5q20 127 70.5 217.5t128 147.5
t178.5 83.5t223 26.5q72 0 125.5 -19.5t85.5 -37.5q0 21 -2.5 48.5t-7.5 49.5q-10 59 -33.5 112.5t-68 93.5t-114 63.5t-171.5 23.5q-59 0 -125.5 -6.5t-135.5 -20.5zM635 240q55 0 96.5 16.5t71 51t48.5 87t30 125.5q6 37 8 68t2 53q0 81 -41.5 119.5t-134.5 38.5
q-111 0 -170 -64t-76 -194q-5 -37 -7.5 -73t-2.5 -67q0 -86 41.5 -123.5t134.5 -37.5z" />
    <glyph glyph-name="Delta" unicode="&#x2206;" horiz-adv-x="1599" 
d="M74 0l426 1522h594l432 -1522h-1452zM854 1061q-17 60 -29 124t-24 120h-4q-11 -56 -24 -120t-30 -124l-217 -793h545z" />
    <glyph glyph-name="product" unicode="&#x220f;" horiz-adv-x="1616" 
d="M1010 -145v1362h-406v-1362h-362v1362h-166v305h1462v-305h-166v-1362h-362z" />
    <glyph glyph-name="summation" unicode="&#x2211;" horiz-adv-x="1290" 
d="M127 -145v282l426 547l-426 555v283h1038v-283h-628l364 -483v-148l-364 -471h628v-282h-1038z" />
    <glyph glyph-name="minus" unicode="&#x2212;" horiz-adv-x="1386" 
d="M174 655v271h1036v-271h-1036z" />
    <glyph glyph-name="uni2215" unicode="&#x2215;" horiz-adv-x="1139" 
d="M-88 0l1016 1526h301l-1016 -1526h-301z" />
    <glyph glyph-name="uni2219" unicode="&#x2219;" horiz-adv-x="618" 
d="M139 586v338h338v-338h-338z" />
    <glyph glyph-name="radical" unicode="&#x221a;" horiz-adv-x="1706" 
d="M627 -143l-281 901h-252v270h461l260 -866l498 1624h299l-604 -1929h-381z" />
    <glyph glyph-name="infinity" unicode="&#x221e;" horiz-adv-x="1501" 
d="M969 252q-73 0 -128 25.5t-102 76.5q-35 -49 -89.5 -77.5t-123.5 -28.5h-14q-78 0 -133 25.5t-92 67t-58.5 94.5t-32 108.5t-13.5 108t-3 93.5v52q0 37 2.5 88.5t13.5 106.5t32 108.5t58.5 96t93 69t134.5 26.5h14q72 0 127 -27.5t97 -78.5q38 57 91 82.5t126 25.5h14
q78 0 132.5 -25.5t91 -66.5t57.5 -94t31.5 -108.5t13 -108.5t2.5 -94v-49q0 -39 -2.5 -90.5t-13.5 -106.5t-32 -108.5t-57.5 -96t-91.5 -68.5t-133 -26h-12zM975 461q40 0 63.5 24t34.5 64t14 91.5t3 107.5v49q0 58 -2.5 109.5t-13.5 90.5t-33 61.5t-62 22.5h-10
q-29 -1 -47.5 -19.5t-30.5 -57t-20 -98t-17 -140.5q-3 -31 -6 -57t-7 -51.5t-8 -52.5t-10 -60q31 -45 66 -64.5t76 -19.5h10zM528 461q27 0 44.5 17t30 54.5t21.5 96.5t19 143q2 28 5 53t7 51t8 54t9 61q-28 44 -64.5 68t-75.5 24h-12q-41 0 -64.5 -25.5t-35 -66.5
t-14.5 -92t-3 -102v-52q0 -54 2.5 -105t13.5 -90.5t34.5 -64t64.5 -24.5h10z" />
    <glyph glyph-name="integral" unicode="&#x222b;" horiz-adv-x="1114" 
d="M104 -184q39 -2 84.5 -4t83.5 -2q36 0 57.5 5.5t32.5 20t14 39.5t3 64v1310q0 84 17 149t57 110t106 68t164 23q45 0 87 -3t79 -7.5t67.5 -10t53.5 -9.5v-203q-39 2 -84.5 4t-83.5 2q-37 0 -58.5 -5.5t-32 -20t-13.5 -39t-3 -62.5v-1311q0 -84 -17 -149.5t-57.5 -110.5
t-107 -68.5t-164.5 -23.5q-90 0 -165 11t-120 22v201z" />
    <glyph glyph-name="approxequal" unicode="&#x2248;" horiz-adv-x="1386" 
d="M1208 1194q0 -85 -19.5 -145t-55.5 -98.5t-86 -56t-111 -17.5q-59 0 -115 14t-121 49l-114 66q-38 21 -64.5 34t-52.5 13q-40 0 -53 -26t-13 -79v-57h-227v57q0 85 21 145.5t58 98t88 55t112 17.5q27 0 52.5 -4.5t51 -13t52.5 -21.5t59 -31l123 -66q35 -23 62.5 -30.5
t62.5 -7.5q40 0 51.5 25.5t11.5 78.5v57h227v-57zM1208 657q0 -85 -19.5 -145t-55.5 -97.5t-86 -55t-111 -17.5q-59 0 -115 14t-121 50l-114 63q-38 22 -63.5 34.5t-53.5 12.5q-40 0 -53 -25.5t-13 -76.5v-60h-227v60q0 84 21 143.5t58 97t88 55t112 17.5q27 0 52.5 -4
t51 -12.5t52.5 -21.5t59 -30l123 -67q35 -22 62.5 -30.5t62.5 -8.5q40 0 51.5 26.5t11.5 77.5v58h227v-58z" />
    <glyph glyph-name="notequal" unicode="&#x2260;" horiz-adv-x="1386" 
d="M725 375l-137 -385h-330l137 385h-209v268h293l96 287h-389v270h473l119 332h330l-119 -332h213v-270h-299l-94 -287h393v-268h-477z" />
    <glyph glyph-name="lessequal" unicode="&#x2264;" horiz-adv-x="1386" 
d="M164 0v219h1063v-219h-1063zM752 346l-574 494l574 493h389l-568 -493l568 -494h-389z" />
    <glyph glyph-name="greaterequal" unicode="&#x2265;" horiz-adv-x="1386" 
d="M156 0v219h1063v-219h-1063zM633 346h-391l567 494l-567 493h391l571 -493z" />
    <glyph glyph-name="lozenge" unicode="&#x25ca;" horiz-adv-x="1425" 
d="M154 743l559 668l559 -666l-563 -659zM987 745l-274 322l-275 -324l271 -315z" />
    <glyph glyph-name="percent.oldstyle" unicode="&#xfe6a;" horiz-adv-x="1982" 
d="M1878 348q0 -87 -19.5 -156t-60 -117t-103.5 -73t-151 -25q-89 0 -152.5 25t-104.5 73t-60 117t-19 156v17q0 88 19 157t60 116t104.5 72t152.5 25q88 0 151 -25t103.5 -72t60 -116t19.5 -157v-17zM1638 367q0 58 -6 95.5t-18 59t-29.5 29.5t-40.5 8q-24 0 -42 -8
t-30 -29.5t-18 -59t-6 -95.5v-19q0 -58 6 -95.5t18 -59t30 -29.5t42 -8q23 0 40.5 8t29.5 29.5t18 59t6 95.5v19zM442 0l838 1237h266l-837 -1237h-267zM774 872q0 -87 -19.5 -156t-60 -116.5t-104.5 -72.5t-152 -25t-151.5 25t-104.5 72.5t-60.5 116.5t-19.5 156v15
q0 88 19.5 157.5t60.5 117.5t104.5 73t151.5 25t152 -25t104.5 -73t60 -117.5t19.5 -157.5v-15zM535 889q0 58 -6 95.5t-18.5 59t-30.5 29.5t-42 8q-23 0 -40.5 -8t-29.5 -29.5t-18 -59t-6 -95.5v-17q0 -58 6 -95.5t18 -59t29.5 -29.5t40.5 -8q24 0 42 8t30.5 29.5t18.5 59
t6 95.5v17z" />
    <glyph glyph-name="dollar.oldstyle" horiz-adv-x="1227" 
d="M471 -240v213q-51 3 -100 7t-93 9.5t-81 11.5t-64 13v244q69 -5 173.5 -10.5t252.5 -5.5q100 0 143 28.5t43 85.5q0 25 -6.5 43.5t-24 35t-49 33.5t-81.5 38l-166 69q-75 33 -134 68t-100.5 80.5t-63.5 107t-22 146.5q0 161 93.5 249.5t279.5 114.5v207h293v-198
q50 -4 97.5 -9.5t89.5 -11.5t77 -12.5t59 -11.5v-240q-89 6 -201.5 13t-228.5 7q-89 0 -137.5 -19.5t-48.5 -74.5q0 -21 5.5 -38t21 -33.5t43.5 -33t73 -34.5l162 -68q89 -37 154 -74t107 -83.5t62.5 -106.5t20.5 -143q0 -168 -92.5 -266t-263.5 -127v-224h-293z" />
    <glyph glyph-name="dollar.superior" horiz-adv-x="897" 
d="M334 520v162q-68 3 -127.5 11t-100.5 16v172q48 -5 128 -9t174 -4q79 0 109 22t30 62q0 17 -5.5 29.5t-18.5 23.5t-34.5 21.5t-52.5 22.5l-125 49q-51 20 -93 44t-72 56.5t-47 75.5t-17 100q0 110 63.5 171t188.5 81v166h229v-160q34 -2 67.5 -5.5t62 -7.5t51.5 -8t38 -7
v-172q-44 4 -88.5 7t-84 5t-73.5 3t-57 1q-65 0 -103 -15t-38 -57q0 -15 4.5 -27t16.5 -22.5t32.5 -20t52.5 -20.5l121 -43q61 -21 106.5 -46t75.5 -57t45 -74t15 -99q0 -116 -64 -186.5t-180 -90.5v-170h-229z" />
    <glyph glyph-name="zero.oldstyle" horiz-adv-x="1446" 
d="M1346 578q0 -300 -155 -456.5t-468 -156.5q-311 0 -467 156.5t-156 456.5v71q0 300 156 455.5t467 155.5q313 0 468 -155.5t155 -455.5v-71zM963 649q0 92 -17 154.5t-48 100t-75.5 53.5t-99.5 16q-54 0 -98 -16t-75 -53.5t-48 -100t-17 -154.5v-71q0 -92 17 -154.5
t48 -100.5t75 -54.5t98 -16.5q55 0 99.5 16.5t75.5 54.5t48 100.5t17 154.5v71z" />
    <glyph glyph-name="one.oldstyle" horiz-adv-x="1204" 
d="M90 0v264l326 15v618l-328 -102v297l434 147h275v-960l317 -15v-264h-1024z" />
    <glyph glyph-name="two.oldstyle" horiz-adv-x="1331" 
d="M104 0v283l361 206q120 69 194.5 120.5t116 93t56 78t14.5 77.5q0 36 -14.5 61t-47 40.5t-85 22.5t-128.5 7q-48 0 -107 -2.5t-119.5 -6t-119 -7.5t-104.5 -8v231q45 13 107 24.5t131 20.5t140 14t136 5q168 0 282.5 -23.5t184.5 -69t100.5 -114t30.5 -158.5
q0 -83 -23 -148t-75.5 -124t-138.5 -117.5t-212 -128.5l-170 -94h598v-283h-1108z" />
    <glyph glyph-name="three.oldstyle" horiz-adv-x="1333" 
d="M1206 125q0 -125 -37.5 -211.5t-112.5 -141.5t-189 -79.5t-267 -24.5q-75 0 -151 7t-144.5 17.5t-123.5 22.5t-87 23v233q39 -5 93 -9.5t116 -9t128 -7t130 -2.5q67 0 117 7.5t82.5 28.5t48.5 60t16 102v35q0 42 -7.5 75t-31 56t-68 35t-118.5 12h-414v252h416
q72 0 116 13.5t68 37.5t31.5 58t7.5 76v20q0 53 -12.5 87t-43 54t-81.5 27.5t-129 7.5q-130 0 -248.5 -7.5t-212.5 -16.5v231q27 9 80.5 20.5t122 21.5t146.5 17t153 7q144 0 257 -21t190.5 -70.5t118 -130t40.5 -200.5v-23q0 -50 -9.5 -98.5t-31 -92t-56 -80t-83.5 -61.5
q51 -24 85.5 -59.5t55.5 -78t30 -90t9 -95.5v-35z" />
    <glyph glyph-name="four.oldstyle" horiz-adv-x="1458" 
d="M778 -291v346h-698v264l756 914h325v-916h203v-262h-203v-346h-383zM797 829l-412 -512h412v512z" />
    <glyph glyph-name="five.oldstyle" horiz-adv-x="1313" 
d="M1214 160q0 -134 -42.5 -226.5t-122 -150.5t-193.5 -83.5t-256 -25.5q-85 0 -163.5 6.5t-144.5 16t-116.5 20t-79.5 19.5v237q50 -6 99.5 -11t101 -9t107.5 -6t118 -2q85 0 143.5 10t94.5 35t51.5 65.5t15.5 102.5v41q0 55 -13 92.5t-46.5 60t-91.5 32t-148 9.5h-417
l71 840h983v-275h-676l-26 -305h143q174 0 290.5 -26.5t187 -81.5t100.5 -140.5t30 -203.5v-41z" />
    <glyph glyph-name="six.oldstyle" horiz-adv-x="1409" 
d="M1309 471q0 -97 -22.5 -172.5t-63 -131.5t-96 -94.5t-121.5 -62.5t-140.5 -34.5t-152.5 -10.5q-158 0 -273 35t-191 111t-112.5 196t-36.5 289v340q0 97 11 180.5t38 152t72.5 121.5t115 89.5t165 55.5t223.5 19q80 0 158 -6t145.5 -14.5t120.5 -18.5t84 -18v-240
q-108 10 -220 17.5t-243 7.5q-100 0 -158 -18t-88 -54.5t-38.5 -91.5t-8.5 -129v-51q28 7 63 12.5t71.5 9.5t72 6.5t64.5 2.5q80 0 152.5 -7t135 -25.5t113 -49.5t86 -79.5t55 -115.5t19.5 -157v-64zM932 528q0 64 -14 104.5t-41.5 63.5t-69.5 31t-98 8q-44 0 -107 -5
t-125 -19v-176q0 -92 15.5 -152t45.5 -95t74.5 -49t102.5 -14q48 0 87.5 14t68.5 44t45 76t16 110v59z" />
    <glyph glyph-name="seven.oldstyle" horiz-adv-x="1303" 
d="M152 -289l698 1247h-762v275h1139v-303l-670 -1219h-405z" />
    <glyph glyph-name="eight.oldstyle" horiz-adv-x="1464" 
d="M727 -35q-84 0 -162.5 5.5t-147.5 22.5t-126.5 48.5t-98.5 84t-63.5 128.5t-22.5 182q0 65 10 117.5t31 94.5t52 75.5t73 60.5q-38 25 -67.5 56t-50.5 70t-32 88t-11 110q0 94 21.5 164t61 119.5t95.5 81t124.5 49.5t147.5 25t166 7h10q129 0 241 -16.5t195.5 -65
t131 -136t47.5 -228.5q0 -61 -11.5 -110t-32.5 -88t-51 -70t-67 -56q42 -27 73.5 -60.5t52.5 -75.5t31.5 -94.5t10.5 -117.5q0 -106 -22.5 -182t-63.5 -128.5t-98.5 -84t-126.5 -48.5t-147.5 -22.5t-162.5 -5.5h-10zM737 215q56 0 101.5 8.5t77 34.5t48.5 73t17 124
q-1 57 -9 97t-27 66t-50 38t-78 12h-172q-48 0 -79.5 -12t-50 -38t-26.5 -66t-8 -97q0 -77 17 -124t49 -73t77.5 -34.5t102.5 -8.5h10zM817 905q48 0 79 13t49 38t25 60t7 80q0 64 -16.5 104t-48 63t-76 31.5t-99.5 8.5h-10q-56 0 -100.5 -8.5t-76 -31.5t-48.5 -63t-17 -104
q0 -45 7 -80t25 -60t49 -38t79 -13h172z" />
    <glyph glyph-name="nine.oldstyle" horiz-adv-x="1409" 
d="M918 287q-27 -7 -62 -13t-72 -10t-73 -6t-64 -2q-79 0 -151.5 7t-134.5 25.5t-112.5 49.5t-86 79.5t-55 115.5t-19.5 157v64q0 144 49.5 241.5t132 156t190 83.5t224.5 25q157 0 272 -34.5t190.5 -109.5t112.5 -193t37 -284v-344q0 -144 -26 -260t-95.5 -197.5
t-191.5 -125.5t-313 -44q-79 0 -157 6.5t-145.5 15.5t-121 19t-84.5 17v239q90 -8 212.5 -16t258.5 -8q97 0 154 18.5t86 55.5t37 91.5t8 126.5v54zM918 690q0 91 -15 151t-45 95t-74 49t-102 14q-48 0 -88.5 -14t-69.5 -44t-45 -76.5t-16 -110.5v-60q0 -65 14 -105
t41.5 -63t69.5 -31t98 -8q21 0 49 1.5t58.5 4.5t62.5 7.5t62 11.5v178z" />
    <glyph glyph-name="comma.superior" horiz-adv-x="526" 
d="M86 563l107 334h233l-147 -334h-193z" />
    <glyph glyph-name="period.superior" horiz-adv-x="446" 
d="M102 692v205h242v-205h-242z" />
    <glyph glyph-name="a.superior" horiz-adv-x="870" 
d="M537 629v51q-38 -25 -96.5 -47.5t-139.5 -22.5q-105 0 -161 52t-56 155v25q0 74 28 116t77 62.5t116.5 25.5t145.5 5h63v41q0 30 -4.5 48.5t-18.5 29t-39 14.5t-67 4q-23 0 -54 -1t-64.5 -2.5t-66.5 -3.5t-59 -3v135q16 6 46.5 14t70 14.5t86.5 11.5t96 5q86 0 147 -14
t100 -46.5t57 -84.5t18 -128v-456h-225zM524 938h-69q-36 0 -62 -2.5t-42.5 -11.5t-24 -26.5t-7.5 -47.5v-23q0 -41 22 -56t56 -15q41 0 75.5 12t51.5 20v150z" />
    <glyph glyph-name="b.superior" horiz-adv-x="907" 
d="M831 958q0 -97 -25 -163.5t-73.5 -107.5t-119.5 -59t-164 -18q-40 0 -77.5 1t-77.5 3t-85 6.5t-100 10.5v964h247v-260q28 13 65 18t75 5q172 0 253.5 -81.5t81.5 -254.5v-64zM584 1022q0 45 -5.5 75t-19.5 47.5t-37 24.5t-57 7q-19 0 -52.5 -4.5t-58.5 -14.5v-360l16 -2
t18.5 -2t25.5 -1.5t37 -0.5q37 0 62 7.5t41 26t23 51t7 82.5v64z" />
    <glyph glyph-name="cent.superior" horiz-adv-x="829" 
d="M348 510v176q-62 15 -110.5 47.5t-83 84t-52.5 123.5t-18 167v80q0 179 65.5 285t198.5 137v166h223v-154q53 -2 99.5 -9t70.5 -14v-194q-46 3 -100 5.5t-102 2.5q-52 0 -86.5 -11t-55.5 -37t-30 -69.5t-9 -107.5v-80q0 -63 8 -106t28.5 -69.5t55.5 -38t89 -11.5
q24 0 51.5 0.5t55.5 2t52.5 3.5t42.5 4v-197q-26 -8 -72.5 -14.5t-97.5 -9.5v-162h-223z" />
    <glyph glyph-name="d.superior" horiz-adv-x="909" 
d="M573 629v43q-38 -25 -91 -43.5t-120 -18.5q-134 0 -210 83.5t-76 256.5v68q0 94 23.5 159t68 105.5t108 58t144.5 17.5q40 0 72 -2.5t61 -7.5v247h248v-966h-228zM557 1169q-28 5 -56 7t-48 2q-33 0 -57.5 -5.5t-40 -23t-23.5 -49t-8 -82.5v-68q0 -45 6 -75t20 -49
t36.5 -27t55.5 -8q31 0 60.5 7.5t54.5 16.5v354z" />
    <glyph glyph-name="e.superior" horiz-adv-x="883" 
d="M770 641q-22 -5 -55.5 -10t-74.5 -10t-87 -8t-94 -3q-107 0 -180 23.5t-118 68t-65 107.5t-20 141v64q0 90 25.5 155t73.5 107t116 62t153 20q108 0 178 -31t111 -81t57.5 -114.5t16.5 -130.5v-79h-485v-9q0 -28 3.5 -52.5t19.5 -43t49 -29t91 -10.5q31 0 66.5 1
t72.5 3.5t74 5.5t72 7v-154zM567 1055q0 28 -4.5 54t-17.5 45.5t-37.5 31.5t-63.5 12t-63 -12t-37 -32t-17.5 -46t-4.5 -53v-11h245v11z" />
    <glyph glyph-name="l.superior" horiz-adv-x="465" 
d="M109 629v966h247v-966h-247z" />
    <glyph glyph-name="m.superior" horiz-adv-x="1329" 
d="M971 629v454q0 23 -1 41.5t-8 31t-21.5 19.5t-41.5 7q-25 0 -55.5 -8.5t-59.5 -22.5q3 -19 3.5 -35.5t0.5 -32.5v-454h-247v454q0 23 -1.5 41.5t-8 31t-20 19.5t-38.5 7q-31 0 -62.5 -11t-54.5 -22v-520h-247v710h231v-59q46 38 105 58t122 20q69 0 111.5 -21t66.5 -59
q63 45 124 62.5t114 17.5q76 0 123 -21t72.5 -57t34 -85t8.5 -105v-461h-250z" />
    <glyph glyph-name="o.superior" horiz-adv-x="885" 
d="M809 952q0 -90 -25 -155t-72.5 -106.5t-115.5 -61t-154 -19.5t-154 19.5t-115 61t-72 106.5t-25 155v66q0 91 25 155.5t72 105.5t115 60t154 19t154 -19t115.5 -60t72.5 -105.5t25 -155.5v-66zM563 1018q0 89 -29 124.5t-92 35.5q-32 0 -55 -8.5t-37.5 -27t-21 -49
t-6.5 -75.5v-66q0 -45 6.5 -76t21 -50t37.5 -27t55 -8q63 0 92 36t29 125v66z" />
    <glyph glyph-name="r.superior" horiz-adv-x="641" 
d="M109 629v710h227v-59q28 25 58 40t61.5 23.5t62.5 11.5t60 3v-201q-60 0 -118.5 -8t-103.5 -21v-499h-247z" />
    <glyph glyph-name="s.superior" horiz-adv-x="793" 
d="M98 780q44 -3 114 -9.5t144 -6.5q63 0 86 16t23 45q0 15 -4.5 25.5t-16.5 19t-33 16.5t-53 19l-57 19q-52 17 -92.5 37t-68 47t-42 62t-14.5 81q0 62 22.5 102t63.5 63.5t98.5 32.5t128.5 9q42 0 84.5 -2.5t80.5 -6.5t69 -9.5t49 -10.5v-131q-44 3 -78.5 4.5t-63.5 2.5
t-55.5 1h-54.5q-54 0 -77 -9t-23 -40q0 -13 4 -22t14 -16.5t27 -15t43 -16.5l69 -24q61 -21 103.5 -42.5t69.5 -47.5t39 -59t12 -78q0 -116 -82 -171t-256 -55q-39 0 -80.5 3t-78.5 7.5t-67 9.5t-47 9v141z" />
    <glyph glyph-name="t.superior" horiz-adv-x="678" 
d="M606 631q-7 -2 -23.5 -5t-39.5 -7t-51 -6.5t-58 -2.5q-62 0 -106.5 13t-72.5 41t-41 72t-13 106v336l-129 12v149h129v174h245v-174h160v-161h-157v-336q0 -23 1 -37t6.5 -21.5t17 -10.5t32.5 -3q12 0 27 0.5t29 1t25.5 1t18.5 1.5v-143z" />
    <glyph glyph-name="hyphen.superior" horiz-adv-x="506" 
d="M96 1014v180h312v-180h-312z" />
    <glyph glyph-name="cent.oldstyle" horiz-adv-x="1174" 
d="M514 -231v217q-207 43 -302 180t-95 379v141q0 238 96.5 377t300.5 180v209h289v-195q34 -2 70.5 -5.5t71 -7.5t64 -9t50.5 -10v-252q-45 3 -83.5 5t-75.5 3.5t-73 2.5t-75 1q-69 0 -119.5 -13.5t-82.5 -47.5t-47.5 -92t-15.5 -146v-141q0 -89 15.5 -146t47.5 -91
t82.5 -47t119.5 -13q81 0 160 2.5t145 7.5v-250q-20 -6 -49 -11t-63.5 -9.5t-71.5 -8t-72 -6.5v-204h-287z" />
    <glyph glyph-name="hyphen.inferior" horiz-adv-x="506" 
d="M96 8v180h312v-180h-312z" />
    <glyph glyph-name="cent.inferior" horiz-adv-x="829" 
d="M348 -594v176q-62 15 -110.5 47.5t-83 84t-52.5 123.5t-18 167v80q0 180 65.5 285.5t198.5 136.5v166h223v-154q53 -2 99.5 -9t70.5 -13v-195q-46 3 -100 5.5t-102 2.5q-52 0 -86.5 -11t-55.5 -37t-30 -69.5t-9 -107.5v-80q0 -63 8 -106t28.5 -69.5t55.5 -38t89 -11.5
q24 0 51.5 0.5t55.5 2t52.5 3.5t42.5 4v-197q-26 -8 -72.5 -14.5t-97.5 -9.5v-162h-223z" />
    <glyph glyph-name="dollar.inferior" horiz-adv-x="897" 
d="M334 -594v162q-68 3 -127.5 10.5t-100.5 15.5v173q48 -5 128 -9t174 -4q79 0 109 22t30 62q0 17 -5.5 29.5t-18.5 23.5t-34.5 21t-52.5 22l-125 50q-51 20 -93 44t-72 56t-47 75t-17 101q0 110 63.5 171t188.5 81v166h229v-160q34 -2 67.5 -5.5t62 -7.5t51.5 -8.5
t38 -7.5v-172q-44 4 -88.5 7t-84 5.5t-73.5 3.5t-57 1q-65 0 -103 -15.5t-38 -56.5q0 -15 4.5 -27t16.5 -22.5t32.5 -20t52.5 -20.5l121 -43q61 -21 106.5 -46t75.5 -57t45 -74t15 -99q0 -116 -64 -186.5t-180 -90.5v-170h-229z" />
    <glyph glyph-name="period.inferior" horiz-adv-x="446" 
d="M102 -313v204h242v-204h-242z" />
    <glyph glyph-name="comma.inferior" horiz-adv-x="526" 
d="M86 -442l107 333h233l-147 -333h-193z" />
    <glyph glyph-name="commaaccent" horiz-adv-x="1006" 
d="M221 -416l137 287h369l-195 -287h-311z" />
    <glyph glyph-name="Dotaccent" horiz-adv-x="872" 
d="M252 1661v260h369v-260h-369z" />
    <glyph glyph-name="Breve" horiz-adv-x="1051" 
d="M950 1944q-10 -88 -48.5 -150t-96.5 -101t-130.5 -57t-150.5 -18q-77 0 -149 18t-130 57t-96.5 101t-48.5 150h207q6 -46 25 -76.5t47.5 -48.5t65.5 -25.5t79 -7.5q44 0 81.5 7.5t66 25.5t47.5 48.5t26 76.5h205z" />
    <glyph glyph-name="Ogonek" horiz-adv-x="938" 
d="M778 -410q-18 -5 -46 -11t-63.5 -11t-78 -8.5t-88.5 -3.5q-150 0 -229.5 50t-79.5 152q0 40 18 75.5t56 68.5t97.5 65t143.5 64h274q-98 -46 -155 -79t-85.5 -57t-36 -41.5t-7.5 -33.5q0 -37 24 -55.5t84 -18.5q45 0 88.5 3.5t83.5 6.5v-166z" />
    <glyph glyph-name="Cedilla" horiz-adv-x="930" 
d="M117 -416l215 287h379l-269 -287h-325z" />
    <glyph glyph-name="Ring" horiz-adv-x="911" 
d="M459 1581q-63 0 -117 16t-93.5 47.5t-62 77.5t-22.5 107t22.5 108.5t62 79t93.5 48t117 16.5q62 0 115 -16.5t91.5 -48t60.5 -79t22 -108.5t-22 -107t-60.5 -77.5t-91.5 -47.5t-115 -16zM459 1929q-51 0 -83 -22.5t-32 -75.5q0 -51 32 -74.5t83 -23.5q48 0 80 23.5
t32 74.5q0 52 -32.5 75t-79.5 23z" />
    <glyph glyph-name="Tilde" horiz-adv-x="1057" 
d="M997 1896q0 -77 -18 -130.5t-50.5 -88t-77 -50t-97.5 -15.5q-48 0 -99 14.5t-116 48.5l-97 54q-34 20 -59 30t-51 10q-37 0 -50.5 -24t-13.5 -72v-51h-200v51q0 77 19 131t52 88.5t78.5 50t99.5 15.5q26 0 49.5 -3t47 -10.5t49 -19t57.5 -27.5l98 -53q33 -18 59.5 -31.5
t57.5 -13.5q37 0 49.5 23.5t12.5 72.5v50h200v-50z" />
    <glyph glyph-name="Circumflex" horiz-adv-x="1116" 
d="M735 1622l-178 168l-176 -168h-313l276 299h426l277 -299h-312z" />
    <glyph glyph-name="Acute" horiz-adv-x="993" 
d="M545 1622h-334l270 299h406z" />
    <glyph glyph-name="Caron" horiz-adv-x="1116" 
d="M344 1622l-276 299h313l176 -170l178 170h312l-277 -299h-426z" />
    <glyph glyph-name="Dieresis" horiz-adv-x="1040" 
d="M639 1651v260h285v-260h-285zM117 1651v260h286v-260h-286z" />
    <glyph glyph-name="Grave" horiz-adv-x="993" 
d="M434 1622l-342 299h406l268 -299h-332z" />
    <glyph glyph-name="Hungarumlaut" horiz-adv-x="1272" 
d="M1051 1616h-308l269 299h379zM473 1616h-309l272 299h377z" />
    <glyph glyph-name="Macron" horiz-adv-x="1030" 
d="M96 1665v205h838v-205h-838z" />
    <glyph glyph-name="commaaccent.cap" horiz-adv-x="1006" 
d="M221 -416l137 287h369l-195 -287h-311z" />
    <glyph glyph-name="h.superior" horiz-adv-x="942" 
d="M584 639v442q0 63 -19.5 86t-68.5 23q-42 0 -79.5 -11t-60.5 -20v-520h-247v967h247v-287q45 22 104 35.5t118 13.5q80 0 130 -21t78 -59t38 -90.5t10 -116.5v-442h-250z" />
    <glyph glyph-name="zero.slash" horiz-adv-x="1446" 
d="M1346 668q0 -170 -37.5 -301t-114.5 -220.5t-194 -135.5t-277 -46q-112 0 -200.5 22.5t-160.5 65.5l-38 -53h-324l184 248q-43 83 -63.5 187.5t-20.5 232.5v184q0 170 37.5 301t114.5 220t194 135t277 46q111 0 200 -22t160 -66l41 56h322l-184 -252q42 -82 63 -186.5
t21 -231.5v-184zM961 862l-402 -543q31 -38 72 -52.5t92 -14.5q55 0 99 18.5t75 65t47.5 127t16.5 205.5v194zM885 1198q-29 38 -70 54t-92 16q-54 0 -98 -18.5t-75 -65t-48 -127.5t-17 -205v-197z" />
    <glyph glyph-name="perthousand.oldstyle" horiz-adv-x="2755" 
d="M2652 348q0 -87 -19.5 -156t-60.5 -117t-104.5 -73t-151.5 -25t-151.5 25t-104.5 73t-60.5 117t-19.5 156v17q0 88 19.5 157t60.5 116t104.5 72t151.5 25t151.5 -25t104.5 -72t60.5 -116t19.5 -157v-17zM2413 367q0 58 -6.5 95.5t-19 59t-30.5 29.5t-41 8q-24 0 -42 -8
t-30 -29.5t-18 -59t-6 -95.5v-19q0 -58 6 -95.5t18 -59t30 -29.5t42 -8q23 0 41 8t30.5 29.5t19 59t6.5 95.5v19zM1878 348q0 -87 -19.5 -156t-60 -117t-103.5 -73t-151 -25q-89 0 -152.5 25t-104.5 73t-60 117t-19 156v17q0 88 19 157t60 116t104.5 72t152.5 25
q88 0 151 -25t103.5 -72t60 -116t19.5 -157v-17zM1638 367q0 58 -6 95.5t-18 59t-29.5 29.5t-40.5 8q-24 0 -42 -8t-30 -29.5t-18 -59t-6 -95.5v-19q0 -58 6 -95.5t18 -59t30 -29.5t42 -8q23 0 40.5 8t29.5 29.5t18 59t6 95.5v19zM442 0l838 1237h266l-837 -1237h-267z
M774 872q0 -87 -19.5 -156t-60 -116.5t-104.5 -72.5t-152 -25t-151.5 25t-104.5 72.5t-60.5 116.5t-19.5 156v15q0 88 19.5 157.5t60.5 117.5t104.5 73t151.5 25t152 -25t104.5 -73t60 -117.5t19.5 -157.5v-15zM535 889q0 58 -6 95.5t-18.5 59t-30.5 29.5t-42 8
q-23 0 -40.5 -8t-29.5 -29.5t-18 -59t-6 -95.5v-17q0 -58 6 -95.5t18 -59t29.5 -29.5t40.5 -8q24 0 42 8t30.5 29.5t18.5 59t6 95.5v17z" />
    <glyph glyph-name="zero.taboldstyle" horiz-adv-x="1470" 
d="M1358 578q0 -300 -155.5 -456.5t-467.5 -156.5t-467 156.5t-155 456.5v71q0 300 155 455.5t467 155.5t467.5 -155.5t155.5 -455.5v-71zM973 649q0 92 -16.5 154.5t-47 100t-75 53.5t-99.5 16t-99 -16t-74.5 -53.5t-47 -100t-16.5 -154.5v-71q0 -92 16.5 -154.5t47 -100.5
t74.5 -54.5t99 -16.5t99.5 16.5t75 54.5t47 100.5t16.5 154.5v71z" />
    <glyph glyph-name="one.taboldstyle" horiz-adv-x="1470" 
d="M209 0v268l340 15v618l-342 -100v291l446 147h279v-956l332 -15v-268h-1055z" />
    <glyph glyph-name="two.taboldstyle" horiz-adv-x="1470" 
d="M170 0v283l362 206q120 69 194 120t115 93t55 79t15 77q0 36 -14 61t-46 40.5t-84.5 22.5t-129.5 7q-48 0 -107 -2.5t-120 -6t-119 -7.5t-103 -8v231q45 13 106 24.5t130 20.5t141 14t137 5q168 0 282 -23.5t184.5 -69t101 -114t30.5 -158.5q0 -82 -23 -147.5t-75.5 -125
t-138.5 -118.5t-211 -127l-172 -94h600v-283h-1110z" />
    <glyph glyph-name="three.taboldstyle" horiz-adv-x="1470" 
d="M1292 125q0 -125 -37.5 -211.5t-113 -141.5t-189.5 -79.5t-268 -24.5q-75 0 -151 7t-143.5 17.5t-122.5 22.5t-87 23v233q39 -5 92.5 -9.5t115 -9t128 -7t131.5 -2.5q67 0 117 7.5t82.5 28.5t48.5 60t16 102v35q0 42 -7.5 75t-31.5 56t-68.5 35t-117.5 12h-414v252h416
q72 0 116 13.5t68 37.5t31.5 58t7.5 76v20q0 53 -12.5 87t-43 54t-81.5 27.5t-129 7.5q-131 0 -249 -7.5t-214 -16.5v231q28 9 82 20.5t122.5 21.5t145.5 17t152 7q145 0 258 -21t191 -70.5t118.5 -130t40.5 -200.5v-23q0 -50 -9.5 -98.5t-31 -92t-56 -80t-83.5 -61.5
q50 -24 84.5 -59.5t55.5 -78t30.5 -90t9.5 -95.5v-35z" />
    <glyph glyph-name="four.taboldstyle" horiz-adv-x="1470" 
d="M791 -291v346h-699v264l756 912h326v-914h202v-262h-202v-346h-383zM809 827l-412 -510h412v510z" />
    <glyph glyph-name="five.taboldstyle" horiz-adv-x="1470" 
d="M1296 160q0 -134 -42.5 -226.5t-122 -150.5t-193.5 -83.5t-256 -25.5q-85 0 -163.5 6.5t-144.5 16t-116.5 20t-79.5 19.5v237q50 -6 99.5 -11t101 -9t107.5 -6t118 -2q85 0 143.5 10t94.5 35t51.5 65.5t15.5 102.5v41q0 55 -13 92.5t-46.5 60t-91.5 32t-148 9.5h-417
l71 840h983v-275h-676l-26 -305h143q174 0 290.5 -26.5t187 -81.5t100.5 -140.5t30 -203.5v-41z" />
    <glyph glyph-name="six.taboldstyle" horiz-adv-x="1470" 
d="M1339 471q0 -97 -22.5 -172.5t-62.5 -131.5t-96 -94.5t-122 -62.5t-140.5 -34.5t-152.5 -10.5q-157 0 -272.5 35t-191 111t-112 196t-36.5 289v340q0 97 11 180.5t38 152t72.5 121.5t115 89.5t165 55.5t223.5 19q80 0 158 -6t145.5 -14.5t120.5 -18.5t84 -18v-240
q-110 10 -221 17.5t-242 7.5q-100 0 -158 -18t-88 -54.5t-38.5 -91.5t-8.5 -129v-51q28 7 63 12.5t71.5 9.5t71.5 6.5t64 2.5q120 0 222.5 -17t178 -65t118 -132.5t42.5 -219.5v-64zM963 528q0 64 -14 104.5t-42 63.5t-70 31t-98 8q-21 0 -48.5 -1t-58 -4t-62.5 -7.5
t-62 -11.5v-176q0 -92 15.5 -152t45.5 -95t73.5 -49t100.5 -14q48 0 88 14t69.5 44t46 76t16.5 110v59z" />
    <glyph glyph-name="seven.taboldstyle" horiz-adv-x="1470" 
d="M238 -289l700 1247h-762v275h1139v-303l-672 -1219h-405z" />
    <glyph glyph-name="eight.taboldstyle" horiz-adv-x="1470" 
d="M1360 436q0 -106 -22.5 -182t-63.5 -128.5t-98.5 -84t-126.5 -48.5t-147.5 -22.5t-162.5 -5.5h-10q-84 0 -162.5 5.5t-147.5 22.5t-126 48.5t-98 84t-63.5 128.5t-22.5 182v15q0 119 41.5 198.5t125.5 134.5q-38 25 -68.5 56t-51.5 70t-32 88t-11 110v18
q0 135 47.5 218.5t130.5 130t195.5 63t242.5 16.5h10q129 0 241.5 -16.5t196 -63t131.5 -130t48 -218.5v-18q0 -61 -11.5 -110t-32.5 -88t-51.5 -70t-68.5 -56q85 -55 126.5 -134.5t41.5 -198.5v-15zM985 455q-1 57 -9 97t-27 66t-50.5 38t-79.5 12h-172q-47 0 -78.5 -12
t-50.5 -38t-27 -66t-8 -97v-15q0 -71 17 -115t49 -68.5t77.5 -33t102.5 -8.5h10q56 0 101.5 8.5t77.5 33t49.5 68.5t17.5 115v15zM981 1114q0 57 -17 93.5t-48.5 58t-76.5 29.5t-100 8h-10q-55 0 -100 -8t-76.5 -29.5t-48.5 -58t-17 -93.5v-18q0 -45 7 -80t25 -60t49 -38
t79 -13h172q48 0 79 13t49.5 38t26 60t7.5 80v18z" />
    <glyph glyph-name="nine.taboldstyle" horiz-adv-x="1470" 
d="M961 287q-28 -7 -63 -13t-72 -10t-72.5 -6t-63.5 -2q-120 0 -222 17t-177 65t-117.5 132.5t-42.5 219.5v64q0 144 49.5 241.5t132 156t190 83.5t224.5 25q157 0 272 -34.5t190.5 -109.5t112.5 -193t37 -284v-344q0 -144 -26 -260t-95.5 -197.5t-191.5 -125.5t-313 -44
q-80 0 -158 6.5t-145.5 15.5t-120.5 19t-84 17v239q90 -8 212.5 -16t258.5 -8q97 0 153.5 18.5t85.5 55.5t37.5 91.5t8.5 126.5v54zM961 690q0 91 -15.5 151t-45.5 95t-74.5 49t-102.5 14q-48 0 -87.5 -14t-68.5 -44t-45 -76.5t-16 -110.5v-60q0 -65 14 -105t41.5 -63
t69.5 -31t98 -8q21 0 49 1.5t58.5 4.5t62.5 7.5t62 11.5v178z" />
    <glyph glyph-name="colonmonetary.taboldstyle" horiz-adv-x="1272" 
d="M782 -217v186h-28q-66 0 -121 6v-192h-174v240q-153 57 -223 186t-70 338v139q0 206 71 336t222 188v226h174v-181q26 4 58 6.5t63 2.5h28v172h176v-187q44 -5 81.5 -11.5t66.5 -12.5v-256q-89 6 -160.5 10t-144.5 4q-69 0 -118.5 -13t-81.5 -47t-47 -91.5t-15 -145.5
v-139q0 -89 15 -146.5t47 -91t81.5 -46.5t118.5 -13q80 0 160 2.5t145 7.5v-252q-25 -8 -64.5 -13.5t-83.5 -10.5v-201h-176z" />
    <glyph glyph-name="Euro.taboldstyle" horiz-adv-x="1329" 
d="M1184 2q-28 -7 -72 -13.5t-93.5 -12t-99 -8.5t-88.5 -3q-133 0 -235 23t-174 75.5t-114 138.5t-54 212h-107v135h101v121h-101v135h105q12 130 53.5 218.5t113.5 141.5t175 76t237 23q42 0 90 -3t95 -8t90.5 -11t77.5 -13v-248q-71 6 -147 10t-148 4q-62 0 -108 -7.5
t-77.5 -28.5t-49.5 -58t-25 -96h487l-31 -135h-467v-121h439l-31 -135h-397q5 -53 22.5 -88.5t48 -56.5t75 -29.5t104.5 -8.5q74 0 152 4t153 9v-242z" />
    <glyph glyph-name="florin.taboldstyle" horiz-adv-x="1278" 
d="M809 537l-59 -469q-11 -89 -40 -148t-74 -94t-104 -49.5t-129 -14.5q-81 0 -139.5 8t-109.5 19l26 195q20 -1 35.5 -1.5t30.5 -1t30.5 -1t34.5 -0.5q27 0 44.5 5.5t29 17.5t18 31t11.5 46l57 457h-209l29 225h211l28 201q12 90 42.5 147.5t76.5 91.5t105 47t127 13
q80 0 136 -8t105 -19l-20 -193q-35 2 -65 3.5t-64 1.5q-24 0 -41.5 -3.5t-30.5 -13.5t-21 -28.5t-14 -49.5l-26 -190h235l-28 -225h-238z" />
    <glyph glyph-name="numbersign.taboldstyle" horiz-adv-x="1432" 
d="M750 0l32 283h-217l-33 -283h-276l33 283h-135v200h157l29 244h-186v203h211l36 303h277l-37 -303h215l37 303h276l-36 -303h143v-203h-166l-29 -244h195v-200h-217l-33 -283h-276zM834 727h-218l-28 -244h217z" />
    <glyph glyph-name="sterling.taboldstyle" horiz-adv-x="1286" 
d="M205 0v207q43 38 62.5 79.5t19.5 94.5v135h-127v229h127v82q0 118 27 200.5t83 134.5t143.5 76t209.5 24q100 0 192 -9t184 -26v-242q-89 9 -162 12.5t-135 3.5q-61 0 -99.5 -7t-60 -26.5t-29 -53.5t-7.5 -87v-82h332v-229h-332v-135q0 -42 -8 -70.5t-25 -54.5h526v-256
h-921z" />
    <glyph glyph-name="yen.taboldstyle" horiz-adv-x="1456" 
d="M903 299v-299h-350v299h-428v184h403l-84 158h-319v184h223l-217 408h379l145 -311q19 -41 36 -83t36 -87h2q17 45 35 87t37 83l145 311h383l-221 -408h227v-184h-323l-86 -158h409v-184h-432z" />
    <glyph glyph-name="dollar.taboldstyle" horiz-adv-x="1315" 
d="M520 -217v190q-48 3 -95 6.5t-89 8.5t-77.5 10.5t-61.5 11.5v236q42 -2 86.5 -5t94.5 -5.5t106.5 -4.5t121.5 -2q94 0 139.5 25t45.5 82q0 22 -6.5 39t-25 32.5t-51 31.5t-83.5 36l-146 55q-75 29 -134 61t-99.5 75t-62 100.5t-21.5 138.5q0 156 91 239.5t267 106.5v185
h285v-179q96 -6 177.5 -17.5t129.5 -22.5v-226q-48 2 -94.5 5t-95.5 5.5t-103 4.5t-117 2q-43 0 -76.5 -3.5t-57 -13t-36 -27t-12.5 -44.5q0 -20 6 -36.5t22.5 -31.5t45.5 -30.5t76 -33.5l151 -59q88 -32 150.5 -66t103 -78.5t59.5 -103t19 -139.5q0 -153 -90 -243.5
t-258 -116.5v-199h-285z" />
    <glyph glyph-name="cent.taboldstyle" horiz-adv-x="1272" 
d="M563 -231v217q-206 43 -301.5 180t-95.5 379v141q0 238 95.5 377t301.5 180v209h289v-195q33 -2 69.5 -5.5t71 -7.5t64 -9t49.5 -10v-250q-46 2 -85 4t-75 3.5t-71.5 2t-73.5 0.5q-69 0 -119 -13.5t-82.5 -47.5t-47.5 -92t-15 -146v-141q0 -89 15 -146t47.5 -91t82.5 -47
t119 -13q81 0 159 2.5t146 7.5v-250q-20 -6 -49 -11t-63.5 -9.5t-71.5 -8t-72 -6.5v-204h-287z" />
    <glyph glyph-name="zero.denominator" horiz-adv-x="1006" 
d="M909 422q0 -214 -98 -328t-305 -114q-208 0 -306 114t-98 328v72q0 213 98 327.5t306 114.5q207 0 305 -114.5t98 -327.5v-72zM643 494q0 76 -10 124t-28 75t-43 36.5t-56 9.5q-32 0 -57 -9.5t-43 -36.5t-27.5 -75t-9.5 -124v-74q0 -76 9.5 -124t27.5 -75t43 -37t57 -10
q31 0 56 10t43 37t28 75t10 124v74z" />
    <glyph glyph-name="one.denominator" horiz-adv-x="834" 
d="M127 0v174l164 8v504l-166 -53v196l242 91h190v-738l166 -8v-174h-596z" />
    <glyph glyph-name="two.denominator" horiz-adv-x="930" 
d="M102 0v113q0 86 15.5 147.5t50 108.5t89 85t132.5 76q60 29 94.5 49t52.5 36t22.5 32t4.5 37q0 41 -33 58.5t-120 17.5q-39 0 -83 -1.5t-85 -4t-74.5 -5t-50.5 -4.5v154q27 8 67.5 14.5t86.5 11.5t94 8t90 3q195 0 284.5 -58.5t89.5 -185.5q0 -48 -14 -87.5t-45.5 -74
t-82.5 -66t-126 -65.5q-66 -30 -105.5 -52t-61 -44t-28 -47t-6.5 -61v-9h451v-186h-709z" />
    <glyph glyph-name="three.denominator" horiz-adv-x="922" 
d="M821 256q0 -75 -23.5 -127.5t-71 -85.5t-120.5 -48t-172 -15q-48 0 -98.5 3.5t-95.5 9.5t-80.5 13t-53.5 14v152q17 -2 52 -4t77 -3.5t86.5 -3t81.5 -1.5q41 0 70.5 4t48.5 15.5t28 32.5t9 56v19q0 23 -4.5 41t-19 30t-41.5 18.5t-72 6.5h-258v166h260q44 0 70.5 7.5
t41 20.5t19 31.5t4.5 40.5v13q0 27 -7.5 45.5t-25.5 30t-48 16t-75 4.5q-80 0 -158.5 -5.5t-138.5 -9.5v152q19 7 55 14t80.5 13t94.5 10t98 4q91 0 163 -12.5t122 -42.5t76 -78.5t26 -120.5v-12q0 -59 -25.5 -114.5t-86.5 -86.5q31 -15 52.5 -36.5t35 -47t19 -54.5t5.5 -57
v-18z" />
    <glyph glyph-name="four.denominator" horiz-adv-x="971" 
d="M504 0v201h-436v168l483 546h215v-542h123v-172h-123v-201h-262zM518 651l-244 -278h244v278z" />
    <glyph glyph-name="five.denominator" horiz-adv-x="924" 
d="M823 279q0 -83 -27.5 -140t-78 -92t-122.5 -51t-161 -16q-55 0 -105.5 3.5t-93.5 9t-76 12t-53 11.5v158q42 -5 75.5 -8t65 -5.5t62.5 -3.5t68 -1q51 0 85.5 6t55.5 19.5t30 36t9 56.5v21q0 31 -7.5 51t-27.5 32t-54 16.5t-87 4.5h-268l47 516h635v-180h-426l-17 -166h88
q109 0 182.5 -15t118 -48t63.5 -85t19 -126v-16z" />
    <glyph glyph-name="six.denominator" horiz-adv-x="977" 
d="M872 287q0 -87 -30.5 -146t-83 -94.5t-122.5 -51t-149 -15.5q-106 0 -180.5 23t-122 71t-69 121.5t-21.5 173.5v178q0 90 16.5 162t61 122.5t122.5 77.5t200 27q51 0 101.5 -4t94.5 -10t78.5 -12.5t54.5 -10.5v-158q-30 3 -66 5t-75 4t-79 3t-77 1q-58 0 -92 -9.5
t-52 -29t-23 -49.5t-5 -72v-27q16 5 36.5 8.5t42.5 6t43 3.5t38 1q77 0 142.5 -10.5t113.5 -39.5t75 -81.5t27 -137.5v-30zM612 315q0 37 -8 60.5t-24 36.5t-40 17.5t-55 4.5q-24 0 -60.5 -3t-70.5 -11v-94q0 -54 9 -88.5t26 -55t42.5 -28t57.5 -7.5q54 0 88.5 32t34.5 108
v28z" />
    <glyph glyph-name="seven.denominator" horiz-adv-x="918" 
d="M133 0l436 735h-456v180h716v-196l-419 -719h-277z" />
    <glyph glyph-name="eight.denominator" horiz-adv-x="1008" 
d="M899 260q0 -95 -31.5 -150.5t-86.5 -84t-129 -37t-158 -8.5q-83 0 -155.5 8.5t-127 37t-86 84t-31.5 150.5v12q0 70 26 117.5t79 81.5q-48 31 -75.5 77t-27.5 118v12q0 81 31 131t85 78.5t128 38.5t160 10q84 0 156.5 -10t126 -38.5t84 -78.5t30.5 -131v-12
q0 -72 -26 -118t-74 -77q52 -34 77 -81.5t25 -117.5v-12zM643 274q0 64 -19.5 92.5t-74.5 28.5h-103q-55 0 -74.5 -28t-19.5 -93v-8q0 -39 10 -63.5t29 -38t46.5 -18.5t62.5 -5q33 0 59.5 5t45 18.5t28.5 38t10 63.5v8zM639 668q0 61 -38 82.5t-107 21.5q-65 0 -102.5 -21.5
t-37.5 -82.5v-11q0 -50 18.5 -79t73.5 -29h103q28 0 45.5 7.5t27.5 21.5t13.5 34t3.5 45v11z" />
    <glyph glyph-name="nine.denominator" horiz-adv-x="977" 
d="M872 365q0 -89 -16 -160t-60 -121t-121.5 -77t-199.5 -27q-51 0 -101.5 3.5t-95 8.5t-79.5 11t-56 11v158q28 -2 64 -4.5t76 -4.5t81.5 -3.5t81.5 -1.5q56 0 89.5 10t51 30t22.5 50t5 71v27q-16 -4 -37 -7t-42.5 -5t-42.5 -3t-37 -1q-78 0 -144 10t-114 39t-75.5 81
t-27.5 136v33q0 85 30.5 143.5t83 95t123 52.5t150.5 16q106 0 180.5 -23.5t121 -72t68 -122t21.5 -173.5v-180zM614 590q0 54 -9 88t-26 53.5t-42.5 27t-59.5 7.5q-27 0 -49.5 -7.5t-39 -24t-25.5 -42.5t-9 -63v-31q0 -36 8 -59t23.5 -35.5t39 -17.5t54.5 -5q26 0 63.5 3
t71.5 10v96z" />
    <glyph glyph-name="comma.denominator" horiz-adv-x="526" 
d="M86 -119l107 334h233l-147 -334h-193z" />
    <glyph glyph-name="period.denominator" horiz-adv-x="446" 
d="M102 10v205h242v-205h-242z" />
    <glyph glyph-name="cent.denominator" horiz-adv-x="829" 
d="M348 -172v176q-62 15 -110.5 47.5t-83 84t-52.5 123.5t-18 167v80q0 179 65.5 285t198.5 137v166h223v-154q53 -2 99.5 -9t70.5 -13v-195q-46 3 -100 5.5t-102 2.5q-52 0 -86.5 -11t-55.5 -37t-30 -69.5t-9 -107.5v-80q0 -63 8 -106t28.5 -69.5t55.5 -38t89 -11.5
q24 0 51.5 0.5t55.5 2t52.5 3.5t42.5 4v-197q-26 -8 -72.5 -14.5t-97.5 -9.5v-162h-223z" />
    <glyph glyph-name="dollar.denominator" horiz-adv-x="897" 
d="M334 -172v162q-68 3 -127.5 10.5t-100.5 15.5v172q48 -5 128 -8.5t174 -3.5q79 0 109 22t30 62q0 17 -5.5 29.5t-18.5 23.5t-34.5 21t-52.5 22l-125 50q-51 20 -93 44t-72 56t-47 75t-17 101q0 109 63.5 170.5t188.5 81.5v166h229v-160q34 -2 67.5 -5.5t62 -7.5
t51.5 -8.5t38 -7.5v-172q-44 4 -88.5 7t-84 5.5t-73.5 3.5t-57 1q-65 0 -103 -15.5t-38 -56.5q0 -15 4.5 -27t16.5 -22.5t32.5 -20t52.5 -20.5l121 -43q61 -21 106.5 -46t75.5 -57t45 -74.5t15 -99.5q0 -115 -64 -185.5t-180 -90.5v-170h-229z" />
    <glyph glyph-name="hyphen.denominator" horiz-adv-x="506" 
d="M96 332v180h312v-180h-312z" />
    <glyph glyph-name="parenleft.denominator" horiz-adv-x="588" 
d="M274 -152q-30 41 -59.5 96.5t-53 123.5t-38 148t-14.5 169v10q0 89 14.5 169t38 149t53 125t59.5 98h230q-32 -49 -60 -108t-49 -127t-33 -144.5t-12 -161.5v-10q0 -84 12 -160.5t33 -144t49 -126t60 -106.5h-230z" />
    <glyph glyph-name="parenright.denominator" horiz-adv-x="588" 
d="M84 -152q31 48 59 106.5t49 126t33.5 144t12.5 160.5v10q0 85 -12.5 161.5t-33.5 144.5t-49 127t-59 108h227q30 -42 60 -98t54 -125t39 -149t15 -169v-10q0 -89 -15 -169t-39 -148t-54 -123.5t-60 -96.5h-227z" />
    <glyph glyph-name="zero.numerator" horiz-adv-x="1006" 
d="M909 1040q0 -213 -98 -327.5t-305 -114.5q-208 0 -306 114.5t-98 327.5v72q0 214 98 328t306 114q207 0 305 -114t98 -328v-72zM643 1112q0 77 -10 125t-28 75t-43 36.5t-56 9.5q-32 0 -57 -9.5t-43 -36.5t-27.5 -75t-9.5 -125v-74q0 -76 9.5 -123.5t27.5 -74.5t43 -37
t57 -10q31 0 56 10t43 37t28 74.5t10 123.5v74z" />
    <glyph glyph-name="one.numerator" horiz-adv-x="834" 
d="M127 618v175l164 8v504l-166 -54v197l242 90h190v-737l166 -8v-175h-596z" />
    <glyph glyph-name="two.numerator" horiz-adv-x="930" 
d="M102 618v113q0 86 15.5 148t50 109t89 85t132.5 76q60 29 94.5 48.5t52.5 36t22.5 32t4.5 37.5q0 21 -7.5 35t-25.5 23t-47.5 13t-72.5 4q-39 0 -83 -1.5t-85 -4t-74.5 -5t-50.5 -3.5v154q27 7 67.5 14t86.5 11.5t94 7.5t90 3q195 0 284.5 -58t89.5 -185q0 -48 -14 -87.5
t-45.5 -74t-82.5 -66t-126 -65.5q-66 -30 -105.5 -52.5t-61 -44t-28 -47t-6.5 -61.5v-8h451v-187h-709z" />
    <glyph glyph-name="three.numerator" horiz-adv-x="922" 
d="M106 791q17 -2 52 -4t77 -4t86.5 -3.5t81.5 -1.5q41 0 70.5 4t48.5 16t28 33t9 56q0 30 -4.5 51.5t-19 35.5t-41.5 20.5t-72 6.5h-258v166h260q44 0 70.5 7.5t41 22t19 35.5t4.5 48q0 28 -7.5 46.5t-25.5 29.5t-48 15.5t-75 4.5q-80 0 -158.5 -5.5t-138.5 -8.5v151
q19 7 55 14.5t80.5 13.5t94.5 9.5t98 3.5q91 0 163 -12.5t122 -43.5t76 -82t26 -128q0 -59 -25.5 -114.5t-86.5 -86.5q31 -14 52.5 -35.5t35 -47t19 -54.5t5.5 -57q0 -81 -23.5 -137.5t-71 -91.5t-120.5 -50.5t-172 -15.5q-48 0 -98.5 4t-95.5 10t-80.5 13t-53.5 14v152z
" />
    <glyph glyph-name="four.numerator" horiz-adv-x="971" 
d="M504 618v201h-436v168l483 547h215v-543h123v-172h-123v-201h-262zM518 1270l-244 -279h244v279z" />
    <glyph glyph-name="five.numerator" horiz-adv-x="924" 
d="M106 793q42 -5 75.5 -8.5t65 -6t62.5 -3.5t68 -1q51 0 85.5 6t55.5 22t30 43t9 68q0 31 -7.5 51t-27.5 32t-54 17t-87 5h-268l47 516h635v-180h-426l-17 -166h88q109 0 182.5 -15.5t118 -48.5t63.5 -85t19 -126q0 -88 -27.5 -148.5t-78 -97.5t-122.5 -53t-161 -16
q-55 0 -105.5 4t-93.5 9.5t-76 12t-53 11.5v158z" />
    <glyph glyph-name="six.numerator" horiz-adv-x="977" 
d="M872 905q0 -87 -30.5 -145.5t-83 -94.5t-122.5 -51.5t-149 -15.5q-106 0 -180.5 23.5t-122 71.5t-69 121t-21.5 173v178q0 90 16.5 162t61 122.5t122.5 77.5t200 27q51 0 101.5 -4t94.5 -9.5t78.5 -12t54.5 -10.5v-158q-30 2 -66 4.5t-75 4t-79 2.5t-77 1q-58 0 -92 -9.5
t-52 -29t-23 -49.5t-5 -72v-26q16 4 36.5 7.5t42.5 6t43 3.5t38 1q77 0 142.5 -10t113.5 -39.5t75 -82t27 -136.5v-31zM612 934q0 37 -8 60t-24 36t-40 18t-55 5q-24 0 -60.5 -3.5t-70.5 -11.5v-94q0 -54 9 -88.5t26 -54.5t42.5 -27.5t57.5 -7.5q54 0 88.5 32t34.5 107v29z
" />
    <glyph glyph-name="seven.numerator" horiz-adv-x="918" 
d="M133 618l436 736h-456v180h716v-197l-419 -719h-277z" />
    <glyph glyph-name="eight.numerator" horiz-adv-x="1008" 
d="M795 1090q52 -32 78 -81t26 -118q0 -98 -31.5 -156t-86.5 -88.5t-129 -39.5t-158 -9q-83 0 -155.5 9t-127 39.5t-86 88.5t-31.5 156q0 69 26 118t77 81q-24 16 -43 35.5t-31.5 44.5t-19.5 56.5t-7 71.5q0 80 31 130t85 78t128 38t160 10q84 0 156 -10t125 -39.5t83.5 -82
t30.5 -136.5q0 -71 -26 -117.5t-74 -78.5zM444 1016q-54 0 -74 -29t-20 -92q0 -42 10 -68.5t29.5 -40.5t47.5 -19t63 -5q33 0 59.5 5t45 19t28.5 40.5t10 68.5q0 63 -20 92t-76 29h-103zM547 1169q55 0 73.5 28.5t18.5 78.5q0 35 -9.5 57.5t-28.5 35t-46 17.5t-61 5
q-32 0 -58.5 -5t-45 -17.5t-28.5 -35t-10 -57.5q0 -25 4 -44.5t14.5 -33.5t28.5 -21.5t45 -7.5h103z" />
    <glyph glyph-name="nine.numerator" horiz-adv-x="977" 
d="M872 983q0 -88 -16 -159t-60 -121.5t-121.5 -77.5t-199.5 -27q-51 0 -101.5 3.5t-95 8.5t-79.5 11t-56 12v158q28 -3 64 -5.5t76 -4.5t81.5 -3.5t81.5 -1.5q56 0 89.5 10t51 30t22.5 50.5t5 71.5v27q-16 -4 -37 -7t-42.5 -5.5t-42.5 -3.5t-37 -1q-78 0 -144 10t-114 39
t-75.5 81t-27.5 136v33q0 85 30.5 144t83 95t123 52t150.5 16q106 0 180.5 -23.5t121 -72t68 -122t21.5 -173.5v-180zM614 1208q0 54 -9 88t-26 53.5t-42.5 27t-59.5 7.5q-27 0 -49.5 -7.5t-39 -24t-25.5 -42.5t-9 -63v-30q0 -36 8 -59t23.5 -36t39 -17.5t54.5 -4.5
q26 0 63.5 3t71.5 9v96z" />
    <glyph glyph-name="comma.numerator" horiz-adv-x="526" 
d="M86 500l107 334h233l-147 -334h-193z" />
    <glyph glyph-name="period.numerator" horiz-adv-x="446" 
d="M102 629v205h242v-205h-242z" />
    <glyph glyph-name="cent.numerator" horiz-adv-x="829" 
d="M348 446v177q-62 15 -110.5 47.5t-83 83.5t-52.5 123t-18 167v80q0 180 65.5 285.5t198.5 136.5v166h223v-153q53 -2 99.5 -9.5t70.5 -13.5v-195q-46 4 -100 6.5t-102 2.5q-52 0 -86.5 -11t-55.5 -37.5t-30 -70t-9 -107.5v-80q0 -63 8 -106t28.5 -69.5t55.5 -38t89 -11.5
q24 0 51.5 0.5t55.5 2t52.5 3.5t42.5 4v-196q-26 -8 -72.5 -15t-97.5 -10v-162h-223z" />
    <glyph glyph-name="dollar.numerator" horiz-adv-x="897" 
d="M334 446v162q-68 3 -127.5 11t-100.5 16v172q48 -5 128 -8.5t174 -3.5q79 0 109 21.5t30 62.5q0 17 -5.5 29.5t-18.5 23t-34.5 21t-52.5 22.5l-125 49q-51 20 -93 44t-72 56.5t-47 75.5t-17 100q0 110 63.5 171t188.5 81v166h229v-159q34 -3 67.5 -6.5t62 -7.5t51.5 -8
t38 -7v-172q-44 4 -88.5 7t-84 5t-73.5 3t-57 1q-65 0 -103 -15t-38 -56q0 -15 4.5 -27.5t16.5 -23t32.5 -20t52.5 -20.5l121 -43q61 -21 106.5 -46t75.5 -57t45 -74t15 -99q0 -116 -64 -186.5t-180 -90.5v-170h-229z" />
    <glyph glyph-name="hyphen.numerator" horiz-adv-x="506" 
d="M96 950v180h312v-180h-312z" />
    <glyph glyph-name="parenleft.numerator" horiz-adv-x="588" 
d="M274 467q-30 40 -59.5 95.5t-53 124t-38 148.5t-14.5 169v10q0 89 14.5 169t38 148.5t53 125t59.5 97.5h230q-32 -49 -60 -108t-49 -127t-33 -144.5t-12 -160.5v-10q0 -85 12 -161t33 -143.5t49 -126t60 -106.5h-230z" />
    <glyph glyph-name="parenright.numerator" horiz-adv-x="588" 
d="M84 467q31 48 59 106.5t49 126t33.5 143.5t12.5 161v10q0 84 -12.5 160.5t-33.5 144.5t-49 127t-59 108h227q30 -41 60 -97.5t54 -125t39 -148.5t15 -169v-10q0 -89 -15 -169t-39 -148.5t-54 -124t-60 -95.5h-227z" />
    <glyph glyph-name="parenleft.cap" horiz-adv-x="692" 
d="M340 0q-40 53 -82 131t-76 175.5t-56 211t-22 238.5v12q0 124 22 237t56 209.5t76 174.5t82 133h278q-45 -73 -83 -158.5t-66 -181t-43.5 -199.5t-15.5 -215v-12q0 -111 15 -214.5t42.5 -198.5t65.5 -181t85 -162h-278z" />
    <glyph glyph-name="parenright.cap" horiz-adv-x="692" 
d="M96 0q96 153 152.5 342.5t56.5 413.5v12q0 111 -15.5 215t-43.5 199.5t-66.5 181t-83.5 158.5h281q39 -55 80.5 -133t75 -174.5t55.5 -209.5t22 -237v-12q0 -125 -22 -238.5t-55.5 -211t-75 -175.5t-80.5 -131h-281z" />
    <glyph glyph-name="bracketleft.cap" horiz-adv-x="748" 
d="M137 0v1522h520v-232h-211v-1061h211v-229h-520z" />
    <glyph glyph-name="bracketright.cap" horiz-adv-x="748" 
d="M90 0v229h211v1061h-211v232h520v-1522h-520z" />
    <glyph glyph-name="braceleft.cap" horiz-adv-x="799" 
d="M606 0q-128 0 -211 16.5t-131 55.5t-67 103t-19 159v166q0 40 -6 67.5t-18 47.5t-30.5 35.5t-43.5 31.5v158q25 16 43.5 31t30.5 34.5t18 47t6 69.5v164q0 97 19 161.5t67 103.5t131 55t211 16h107v-234h-103q-40 0 -64 -3t-36.5 -13.5t-16.5 -31t-4 -54.5v-164
q0 -54 -7 -93.5t-22 -70t-38 -54t-55 -44.5q32 -22 55 -45.5t38 -53.5t22 -69t7 -92v-166q0 -35 4 -55t16.5 -31t36.5 -14t64 -3h103v-231h-107z" />
    <glyph glyph-name="braceright.cap" horiz-adv-x="799" 
d="M80 0v231h102q40 0 63.5 3t36 14t16 31t3.5 55v166q0 53 7.5 92t23 69t39 53.5t55.5 45.5q-33 21 -56.5 44.5t-38 54t-21.5 70t-7 93.5v164q0 34 -4 54.5t-16.5 31t-36.5 13.5t-64 3h-102v234h104q129 0 212.5 -16t131.5 -55t67 -103.5t19 -161.5v-164q0 -42 5.5 -69.5
t17.5 -47t31 -34.5t45 -31v-158q-26 -16 -45 -31.5t-31 -35.5t-17.5 -47.5t-5.5 -67.5v-166q0 -95 -19 -159t-67 -103t-131.5 -55.5t-212.5 -16.5h-104z" />
    <glyph glyph-name="exclamdown.cap" horiz-adv-x="676" 
d="M162 1186v336h366v-336h-366zM147 -74l35 1141h330l33 -1141h-398z" />
    <glyph glyph-name="questiondown.cap" horiz-adv-x="1108" 
d="M1044 -35q-88 -31 -203.5 -48t-242.5 -17q-239 0 -362 81t-123 261v16q0 51 10.5 97t35 92t65.5 94.5t102 105.5q71 71 113.5 120.5t64.5 89t28.5 75t6.5 78.5v53h309v-53q0 -65 -4 -117t-20 -100.5t-47 -97.5t-85 -107q-48 -52 -79.5 -91t-50 -70t-25.5 -57.5t-7 -54.5
v-12q0 -36 12 -59.5t36.5 -37t62 -19t88.5 -5.5q35 0 74.5 1.5t80.5 3.5t81.5 5.5t78.5 6.5v-234zM514 1186v336h356v-336h-356z" />
    <glyph glyph-name="guillemotleft.cap" horiz-adv-x="1583" 
d="M1118 324l-315 454l315 453h369l-307 -453l307 -454h-369zM410 324l-316 454l316 453h368l-307 -453l307 -454h-368z" />
    <glyph glyph-name="guillemotright.cap" horiz-adv-x="1583" 
d="M807 324l303 454l-303 453h367l315 -453l-315 -454h-367zM96 324l307 454l-307 453h367l317 -453l-317 -454h-367z" />
    <glyph glyph-name="guilsinglleft.cap" horiz-adv-x="870" 
d="M406 324l-312 454l312 453h368l-303 -453l303 -454h-368z" />
    <glyph glyph-name="guilsinglright.cap" horiz-adv-x="870" 
d="M94 324l303 454l-303 453h369l311 -453l-311 -454h-369z" />
    <glyph glyph-name="hyphen.cap" horiz-adv-x="731" 
d="M117 680v221h495v-221h-495z" />
    <glyph glyph-name="endash.cap" horiz-adv-x="930" 
d="M117 680v221h694v-221h-694z" />
    <glyph glyph-name="emdash.cap" horiz-adv-x="1278" 
d="M117 680v221h1042v-221h-1042z" />
    <glyph glyph-name="periodcentered.cap" horiz-adv-x="618" 
d="M147 614v336h322v-336h-322z" />
    <glyph glyph-name="at.cap" horiz-adv-x="1810" 
d="M1223 -10q-21 -4 -62.5 -9.5t-94 -11t-112 -9t-116.5 -3.5q-191 0 -331.5 37t-232.5 111t-137 184t-45 256q0 80 8.5 157.5t22.5 143.5q70 350 288 527t582 177q166 0 299.5 -38.5t227 -115t144 -189.5t50.5 -263q0 -146 -40 -268t-131.5 -209.5t-240.5 -136.5t-368 -49
q-122 0 -210.5 18t-146.5 57.5t-86 101.5t-28 150q0 17 0.5 38t2 43.5t3.5 44.5t4 40q12 116 47 196.5t92 131t136.5 73.5t181.5 23q105 0 200 -13t173 -32l-68 -647q74 19 127.5 57.5t88 95t51 128.5t16.5 159q0 115 -35.5 200.5t-104 142t-169 84.5t-230.5 28
q-281 0 -445 -147t-221 -439q-12 -62 -19 -130t-7 -140q0 -116 31 -201t97.5 -140.5t170.5 -82.5t250 -27q58 0 118.5 2t113.5 5t94 6t61 6v-123zM1014 993q-20 3 -47.5 4.5t-48.5 1.5q-39 0 -70 -8.5t-54 -34.5t-38.5 -74t-22.5 -126q-5 -56 -6.5 -90.5t-1.5 -59.5
q0 -40 9 -66.5t29.5 -42.5t52.5 -23t77 -7h35t35 2z" />
    <glyph glyph-name="T_h" horiz-adv-x="2484" 
d="M1991 0v735q0 57 -8 94.5t-26 59t-47 30.5t-71 9q-34 0 -67.5 -5t-64 -12.5t-57 -17.5t-46.5 -19v-874h-359v1241h-366v-1241h-383v1241h-443v281h1551v-404q34 17 74.5 31.5t85 25.5t92.5 17t96 6q121 0 198 -33.5t120.5 -94.5t60 -145t16.5 -186v-739h-356z" />
    </font>
</defs>
</svg>
