<svg width="665" height="544" viewBox="0 0 665 544" fill="none" xmlns="http://www.w3.org/2000/svg">
<path d="M435.735 254.554C439.199 250.77 443.923 250.77 447.391 254.554C448.83 256.065 450.797 257.062 452.131 255.801L452.668 255.221C454.006 253.997 453.579 249.355 451.046 246.587C445.406 240.424 437.721 240.424 432.076 246.587C429.548 249.345 429.121 253.988 430.459 255.221C430.637 255.417 430.814 255.609 430.996 255.801C432.33 257.081 434.292 256.065 435.735 254.554Z" fill="#1A3C47"/>
<path d="M466.3 298.483C466.607 298.319 466.836 298.041 466.939 297.708C467.041 297.376 467.008 297.017 466.847 296.708L464.228 291.716C464.064 291.406 463.784 291.175 463.449 291.072C463.115 290.968 462.753 291.001 462.443 291.164C462.137 291.328 461.907 291.606 461.805 291.939C461.702 292.271 461.735 292.63 461.897 292.939L464.516 297.932C464.68 298.241 464.96 298.472 465.294 298.576C465.628 298.679 465.99 298.646 466.3 298.483Z" fill="#FDE2D4"/>
<path d="M468.593 297.538C468.9 297.373 469.13 297.094 469.233 296.761C469.336 296.429 469.304 296.069 469.144 295.759L466.521 290.771C466.44 290.617 466.329 290.481 466.196 290.37C466.063 290.259 465.909 290.176 465.743 290.125C465.577 290.074 465.403 290.055 465.23 290.072C465.057 290.088 464.889 290.138 464.736 290.219C464.429 290.383 464.2 290.662 464.097 290.994C463.995 291.326 464.028 291.686 464.189 291.994L466.808 296.982C466.889 297.136 466.999 297.272 467.132 297.384C467.265 297.495 467.419 297.579 467.585 297.631C467.751 297.682 467.925 297.701 468.098 297.685C468.271 297.669 468.439 297.619 468.593 297.538Z" fill="#FDE2D4"/>
<path d="M470.77 296.488C471.078 296.323 471.307 296.044 471.409 295.71C471.512 295.377 471.479 295.017 471.317 294.708L468.698 289.72C468.534 289.411 468.254 289.18 467.92 289.076C467.586 288.973 467.224 289.006 466.914 289.169C466.606 289.332 466.376 289.61 466.272 289.942C466.169 290.275 466.201 290.635 466.362 290.943L468.986 295.931C469.066 296.085 469.176 296.222 469.31 296.333C469.443 296.445 469.597 296.528 469.763 296.58C469.928 296.632 470.103 296.65 470.276 296.634C470.449 296.619 470.617 296.569 470.77 296.488Z" fill="#FDE2D4"/>
<path d="M472.771 295.274C473.078 295.109 473.307 294.83 473.411 294.498C473.514 294.165 473.482 293.805 473.322 293.495L470.698 288.507C470.534 288.198 470.255 287.966 469.92 287.863C469.586 287.759 469.224 287.793 468.914 287.955C468.607 288.118 468.376 288.396 468.273 288.729C468.169 289.061 468.202 289.421 468.362 289.73L470.986 294.718C471.067 294.872 471.177 295.008 471.31 295.12C471.443 295.231 471.597 295.315 471.763 295.367C471.929 295.418 472.103 295.437 472.276 295.421C472.449 295.405 472.617 295.355 472.771 295.274Z" fill="#FDE2D4"/>
<path d="M462.966 278.929C462.966 278.929 469.332 284.262 470.368 285.758C471.404 287.255 473.466 294.066 473.466 294.066C473.466 294.066 470.363 293.26 469.039 294.214C467.715 295.169 464.52 297.936 464.52 297.936C464.52 297.936 461.163 293.433 459.82 290.891C457.743 286.953 457.172 284.531 457.172 284.531L462.966 278.929Z" fill="#FDE2D4"/>
<path d="M499.081 148.023C499.081 148.023 503.92 138.272 511.427 142.503C518.934 146.733 520.22 158.081 517.447 162.11C514.675 166.139 511.442 182.504 512.564 182.576C513.687 182.648 512.67 185.502 510.142 185.454C507.614 185.406 500.318 183.434 501.613 175.381C502.908 167.328 500.069 161.554 500.069 161.554L499.081 148.023Z" fill="#F7AC6F"/>
<path d="M470.238 199.694C465.724 197.511 455.109 208.927 449.133 222.654C438.772 246.51 430.205 249.369 438.935 255.369C449.756 262.808 450.926 251.642 462.741 232.711C471.989 217.91 479.592 204.217 470.238 199.694Z" fill="#639FCB"/>
<path d="M525.117 206.624C523.251 202.428 513.605 200.567 509.192 199.252C504.678 197.905 491.334 197.449 491.334 197.449C491.334 197.449 474.157 199.449 469.586 199.276C467.667 199.205 464.439 207.958 463.69 209.943C459.517 221.109 456.241 230.956 462.875 241.422C464.563 244.088 467.715 257.691 467.715 268.588C467.715 273.125 467.763 290.56 466.046 299.198C476.57 299.198 480.819 300.215 491.343 300.215H520.814C517.557 291.73 513.72 282.07 513.173 277.566C509.192 244.328 527.933 212.956 525.117 206.624Z" fill="#639FCB"/>
<path d="M500.985 190.59C499.632 187.075 499.766 173.803 499.766 173.803H482.901C482.901 173.803 483.036 187.06 481.683 190.59C480.33 194.12 474.968 198.365 474.968 198.365L485.041 203.665L505.263 197.43C505.263 197.43 502.338 194.111 500.985 190.59Z" fill="#FDE2D4"/>
<path d="M499.853 180.374C499.738 176.839 499.766 173.818 499.766 173.818H482.901C482.901 173.818 483.036 187.075 481.683 190.605C480.33 194.135 473.476 199.267 473.476 199.267L485.045 203.679L499.853 180.398V180.374Z" fill="#FDE2D4"/>
<path d="M506.175 168.499C502.337 181.175 488.322 188.163 481.851 186.178C475.553 184.259 470.171 171.309 472.857 158.134C475.505 145.155 485.655 139.256 495.234 142.167C504.813 145.078 510.031 155.822 506.175 168.499Z" fill="#FDE2D4"/>
<path d="M484.192 149.803C485.113 153.64 488.403 156.321 496.183 158.052C501.767 159.29 504.338 167.645 503.858 170.715C503.671 171.899 501.522 177.429 501.522 177.429C501.522 177.429 515.265 167.419 506.448 150.987C497.632 134.555 483.17 141.189 482.906 142.33C482.642 143.472 483.75 147.956 484.192 149.803Z" fill="#03657C"/>
<path d="M487.818 147.246C487.818 147.246 487.079 152.68 482.297 153.127C477.515 153.573 472.521 156.82 472.521 156.82C472.521 156.82 473.404 143.812 482.887 142.349C492.37 140.886 487.818 147.246 487.818 147.246Z" fill="#E88AA1"/>
<path d="M483.343 199.157L485.165 203.929L475.682 200.706L483.343 199.157Z" fill="#639FCB"/>
<path d="M485.036 203.881L486.791 199.253L492.25 202.039L485.036 203.881Z" fill="#639FCB"/>
<path d="M486.791 199.253L491.895 206.888L509.192 199.253L503.733 192.058L486.791 199.253ZM471.245 199.253L477.966 193.171L483.343 199.157L478.263 205.397L471.245 199.253Z" fill="#1A3C47"/>
<path d="M517.615 203.953C522.047 200.37 535.315 211.358 545.287 224.342C562.646 246.913 572.038 251.326 564.709 258.271C558.056 264.588 550.535 255.748 532.811 238.836C518.953 225.613 508.444 211.363 517.615 203.953Z" fill="#639FCB"/>
<path d="M528.71 495.827C528.71 495.827 523.563 504.46 523.635 506.724C523.702 508.853 523.827 514.537 530.226 514.46C534.461 514.412 541.963 508.407 543.695 505.865C545.134 503.779 544.894 491.956 544.894 491.956L528.71 495.827ZM495.795 497.932H484.364V495.798H495.795V497.932Z" fill="#03657C"/>
<path d="M495.349 480.776C496.845 482.872 497.857 486.934 498.006 488.8C498.184 491.054 496.84 495.803 495.363 495.803C490.702 495.764 486.043 496.024 481.414 496.58C476.958 497.179 475.289 499.741 463.892 499.717C460.563 499.717 454.697 499.51 454.697 498.143C454.697 492.244 465.633 494.34 469.087 491.141C477.865 483.049 483.717 481.069 483.717 481.069C483.717 481.069 495.042 480.344 495.349 480.776Z" fill="#03657C"/>
<path d="M488.259 291.178C488.259 291.178 506.611 309.519 507.446 317.515C508.281 325.51 500.558 351.089 497.824 371.233C495.09 391.378 493.397 395.431 494.082 400.179C494.768 404.927 500.16 424.16 499.973 436.995C499.757 451.945 499.124 482.733 499.124 482.733C499.124 482.733 496.548 485.702 486.254 485.654C479.625 485.62 476.963 481.778 476.963 481.778C476.963 481.778 469.768 405.771 468.929 397.877C468.387 392.769 462.928 357.54 462.928 328.767C462.928 295.337 466.938 293.73 466.933 289.917L488.259 291.178Z" fill="#639FCB"/>
<path d="M516.838 289.898C516.838 289.898 524.033 300.79 526.911 312.81C529.789 324.829 529.588 382.836 532.835 399.819C533.948 405.652 539.2 423.681 542.025 441.35C544.851 459.02 546.553 494.498 546.553 494.498L527.803 497.429C527.803 497.429 510.43 423.614 508.3 411.916C506.17 400.217 480.215 314.522 480.215 314.522L479.069 289.893L516.838 289.898Z" fill="#639FCB"/>
<path d="M436.249 247.263C440.148 245.028 448.543 250.055 453.939 259.94C460.175 271.326 469.403 287.476 465.849 289.332C461.004 291.869 451.809 278.641 442.345 269.312C432.733 259.863 428.176 251.897 436.249 247.263Z" fill="#FDE2D4"/>
<path d="M462.865 298.195H521.376C521.603 298.195 521.788 298.011 521.788 297.783V285.869C521.788 285.641 521.603 285.456 521.376 285.456H462.865C462.638 285.456 462.453 285.641 462.453 285.869V297.783C462.453 298.011 462.638 298.195 462.865 298.195Z" fill="#03657C"/>
<path d="M508.568 157.904C508.568 157.904 509.307 137.28 488.83 137.28C472.042 137.28 470.847 153.587 470.847 153.587C477.69 156.802 485.18 158.402 492.739 158.263C505.182 157.952 508.568 157.904 508.568 157.904Z" fill="#639FCB"/>
<path d="M501.282 158.043C501.282 158.043 482.647 163.856 482.177 163.597C481.707 163.338 476.642 159.635 470.142 158.585C464.664 157.697 461.143 160.772 460.822 160.216C460.501 159.659 471.001 152.201 471.001 152.201C471.001 152.201 472.022 153.928 480.311 155.362C495.267 157.947 501.153 157.021 501.282 158.043Z" fill="#639FCB"/>
<path d="M481.961 149.165C481.39 151.712 478.268 153.189 477.164 152.944C475.725 152.628 473.874 150.043 474.445 147.491C475.015 144.939 476.363 143.069 479.241 143.707C482.119 144.345 482.542 146.613 481.961 149.165ZM466.588 209.996C466.727 209.574 467.067 209.301 467.379 209.368C467.909 209.486 468.448 209.559 468.991 209.589C469.707 209.581 470.419 209.484 471.111 209.301C471.184 209.283 471.26 209.285 471.332 209.307C471.404 209.329 471.468 209.37 471.519 209.426C471.999 209.958 472.541 210.43 473.135 210.831C473.606 211.101 474.097 211.335 474.603 211.531C474.759 211.629 474.876 211.779 474.933 211.954C474.99 212.13 474.983 212.319 474.915 212.49C474.488 214.102 473.399 217.843 472.037 219.8C469.859 222.918 467.854 223.445 467.24 223.531C467.181 223.542 467.121 223.538 467.063 223.522C467.006 223.505 466.953 223.476 466.909 223.436C466.453 223.028 465.072 221.488 464.99 217.68C464.914 215.301 466.055 211.584 466.588 209.996ZM538.25 217.618C541.392 221.661 542.961 225.695 541.752 226.635C540.543 227.575 537.018 225.061 533.876 221.018C530.734 216.975 529.17 212.956 530.379 211.996C531.588 211.037 535.113 213.579 538.25 217.618Z" fill="#F7AC6F"/>
<path d="M550.271 253.599C554.017 249.81 559.121 249.81 562.867 253.599C564.431 255.105 566.546 256.103 567.99 254.846L568.566 254.266C570.005 253.043 569.554 248.4 566.82 245.633C560.723 239.465 552.43 239.465 546.319 245.633C543.584 248.391 543.124 253.033 544.573 254.266L545.148 254.846C546.592 256.122 548.707 255.105 550.271 253.599Z" fill="#1A3C47"/>
<path d="M564.695 248.141C561.5 244.976 550.818 248.745 541.378 258.324C530.499 269.355 514.622 284.934 517.601 287.619C521.668 291.293 536.356 278.857 549.83 270.669C563.481 262.357 571.309 254.683 564.695 248.141ZM513.168 296.665C512.924 296.418 512.786 296.083 512.786 295.735C512.786 295.386 512.924 295.052 513.168 294.804L517.126 290.785C517.248 290.662 517.394 290.565 517.554 290.499C517.714 290.433 517.885 290.399 518.059 290.399C518.232 290.399 518.404 290.433 518.564 290.499C518.724 290.565 518.869 290.662 518.992 290.785C519.237 291.033 519.374 291.367 519.374 291.716C519.374 292.064 519.237 292.398 518.992 292.646L515.039 296.661C514.917 296.784 514.771 296.882 514.611 296.949C514.451 297.017 514.279 297.051 514.105 297.052C513.931 297.052 513.759 297.018 513.598 296.952C513.437 296.886 513.291 296.788 513.168 296.665Z" fill="#FDE2D4"/>
<path d="M511.245 295.102C511 294.854 510.863 294.52 510.863 294.171C510.863 293.823 511 293.489 511.245 293.241L515.197 289.226C515.446 288.979 515.782 288.839 516.133 288.839C516.484 288.839 516.82 288.979 517.068 289.226C517.313 289.474 517.45 289.808 517.45 290.157C517.45 290.505 517.313 290.839 517.068 291.087L513.111 295.102C512.988 295.224 512.843 295.321 512.683 295.388C512.523 295.454 512.351 295.488 512.178 295.488C512.005 295.488 511.833 295.454 511.673 295.388C511.513 295.321 511.367 295.224 511.245 295.102Z" fill="#FDE2D4"/>
<path d="M509.47 293.466C509.225 293.218 509.088 292.884 509.088 292.536C509.088 292.187 509.225 291.853 509.47 291.605L513.427 287.591C513.55 287.468 513.695 287.371 513.856 287.305C514.016 287.238 514.187 287.204 514.36 287.204C514.534 287.204 514.705 287.238 514.865 287.305C515.025 287.371 515.171 287.468 515.293 287.591C515.538 287.839 515.676 288.173 515.676 288.521C515.676 288.87 515.538 289.204 515.293 289.452L511.322 293.457C511.076 293.701 510.744 293.839 510.398 293.841C510.052 293.843 509.718 293.708 509.47 293.466Z" fill="#FDE2D4"/>
<path d="M507.902 291.725C507.658 291.477 507.521 291.143 507.521 290.795C507.521 290.447 507.658 290.113 507.902 289.864L511.859 285.85C511.981 285.727 512.127 285.63 512.287 285.564C512.447 285.497 512.619 285.463 512.792 285.463C512.965 285.463 513.137 285.497 513.297 285.564C513.457 285.63 513.602 285.727 513.725 285.85C513.97 286.097 514.107 286.432 514.107 286.78C514.107 287.129 513.97 287.463 513.725 287.711L509.772 291.725C509.524 291.973 509.188 292.112 508.837 292.112C508.486 292.112 508.15 291.973 507.902 291.725Z" fill="#FDE2D4"/>
<path d="M522.028 278.919C522.028 278.919 514.387 282.185 512.962 283.312C511.538 284.44 507.59 290.363 507.59 290.363C507.59 290.363 510.794 290.493 511.782 291.802C512.77 293.111 515.025 296.68 515.025 296.68C515.025 296.68 519.553 293.322 521.572 291.293C524.7 288.128 525.952 285.974 525.952 285.974L522.028 278.919Z" fill="#FDE2D4"/>
<path d="M165 78.9998H186.6V518H165V78.9998ZM331.493 78.2324H353.093V517.233H331.493V78.2324Z" fill="#639FCB"/>
<path d="M353.093 57.4021V78.7983H165.086V57.4021H353.093ZM353.093 0V49.7472H166.789V0H353.093Z" fill="#639FCB"/>
<path d="M174.166 49.7472H342.291V57.4021H174.166V49.7472Z" fill="#90CFC0"/>
<path d="M220.79 11.5303H291.623V37.3583H220.79V11.5303Z" fill="#D2E9E3"/>
<path fill-rule="evenodd" clip-rule="evenodd" d="M250.966 24.4611C250.967 26.3728 250.401 28.2418 249.34 29.8318C248.278 31.4217 246.769 32.6612 245.003 33.3934C243.237 34.1256 241.294 34.3177 239.418 33.9453C237.543 33.573 235.821 32.6529 234.468 31.3015C233.116 29.9501 232.195 28.228 231.822 26.3531C231.449 24.4783 231.64 22.5348 232.371 20.7686C233.102 19.0023 234.341 17.4927 235.931 16.4305C237.52 15.3683 239.389 14.8014 241.301 14.8014C242.57 14.8008 243.827 15.0502 245 15.5353C246.172 16.0205 247.238 16.7319 248.135 17.629C249.033 18.526 249.745 19.5911 250.231 20.7634C250.716 21.9357 250.966 23.1922 250.966 24.4611Z" fill="white"/>
<path fill-rule="evenodd" clip-rule="evenodd" d="M246.932 24.4611C246.931 25.5746 246.6 26.6628 245.981 27.5881C245.362 28.5135 244.482 29.2345 243.453 29.6599C242.424 30.0854 241.292 30.1962 240.2 29.9784C239.107 29.7606 238.104 29.2239 237.317 28.4362C236.53 27.6485 235.994 26.6452 235.778 25.5531C235.561 24.4609 235.672 23.329 236.099 22.3004C236.525 21.2717 237.247 20.3926 238.173 19.7741C239.099 19.1556 240.188 18.8254 241.301 18.8254C242.041 18.8248 242.774 18.9702 243.458 19.2532C244.142 19.5363 244.763 19.9515 245.286 20.475C245.809 20.9985 246.224 21.62 246.506 22.304C246.789 22.988 246.934 23.7211 246.932 24.4611Z" fill="#639FCB"/>
<path fill-rule="evenodd" clip-rule="evenodd" d="M280.778 24.4611C280.779 26.3728 280.213 28.2418 279.151 29.8318C278.09 31.4217 276.581 32.6612 274.815 33.3934C273.049 34.1256 271.105 34.3177 269.23 33.9453C267.355 33.573 265.632 32.6529 264.28 31.3015C262.928 29.9501 262.007 28.228 261.633 26.3531C261.26 24.4783 261.451 22.5348 262.182 20.7686C262.914 19.0023 264.153 17.4927 265.742 16.4305C267.332 15.3683 269.201 14.8014 271.113 14.8014C272.382 14.8008 273.638 15.0502 274.811 15.5353C275.984 16.0205 277.049 16.7319 277.947 17.629C278.844 18.526 279.556 19.5911 280.042 20.7634C280.528 21.9357 280.778 23.1922 280.778 24.4611Z" fill="white"/>
<path fill-rule="evenodd" clip-rule="evenodd" d="M276.763 24.4611C276.762 25.5746 276.431 26.6628 275.812 27.5881C275.192 28.5135 274.313 29.2345 273.283 29.6599C272.254 30.0854 271.122 30.1962 270.03 29.9784C268.938 29.7606 267.935 29.2239 267.148 28.4362C266.361 27.6485 265.825 26.6452 265.608 25.5531C265.391 24.4609 265.503 23.329 265.93 22.3004C266.356 21.2717 267.078 20.3926 268.004 19.7741C268.93 19.1556 270.018 18.8254 271.132 18.8254C271.872 18.8248 272.605 18.9702 273.289 19.2532C273.973 19.5363 274.594 19.9515 275.117 20.475C275.64 20.9985 276.055 21.62 276.337 22.304C276.62 22.988 276.764 23.7211 276.763 24.4611Z" fill="#F7AC6F"/>
<path d="M392.407 304.459H562.426V517.832H392.407V304.459Z" fill="#639FCB"/>
<path d="M392.407 326.681H562.426V487.52H392.407V326.681ZM382.837 287.169H572V313.884H382.837V287.169Z" fill="#1A3C47"/>
<path fill-rule="evenodd" clip-rule="evenodd" d="M425.638 282.694H456.5L457.675 285.562V286.996H424.468V285.562L425.638 282.694Z" fill="#7874B5"/>
<path d="M430.43 270.372H451.632V282.694H430.43V270.372Z" fill="#7874B5"/>
<path fill-rule="evenodd" clip-rule="evenodd" d="M398.038 210.816H484.105C484.956 210.8 485.779 211.12 486.395 211.708C487.01 212.295 487.368 213.103 487.391 213.953V271.844C487.368 272.695 487.01 273.502 486.395 274.09C485.779 274.678 484.956 274.998 484.105 274.981H398.038C397.187 274.998 396.363 274.678 395.747 274.09C395.131 273.503 394.771 272.696 394.748 271.844V213.953C394.771 213.102 395.131 212.295 395.747 211.707C396.363 211.12 397.187 210.8 398.038 210.816Z" fill="#7874B5"/>
<path d="M215.672 494.536C214.417 496.411 213.039 498.201 211.547 499.894C209.734 501.813 202.784 505.227 202.745 510.925C202.707 517.089 214.464 515.376 219.054 515.151C223.644 514.926 223.999 511.635 225.937 508.144C227.875 504.652 229.823 505.266 230.182 502.431C230.542 499.597 228.7 494.546 228.7 494.546L215.672 494.536Z" fill="#03657C"/>
<path d="M216.066 491.428L215.672 494.536C219.923 495.815 224.455 495.815 228.705 494.536L228.35 490.57L216.066 491.428ZM284.692 494.536C285.948 496.411 287.326 498.201 288.817 499.894C290.63 501.812 297.581 505.227 297.614 510.925C297.658 517.089 285.901 515.376 281.306 515.151C276.71 514.926 276.36 511.635 274.422 508.144C272.484 504.652 270.537 505.266 270.177 502.431C269.818 499.597 271.659 494.546 271.659 494.546L284.692 494.536Z" fill="#03657C"/>
<path d="M284.15 491.544L284.692 494.536C280.442 495.815 275.91 495.815 271.659 494.536L271.703 490.551L284.15 491.544Z" fill="#03657C"/>
<path d="M294.799 412.333C294.799 419.93 287.311 492.268 287.311 492.268C286.491 494.8 272.369 494.666 269.65 493.381C266.93 492.095 271.933 416.64 271.429 408.966C270.925 401.292 256.42 347.732 254.032 347.986C251.643 348.24 239.272 414.357 237.363 420.184C235.454 426.012 230.235 493.026 230.235 493.026C224.249 496.321 213.605 493.309 213.605 493.309C213.605 493.309 213.883 418.155 214.699 416.131C215.514 414.107 215.317 408.28 215.591 389.272C215.792 375.075 221.433 333.722 224.273 313.731C224.33 313.332 225.424 305.644 225.87 302.651C240.74 296.262 271.439 299.337 286.654 302.133C286.702 302.531 287.791 311.102 287.925 312.268C289.268 323.107 291.163 338.983 290.985 340.633C290.712 343.175 294.799 404.731 294.799 412.333Z" fill="#042A33"/>
<path d="M287.891 311.99C248.52 321.937 229.122 313.428 224.575 311.687C224.311 311.587 224.095 311.505 223.932 311.452C223.769 311.4 223.774 311.117 223.774 311.117L221.994 301.63L226.11 301.706L228.278 301.749L282.725 302.757C282.725 302.757 284.351 302.689 286.731 302.642C286.779 303.044 286.86 303.678 286.966 304.493C287.182 306.253 287.513 308.877 287.891 311.927C287.894 311.948 287.894 311.969 287.891 311.99Z" fill="#FFEA80"/>
<path d="M272.11 198.643C272.11 198.643 301.37 206.409 304.095 214.855C306.819 223.301 313.626 256.103 312.729 269.6C311.832 283.097 297.6 322.997 297.6 322.997C297.6 322.997 287.709 316.445 287.709 315.261C287.709 314.076 297.566 273.931 297.207 269.374C296.847 264.818 293.46 243.566 293.46 243.566C293.46 243.566 289.143 288.401 289.143 295.327C289.143 302.253 287.263 306.963 287.263 306.963C287.263 306.963 272.935 312.023 249.446 310.882C249.446 310.882 218.052 310.215 224.431 299.61C229.261 291.591 224.887 245.69 224.163 245.355C223.438 245.019 215.567 270.804 216.843 273.725C218.119 276.646 227.511 315.596 227.511 315.596C227.511 315.596 225.41 315.985 217.097 322.076C217.097 322.076 198.572 276.761 198.39 273.893C198.208 271.024 212.631 212.02 219.706 209.464C226.782 206.907 255.658 198.643 255.658 198.643H272.11Z" fill="#F7AC6F"/>
<path d="M287.983 314.402C287.983 314.402 286.635 319.031 284.625 319.995C282.615 320.959 293.552 331.17 293.552 331.17C293.552 331.17 298.348 322.033 298.228 321.098C298.108 320.162 287.983 314.402 287.983 314.402Z" fill="#FDE2D4"/>
<path d="M280.778 316.445C280.778 316.445 293.115 330.518 293.964 330.968C294.813 331.419 288.808 342.129 288.808 342.129L274.724 319.146L280.778 316.445Z" fill="#1A3C47"/>
<path d="M227.299 314.92C227.299 314.92 228.619 319.553 230.614 320.532C232.609 321.51 221.601 331.654 221.601 331.654C221.601 331.654 216.886 322.498 216.991 321.582C217.097 320.666 227.299 314.92 227.299 314.92Z" fill="#FDE2D4"/>
<path d="M233.353 316.445C233.353 316.445 221.189 329.477 220.34 329.928C219.491 330.379 225.496 341.089 225.496 341.089L239.574 318.105L233.353 316.445Z" fill="#1A3C47"/>
<path d="M264.637 148.92C264.637 148.92 280.01 151.174 277.67 173.568C275.329 195.962 261.759 194.121 260.852 194.097C259.946 194.073 247.23 194.509 246.237 167.17C246.237 167.17 245.805 146.954 264.637 148.92Z" fill="#FDE2D4"/>
<path d="M271.813 187.502C271.813 187.502 271.391 196.711 272.35 198.706C273.31 200.701 259.663 207.104 251.341 199.967C251.341 199.967 253.35 189.957 252.78 186.413C252.209 182.868 271.813 187.502 271.813 187.502ZM277.91 167.242C277.91 167.242 279.593 165.568 280.212 167.242C280.831 168.916 277.914 176.494 277.814 176.835C277.814 176.835 277.507 177.492 277.104 177.132C276.701 176.772 277.91 167.242 277.91 167.242ZM246.649 166.959C246.649 166.959 245.004 165.256 244.347 166.935C243.69 168.614 246.429 176.23 246.554 176.585C246.554 176.585 246.846 177.247 247.254 176.892C247.662 176.537 246.649 166.959 246.649 166.959Z" fill="#FDE2D4"/>
<path d="M277.9 170.676L275.698 173.415C275.698 173.415 275.76 167.41 275.41 166.47C275.06 165.53 274.513 162.633 274.221 161.971C273.928 161.309 261.015 157.928 249.614 162.954C249.614 162.954 250.093 167.271 249.019 167.659C247.944 168.048 248.462 174.691 248.462 174.691L246.654 172.772C246.654 172.772 243.886 155.544 244.568 153.75C245.249 151.956 247.446 141.16 270.825 147.568C270.825 147.568 278.12 146.129 279.583 150.815C281.046 155.501 277.9 170.676 277.9 170.676Z" fill="#042A33"/>
<g style="mix-blend-mode:multiply" opacity="0.5">
<path d="M261.735 194.327C260.642 194.319 259.555 194.158 258.507 193.847C256.628 193.313 254.905 192.338 253.48 191.003L253.749 190.778C255.137 192.064 256.808 193.007 258.627 193.531C262.613 194.677 266.848 193.569 270.878 190.327L271.113 190.581C267.558 193.463 264.335 194.327 261.735 194.327Z" fill="#FDE2D4"/>
</g>
<path d="M272.35 198.706C272.35 198.706 275.818 199.396 261.318 212.342C261.318 212.342 251.019 201.742 251.35 199.967C251.681 198.193 272.35 198.706 272.35 198.706Z" fill="#FDE2D4"/>
<path d="M261.303 212.346L265.261 218.649L277.013 200.077L271.923 196.773L261.303 212.346ZM261.303 212.346L251.686 198.106L246.237 201.368L256.008 218.649L261.303 212.346Z" fill="white"/>
<path d="M287.695 315.261L288.606 310.944L299.192 318.215L297.586 322.983C297.586 322.983 288.932 318.872 287.695 315.261ZM227.511 315.596L226.335 310.752C226.335 310.752 215.692 316.205 215.116 316.987L216.996 321.563C216.996 321.563 225.112 318.268 227.511 315.596Z" fill="#F7AC6F"/>
<path opacity="0.1" d="M2.01046 511.31C5.4456 509.97 8.88074 508.859 12.3159 507.777C15.751 506.694 19.1861 505.732 22.6213 504.81C29.494 502.968 36.3643 501.378 43.2346 499.95C56.9751 497.108 70.7157 494.994 84.4562 493.368C87.8914 492.985 91.3265 492.594 94.7616 492.271C98.1968 491.949 101.632 491.631 105.067 491.35C111.937 490.81 118.808 490.386 125.678 490.079C132.548 489.775 139.418 489.53 146.289 489.618C153.159 489.705 160.029 490.079 166.9 490.714C173.77 491.35 180.64 492.267 187.51 493.368C190.946 493.907 194.381 494.505 197.816 495.109L208.124 496.952C221.864 499.425 235.605 501.613 249.345 502.641C256.216 503.193 263.086 503.451 269.956 503.562C276.826 503.672 283.697 503.645 290.567 503.484C297.437 503.322 304.307 503.023 311.178 502.604C318.048 502.185 324.918 501.609 331.789 501.01L352.399 499.057L362.705 498.08C366.14 497.785 369.575 497.454 373.01 497.186C376.445 496.919 379.881 496.62 383.316 496.385C386.751 496.15 390.188 495.892 393.624 495.685L403.929 495.067C407.364 494.856 410.799 494.607 414.234 494.344C441.716 492.35 469.197 488.6 496.678 488.102C510.418 487.789 524.159 488.222 537.899 489.024C551.64 489.825 565.38 490.995 579.123 492.562C592.867 494.128 606.605 496.095 620.345 498.61C627.215 499.872 634.086 501.254 640.956 502.839C644.391 503.626 647.826 504.456 651.261 505.368C654.697 506.28 658.132 507.21 661.567 508.32C662.527 508.629 663.399 509.569 664.027 510.973C664.655 512.378 665 514.157 665 515.995C665 517.833 664.655 519.612 664.027 521.016C663.399 522.421 662.527 523.361 661.567 523.669C658.132 524.775 654.697 525.724 651.261 526.622C647.826 527.52 644.391 528.363 640.956 529.151C634.086 530.736 627.215 532.113 620.345 533.38C606.605 535.895 592.864 537.853 579.123 539.428C565.383 541.004 551.64 542.141 537.899 542.966C524.159 543.791 510.418 544.219 496.678 543.887C469.197 543.394 441.716 539.645 414.234 537.65C410.799 537.401 407.364 537.139 403.929 536.927L393.624 536.31C390.188 536.104 386.752 535.87 383.316 535.609C379.881 535.375 376.445 535.093 373.01 534.808C369.575 534.522 366.14 534.209 362.705 533.914L352.399 532.933L331.789 530.984C324.918 530.386 318.048 529.805 311.178 529.391C304.307 528.976 297.437 528.663 290.567 528.511C283.697 528.359 276.826 528.327 269.956 528.432C263.086 528.538 256.216 528.773 249.345 529.354C235.605 530.381 221.864 532.578 208.124 535.043L197.816 536.885C194.381 537.489 190.946 538.088 187.51 538.627C180.64 539.729 173.77 540.614 166.9 541.28C160.029 541.946 153.163 542.301 146.301 542.344C139.431 542.441 132.56 542.197 125.69 541.884C118.82 541.57 111.95 541.151 105.079 540.608C101.644 540.331 98.209 540.046 94.7738 539.686C91.3387 539.327 87.9036 538.972 84.4684 538.59C70.7279 536.964 56.9873 534.849 43.2468 532.007C36.3765 530.579 29.5062 528.994 22.6335 527.147C19.1975 526.226 15.7624 525.237 12.3281 524.181C8.89294 523.098 5.4578 521.988 2.02267 520.647C1.45162 520.427 0.93842 519.842 0.569861 518.99C0.201301 518.138 0 517.072 0 515.972C0 514.872 0.201301 513.806 0.569861 512.954C0.93842 512.102 1.45162 511.517 2.02267 511.296L2.01046 511.31Z" fill="#7874B5"/>
</svg>
