<svg width="665" height="440" viewBox="0 0 665 440" fill="none" xmlns="http://www.w3.org/2000/svg">
<path d="M160.3 84.4H454.7V285.8H160.3V84.4Z" fill="#D2E9E3"/>
<path d="M253.3 116.3C253.5 116.4 253.8 116.4 254 116.4C254.9 116.4 255.7 116.1 256.2 115.6C256.6 115.2 256.8 114.7 256.8 114.1C256.8 113.5 256.6 112.9 256.2 112.6C255.8 112.2 255.1 112 254.2 112C253.5 112 252.9 112.1 252.4 112.1V119.1H253.3V116.3ZM253.3 112.7C253.5 112.7 253.8 112.6 254.2 112.6C255.2 112.6 255.9 113 255.9 114C255.9 115 255.2 115.5 254.1 115.5C253.8 115.5 253.5 115.5 253.3 115.4V112.7ZM258 112.1V119.1V112.1ZM258 119.1H258.9V116H259.8C260.6 116 261 116.4 261.2 117.4C261.4 118.3 261.6 118.9 261.7 119.1H262.6C262.5 118.8 262.3 118.1 262 117.2C261.8 116.5 261.5 115.9 260.9 115.8C261.7 115.5 262.2 114.9 262.2 114C262.2 113.4 262 113 261.6 112.7C261.2 112.3 260.5 112.1 259.5 112.1C258.9 112.1 258.2 112.2 257.7 112.3L258 119.1ZM258.9 112.7C259 112.7 259.4 112.6 259.8 112.6C260.8 112.6 261.4 113 261.4 113.9C261.4 114.7 260.8 115.2 259.8 115.2H258.9V112.7ZM302.5 183.4H304.3V217.5H302.5V183.4ZM266.5 119.2C268.3 119.2 269.8 117.9 269.8 115.4C269.8 113.3 268.5 111.8 266.6 111.8C264.7 111.8 263.3 113.3 263.3 115.5C263.3 117.8 264.6 119.2 266.5 119.2ZM266.6 112.6C268.1 112.6 268.9 114.1 268.9 115.5C268.9 117.1 268.1 118.5 266.6 118.5C265.2 118.5 264.3 117.1 264.3 115.6C264.3 114 265 112.6 266.6 112.6ZM278.7 116H279.6C280.4 116 280.8 116.4 281 117.4C281.2 118.3 281.4 118.9 281.5 119.1H282.4C282.3 118.8 282.1 118.1 281.8 117.2C281.6 116.5 281.3 115.9 280.7 115.8C281.5 115.5 282 114.9 282 114C282 113.4 281.8 113 281.4 112.7C281 112.3 280.3 112.1 279.3 112.1C278.7 112.1 278 112.2 277.5 112.3V119.3H278.4L278.7 116ZM278.7 112.7C278.8 112.7 279.2 112.6 279.6 112.6C280.6 112.6 281.2 113 281.2 113.9C281.2 114.7 280.6 115.2 279.6 115.2H278.7V112.7ZM242.9 112H243.8V119.1H242.9V112ZM274.2 119.2C275.2 119.2 276 119 276.4 118.8V115.4H274.1V116.1H275.5V118.2C275.3 118.3 274.9 118.4 274.3 118.4C272.6 118.4 271.5 117.3 271.5 115.5C271.5 113.7 272.6 112.6 274.4 112.6C275.1 112.6 275.6 112.7 276 112.9L276.2 112.1C275.9 111.9 275.3 111.8 274.4 111.8C272 111.8 270.6 113.4 270.5 115.5C270.5 116.6 270.9 117.6 271.5 118.2C272.3 118.9 273.1 119.2 274.2 119.2ZM228.8 103.3H230.6V127.9H228.8V103.3ZM302.5 103.3H304.3V127.9H302.5V103.3ZM287.5 118.3H284.4V115.8H287.2V115H284.4V112.8H287.3V112H283.5V119.1H287.5V118.3ZM302.5 218.1H304.3V270H302.5V218.1ZM201.2 118.1C201.9 117.4 202.2 116.5 202.2 115.3C202.2 114.1 201.8 113.3 201.2 112.7C200.6 112.1 199.6 111.8 198.3 111.8C197.6 111.8 196.9 111.9 196.4 112V119C196.9 119.1 197.4 119.1 198.1 119.1C199.5 119.2 200.6 118.8 201.2 118.1ZM197.3 112.8C197.5 112.7 197.9 112.7 198.4 112.7C200.3 112.7 201.3 113.8 201.3 115.4C201.3 117.3 200.2 118.4 198.3 118.4C197.9 118.4 197.6 118.4 197.4 118.3L197.3 112.8ZM183.3 119.1H184.2V112.8H186.4V112H181.1V112.8H183.3V119.1ZM206.2 119.2C208 119.2 209.5 117.9 209.5 115.4C209.5 113.3 208.2 111.8 206.3 111.8C204.4 111.8 203 113.3 203 115.5C203 117.8 204.3 119.2 206.2 119.2ZM206.3 112.6C207.8 112.6 208.6 114.1 208.6 115.5C208.6 117.1 207.8 118.5 206.3 118.5C204.9 118.5 204 117.1 204 115.6C204 114 204.8 112.6 206.3 112.6ZM189.7 119.2C191.5 119.2 193 117.9 193 115.4C193 113.3 191.7 111.8 189.8 111.8C187.9 111.8 186.5 113.3 186.5 115.5C186.5 117.8 187.8 119.2 189.7 119.2ZM189.7 112.6C191.2 112.6 192 114.1 192 115.5C192 117.1 191.2 118.5 189.7 118.5C188.3 118.5 187.4 117.1 187.4 115.6C187.4 114 188.2 112.6 189.7 112.6ZM246.3 116.1C246.3 114.9 246.3 114.1 246.2 113.2C246.6 114 247 114.8 247.5 115.6L249.8 119.2H250.7V112H249.8V115C249.8 116.1 249.8 117 249.9 117.9C249.6 117.2 249.1 116.4 248.6 115.6L246.3 112H245.3V119.1H246.2V116.1H246.3ZM361.2 119.2C362.2 119.2 363 119 363.4 118.8V115.4H361V116.1H362.5V118.2C362.3 118.3 361.9 118.4 361.3 118.4C359.6 118.4 358.5 117.3 358.5 115.5C358.5 113.7 359.6 112.6 361.4 112.6C362.1 112.6 362.6 112.7 363 112.9L363.2 112.1C362.9 111.9 362.2 111.8 361.4 111.8C359 111.8 357.6 113.4 357.5 115.5C357.5 116.6 357.9 117.6 358.5 118.2C359.2 118.9 360.1 119.2 361.2 119.2ZM408.2 118.1C408.9 117.4 409.2 116.5 409.2 115.3C409.2 114.1 408.8 113.3 408.2 112.7C407.6 112.1 406.6 111.8 405.3 111.8C404.6 111.8 403.9 111.9 403.3 112V119C403.8 119.1 404.3 119.1 405 119.1C406.4 119.2 407.5 118.8 408.2 118.1ZM404.3 112.8C404.5 112.7 404.9 112.7 405.4 112.7C407.3 112.7 408.3 113.8 408.3 115.4C408.3 117.3 407.2 118.4 405.3 118.4C404.9 118.4 404.6 118.4 404.4 118.3V112.8H404.3ZM351.9 116.1C351.9 114.9 351.9 114.1 351.8 113.2C352.2 114 352.6 114.8 353.1 115.6L355.4 119.2H356.3V112H355.4V115C355.4 116.1 355.4 117 355.5 117.9C355.2 117.2 354.7 116.4 354.2 115.6L352 112H351V119.1H351.9V116.1ZM418.5 116.1C418.5 114.9 418.5 114.1 418.4 113.2C418.8 114 419.2 114.8 419.7 115.6L422 119.2H422.9V112H422V115C422 116.1 422 117 422.1 117.9C421.8 117.2 421.3 116.4 420.8 115.6L418.5 112H417.5V119.1H418.4L418.5 116.1ZM413.1 119.2C414.9 119.2 416.4 117.9 416.4 115.4C416.4 113.3 415.1 111.8 413.2 111.8C411.3 111.8 409.9 113.3 409.9 115.5C410 117.8 411.3 119.2 413.1 119.2ZM413.2 112.6C414.7 112.6 415.5 114.1 415.5 115.5C415.5 117.1 414.7 118.5 413.2 118.5C411.7 118.5 410.9 117.1 410.9 115.6C410.9 114 411.7 112.6 413.2 112.6ZM428.6 118.3H425.5V115.8H428.3V115H425.5V112.8H428.4V112H424.6V119.1H428.6V118.3ZM348.5 112H349.4V119.1H348.5V112ZM336.8 119.1V118.3H333.7V115.8H336.5V115H333.7V112.8H336.7V112H332.8V119.1H336.8ZM328.9 119.1H329.9V112.8H332V112H326.8V112.8H328.9V119.1ZM295.4 118.4C294.8 118.4 294.2 118.2 293.8 117.9L293.6 118.7C294 119 294.7 119.1 295.4 119.1C297.1 119.1 297.9 118.2 297.9 117C297.9 115.9 297.3 115.4 296.1 114.9C295.1 114.5 294.7 114.2 294.7 113.5C294.7 113 295.1 112.4 296 112.4C296.6 112.4 297.1 112.6 297.4 112.7L297.7 111.9C297.4 111.7 296.9 111.6 296.1 111.6C294.7 111.6 293.8 112.4 293.8 113.5C293.8 114.5 294.5 115.1 295.7 115.5C296.7 115.9 297 116.3 297 116.9C296.9 117.9 296.4 118.4 295.4 118.4ZM290.2 118.4C289.6 118.4 289 118.2 288.6 117.9L288.4 118.7C288.8 119 289.5 119.1 290.2 119.1C291.9 119.1 292.7 118.2 292.7 117C292.7 115.9 292.1 115.4 290.9 114.9C289.9 114.5 289.5 114.2 289.5 113.5C289.5 113 289.9 112.4 290.8 112.4C291.4 112.4 291.9 112.6 292.2 112.7L292.5 111.9C292.2 111.7 291.7 111.6 290.9 111.6C289.5 111.6 288.6 112.4 288.6 113.5C288.6 114.5 289.3 115.1 290.5 115.5C291.5 115.9 291.8 116.3 291.8 116.9C291.7 117.9 291.1 118.4 290.2 118.4ZM339.5 118.4C338.9 118.4 338.3 118.2 337.9 117.9L337.7 118.7C338.1 119 338.8 119.1 339.5 119.1C341.2 119.1 342 118.2 342 117C342 115.9 341.4 115.4 340.2 114.9C339.2 114.5 338.8 114.2 338.8 113.5C338.8 113 339.2 112.4 340.1 112.4C340.7 112.4 341.2 112.6 341.5 112.7L341.8 111.9C341.5 111.7 341 111.6 340.2 111.6C338.8 111.6 337.9 112.4 337.9 113.5C337.9 114.5 338.6 115.1 339.8 115.5C340.8 115.9 341.1 116.3 341.1 116.9C341 117.9 340.5 118.4 339.5 118.4ZM344.6 112.8V119.1H345.5V112.8H347.7V112H342.4V112.8H344.6Z" fill="#1A3C47"/>
<path d="M230.6 129.7H443.6V127.9H171.3V129.7H228.8H230.6ZM380.2 129.7H382V270H380.2V129.7ZM302.5 129.7H304.3V182.7H302.5V129.7ZM228.8 129.7H230.6V270H228.8V129.7Z" fill="#1A3C47"/>
<path d="M143.1 72.3V297.2H471.8V72.3H143.1ZM454.7 285.4H160.3V84H454.7V285.4Z" fill="#1A3C47"/>
<path d="M380.2 103.3H382V127.9H380.2V103.3ZM302.5 182.7H304.3V183.3H302.5V182.7ZM302.5 217.5H304.3V218.1H302.5V217.5Z" fill="#1A3C47"/>
<path d="M191.4 165.1C191.2 165.2 191 165.2 190.9 165L181.6 159V170.7H190.9V167.1H200.9V159.1L195.4 162.7L191.8 165.1C191.6 165.1 191.5 165.2 191.4 165.1Z" fill="#E88AA1"/>
<path d="M199.1 158.5H183.7L191.3 163.7L194.6 161.6L199.1 158.5Z" fill="#E88AA1"/>
<path d="M180.9 172C180.7 172 180.6 171.9 180.4 171.8C180.2 171.7 180.2 171.5 180.2 171.4V157.9C180.2 157.7 180.3 157.5 180.5 157.3C180.7 157.2 180.9 157.2 181.1 157.3C181.2 157.2 181.3 157.2 181.5 157.2H201.4C201.5 157.2 201.6 157.2 201.7 157.3C201.9 157.4 202 157.6 202 157.9V167.1H206.6V147.5H175.5V178.6H190.7V172H180.9Z" fill="#E88AA1"/>
<path d="M260.1 254.1H291.2V223H260.1V254.1ZM269.6 242.6C269.3 242.1 269.5 241.5 270 241.3C270.5 241.1 271.1 241.2 271.3 241.7L273.7 245.8L284.1 230.2C284.3 229.9 284.6 229.8 284.9 229.8C285.1 229.8 285.3 229.9 285.4 230C285.8 230.3 286 230.9 285.7 231.3L273.5 249.5L269.6 242.6ZM338.7 176.2H369.8V145.1H338.7V176.2ZM343.5 155C343.5 153.7 344.6 152.6 345.9 152.6H357.8C358 152.6 358.1 152.6 358.3 152.7C358.9 152.8 359.4 153.2 359.8 153.7C360.1 154.1 360.2 154.5 360.2 155V157H364.2C365 157 365.7 157.4 366.1 158C366.4 158.4 366.6 158.9 366.6 159.4V165.1C366.6 165.6 366.5 166 366.2 166.4C365.8 167 365.1 167.4 364.3 167.5L364.5 168.4L364.7 169.5L360.3 167.5H352.3C351.5 167.5 350.9 167.1 350.4 166.6C350.1 166.2 349.9 165.7 349.9 165.2V163.2L345.5 165.2L345.9 163.2C345.3 163.2 344.7 162.9 344.3 162.5C343.9 162.1 343.6 161.5 343.6 160.9L343.5 155Z" fill="white"/>
<path d="M349.8 163V165C349.8 165.5 350 166 350.3 166.4C350 166 349.8 165.5 349.8 165V163ZM359.7 153.6C359.4 153.1 358.8 152.7 358.2 152.6C358.8 152.8 359.3 153.1 359.7 153.6ZM344.2 162.3C344.6 162.7 345.2 163 345.8 163L345.4 165L345.8 163C345.1 163 344.6 162.7 344.2 162.3ZM364.3 168.2L364.1 167.4L364.3 168.2ZM366.4 165C366.4 165.5 366.3 165.9 366 166.3C366.2 165.9 366.4 165.5 366.4 165V159.3C366.4 158.8 366.2 158.3 365.9 157.9C366.2 158.3 366.4 158.8 366.4 159.3V165Z" fill="white"/>
<path d="M412.2 194C412.2 192.5 411.6 191.2 410.6 190.2C409.6 189.2 408.3 188.6 406.8 188.6C405.3 188.6 404 189.2 403 190.2C402 191.2 401.4 192.5 401.4 194C401.4 195.5 402 196.8 403 197.8C404 198.8 405.3 199.4 406.8 199.4C408.3 199.4 409.6 198.8 410.6 197.8C411.6 196.9 412.2 195.5 412.2 194Z" fill="#E88AA1"/>
<path d="M401.6 177.6H390.3V208.7H421.4V184.1H401.6V177.6ZM402.3 185.9L403.5 186.9L403.6 186.8V185.2L404.6 185L405.5 186.3H405.6L405.9 184.8H407L407.4 186.2H407.5L408.4 184.7L409.3 185.1V186.5L409.4 186.6L410.5 185.5L411.4 186L411.1 187.6L412.3 186.6L413.2 187.2L412.6 188.8L414 188.3L414.7 189L413.8 190.3V190.4H415.3L415.4 190.6L415.6 191.2L414.6 192.1V192.3L416.1 192.6V193.5L414.8 194.1V194.3L416.1 195V195.9L414.6 196.1V196.3L415.7 197.2L415.4 198.1L414 197.9L413.9 198.2L414.8 199.2L414.3 200.1L412.8 199.6L412.7 199.7L413.3 201L412.5 201.8L411.2 200.9L411.4 202.5L410.4 202.9L409.4 201.8L409.2 203.4H408.2L407.5 202.2L406.8 203.6H405.7L405.5 202.1L405.4 202L404.4 203.2L403.4 202.7L403.5 201.4L402.3 202.3L401.5 201.8L402 200.4L401.9 200.3L400.5 201L399.9 200.2L400.6 198.9L400.5 198.8L399 199.1L398.9 198.9L398.7 198.5V198.3C398.7 198.2 398.7 198.1 398.8 198L399.7 197.1L399.6 197L398 196.9V195.9L399.1 195.2V195L397.6 194.6V193.7L399 193.3V193.1L397.8 192.2V192L397.9 191.3H399.5L399.6 191.1L398.5 190.1L399 189.2L400.5 189.6L400.6 189.5L399.7 188.3L400.6 187.4L400.8 187.5C400.8 187.5 401.4 187.8 401.7 188C401.7 188 401.8 188 401.8 188.1L401.9 188L401.5 186.5L402.3 185.9Z" fill="#E88AA1"/>
<path d="M401.6 177.6H421.4V184.1H401.6V177.6ZM414 191.9L415 191H413.5L413.4 190.8L413.2 190.2L414 189.1L412.7 189.6L412 189L412.5 187.4H412.4L411.3 188.3L410.4 187.8L410.7 186.2L410.6 186.1L409.5 187.2L408.6 186.7V185.3L407.8 186.6H406.8L406.4 185.2H406.3L406.1 186.6L405.1 186.9L404.2 185.6H404.1V187.1L403.3 187.6L402.1 186.6L402.5 188L402.4 188.1C402.4 188.1 402.3 188.2 402.2 188.2C402.1 188.3 402 188.4 401.9 188.4C401.9 188.4 401.8 188.5 401.7 188.5H401.5C401.5 188.5 401.4 188.4 401.3 188.4C401.2 188.3 401 188.3 400.9 188.2C400.8 188.1 400.6 188 400.5 188L400.4 188.1L401.2 189.2L400.5 190L399.1 189.6L400.2 190.6L399.7 191.6H398.3L399.4 192.4V193.5L398.1 193.8L399.4 194.2L399.5 195.2L398.3 195.9L399.7 196L400.1 196.9L399.9 197.1C399.9 197.1 399.6 197.3 399.4 197.6L399 198L400.4 197.7L401 198.5L400.3 199.8L401.7 199.2L402.4 200L402 201.3L403.2 200.4L404 200.9L403.9 202.2L404 202.3L405 201.1L405.9 201.5L406.1 202.8H406.2L406.9 201.4H407.7L408.4 202.6H408.5L408.7 201.1H408.9L409.5 201L410.4 202.1H410.5L410.3 200.5L410.5 200.4L411.1 200.2L412.3 201L412.4 200.9L411.8 199.6L412.5 199L413.9 199.5V199.4L413 198.4L413.5 197.3L414.8 197.5L413.7 196.6L413.9 195.6L415.2 195.5L414 194.8V193.8L415.2 193.2L413.9 192.9L414 191.9ZM411.1 198.3C410 199.4 408.5 200.1 406.9 200.1C405.3 200.1 403.8 199.4 402.7 198.3C401.6 197.2 400.9 195.7 400.9 194C400.9 192.3 401.6 190.8 402.7 189.7C403.8 188.6 405.3 187.9 406.9 187.9C408.5 187.9 410 188.6 411.1 189.7C412.2 190.8 412.9 192.3 412.9 194C412.9 195.7 412.2 197.2 411.1 198.3Z" fill="#E88AA1"/>
<path d="M290 183.4H281.9C281.8 184.5 281.7 185.7 281.6 186.9H290V183.4Z" fill="#F7AC6F"/>
<path d="M281.3 182.7H290V155.7H258.9V183.1H279V186.8H280.9C281 185.5 281.1 184.2 281.2 183L281.3 182.7ZM280 173.9C280.1 173.6 280.5 173.4 280.9 173.6L282.2 174.2C281 171.3 278.2 169.3 275 169.2C271.4 169.2 268.2 171.6 267.3 175C267.2 175.3 266.9 175.6 266.5 175.4C266.2 175.3 266 175 266.1 174.6C267.2 170.6 270.8 167.8 275 167.8H275.1C278.9 167.9 282.3 170.3 283.6 173.8L284.2 172.5C284.3 172.2 284.7 172 285.1 172.2C285.4 172.3 285.6 172.7 285.4 173.1L283.9 176.3L280.5 174.7C280 174.6 279.8 174.2 280 173.9Z" fill="#F7AC6F"/>
<path d="M281.9 183.4H281.6V183.1H281.9V183.4H290V182.8H281.3V183.1C281.2 184.4 281.1 185.7 281 186.9H281.6C281.7 185.7 281.8 184.5 281.9 183.4Z" fill="#F7AC6F"/>
<path d="M281.6 183.1V183.4H281.9V183.1H281.6ZM258.9 183.2H279V186.9H258.9V183.2Z" fill="#F7AC6F"/>
<path d="M401.8 188.3L401.9 188.1H401.8V188.3ZM415.6 195.6H415.9V195.3H415.5H415.6V195.6ZM399.9 197.1L399.7 196.9L399.5 197.1L399.6 197.3L399.9 197.1ZM401.7 188.1H401.9C401.9 188.1 401.8 188 401.7 188.1Z" fill="white"/>
<path d="M402.2 188L402 187.8V187.9L401.9 188V188.2L402.2 188ZM401.8 188.2L401.9 188.1L401.8 188.2ZM401.7 188.1L401.8 188.3V188L401.7 188.1ZM406.9 188C405.3 188 403.8 188.7 402.7 189.8C401.6 190.9 400.9 192.4 400.9 194.1C400.9 195.8 401.6 197.3 402.7 198.4C403.8 199.5 405.3 200.2 406.9 200.2V199.6C405.4 199.6 404.1 199 403.1 198C402.1 197 401.5 195.7 401.5 194.2C401.5 192.7 402.1 191.4 403.1 190.4C404.1 189.4 405.4 188.8 406.9 188.8C408.4 188.8 409.7 189.4 410.7 190.4C411.7 191.4 412.3 192.7 412.3 194.2C412.3 195.7 411.7 197 410.7 198C409.7 199 408.4 199.6 406.9 199.6V200.2C408.5 200.2 410 199.5 411.1 198.4C412.2 197.3 412.9 195.8 412.9 194.1C412.9 192.4 412.2 190.9 411.1 189.8C410.1 188.7 408.6 188 406.9 188ZM400.6 187.7L400.4 188C400.4 188 400.5 188.1 400.6 188.1L400.8 187.9L400.6 187.7ZM415.1 191.2L415.4 191.1L415.2 190.9L415 191L415.1 191.2ZM398.5 191.6L398.1 191.5V191.8H398.5H398.4L398.5 191.6Z" fill="white"/>
<path d="M401.9 187.9L402 187.8L402.2 188L401.9 188.1V187.9C401.8 188 401.8 188 401.9 187.9V188.1V188L401.8 188.3L401.7 188.1L401.9 187.9C401.8 188 401.7 187.9 401.7 187.9C401.3 187.7 400.8 187.4 400.8 187.4L400.6 187.3L399.7 188.2L400.6 189.4L400.5 189.5L399 189.1L398.5 190L399.6 191L399.5 191.2H397.9L397.8 191.9V192.1L399 193V193.2L397.6 193.6V194.5L399.1 194.9V195.1L398 195.8V196.8L399.6 196.9L399.7 197L399.9 196.8L400.1 197L399.8 197.1L399.7 196.9L398.8 197.8C398.7 197.9 398.7 198 398.7 198.1V198.3L398.9 198.7L399 198.9L400.5 198.6L400.6 198.7L399.9 200L400.5 200.8L401.9 200.1L402 200.2L401.5 201.6L402.3 202.1L403.5 201.2L403.4 202.5L404.4 203L405.4 201.8L405.5 201.9L405.7 203.4H406.8L407.5 202L408.2 203.2H409.2L409.4 201.6L410.4 202.7L411.4 202.3L411.2 200.7L412.5 201.6L413.3 200.8L412.7 199.5L412.8 199.4L414.3 199.9L414.8 199L413.9 198L414 197.7L415.4 197.9L415.7 197L414.6 196.1V195.9L416.1 195.7V194.8L414.8 194.1V193.9L416.1 193.3V193.1H415.5V192.9H415.4L414.2 193.5V194.5L415.4 195.2H415.8V195.5H415.5V195.3H415.4L414.1 195.4L413.9 196.4L415 197.3L413.7 197.1L413.2 198.2L414.1 199.2V199.3L412.7 198.8L412 199.4L412.6 200.7L412.5 200.8L411.3 200L410.7 200.2L410.5 200.3L410.7 201.9H410.6L409.7 200.8L409.1 200.9H408.9L408.7 202.4H408.6L407.9 201.2H407L406.3 202.6H406.2L406 201.3L405.1 200.9L404.1 202.1L404 202L404.1 200.7L403.3 200.2L402.1 201.1L402.5 199.8L401.8 199L400.4 199.6L401.1 198.3L400.5 197.5L399.1 197.8L399.2 197.9L398.9 198.1L398.8 197.8L398.7 197.7H398.9V197.8L399.3 197.4L399.8 196.9L400 196.7L399.6 195.8L398.2 195.7L399.4 195L399.3 194L398 193.6L397.6 193.7L397.5 193.4H397.8V193.6H397.9L399.2 193.3V192.2L398.1 191.4H397.8V191.1L398.1 191.2V191.4H399.5L400 190.4L398.9 189.4L400.3 189.8L401 189L400.2 187.9L400.3 187.8C400.2 187.7 400.1 187.7 400.1 187.7L400.3 187.4L400.5 187.6L400.3 187.8C400.4 187.9 400.5 187.9 400.7 188C400.8 188.1 401 188.2 401.1 188.2C401.2 188.2 401.2 188.3 401.3 188.3H401.5C401.6 188.3 401.7 188.3 401.7 188.2C401.8 188.1 401.9 188.1 402 188C402.1 187.9 402.2 187.9 402.2 187.9L402.3 187.8L401.9 186.4L403.1 187.4L403.9 186.9V185.4H404L404.9 186.7L405.9 186.4L406.1 185H406.2L406.6 186.4H407.6L408.4 185.1V186.5L409.3 187L410.4 185.9L410.5 186L410.2 187.6L411.1 188.1L412.2 187.2H412.3L411.8 188.8L412.5 189.4L413.8 188.9L413 190L413.2 190.6L413.3 190.8H414.8L415 190.6L415.2 190.8L414.9 190.9L415 191L414 191.9L414.2 192.9L415.5 193.2L415.8 193.1L415.9 193.4H416.2V192.7L414.7 192.4V192.2L415.7 191.3L415.5 190.7L415.4 190.5H413.9V190.4L414.8 189.1L414.1 188.4L412.7 188.9L413.3 187.3L412.4 186.7L411.2 187.7L411.5 186.1L410.6 185.6L409.5 186.7L409.4 186.6V185.2L408.5 184.8L407.6 186.3H407.5L407.1 184.9H405.9L405.6 186.4H405.5L404.6 185.1L403.6 185.3V186.9L403.5 187L402.3 186L401.5 186.6L401.9 187.9Z" fill="white"/>
<path d="M415.5 193.1H415.6V193.3H415.9L415.8 193L415.5 193.1ZM399 198.4L399.1 198.3C399.1 198.3 399 198.3 399 198.4ZM398.1 193.8H397.8L397.9 194.1L398.2 194H398.1V193.8Z" fill="white"/>
<path d="M399 198.4L398.9 198.3L399 198.6L399.3 198.4L399.2 198.3C399.1 198.3 399 198.3 399 198.4ZM399.1 198.3V198.2V198.3C399.1 198.2 399.1 198.2 399.1 198.3Z" fill="white"/>
<path d="M399.1 198.3H399L399.1 198.4C399 198.3 399.1 198.3 399.1 198.3ZM399.1 198.2H398.9L399 198.3L399.1 198.2ZM399.1 198.3V198.2V198.3ZM399.1 198.1L399 198.2H399.1V198.1ZM339.5 207.5L340.2 208.5L340.8 208.1V207.5H339.5Z" fill="white"/>
<path d="M328.8 214.6H337.3V208.8H342L341.3 207.8L340.8 208.1L340.2 208.5L339.5 207.5H336V213.3H330.1V207.5H326.6L329.8 203L333.1 198.2L336.4 203L339.5 207.5H340.8V208.1L341.3 207.8L337.5 202.2L333.1 195.9L328.7 202.2L324.2 208.8H328.8V214.6ZM357.7 153.3H345.5H357.7ZM350.5 157.7C350.1 158.1 349.8 158.7 349.8 159.3V162.3V159.3C349.8 158.7 350 158.1 350.5 157.7Z" fill="white"/>
<path d="M349.8 162.4V159.4C349.8 158.8 350.1 158.2 350.5 157.8C350.9 157.4 351.5 157.1 352.2 157.1H359.5V155.1C359.5 154.7 359.4 154.4 359.2 154.1C358.9 153.7 358.6 153.5 358.1 153.4H345.6C344.8 153.6 344.2 154.3 344.2 155.1V160.8C344.2 161.7 345 162.5 345.9 162.5H346.6L346.4 163.6L346.3 164L349.7 162.5L349.8 162.4ZM346.3 163.9L349.7 162.4L346.3 163.9ZM346.6 162.4L346.4 163.5L346.6 162.4ZM359.4 157V155V157Z" fill="white"/>
<path d="M345.4 165L349.8 163L345.4 165ZM360.1 157V155C360.1 154.5 360 154.1 359.7 153.7C360 154.1 360.1 154.5 360.1 155V157ZM344.2 162.3C343.8 161.9 343.5 161.3 343.5 160.7V155C343.5 153.7 344.6 152.6 345.9 152.6H357.8C358 152.6 358.1 152.6 358.3 152.7C358.2 152.7 358 152.6 357.8 152.6H345.9C344.6 152.6 343.5 153.7 343.5 155V160.7C343.5 161.3 343.8 161.9 344.2 162.3Z" fill="#1A3C47"/>
<path d="M345.9 152.6C344.6 152.6 343.5 153.7 343.5 155V160.7C343.5 161.3 343.8 161.9 344.2 162.3C344.6 162.7 345.2 163 345.8 163L345.4 165L349.8 163V162.7H349.7L345.8 164.4L346.2 162.7H345.9C344.8 162.7 343.9 161.8 343.9 160.7V155C343.9 153.9 344.8 153 345.9 153H357.8C358.9 153 359.8 153.9 359.8 155V157H360.1V155C360.1 154.5 360 154.1 359.7 153.7C359.4 153.2 358.8 152.8 358.2 152.7C358.1 152.7 357.9 152.6 357.7 152.6H345.9ZM349.7 162.3V162.4V162.3Z" fill="#1A3C47"/>
<path d="M359.1 154C358.8 153.6 358.5 153.4 358 153.3C358.5 153.4 358.9 153.6 359.1 154ZM345.9 162.4C345 162.4 344.2 161.6 344.2 160.7V155C344.2 154.2 344.8 153.5 345.6 153.3C344.8 153.5 344.2 154.2 344.2 155V160.7C344.1 161.6 344.9 162.4 345.9 162.4H346.6H345.9Z" fill="#1A3C47"/>
<path d="M349.7 162.4L346.3 163.9L346.4 163.5L346.6 162.4H345.9C345 162.4 344.2 161.6 344.2 160.7V155C344.2 154.2 344.8 153.5 345.6 153.3H358.1C358.5 153.4 358.9 153.7 359.2 154C359.4 154.3 359.5 154.6 359.5 155V157H359.8V155C359.8 153.9 358.9 153 357.8 153H345.9C344.8 153 343.9 153.9 343.9 155V160.7C343.9 161.8 344.8 162.7 345.9 162.7H346.2L345.8 164.4L349.7 162.7H349.8V162.4H349.7ZM346.3 163.9V163.5V163.9Z" fill="#1A3C47"/>
<path d="M364 157.6C364.5 157.6 365 157.9 365.4 158.3C365.1 157.9 364.6 157.6 364 157.6H360H364Z" fill="white"/>
<path d="M364 157.6H360V160.6C360 160.9 359.9 161.2 359.8 161.5H363.5V162.9H358.2C358 163 357.8 163 357.6 163H350.3V165C350.3 165.9 351.1 166.7 352 166.7H360.2L363.2 168L363.5 168.1L363.3 167.3L363.2 166.6H363.9C364.4 166.6 364.8 166.4 365.2 166C365.5 165.7 365.7 165.3 365.7 164.8V159.1C365.7 158.7 365.6 158.3 365.3 158.1C365 157.9 364.6 157.6 364 157.6Z" fill="white"/>
<path d="M364 166.7H363.3H364C364.5 166.7 364.9 166.5 365.3 166.1C365 166.5 364.5 166.7 364 166.7ZM357.7 163H350.4H357.7C357.9 163 358.1 163 358.3 162.9C358.1 163 357.9 163 357.7 163ZM363.3 168.1L363.6 168.2L363.4 167.4L363.6 168.2L363.3 168.1ZM350.4 165V163V165C350.4 165.9 351.2 166.7 352.1 166.7H354.7H352.1C351.2 166.7 350.4 166 350.4 165ZM350.4 159.3C350.4 158.4 351.2 157.6 352.1 157.6H359.4H352.1C351.2 157.6 350.4 158.4 350.4 159.3V162.3V159.3Z" fill="white"/>
<path d="M350.4 159.3V162.3H353.5V161.5H359.1C359.3 161.2 359.4 160.9 359.4 160.6V157.6H352.1C351.2 157.6 350.4 158.4 350.4 159.3Z" fill="white"/>
<path d="M359.2 161.6C359.4 161.3 359.5 161 359.5 160.7V157.7V160.7L359.2 161.6ZM358.3 162.9H353.5V162.7H350.4V163H357.7C357.9 163 358.1 163 358.3 162.9ZM359.5 161.6H359.9C360 161.3 360.1 161 360.1 160.7V157.7H359.8V160.7C359.8 161 359.7 161.3 359.5 161.6Z" fill="white"/>
<path d="M359.9 161.6C360 161.3 360.1 161 360.1 160.7V157.7V160.7C360.1 161 360 161.3 359.9 161.6ZM359.8 157.6H360.1H359.8ZM359.4 160.6C359.4 160.9 359.3 161.2 359.1 161.5H359.5C359.6 161.2 359.7 160.9 359.7 160.6V157.6H359.4V160.6ZM359.4 157.6H359.8H359.4ZM350.4 162.4H353.5H350.4ZM350.4 162.4H353.5V162.7H350.4V162.4Z" fill="white"/>
<path d="M364.1 167.4C364.9 167.4 365.6 167 366 166.3C365.6 166.9 364.9 167.3 364.1 167.4ZM360.1 167.4H352.1C351.3 167.4 350.7 167 350.2 166.5C350.6 167.1 351.3 167.4 352.1 167.4H360.1L364.5 169.4L364.3 168.3L364.5 169.4L360.1 167.4Z" fill="#1A3C47"/>
<path d="M364 157H360V157.3H364C365.1 157.3 366 158.2 366 159.3V165C366 166.1 365.1 167 364 167H363.7L364.1 168.7L360.2 167H352.2C351.1 167 350.2 166.1 350.2 165V163H349.9V165C349.9 165.5 350.1 166 350.4 166.4C350.8 167 351.5 167.3 352.3 167.3H360.3L364.7 169.3L364.5 168.2L364.3 167.3C365.1 167.3 365.8 166.9 366.2 166.2C366.5 165.8 366.6 165.4 366.6 164.9V159.2C366.6 158.7 366.4 158.2 366.1 157.8C365.5 157.4 364.8 157 364 157ZM349.8 163H350.1H349.8ZM364 157H360H364ZM352.1 157.3H359.4V157H352.1C351.4 157 350.8 157.3 350.4 157.7C350 158.1 349.7 158.7 349.7 159.3V162.3H350V159.3C350.1 158.2 351 157.3 352.1 157.3Z" fill="#1A3C47"/>
<path d="M352.1 157H359.4H352.1C351.4 157 350.8 157.3 350.4 157.7C350.9 157.3 351.5 157 352.1 157ZM359.8 157H360.1H359.8ZM359.8 157H360.1V157.3H359.8V157ZM349.8 162.7H350.1V163H349.8V162.7Z" fill="#1A3C47"/>
<path d="M349.8 162.4H350.1V162.7H349.8V162.4ZM359.4 157H359.8H359.4ZM349.8 162.4H350.1H349.8ZM359.4 157H359.7V157.3H359.4V157ZM364 157.6C364.5 157.6 365 157.9 365.4 158.3C365.6 158.6 365.8 158.9 365.8 159.3V165C365.8 165.4 365.6 165.9 365.3 166.2C365 166.5 364.5 166.8 364 166.8H363.3L363.4 167.5L363.6 168.3L363.3 168.2L360.3 166.9H352.1C351.2 166.9 350.4 166.1 350.4 165.2V163.2H350.1V165.2C350.1 166.3 351 167.2 352.1 167.2H360.1L364 168.9L363.6 167.2H363.9C365 167.2 365.9 166.3 365.9 165.2V159.5C365.9 158.4 365 157.5 363.9 157.5H359.9V157.8H364V157.6ZM363.4 167.4L363.3 166.7L363.4 167.4Z" fill="#1A3C47"/>
<path d="M365.7 165C365.7 165.4 365.5 165.9 365.2 166.2C365.5 165.9 365.7 165.5 365.7 165V159.3C365.7 158.9 365.6 158.5 365.3 158.3C365.5 158.6 365.7 158.9 365.7 159.3V165ZM354.7 166.7L360.3 166.8L363.3 168.1L360.3 166.8L354.7 166.7ZM350.1 163H350.4H350.1ZM350.4 159.3C350.4 158.4 351.2 157.6 352.1 157.6H359.4V157.3H352.1C351 157.3 350.1 158.2 350.1 159.3V162.3H350.4V159.3ZM359.8 157.3H360.1V157.6H359.8V157.3ZM350.1 162.7H350.4V163H350.1V162.7ZM359.4 157.3H359.7V157.6H359.4V157.3Z" fill="#1A3C47"/>
<path d="M350.1 162.4H350.4V162.7H350.1V162.4ZM350.1 162.4H350.4H350.1ZM358.3 162.9C358.7 162.8 359 162.6 359.3 162.4C359 162.6 358.7 162.8 358.3 162.9Z" fill="#1A3C47"/>
<path d="M359.3 162.4C359 162.7 358.7 162.8 358.3 162.9H363.6V161.5H359.9C359.8 161.9 359.5 162.2 359.3 162.4Z" fill="#1A3C47"/>
<path d="M357.7 162.4C358.1 162.4 358.5 162.2 358.8 162C358.9 161.9 359 161.8 359.1 161.6H353.5V162.4H357.7ZM359.3 162.4C359.6 162.2 359.8 161.9 359.9 161.6C359.8 161.9 359.5 162.2 359.3 162.4Z" fill="#1A3C47"/>
<path d="M357.7 162.7H353.5V162.9H358.3C358.7 162.8 359 162.6 359.3 162.4C359.6 162.2 359.8 161.9 359.9 161.6H359.5C359.2 162.2 358.5 162.7 357.7 162.7Z" fill="#1A3C47"/>
<path d="M353.5 162.4H357.7C358.1 162.4 358.5 162.2 358.8 162C358.5 162.3 358.1 162.4 357.7 162.4H353.5Z" fill="#1A3C47"/>
<path d="M358.9 161.9C358.6 162.2 358.2 162.3 357.8 162.3H353.6V162.6H357.8C358.6 162.6 359.3 162.1 359.6 161.5H359.2C359.1 161.7 359 161.8 358.9 161.9ZM285.4 229.8C285.2 229.7 285 229.6 284.9 229.6C284.6 229.6 284.3 229.7 284.1 230L273.7 245.6L271.3 241.5C271 241 270.4 240.9 270 241.1C269.5 241.4 269.4 242 269.6 242.4L273.5 249.2L285.7 231C286 230.7 285.9 230.1 285.4 229.8Z" fill="#1A3C47"/>
<path d="M284.9 229.6C284.6 229.6 284.3 229.7 284.1 230C284.3 229.8 284.6 229.6 284.9 229.6ZM283.5 173.9C282.2 170.4 278.8 168 275 167.9H274.9C270.8 167.9 267.1 170.7 266 174.7C265.9 175 266.1 175.4 266.4 175.5C266.7 175.6 267.1 175.4 267.2 175.1C268.1 171.6 271.3 169.2 274.9 169.3C278.1 169.3 280.9 171.4 282.1 174.3L283 174.7L283.5 173.9Z" fill="#1A3C47"/>
<path d="M285.2 173.2C285.3 172.9 285.2 172.5 284.9 172.3C284.6 172.2 284.2 172.3 284 172.6L283.4 173.9C283.5 174.2 283.6 174.4 283.7 174.7C283.8 175 283.6 175.4 283.3 175.5H283.1C282.8 175.5 282.6 175.3 282.5 175L282.2 174.1L280.9 173.5C280.6 173.4 280.2 173.5 280 173.8C279.8 174.1 280 174.5 280.3 174.7L283.7 176.3L285.2 173.2Z" fill="#1A3C47"/>
<path d="M283.1 175.5H283.3C283.6 175.4 283.8 175.1 283.7 174.7C283.6 174.4 283.5 174.2 283.4 173.9L283.1 174.6L282.2 174.2L282.5 175.1C282.6 175.4 282.8 175.5 283.1 175.5Z" fill="#1A3C47"/>
<path d="M180.9 157.9V157.7C180.9 157.6 181 157.5 181.1 157.4C180.9 157.3 180.7 157.3 180.5 157.4C180.3 157.5 180.2 157.7 180.2 158H180.9V157.9ZM191.3 163.7H191.4L194.6 161.6L191.3 163.7ZM191.4 165.1C191.3 165.1 191.2 165.1 191.1 165L181.6 158.5V159L190.9 165C191 165.2 191.2 165.2 191.4 165.1Z" fill="white"/>
<path d="M181.2 158.4C181 158.3 180.9 158.1 180.9 157.9H180.8L180.5 158.4L181.5 159V158.5L181.2 158.4ZM201.8 157.3C201.7 157.2 201.6 157.2 201.5 157.2C201.7 157.3 201.8 157.4 201.9 157.6C202 157.9 201.9 158.2 201.6 158.3L195.3 162.6L200.8 159V167H202.1V157.8C202.1 157.6 202 157.4 201.8 157.3Z" fill="white"/>
<path d="M181.5 170.7V159L180.5 158.4L180.8 157.9H180.2V171.4C180.2 171.6 180.3 171.7 180.4 171.8C180.5 171.9 180.7 172 180.9 172H190.9V170.7H181.5ZM191.8 165.1H191.6C191.5 165.1 191.5 165.1 191.4 165.2C191.5 165.2 191.6 165.1 191.8 165.1ZM191.2 163.8L191.4 163.7L183.7 158.5H199.2L194.7 161.6L201.2 157.4C201.3 157.3 201.4 157.3 201.5 157.3H181.6C181.5 157.3 181.3 157.4 181.2 157.4L191.2 163.8Z" fill="white"/>
<path d="M191.8 165.1L195.3 162.6L191.7 165L191.8 165.1ZM181.2 158.4L181.5 158.6V157.9H180.9C180.9 158.1 181.1 158.3 181.2 158.4ZM191.4 163.7L191 164L191.4 164.5L191.8 164L191.4 163.7Z" fill="white"/>
<path d="M180.9 157.9H181.5V158.6L191 165.1C191.1 165.2 191.2 165.2 191.3 165.2C191.4 165.2 191.4 165.2 191.5 165.1L191.7 165L191.4 164.6L191 164L191.4 163.7L191.3 163.6L191.1 163.7L181.2 157.2C181.1 157.3 181 157.4 181 157.5C180.9 157.7 180.9 157.8 180.9 157.9Z" fill="white"/>
<path d="M194.6 161.6L191.4 163.8L191.8 164.1L191.4 164.6L191.7 165L195.3 162.7L201.6 158.4C201.8 158.2 201.9 158 201.9 157.7C201.8 157.5 201.7 157.3 201.5 157.3C201.4 157.3 201.3 157.3 201.2 157.4L194.6 161.6Z" fill="white"/>
<path d="M345.4 189.6H317.5V220.7H348.6V189.6H345.4ZM337.3 208.8V214.6H328.8V208.8H324.2L328.7 202.2L333.1 195.9L337.5 202.2L341.3 207.7L342 208.7L337.3 208.8ZM344.2 200.4V198.2V200.4ZM345.5 217.5C344.6 211.9 344.2 206.2 344.2 200.4C344.2 206.3 344.6 211.9 345.5 217.5ZM345.9 217.8L345.6 217.9L345.9 217.8V217.5V217.8Z" fill="#639FCB"/>
<path d="M333.1 198.2L329.8 203L326.6 207.5H330.1V213.3H336V207.5H339.5L336.4 203L333.1 198.2ZM206.7 178.6H190.9V198.2H222V167.1H206.7V178.6Z" fill="#639FCB"/>
<path d="M206.7 167.1H200.8V170.7H190.9V172H190.8V178.6H206.7V167.1Z" fill="#639FCB"/>
<path d="M190.9 167.1H200.9V170.7H190.9V167.1Z" fill="#639FCB"/>
<path d="M108.9 113.7C89.3 125.7 74.1 151 74 175.4V175.7C74 176.9 74 178.2 74.1 179.4C76.6 217.3 115.6 224.2 115.3 260.5C115.1 286.1 94.7 293.2 98.6 317.2C102.7 342.6 129.2 357.4 133.4 359.7C144.9 366.1 158.1 369.2 172.1 369.2C199.3 369.2 229.6 357.7 257.1 336.6C289.4 368.2 331.3 383.8 372.1 383.8C406.5 383.8 440.2 372.7 467 350.8C529.8 299.3 535.8 203.6 497.9 151.2C490.4 140.9 481.7 132.9 472.1 126.4V297.3H420.2C426.2 299.5 432.6 301.1 439.1 302.2V362.2C392.3 357.6 351.4 333.1 324.8 297.4H143.3V101.9C131.7 103.3 120.2 106.7 108.9 113.7Z" fill="#90CFC0"/>
<path d="M471.5 98.1C515.5 105 550.3 139.8 557.2 183.8H617.2C609.6 106.9 548.4 45.7 471.5 38.1V98.1Z" fill="#90CFC0"/>
<path d="M561.2 354.1C542.9 349.4 531.9 330.7 536.6 312.4C541.3 294.1 560 283.1 578.2 287.8C596.5 292.5 607.5 311.2 602.8 329.5C598.1 347.8 579.5 358.8 561.2 354.1ZM606.3 325.9L612.3 327.5L613.6 317.6L607.3 317.3L606.1 311.9L611.5 310.7L607.7 300.7L603.2 303.4L599.3 298.6L602.6 295.6L596.6 288.9L593 293.1C591.3 291.8 589.6 290.6 588 289.3L590.7 284.4L582.4 281.1L580.8 285.3L574.9 283.3L575.8 278.1L565.1 278L565.9 283.5L560.4 284.3L557.9 278.5L549 283.2L552.5 288.3L547.4 291.9L543.9 286.8L536.3 293.2L540.2 296.6L536.5 302.2L531.6 299.5L528.3 307.8L532.5 309.5L531.2 316.4L526 315.5L526.2 324.5L531.4 325.4L532.2 330.9L528.1 333.7L532 341.6L535.1 339.5L538.6 344.6L534.5 347.4L539.5 354.5L545.6 350.2C547.2 351.4 548.7 352.6 550.3 353.8L548.4 361L556.8 363.2L558 358.4L564 360L563.1 363.6L571.8 364.6L573 359.8L578.4 358.6L581.1 363.1L589.6 360.1L586.9 355.6L593 352L596 355.3L602.7 349.3L598.5 345.7L602.5 340.3L607 342.7L610.7 333.4L604.7 331.8L606.3 325.9Z" fill="#639FCB"/>
<path d="M561 137.6L546.5 131.7C543.6 130.5 542.3 127.2 543.6 124.4L550.6 108.9C559 115.6 563.3 126.6 561 137.6ZM536.3 160.7L538.1 145.1C538.5 141.9 541.5 139.7 544.6 140.4L559.1 143.4C555.1 152.9 546.3 159.4 536.3 160.7ZM530.7 138.4C527 137.5 524.8 133.7 525.8 130.1C526.7 126.4 530.5 124.2 534.1 125.2C537.8 126.1 540 129.9 539 133.5C538.1 137.1 534.4 139.3 530.7 138.4ZM525.1 160.1C516.3 157.8 509.5 151.8 505.9 144.2L520.4 140.1C523.5 139.2 526.6 141.2 527.2 144.3L530.4 160.9C528.7 160.8 526.9 160.5 525.1 160.1ZM504.1 124.5C505.5 119.2 508.2 114.5 511.9 110.9L520.1 124.9C521.7 127.7 520.6 131.2 517.7 132.6L504 139C502.9 134.4 502.8 129.4 504.1 124.5ZM539.7 103.4C542.1 104 544.2 104.9 546.3 106L535.4 118.6C533.3 121 529.5 121.1 527.3 118.8L516.5 107.3C523.1 102.9 531.4 101.3 539.7 103.4ZM551.2 103.2C548.1 101.2 544.7 99.6 540.9 98.6C530.9 96 520.8 98.2 513 103.6C511.7 104.5 510.5 105.5 509.3 106.5C504.6 110.8 501 116.5 499.3 123.2C494.6 141.5 505.6 160.1 523.9 164.9C527.1 165.7 530.4 166.1 533.5 166H533.7C534.4 166 535.1 165.9 535.7 165.9C548.8 164.6 560.5 155.7 564.8 142.7C564.8 142.6 564.8 142.6 564.9 142.5L565.5 140.4C565.6 140.1 565.6 139.9 565.7 139.6C569 125.2 562.9 110.9 551.2 103.2Z" fill="#1A3C47"/>
<path d="M523.9 164.9C505.6 160.2 494.6 141.5 499.3 123.2C504 104.9 522.7 93.9 540.9 98.6C559.2 103.3 570.2 122 565.5 140.3C560.8 158.6 542.2 169.6 523.9 164.9ZM569 136.7L575 138.3L576.3 128.4L570 128.1L568.8 122.7L574.2 121.5L570.4 111.5L565.9 114.2L562 109.4L565.3 106.4L559.3 99.7L555.7 103.9C554 102.6 552.3 101.4 550.7 100.1L553.4 95.2L545.1 91.9L543.5 96.1L537.6 94.1L538.5 88.9L527.8 88.8L528.6 94.3L523.1 95.1L520.6 89.3L511.7 94L515.2 99.1L510.1 102.7L506.6 97.6L499 104L502.9 107.4L499.2 113L494.3 110.3L491 118.6L495.2 120.3L493.9 127.2L488.7 126.3L488.9 135.3L494.1 136.2L494.9 141.7L490.8 144.5L494.7 152.4L497.8 150.3L501.3 155.4L497.2 158.2L502.2 165.3L508.3 161C509.9 162.2 511.4 163.4 513 164.6L511.1 171.8L519.5 174L520.7 169.2L526.7 170.8L525.8 174.4L534.5 175.4L535.7 170.6L541.1 169.4L543.8 173.9L552.3 170.9L549.6 166.4L555.7 162.8L558.7 166.1L565.4 160.1L561.2 156.5L565.2 151.1L569.7 153.5L573.4 144.2L567.4 142.6L569 136.7Z" fill="#639FCB"/>
<path d="M240.3 382.3L232.7 354.6L230.8 355.1L238.4 382.8C239.3 386.1 238.6 389.6 236.5 392.4C234.4 395.2 231.2 396.7 227.7 396.7H190.2C186.8 396.7 183.7 395.2 181.6 392.5C179.5 389.9 178.7 386.5 179.5 383.2L187 350.7L185.1 350.3L177.6 382.8C176.7 386.7 177.6 390.7 180.1 393.8C182.6 396.9 186.3 398.7 190.3 398.7H227.8C231.9 398.7 235.7 396.8 238.1 393.6C240.6 390.3 241.4 386.2 240.3 382.3Z" fill="#1A3C47"/>
<path d="M224.8 293.9H248.4V341.3H224.8V293.9Z" fill="#E88AA1"/>
<path d="M184.4 343.8C180.1 347.8 184.4 352.1 184.4 352.1H232.1V341.7C232.1 341.7 222.2 341.3 211.3 341.3C199.6 341.2 186.7 341.7 184.4 343.8Z" fill="#E88AA1"/>
<path d="M226.7 329.5C228.6 333.4 230.5 337.2 232.4 341C231.5 344.5 230.6 348 229.6 351.5H216.1V352.9C221.7 354.2 227.2 355.5 232.8 356.8C234.5 351.4 236.2 346.1 238 340.7C235.2 336.4 232.5 332.1 229.7 327.7C228.8 328.3 227.8 328.9 226.7 329.5Z" fill="#1A3C47"/>
<path d="M223.1 322.2C222.9 322 221.2 320.7 217.1 320.4C216.3 320.4 214.7 320.3 212.7 320.2C206.9 319.9 195 319.3 193.2 319C192.5 319.1 190.7 319.3 189 320.6C188.3 321.1 186.8 322.5 186.2 324.8C185.9 326.1 185.9 327.4 186.2 328.8L186.3 329L197 352.9C197.1 352.9 197.5 353.2 198 353C198.6 352.8 198.8 352.1 198.8 352.1C195.3 344.2 191.7 336.2 188.2 328.3C187.8 326.6 188 325.1 188.9 323.8C190 322.1 191.8 321.2 192.5 321C195.6 321.3 198.1 321.5 199.9 321.7C206.8 322.2 210.2 322.2 212.6 322.4C214.5 322.5 216.1 322.6 216.9 322.6C220.1 322.8 221.5 323.7 221.7 323.9L227.7 329.9L229.1 328.5L223.1 322.2Z" fill="#1A3C47"/>
<path d="M358.2 271.5C358.2 271.5 362.4 272.7 362.5 275.8C362.6 278.9 364.7 278.1 364.7 278.1L363.5 270.4L363.4 270.2C363.4 270.2 361.3 270.3 360.1 270.6C358.9 270.9 358.2 271.5 358.2 271.5Z" fill="#F7AC6F"/>
<path d="M376.8 398.8H339.3C335.2 398.8 331.4 396.9 329 393.7C326.6 390.5 325.7 386.3 326.8 382.4L334.4 354.7L336.3 355.2L328.7 382.9C327.8 386.2 328.5 389.7 330.6 392.5C332.7 395.3 335.9 396.8 339.4 396.8H376.9C380.3 396.8 383.4 395.3 385.5 392.6C387.6 390 388.4 386.6 387.6 383.3L380.1 350.8L382 350.3L389.5 382.8C390.4 386.7 389.5 390.7 387 393.8C384.5 397 380.8 398.8 376.8 398.8Z" fill="#F7AC6F"/>
<path d="M389.5 382.9L382 350.4L380.1 350.9L387.6 383.4C388.4 386.7 387.6 390.1 385.5 392.7C383.4 395.3 380.2 396.9 376.9 396.9H339.4C335.9 396.9 332.7 395.3 330.6 392.6C328.5 389.8 327.8 386.3 328.7 383L336.3 355.3L334.4 354.8L326.8 382.5C325.7 386.4 326.5 390.6 329 393.8C331.5 397.1 335.3 398.9 339.3 398.9H376.8C380.8 398.9 384.5 397.1 387 394C389.5 390.8 390.4 386.7 389.5 382.9Z" fill="#1A3C47"/>
<path d="M318.7 294H342.3V341.4H318.7V294Z" fill="#E88AA1"/>
<path d="M335 341.7V352.1H382.7C382.7 352.1 387 347.8 382.7 343.8C380.5 341.7 367.6 341.2 355.8 341.2C344.9 341.3 335 341.7 335 341.7Z" fill="#E88AA1"/>
<path d="M335.4 343.9C335.1 343 334.9 342 334.7 341.1C336.6 337.2 338.5 333.4 340.4 329.6C339.4 329 338.4 328.4 337.3 327.8C334.5 332.1 331.8 336.4 329 340.8C330.7 346.2 332.5 351.5 334.2 356.9C339.8 355.6 345.3 354.3 350.9 353V351.6L335.4 343.9Z" fill="#1A3C47"/>
<path d="M403.4 298.3C400.9 297.8 398.8 297.7 397 297.7C394.2 297.5 390.7 296.8 387 295C375.1 289 372 275.9 371.5 273.5C370.2 276.1 368.9 278.6 367.6 281.2C366.9 286.7 368.5 290.2 369.3 291.8C373.5 299.4 384.4 303.2 396.3 300.3C397.1 301 397.9 301.4 398.4 301.6C401.8 303 404.4 301.2 410.7 301.5C411.1 301.5 411.4 301.5 411.6 301.6C409.9 300.5 407.1 299.1 403.4 298.3Z" fill="#FDE2D4"/>
<path d="M370.8 276C379.6 267.1 383.1 256.4 379.5 249.2C379 248.1 376.3 243.2 371 242C365 240.7 360 245 359.4 245.5C351.5 252.5 357.9 262 351 269.9C344.4 277.6 333.8 274.2 330.9 281.7C329.3 285.8 331.4 290 331.8 290.8C335.6 298.3 346.8 300.9 354.9 298.4C363.7 295.7 370.2 286.8 370.8 276Z" fill="#1A3C47"/>
<path d="M377.7 283C375.2 278.1 373.1 274.1 371.6 271.2C370.8 271.3 369.9 271.3 368.9 271.3C366.8 271.2 365.1 270.8 363.7 270.4C363.3 270.4 362.7 270.6 362 270.9C362 270.9 359.1 272.1 357.2 276.3C355.5 280.1 353.3 298 352.1 322.6C360.3 323 368.5 323.3 376.7 323.6C376.5 318.4 376.4 313.2 376.2 308C376.1 305 376.1 302 376 299C377.6 297.7 380 295.4 380.5 292.1C380.9 289.5 380 287.5 377.7 283Z" fill="#F7AC6F"/>
<path d="M370.9 255.1C368.8 255.7 367.5 254.5 367.5 254.5C366.8 253.1 365.8 253.1 365.4 253.4C364 254.2 364.8 258.2 366.1 258.8C366.5 258.9 366.9 258.8 366.9 258.1C366.8 259.3 366.6 260.5 366.4 261.9C365.8 265.2 364.8 268 363.8 270.4C364.6 272.2 366.3 273.3 368.1 273.3C370 273.3 371.1 271.9 371.4 271.7C371.3 269.8 371.1 267.9 371 266C371.2 266.2 372 267.4 373.4 267.6C374.5 267.7 375.3 267.3 375.7 267C378.4 265.4 378.4 261.1 378.4 260.7C378.8 260.7 378.9 260.6 378.9 260.5C379.1 260.2 378.7 259.8 378.5 259C378.4 258.7 378.4 258.4 378.4 258.3C378.4 256.9 377.3 251.2 376.5 251C376.4 250.8 375.2 254 370.9 255.1Z" fill="#FDE2D4"/>
<path d="M415.5 393.7C415.1 394.2 414.4 394.7 412.9 395.1C409.4 395.9 401.7 390.8 401.7 390.8C401.7 390.8 400.6 394.1 401.7 395.5C402.9 396.9 418.4 399.8 419.7 397.9C420.4 397.1 418.2 395.4 415.5 393.7Z" fill="#7BC6B4"/>
<path d="M405 395.3C404.6 395.8 403.9 396.3 402.4 396.7C398.9 397.5 391.2 392.4 391.2 392.4C391.2 392.4 390.1 395.7 391.2 397.1C392.3 398.5 407.9 401.4 409.2 399.5C410 398.7 407.7 397 405 395.3Z" fill="#7BC6B4"/>
<path d="M415.9 336C414.5 334 412.2 333.4 410.8 333.1C408.1 332.5 404.2 331.9 400 331.5C397.9 330.9 395.5 330.5 392.3 330.1C388.4 329.6 383.4 329.2 377.6 329.1C377.2 326.1 376.8 323.2 376.4 320.2C368.4 319.8 360.3 319.4 352.3 319C351.9 319.9 351.4 321.2 350.9 322.8C349.1 327.9 348.1 330.7 348 334.1C348 335.8 347.9 338.8 349.4 341.2C351.3 344.4 355.6 346.3 371.3 346.6C377.7 346.7 386.1 346.6 396.1 345.5C394.5 361.1 392.8 376.8 391.2 392.4C391.2 392.4 398.9 397.5 402.4 396.7C403.8 396.4 404.6 395.8 405 395.3C403.4 394.6 401.8 393.8 400.2 392.9C398.8 392.2 397.4 391.4 396.1 390.7C398.3 385.4 400.1 380.7 401.7 376.5V390.8C401.7 390.8 409.4 395.9 412.9 395.1C414.3 394.8 415.1 394.2 415.5 393.7C413.1 392.4 410.6 391.1 408 389.8C407.5 389.5 406.9 389.3 406.4 389C411.1 367.6 414.5 351.8 416.5 344.7C416.9 343.2 418.1 339 415.9 336ZM361.8 303.5C373 313.2 388 308.9 389.2 308.6V308.5C389.6 308.7 390.1 308.8 390.7 308.8C393.1 308.8 393.6 306.4 396.3 305.9C397.3 305.7 397.2 306.1 400.3 306C402.6 306 402.7 305.8 402.7 305.7C402.7 305.5 402 305.2 400.5 304.7C397.5 303.7 396 303.2 395.4 303.2C394.5 303.1 391.9 303 388.7 305.5C387.1 305.4 375.6 304.5 368 294.3C360.1 283.5 363.3 271.5 363.7 270.1C362.2 270.2 359.3 270.5 356.8 272.6C353.3 275.6 353 280.1 352.8 282.7C352.3 290.1 355.8 298.2 361.8 303.5Z" fill="#FDE2D4"/>
<path d="M348.1 319H412.7V346.8H348.1V319Z" fill="#F7AC6F"/>
<path d="M354.4 320.3C352.4 320.4 350.9 320.5 350 320.5C345.9 320.7 344.2 322.1 344 322.3L337.9 328.4L339.3 329.8L345.3 323.8C345.5 323.7 346.9 322.7 350.1 322.5C350.9 322.5 352.5 322.4 354.4 322.3C356.9 322.2 360.3 322.1 367.1 321.6C368.9 321.5 371.4 321.3 374.5 320.9C375.2 321.1 377 322 378.1 323.7C379 325 379.2 326.6 378.8 328.2C375.3 336.1 371.7 344.1 368.2 352C368.2 352 368.3 352.7 369 352.9C369.5 353.1 370 352.8 370 352.8L380.7 328.9V328.7C381.1 327.3 381.1 326 380.7 324.7C380.1 322.4 378.6 321.1 377.9 320.5C376.2 319.2 374.4 318.9 373.7 318.9C372.1 319.4 360.2 320 354.4 320.3Z" fill="#1A3C47"/>
<path d="M531.4 327.6H400.5C400 327.6 399.6 327.2 399.6 326.7V306.7C399.6 306.2 400 305.8 400.5 305.8H531.3C531.8 305.8 532.2 306.2 532.2 306.7V326.7C532.2 327.3 531.8 327.6 531.4 327.6Z" fill="#1A3C47"/>
<path d="M193.4 201.3L193.7 197.7C197 197.4 200.4 197.2 203.7 197L199.2 202.7C197.3 202.3 195.3 201.8 193.4 201.3Z" fill="#FDE2D4"/>
<path d="M154.6 213.4C155.1 213.1 156.4 212.3 157.1 210.7C157.3 210.2 157.9 209 157.5 207.6C156.9 205.2 154.4 204.2 154 204C152.7 203.5 151.6 203.6 150.9 203.8C150.7 203.6 149.4 201.9 147.1 201.8C144.8 201.7 143.4 203.4 143.2 203.6C143.1 203.6 140.8 202.7 138.8 204.3C137 205.7 137.1 207.9 137.1 208.1C135.5 208.3 134.1 209.5 133.6 211C133.1 212.6 133.5 214.4 134.8 215.5C134.7 215.8 133.7 217.4 134.5 219.4C135.3 221.7 137.7 222.3 137.9 222.4C138.1 223.2 138.6 225.2 140.4 226.5C140.7 226.8 142.1 227.6 143.9 227.5C146.7 227.3 148.2 225 148.4 224.8C150.5 221 152.6 217.2 154.6 213.4Z" fill="#1A3C47"/>
<path d="M153.4 390.3V393C153.4 393 156.6 393.1 156.6 392.7V389.4L153.4 390.3Z" fill="#E88AA1"/>
<path d="M166.4 397.1C163.8 395.5 161.8 394.3 160.5 393.5L158.5 392.5C157.7 392.1 157.3 391.8 156.8 391.8H156.5C156.1 391.9 156.2 392.1 155.6 392.4C155.3 392.5 154.8 392.8 154.1 392.6C153.5 392.4 153.2 392 153.1 391.8C153.1 391.8 150.8 393 151.7 396.4C152.2 396.5 153 396.7 153.9 396.8C156.8 397.3 159 397.4 161.1 397.4C163.1 397.5 164.6 397.5 166.6 397.3C166.6 397.3 166.4 397.2 166.4 397.1Z" fill="#F8AB46"/>
<path d="M166.7 397.5C164.6 397.7 163.2 397.6 161.2 397.6C159.1 397.5 156.9 397.5 154 397C153.1 396.8 152.4 396.7 151.8 396.6C151.8 396.6 150.8 397.7 152.3 398.6L166.8 398.7C166.8 398.6 167 398.3 166.9 397.8C166.8 397.7 166.7 397.6 166.7 397.5Z" fill="#1A3C47"/>
<path d="M117.7 393.4C118.4 391.5 119.1 389.5 119.8 387.6C121 388.1 122.2 388.6 123.5 389.1C122.9 390.7 122.3 392.4 121.7 394C120.4 394.1 119.2 394.2 118 394.2C117.8 394 117.7 393.7 117.7 393.4Z" fill="#E88AA1"/>
<path d="M122.1 392.8C121.9 392.8 121.7 392.9 121.5 392.9C121.2 392.2 120.6 391.8 119.8 391.7C119.1 391.7 118.5 392.1 118.2 392.7C118.1 392.5 118.1 392.4 118.1 392.2C117.5 393.1 116.9 393.7 116.5 394.2C115.8 394.9 115.3 395.2 115 396C114.7 396.6 114.7 397.1 114.7 397.5C116.2 397.8 120.3 398 122.5 397.8C122.6 397.4 122.6 396.9 122.6 396.4C122.7 394.9 122.4 393.6 122.1 392.8Z" fill="#F8AB46"/>
<path d="M114.7 397.4V397.8C114.7 398.3 114.8 398.6 115.2 398.7H122C122.2 398.4 122.3 398.2 122.4 398C122.4 397.9 122.5 397.8 122.5 397.7C120.3 397.9 116.2 397.7 114.7 397.4Z" fill="#1A3C47"/>
<path d="M122.3 294.7C123 294.9 123.8 295.2 124.2 295.9C124.2 295.9 124.3 296 124.3 296.1C124.4 296.4 124.5 296.8 124.6 298.2C124.6 298.2 124.7 299.1 124.6 301.1C124.6 301.4 124.6 301.9 124.3 302.1C124.1 302.2 123.9 302.2 123.7 302.2C123.4 302.1 123.2 301.8 123.1 301.5C123 300.7 122.9 299.9 122.9 299.1C122.6 301.4 122.2 303.6 121.9 305.8C121.8 306.2 121.5 306.5 121.1 306.4C120.8 306.4 120.5 306 120.5 305.7C120.6 304.4 120.7 303.2 120.8 301.9C120.5 303.1 120.2 304.4 119.9 305.6C119.8 306 119.5 306.3 119.1 306.3C118.7 306.3 118.3 305.9 118.4 305.4C118.6 304.2 118.7 302.9 118.9 301.7C118.6 302.9 118.2 304 117.9 305.2C117.7 305.6 117.4 305.8 117.1 305.7C116.7 305.6 116.4 305.2 116.5 304.7C116.7 303.5 116.9 302.3 117.2 301.2C116.9 302.3 116.6 303.3 116.4 304.4C116.2 304.6 115.9 304.7 115.6 304.6C115.3 304.5 115.1 304.3 115.1 304C115.9 300 116.5 297.1 116.8 296.1C116.9 295.8 117 295.3 117.4 294.8C117.8 294.3 118.3 294.1 118.5 294C118.6 293.5 118.6 292.8 118.7 292.2L122.9 292.5C122.6 293.2 122.4 294 122.3 294.7Z" fill="#FDE2D4"/>
<path d="M118 244C118 235.716 124.716 229 133 229V279C133 287.284 126.284 294 118 294V244Z" fill="white"/>
<path d="M175.208 237.356C179.575 234.877 182.85 230.845 184.381 226.062L192.5 200.7H199.5V229C199.5 240.046 190.546 249 179.5 249H154.7L175.208 237.356Z" fill="white"/>
<path d="M168.3 286.8C156.7 286.8 145.2 286.9 133.6 286.9C131.9 300.3 130 313.7 128.1 327.3C125.1 348.2 122 368.7 118.8 389C120.4 389.6 122.1 390.3 123.7 390.9C128 381.9 132.3 371.9 136.2 361.2C142.5 344 147 327.8 150.1 313.3C150.2 325.4 150.4 337.7 150.8 350.2C151.2 364.1 151.8 377.7 152.6 390.9C154.3 390.9 155.9 390.8 157.6 390.8C161.4 376.9 164.8 360.7 166.9 342.4C169.2 321.4 169.2 302.6 168.3 286.8Z" fill="#1A3C47"/>
<path d="M133.1 229H168.6V289.9H133.1V229Z" fill="white"/>
<path d="M145.101 224.6C145.401 227 145.601 229.5 145.901 231.9C146.901 232.1 148.201 232.2 149.701 232C151.601 231.8 153.201 231.3 154.301 230.8C154.101 228.7 153.801 226.7 153.601 224.6C150.901 223.8 148.301 223 145.701 222.3C145.401 223.1 145.201 223.9 145.101 224.6Z" fill="#FDE2D4"/>
<path d="M153.8 227.2L146.2 225.5C146.6 226.2 147.3 227.2 148.5 228.1C150.8 229.9 153.3 230 154.2 229.9C154 229 153.9 228.1 153.8 227.2Z" fill="#F7AC6F"/>
<path d="M154.3 210C154.9 211.6 155.2 212.9 155.5 213.8C155.8 214.9 155.9 215.4 156.2 216.6C157.1 220.5 157.4 220.5 157.7 222.4C158.3 225.5 158.6 227 157.8 228.1C156.9 229.3 155.2 229.2 152.7 229.1C150.9 229 149.6 228.9 148.2 227.9C146.5 226.8 145.7 225.1 145.4 224.3C145.4 224.3 145.2 225.3 144.4 224.8C143.6 224.3 140.9 220 142.4 219.4C143.9 218.7 145.1 221 145.1 221L145.9 219.6C145.9 219.6 143.6 214.5 145.3 212.7C145.7 212.3 146.1 212.2 146.4 212.1C148.3 211.8 150.8 211.1 154.3 210Z" fill="#FDE2D4"/>
<path d="M197.4 198C197.1 196.1 196.8 194.6 196.5 193.5C196.3 192.8 196.1 191.9 195.5 191.7C195.2 191.6 194.9 191.8 194.8 191.9C193.5 192.8 193.7 197.2 193.7 197.9C194.8 198.3 195.8 198.6 196.9 199C197.1 198.7 197.3 198.4 197.4 198Z" fill="#FDE2D4"/>
<path d="M557.7 215C550.8 259 516 293.8 472 300.7L429.5 300.7L429.5 329L429.5 360.7L472 360.7C548.9 353.1 610.1 291.9 617.7 215L557.7 215Z" fill="#F7AC6F"/>
<path d="M602.7 276.2L594.3 264.2L586 252.2L577.8 264.2L569.5 276.2H578.2V308.1H593.9V276.2H602.7Z" fill="#1A3C47"/>
<path d="M402.8 401H402C400.9 401 400 400.1 400 399V323.9H404.9V399C404.8 400.1 403.9 401 402.8 401ZM520 401H519.1C518 401 517.1 400.1 517.1 399V323.9H522.1V399C522.1 400.1 521.1 401 520 401ZM528.7 397.7H527.8C526.7 397.7 525.8 396.8 525.8 395.7V325.9H530.8V395.7C530.8 396.8 529.9 397.7 528.7 397.7Z" fill="#1A3C47"/>
<path d="M525.8 327.6H394.5C394.1 327.6 393.8 327.3 393.8 326.9V306.5C393.8 306.1 394.1 305.8 394.5 305.8H525.7C526.1 305.8 526.4 306.1 526.4 306.5V327C526.4 327.4 526.1 327.6 525.8 327.6Z" fill="#1A3C47"/>
<path d="M428.76 272.929C429.018 271.864 430.091 271.209 431.156 271.467C432.222 271.724 432.877 272.797 432.619 273.863L425.325 304.023C425.068 305.089 423.995 305.744 422.929 305.486C421.864 305.228 421.209 304.156 421.467 303.09L428.76 272.929Z" fill="#E88AA1"/>
<path d="M391.985 305.97C390.889 305.97 390 305.081 390 303.985C390 302.889 390.889 302 391.985 302L423.015 302C424.111 302 425 302.889 425 303.985C425 305.081 424.111 305.97 423.015 305.97L391.985 305.97Z" fill="#E88AA1"/>
<path opacity="0.1" d="M2.01046 401.31C5.4456 399.97 8.88074 398.859 12.3159 397.777C15.751 396.694 19.1861 395.732 22.6213 394.81C29.494 392.968 36.3643 391.378 43.2346 389.95C56.9751 387.108 70.7157 384.994 84.4562 383.368C87.8914 382.985 91.3265 382.594 94.7616 382.271C98.1968 381.949 101.632 381.631 105.067 381.35C111.937 380.81 118.808 380.386 125.678 380.079C132.548 379.775 139.418 379.53 146.289 379.618C153.159 379.705 160.029 380.079 166.9 380.714C173.77 381.35 180.64 382.267 187.51 383.368C190.946 383.907 194.381 384.505 197.816 385.109L208.124 386.952C221.864 389.425 235.605 391.613 249.345 392.641C256.216 393.193 263.086 393.451 269.956 393.562C276.826 393.672 283.697 393.645 290.567 393.484C297.437 393.322 304.307 393.023 311.178 392.604C318.048 392.185 324.918 391.609 331.789 391.01L352.399 389.057L362.705 388.08C366.14 387.785 369.575 387.454 373.01 387.186C376.445 386.919 379.881 386.62 383.316 386.385C386.751 386.15 390.188 385.892 393.624 385.685L403.929 385.067C407.364 384.856 410.799 384.607 414.234 384.344C441.716 382.35 469.197 378.6 496.678 378.102C510.418 377.789 524.159 378.222 537.899 379.024C551.64 379.825 565.38 380.995 579.123 382.562C592.867 384.128 606.605 386.095 620.345 388.61C627.215 389.872 634.086 391.254 640.956 392.839C644.391 393.626 647.826 394.456 651.261 395.368C654.697 396.28 658.132 397.21 661.567 398.32C662.527 398.629 663.399 399.569 664.027 400.973C664.655 402.378 665 404.157 665 405.995C665 407.833 664.655 409.612 664.027 411.016C663.399 412.421 662.527 413.361 661.567 413.669C658.132 414.775 654.697 415.724 651.261 416.622C647.826 417.52 644.391 418.363 640.956 419.151C634.086 420.736 627.215 422.113 620.345 423.38C606.605 425.895 592.864 427.853 579.123 429.428C565.383 431.004 551.64 432.141 537.899 432.966C524.159 433.791 510.418 434.219 496.678 433.887C469.197 433.394 441.716 429.645 414.234 427.65C410.799 427.401 407.364 427.139 403.929 426.927L393.624 426.31C390.188 426.104 386.752 425.87 383.316 425.609C379.881 425.375 376.445 425.093 373.01 424.808C369.575 424.522 366.14 424.209 362.705 423.914L352.399 422.933L331.789 420.984C324.918 420.386 318.048 419.805 311.178 419.391C304.307 418.976 297.437 418.663 290.567 418.511C283.697 418.359 276.826 418.327 269.956 418.432C263.086 418.538 256.216 418.773 249.345 419.354C235.605 420.381 221.864 422.578 208.124 425.043L197.816 426.885C194.381 427.489 190.946 428.088 187.51 428.627C180.64 429.729 173.77 430.614 166.9 431.28C160.029 431.946 153.163 432.301 146.301 432.344C139.431 432.441 132.56 432.197 125.69 431.884C118.82 431.57 111.95 431.151 105.079 430.608C101.644 430.331 98.209 430.046 94.7738 429.686C91.3387 429.327 87.9036 428.972 84.4684 428.59C70.7279 426.964 56.9873 424.849 43.2468 422.007C36.3765 420.579 29.5062 418.994 22.6335 417.147C19.1975 416.226 15.7624 415.237 12.3281 414.181C8.89294 413.098 5.4578 411.988 2.02267 410.647C1.45162 410.427 0.93842 409.842 0.569861 408.99C0.201301 408.138 0 407.072 0 405.972C0 404.872 0.201301 403.806 0.569861 402.954C0.93842 402.102 1.45162 401.517 2.02267 401.296L2.01046 401.31Z" fill="#7874B5"/>
</svg>
