<svg width="723" height="272" viewBox="0 0 723 272" fill="none" xmlns="http://www.w3.org/2000/svg">
<path opacity="0.1" d="M2.05603 254.684C5.56903 253.974 9.08203 253.386 12.595 252.813C16.108 252.239 19.621 251.729 23.134 251.241C30.1625 250.265 37.1885 249.424 44.2145 248.667C58.2665 247.162 72.3185 246.042 86.3706 245.18C89.8836 244.978 93.3965 244.77 96.9095 244.6C100.423 244.429 103.936 244.26 107.449 244.112C114.475 243.825 121.501 243.601 128.527 243.438C135.553 243.277 142.579 243.148 149.605 243.194C156.631 243.241 163.657 243.438 170.683 243.775C177.709 244.112 184.735 244.597 191.761 245.18C195.274 245.466 198.787 245.783 202.3 246.103L212.841 247.079C226.893 248.389 240.945 249.548 254.997 250.092C262.023 250.385 269.049 250.522 276.075 250.58C283.101 250.639 290.127 250.624 297.153 250.539C304.179 250.453 311.205 250.295 318.231 250.073C325.257 249.851 332.283 249.546 339.309 249.228L360.387 248.194L370.926 247.677C374.439 247.52 377.952 247.345 381.465 247.203C384.978 247.062 388.491 246.903 392.004 246.779C395.517 246.654 399.033 246.518 402.546 246.408L413.085 246.081C416.598 245.969 420.111 245.837 423.624 245.698C451.728 244.641 479.832 242.655 507.936 242.391C521.988 242.225 536.04 242.455 550.092 242.879C564.144 243.304 578.196 243.924 592.25 244.753C606.305 245.583 620.354 246.625 634.406 247.957C641.432 248.626 648.458 249.358 655.484 250.197C658.997 250.614 662.51 251.054 666.023 251.537C669.536 252.02 673.049 252.513 676.562 253.101C677.544 253.264 678.436 253.762 679.078 254.506C679.721 255.25 680.073 256.192 680.073 257.166C680.073 258.139 679.721 259.082 679.078 259.826C678.436 260.57 677.544 261.067 676.562 261.231C673.049 261.817 669.536 262.319 666.023 262.795C662.51 263.271 658.997 263.717 655.484 264.135C648.458 264.974 641.432 265.704 634.406 266.375C620.354 267.707 606.302 268.744 592.25 269.578C578.198 270.413 564.144 271.016 550.092 271.452C536.04 271.889 521.988 272.116 507.936 271.94C479.832 271.679 451.728 269.693 423.624 268.637C420.111 268.505 416.598 268.366 413.085 268.253L402.546 267.926C399.032 267.817 395.518 267.694 392.004 267.556C388.491 267.431 384.978 267.282 381.465 267.131C377.952 266.98 374.439 266.814 370.926 266.658L360.387 266.138L339.309 265.106C332.283 264.789 325.257 264.481 318.231 264.262C311.205 264.042 304.179 263.876 297.153 263.795C290.127 263.715 283.101 263.698 276.075 263.754C269.049 263.81 262.023 263.935 254.997 264.242C240.945 264.786 226.893 265.95 212.841 267.255L202.3 268.231C198.787 268.551 195.274 268.868 191.761 269.154C184.735 269.738 177.709 270.206 170.683 270.559C163.657 270.912 156.635 271.1 149.617 271.123C142.591 271.174 135.565 271.045 128.539 270.879C121.513 270.713 114.487 270.491 107.461 270.203C103.948 270.057 100.435 269.905 96.922 269.715C93.409 269.525 89.896 269.337 86.383 269.134C72.331 268.273 58.279 267.153 44.227 265.647C37.201 264.891 30.175 264.052 23.1465 263.073C19.6327 262.585 16.1197 262.061 12.6075 261.502C9.09451 260.928 5.58151 260.34 2.06851 259.63C1.48452 259.514 0.959691 259.203 0.582778 258.752C0.205864 258.301 0 257.736 0 257.154C0 256.571 0.205864 256.006 0.582778 255.555C0.959691 255.104 1.48452 254.794 2.06851 254.677L2.05603 254.684Z" fill="#7874B5"/>
<g opacity="0.5">
<path opacity="0.5" d="M26.0504 16.1652C26.7567 16.1573 27.4327 15.8838 27.938 15.4014C28.3122 15.0368 28.5673 14.5717 28.6708 14.0653C28.7743 13.5588 28.7217 13.0337 28.5195 12.5565C28.3174 12.0793 27.9748 11.6715 27.5352 11.3848C27.0957 11.0981 26.5789 10.9453 26.0504 10.9459C25.3452 10.9519 24.6693 11.2227 24.1628 11.7023C23.7886 12.067 23.5336 12.532 23.43 13.0385C23.3265 13.545 23.3792 14.0701 23.5813 14.5472C23.7835 15.0244 24.126 15.4322 24.5656 15.719C25.0052 16.0057 25.5219 16.1584 26.0504 16.1579V16.1652ZM63.103 22.1945C63.8092 22.1866 64.4853 21.9131 64.9906 21.4308C65.4879 20.9394 65.7684 20.2772 65.772 19.5861C65.7071 18.1709 64.5986 16.9753 63.103 16.9753C62.3963 16.985 61.7202 17.2582 61.2129 17.739C60.8397 18.1043 60.5857 18.5694 60.483 19.0757C60.3802 19.582 60.4333 20.1067 60.6356 20.5835C60.8378 21.0603 61.1802 21.4679 61.6194 21.7546C62.0585 22.0413 62.5748 22.1944 63.103 22.1945ZM15.464 87.7219C16.1709 87.7134 16.8474 87.44 17.3541 86.9582C17.7272 86.5929 17.9812 86.1277 18.084 85.6214C18.1867 85.1152 18.1336 84.5905 17.9314 84.1136C17.7291 83.6368 17.3868 83.2293 16.9476 82.9426C16.5084 82.6558 15.9921 82.5028 15.464 82.5027C14.7577 82.5106 14.0817 82.7841 13.5764 83.2664C13.2034 83.6315 12.9494 84.0965 12.8466 84.6025C12.7437 85.1086 12.7966 85.6331 12.9986 86.1098C13.2006 86.5865 13.5425 86.994 13.9813 87.281C14.4201 87.5679 14.936 87.7213 15.464 87.7219ZM201.606 29.0974C202.312 29.0895 202.988 28.816 203.493 28.3337C203.867 27.969 204.122 27.504 204.226 26.9975C204.329 26.4911 204.277 25.966 204.075 25.4888C203.873 25.0116 203.53 24.6038 203.09 24.3171C202.651 24.0303 202.134 23.8776 201.606 23.8782C200.899 23.8861 200.223 24.1596 199.718 24.6419C199.344 25.0066 199.089 25.4716 198.985 25.9781C198.882 26.4845 198.934 27.0096 199.137 27.4868C199.339 27.964 199.681 28.3718 200.121 28.6585C200.56 28.9452 201.077 29.098 201.606 29.0974ZM210.427 61.8574C211.133 61.8495 211.809 61.576 212.314 61.0937C212.689 60.729 212.944 60.264 213.047 59.7575C213.151 59.2511 213.098 58.726 212.896 58.2488C212.694 57.7716 212.351 57.3638 211.912 57.0771C211.472 56.7904 210.955 56.6376 210.427 56.6382C209.721 56.6461 209.045 56.9196 208.539 57.4019C208.165 57.7666 207.91 58.2316 207.806 58.7381C207.703 59.2445 207.756 59.7696 207.958 60.2468C208.16 60.724 208.502 61.1318 208.942 61.4185C209.382 61.7053 209.898 61.858 210.427 61.8574Z" fill="white"/>
<path opacity="0.5" d="M466.259 93.7561C466.966 93.7488 467.643 93.4753 468.149 92.9924C468.522 92.6271 468.776 92.1619 468.879 91.6557C468.982 91.1494 468.929 90.6247 468.727 90.1479C468.524 89.671 468.182 89.2635 467.743 88.9768C467.304 88.6901 466.787 88.537 466.259 88.5369C465.553 88.5465 464.878 88.8198 464.372 89.3006C463.999 89.6657 463.745 90.1307 463.642 90.6367C463.539 91.1428 463.592 91.6673 463.794 92.144C463.996 92.6207 464.338 93.0282 464.776 93.3152C465.215 93.6021 465.731 93.7555 466.259 93.7561Z" fill="#36ABB2"/>
<path opacity="0.5" d="M514.779 96.3426C515.487 96.3353 516.164 96.0617 516.67 95.5788C517.043 95.2136 517.297 94.7484 517.399 94.2421C517.502 93.7358 517.449 93.2111 517.247 92.7343C517.045 92.2575 516.702 91.85 516.263 91.5632C515.824 91.2765 515.308 91.1234 514.779 91.1233C514.073 91.1312 513.397 91.4047 512.892 91.887C512.519 92.2522 512.265 92.7171 512.162 93.2232C512.059 93.7292 512.112 94.2537 512.314 94.7304C512.516 95.2072 512.858 95.6147 513.297 95.9016C513.736 96.1885 514.252 96.342 514.779 96.3426ZM436.265 73.067C436.973 73.0591 437.65 72.7846 438.155 72.3008C438.528 71.9355 438.782 71.4704 438.885 70.9641C438.988 70.4578 438.935 69.9331 438.732 69.4563C438.53 68.9795 438.188 68.572 437.749 68.2852C437.309 67.9985 436.793 67.8454 436.265 67.8453C435.558 67.8539 434.882 68.1283 434.377 68.6115C433.881 69.1036 433.601 69.7653 433.596 70.4561C433.661 71.8714 434.769 73.067 436.265 73.067ZM673.574 48.059C674.28 48.0511 674.956 47.7776 675.461 47.2952C675.835 46.9306 676.09 46.4655 676.194 45.9591C676.298 45.4526 676.245 44.9275 676.043 44.4503C675.841 43.9731 675.498 43.5653 675.058 43.2786C674.619 42.9919 674.102 42.8391 673.574 42.8397C672.867 42.8476 672.191 43.1212 671.686 43.6035C671.312 43.9681 671.057 44.4332 670.953 44.9396C670.85 45.4461 670.902 45.9712 671.104 46.4484C671.307 46.9256 671.649 47.3334 672.089 47.6201C672.528 47.9068 673.045 48.0596 673.574 48.059ZM720.329 146.346C721.036 146.338 721.712 146.064 722.219 145.583C722.592 145.217 722.846 144.752 722.949 144.246C723.051 143.74 722.998 143.215 722.796 142.738C722.594 142.261 722.252 141.854 721.812 141.567C721.373 141.28 720.857 141.127 720.329 141.127C719.622 141.135 718.946 141.409 718.441 141.891C718.068 142.256 717.814 142.721 717.711 143.227C717.609 143.733 717.661 144.258 717.863 144.734C718.065 145.211 718.407 145.619 718.846 145.905C719.285 146.192 719.801 146.346 720.329 146.346ZM705.333 69.6168C706.039 69.6089 706.715 69.3353 707.221 68.853C707.718 68.3617 707.998 67.6995 708.002 67.0084C707.937 65.5931 706.829 64.3975 705.333 64.3975C704.626 64.4048 703.949 64.6784 703.443 65.1612C703.07 65.5265 702.816 65.9917 702.713 66.498C702.61 67.0043 702.663 67.529 702.866 68.0058C703.068 68.4826 703.41 68.8901 703.849 69.1768C704.289 69.4636 704.805 69.6167 705.333 69.6168ZM673.574 145.485C674.28 145.477 674.956 145.204 675.461 144.721C675.835 144.357 676.09 143.892 676.194 143.385C676.298 142.879 676.245 142.354 676.043 141.876C675.841 141.399 675.498 140.991 675.058 140.705C674.619 140.418 674.102 140.265 673.574 140.266C672.872 140.276 672.201 140.547 671.699 141.025C671.324 141.389 671.069 141.854 670.966 142.361C670.862 142.867 670.915 143.392 671.117 143.87C671.319 144.347 671.662 144.755 672.101 145.041C672.541 145.328 673.058 145.481 673.586 145.48L673.574 145.485Z" fill="white"/>
</g>
<path d="M91.4415 49.523L94.4376 45.392C97.4338 41.261 98.1828 40.4021 98.1179 38.9527L98.0355 37.0227C98.0006 36.1955 98.8969 35.6758 99.6734 35.6416L106.732 35.3512C106.914 35.3463 107.095 35.377 107.264 35.4415C107.433 35.5059 107.588 35.6029 107.718 35.7266C107.849 35.8502 107.953 35.9982 108.024 36.1617C108.095 36.3252 108.132 36.5009 108.133 36.6786L108.212 38.5404C108.367 42.1272 108.175 44.2086 105.638 47.7662L102.427 52.2559C99.9605 55.7427 99.3963 57.3555 99.4812 59.3564L99.5111 60.0469C99.576 61.5622 100.607 62.5553 103.079 62.4552C106.749 62.3064 109.768 61.8355 113.139 61.2816H113.351C114.197 61.245 114.574 61.7842 114.612 62.6797L114.876 68.8189C114.919 69.7949 114.729 70.3439 113.683 70.666C110.687 71.6859 106.405 72.4155 102.447 72.5765C92.7098 72.9767 86.8698 70.3805 86.4978 61.7598L86.4479 60.5886C86.328 57.4775 87.6963 54.6471 91.4415 49.523ZM98.083 20.0278L106.422 19.6861C106.603 19.6715 106.786 19.6926 106.958 19.748C107.131 19.8034 107.29 19.8921 107.427 20.0088C107.564 20.1255 107.675 20.2679 107.755 20.4275C107.835 20.587 107.881 20.7606 107.89 20.9379L108.265 29.6293C108.279 29.9949 108.145 30.3512 107.891 30.6204C107.638 30.8897 107.286 31.05 106.912 31.0665L98.5823 31.4081C98.2082 31.422 97.8436 31.2908 97.5681 31.043C97.2926 30.7953 97.1286 30.4511 97.1117 30.0856L96.7397 21.3966C96.734 21.2201 96.7645 21.0442 96.8293 20.8793C96.894 20.7144 96.9918 20.5638 97.1169 20.4363C97.2421 20.3088 97.3919 20.207 97.5578 20.1369C97.7237 20.0667 97.9022 20.0296 98.083 20.0278Z" fill="#639FCB"/>
<path d="M256.745 250.617C256.745 250.617 253.147 253.057 253.189 251.498C253.899 226.819 249.944 221.863 250.076 213.089C250.151 208.021 251.801 203.343 251.399 198.998C251.282 197.653 244.773 186.146 243.185 182.091C240.143 174.135 237.542 166.026 235.392 157.797C233.867 152.542 239.477 148.484 242.209 147.13C249.449 143.496 253.304 144.502 255.614 150.316C262.106 166.665 263.786 193.173 263.786 198.471C263.786 209.102 256.745 250.617 256.745 250.617Z" fill="#F7AC6F"/>
<path d="M228.603 248.806C228.603 248.806 224.656 251.91 224.676 250.026C224.803 233.19 225.597 211.742 225.313 199.864C225.228 196.658 219.468 147.757 229.959 146.454C239.502 145.268 240.548 146.373 243.247 152.005C245.479 156.702 239.902 197.097 238.164 201.008C237.582 202.311 236.416 209.046 236.131 210.444C232.141 230.235 228.603 248.806 228.603 248.806Z" fill="#F7AC6F"/>
<path d="M243.185 182.091C244.773 186.146 251.282 197.612 251.399 198.998C251.801 203.343 250.151 208.026 250.076 213.089C249.971 220.57 252.807 225.289 253.252 241.74H258.245C260.363 228.93 263.826 205.981 263.826 198.471C263.826 193.173 262.153 166.665 255.651 150.316C253.344 144.502 249.502 143.484 242.248 147.13C239.517 148.496 233.907 152.542 235.43 157.798C237.567 166.025 240.156 174.135 243.185 182.091Z" fill="#004254"/>
<path d="M224.771 241.74H229.969C231.357 234.549 233.655 222.732 236.121 210.441C236.396 209.043 237.572 202.309 238.154 201.006C239.901 197.102 245.469 156.699 243.237 152.002C240.568 146.373 239.52 145.268 229.959 146.456C219.473 147.759 225.228 196.66 225.313 199.866C225.555 209.873 225.021 226.634 224.771 241.74Z" fill="#004254"/>
<path d="M227.365 122.236L230.204 138.128C232.056 142.145 232.056 143.892 230.044 147.049C228.891 148.869 254.333 148.611 253.402 146.737C251.282 142.464 254.977 138.46 254.977 136.691L255.307 122.205L227.365 122.236Z" fill="#639FCB"/>
<path d="M258.977 125.484C259.242 126.333 260.121 132.218 264.091 130.915L263.646 130.967C264.813 130.581 265.88 129.95 266.773 129.12C267.665 128.289 268.361 127.278 268.812 126.157L260.268 99.7415C259.625 97.8786 258.251 96.3417 256.448 95.4687C254.645 94.5956 252.562 94.4579 250.655 95.0859C246.685 96.3889 247.679 100.259 249.015 104.114L258.977 125.484Z" fill="#639FCB"/>
<path d="M295.453 113.15C296.221 112.222 296.656 111.074 296.691 109.881C296.726 108.689 296.358 107.518 295.645 106.549C294.646 105.598 291.992 111.339 289.99 113.357C287.987 115.375 288.689 117.083 289.695 118.044C290.701 119.006 292.669 116.524 295.453 113.15ZM186.735 114.587C185.969 113.661 185.536 112.515 185.501 111.324C185.466 110.134 185.832 108.966 186.542 107.999C187.541 107.047 190.195 112.788 192.198 114.806C194.2 116.824 193.498 118.532 192.492 119.494C191.486 120.455 189.519 117.961 186.735 114.587Z" fill="#F7AC6F"/>
<path d="M286.836 120.423C287.65 120.104 292.362 116.854 292.362 116.854C290.414 114.299 289.43 114.784 289.43 114.784L264.083 122.724C260.388 124.266 258.969 127.587 260.907 130.132C262.855 132.687 266.582 131.394 270.288 129.864L286.836 120.423Z" fill="#F7AC6F"/>
<path d="M226.137 150.224H255.993C256.1 150.224 256.207 150.204 256.306 150.164C256.405 150.124 256.495 150.065 256.571 149.991C256.646 149.918 256.707 149.83 256.748 149.733C256.789 149.636 256.81 149.533 256.81 149.428C256.814 149.383 256.814 149.337 256.81 149.291C256.31 146.188 255.888 143.208 255.634 140.527C255.422 138.231 259.414 108.806 259.414 108.806C259.414 99.3267 257.509 93.2852 243.607 93.2852C229.705 93.2852 222.941 101.035 222.941 110.512C222.941 110.512 226.983 135.676 226.953 139.878C226.794 143.013 226.246 146.119 225.323 149.126C225.289 149.231 225.277 149.341 225.287 149.451C225.297 149.561 225.33 149.667 225.382 149.765C225.434 149.862 225.506 149.948 225.593 150.019C225.679 150.089 225.779 150.142 225.887 150.175C225.967 150.203 226.051 150.22 226.137 150.224Z" fill="#639FCB"/>
<path d="M224.339 127.668C224.074 128.527 223.205 134.412 219.235 133.109H219.68C218.512 132.72 217.445 132.088 216.551 131.258C215.657 130.427 214.958 129.417 214.501 128.297L223.058 101.894C223.374 100.971 223.873 100.119 224.526 99.3847C225.18 98.6508 225.975 98.0499 226.866 97.6164C227.757 97.1829 228.727 96.9253 229.72 96.8583C230.713 96.7913 231.71 96.9162 232.653 97.2259C236.623 98.5313 235.637 102.401 234.304 106.269L224.339 127.668Z" fill="#639FCB"/>
<path d="M195.361 122.112C193.836 121.186 192.365 120.177 190.957 119.089C192.904 116.534 193.326 116.451 193.326 116.451L219.203 124.967C222.908 126.497 224.326 129.82 222.379 132.375C220.431 134.929 216.694 133.636 212.998 132.097L195.361 122.112ZM233.135 94.8688C227.842 96.6159 236.311 97.3479 239.911 97.3479C243.512 97.3479 253.082 95.9424 248.383 93.6341C240.526 89.7642 248.445 80.2773 240.62 80.2773C233.759 80.2798 241.849 91.9603 233.135 94.8688Z" fill="#F7AC6F"/>
<path d="M244.508 85.8797C244.508 82.8589 244.73 80.2676 240.643 80.2676C233.749 80.2676 241.839 91.9481 233.135 94.8566C229.093 96.2108 233.135 96.9258 236.905 97.2259C238.192 92.7726 240.845 88.8123 244.508 85.8797Z" fill="#F7AC6F"/>
<path d="M252.68 69.0433C252.681 69.9156 252.416 70.7684 251.921 71.4938C251.425 72.2193 250.721 72.7848 249.896 73.1188C249.072 73.4528 248.164 73.5404 247.289 73.3703C246.413 73.2003 245.609 72.7803 244.978 72.1635C244.347 71.5467 243.917 70.7609 243.743 69.9053C243.569 69.0498 243.659 68.1631 244.001 67.3573C244.342 66.5516 244.921 65.863 245.663 65.3787C246.406 64.8944 247.278 64.6361 248.171 64.6366C249.367 64.6372 250.513 65.1017 251.359 65.928C252.204 66.7543 252.68 67.8748 252.68 69.0433Z" fill="#FFEA80"/>
<path d="M230.848 76.8515C230.848 80.6799 239.255 86.6799 241.15 86.6799C243.045 86.6799 249.621 84.7987 248.995 77.5664C248.37 70.7684 248.118 62.8724 242.803 62.8724C237.487 62.8724 230.848 69.6118 230.848 76.8515Z" fill="#F7AC6F"/>
<path d="M251.736 250.827C251.736 252.359 248.99 257.5 253.546 257.5C264.767 257.5 271.249 257.21 270.305 256.036C267.668 252.766 258.924 255.238 258.438 250.365C258.143 247.442 251.736 249.282 251.736 250.827ZM223.692 250.827C223.692 252.359 218.801 257.5 222.943 257.5C233.16 257.5 233.847 257.417 233.317 256.036C232.091 252.766 230.249 254.143 229.822 249.27C229.547 246.344 223.692 249.282 223.692 250.827Z" fill="#004254"/>
<path d="M238.535 88.3197C238.535 90.3375 237.923 92.3099 236.776 93.9876C235.629 95.6653 233.999 96.9728 232.091 97.745C230.184 98.5172 228.085 98.7192 226.06 98.3255C224.035 97.9319 222.175 96.9603 220.715 95.5335C219.255 94.1068 218.261 92.289 217.858 90.31C217.455 88.3311 217.662 86.2798 218.452 84.4157C219.242 82.5515 220.58 80.9582 222.297 79.8372C224.013 78.7162 226.032 78.1179 228.096 78.1179C230.862 78.1179 233.515 79.1917 235.471 81.1031C237.427 83.0145 238.526 85.6069 238.526 88.31L238.535 88.3197Z" fill="#FFEA80"/>
<path d="M234.788 76.8515C234.79 78.3887 234.326 79.892 233.454 81.1714C232.583 82.4509 231.342 83.4489 229.89 84.0392C228.437 84.6296 226.839 84.7858 225.296 84.4881C223.752 84.1904 222.334 83.4522 221.22 82.3668C220.107 81.2814 219.347 79.8975 219.038 78.3903C218.729 76.8831 218.885 75.3202 219.485 73.8992C220.085 72.4783 221.102 71.2632 222.409 70.4075C223.716 69.5518 225.253 69.0941 226.826 69.0922H226.848C228.954 69.0922 230.973 69.9097 232.462 71.3648C233.951 72.82 234.788 74.7936 234.788 76.8515Z" fill="#FFEA80"/>
<path d="M235.392 66.6423C235.392 67.8559 235.023 69.0422 234.333 70.051C233.642 71.0599 232.661 71.8461 231.514 72.3102C230.367 72.7743 229.104 72.8954 227.886 72.6584C226.668 72.4213 225.55 71.8367 224.672 70.9783C223.794 70.12 223.196 69.0265 222.954 67.8362C222.712 66.6459 222.836 65.4121 223.311 64.2909C223.787 63.1697 224.592 62.2114 225.624 61.5372C226.657 60.863 227.871 60.5032 229.113 60.5032H229.145C230.806 60.5096 232.396 61.1596 233.568 62.3105C234.739 63.4614 235.395 65.0192 235.392 66.6423Z" fill="#FFEA80"/>
<path d="M243.649 62.2234C243.649 63.4024 243.291 64.555 242.621 65.5354C241.951 66.5157 240.998 67.2798 239.883 67.7309C238.768 68.182 237.542 68.2999 236.358 68.0697C235.175 67.8395 234.088 67.2715 233.235 66.4376C232.382 65.6037 231.802 64.5413 231.567 63.3848C231.332 62.2283 231.453 61.0297 231.915 59.9405C232.377 58.8513 233.159 57.9205 234.162 57.2658C235.166 56.611 236.345 56.2618 237.552 56.2623H237.614C239.222 56.2759 240.759 56.9103 241.889 58.027C243.02 59.1438 243.652 60.6524 243.649 62.2234Z" fill="#FFEA80"/>
<path d="M250.902 62.2234C250.903 63.2472 250.593 64.2482 250.011 65.0996C249.429 65.9511 248.602 66.6148 247.634 67.0068C246.667 67.3988 245.602 67.5015 244.574 67.3019C243.547 67.1023 242.603 66.6093 241.862 65.8854C241.121 65.1615 240.617 64.2391 240.413 63.2349C240.208 62.2308 240.314 61.19 240.715 60.2442C241.116 59.2985 241.795 58.4902 242.666 57.9217C243.537 57.3532 244.562 57.0501 245.609 57.0505C247.013 57.0505 248.359 57.5955 249.352 58.5656C250.345 59.5357 250.902 60.8515 250.902 62.2234Z" fill="#FFEA80"/>
<path d="M281.214 41.0658L275.371 49.3083C274.597 50.3843 274.372 50.9236 274.212 52.0558C274.176 52.2609 274.068 52.4475 273.908 52.5846C273.747 52.7217 273.544 52.8012 273.331 52.8097H265.668C265.339 52.8097 265.117 52.4877 265.117 52.1095V50.2233C265.117 47.6368 265.446 46.2924 266.715 44.1232L271.181 36.6908C271.511 36.1516 271.786 35.6123 271.786 35.0731C271.786 33.997 271.126 33.609 269.306 33.609C267.873 33.609 263.409 34.0409 262.086 34.202C261.314 34.3093 260.982 33.8774 260.982 33.1235V26.8428C260.982 26.1425 261.314 25.8204 262.031 25.6033C264.455 24.7956 267.818 24.2563 271.181 24.2563C279.338 24.2563 284.025 26.467 284.025 33.1991V33.6871C284.025 36.0564 283.144 38.372 281.214 41.0658ZM273.606 66.0616H265.559C265.267 66.061 264.987 65.9475 264.78 65.7459C264.573 65.5443 264.456 65.271 264.455 64.9856V57.4971C264.456 57.2112 264.572 56.9373 264.779 56.7352C264.986 56.533 265.266 56.4192 265.559 56.4186H273.606C273.904 56.4176 274.191 56.5293 274.407 56.7303C274.623 56.9313 274.751 57.206 274.764 57.4971V64.9856C274.751 65.2764 274.623 65.5509 274.407 65.7515C274.191 65.952 273.904 66.0632 273.606 66.0616Z" fill="#90CFC0"/>
<path d="M570.313 248.291H574.79V253.169H570.313V248.291ZM584.662 245.732V249.975L588.345 251.51L588.722 250.98L589.743 246.791L584.662 245.732Z" fill="#FDE2D4"/>
<path d="M575.132 252.64C575.132 252.64 578.19 255.407 585.159 257.137C586.692 257.524 588.345 257.012 588.345 259.481H579.888L572.857 258.291V259.481H569.057C569.057 259.481 568.001 253.415 570.223 252.649L575.132 252.64Z" fill="#646E78"/>
<path d="M567.307 152.429C564.366 173.543 568.843 186.412 568.843 195.911C568.843 205.41 563.427 209.897 569.175 249.041H576.223L584.435 200.03L586.865 187.161C586.865 187.161 590.827 195.037 590.827 200.152C590.827 205.266 582.802 219.184 583.317 246.42L590.447 247.762C590.447 247.762 605.328 210.429 606.427 200.735C607.873 188.047 605.281 161.584 602.981 152.422L567.307 152.429Z" fill="#004254"/>
<path opacity="0.25" d="M579.834 249.04L598.19 249.992L616.239 202.031L613.937 166.418L606.872 150.675L593.416 148.62L586.9 187.664L587.469 201.238L584.211 215.156L581.908 230.518L579.834 249.04Z" fill="#004254"/>
<path d="M588.977 250.761C588.977 250.761 588.66 254.606 594.635 256.192C596.16 256.597 597.893 256.263 597.893 258.732H589.941L584.762 255.248L584.328 256.361L580.8 255.072C580.8 255.072 582.036 249.041 584.41 249.084L588.977 250.761Z" fill="#646E78"/>
<path d="M591.259 86.4066L592.243 95.1103L583.831 93.1436L585.167 83.1687L591.259 86.4066Z" fill="#FDE2D4"/>
<path d="M595.446 87.5706C596.355 87.4945 597.222 87.1641 597.943 86.619C600.335 81.7389 594.922 70.4171 594.922 70.4171L589.651 69.1288L583.968 73.9235L584.87 81.9317C585.006 83.0074 585.414 84.0329 586.057 84.9157C586.701 85.7984 587.559 86.5105 588.555 86.9875C590.757 87.7818 593.137 87.9832 595.446 87.5706Z" fill="#FDE2D4"/>
<path d="M585.664 78.2301C585.791 76.8369 585.122 73.821 586.568 73.821C587.614 73.821 591.079 73.4403 592.28 73.2646C595.077 72.8425 599.878 71.0247 599.219 66.8717C598.884 64.7977 596.512 63.3434 595.159 62.9823C593.786 62.6793 592.346 62.8798 591.114 63.5459C588.208 65.0637 584.5 67.9551 582.82 67.9551C580.006 67.8331 577.524 69.8071 577.921 72.0739C578.353 74.492 580.221 77.9471 581.811 80.0821C582.733 81.3128 583.869 82.3757 585.167 83.2225L585.664 78.2301Z" fill="#FBBB25"/>
<path d="M582.892 78.9621C583.248 78.6473 583.702 78.4593 584.18 78.4287C584.659 78.3982 585.134 78.5268 585.529 78.7938C586.43 79.333 586.765 80.2773 586.223 80.9117C585.867 81.2248 585.413 81.4116 584.936 81.4422C584.458 81.4727 583.983 81.3452 583.589 81.0801C582.667 80.5408 582.36 79.5624 582.892 78.9621Z" fill="#FDE2D4"/>
<path d="M584.508 88.1074L591.594 89.5202L594.67 94.2734L591.259 94.1856L583.831 93.1437L581.973 92.3604L579.002 91.9969L584.508 88.1074Z" fill="white"/>
<path d="M590.655 92.4824C604.637 98.3654 608.09 109.865 609.88 113.191L604.509 118.315L600.789 125.689L603.109 135.513L603.251 145.305L602.964 152.429H567.307V132.277C567.307 132.277 560.593 125.909 562.606 117.664C567.11 103.041 574.835 85.8333 590.655 92.4824Z" fill="#7874B5"/>
<path d="M562.506 117.844C561.892 121.9 561.739 123.134 561.36 127.87C560.98 132.607 562.146 138.507 569.772 140.456C585.022 144.36 587.499 145.361 598.055 147.044C610.33 158.659 618.152 138.453 601.908 144.17C595.998 141.31 582.183 134.785 576.94 132.306C576.341 132.012 575.847 131.546 575.525 130.972C575.203 130.397 575.067 129.74 575.135 129.088L576.146 119.518L562.506 117.844Z" fill="#FDE2D4"/>
<path d="M592.333 87.4999C592.118 87.148 591.957 86.7674 591.856 86.3701C591.196 84.1741 594.058 81.7585 597.748 86.1847" stroke="#F7AC6F" stroke-width="3.59" stroke-miterlimit="10" stroke-linecap="round"/>
<path d="M609.878 113.191C609.878 113.191 610.779 128.807 609.878 132.938C609.878 132.938 609.029 138.001 605.273 137.684C597.783 137.057 595.401 119.162 593.678 91.5137C593.389 87.2533 592.56 88.7076 591.873 86.3359C591.187 83.9642 594.238 81.5827 598.073 86.5213C601.763 91.2745 598.39 91.8894 598.322 94.5125C602.485 104.575 606.562 115.882 606.562 115.882L609.878 113.191Z" fill="#FDE2D4"/>
<path opacity="0.25" d="M610.277 136.43C610.07 134.666 610.277 128.493 608.155 122.126C606.032 115.76 606.032 112.574 606.032 112.574L612.684 112.01L613.45 116.89L613.765 129.237L613.703 137.748L610.277 136.43Z" fill="#E5A986"/>
<path d="M629.288 73.3256L620.227 70.3195C620.027 70.2617 619.841 70.1653 619.68 70.036C619.519 69.9067 619.386 69.7471 619.289 69.5666C619.192 69.3862 619.133 69.1886 619.116 68.9855C619.099 68.7825 619.123 68.5781 619.188 68.3845L622.474 58.9293C622.614 58.5323 622.908 58.2054 623.294 58.0198C623.679 57.8342 624.124 57.8051 624.531 57.9387L633.59 60.9448C633.996 61.0814 634.331 61.3693 634.521 61.7458C634.711 62.1223 634.742 62.557 634.606 62.9554L631.318 72.4106C631.248 72.6027 631.14 72.7793 631 72.93C630.86 73.0806 630.69 73.2022 630.501 73.2875C630.311 73.3728 630.106 73.4201 629.898 73.4267C629.69 73.4332 629.482 73.3989 629.288 73.3256ZM648.918 44.4428L643.951 47.649C638.983 50.8528 637.827 51.4726 637.277 53.0488L636.548 55.1497C636.234 56.0501 635.05 56.2428 634.209 55.9622L626.531 53.427C626.335 53.3591 626.154 53.2533 626 53.116C625.845 52.9786 625.721 52.8124 625.634 52.6272C625.547 52.442 625.498 52.2416 625.491 52.0379C625.485 51.8341 625.52 51.6311 625.595 51.4408L626.299 49.4156C627.655 45.5115 628.746 43.3643 632.966 40.5826L638.294 37.0787C642.413 34.3459 643.704 32.8501 644.461 30.6736L644.723 29.9245C645.295 28.2726 644.613 26.7891 641.927 25.8985C637.932 24.5735 634.501 23.8513 630.658 23.0802L630.429 23.0021C629.507 22.6971 629.333 21.9675 629.68 20.994L631.999 14.3034C632.364 13.2541 632.803 12.7295 634.059 12.8101C637.699 12.9321 642.593 13.8861 646.893 15.3135C657.487 18.8296 662.637 23.9733 659.377 33.3528L658.932 34.6265C657.751 38.0035 655.097 40.468 648.918 44.4428Z" fill="#90CFC0"/>
<path d="M549.508 54.1591L555.477 45.741C556.266 44.6381 556.491 44.0891 556.661 42.9325C556.699 42.7231 556.809 42.5327 556.973 42.3929C557.137 42.2531 557.345 42.1723 557.562 42.1639H565.39C565.727 42.1639 565.951 42.4933 565.951 42.8788V44.804C565.951 47.4466 565.614 48.8203 564.319 51.0237L559.757 58.6171C559.42 59.1685 559.138 59.7175 559.138 60.269C559.138 61.3695 559.814 61.755 561.672 61.755C563.135 61.755 567.697 61.3133 569.05 61.1498C569.836 61.04 570.176 61.4793 570.176 62.2503V68.6871C570.176 69.4045 569.837 69.7339 569.105 69.9535C566.628 70.7807 563.193 71.3297 559.757 71.3297C551.423 71.3297 546.636 69.0727 546.636 62.1942V61.7062C546.636 59.2832 547.538 56.9091 549.508 54.1591ZM557.28 28.6241H565.502C565.8 28.6247 566.087 28.7409 566.298 28.9471C566.509 29.1533 566.627 29.4329 566.628 29.7245V37.3716C566.627 37.6633 566.509 37.9428 566.298 38.1491C566.087 38.3553 565.8 38.4714 565.502 38.4721H557.28C556.976 38.473 556.683 38.3591 556.462 38.1541C556.242 37.949 556.111 37.6687 556.097 37.3716V29.7221C556.111 29.425 556.242 29.1447 556.462 28.9396C556.683 28.7346 556.976 28.6207 557.28 28.6216V28.6241ZM143.585 22.0774L141.026 24.9445C138.921 27.304 138.009 28.2605 138.029 30.7201L138.044 33.4602C138.044 33.6041 138.013 33.7462 137.955 33.8784C137.897 34.0105 137.812 34.13 137.706 34.2296C137.6 34.3292 137.474 34.407 137.337 34.4585C137.2 34.5099 137.053 34.5339 136.906 34.529L134.387 34.5436C134.244 34.5443 134.102 34.5174 133.97 34.4645C133.837 34.4116 133.717 34.3338 133.615 34.2355C133.514 34.1371 133.433 34.0202 133.378 33.8914C133.322 33.7626 133.294 33.6243 133.293 33.4846L133.273 30.7347C133.253 27.1552 134.047 25.474 137.018 22.2702L139.63 19.4129C142.476 16.3214 143.155 14.7524 143.143 12.5149V11.8414C143.125 8.87923 141.23 7.82513 137.283 7.84465C134.699 7.88136 132.12 8.06303 129.558 8.38878H129.386C128.814 8.38878 128.524 8.05693 128.522 7.44448V5.49245C128.522 4.82143 128.572 4.37247 129.488 4.20166C132.052 3.71489 134.656 3.45762 137.268 3.43305C143.792 3.39889 148.726 5.38508 148.753 11.8195V12.4905C148.756 15.1697 147.852 17.2998 143.585 22.0774ZM137.073 45.375L134.327 45.3896C134.032 45.3937 133.747 45.2859 133.533 45.0887C133.318 44.8916 133.19 44.6207 133.176 44.3331L133.138 39.1358C133.147 38.8424 133.27 38.5633 133.481 38.3546C133.692 38.1459 133.977 38.0231 134.277 38.0109L137.023 37.9963C137.318 38.0082 137.596 38.131 137.8 38.3388C138.003 38.5467 138.117 38.8235 138.117 39.1114L138.144 44.3135C138.149 44.453 138.125 44.5921 138.074 44.7222C138.022 44.8523 137.943 44.9706 137.843 45.07C137.743 45.1694 137.623 45.2477 137.49 45.3001C137.358 45.3526 137.216 45.378 137.073 45.375ZM72.1139 69.0971C70.8453 73.7114 68.2051 77.8544 64.5271 81.0023C60.849 84.1501 56.2984 86.1613 51.4507 86.7815C46.603 87.4017 41.6759 86.6031 37.2927 84.4866C32.9094 82.3702 29.2669 79.0309 26.8256 74.8912C24.3844 70.7516 23.2542 65.9973 23.5779 61.2299C23.9017 56.4624 25.6648 51.8959 28.6444 48.1077C31.6239 44.3196 35.6861 41.4801 40.3171 39.9482C44.9481 38.4163 49.9399 38.261 54.6612 39.5018H54.6737C61.0012 41.1679 66.3927 45.2214 69.6631 50.771C72.9335 56.3207 73.815 62.9124 72.1139 69.0971Z" fill="#1A3C47"/>
<path d="M62.1839 66.8474C66.3311 66.9108 71.492 69.0873 70.8353 75.7462C70.3834 80.4164 69.185 88.4344 66.0265 88.6247C64.6358 88.7248 59.8694 87.0046 59.8694 87.0046L59.2801 94.5443L50.4939 90.2205L54.0618 83.0395C54.0618 83.0395 48.4965 66.6302 62.1839 66.8474Z" fill="#CE9174"/>
<path d="M54.7236 64.5098C44.7813 71.6396 50.1594 80.1505 54.0519 83.0053C55.4138 82.2793 56.6438 81.3386 57.6923 80.2212C58.0892 79.6381 56.2516 77.403 57.7796 75.7828C58.8458 74.6555 60.254 74.4237 60.9581 75.7413C61.0829 75.9658 61.4849 75.9243 61.5873 75.0361C61.6271 74.0972 61.8616 73.176 62.2766 72.3283C62.6917 71.4807 63.2785 70.7242 64.0017 70.1048C65.9991 68.5041 67.7644 67.9258 69.4597 69.6388C68.436 65.1515 58.9831 62.2967 54.7236 64.5098Z" fill="#1A3C47"/>
<path d="M91.9784 126.672L90.3979 125.796L71.562 134.649L75.9114 141.608L93.3316 127.187L91.9784 126.672Z" fill="#CE9174"/>
<path d="M96.7922 119.108C97.1138 120.425 97.0723 121.801 96.6718 123.097C96.2714 124.393 95.5263 125.562 94.5127 126.484C92.1856 128.68 90.5602 128.837 90.5602 128.837L89.8486 124.542L96.7922 119.108Z" fill="#CE9174"/>
<path d="M85.6992 126.35L86.0882 126.855L85.6992 126.36" fill="#836113"/>
<path d="M85.6985 126.359L86.0974 126.872C86.1179 126.888 86.1431 126.899 86.1697 126.901L85.7808 126.384C85.7542 126.381 85.7289 126.371 85.7085 126.354" fill="#886514"/>
<path d="M106.023 115.611L106.412 116.117L106.023 115.611Z" fill="#886514"/>
<path d="M106.031 115.604L106.419 116.109C106.599 115.97 106.669 115.843 106.629 115.782L106.24 115.277C106.287 115.338 106.21 115.465 106.031 115.604Z" fill="#858585"/>
<path d="M85.781 126.389L86.1705 126.894L90.9893 127.48L90.5998 126.975L85.781 126.389ZM91.3589 126.677L91.7484 127.182L106.412 116.117L106.023 115.612L91.3589 126.677Z" fill="#858585"/>
<path d="M90.6003 126.975L90.9898 127.48C91.2568 127.467 91.5124 127.37 91.7189 127.204L91.3294 126.699C91.1229 126.865 90.8673 126.962 90.6003 126.975Z" fill="#858585"/>
<path d="M91.3284 126.699L91.7173 127.204L91.7473 127.182L91.3583 126.677L91.3284 126.699Z" fill="#858585"/>
<path d="M101.336 114.653C101.061 114.67 100.798 114.773 100.587 114.948L85.9186 126.018C85.6689 126.204 85.614 126.367 85.7813 126.389L90.6001 126.975C90.8767 126.96 91.1402 126.855 91.3491 126.677L106.013 115.612C106.263 115.426 106.317 115.258 106.15 115.241L101.336 114.653Z" fill="#C5C5C4"/>
<path d="M88.7874 122.044C88.7449 122.419 89.2068 122.739 89.8136 122.837C90.4203 122.934 90.9521 122.644 90.9896 122.266C91.027 121.887 90.5676 121.57 89.9634 121.473C89.3591 121.375 88.8223 121.668 88.7874 122.044Z" fill="#CE9174"/>
<path d="M57.902 138.67L72.1338 132.297L77.0649 142.977C77.0649 142.977 69.7443 150.116 59.3202 150.631C48.896 151.146 35.8178 123.303 57.902 138.67Z" fill="#90CFC0"/>
<path d="M57.485 160.338C57.485 160.338 57.465 203.282 56.294 210.08C55.51 214.638 53.8447 231.694 53.7673 244.517L47.1882 243.614C44.8262 237.865 44.4143 230.696 44.6739 222.734C45.2382 205.976 46.4966 199.944 43.8175 187.241C41.1385 174.539 32.6119 162.675 33.0164 154.996C33.4208 147.317 57.485 160.338 57.485 160.338Z" fill="#7874B5"/>
<path d="M35.0337 155.421C35.0337 155.421 58.234 197.653 59.7321 201.362C61.2301 205.071 60.7308 213.194 66.6757 225.826C69.6519 232.146 73.2048 238.736 76.0112 243.748L82.4704 242.355C79.5092 230.74 74.3084 210.341 73.05 205.644C71.2698 198.961 65.0303 157.617 65.0303 157.617C65.0303 157.617 36.3021 145.173 35.0337 155.421Z" fill="#7874B5"/>
<path d="M50.8861 90.9355C46.4942 91.199 42.4419 95.6813 39.6055 103.797C37.7604 116.275 30.22 169.466 28.0478 184.841C27.9262 185.718 28.1657 186.608 28.7137 187.313C29.2617 188.019 30.0736 188.484 30.9716 188.606C31.228 188.64 31.4876 188.647 31.7456 188.625L70.3711 185.263C71.0144 185.207 71.6105 184.909 72.0341 184.433C72.4578 183.957 72.6761 183.338 72.6432 182.708C71.9316 168.8 67.7794 97.7944 60.6935 92.4263C57.5869 91.193 54.2293 90.6826 50.8861 90.9355Z" fill="#90CFC0"/>
<path d="M49.3978 103.76C55.2029 105.39 52.4264 114.645 40.8538 138.67L60.9206 163.183L54.0144 169.195C54.0144 169.195 34.829 150.577 31.9377 140.751C29.9927 134.036 38.709 100.764 49.3978 103.76Z" fill="#90CFC0"/>
<path d="M83.5117 245.097C83.5117 245.097 86.1234 252.905 94.4977 252.225C94.0838 253.374 93.3422 254.383 92.3604 255.133L85.2395 254.96L80.1261 253.323L78.2535 249.565L76.0063 243.775L82.4656 242.384L83.5117 245.097Z" fill="#CE9174"/>
<path d="M83.0123 259.725L80.9475 260.36C80.9475 260.36 78.0986 255.021 77.5993 253.164C77.3307 251.924 77.5662 250.631 78.2559 249.558C78.2559 249.558 79.9862 252.3 82.5779 253.303C84.4505 253.999 91.494 256.38 94.5001 252.225C97.8883 251.722 99.6335 252.92 100.14 254.472L88.0334 258.188L81.5592 255.355L83.0123 259.725Z" fill="#FBBB25"/>
<path d="M53.7248 247.442C53.7248 247.442 53.3204 255.638 61.3701 257.935C60.5664 258.867 59.507 259.555 58.3165 259.918L51.7424 257.271L47.5752 253.955L47.1558 249.782L47.1907 243.599L53.7323 244.524L53.7248 247.442Z" fill="#CE9174"/>
<path d="M47.9222 260.936L45.76 260.804C45.76 260.804 45.0734 254.836 45.2606 252.918C45.4585 251.67 46.1431 250.547 47.1707 249.782C47.1707 249.782 47.7749 252.954 49.8522 254.787C51.3503 256.112 57.093 260.762 61.3825 257.932C64.7307 258.644 65.9267 260.372 65.8243 262.002L53.1256 261.27L48.1145 256.368L47.9222 260.936Z" fill="#FBBB25"/>
<path d="M427.511 71.6761L442.085 85.9187C442.085 85.9187 469.839 96.5256 472.941 103.04C476.042 109.555 470.149 109.253 463.637 108.345C457.126 107.437 438.669 96.223 438.669 96.223L421.769 77.1296L427.511 71.6761Z" fill="#639FCB"/>
<path d="M423.017 106.1L405.672 133.9C398.004 146.249 392.356 153.401 394.104 164.31L396.181 177.262C396.726 180.678 394.079 184.221 390.241 184.806L361.278 189.237C357.438 189.826 354.212 187.529 353.613 183.774L351.536 170.82C348.113 149.345 350.709 138.829 364.092 117.561L382.374 88.9175C389.218 78.0935 389.485 68.6212 387.737 57.7118L386.863 52.2583C385.552 44.0768 378.913 40.5461 364.612 42.7421C347.519 45.3554 327.964 50.4429 312.888 54.4982L311.492 54.7105C307.308 55.3522 305.125 52.8902 304.361 48.1224L300.976 26.9867C300.102 21.5332 300.014 18.7492 305.72 16.4799C319.784 10.4823 339.983 4.9507 358.122 2.18613C403.12 -4.70211 431.945 3.46228 438.5 44.3696L439.373 49.8231C441.338 62.0843 442.075 75.5924 423.017 106.1ZM403.322 257.547L371.93 262.348C368.09 262.937 364.514 260.689 363.915 256.939L357.743 218.418C357.458 216.611 357.918 214.766 359.021 213.289C360.123 211.812 361.78 210.821 363.628 210.534L395.02 205.73C396.87 205.452 398.756 205.901 400.268 206.978C401.78 208.055 402.794 209.673 403.09 211.478L409.262 250.002C409.866 253.755 407.162 256.958 403.325 257.547H403.322Z" fill="#F7AC6F"/>
<path d="M470.167 100.183L466.561 98.9338L459.585 102.106C459.585 102.106 455.98 104.492 454.237 110.402C452.494 116.312 454.237 151.653 457.143 157.336C460.05 163.019 470.167 100.183 470.167 100.183Z" fill="#1A3C47"/>
<path d="M493.055 241.918C493.055 241.918 495.616 243.531 495.829 244.273C496.041 245.014 497.918 253.057 497.214 253.977C496.51 254.897 493.936 254.465 494.937 255.136C495.686 255.646 498.682 254.553 501.783 253.733C502.692 253.489 504.17 247.472 504.305 246.327C504.498 244.665 505.676 240.896 504.962 239.915C504.612 239.427 502.612 238.592 500.815 237.907C498.925 237.187 496.82 235.147 496.82 235.147L493.055 241.918Z" fill="#FDE2D4"/>
<path d="M500.667 237.843C500.667 237.843 499.154 252.091 497.384 253.142C496.915 253.423 494.423 253.63 494.193 254.794C494.193 254.823 494.136 255.987 494.89 256.014H499.009C500.433 256.01 501.796 255.456 502.804 254.474C503.811 253.492 504.382 252.161 504.39 250.771V246.249C504.39 246.249 505.696 239.244 505.269 238.719C504.842 238.195 500.667 237.843 500.667 237.843Z" fill="#1A3C47"/>
<path d="M530.032 241.918C530.032 241.918 532.597 243.531 532.806 244.273C533.016 245.014 534.896 253.057 534.195 253.977C533.493 254.897 530.914 254.465 531.915 255.136C532.664 255.646 536.909 255.336 540.017 254.516C540.926 254.272 541.151 247.472 541.283 246.327C541.478 244.665 542.654 240.896 541.94 239.915C541.593 239.427 539.593 238.592 537.795 237.907C535.902 237.187 533.8 235.147 533.8 235.147L530.032 241.918Z" fill="#FDE2D4"/>
<path d="M483.622 149.321C483.622 149.321 492.263 166.086 494.033 170.588L507.199 203.246L536.234 236.626C536.234 236.626 534.11 241.994 530.896 243.426C530.896 243.426 495.886 215.8 493.007 211.461C488.618 204.829 468.631 164.195 468.631 164.195L464.916 156.387L483.622 149.321Z" fill="#639FCB"/>
<path d="M462.741 149.148L462.881 163.444C462.881 163.444 456.639 210.141 457.84 212.916C460.796 219.684 493.269 242.616 493.269 242.616L497.689 235.191L474.354 209.734L483.19 184.96C485.664 179.206 490.93 168.085 490.79 161.846C490.675 156.497 479.829 144.097 479.829 144.097L462.741 149.148Z" fill="#639FCB"/>
<path d="M476.001 170.276C484.605 168.365 491.569 165.396 492.283 163.051C492.605 161.99 487.806 151.322 484.276 137.079C483.125 132.431 483.332 128.051 481.484 111.776C481.092 108.321 479.629 101.081 474.156 99.2121C472.231 98.5581 471.16 98.6411 471.16 98.6411C471.115 98.6411 464.194 98.6948 461.031 100.41C460.249 101.447 457.335 107.115 456.561 122.571C456.224 129.32 454.844 150.985 455.128 154.506C455.172 155.028 455.225 155.533 455.288 156.021C456.526 165.374 466.591 172.365 476.001 170.276Z" fill="#1A3C47"/>
<path d="M460.793 110.978H460.818C464.314 110.6 473.148 99.3047 473.148 99.3047L473.128 99.273L467.685 90.8475C467.685 90.8475 459.665 92.275 461.235 94.6613C462.806 97.0477 463.682 102.77 463.682 102.77C463.651 102.853 463.614 102.935 463.572 103.014C463.023 104.18 461.218 107.637 460.793 110.978Z" fill="#FDE2D4"/>
<path d="M463.158 77.5225C463.33 77.3639 469.4 87.1362 467.952 91.1623C466.504 95.1884 461.577 98.397 458.661 96.9599C455.433 95.3714 450.554 84.1618 453.495 79.4062C456.436 74.6505 463.158 77.5225 463.158 77.5225Z" fill="#FDE2D4"/>
<path d="M454.352 73.1378C457.932 72.3862 464.324 73.4184 467.924 75.8926C472.351 78.9353 472.496 84.3351 470.501 87.8659C468.506 91.3966 469.707 93.9953 469.707 93.9953C469.707 93.9953 463.488 93.6146 462.217 89.4763C461.69 87.7414 462.347 86.5653 461.153 85.5844C460.232 84.8304 459.458 82.6368 458.544 80.8751C458.544 80.8751 454.532 78.7889 453.003 80.5067C452.492 81.0923 449.76 74.1016 454.352 73.1378Z" fill="#1A3C47"/>
<path d="M460.536 86.3433C461.081 87.6219 462.137 88.4051 462.896 88.0977C463.655 87.7902 463.83 86.5019 463.285 85.2258C462.741 83.9496 461.685 83.1639 460.926 83.4738C460.167 83.7837 459.992 85.0672 460.536 86.3433Z" fill="#FDE2D4"/>
<path d="M537.675 237.86C537.675 237.86 536.826 238.216 536.1 242.291C535.515 245.571 535.141 252.674 534.352 253.142C533.882 253.423 531.391 253.63 531.161 254.794C531.161 254.823 531.083 256.014 531.86 256.014H537.802C538.733 256.013 539.626 255.654 540.288 255.015C540.95 254.376 541.328 253.507 541.34 252.598C541.36 250.57 542.589 239.197 542.224 238.741C541.797 238.185 537.675 237.86 537.675 237.86Z" fill="#1A3C47"/>
<path d="M419.706 74.775C419.611 74.3529 419.956 74.6872 419.312 71.3736C419.091 70.4587 418.665 69.6033 418.063 68.8701C417.723 68.4911 417.332 68.158 416.902 67.8795C416.315 67.5379 415.859 68.0942 415.976 68.409C416.093 68.7237 416.697 69.812 416.815 70.117C416.932 70.422 416.985 71.2052 416.717 71.4615C416.45 71.7177 412.223 66.9693 411.946 66.5521C411.721 66.1983 411.219 64.6537 411.219 64.6537C411.219 64.6537 410.85 63.5289 410.398 63.8144C410.103 64.0022 409.779 64.9295 410.63 66.7546C411.379 68.348 412.4 69.6217 412.283 69.7144C411.979 69.9584 410.138 67.8063 410.138 67.8063C410.138 67.8063 409.494 66.6058 409.06 66.1788C408.785 65.3809 408.286 64.3902 407.764 64.7782C407.667 64.8489 408.014 66.5496 408.014 66.5496C408.014 66.5496 408.655 67.6745 408.93 68.226C409.412 69.202 410.51 70.3878 410.887 71.0222C411.202 71.5517 410.887 71.4297 410.872 71.4932C410.857 71.5566 410.373 70.9466 409.654 70.0804C409.289 69.6436 408.788 69.2264 408.441 68.6578C408.079 68.102 407.678 67.572 407.24 67.0718C406.286 65.9592 405.779 66.7156 406.491 67.8892C406.768 68.3358 407.072 68.8189 407.384 69.3093C408.593 71.2126 410.083 72.6986 409.939 72.8791C409.749 73.1109 407.192 70.2439 407.192 70.2439C407.192 70.2439 405.387 69.0653 406.461 70.7978C407.207 72.013 408.099 73.1361 409.12 74.1431C409.544 74.5066 410.678 76.2098 412.343 77.2444C414.008 78.2789 416.71 79.8454 416.71 79.8454C417.02 80.2114 417.809 81.3997 418.905 83.0809L422.942 78.3351C421.519 76.8979 419.771 75.0727 419.706 74.775Z" fill="#FDE2D4"/>
<path d="M416.525 81.4705L422.108 76.6978L441.276 95.1835C441.276 95.1835 470.948 97.7261 471.025 97.748L472.214 98.1116C482.978 101.742 478.546 110.329 476.473 111.656C471.642 114.75 444.811 112.896 436.217 107.684C429.136 103.394 416.525 81.4705 416.525 81.4705Z" fill="#1A3C47"/>
<path d="M152.428 163.571C152.428 163.571 152.678 162.351 152.736 161.943C152.795 161.455 152.865 160.006 152.865 160.006C152.865 160.006 152.865 154.921 152.483 154.952C152.101 154.984 151.599 155.855 151.485 156.172C151.37 156.49 151.21 156.843 151.098 157.148C151.068 157.229 151.022 157.302 150.962 157.365C150.903 157.428 150.832 157.478 150.752 157.514C150.673 157.549 150.587 157.569 150.5 157.572C150.413 157.575 150.325 157.562 150.244 157.531C149.834 157.422 149.994 156.067 150.159 155.621C150.641 154.208 152.703 150.68 152.905 150.297C153.155 149.845 151.485 141.025 151.158 137.96C150.476 132.955 149.52 127.846 149.445 127.316L140.326 107.623L146.414 101.55C146.414 101.55 156.845 123.266 157.242 124.41C157.43 124.954 158.089 136.672 158.084 136.672C158.036 142.459 157.979 147.561 157.996 148.542C157.996 148.542 158.855 151.458 159.514 153.286C160.174 155.113 160.031 157.051 160.136 157.592C160.436 158.984 160.49 160.415 160.296 161.824C160.021 163.815 159.342 161.794 159.342 161.794C159.342 161.794 159.167 158.01 158.863 158.071C158.628 158.117 158.848 160.181 158.568 162.385C158.496 162.953 158.423 163.512 158.351 164.027C158.164 165.374 157.257 165.637 157.222 164.193C157.199 163.541 157.224 162.889 157.297 162.241C157.395 161.592 157.265 160.96 157.257 160.401C157.257 159.288 157.257 158.478 157.205 158.503C157.152 158.527 156.98 158.315 156.885 158.913C156.77 159.645 156.885 161.221 156.621 162.268C156.478 162.861 156.254 164.12 156.254 164.12C156.254 164.12 155.664 166.118 155.539 166.113C154.863 166.084 154.863 164.532 155.167 163.754C155.097 163.156 155.372 161.841 155.372 161.841C155.372 161.841 155.307 159.049 154.9 159.047C154.566 159.047 153.402 165.742 152.716 165.669C152.169 165.601 152.428 163.571 152.428 163.571Z" fill="#FDE2D4"/>
<path d="M144.039 119.033C144.039 119.033 147.822 118.393 149.829 117.664C152.506 116.688 154.266 115.839 154.266 115.839C154.266 115.839 151.33 103.548 147.662 96.0864C146.147 93.0021 144.616 91.5137 142.479 91.1575C142.479 91.1575 137.984 94.0465 138.152 101.015C138.194 102.653 144.039 119.033 144.039 119.033Z" fill="#90CFC0"/>
<path d="M132.404 160.333L127.5 204.424C127.5 204.424 129.897 213.75 129.608 216.398C129.318 219.045 124.277 253.799 124.277 253.799L124.489 255.751V261.507H105.783C105.783 261.507 109.756 259.716 115.311 256.178C115.72 255.917 116.667 255.082 116.899 253.42C118.382 242.709 115.446 206.982 115.446 206.982L113.134 160.477L132.404 160.333Z" fill="#FDE2D4"/>
<path d="M147.442 169.607C148.498 169.876 150.126 207.789 151.003 209.468C156.551 220.121 157.869 252.51 157.869 252.51L159.482 257.122L161.207 262.778C161.207 262.778 155.667 264.259 152.761 262.646L153.083 257.071L153.38 251.971L139.38 211.62L131.72 170.464L147.442 169.607Z" fill="#FDE2D4"/>
<path d="M119.601 96.1669C121.86 93.0607 131.176 84.0667 132.212 84.0838C135.228 84.1374 145.133 84.1423 147.07 85.1305V87.2485C147.025 96.717 145.773 106.143 143.343 115.309C141.645 121.697 140.034 128.522 140.232 130.972L140.184 131.018C134.454 136.584 125.418 136.142 120.177 130.042C114.936 123.942 120.2 123.249 119.391 117.054C118.115 107.367 113.993 103.88 119.601 96.1669Z" fill="#90CFC0"/>
<path d="M135.248 74.4456C135.248 74.4456 134.986 80.7629 135.55 83.1566C136.114 85.5503 136.868 85.7333 132.025 86.4628C130.122 86.7483 128.279 87.1753 128.279 87.1753C128.279 87.1753 128.779 83.6592 128.851 82.1732C128.973 79.7332 128.292 72.1691 128.292 72.1691L135.248 74.4456Z" fill="#FDE2D4"/>
<path d="M133.71 56.7504C135.577 57.5177 137.1 58.9131 138.004 60.6838C139.532 63.6607 140.102 72.0324 134.082 75.3045C131.103 76.9247 127.665 77.2346 126.047 75.8072C124.429 74.3798 124.597 71.1223 124.761 68.4358C125.091 63.1141 126.287 55.0595 133.71 56.7504Z" fill="#FDE2D4"/>
<path d="M153.085 257.046C155.642 258.193 158.376 257.485 159.482 257.119L161.257 262.797C161.257 262.797 155.677 264.413 152.768 262.797L153.085 257.046Z" fill="#FBBB25"/>
<path d="M124.689 262.934H105.234C104.515 262.868 104.34 262.275 104.59 261.912C105.104 261.16 107.374 260.611 109.923 259.413C114.4 259.901 123.788 256.78 124.494 255.736C124.899 257.827 125.088 262.844 124.689 262.934Z" fill="#FBBB25"/>
<path d="M85.6141 110.524C85.2371 110.012 83.9762 107.508 83.9762 107.508C83.9762 107.508 82.6679 103.219 82.9401 103.275C83.0998 103.306 83.6392 103.916 84.2783 105.215C84.6678 106.008 85.0948 107.396 85.4993 108.082C86.2059 109.287 86.9974 109.79 86.8026 109.324C86.6603 108.984 86.1734 108.706 85.7465 107.984C84.7078 106.23 83.789 103.348 84.1885 103.416C84.5405 103.467 85.5467 105.446 86.6603 106.986C87.1447 107.657 88.5229 108.496 89.3893 109.031C89.3738 108.71 89.3141 108.394 89.212 108.089C89.1022 107.752 87.5591 105.749 88.1634 105.498C88.7676 105.246 92.4404 109.587 92.4404 109.587L93.9509 112.103L94.0833 112.2C94.0833 112.2 112.432 119.23 113.046 119.033C114.49 118.586 119.421 104.619 119.421 104.619L129.685 106.43C129.835 106.349 118.894 127.216 116.854 128.241C115.061 129.139 95.9908 119.43 92.4079 117.351C87.4742 115.494 85.5492 113.289 84.7477 112.159C84.3183 111.551 82.6629 108.911 82.6629 108.911C82.6629 108.911 82.3084 105.251 82.578 105.222C83.4844 105.115 83.734 108.56 83.734 108.56C83.734 108.56 84.9575 110.187 85.1697 110.402C85.699 110.936 85.6141 110.524 85.6141 110.524Z" fill="#FDE2D4"/>
<path d="M136.322 92.4678C137.722 98.2702 130.249 111.21 130.249 111.21C130.249 111.21 119.606 106.156 117.733 103.98C117.733 103.98 125.076 92.1359 125.53 91.3624C126.514 89.691 129.965 86.2383 132.287 86.8728C133.767 87.2656 136.322 92.4678 136.322 92.4678Z" fill="#90CFC0"/>
<path d="M134.636 78.1472C133.842 72.823 124.806 61.9746 128.294 57.441C131.118 53.7809 136.034 54.8716 139.178 55.9257C153.41 60.7082 152.586 78.1838 157.077 80.9142C165.217 85.8699 170.226 88.9663 170.81 100.117C171.506 113.357 160.001 120.126 146.164 116.878C138.726 115.138 136.753 112.759 133.77 105.898C132.424 102.804 129.713 93.1486 130.454 88.4319C131.116 84.2058 135.27 82.4343 134.636 78.1472Z" fill="#1A3C47"/>
<path d="M129.223 68.387C129.223 69.9632 129.807 71.2418 130.529 71.2418C131.251 71.2418 131.837 69.9632 131.837 68.387C131.837 66.8107 131.253 65.5345 130.529 65.5345C129.805 65.5345 129.223 66.8107 129.223 68.387Z" fill="#FDE2D4"/>
<path d="M111.386 189.013L110.722 162.856C110.602 155.481 112.097 148.167 115.106 141.403L120.155 130.059C122.2 130.713 124.13 131.279 126.279 131.523C130.958 132.053 135.557 131.523 140.209 130.991C140.221 131.146 140.243 131.3 140.274 131.452C141.118 135.305 145.819 143.897 147.802 155.633C150.049 168.958 150.89 188.886 150.608 190.45C129.121 191.394 123.997 192.153 111.386 189.013Z" fill="#1A3C47"/>
</svg>
