<svg width="596" height="440" viewBox="0 0 596 440" fill="none" xmlns="http://www.w3.org/2000/svg">
<path d="M494 142.7H104.5C96.6999 142.7 90.3999 148.3 90.3999 155.2V393H508.2V155.2C508.1 148.3 501.8 142.7 494 142.7Z" fill="#7F9298"/>
<path d="M535.9 388.7H62.5999C59.9999 388.6 57.8 390.5 57.7 393.1V398.8C57.9 401.4 60.0999 403.3 62.5999 403.2H535.9C538.5 403.4 540.7 401.4 540.9 398.8V393.1C540.7 390.5 538.5 388.6 535.9 388.7Z" fill="#1A3C47"/>
<path d="M493.5 148H105C100.2 148 96.3 151.5 96.3 155.7V389.4H502.2V155.7C502.2 151.4 498.3 148 493.5 148Z" fill="#DADADA"/>
<path d="M106.8 159.5H491.7V381.2H106.8V159.5Z" fill="white"/>
<path d="M301.4 154.9C301.5 156.1 300.7 157.1 299.5 157.3C298.3 157.4 297.3 156.6 297.1 155.4C297 154.2 297.8 153.2 299 153H299.3C300.3 152.9 301.3 153.8 301.4 154.9C301.3 154.9 301.3 154.9 301.4 154.9Z" fill="#F7F7F7"/>
<path d="M339.8 395.1H258.6C257.7 395 256.8 395.6 256.7 396.6C256.6 397.5 257.2 398.4 258.2 398.5H339.9C340.8 398.6 341.7 398 341.8 397C341.9 396.1 341.3 395.2 340.3 395.1C340.1 395 340 395 339.8 395.1Z" fill="#FFFFF6"/>
<path d="M76.2999 339.2H218.4C219.7 339.2 220.8 338.2 220.8 336.8L221.3 258.9C221.3 257.6 220.2 256.5 218.9 256.5H76.7999C75.4999 256.5 74.3999 257.6 74.3999 258.9L73.8999 336.8C73.8999 338.2 74.9999 339.2 76.2999 339.2Z" fill="#639FCB"/>
<path d="M79.3001 335.5H215.3C216.5 335.5 217.5 334.5 217.6 333.3L218 262.4C218 261.2 217 260.2 215.8 260.2H79.8001C78.6001 260.2 77.6001 261.2 77.5001 262.4L77.1001 333.3C77.1001 334.6 78.1001 335.6 79.3001 335.5C79.3001 335.6 79.3001 335.6 79.3001 335.5Z" fill="white"/>
<path d="M83.5 330.9H211.2C212.6 330.9 213.7 329.8 213.8 328.4L214.2 267.3C214.2 265.9 213.1 264.8 211.7 264.8H83.9C82.5 264.8 81.4 265.9 81.3 267.3L81 328.4C81 329.8 82.1 330.9 83.5 330.9Z" fill="#D5EDE7"/>
<path d="M151.457 320.467C164.143 318.306 172.705 306.447 170.581 293.98C168.457 281.512 156.452 273.157 143.766 275.317C131.081 277.478 122.519 289.337 124.643 301.805C126.766 314.273 138.772 322.628 151.457 320.467Z" fill="white"/>
<path d="M150.923 317.316C161.867 315.452 169.257 305.246 167.43 294.52C165.603 283.795 155.251 276.611 144.307 278.475C133.364 280.339 125.974 290.545 127.801 301.271C129.628 311.996 139.98 319.18 150.923 317.316Z" fill="#639FCB"/>
<path d="M137.7 296.8L145 301L152.3 305.2L152.4 296.8V288.5L145 292.7L137.7 296.8Z" fill="white"/>
<path opacity="0.5" d="M111.3 284.1H221.1L220.8 336.8C220.8 338.1 219.7 339.2 218.4 339.2H108.6L108.9 286.5C108.9 285.2 110 284.1 111.3 284.1Z" fill="#99A8C2"/>
<path d="M123.6 371.1H265.7C267 371.1 268.1 370 268.1 368.7L268.6 290.8C268.6 289.5 267.5 288.4 266.2 288.4H124.1C122.8 288.4 121.7 289.4 121.7 290.8L121.2 368.7C121.2 370.1 122.3 371.2 123.6 371.1C123.6 371.2 123.6 371.2 123.6 371.1Z" fill="#639FCB"/>
<path d="M126.7 367.5H262.7C263.9 367.5 264.9 366.5 265 365.3L265.4 294.4C265.4 293.2 264.4 292.2 263.2 292.2H127.2C126 292.2 125 293.2 124.9 294.4L124.5 365.3C124.5 366.5 125.5 367.5 126.7 367.5Z" fill="white"/>
<path d="M130.9 362.9H258.6C260 362.9 261.1 361.8 261.1 360.4L261.5 299.3C261.5 297.9 260.4 296.8 259 296.8H131.3C129.9 296.8 128.8 297.9 128.7 299.3L128.3 360.4C128.4 361.8 129.5 362.9 130.9 362.9Z" fill="#D5EDE7"/>
<path d="M218.03 332.359C219.903 319.348 211.096 307.315 198.359 305.481C185.623 303.647 173.779 312.708 171.906 325.718C170.032 338.728 178.839 350.762 191.576 352.595C204.313 354.429 216.157 345.369 218.03 332.359Z" fill="white"/>
<path d="M202.3 318.3C202.3 318.3 205.6 309.5 199.2 306.7C192.8 303.9 187.3 307.9 186.3 310.1C185.3 312.3 185.6 316.1 186.5 318.9C187.4 321.7 185.5 325.1 182.2 326.5C177.2 328.6 177.4 334 182.6 337.3C185.3 339 194 328 194 328L202.3 318.3Z" fill="#1A3C47"/>
<path d="M193.4 328.8C193.4 328.8 188.1 329.8 186 330.9C182.7 332.6 180.2 335.6 179.3 339.2C178.9 341.2 178.4 345.1 178 348.3C177.7 350.9 179.9 353.1 182.8 353.1H204.2C204.2 353.1 212.5 352.9 214.6 349.7C215.8 347.8 211.2 336.7 210.3 333.9C209.4 331.1 205.7 329.2 201.4 328.7C198.7 328.4 196 328.4 193.4 328.8Z" fill="#639FCB"/>
<path d="M200.9 328.7C200.9 328.7 200.8 334.4 195.7 334.6C190.6 334.8 191.6 329.1 191.6 329.1C194.7 328.3 197.9 328.1 200.9 328.7Z" fill="#FAD7C8"/>
<path d="M203 311.4C203 311.4 204.9 320.6 199.8 327.3C194.5 334.2 203 311.4 203 311.4Z" fill="#004254"/>
<path d="M199.8 324.7C199.6 326.2 199.7 327.7 200.1 329.2C200.7 330.9 192.3 331 192.3 329.6C192.3 328 193.1 326.7 192.3 323.9C191.5 321.1 199.8 324.7 199.8 324.7Z" fill="#FAD7C8"/>
<path d="M193.3 325C195 326.4 197.5 326.5 199.3 325.3C199.3 325.3 199 326.9 196.6 327.1C195.2 327.1 193.9 326.3 193.3 325Z" fill="#EEC7B0"/>
<path d="M196.5 308.2C196.5 308.2 203.2 310 202.3 318.3C201.4 326.6 197 326.2 196.6 326.2C196.2 326.2 191 326.6 189.3 316.5C187.6 306.4 196.5 308.2 196.5 308.2Z" fill="#FAD7C8"/>
<path d="M194.8 311.9C194.8 311.9 198.5 317.1 202.3 318.3C202.3 318.3 204.3 309.6 195.7 307.8C187.1 306 188.5 316.6 189.1 319.4C190.5 316.5 192.5 314 194.8 311.9Z" fill="#1A3C47"/>
<path d="M190 311.1C190 311.1 191.9 307.8 195.1 307.6C197.1 307.6 199 308.4 200.3 310C199.3 308.1 197.3 307 195.1 307.2C191.2 307.2 190 311.1 190 311.1Z" fill="#F7AC6F"/>
<path d="M83.1 176.3H82.6C71.2 176.6 62.1 186 62.2 197.4C62.2 197.9 62.2 198.4 62.3 198.8C61.7 198.7 61.2 198.7 60.6 198.7H60.2C52.8 198.9 46.9 203.9 47 209.9C47.1 215.9 53 220.5 60.2 220.5H65.9C75.1 220.5 92.9 220.6 103.1 220.6H109.8C118.5 220.3 125.4 213.1 125.3 204.4C125.2 195.8 118.2 189 109.7 189H109.3C107.1 189.1 104.9 189.6 102.8 190.6C99.9 182.1 92 176.3 83.1 176.3Z" fill="#FDE2D4"/>
<path d="M43.3 170.6C35.9 170.6 29.4 175.3 27.1 182.4C25.4 181.6 23.6 181.2 21.7 181.1H21.4C14.3 181.1 8.49998 186.8 8.39998 193.9C8.29998 201.1 14 207.1 21.3 207.3H26.8C35.2 207.3 50 207.2 57.6 207.2H62.3C68.3 207.2 73.1 203.3 73.2 198.4C73.3 193.5 68.4 189.2 62.2 189.1H62C61.5 189.1 61.1 189.1 60.6 189.2C60.6 188.8 60.7 188.4 60.7 188C60.8 178.5 53.3 170.7 43.8 170.5L43.3 170.6Z" fill="white"/>
<path fill-rule="evenodd" clip-rule="evenodd" d="M370.7 201H379.5C381.6 201 383.3 202.7 383.4 204.9V211.2C386.9 211.6 390.3 212.3 393.7 213.2L396.1 207.3C396.9 205.4 399.1 204.4 401.1 205.2L409.3 208.6C411.2 209.4 412.2 211.6 411.4 213.6L409 219.5C412.1 221.2 415 223.2 417.8 225.4L422.3 220.9C423.8 219.4 426.2 219.4 427.7 220.9L434 227.2C435.5 228.7 435.5 231.1 434 232.6L429.5 237.1C431.7 239.9 433.6 242.8 435.4 245.9L441.3 243.5C443.3 242.7 445.5 243.6 446.3 245.6L449.7 253.8C450.5 255.8 449.6 258 447.6 258.8L441.7 261.2C442.7 264.6 443.3 268.1 443.8 271.6H450.1C452.2 271.6 453.9 273.3 454 275.5V284.3C454 286.4 452.3 288.1 450.1 288.2H443.8C443.4 291.7 442.7 295.2 441.8 298.5L447.7 300.9C449.6 301.7 450.6 303.9 449.8 305.9L446.4 314.1C445.6 316 443.4 317 441.4 316.2L435.5 313.8C433.8 316.9 431.8 319.8 429.6 322.6L434.1 327.1C435.6 328.6 435.6 331 434.1 332.6L427.8 338.9C426.3 340.4 423.9 340.4 422.4 338.9L417.9 334.4C415.1 336.6 412.2 338.5 409.1 340.3L411.5 346.2C412.3 348.2 411.4 350.4 409.4 351.2L401.2 354.6C399.2 355.4 397 354.5 396.2 352.5L393.8 346.6C390.4 347.6 386.9 348.2 383.4 348.7V355C383.4 357.1 381.7 358.8 379.5 358.9H370.7C368.6 358.9 366.9 357.2 366.8 355V348.7C363.3 348.3 359.9 347.6 356.5 346.7L354.1 352.6C353.3 354.5 351.1 355.5 349.1 354.7L340.9 351.3C339 350.5 338 348.3 338.8 346.3L341.2 340.4C338.1 338.7 335.2 336.7 332.4 334.5L327.9 339C326.4 340.5 324 340.5 322.4 339L316.1 332.7C314.6 331.2 314.6 328.8 316.1 327.2L320.6 322.7C318.4 319.9 316.5 317 314.7 313.9L308.8 316.3C306.8 317.1 304.6 316.2 303.8 314.2L300.3 306C299.5 304 300.4 301.8 302.4 301L308.2 298.6C307.2 295.2 306.6 291.7 306.1 288.2H299.8C297.7 288.2 296 286.5 295.9 284.3V275.5C295.9 273.4 297.6 271.7 299.8 271.6H306.1C306.5 268.1 307.2 264.7 308.1 261.3L302.3 258.9C300.4 258.1 299.4 255.9 300.2 253.9L303.6 245.7C304.4 243.8 306.6 242.8 308.6 243.6L314.5 246C316.2 242.9 318.2 240 320.4 237.2L315.9 232.7C314.4 231.2 314.4 228.8 315.9 227.3L322.2 221C323.7 219.5 326.1 219.5 327.7 221L332.2 225.5C335 223.3 337.9 221.4 341 219.6L338.6 213.7C337.8 211.7 338.7 209.5 340.7 208.7L348.9 205.3C350.9 204.5 353.1 205.4 353.9 207.4L356.3 213.2C359.7 212.2 363.2 211.6 366.7 211.1V204.8C366.7 202.8 368.4 201.1 370.7 201ZM375.1 242.2C354.3 242.2 337.4 259.1 337.4 279.9C337.4 300.7 354.3 317.6 375.1 317.6C395.9 317.6 412.8 300.7 412.8 279.9C412.8 259.1 395.9 242.2 375.1 242.2ZM375.1 248.4C357.7 248.4 343.6 262.5 343.6 279.9C343.6 297.3 357.7 311.4 375.1 311.4C392.5 311.4 406.6 297.3 406.6 279.9C406.6 262.5 392.5 248.4 375.1 248.4ZM375.1 235.1C350.4 235.1 330.3 255.1 330.3 279.9C330.3 304.7 350.3 324.7 375.1 324.7C399.9 324.7 419.9 304.7 419.9 279.9C419.9 255.1 399.8 235.1 375.1 235.1Z" fill="#FDE2D4"/>
<path fill-rule="evenodd" clip-rule="evenodd" d="M480.8 143.3C485.2 143.6 489.4 144.4 493.6 145.8L495.4 141.3C495.7 140.5 496.7 140.1 497.5 140.4L501 141.9C501.8 142.2 502.2 143.2 501.9 144L500 148.4C503.9 150.3 507.5 152.8 510.8 155.6L514.2 152.2C514.8 151.6 515.9 151.6 516.5 152.2L519.1 154.8C519.7 155.4 519.7 156.4 519.1 157.1L515.7 160.5C518.6 163.8 521 167.4 523 171.3L527.5 169.5C528.3 169.2 529.3 169.5 529.6 170.4L531 173.9C531.3 174.7 531 175.7 530.1 176L525.6 177.9C527 182 527.8 186.3 528.1 190.7H532.9C533.8 190.7 534.5 191.4 534.5 192.3V195.9C534.5 196.8 533.8 197.5 532.9 197.5H528.1C527.8 201.8 527 206.1 525.6 210.3L530.1 212.2C530.9 212.5 531.3 213.5 531 214.3L529.6 217.7C529.3 218.5 528.3 218.9 527.5 218.6L523.1 216.8C521.2 220.7 518.7 224.3 515.9 227.6L519.3 231C519.9 231.6 519.9 232.6 519.3 233.3L516.6 236C516 236.6 514.9 236.6 514.3 236L510.9 232.6C507.6 235.4 504 237.9 500.1 239.8L502 244.3C502.3 245.1 502 246.1 501.1 246.4L497.7 247.8C496.9 248.1 495.9 247.8 495.6 246.9L493.8 242.4C489.7 243.8 485.4 244.7 481 245V249.8C481 250.7 480.3 251.4 479.4 251.4H475.7C474.8 251.4 474.1 250.7 474.1 249.8V245C469.8 244.7 465.5 243.9 461.3 242.5L459.4 247C459.1 247.8 458.1 248.2 457.3 247.9L453.9 246.5C453.1 246.2 452.7 245.2 453 244.4L454.9 239.9C451 238 447.4 235.5 444.1 232.7L440.7 236.1C440.1 236.7 439.1 236.7 438.4 236.1L435.8 233.5C435.2 232.9 435.2 231.8 435.8 231.2L439.2 227.8C436.3 224.5 433.9 220.9 432 217L427.5 218.9C426.7 219.2 425.7 218.8 425.4 218L424 214.6C423.7 213.8 424 212.8 424.9 212.5L429.4 210.6C428 206.5 427.2 202.2 426.9 197.8H422.1C421.2 197.8 420.5 197.1 420.5 196.2V192.4C420.5 191.5 421.2 190.8 422.1 190.8H426.9C427.2 186.5 428 182.2 429.4 178L424.9 176.1C424.1 175.8 423.7 174.8 424 174L425.4 170.6C425.7 169.8 426.7 169.4 427.5 169.7L432 171.5C434 167.6 436.4 164 439.3 160.7L435.9 157.3C435.3 156.7 435.3 155.7 435.9 155L438.5 152.4C439.1 151.8 440.1 151.8 440.8 152.4L444.2 155.8C447.5 152.9 451.1 150.5 455 148.5L453.1 144C452.8 143.2 453.1 142.2 454 141.9L457.4 140.5C458.2 140.2 459.2 140.5 459.5 141.4L461.4 145.9C465.5 144.5 469.8 143.7 474.2 143.4V138.6C474.2 137.7 474.9 137 475.8 137H479.5C480.4 137 481.1 137.7 481.1 138.6L480.8 143.3ZM477.4 171.8C465 171.8 455 181.8 455 194.1C455 206.5 465 216.5 477.3 216.5C489.7 216.5 499.7 206.5 499.7 194.2C499.7 181.9 489.7 171.8 477.4 171.8ZM477.4 180.8C470 180.8 464.1 186.7 464 194.1C463.9 201.5 469.9 207.4 477.3 207.5C484.7 207.5 490.6 201.6 490.7 194.2C490.7 186.8 484.7 180.8 477.4 180.8ZM477.4 159.4C458.2 159.3 442.6 174.8 442.6 194C442.6 213.2 458 228.8 477.2 228.8C496.4 228.8 512 213.4 512 194.2V194.1C512 175 496.5 159.5 477.4 159.4Z" fill="#FDE2D4"/>
<path fill-rule="evenodd" clip-rule="evenodd" d="M383.8 123.9L390.9 123.6C392.5 123.5 393.8 124.7 393.8 126.3L394.1 133.3C397.6 133.9 400.9 135.1 403.9 136.9L408.7 131.7C409.8 130.6 411.5 130.5 412.7 131.5L417.9 136.3C419 137.4 419.1 139.2 418.1 140.3L413.3 145.5C415.3 148.4 416.8 151.6 417.7 155L424.7 154.7C426.3 154.6 427.6 155.9 427.6 157.4L427.9 164.5C428 166.1 426.7 167.4 425.2 167.4L418.2 167.7C417.6 171.2 416.4 174.5 414.6 177.5L419.8 182.3C420.9 183.4 421 185.1 420 186.3L415.2 191.5C414.1 192.6 412.3 192.7 411.2 191.7L406 186.9C403.1 188.9 399.9 190.4 396.5 191.3L396.8 198.3C396.9 199.9 395.7 201.2 394.1 201.2L387 201.5C385.4 201.6 384.1 200.3 384.1 198.8L383.8 191.8C380.3 191.2 377 190 374 188.2L369.2 193.4C368.1 194.5 366.3 194.6 365.2 193.6L360.1 188.8C359 187.7 358.9 185.9 359.9 184.8L364.7 179.6C362.7 176.7 361.2 173.5 360.3 170.1L353.3 170.4C351.7 170.5 350.4 169.2 350.4 167.7L350.1 160.6C350 159 351.2 157.7 352.8 157.7L359.8 157.4C360.4 153.9 361.6 150.6 363.4 147.6L358.2 142.8C357.1 141.8 357 140 358 138.8L362.8 133.6C363.9 132.5 365.7 132.4 366.8 133.4L372 138.2C374.9 136.2 378.1 134.7 381.5 133.8L381.2 126.8C381.1 125.2 382.3 123.9 383.8 123.9ZM388.4 150.8C381.9 151.1 376.9 156.5 377.1 163C377.4 169.5 382.8 174.5 389.3 174.3C395.8 174.1 400.8 168.6 400.6 162.1C400.4 155.5 394.9 150.5 388.4 150.8Z" fill="#F7AC6F"/>
<path fill-rule="evenodd" clip-rule="evenodd" d="M477.4 168.9C491.3 168.9 502.6 180.3 502.5 194.2C502.4 208.1 491.1 219.4 477.2 219.3C463.3 219.3 452 207.9 452.1 194C452.1 187.3 454.8 180.9 459.5 176.2C464.3 171.5 470.7 168.9 477.4 168.9ZM494 177.6C484.8 168.4 469.9 168.3 460.7 177.5C451.5 186.7 451.4 201.6 460.6 210.8C469.8 220 484.7 220.1 493.9 210.9C498.3 206.5 500.8 200.5 500.8 194.3C500.9 188 498.4 182 494 177.6Z" fill="white"/>
<path fill-rule="evenodd" clip-rule="evenodd" d="M471.8 218.8C467.8 217.5 455.4 211.7 441.2 204.7C416.1 192.4 384.9 176.4 382.6 175C380.3 173.7 378.3 171.8 376.9 169.6C375.6 167.4 374.9 165 374.9 162.5C374.9 158.7 376.4 155.1 379 152.5C381.6 149.8 385.2 148.4 389 148.4C391.8 148.4 404.1 151 419.1 154.4C444.6 160.2 478 168.3 486.2 170.4L485.8 172C477.6 169.9 444.2 161.8 418.8 156C403.9 152.6 391.7 150.1 389 150.1C385.7 150.1 382.6 151.4 380.2 153.7C377.9 156 376.6 159.2 376.6 162.5C376.6 164.7 377.2 166.9 378.4 168.8C379.7 170.8 381.4 172.5 383.5 173.7C385.9 175.1 417 191.1 442 203.3C456.2 210.2 468.4 216 472.4 217.2L471.8 218.8Z" fill="white"/>
<path fill-rule="evenodd" clip-rule="evenodd" d="M497.6 209.2L399 311.6L398.9 311.7C392 316.9 383.6 319.6 375 319.6C353.1 319.6 335.3 301.7 335.4 279.8C335.4 266.3 342.3 253.8 353.6 246.5L461.8 174.3L462.7 175.7L354.5 247.9C343.7 254.9 337.1 266.9 337.1 279.8C337 300.8 354 317.9 375 318C383.2 318 391.2 315.4 397.8 310.5L496.4 208.1L497.6 209.2Z" fill="white"/>
<path d="M446.8 360.9L443.6 368.6L448.8 381.6L454.2 363.8L446.8 360.9Z" fill="#FAD7C8"/>
<path d="M532.4 339.3L537.4 350.6L542.2 379.7H537.4C524.9 366 524.9 340.9 524.9 340.9L532.4 339.3Z" fill="#1A3C47"/>
<path d="M501.6 389.2H544.7C547.8 389.2 550.3 386.7 550.3 383.6V382.9L544.5 337.8H536.9C536.9 337.8 535.3 350.5 535.2 357.7C534.5 365.6 539 377.3 539 377.3C539 377.3 512.8 365.8 501.5 366.8L501.6 389.2Z" fill="#35535D"/>
<path d="M446.5 361.4C451.7 349.7 459 350.7 459 350.7L468.5 350L491.8 366.2C491.8 366.2 493.9 367.8 502.4 366.7L502.5 389.3H475.4C475.4 389.3 457.1 378 454.2 376.1C451.3 374.2 451.8 365.7 451.8 365.7C449.8 364.6 448 363.1 446.5 361.4Z" fill="#F7AC6F"/>
<path d="M485 365.9L474.3 372.2L479.1 381.1C480.3 382.6 479.2 383.7 477.3 383.8L450.7 384.4V389.2H492C496.8 389.2 485 365.9 485 365.9Z" fill="#FAD7C8"/>
<path d="M407.9 364.1H445L457.3 389.2H420.1L407.9 364.1Z" fill="#1A3C47"/>
<path d="M420.1 382.7H467.8V384.9H420.1V382.7Z" fill="#1A3C47"/>
<path d="M432.5 376.4C432.5 377.2 431.8 377.9 431 377.9C430.2 377.9 429.5 377.2 429.5 376.4C429.5 375.6 430.2 374.9 431 374.9C431.9 374.9 432.5 375.6 432.5 376.4Z" fill="#EDECEC"/>
<path d="M543.8 337.7L542.5 330.8L541.5 330.6C540.8 330.5 540.2 330.5 539.5 330.6L538.1 330.8V337.7H543.8Z" fill="#FAD7C8"/>
<path d="M542.3 330.8L548.2 323C549.1 321.7 550 320.1 548.9 318.6C548.4 318 547.9 317.4 547.3 316.8C546.5 316.6 536.1 328.1 536.1 328.1V328.2C536.1 329.7 537.3 330.9 538.8 330.9H539L542.3 330.8Z" fill="white"/>
<path d="M547.3 316.8L536.1 328.2L535.6 327.5L546.8 316.3L547.3 316.8Z" fill="#03657C"/>
<path d="M527.8 334L531 324.7C531.5 323.2 531.8 321.4 530.3 320.3C529.7 319.8 529 319.4 528.3 319.1C527.5 319.2 521.3 333.4 521.3 333.4V333.5C521.8 334.9 523.3 335.7 524.7 335.2C524.8 335.2 524.9 335.1 524.9 335.1L527.8 334Z" fill="white"/>
<path d="M528.2 319.1L521.1 333.4L520.5 332.9L527.5 318.8L528.2 319.1Z" fill="#004254"/>
<path d="M531 339.6L527.8 333.9L523.6 335.4L525.6 340.7L531 339.6Z" fill="#FAD7C8"/>
<path d="M466.3 329.8C466.3 328.1 466 323.5 458.9 322.3C451.8 321.1 449.3 324.5 448.5 327.2C448 331.3 446.5 337.8 451.2 345.6C451.8 346.7 454.6 345.9 457.9 343.9L455.6 345.2L455.5 349.8C455.5 349.8 454.1 356.4 455 360.5C455.9 364.6 458.1 365.7 458.1 365.7C458.1 365.7 468.5 352.1 466.2 350.2C464.9 349.1 463.6 344 462.8 340.2L462.9 340.1C463.7 338.8 466.4 331.5 466.3 329.8Z" fill="#F9D6C8"/>
<path d="M457.5 318.3H458.3C458.3 318.3 467.3 317.3 469.5 328.2C471.7 339.1 468.7 356.6 468.7 356.6L457.4 358.8C457.4 358.8 461 342.8 459.9 333.5C459.8 333.4 459.7 333.2 459.5 333.1C456.5 330.7 456.3 328.3 455 327.2C450.1 327.2 450.3 328.8 449.3 330.1C448.4 331 447.9 332.2 447.9 333.5C447.8 336.6 448.3 339.7 449.6 342.6C450.1 343.8 450.7 345 451.5 346C452.6 347 457.1 344.6 457.1 344.6L455.3 351.6L453 352.9L446.5 351C447.4 348.1 447.8 345 447.5 341.9C445.8 322.1 454 319.1 456.2 318.7C456.6 318.4 457 318.3 457.5 318.3Z" fill="#1A3C47"/>
<path d="M227.4 186V191C227.4 191 228 194.2 228.5 197.6C229 201 229.4 204.6 228.9 205.5C227.9 207.2 225.9 205.5 225.5 203.8C225.1 202.1 224.6 191.7 224.6 191.7L224.3 185L227.4 186ZM232.5 185.3L231.7 189.8C231.7 189.8 230.2 202.1 231 204C231.8 205.9 234.5 205 234.4 202.5C234.3 200 234.9 191 234.9 191L236.4 185.6L232.5 185.3Z" fill="#004254"/>
<path d="M230.4 130.6L230 136.1L244.3 143C246.9 144.4 248.1 147.4 247.3 150.2L237.4 186.9L232.5 185.3L236.9 151.5C237.2 149.4 235.8 147.5 233.7 147.2L228.6 146.4L223.2 140.9L229.5 146.5C231 147.9 231.8 149.9 231.5 151.9L227.5 186L223 187.1L221 153.5C220.9 151.4 219.4 149.5 217.4 148.9L208.6 146.1C207.2 145.2 206.3 143.7 206.3 142.1L206.7 130.3L230.4 130.6Z" fill="#F7AC6F"/>
<path d="M205.7 143L208.1 97.1C208.1 97.1 217.9 96.5 220.8 96.5C223 96.7 225.1 97.2 227.2 97.9C229.2 98.6 230.9 98.5 231.8 100.4L247.8 131L238 132L234.7 128.3L236.4 125.8L230.4 111.7L231.6 137.3L205.7 143Z" fill="#E3E2E2"/>
<path d="M230.6 106L241.2 125.1L237.9 129C237 129.2 236.1 129.1 235.3 128.9L234.7 128.2L236.4 125.7L230.4 111.6L230.6 106Z" fill="#DADADA"/>
<path d="M217.9 104.6C214.7 104.6 212.1 102 212.1 98.8C212.1 98.2 212.2 97.5 212.4 96.9C215.4 96.7 219.2 96.6 220.8 96.6C221.7 96.6 222.6 96.8 223.5 97C223.7 97.6 223.8 98.2 223.8 98.8C223.7 101.9 221.1 104.6 217.9 104.6Z" fill="white"/>
<path d="M206.9 105L205.7 143.2L221.5 139.4L206.9 105Z" fill="#DADADA"/>
<path d="M219.2 138.5C219.6 138.4 223.1 136.7 225.5 136.7C227.9 136.7 231 139.3 231 139.3C231 139.3 231.4 140.7 229.8 140.4C228.2 140.1 230 141.4 230 141.4C229.3 141.6 228.7 141.7 228 141.7C224.9 141.8 221.7 141.8 218.6 141.6L219.2 138.5Z" fill="#FAD7C8"/>
<path d="M208.1 97.1L206.8 127.3L219.2 138.5L218.6 141.6L201.1 132.3C199.4 131.4 198.5 129.5 198.7 127.7L201.9 104.6C202.2 101.7 203.9 99.2 206.5 97.9L208.1 97.1Z" fill="#E3E2E2"/>
<path d="M217.9 144.2H249.5V141.9H217.9C217.3 141.9 216.7 142.4 216.7 143.1C216.7 143.7 217.3 144.2 217.9 144.2Z" fill="white"/>
<path d="M226.6 144.2H257.1C258.4 144.2 259.6 143.3 260 142L265.4 121.7C265.8 120.1 264.8 118.5 263.2 118.1C263 118 262.7 118 262.5 118H235.9C234.6 118 233.4 118.9 233 120.2L226.6 144.2Z" fill="white"/>
<path d="M262.4 118C264.1 118 265.4 119.4 265.4 121C265.4 121.2 265.4 121.5 265.3 121.7L259.9 142C259.7 142.6 259.4 143.2 258.9 143.6L240.4 118H262.4Z" fill="white"/>
<path d="M244.5 132.9C244.2 133.9 244.7 134.9 245.7 135.2C245.9 135.3 246.2 135.3 246.4 135.3C247.8 135.2 249.1 134.3 249.5 132.9C249.8 131.9 249.3 130.9 248.3 130.6C248.1 130.5 247.8 130.5 247.6 130.5C246.2 130.6 244.9 131.5 244.5 132.9Z" fill="#639FCB"/>
<path d="M232.5 185.3L231.9 188.7L235.3 189.8L236.2 186.4L232.5 185.3ZM227.4 189.8L224.6 190.3L224.4 186.8L227.4 186V189.8ZM222 90.5C221.7 91.1 219.8 98.6 219.8 98.6C219.3 99.4 218.4 99.8 217.5 99.7C215.9 99.6 215.2 97.2 215.2 97.2L218.1 87.8L222 90.5Z" fill="#FAD7C8"/>
<path d="M211.9 85.8C211.9 91 217.4 96.7 222.6 96.7C227.8 96.7 230.7 91 230.7 85.8C230.9 80.6 226.8 76.3 221.6 76.1C216.4 75.9 212.1 80 211.9 85.2V85.8Z" fill="#FAD7C8"/>
<path d="M210.9 86.6C210.9 92.4 221 99.2 223.6 98.7C226.4 98.3 232 92.4 232 86.6C232.2 80.8 227.6 75.9 221.8 75.7C216 75.5 211.1 80.1 210.9 85.9V86.6Z" fill="#FAD7C8"/>
<path d="M232 85.3C232 85.3 232 85.4 231.9 85.5C230.1 86.8 227.8 87.4 225.5 87C223.2 86.6 219.1 86.5 217.9 84.5C217.8 84.3 219.5 85 219.3 85.8C219.2 86.8 218.7 87.7 218.1 88.5C218 88.6 217.8 88.6 217.7 88.5C217.7 88.5 217.6 88.4 217.6 88.3C217.6 87.6 217.4 87 217.1 86.4C216.7 85.6 215.8 85.3 215 85.5C214.4 85.7 214.1 86.3 214 86.9C213.9 87.5 214 88.1 214.3 88.6C214.6 89.3 215 90 215.5 90.6C215.6 90.7 215.6 90.9 215.5 91H215.4C214.3 91.2 213.2 91.2 212.2 91.2C212.1 91.2 212 91.1 212 91C211.3 89.6 211 88.1 211 86.6C211 85.2 209.8 75 217.9 73.7C232.8 71.2 234 83.2 232 85.3Z" fill="#1A3C47"/>
<path d="M212.4 88.3C212.4 90.1 213.8 91.5 215.6 91.5C217.4 91.5 218.8 90.1 218.8 88.3C218.8 86.5 217.4 85.1 215.6 85.1C213.9 85.1 212.4 86.6 212.4 88.3ZM231.4 90.2C231.3 92.1 231.1 93.9 230.6 95.7L229 95.1L228.3 94.7L231.4 90.2Z" fill="#FAD7C8"/>
<path d="M220.4 97.8L216.4 95.1L219.4 99.1L220.4 97.8Z" fill="#E6AA87"/>
</svg>
