<svg width="675" height="228" viewBox="0 0 675 228" fill="none" xmlns="http://www.w3.org/2000/svg">
<path d="M21.1009 74.3082C21.1009 74.3082 114.03 26.9675 214.726 67.3235C315.421 107.679 352.178 45.8521 430.612 45.8521C509.046 45.8521 507.234 3.16785 567.806 63.7018C628.378 124.236 652.711 88.5362 671.09 119.838C689.468 151.14 632.261 228.23 525.095 180.889C417.928 133.549 343.377 211.415 285.393 185.287C227.41 159.159 237.505 145.707 179.003 181.407C120.243 217.106 32.2317 243.234 24.7249 216.33C16.7004 189.685 21.1009 74.3082 21.1009 74.3082Z" fill="#F1F1F9"/>
<path d="M143.54 113.888C142.246 112.336 139.916 111.301 137.328 111.301C134.998 111.301 132.927 112.336 131.633 113.629C130.856 112.077 130.338 110.266 129.562 108.714C131.374 109.232 133.704 109.232 136.033 108.197C139.14 106.903 141.469 104.575 142.246 102.247C140.175 100.953 137.069 100.695 133.962 101.988C131.633 103.023 129.562 104.575 128.526 106.386C128.009 105.093 127.491 104.058 126.973 102.764C129.821 102.764 132.927 101.212 135.516 98.3665C138.104 95.2622 139.398 91.3818 138.881 88.2775C136.033 88.0188 132.668 89.571 130.08 92.6753C127.75 95.5209 126.456 98.8839 126.714 101.729C125.161 98.3665 123.349 95.0035 121.537 91.6405C124.902 91.6405 128.526 89.8297 131.633 86.4667C134.739 82.845 136.033 78.4472 135.516 74.8255C132.15 74.5668 128.268 76.3777 125.161 79.9994C122.314 83.3624 121.02 87.5015 121.278 91.1231C120.502 89.571 119.467 88.0188 118.431 86.4667C117.655 85.1732 116.619 83.8798 115.843 82.5863C118.949 82.3276 122.314 80.5168 125.161 77.4125C128.268 73.7908 129.562 69.393 129.044 65.7713C125.679 65.5126 121.796 67.3235 118.69 70.9452C116.101 74.0495 114.807 77.6712 114.807 80.7755C113.254 78.4472 111.442 76.119 109.889 73.7907C113.513 72.756 116.878 69.6517 119.208 64.9952C121.537 60.0801 121.796 54.9062 120.502 51.0259C116.878 51.8019 112.995 55.1649 110.665 59.8214C108.595 63.9605 108.077 68.6169 108.853 71.9799C108.853 71.7212 108.595 71.7212 108.595 71.4625C106.524 68.8756 104.712 66.5474 102.641 64.2191C106.006 62.4083 108.853 58.2692 109.889 52.8367C110.924 47.4042 110.148 42.2303 107.818 39.126C104.453 40.9369 101.605 45.0759 100.311 50.5084C99.2757 55.4236 100.052 60.3388 102.123 63.7018C100.57 61.8909 98.758 60.0801 97.2048 58.2692C95.3928 56.4584 93.5809 54.6475 92.0277 52.8367C95.3928 51.0259 97.9814 46.8868 99.0168 41.7129C100.052 36.2804 99.2757 31.1065 96.946 28.0022C93.5809 29.8131 90.7334 33.9522 89.4392 39.3847C88.4037 44.0412 89.1803 48.6976 90.7334 51.8019C88.6626 49.7324 86.5917 47.9215 84.262 46.1107C83.4855 45.3346 82.45 44.8172 81.6735 44.0411C84.262 41.1955 85.8152 36.5391 85.5563 31.3652C85.2974 25.9327 83.2266 21.0176 80.1203 18.6893C77.2729 21.2763 75.4609 26.1914 75.7198 31.8826C75.9786 35.763 77.014 39.3847 78.826 41.9716C76.2375 40.1608 73.9078 38.0912 71.3192 36.5391C71.0603 32.4 68.4718 28.0023 64.5889 24.8979C60.4472 21.5349 55.7878 20.5002 52.1638 21.5349C52.4227 25.674 54.7524 30.3305 58.8941 33.4348C63.0358 36.5391 67.6952 37.8325 71.3192 36.7978L79.8615 43.0064C76.7552 41.7129 72.6135 41.4542 68.7306 42.7477C63.8124 44.5585 60.1884 47.9215 58.8941 51.8019C62.0004 54.1301 66.9186 54.6475 71.8369 52.8367C76.4963 51.2845 80.1203 47.9215 81.4146 44.0411C82.1912 44.8172 83.2266 45.5933 84.0032 46.1107C86.3329 48.1802 88.4037 49.9911 90.4746 52.0606C87.3683 50.5085 82.9677 49.9911 78.5672 51.5432C73.6489 53.3541 70.0249 56.7171 68.7306 60.5975C71.8369 62.9257 76.7552 63.4431 81.6735 61.6322C86.3329 60.0801 89.9569 56.7171 91.2511 52.8367C93.0631 54.6475 94.6163 56.4584 96.4283 58.2692C97.9814 59.8214 99.2757 61.6322 100.829 63.1844C97.7226 61.6322 93.5809 61.3735 89.1803 62.9257C84.262 64.7365 80.638 68.0995 79.3438 71.9799C82.45 74.3081 87.3683 74.8255 92.2866 73.0147C96.946 71.4625 100.311 68.0995 101.864 64.4778C103.935 66.8061 105.747 69.393 107.559 71.7212C107.559 71.7212 107.559 71.9799 107.818 71.9799C105.488 71.2038 102.382 71.2038 99.5346 72.2386C95.6517 73.5321 92.8043 76.3777 91.51 79.482C94.0986 81.2928 97.9814 81.8102 101.864 80.258C105.229 78.9646 107.818 76.6364 109.371 74.0494C110.924 76.119 112.477 78.4472 113.772 80.5168C111.701 79.7407 109.371 79.7407 107.041 80.5168C103.935 81.5515 101.605 83.8798 100.57 86.4667C102.641 88.0188 106.006 88.5362 109.112 87.2428C111.96 86.208 114.031 84.3971 115.066 82.0689L117.396 85.9493C118.172 87.2428 118.949 88.2775 119.467 89.571C117.396 88.5362 114.807 88.5362 112.219 89.3123C109.112 90.347 106.783 92.6753 105.747 95.2622C107.818 96.8143 111.183 97.3317 114.289 96.0383C117.137 95.0035 119.208 93.1927 120.243 90.8644C122.055 93.9687 123.608 97.3317 125.161 100.695C123.349 99.66 121.02 99.1426 118.431 99.4013C115.325 99.9187 112.736 101.471 111.701 103.54C113.513 105.092 116.36 106.127 119.467 105.61C122.314 105.092 124.644 103.799 125.938 101.988C126.714 103.54 127.232 104.834 128.009 106.386C126.197 105.869 123.608 106.386 121.537 107.938C119.208 109.49 117.913 112.077 117.655 114.147C119.467 114.664 122.314 114.405 124.385 112.595C126.456 111.042 128.009 108.973 128.268 106.903C129.044 108.973 130.08 111.042 130.856 113.112C129.303 113.112 127.75 113.888 126.197 115.181C124.644 116.734 123.867 118.803 124.126 120.355C125.679 120.614 127.491 119.838 129.044 118.286C130.338 116.992 131.115 115.182 131.115 113.629C131.633 114.923 132.15 116.216 132.409 117.51C131.374 117.251 130.338 117.768 129.303 118.803C128.268 119.838 128.009 121.131 128.009 122.166C129.044 122.425 130.338 121.908 131.115 120.873C131.892 120.097 132.409 118.803 132.409 117.768V118.027C132.668 118.803 132.927 119.838 133.186 120.614C132.15 120.614 131.374 120.873 130.597 121.907C129.562 122.942 129.303 124.236 129.303 125.271C130.338 125.529 131.633 125.012 132.409 123.977C132.927 123.201 133.445 122.425 133.445 121.649C135.257 127.599 137.069 131.22 138.363 137.429H140.693C138.881 129.668 136.81 124.494 134.221 116.992C133.704 115.44 133.186 113.888 132.409 112.595C133.704 113.629 135.774 114.405 137.845 114.405C140.175 116.734 142.246 115.44 143.54 113.888Z" fill="#C9C6E4"/>
<path d="M143.023 64.4778C140.693 65.2539 138.622 66.806 137.845 68.6169C137.328 66.03 136.551 63.4431 136.033 60.5975C138.104 60.8561 140.693 59.5627 142.764 57.4932C144.835 55.4236 145.611 52.8367 145.352 50.5084C143.281 50.2497 140.693 51.5432 138.622 53.6128C136.551 55.6823 135.775 58.2692 136.033 60.5975C135.257 57.4931 134.221 54.3888 133.186 51.2845C135.257 51.2845 137.845 50.2498 139.657 48.1802C141.728 46.1107 142.505 43.5238 142.246 41.1955C140.175 40.9368 137.587 42.2303 135.516 44.2998C133.704 46.1107 132.927 48.4389 132.927 50.2498C132.668 49.7324 132.668 49.215 132.409 48.6976C131.892 46.8868 131.115 44.8172 130.339 43.0064C132.409 43.0064 134.998 41.9716 136.81 39.9021C138.881 37.8325 139.657 35.2456 139.399 32.9174C137.328 32.6587 134.739 33.9522 132.668 36.0217C130.856 38.0912 129.821 40.4195 130.08 42.489C129.562 40.6782 128.785 38.8673 128.009 37.3152C129.821 35.2456 130.597 31.8826 130.08 28.2609C129.562 24.6392 127.75 21.5349 125.161 20.2415C123.349 22.311 122.314 25.674 122.832 29.2957C123.349 32.6587 125.161 35.5043 127.232 37.0564C128.009 38.8673 128.527 40.4194 129.044 42.2303C128.009 40.9368 126.197 39.6434 124.126 39.126C121.279 38.3499 118.69 38.6086 116.878 39.6434C117.655 41.7129 119.725 43.5238 122.573 44.2998C125.161 45.0759 127.75 44.8172 129.562 43.7825C130.08 45.3346 130.597 47.1454 131.115 48.6976C131.374 49.4737 131.633 49.9911 131.633 50.7671C130.597 48.9563 128.785 47.6628 126.456 46.8868C123.608 46.1107 121.02 46.3694 119.208 47.4041C119.984 49.4737 122.055 51.2845 124.903 52.0606C127.491 52.8367 130.339 52.578 132.151 51.5432C132.927 54.3888 133.704 56.9758 134.48 59.8214C133.445 58.2692 131.633 56.9757 129.562 56.4584C126.715 55.6823 124.126 55.941 122.314 56.9757C123.091 59.0453 125.161 60.8561 128.009 61.6322C130.597 62.4083 133.186 62.1496 134.998 61.1148C135.516 63.7018 136.292 66.03 136.81 68.6169C135.775 67.0647 133.963 65.7713 131.633 64.9952C128.785 64.2191 126.197 64.4778 124.385 65.5126C125.161 67.5821 127.232 69.393 130.08 70.1691C132.668 70.9451 135.257 70.6865 137.069 69.6517C138.104 74.5668 138.881 79.7407 139.657 84.6558C140.175 88.7949 140.693 92.934 140.952 97.073C141.21 101.212 141.469 105.351 141.469 109.49C141.469 115.958 141.211 122.425 140.434 128.634H142.246C143.022 122.166 143.281 115.699 143.023 109.49C143.023 105.351 142.764 101.212 142.246 97.073C141.987 92.934 141.469 88.7949 140.693 84.6558C139.916 79.482 138.881 74.3082 137.845 69.1343C139.657 70.1691 142.246 70.1691 144.576 69.393C147.423 68.3582 149.494 66.5474 150.27 64.4778C148.458 63.7018 145.611 63.4431 143.023 64.4778Z" fill="#E4E2F2"/>
<path d="M334.058 77.4125C334.058 77.4125 334.576 81.8102 333.8 82.845C333.8 82.845 335.87 82.3276 336.388 81.5515C336.906 80.7754 334.058 77.4125 334.058 77.4125Z" fill="#17202E"/>
<path d="M321.116 90.8644L320.339 90.347H319.304C318.786 90.347 318.268 90.6057 318.268 90.8644V91.1231C318.268 91.3818 318.527 91.3818 318.527 91.3818V91.8992C318.527 91.8992 318.527 92.1579 318.786 92.4166V92.6753H319.304C319.562 92.6753 320.339 92.6753 321.116 92.4166C320.857 92.4166 321.633 92.1579 321.116 90.8644Z" fill="#E9B89F"/>
<path d="M319.822 91.3818L320.08 91.8992L319.563 92.6753C319.563 92.6753 319.304 91.6405 319.822 91.3818Z" fill="#E6AA86"/>
<path d="M321.375 91.1231C321.375 91.1231 320.857 91.1231 320.598 90.8644C320.339 90.6057 320.598 92.4166 320.598 92.4166C320.598 92.4166 321.375 91.8992 321.892 91.8992C322.41 91.8992 321.375 91.1231 321.375 91.1231Z" fill="#EEA886"/>
<path d="M341.307 134.325C341.307 134.325 339.753 136.394 339.236 136.912C339.236 136.912 338.2 137.429 338.2 137.946C338.2 138.722 338.2 139.24 339.495 139.24C340.789 139.24 341.824 139.24 342.083 138.464C342.342 137.688 342.86 136.912 342.86 136.912V138.981H343.119C343.119 138.981 343.377 136.912 343.377 136.394C343.377 136.136 343.636 134.842 342.86 134.325C342.083 134.066 341.307 134.325 341.307 134.325Z" fill="#042A33"/>
<path d="M338.977 137.17C338.977 137.17 339.753 137.429 340.53 137.17C341.307 136.912 342.342 134.842 342.601 134.583L342.86 133.807H341.048C341.048 133.807 341.048 134.325 340.789 135.101C340.53 135.36 338.977 137.17 338.977 137.17Z" fill="#FAD7C9"/>
<path d="M331.47 133.549C331.47 133.549 331.211 134.066 330.693 134.583C330.434 135.101 329.399 136.653 328.881 136.653C328.364 136.653 327.069 136.912 327.069 137.688C327.069 138.464 326.81 138.981 328.105 138.981C329.399 138.981 330.176 139.24 330.952 138.205C331.47 137.17 332.505 136.653 332.505 136.653V138.981H333.023L333.282 136.394C333.541 136.136 333.8 134.325 332.505 133.29C331.729 132.514 331.47 133.549 331.47 133.549Z" fill="#042A33"/>
<path d="M329.14 136.653C329.14 136.653 330.176 136.912 330.693 136.653C331.211 136.394 332.764 133.807 333.023 133.549C333.023 133.549 332.505 132.514 331.211 133.29C331.47 133.549 329.658 136.394 329.14 136.653Z" fill="#FAD7C9"/>
<path d="M341.824 98.1078C341.824 98.1078 343.378 100.177 343.895 102.764C344.413 105.351 343.636 113.629 343.636 114.923C343.636 116.216 344.672 120.097 344.413 122.425C344.154 124.753 342.86 134.583 342.86 134.583H340.012C340.012 134.583 340.53 123.977 340.53 122.942C340.271 121.907 340.012 117.768 339.754 117.251C339.754 116.734 336.647 106.127 336.647 104.316C336.647 102.506 337.942 95.0035 341.824 98.1078Z" fill="#649FCB"/>
<path d="M333.8 98.884C333.8 98.884 331.211 109.232 330.693 110.525C330.434 111.819 329.658 113.888 329.658 114.147C329.658 114.405 329.917 118.803 329.917 118.803L330.693 133.807H333.541C333.541 133.807 334.576 124.236 334.576 122.425C334.835 120.614 333.541 117.51 333.8 116.734C334.058 115.958 338.459 106.645 338.459 106.645C338.459 106.645 342.083 95.7797 333.8 98.884Z" fill="#649FCB"/>
<path d="M334.576 83.6211C334.576 83.6211 333.541 83.6211 332.764 84.6559C331.988 85.432 331.211 86.9841 330.952 87.5015C330.693 88.0189 327.846 92.1579 327.587 92.4166C327.328 92.4166 326.034 92.1579 324.998 92.1579C323.186 91.8992 320.857 91.1232 320.857 91.1232L320.598 92.934C320.598 92.934 326.81 95.0035 328.364 94.4861C330.176 93.9688 334.317 88.7949 334.317 88.7949C334.317 88.7949 336.906 85.1732 334.576 83.6211Z" fill="white"/>
<path d="M336.388 82.845C336.388 82.845 335.094 83.6211 334.576 83.6211C334.059 83.6211 332.247 86.208 331.988 86.9841C331.729 87.7601 331.988 89.3123 332.764 90.8644C333.541 92.4166 332.764 92.934 333.023 94.4861C333.282 96.0383 333.282 100.436 333.282 101.212C333.282 101.988 342.342 103.799 344.154 102.247C344.154 102.247 342.86 98.3665 341.565 96.8144C341.307 96.5557 341.307 94.2275 341.565 93.7101C341.824 93.1927 344.154 89.0536 344.154 89.0536C344.154 89.0536 344.413 84.9145 343.377 84.1384C342.342 83.3624 340.012 83.1037 339.495 83.1037C338.718 82.5863 337.424 82.5863 336.388 82.845Z" fill="white"/>
<path d="M335.871 85.9494L335.094 84.9146L335.871 82.3276C335.871 82.3276 336.129 83.6211 335.871 85.9494Z" fill="#C5CFD6"/>
<path d="M341.306 83.6211C341.306 83.6211 343.118 83.1037 344.154 85.1733C345.189 86.9841 344.93 88.0189 345.189 89.0536C345.448 89.8297 346.225 95.7796 346.484 96.0383C346.484 96.297 347.519 99.1427 347.26 100.177C347.26 101.212 346.225 107.938 346.225 108.197C346.225 108.456 344.672 107.938 344.672 107.938V100.436C344.672 99.9187 344.672 96.8144 344.154 96.0383C343.636 95.2623 342.601 90.3471 342.342 90.0884C342.083 89.0536 339.753 84.1385 341.306 83.6211Z" fill="#EEA886"/>
<path d="M335.871 81.2928C335.871 81.2928 336.129 83.8797 336.129 84.6558C336.129 84.6558 337.683 86.2079 339.236 82.8449C339.236 82.8449 338.459 81.5515 338.977 79.7406C339.495 77.9298 335.871 81.2928 335.871 81.2928Z" fill="#E9B89F"/>
<path d="M335.871 84.6558V85.9492L337.424 84.3971L335.871 84.6558Z" fill="#E9B89F"/>
<path d="M335.871 85.9493L336.647 84.9145L338.977 82.5863L339.753 83.1037L335.871 85.9493Z" fill="#D2C1BB"/>
<path d="M335.094 84.9146L334.059 85.1733L335.871 82.3276L335.094 84.9146ZM336.647 84.9146L337.683 86.4667L340.012 83.1037L338.977 82.5863L336.647 84.9146ZM331.729 91.3818C331.729 91.3818 331.47 89.0536 331.729 87.7602C331.729 87.7602 331.988 88.7949 332.506 90.6058L331.729 91.3818ZM342.601 91.1232C342.601 91.1232 341.566 88.0189 341.566 87.7602C341.566 87.7602 341.565 90.6058 342.083 92.1579C341.824 91.8992 342.342 91.3819 342.601 91.1232Z" fill="#C5CFD6"/>
<path d="M318.268 90.8645H319.562V91.1232L320.08 91.3819C320.08 91.3819 320.339 91.6406 319.821 91.8992C319.821 91.8992 320.08 92.158 319.562 92.4167V92.6753C319.304 92.6753 318.527 92.934 318.527 92.934C318.527 92.934 318.268 92.934 318.527 92.6753C318.527 92.6753 318.268 92.4166 318.268 92.1579C318.268 92.1579 318.009 91.8993 318.268 91.6406C318.268 91.3819 317.75 91.1232 318.268 90.8645C318.268 90.8645 318.009 90.8645 318.268 90.8645Z" fill="#FAD7C9"/>
<path d="M320.08 90.347C320.08 90.347 319.304 90.8644 319.045 91.1231V91.3818H319.563C319.821 91.1231 320.339 91.1231 320.339 91.1231C320.339 91.1231 320.598 90.8644 320.08 90.347Z" fill="#EEA886"/>
<path d="M336.906 72.4973C336.906 72.4973 334.317 72.4973 333.8 75.3429C333.282 78.4473 334.317 81.0342 334.835 81.5516C335.353 82.0689 337.941 81.5516 338.459 79.9994C338.977 78.4473 340.012 77.1538 339.753 75.8603C339.753 74.5669 340.012 72.4973 336.906 72.4973Z" fill="#E9B89F"/>
<path d="M333.8 76.6364C333.8 76.6364 333.023 72.756 336.388 72.2386C339.753 71.4625 341.048 73.7908 341.306 75.3429C341.565 76.6364 341.306 80.5168 341.306 80.5168C341.306 80.5168 338.977 82.5863 337.682 83.1037C337.682 83.1037 338.718 78.9646 338.459 75.8603C338.459 75.8603 335.612 76.3777 333.8 75.8603V76.6364Z" fill="#042A33"/>
<path d="M335.871 81.8103C335.871 81.8103 336.647 81.8103 337.941 81.0342C337.941 81.0342 337.165 82.069 335.871 82.5864V81.8103Z" fill="#D1997D"/>
<path d="M349.504 110.217L339.544 108.593L340.752 101.186L350.716 102.816L349.504 110.217Z" fill="#FDE3D5"/>
<path d="M346.484 110.008C346.484 110.008 346.743 109.749 346.743 109.49V108.973V108.714C346.743 108.455 347.001 108.197 346.743 107.938C346.743 107.679 346.225 106.127 346.225 106.127H344.672C344.672 106.127 343.636 107.938 343.636 108.455C343.636 108.714 343.895 108.973 343.895 108.973C343.895 108.973 344.154 109.49 344.154 109.749H344.672C344.672 109.749 345.189 110.008 345.448 109.749C345.448 109.749 345.707 110.008 346.225 109.749C345.966 110.008 346.225 110.266 346.484 110.008Z" fill="#EEA886"/>
<path d="M341.306 83.6211C341.306 83.6211 343.118 83.1037 344.154 85.1733C345.189 86.9841 345.189 88.0189 345.189 88.7949C345.189 89.571 346.484 95.0035 346.484 95.2622C346.484 95.5209 347.001 98.8839 347.001 99.9187C347.001 100.953 346.742 106.903 346.742 107.162C346.742 107.421 343.895 106.645 343.895 106.645C343.895 106.645 344.154 101.212 344.154 100.436C344.154 99.9187 343.895 97.0731 343.636 96.0383C343.377 95.0036 342.083 90.0884 341.824 89.571C341.824 89.0536 339.753 84.1385 341.306 83.6211Z" fill="white"/>
<path d="M300.407 74.5669L299.89 77.4125L296.783 76.6364L298.854 72.4973L300.407 74.5669Z" fill="#E6AA87"/>
<path d="M301.184 75.343C301.443 75.343 301.96 75.6017 301.96 75.343C303.513 74.3082 303.513 69.9104 303.513 69.9104L302.219 68.6169L299.889 69.1344L298.854 71.7213C298.595 72.4974 298.595 73.2734 299.113 73.7908C299.889 74.8256 300.407 75.0843 301.184 75.343Z" fill="#FAD7C9"/>
<path d="M299.89 71.2039C300.148 70.6865 300.407 69.6517 300.925 69.9104C301.184 70.1691 302.219 70.4278 302.737 70.6865C303.513 70.9452 305.325 71.2039 305.843 69.6517C306.102 68.8757 305.584 68.0996 305.325 67.8409C305.067 67.5822 304.549 67.3235 304.031 67.3235C302.996 67.3235 301.443 67.5822 300.925 67.3235C300.148 66.8061 299.113 67.0648 298.854 67.8409C298.595 68.617 298.595 69.9104 298.854 70.9452C298.854 71.4626 299.113 71.9799 299.372 72.4973L299.89 71.2039Z" fill="#042A33"/>
<path d="M298.854 70.9452C299.113 70.9452 299.372 70.9452 299.631 71.2039C299.89 71.4626 299.89 71.7213 299.631 71.98C299.372 72.2387 299.113 71.98 298.854 71.7213C298.595 71.4626 298.595 70.9452 298.854 70.9452Z" fill="#FAD7C9"/>
<path d="M298.336 76.119C292.642 75.8603 292.383 80.7755 291.865 86.208C291.347 92.4166 291.865 99.1426 291.865 99.1426H304.808C304.808 99.1426 304.808 93.4514 304.549 87.7602C304.29 81.8103 304.031 76.3777 298.336 76.119Z" fill="#FFEA80"/>
<path d="M303.772 96.0383C303.772 96.0383 305.067 95.2622 305.584 95.2622C306.102 95.5209 305.584 96.297 305.584 96.297L303.772 96.0383Z" fill="#E6AA87"/>
<path d="M294.712 86.7254L294.195 90.8645L304.031 95.7796L302.996 96.8144C302.996 96.8144 291.865 94.7448 290.312 93.4514C288.759 91.8992 289.794 86.208 289.794 86.208L294.712 86.7254Z" fill="#FAD7C9"/>
<path d="M305.843 93.1927C308.173 92.4166 306.62 84.6559 306.62 84.6559H305.326C305.326 84.6559 303.514 93.9688 305.843 93.1927Z" fill="#E6AA87"/>
<path d="M302.478 96.5556L304.808 98.1078C305.843 98.6252 306.62 97.8491 307.137 96.8143C307.655 96.297 307.137 95.5209 306.361 95.5209C305.584 95.5209 304.549 95.7795 304.031 95.7795L302.478 96.5556Z" fill="#FAD7C9"/>
<path d="M307.137 84.6558L305.584 85.6906C305.584 85.6906 298.854 74.8255 302.219 77.6711C305.584 80.5167 307.137 84.6558 307.137 84.6558Z" fill="#FFEA80"/>
<path d="M299.113 135.36C299.113 135.36 299.113 136.912 302.219 137.946C302.737 138.205 302.737 138.205 302.737 138.723H299.113L297.819 137.17L297.301 137.429L296.265 136.394C296.265 136.394 296.783 134.842 297.56 134.842L299.113 135.36Z" fill="#004254"/>
<path d="M299.89 134.066L299.372 135.359C298.854 135.618 298.337 135.359 297.819 134.842L298.336 133.549L299.89 134.066Z" fill="#FAD7C9"/>
<path d="M289.794 85.9493C289.794 85.9493 291.865 76.119 297.042 76.3777C301.96 76.6364 294.971 86.7254 294.971 86.7254L289.794 85.9493Z" fill="#FFEA80"/>
<path d="M305.843 93.4514C308.949 90.8644 302.737 77.6711 302.737 77.6711L301.184 77.9299C301.184 77.6712 301.443 95.2622 305.843 93.4514Z" fill="#FAD7C9"/>
<path d="M300.407 76.3777V75.6016L297.819 75.0842L296.783 76.119L300.407 76.3777Z" fill="white"/>
<path d="M302.737 77.4124L302.996 74.8255C302.996 74.8255 301.701 72.756 300.407 73.532C300.148 74.0494 300.666 75.0842 300.666 75.0842L301.184 77.6711L302.737 77.4124Z" fill="#FAD7C9"/>
<path d="M304.549 98.884C304.549 98.884 306.361 110.266 305.843 115.44C305.326 120.614 299.631 134.325 299.631 134.325L297.042 133.549C297.042 133.549 296.783 124.494 299.372 118.286C299.89 116.992 299.89 115.44 299.372 114.147C297.301 108.973 296.524 105.351 296.524 105.351L296.783 98.6252H304.549V98.884Z" fill="#042A33"/>
<path d="M300.666 73.7908C300.407 74.3081 300.666 75.6017 300.666 75.6017C300.666 75.343 300.148 74.0495 300.666 73.7908C301.702 73.0147 302.737 74.8256 302.996 74.8256L303.255 75.0842C302.996 75.0842 301.702 73.2734 300.666 73.7908Z" fill="#E6AA87"/>
<path d="M294.453 136.136C294.453 136.136 295.489 137.17 298.077 137.946C298.595 138.205 299.372 137.946 299.372 138.723H296.265L293.677 138.205V138.723H292.383C292.383 138.723 292.124 136.394 292.9 136.136H294.453Z" fill="#042A33"/>
<path d="M293.936 134.583L294.195 136.136C293.677 136.394 292.9 136.394 292.383 136.136L292.641 134.583H293.936Z" fill="#FAD7C9"/>
<path d="M300.666 98.8839L294.712 134.842H292.383C292.383 134.842 290.312 125.012 291.865 117.251C292.124 115.958 292.124 114.405 291.865 113.112C290.312 103.023 291.606 98.8839 291.606 98.8839H300.666Z" fill="#042A33"/>
<path d="M356.061 79.9994L356.32 83.1038H359.168L358.132 78.4473L356.061 79.9994Z" fill="#E6AA87"/>
<path d="M354.767 80.5168C354.508 80.5168 353.99 80.5168 353.99 80.2581C352.955 78.7059 354.249 74.5669 354.249 74.5669L356.061 73.7908L358.132 75.0842V77.9299C358.132 78.7059 357.873 79.482 357.097 79.7407C356.579 80.5168 355.802 80.5168 354.767 80.5168Z" fill="#FAD7C9"/>
<path d="M357.615 76.8951C357.615 76.3777 357.615 75.3429 357.097 75.3429H355.026C353.991 75.3429 352.437 75.0842 352.437 73.5321C352.437 72.756 353.214 72.2386 353.473 71.9799C353.991 71.7212 354.508 71.7212 354.767 71.9799C355.803 72.2386 357.097 73.2734 357.873 73.0147C358.909 72.756 359.685 73.2734 359.685 74.0495C359.685 74.8255 359.168 76.119 358.909 76.8951C358.65 77.4125 358.391 77.6712 357.873 78.1886L357.615 76.8951Z" fill="#042A33"/>
<path d="M358.65 76.8951C358.391 76.6364 358.132 76.6364 357.873 76.8951C357.615 77.1538 357.615 77.4124 357.873 77.6711C358.132 77.9298 358.391 77.9298 358.65 77.6711C358.909 77.4124 358.909 77.1538 358.65 76.8951Z" fill="#FAD7C9"/>
<path d="M348.037 82.3276C348.037 82.0689 347.778 81.8102 347.002 81.0341C346.225 80.5167 344.413 79.7407 345.19 79.2233H347.26C347.778 79.2233 348.555 79.9993 348.814 80.5167L349.59 82.3276C349.59 82.3276 349.072 83.1037 349.072 83.3624H348.555C348.813 82.845 348.296 82.5863 348.037 82.3276Z" fill="#FAD7C9"/>
<path d="M348.037 81.8102H348.296C348.813 82.0689 349.072 82.3276 349.59 82.5863L349.072 83.1037L345.966 82.0689C345.966 82.0689 345.966 81.5515 346.484 81.5515C347.26 81.5515 348.037 81.8102 348.037 81.8102Z" fill="#FAD7C9"/>
<path d="M352.437 88.5362L347.778 84.1384L349.59 81.8102L355.802 84.6558L352.955 89.571L352.437 88.5362Z" fill="#E989A1"/>
<path d="M357.615 81.2928C364.345 79.9994 363.051 101.988 363.051 101.988H352.696C352.696 101.988 352.438 98.1078 352.179 93.1926C351.92 89.0536 354.249 84.3971 357.615 81.2928Z" fill="#E989A1"/>
<path d="M354.249 138.205C354.249 138.205 353.214 139.24 350.884 139.757C350.367 140.016 349.849 139.757 349.849 140.533H352.696L355.026 140.016V140.533H356.32C356.32 140.533 356.579 138.464 355.803 138.205H354.249Z" fill="#042A33"/>
<path d="M354.508 136.653L354.249 138.205C354.767 138.464 355.285 138.464 355.803 138.205L356.061 136.653H354.508Z" fill="#FAD7C9"/>
<path d="M339.236 88.0188C338.977 88.0188 338.718 88.0189 337.683 87.2428C336.906 86.7254 335.871 84.9146 335.612 85.9493L336.13 88.0188C336.388 88.5362 337.165 89.0536 337.942 89.3123L340.012 89.8297L340.789 89.3123L340.53 89.0536C340.012 88.7949 339.754 88.5362 339.236 88.0188Z" fill="#FAD7C9"/>
<path d="M338.718 88.2776V88.5363L339.754 89.5711L340.271 89.0537L338.459 86.4668C338.459 86.4668 337.942 86.4668 338.201 87.2429L338.718 88.2776Z" fill="#FAD7C9"/>
<path d="M364.345 136.136C364.345 136.136 363.309 137.17 360.98 137.688C360.462 137.946 359.944 137.688 359.944 138.464H362.792L365.121 137.946V138.464H366.416C366.416 138.464 366.675 136.394 365.898 136.136H364.345Z" fill="#042A33"/>
<path d="M364.604 134.583L364.345 136.136C364.862 136.394 365.38 136.394 365.898 136.136L366.157 134.583H364.604Z" fill="#FAD7C9"/>
<path d="M363.309 101.729C363.309 101.729 362.533 106.127 363.309 115.44C363.568 116.992 363.827 118.545 364.345 120.097C366.416 125.27 366.675 134.842 366.675 134.842H364.345L356.061 111.56L363.309 101.729Z" fill="#042A33"/>
<path d="M359.168 88.5363C359.168 88.5363 357.356 95.2622 352.437 96.0383C347.519 96.8144 339.495 90.3471 339.495 90.3471L340.271 88.5363L348.813 90.8645C350.108 91.1232 351.402 90.6058 352.179 89.571L354.767 84.9146L359.168 88.5363Z" fill="#E989A1"/>
<path d="M352.696 101.729L354.249 136.912H356.32C356.32 136.912 358.65 128.634 358.391 122.166C358.391 120.097 358.65 118.027 359.426 116.216C362.533 108.456 363.05 101.729 363.05 101.729H352.696Z" fill="#042A33"/>
<path d="M334.576 84.6559L342.083 90.3472L350.625 83.6211L343.636 78.4473L334.576 84.6559Z" fill="#F7AC6F"/>
<path d="M344.413 91.6405C344.413 90.8644 344.672 90.347 344.931 89.5709L340.271 88.2775L339.495 90.0883C339.495 90.0883 341.824 91.8992 344.672 93.4513C344.413 92.9339 344.413 92.4166 344.413 91.6405Z" fill="#E989A1"/>
<path d="M338.2 89.571L339.753 89.8297C340.012 89.571 340.012 89.0536 340.271 88.7949C340.012 88.5362 339.753 88.5363 339.236 88.2776C338.977 88.2776 338.718 88.2775 337.682 87.5015C337.941 88.0189 337.941 88.7949 337.941 89.3123C338.2 89.3123 338.2 89.3123 338.2 89.571Z" fill="#FAD7C9"/>
<path d="M340.271 88.7949L338.718 86.208C338.718 86.208 338.2 86.208 338.459 86.9841C338.718 87.7602 338.977 88.0188 338.977 88.0188H338.718C338.718 88.0188 338.718 88.2775 338.977 88.2775C339.236 88.5362 339.494 89.0536 340.012 89.3123C340.012 89.3123 340.012 89.0536 340.271 88.7949Z" fill="#FAD7C9"/>
<path d="M347.519 80.7754C348.037 81.2928 348.037 81.5514 348.037 81.5514L348.554 82.0688V81.5514C348.296 81.5514 347.778 81.2928 347.519 80.7754Z" fill="#FAD7C9"/>
<path d="M347.778 81.0341C347.519 81.0341 347.26 80.7754 346.743 80.7754C345.966 80.7754 346.225 81.2928 346.225 81.2928L348.555 82.0688V81.5514C348.296 81.5514 348.037 81.2927 347.778 81.0341Z" fill="#FAD7C9"/>
<path d="M356.061 82.845V81.2928L358.65 80.2581L359.427 81.5515L356.061 82.845Z" fill="white"/>
<path d="M308.432 136.912L308.173 135.101C308.173 135.101 310.503 135.101 310.762 135.36L310.503 136.912C310.503 137.17 308.432 136.912 308.432 136.912Z" fill="#5D554E"/>
<path d="M312.315 140.533C309.467 140.533 307.914 140.792 307.655 140.275C307.396 139.757 308.173 136.912 308.173 136.912C308.173 136.912 308.949 137.17 310.503 136.912L311.797 138.205C312.573 138.464 313.609 138.722 314.127 139.24C314.644 139.24 315.421 140.533 312.315 140.533Z" fill="white"/>
<path d="M324.481 136.912L324.222 135.101C324.222 135.101 326.552 135.101 326.811 135.36L326.552 136.912C326.811 137.17 324.481 136.912 324.481 136.912Z" fill="#5D554E"/>
<path d="M328.623 140.533C325.775 140.533 324.222 140.792 323.963 140.275C323.704 139.757 324.481 136.912 324.481 136.912C324.481 136.912 324.999 137.17 326.811 136.912L328.105 138.205C328.882 138.464 331.47 138.981 331.729 139.24C332.247 139.498 332.764 140.533 328.623 140.533Z" fill="white"/>
<path d="M311.538 97.8491C311.538 97.8491 310.244 101.471 310.502 104.575C310.761 107.679 309.985 111.042 309.467 114.405C309.208 118.027 307.655 126.564 307.655 128.375C307.655 130.186 307.914 136.394 307.914 136.394H310.761C310.761 136.394 313.35 121.39 313.868 119.838C314.385 118.286 317.75 107.421 317.75 106.127C318.009 105.351 311.538 97.8491 311.538 97.8491Z" fill="#042A33"/>
<path d="M323.963 98.6251C323.963 98.6251 325.516 107.162 325.775 108.973C326.034 110.784 326.034 118.027 326.293 119.321C326.293 120.614 327.069 134.842 327.587 136.653H323.963C323.963 136.653 321.116 126.305 321.116 121.39C321.116 116.475 318.786 110.784 317.492 107.421C315.938 104.058 312.832 104.058 311.797 98.1078C311.538 97.8491 322.669 96.5556 323.963 98.6251Z" fill="#042A33"/>
<path d="M316.456 69.6516C316.456 69.6516 319.304 68.6169 320.857 70.6864C322.151 73.0146 322.151 77.4124 320.598 77.9298C319.045 78.4472 316.974 78.1885 316.197 76.895C315.421 75.6016 314.644 73.532 314.903 71.9799C314.644 70.6864 315.68 69.9103 316.456 69.6516Z" fill="#E9B89F"/>
<path d="M319.822 77.9299V78.9647C320.08 79.2234 316.198 79.4821 316.198 79.4821C316.198 79.4821 315.939 77.4125 315.162 75.6017C314.644 73.7908 319.822 77.9299 319.822 77.9299Z" fill="#E9B89F"/>
<path d="M315.421 75.6016C315.421 75.6016 315.68 76.119 316.715 75.8603C317.751 75.6016 319.045 74.3081 319.562 74.0494C320.08 73.7907 320.08 73.5321 320.08 73.5321L320.339 74.0494H320.857C320.857 74.0494 320.339 72.756 321.116 72.2386C321.892 71.7212 320.339 68.0995 316.974 69.1343C316.974 69.1343 314.385 69.6516 314.385 71.2038C314.126 73.0146 314.644 74.8255 315.421 75.6016Z" fill="#042A33"/>
<path d="M320.339 78.9646C320.339 78.9646 320.339 78.1886 320.08 78.1886C319.822 78.1886 316.456 77.6712 315.939 77.9299V78.7059C315.939 78.7059 316.715 79.2233 320.339 78.9646Z" fill="white"/>
<path d="M320.08 73.0147C320.08 72.756 319.304 71.9799 319.045 72.756C318.786 73.532 319.304 74.5668 319.821 74.5668C320.08 74.5668 320.08 73.7907 320.08 73.0147Z" fill="#E9B89F"/>
<path d="M320.339 78.9646C320.339 78.9646 322.151 79.7407 324.222 80.5168C324.222 80.5168 326.552 81.2928 326.811 84.1385C327.07 85.4319 328.364 93.1927 328.623 93.7101C328.882 94.2275 332.247 104.575 332.247 104.834C332.247 105.093 329.399 106.127 329.399 106.127C329.14 106.127 326.034 96.8144 325.775 96.0383C325.775 96.0383 323.963 90.6058 323.963 89.571C323.963 89.571 323.963 91.8992 323.704 92.6753C323.704 93.4514 325.258 106.127 325.258 106.645C325.258 106.903 317.751 107.421 314.644 107.162C311.538 106.903 309.208 106.127 309.208 106.127C309.208 106.127 311.538 96.0383 311.538 95.0036C311.279 92.6753 310.503 88.0188 310.503 88.0188L308.173 92.6753L311.279 100.695L310.503 103.023C310.503 103.023 304.808 94.2275 304.549 93.4514C304.29 92.6753 304.808 91.6405 305.067 90.8645C305.326 90.0884 307.396 85.1732 307.914 84.3972C308.432 83.6211 309.208 80.7755 311.02 79.9994C312.574 79.2233 315.421 78.7059 315.421 78.7059L320.339 78.9646Z" fill="#7874B5"/>
<path d="M338.029 105.951L324.238 109.485L321.794 99.9627L335.586 96.429L338.029 105.951Z" fill="#FDE3D5"/>
<path d="M333.8 106.903C333.8 106.903 334.317 107.421 334.317 107.679C334.576 107.938 334.058 107.938 333.8 107.679C333.541 107.679 333.8 106.903 333.8 106.903Z" fill="#CA8463"/>
<path d="M330.952 108.973C330.952 108.973 330.693 108.714 330.693 108.455C330.693 108.455 330.693 108.197 330.434 107.938V107.679C330.434 107.421 330.176 107.162 330.176 106.903C330.176 106.386 329.917 104.834 329.917 104.834L330.952 104.575L331.729 104.316C331.729 104.316 333.541 106.127 333.541 106.386V107.162C333.541 107.162 333.541 107.938 333.282 107.938C333.023 108.197 332.764 108.197 332.764 108.197C332.764 108.197 332.246 108.455 331.988 108.455C331.988 108.455 331.729 108.714 331.211 108.714C331.47 108.973 331.211 109.232 330.952 108.973Z" fill="#DE9E7E"/>
<path d="M326.811 97.8491C326.811 97.8491 329.14 105.093 329.658 105.869C329.658 105.869 331.47 105.61 332.505 104.575L329.917 96.5557L326.811 97.8491Z" fill="#7874B5"/>
<path d="M581.525 137.429C581.525 137.429 584.114 135.877 584.114 134.583H586.443V137.947L581.525 137.429Z" fill="white"/>
<path d="M591.103 137.429C591.103 137.429 588.514 135.877 588.514 134.583H586.185V137.947L591.103 137.429Z" fill="white"/>
<path d="M591.879 139.24C591.879 139.499 591.621 139.757 591.362 139.757H581.266C581.007 139.757 580.749 139.499 580.749 139.24V137.946C580.749 137.688 581.007 137.429 581.266 137.429H591.362C591.621 137.429 591.879 137.688 591.879 137.946V139.24ZM587.997 134.583H584.631L585.149 91.1232H587.479L587.997 134.583Z" fill="white"/>
<path d="M589.291 134.842C589.291 135.101 589.032 135.36 588.773 135.36H584.114C583.855 135.36 583.596 135.101 583.596 134.842V134.325C583.596 134.066 583.855 133.807 584.114 133.807H588.773C589.032 133.807 589.291 134.066 589.291 134.325V134.842ZM586.961 92.934H585.667V86.208C585.667 82.5863 588.773 79.4821 592.397 79.4821C596.021 79.4821 599.128 82.5863 599.128 86.208V88.2776H597.833V86.208C597.833 83.3624 595.504 80.7755 592.397 80.7755C589.55 80.7755 586.961 83.1037 586.961 86.208V92.934Z" fill="white"/>
<path d="M586.961 92.934H585.667V86.208C585.667 83.3624 583.337 80.7755 580.231 80.7755C577.383 80.7755 574.795 83.1037 574.795 86.208V88.2776H573.501V86.208C573.501 82.5863 576.607 79.4821 580.231 79.4821C583.855 79.4821 586.961 82.5863 586.961 86.208V92.934Z" fill="white"/>
<path d="M584.373 90.6057C584.373 90.6057 585.408 89.8297 585.408 89.0536H586.444V90.8644L584.373 90.6057Z" fill="white"/>
<path d="M588.256 90.6057C588.256 90.6057 587.22 89.8297 587.22 89.0536H586.185V90.8644L588.256 90.6057Z" fill="white"/>
<path d="M588.256 88.795C588.256 88.5363 587.997 88.2776 587.738 88.2776H584.891C584.632 88.2776 584.373 88.5363 584.373 88.795V89.0537C584.373 89.3124 584.632 89.5711 584.891 89.5711H587.738C587.997 89.5711 588.256 89.3124 588.256 88.795Z" fill="white"/>
<path d="M601.975 91.1232C601.975 93.1927 600.422 94.7449 598.351 94.7449C596.28 94.7449 594.727 93.1927 594.727 91.1232C594.727 89.0536 596.28 87.5015 598.351 87.5015C600.422 87.5015 601.975 89.0536 601.975 91.1232Z" fill="#FCC658"/>
<path d="M600.94 90.0884C600.94 91.6406 599.645 92.9341 598.092 92.9341C596.539 92.9341 595.245 91.6406 595.245 90.0884C595.245 88.5362 596.539 87.2428 598.092 87.2428C599.645 87.2428 600.94 88.5362 600.94 90.0884Z" fill="#FFE664"/>
<path d="M589.291 91.3819C589.291 91.6406 589.032 91.8993 588.773 91.8993H584.114C583.855 91.8993 583.596 91.6406 583.596 91.3819V90.8646C583.596 90.6059 583.855 90.3472 584.114 90.3472H588.773C589.032 90.3472 589.291 90.6059 589.291 90.8646V91.3819Z" fill="white"/>
<path d="M570.653 91.1232C570.653 93.1927 572.206 94.7449 574.277 94.7449C576.348 94.7449 577.901 93.1927 577.901 91.1232C577.901 89.0536 576.348 87.5015 574.277 87.5015C572.206 87.5015 570.653 89.0536 570.653 91.1232Z" fill="#FCC658"/>
<path d="M571.689 90.0884C571.689 91.6406 572.983 92.9341 574.536 92.9341C576.089 92.9341 577.384 91.6406 577.384 90.0884C577.384 88.5362 576.089 87.2428 574.536 87.2428C572.724 87.5015 571.689 88.5362 571.689 90.0884Z" fill="#FFE664"/>
<path d="M599.645 87.2428C599.645 86.9841 599.386 86.7253 599.127 86.7253H597.315C597.057 86.7253 596.798 86.9841 596.798 87.2428V87.5014C596.798 87.7601 597.057 88.0188 597.315 88.0188H599.127C599.386 87.7601 599.645 87.5015 599.645 87.2428ZM572.983 87.2428C572.983 86.9841 573.242 86.7253 573.501 86.7253H575.313C575.571 86.7253 575.83 86.9841 575.83 87.2428V87.5014C575.83 87.7601 575.571 88.0188 575.313 88.0188H573.501C573.242 87.7601 572.983 87.5015 572.983 87.2428Z" fill="white"/>
<path d="M531.126 138.805H507.311V136.477H531.126V138.805ZM488.648 138.787H464.833V137.235H488.648V138.787Z" fill="#F2F5FB"/>
<path d="M91.7687 116.992C91.7687 124.753 95.1338 130.962 99.5344 130.962C103.676 130.962 107.3 124.753 107.3 116.992C107.3 109.232 103.676 96.297 99.2755 96.297C94.875 96.297 91.7687 109.49 91.7687 116.992Z" fill="#F7AC6F"/>
<path d="M94.3574 117.51C94.6162 117.251 94.8751 117.251 94.8751 117.51L98.7579 121.131V114.664L95.9105 110.784V110.525H96.1694L98.4991 113.888V110.266C98.4991 110.008 98.7579 109.749 99.0168 109.749C99.2756 109.749 99.5345 110.008 99.5345 110.266V118.286L102.9 115.182C103.158 114.923 103.417 114.923 103.417 115.182C103.676 115.44 103.676 115.44 103.417 115.699L99.2756 119.321V139.499C99.2756 139.757 99.0168 140.016 98.7579 140.016C98.4991 140.016 98.2402 139.757 98.2402 139.499V122.425L93.8397 118.286C94.0985 118.027 94.0985 117.768 94.3574 117.51Z" fill="#1A3C47"/>
<path d="M224.821 66.5474C223.527 63.7018 223.785 60.5975 224.821 58.7866C226.892 59.5627 229.221 61.6322 230.257 64.4778C231.292 67.3235 231.292 70.1691 230.257 72.2386C231.033 73.7908 231.81 75.6016 232.587 77.1537C232.328 75.3429 232.845 73.2734 233.881 71.2038C235.434 68.6169 237.764 66.8061 240.093 66.2887C240.87 68.3582 240.611 71.4625 239.058 74.0494C237.505 76.6364 235.434 78.4472 233.104 78.7059C233.363 79.2233 233.622 79.9994 233.881 80.5168L235.434 85.1732C235.434 83.1037 236.469 80.7755 238.54 78.7059C240.611 76.3777 243.458 75.3429 245.788 75.6016C246.047 77.9298 245.012 80.7754 242.682 82.845C240.611 84.9145 238.023 85.9493 235.693 85.9493C236.211 87.2428 236.469 88.7949 236.728 90.0884C236.987 91.3818 237.505 92.934 237.764 94.4861C237.764 92.4166 238.799 89.8297 240.87 87.7601C242.941 85.4319 245.788 84.3972 248.118 84.6558C248.377 86.9841 247.341 89.8297 245.012 91.8992C242.941 93.9687 240.093 95.2622 237.764 95.0035C238.022 96.8144 238.54 98.6252 238.799 100.436C239.058 102.506 239.317 104.575 239.317 106.645C240.352 105.093 242.164 103.799 244.235 103.282C246.824 102.506 249.412 103.023 251.224 104.058C250.448 105.869 248.377 107.679 245.788 108.456C243.458 109.232 241.129 108.973 239.317 107.938C239.317 108.973 239.576 109.749 239.576 110.784V113.888C240.352 112.077 242.423 110.525 245.012 109.749C247.6 108.973 250.189 109.49 252.001 110.525C251.224 112.336 249.153 114.147 246.565 114.923C243.976 115.699 241.388 115.182 239.834 114.147C239.834 116.216 239.835 118.545 239.576 120.614C240.352 119.321 241.905 118.027 243.976 117.51C246.306 116.992 248.636 117.251 249.93 118.286C249.153 119.838 247.6 121.39 245.27 121.908C243.2 122.425 240.87 122.166 239.576 121.39C239.576 122.166 239.317 122.942 239.317 123.718C240.352 123.201 241.905 122.942 243.458 123.201C245.529 123.718 247.082 124.753 247.6 126.047C246.565 127.081 244.494 127.34 242.682 127.081C241.129 126.823 239.834 126.047 239.058 125.271C239.058 126.305 238.799 127.34 238.54 128.375C239.576 128.116 240.87 128.375 242.164 128.892C243.458 129.668 244.494 130.962 244.753 131.997C243.717 132.514 242.164 132.255 240.87 131.479C239.835 130.703 238.799 129.927 238.54 128.892C238.281 129.927 238.281 130.703 238.022 131.738C237.505 134.583 236.728 137.429 235.952 140.275L234.916 139.499C235.434 137.688 235.952 135.618 236.469 133.549C236.211 133.807 235.693 134.066 235.175 134.325C234.399 134.583 233.622 134.325 233.104 133.807C233.363 133.29 233.881 132.773 234.657 132.514C235.434 132.255 235.952 132.514 236.469 132.773C236.469 132.255 236.728 131.738 236.728 131.22V130.962C236.469 131.479 235.952 131.997 235.175 131.997C234.399 132.255 233.622 131.997 233.104 131.479C233.363 130.962 233.881 130.444 234.657 130.186C235.434 129.927 236.211 130.186 236.469 130.703C236.728 129.927 236.728 129.151 236.987 128.375C236.469 129.151 235.693 129.668 234.657 129.927C233.363 130.186 232.069 129.927 231.551 129.41C232.069 128.634 233.104 127.857 234.14 127.599C235.434 127.34 236.469 127.599 237.246 128.116C237.505 126.823 237.505 125.788 237.764 124.494C236.987 125.271 235.693 125.788 234.14 126.047C232.328 126.047 231.033 125.529 230.257 124.494C231.033 123.46 232.587 122.942 234.14 122.684C235.693 122.684 237.246 123.201 238.022 123.977C238.022 122.942 238.281 122.166 238.281 121.131C236.987 121.649 235.434 121.39 233.881 120.873C232.069 120.097 230.775 118.803 230.516 117.51C231.81 116.992 233.622 116.992 235.434 117.768C236.987 118.286 238.023 119.321 238.54 120.355C238.799 118.286 238.799 116.216 238.799 114.147C237.505 114.923 235.952 115.182 234.14 114.664C232.069 114.147 230.516 112.853 229.998 111.56C231.292 110.525 233.104 110.266 235.175 110.784C236.728 111.301 238.023 112.077 238.799 113.112V110.784V108.197C237.505 108.973 235.952 109.232 234.14 108.714C232.069 108.197 230.516 106.903 229.998 105.61C231.292 104.575 233.104 104.316 235.175 104.834C236.728 105.093 238.023 105.869 238.799 106.903C238.799 105.351 238.54 103.799 238.54 102.506C236.987 103.282 234.916 103.54 232.845 103.023C230.516 102.506 228.445 100.953 227.668 99.1426C229.221 98.1078 231.551 97.5905 233.881 98.1078C235.693 98.6252 237.246 99.4013 238.281 100.695V100.436L237.505 95.0035C235.693 96.297 232.845 96.8144 229.998 96.0383C226.892 95.2622 224.562 93.4514 223.527 91.3818C225.339 90.0884 228.186 89.571 231.292 90.0884C233.881 90.6057 235.952 92.1579 237.246 93.9688L236.469 90.0884C236.211 88.7949 235.693 87.2428 235.434 85.9493C233.622 87.2428 230.775 87.7601 227.927 86.9841C224.821 86.208 222.491 84.3971 221.456 82.3276C223.268 81.0341 226.115 80.5168 229.221 81.0341C231.81 81.8102 234.14 83.1037 235.175 84.9145C234.657 83.3624 234.14 81.5515 233.622 79.9994C233.363 79.482 233.104 78.7059 232.845 78.1885C231.033 79.482 228.186 79.9994 225.339 79.2233C222.232 78.4472 219.903 76.6364 218.867 74.5668C220.679 73.2734 223.527 72.756 226.633 73.2734C229.221 73.7908 231.292 75.3429 232.328 76.8951C231.551 75.0842 230.775 73.0147 229.739 71.2038C227.927 71.4625 225.856 69.393 224.821 66.5474Z" fill="white"/>
<path d="M254.589 99.9187C252.26 99.1426 250.448 97.5904 249.93 96.0383C251.483 95.0035 253.813 94.7448 256.142 95.5209C258.213 96.0383 259.766 97.3317 260.543 98.8839V97.8491C260.802 95.7796 261.061 93.9687 261.578 91.8992C260.025 92.4166 258.213 92.6753 256.142 91.8992C253.813 91.1231 252.001 89.571 251.483 88.0188C253.036 86.984 255.366 86.7253 257.696 87.5014C259.508 88.0188 261.061 89.3123 261.837 90.6057C262.096 88.5362 262.614 86.7254 263.132 84.6558C261.578 85.4319 259.508 85.4319 257.437 84.9145C255.107 84.1384 253.295 82.5863 252.777 81.0341C254.33 79.9994 256.66 79.7407 258.99 80.5167C261.061 81.0341 262.614 82.3276 263.39 83.8797C263.908 82.0689 264.167 79.9994 264.685 78.1885C262.873 78.1885 260.802 77.4125 259.249 75.6016C257.696 73.7908 256.919 71.7212 257.178 69.9104C258.99 69.9104 261.061 70.6864 262.873 72.4973C264.426 74.0494 264.944 75.8603 265.202 77.4124C265.979 74.8255 266.497 72.2386 267.273 69.6517C265.461 69.6517 263.39 68.8756 261.837 67.0648C260.284 65.2539 259.508 63.1844 259.766 61.3735C261.578 61.3735 263.649 62.1496 265.461 63.9605C267.014 65.5126 267.532 67.3234 267.791 68.8756C268.05 68.3582 268.05 68.0995 268.309 67.5821C268.826 66.03 269.344 64.4778 269.862 62.667C268.05 62.667 265.979 61.8909 264.426 60.0801C262.873 58.2692 262.096 56.1997 262.355 54.3888C264.167 54.3888 266.238 55.1649 268.05 56.9757C269.603 58.7866 270.38 60.5975 270.121 62.4083C270.638 60.8561 271.156 59.5627 271.674 58.0105C270.121 56.1997 269.344 53.6127 269.862 50.5084C270.38 47.4041 271.933 44.8172 273.745 43.7825C275.298 45.5933 276.074 48.4389 275.557 51.2845C275.039 54.1301 273.745 56.4584 271.933 57.7518C271.415 59.304 270.638 61.1149 270.121 62.667C270.897 61.1149 272.45 59.8214 274.521 59.304C276.851 58.5279 279.181 58.7866 280.734 59.8214C279.957 61.3735 278.404 62.9257 276.074 63.7018C273.745 64.4778 271.415 64.2191 270.121 63.1844C269.603 64.4778 269.085 66.03 268.826 67.3234C268.568 67.8408 268.568 68.3582 268.309 68.6169C269.085 67.3234 270.638 66.2887 272.45 65.7713C274.78 64.9952 277.11 65.2539 278.663 66.2887C277.886 67.8408 276.333 69.393 274.004 70.1691C271.674 70.9451 269.603 70.6864 268.05 69.9104C267.273 72.2386 266.756 74.3081 266.238 76.6364C267.014 75.3429 268.568 74.3081 270.38 73.7907C272.709 73.0147 275.039 73.2734 276.592 74.3081C275.816 75.8603 274.262 77.4125 271.933 78.1885C269.862 78.9646 267.532 78.7059 265.979 77.9298C265.461 79.9994 264.944 82.0689 264.685 84.1384C265.461 82.845 267.014 81.8102 268.826 81.0341C271.156 80.258 273.486 80.5167 275.039 81.5515C274.262 83.1036 272.709 84.6558 270.38 85.4319C268.309 86.208 265.979 85.9493 264.426 85.1732C264.167 86.9841 263.649 88.7949 263.39 90.6057C264.167 89.571 265.461 88.5362 267.273 88.0188C269.603 87.2427 271.933 87.5014 273.486 88.5362C272.709 90.0884 271.156 91.6405 268.826 92.4166C266.756 93.1927 264.685 92.934 263.39 92.1579L262.614 97.5904C262.614 98.1078 262.614 98.3665 262.355 98.8839C263.132 97.8491 264.685 96.8144 266.238 96.297C268.568 95.5209 270.897 95.7796 272.45 96.8144C271.674 98.3665 270.121 99.9187 267.791 100.695C265.72 101.471 263.649 101.212 262.096 100.436C261.837 103.023 261.578 105.351 261.32 107.938V108.197C262.096 107.162 263.39 106.386 264.944 106.127C267.273 105.351 269.603 105.61 271.156 106.645C270.38 108.197 268.826 109.749 266.497 110.525C264.685 111.042 262.873 111.042 261.32 110.525C261.32 112.077 261.061 113.629 261.061 115.44C261.578 114.923 262.355 114.664 263.132 114.405C264.685 113.888 265.979 114.147 267.014 114.664C266.497 115.699 265.461 116.734 263.908 117.251C262.873 117.51 261.837 117.51 261.061 117.251V118.286C261.061 124.494 261.578 132.514 262.614 138.722H261.061C260.284 132.514 259.766 124.753 259.766 118.286C259.766 115.182 260.025 111.818 260.284 108.714C259.249 108.973 257.954 108.973 256.66 108.714C255.107 108.197 253.813 107.162 253.295 105.869C254.33 105.093 256.142 105.092 257.696 105.61C258.731 105.869 259.766 106.645 260.284 107.421L261.061 99.6599C258.731 100.436 256.66 100.436 254.589 99.9187Z" fill="#BBCEE7"/>
<path d="M274.004 138.981C275.298 136.912 277.628 133.031 278.922 130.962C277.887 130.444 277.11 129.668 276.592 128.116C276.075 126.823 276.075 125.271 276.592 124.236C277.628 124.494 278.663 125.529 279.181 127.081C279.699 128.116 279.699 129.151 279.44 130.186C280.216 129.151 280.993 127.857 281.769 126.823C280.734 126.305 279.957 125.529 279.44 123.977C278.922 122.684 278.922 121.131 279.44 120.097C280.475 120.355 281.511 121.39 282.028 122.942C282.546 123.977 282.546 125.012 282.287 126.047C282.546 125.788 282.805 125.271 283.064 125.012L284.617 122.684C283.581 122.166 282.805 121.39 282.287 119.838C281.769 118.545 281.769 116.992 282.287 115.958C283.323 116.216 284.358 117.251 284.876 118.803C285.393 120.097 285.393 121.131 285.135 122.166C285.911 120.873 286.947 119.838 287.982 118.545C286.947 118.027 286.17 117.251 285.652 115.699C285.135 114.405 285.135 112.853 285.652 111.819C286.688 112.077 287.723 113.112 288.241 114.664C288.759 115.958 288.759 117.251 288.5 118.286C289.535 116.992 290.571 115.699 291.347 114.664C290.312 114.147 289.535 113.371 289.017 111.819C288.5 110.525 288.5 108.973 289.017 107.938C290.053 108.197 291.088 109.232 291.606 110.784C292.124 112.077 292.124 113.371 291.606 114.405C292.383 113.371 293.418 112.336 294.195 111.301C293.677 110.266 293.936 108.714 294.712 107.421C295.489 106.127 296.783 105.351 297.819 105.093C298.336 106.127 298.077 107.679 297.301 108.973C296.524 110.266 295.23 111.042 294.195 111.301C293.418 112.077 292.641 113.112 292.124 113.888C292.9 113.371 293.936 113.112 294.971 112.853C296.524 112.853 297.819 113.371 298.595 114.147C297.819 114.923 296.524 115.44 294.971 115.699C293.418 115.699 292.124 115.182 291.347 114.664C290.571 115.699 289.535 116.992 288.759 118.286C289.535 117.51 290.571 116.992 291.865 116.734C293.418 116.475 294.712 116.992 295.489 117.51C294.971 118.286 293.677 119.062 292.124 119.321C290.571 119.579 289.276 119.062 288.5 118.545C287.464 119.838 286.688 121.131 285.911 122.166C286.429 121.649 287.464 121.39 288.241 121.131C289.794 120.873 291.088 121.39 291.865 121.908C291.347 122.684 290.053 123.46 288.5 123.718C287.205 123.977 285.911 123.718 285.135 122.942C284.617 123.46 284.358 124.236 283.84 124.753C283.581 125.012 283.323 125.271 283.323 125.529C284.099 125.012 284.876 124.494 285.911 124.494C287.464 124.236 288.759 124.753 289.535 125.271C289.017 126.047 287.723 126.823 286.17 127.081C284.876 127.34 283.581 127.081 282.546 126.305C281.769 127.34 281.252 128.375 280.475 129.41C281.252 128.892 282.028 128.634 283.064 128.375C284.617 128.116 285.911 128.634 286.688 129.151C286.17 129.927 284.876 130.703 283.323 130.962C282.028 131.22 280.734 130.962 279.957 130.186C278.663 132.255 276.592 135.877 275.298 137.946H274.004V138.981Z" fill="#F7AC6F"/>
<path d="M168.191 138.58H105.806V84.7722H168.191V138.58Z" fill="#7BC5B5"/>
<path d="M100.829 86.9842H188.322V63.4431H125.938L100.829 86.9842Z" fill="#C7E4DC"/>
<path d="M101.346 85.9493H189.875V86.9841H184.18V88.2776H101.864V86.9841H100.829V86.7254C100.829 86.208 101.088 85.9493 101.346 85.9493Z" fill="#1A3C47"/>
<path d="M105.747 111.819V138.981H161.401V111.819L133.186 85.6907L105.747 111.819Z" fill="#7BC5B5"/>
<path d="M105.747 111.301V112.077H107.3L129.562 92.6753L149.494 111.301L160.625 110.008L133.186 84.6559L105.747 111.301Z" fill="#B8DED4"/>
<path d="M103.676 112.077H106.523V111.56L133.186 85.6906L162.178 112.595L163.731 110.784L133.186 83.6211L103.676 112.077Z" fill="#1A3C47"/>
<path d="M161.401 138.723H227.41V88.2776L194.794 58.2693L161.401 88.2776V138.723Z" fill="#7BC5B5"/>
<path d="M159.071 111.301H231.551L230.775 110.266L227.41 103.282H161.401L159.589 110.266L159.071 111.301Z" fill="#C7E4DC"/>
<path d="M159.071 111.301H231.551L230.775 110.266H159.589L159.071 111.301Z" fill="#9BD1C4"/>
<path d="M195.053 101.988L209.031 111.301H181.851L195.053 101.988Z" fill="#7BC5B5"/>
<path d="M209.548 112.595L210.325 111.301L195.052 101.212L180.557 111.301L181.592 112.595L195.052 103.023L209.548 112.595Z" fill="#1A3C47"/>
<path d="M231.867 112.75H159.387V111.456H231.867V112.75ZM230.775 85.9493V89.0536L227.409 88.5362L194.794 58.2692L161.401 88.0188L158.036 89.0536V86.208L194.535 52.8367L230.775 85.9493Z" fill="#1A3C47"/>
<path d="M194.535 55.6824L230.775 89.0536L227.409 88.5363L194.794 58.2693L161.401 88.2776L158.036 89.0536L194.535 55.6824Z" fill="#B8DED4"/>
<path d="M186.251 74.8256H204.112V99.1426H186.251V74.8256Z" fill="#B3A9A6"/>
<path d="M222.779 132.739H213.201V114.63H222.779V132.739Z" fill="#1A3C47"/>
<path d="M214.726 115.44H221.456V131.738H214.726V115.44Z" fill="white"/>
<path d="M214.726 115.44V131.738H221.715V115.44H214.726ZM218.091 125.529H221.456V131.738H218.091V125.529ZM218.091 122.425H221.456V125.529H218.091V122.425ZM218.091 119.062H221.456V122.166H218.091V119.062ZM218.091 115.699H221.456V118.803H218.091V115.699ZM214.984 125.529H218.091V131.738H214.984V125.529ZM214.984 122.425H218.091V125.529H214.984V122.425ZM214.984 119.062H218.091V122.166H214.984V119.062ZM214.984 115.699H218.091V118.803H214.984V115.699Z" fill="white"/>
<path d="M173.451 132.739H163.873V114.63H173.451V132.739Z" fill="#1A3C47"/>
<path d="M165.543 115.44H172.273V131.738H165.543V115.44Z" fill="white"/>
<path d="M165.284 115.44V131.738H172.273V115.44H165.284ZM168.649 125.529H172.014V131.738H168.649V125.529ZM168.649 122.425H172.014V125.529H168.649V122.425ZM168.649 119.062H172.014V122.166H168.649V119.062ZM168.649 115.699H172.014V118.803H168.649V115.699ZM165.543 125.529H168.649V131.738H165.543V125.529ZM165.543 122.425H168.649V125.529H165.543V122.425ZM165.543 119.062H168.649V122.166H165.543V119.062ZM165.543 115.699H168.649V118.803H165.543V115.699ZM186.251 74.8256H204.112V99.1426H186.251V74.8256Z" fill="white"/>
<path d="M201.783 76.6364H186.251V74.8256H204.112V99.1426H201.783V76.6364Z" fill="white"/>
<path d="M185.734 75.8604V98.1079H184.181V99.66H206.183V98.1079H204.889V75.8604H206.183V74.3082H184.181V75.8604H185.734ZM186.769 89.3123H195.57V94.4862H186.769V89.3123ZM186.769 88.795V82.845H195.57V88.795H186.769ZM186.769 75.343H195.57V82.3277H186.769V75.343ZM203.595 75.8604V82.3277H196.088V75.343H203.595V75.8604ZM203.595 88.795H196.088V82.845H203.595V88.795ZM203.595 94.4862H196.088V89.3123H203.595V94.4862ZM203.595 98.6253H196.088V95.2623H203.595V98.6253ZM186.769 98.6253V95.2623H195.57V98.6253H186.769ZM227.513 138.567H203.698V127.961H227.513V138.567ZM185.307 138.567H161.492V127.961H185.307V138.567Z" fill="#1A3C47"/>
<path d="M225.339 128.634H227.151V136.653H225.339V128.634ZM222.491 128.634H224.303V136.653H222.491V128.634ZM219.644 128.634H221.456V136.653H219.644V128.634ZM216.796 128.634H218.608V136.653H216.796V128.634ZM213.949 128.634H215.761V136.653H213.949V128.634ZM211.102 128.634H212.914V136.653H211.102V128.634ZM208.254 128.634H210.066V136.653H208.254V128.634ZM205.407 128.634H207.219V136.653H205.407V128.634Z" fill="#F2F5FB"/>
<path d="M179.521 128.634H181.333V137.429H179.521V128.634ZM177.191 128.634H179.003V137.429H177.191V128.634ZM174.603 128.634H176.415V137.429H174.603V128.634ZM172.014 128.634H173.826V137.429H172.014V128.634ZM169.426 128.634H171.238V137.429H169.426V128.634ZM167.096 128.634H168.908V137.429H167.096V128.634ZM164.507 128.634H166.319V137.429H164.507V128.634ZM161.919 128.634H163.731V137.429H161.919V128.634Z" fill="#F2F5FB"/>
<path d="M199.997 135.942H190.419V117.833H199.997V135.942Z" fill="#1A3C47"/>
<path d="M191.946 118.803H198.676V136.136H191.946V118.803Z" fill="#FDE3D5"/>
<path d="M200.346 136.909H189.992V135.874H200.346V136.909Z" fill="#1A3C47"/>
<path d="M202.872 137.871H187.859V136.578H202.872V137.871Z" fill="#1A3C47"/>
<path d="M203.815 139.046H185.436V137.752H203.815V139.046Z" fill="#1A3C47"/>
<path d="M119.207 104.058H141.21V110.525H119.207V104.058Z" fill="white"/>
<path d="M139.657 105.869H119.207V104.058H141.469V110.525H139.657V105.869Z" fill="white"/>
<path d="M118.949 103.799V110.784H141.469V103.799H118.949ZM134.221 104.316H140.951V110.266H134.221V104.316ZM126.197 104.316H133.703V110.266H126.197V104.316ZM119.466 104.316H125.679V110.266H119.466V104.316Z" fill="#1A3C47"/>
<path d="M145.005 138.831H117.307V113.997H145.005V138.831Z" fill="#1A3C47"/>
<path d="M118.431 116.216H143.799V138.981H118.431V116.216Z" fill="#FDE3D5"/>
<path d="M228.631 129.254H204.299V127.961H228.631V129.254ZM184.53 129.254H161.492V127.961H184.53V129.254Z" fill="#F2F5FB"/>
<path d="M228.996 138.94H227.184V112.553H228.996V138.94Z" fill="#7BC5B5"/>
<path d="M207.012 138.619H203.646V112.75H207.012V138.619ZM185.345 138.955H181.98V112.569H185.345V138.955Z" fill="#F2F5FB"/>
<path d="M229.221 138.981V138.205C229.221 136.653 230.775 135.101 232.587 134.842C233.104 132.773 234.916 131.479 236.987 131.479C239.317 131.479 241.129 133.031 241.388 134.842H241.647C243.459 134.842 245.012 136.136 245.012 137.946C245.012 138.205 245.012 138.723 244.753 138.981H229.221Z" fill="#7874B5"/>
<path d="M606.678 140.601H34.8645V138.79H606.678V140.601Z" fill="#7BC5B5"/>
<path d="M384.018 0.322144H463.228V139.24H384.018V0.322144Z" fill="#7BC5B5"/>
<path d="M384.794 136.653H388.677V137.946H384.794V136.653ZM384.794 134.842H386.606V136.136H384.794V134.842ZM384.794 133.031H388.677V134.325H384.794V133.031ZM384.794 131.22H386.606V132.514H384.794V131.22ZM384.794 129.151H388.677V130.444H384.794V129.151ZM384.794 127.34H386.606V128.633H384.794V127.34ZM384.794 125.529H388.677V126.823H384.794V125.529ZM384.794 123.718H386.606V125.012H384.794V123.718ZM384.794 121.649H388.677V122.942H384.794V121.649ZM384.794 120.097H386.606V121.39H384.794V120.097ZM384.794 118.027H388.677V119.321H384.794V118.027ZM384.794 116.216H386.606V117.51H384.794V116.216ZM384.794 114.147H388.677V115.44H384.794V114.147ZM384.794 112.595H386.606V113.888H384.794V112.595ZM384.794 110.525H388.677V111.818H384.794V110.525ZM384.794 108.714H386.606V110.008H384.794V108.714ZM384.794 106.645H388.677V107.938H384.794V106.645ZM384.794 105.092H386.606V106.386H384.794V105.092ZM384.794 103.023H388.677V104.316H384.794V103.023ZM384.794 101.212H386.606V102.506H384.794V101.212ZM384.794 99.1426H388.677V100.436H384.794V99.1426ZM384.794 97.5904H386.606V98.8839H384.794V97.5904ZM384.794 95.5209H388.677V96.8143H384.794V95.5209ZM384.794 93.71H386.606V95.0035H384.794V93.71ZM384.794 91.8992H388.677V93.1926H384.794V91.8992ZM384.794 90.0883H386.606V91.3818H384.794V90.0883ZM384.794 88.0188H388.677V89.3122H384.794V88.0188ZM384.794 86.2079H386.606V87.5014H384.794V86.2079ZM384.794 84.3971H388.677V85.6906H384.794V84.3971ZM384.794 82.5863H386.606V83.8797H384.794V82.5863ZM384.794 80.5167H388.677V81.8102H384.794V80.5167ZM384.794 78.9646H386.606V80.258H384.794V78.9646ZM384.794 76.8951H388.677V78.1885H384.794V76.8951ZM384.794 75.0842H386.606V76.3776H384.794V75.0842ZM384.794 73.0147H388.677V74.3081H384.794V73.0147ZM384.794 71.4625H386.606V72.756H384.794V71.4625ZM384.794 69.393H388.677V70.6864H384.794V69.393ZM384.794 67.5821H386.606V68.8756H384.794V67.5821ZM384.794 65.5126H388.677V66.806H384.794V65.5126ZM384.794 63.9604H386.606V65.2539H384.794V63.9604ZM384.794 61.8909H388.677V63.1844H384.794V61.8909ZM384.794 60.0801H386.606V61.3735H384.794V60.0801ZM384.794 58.2692H388.677V59.5626H384.794V58.2692ZM384.794 56.4583H386.606V57.7518H384.794V56.4583ZM384.794 54.3888H388.677V55.6823H384.794V54.3888ZM384.794 52.578H386.606V53.8714H384.794V52.578ZM384.794 50.7671H388.677V52.0606H384.794V50.7671ZM384.794 48.9563H386.606V50.2498H384.794V48.9563ZM384.794 46.8867H388.677V48.1802H384.794V46.8867ZM384.794 45.3346H386.606V46.628H384.794V45.3346ZM384.794 43.2651H388.677V44.5585H384.794V43.2651ZM384.794 41.4542H386.606V42.7477H384.794V41.4542ZM384.794 39.3847H388.677V40.6781H384.794V39.3847ZM384.794 37.8325H386.606V39.126H384.794V37.8325Z" fill="#B8DED4"/>
<path d="M458.568 136.653H462.451V137.946H458.568V136.653ZM460.38 134.842H462.192V136.136H460.38V134.842ZM458.568 133.031H462.451V134.325H458.568V133.031ZM460.38 131.22H462.192V132.514H460.38V131.22ZM458.568 129.151H462.451V130.444H458.568V129.151ZM460.38 127.34H462.192V128.633H460.38V127.34ZM458.568 125.529H462.451V126.823H458.568V125.529ZM460.38 123.718H462.192V125.012H460.38V123.718ZM458.568 121.649H462.451V122.942H458.568V121.649ZM460.38 120.097H462.192V121.39H460.38V120.097ZM458.568 118.027H462.451V119.321H458.568V118.027ZM460.38 116.216H462.192V117.51H460.38V116.216ZM458.568 114.147H462.451V115.44H458.568V114.147ZM460.38 112.595H462.192V113.888H460.38V112.595ZM458.568 110.525H462.451V111.818H458.568V110.525ZM460.38 108.714H462.192V110.008H460.38V108.714ZM458.568 106.645H462.451V107.938H458.568V106.645ZM460.38 105.092H462.192V106.386H460.38V105.092ZM458.568 103.023H462.451V104.316H458.568V103.023ZM460.38 101.212H462.192V102.506H460.38V101.212ZM458.568 99.1426H462.451V100.436H458.568V99.1426ZM460.38 97.5904H462.192V98.8839H460.38V97.5904ZM458.568 95.5209H462.451V96.8143H458.568V95.5209ZM460.38 93.71H462.192V95.0035H460.38V93.71ZM458.568 91.8992H462.451V93.1926H458.568V91.8992ZM460.38 90.0883H462.192V91.3818H460.38V90.0883ZM458.568 88.0188H462.451V89.3122H458.568V88.0188ZM460.38 86.2079H462.192V87.5014H460.38V86.2079ZM458.568 84.3971H462.451V85.6906H458.568V84.3971ZM460.38 82.5863H462.192V83.8797H460.38V82.5863ZM458.568 80.5167H462.451V81.8102H458.568V80.5167ZM460.38 78.9646H462.192V80.258H460.38V78.9646ZM458.568 76.8951H462.451V78.1885H458.568V76.8951ZM460.38 75.0842H462.192V76.3776H460.38V75.0842ZM458.568 73.0147H462.451V74.3081H458.568V73.0147ZM460.38 71.4625H462.192V72.756H460.38V71.4625ZM458.568 69.393H462.451V70.6864H458.568V69.393ZM460.38 67.5821H462.192V68.8756H460.38V67.5821ZM458.568 65.5126H462.451V66.806H458.568V65.5126ZM460.38 63.9604H462.192V65.2539H460.38V63.9604ZM458.568 61.8909H462.451V63.1844H458.568V61.8909ZM460.38 60.0801H462.192V61.3735H460.38V60.0801ZM458.568 58.2692H462.451V59.5626H458.568V58.2692ZM460.38 56.4583H462.192V57.7518H460.38V56.4583ZM458.568 54.3888H462.451V55.6823H458.568V54.3888ZM460.38 52.578H462.192V53.8714H460.38V52.578ZM458.568 50.7671H462.451V52.0606H458.568V50.7671ZM460.38 48.9563H462.192V50.2498H460.38V48.9563ZM458.568 46.8867H462.451V48.1802H458.568V46.8867ZM460.38 45.3346H462.192V46.628H460.38V45.3346ZM458.568 43.2651H462.451V44.5585H458.568V43.2651ZM460.38 41.4542H462.192V42.7477H460.38V41.4542ZM458.568 39.3847H462.451V40.6781H458.568V39.3847ZM460.38 37.8325H462.192V39.126H460.38V37.8325Z" fill="#B8DED4"/>
<path d="M384.794 35.7629H388.677V37.0564H384.794V35.7629ZM384.794 33.9521H386.606V35.2456H384.794V33.9521ZM384.794 31.8826H388.677V33.176H384.794V31.8826ZM384.794 30.3304H386.606V31.6239H384.794V30.3304ZM384.794 28.2609H388.677V29.5543H384.794V28.2609ZM384.794 26.45H386.606V27.7435H384.794V26.45ZM384.794 24.3805H388.677V25.674H384.794V24.3805ZM384.794 22.8283H386.606V24.1218H384.794V22.8283ZM384.794 20.7588H388.677V22.0523H384.794V20.7588ZM384.794 18.948H386.606V20.2414H384.794V18.948ZM384.794 17.1371H388.677V18.4306H384.794V17.1371ZM384.794 15.3263H386.606V16.6197H384.794V15.3263ZM384.794 13.2567H388.677V14.5502H384.794V13.2567ZM384.794 11.4459H386.606V12.7394H384.794V11.4459ZM384.794 9.63504H388.677V10.9285H384.794V9.63504ZM384.794 7.82421H386.606V9.11767H384.794V7.82421ZM384.794 5.75466H388.677V7.04812H384.794V5.75466ZM384.794 4.20251H386.606V5.49597H384.794V4.20251Z" fill="#B8DED4"/>
<path d="M458.568 35.7629H462.451V37.0564H458.568V35.7629ZM460.38 33.9521H462.192V35.2456H460.38V33.9521ZM458.568 31.8826H462.451V33.176H458.568V31.8826ZM460.38 30.3304H462.192V31.6239H460.38V30.3304ZM458.568 28.2609H462.451V29.5543H458.568V28.2609ZM460.38 26.45H462.192V27.7435H460.38V26.45ZM458.568 24.3805H462.451V25.674H458.568V24.3805ZM460.38 22.8283H462.192V24.1218H460.38V22.8283ZM458.568 20.7588H462.451V22.0523H458.568V20.7588ZM460.38 18.948H462.192V20.2414H460.38V18.948ZM458.568 17.1371H462.451V18.4306H458.568V17.1371ZM460.38 15.3263H462.192V16.6197H460.38V15.3263ZM458.568 13.2567H462.451V14.5502H458.568V13.2567ZM460.38 11.4459H462.192V12.7394H460.38V11.4459ZM458.568 9.63504H462.451V10.9285H458.568V9.63504ZM460.38 7.82421H462.192V9.11767H460.38V7.82421ZM458.568 5.75466H462.451V7.04812H458.568V5.75466ZM460.38 4.20251H462.192V5.49597H460.38V4.20251Z" fill="#B8DED4"/>
<path d="M394.372 102.247H408.609V119.579H394.372V102.247ZM416.634 102.247H430.871V119.579H416.634V102.247ZM438.637 102.247H452.874V119.579H438.637V102.247Z" fill="white"/>
<path d="M388.677 122.942H458.827V125.27H388.677V122.942Z" fill="#FDE3D5"/>
<path d="M455.462 115.699V123.977H454.686V116.734H448.473V123.977H447.696V116.734H441.484V123.977H440.707V116.734H434.495V123.977H433.718V116.734H427.506V123.977H426.729V116.734H420.516V123.977H419.74V116.734H413.527V123.977H412.751V116.734H406.538V123.977H405.762V116.734H399.549V123.977H398.773V116.734H392.56V123.977H391.783V115.699H455.462Z" fill="#FDE3D5"/>
<path d="M384.018 92.4166H463.228V93.7101H384.018V92.4166Z" fill="#FDE3D5"/>
<path d="M384.018 93.7101H463.228V95.0035H384.018V93.7101Z" fill="#9BD1C4"/>
<path d="M394.372 56.4584H408.609V73.7907H394.372V56.4584ZM416.634 56.4584H430.871V73.7907H416.634V56.4584ZM438.637 56.4584H452.874V73.7907H438.637V56.4584Z" fill="white"/>
<path d="M388.677 77.1537H458.827V79.482H388.677V77.1537Z" fill="#FDE3D5"/>
<path d="M455.462 70.1691V78.4472H454.686V71.2038H448.473V78.4472H447.696V71.2038H441.484V78.4472H440.707V71.2038H434.495V78.4472H433.718V71.2038H427.506V78.4472H426.729V71.2038H420.516V78.4472H419.74V71.2038H413.527V78.4472H412.751V71.2038H406.538V78.4472H405.762V71.2038H399.549V78.4472H398.773V71.2038H392.56V78.4472H391.783V70.1691H455.462Z" fill="#FDE3D5"/>
<path d="M384.018 46.8867H463.228V48.1802H384.018V46.8867Z" fill="#FDE3D5"/>
<path d="M384.018 48.1802H463.228V49.4736H384.018V48.1802Z" fill="#9BD1C4"/>
<path d="M394.372 10.9285H408.609V28.2609H394.372V10.9285ZM416.634 10.9285H430.871V28.2609H416.634V10.9285ZM438.637 10.9285H452.874V28.2609H438.637V10.9285Z" fill="white"/>
<path d="M388.677 31.6238H458.827V33.952H388.677V31.6238Z" fill="#FDE3D5"/>
<path d="M455.462 24.6392V32.9173H454.686V25.6739H448.473V32.9173H447.696V25.6739H441.484V32.9173H440.707V25.6739H434.495V32.9173H433.718V25.6739H427.506V32.9173H426.729V25.6739H420.516V32.9173H419.74V25.6739H413.527V32.9173H412.751V25.6739H406.538V32.9173H405.762V25.6739H399.549V32.9173H398.773V25.6739H392.56V32.9173H391.783V24.6392H455.462Z" fill="#FDE3D5"/>
<path d="M384.018 1.35693H463.228V2.65039H384.018V1.35693Z" fill="#FDE3D5"/>
<path d="M384.018 2.65039H463.228V3.94385H384.018V2.65039Z" fill="#9BD1C4"/>
<path d="M461.416 15.3263H557.711V138.981H461.416V15.3263Z" fill="#F7D4DC"/>
<path d="M547.098 102.764H550.463V139.24H547.098V102.764ZM512.929 102.764H516.294V139.24H512.929V102.764ZM461.416 92.934H557.711V97.3317H461.416V92.934Z" fill="#E989A1"/>
<path d="M510.081 106.127H552.792L548.909 93.1926H513.705L510.081 106.127Z" fill="#EEA3B5"/>
<path d="M469.958 110.266H504.386V132.773H469.958V110.266Z" fill="white"/>
<path d="M523.024 110.784H539.849V138.981H523.024V110.784Z" fill="#E989A1"/>
<path d="M525.095 112.853H537.779V138.981H525.095V112.853Z" fill="white"/>
<path d="M456.757 7.56555H562.629V11.446H456.757V7.56555Z" fill="#E989A1"/>
<path d="M461.416 11.4459H557.711V15.3263H461.416V11.4459Z" fill="#EEA3B5"/>
<path d="M549.168 109.49C551.027 109.49 552.533 107.985 552.533 106.127C552.533 104.27 551.027 102.764 549.168 102.764C547.31 102.764 545.803 104.27 545.803 106.127C545.803 107.985 547.31 109.49 549.168 109.49Z" fill="#F7AC6F"/>
<path d="M543.215 109.49C545.073 109.49 546.58 107.985 546.58 106.127C546.58 104.27 545.073 102.764 543.215 102.764C541.356 102.764 539.849 104.27 539.849 106.127C539.849 107.985 541.356 109.49 543.215 109.49Z" fill="#EEA3B5"/>
<path d="M537.261 109.49C539.119 109.49 540.626 107.985 540.626 106.127C540.626 104.27 539.119 102.764 537.261 102.764C535.402 102.764 533.896 104.27 533.896 106.127C533.896 107.985 535.402 109.49 537.261 109.49Z" fill="#EEA3B5"/>
<path d="M531.307 109.49C533.166 109.49 534.672 107.985 534.672 106.127C534.672 104.27 533.166 102.764 531.307 102.764C529.449 102.764 527.942 104.27 527.942 106.127C527.942 107.985 529.449 109.49 531.307 109.49Z" fill="#EEA3B5"/>
<path d="M525.353 109.49C527.212 109.49 528.718 107.985 528.718 106.127C528.718 104.27 527.212 102.764 525.353 102.764C523.495 102.764 521.988 104.27 521.988 106.127C521.988 107.985 523.495 109.49 525.353 109.49Z" fill="#EEA3B5"/>
<path d="M519.4 109.49C521.258 109.49 522.765 107.985 522.765 106.127C522.765 104.27 521.258 102.764 519.4 102.764C517.541 102.764 516.035 104.27 516.035 106.127C516.035 107.985 517.541 109.49 519.4 109.49Z" fill="#EEA3B5"/>
<path d="M513.187 109.49C515.046 109.49 516.552 107.985 516.552 106.127C516.552 104.27 515.046 102.764 513.187 102.764C511.329 102.764 509.822 104.27 509.822 106.127C509.822 107.985 511.329 109.49 513.187 109.49Z" fill="#EEA3B5"/>
<path d="M550.222 36.7641H538.574V21.5012H550.222V36.7641ZM532.907 36.7641H521.259V21.5012H532.907V36.7641ZM515.336 36.7641H503.688V21.5012H515.336V36.7641ZM498.024 36.7641H486.375V21.5012H498.024V36.7641ZM480.45 36.7641H468.801V21.5012H480.45V36.7641ZM550.222 61.3554H538.574V46.0925H550.222V61.3554ZM532.907 61.3554H521.259V46.0925H532.907V61.3554ZM515.336 61.3554H503.688V46.0925H515.336V61.3554ZM498.024 61.3554H486.375V46.0925H498.024V61.3554ZM480.45 61.3554H468.801V46.0925H480.45V61.3554ZM550.222 85.9492H538.574V70.6864H550.222V85.9492ZM532.907 85.9492H521.259V70.6864H532.907V85.9492ZM515.336 85.9492H503.688V70.6864H515.336V85.9492ZM498.024 85.9492H486.375V70.6864H498.024V85.9492ZM480.45 85.9492H468.801V70.6864H480.45V85.9492Z" fill="white"/>
<path d="M555.381 84.3971C543.991 85.4319 543.214 92.934 544.509 98.6252C545.803 104.316 547.356 105.61 545.544 112.336C543.473 119.062 544.509 129.41 555.381 129.41C566.253 129.41 562.629 120.614 564.958 117.768C567.288 114.923 571.171 112.595 568.841 106.903C566.77 101.212 563.405 100.695 564.182 94.2274C565.217 87.7601 559.005 84.1384 555.381 84.3971Z" fill="#F7AC6F"/>
<path d="M562.37 108.714C562.37 108.714 564.7 116.475 554.863 118.544M554.863 94.2274V139.24V94.2274ZM558.487 95.0035C558.487 95.0035 557.969 97.8491 554.863 98.6252L558.487 95.0035ZM550.204 101.471C550.204 101.471 551.498 106.127 554.863 106.645L550.204 101.471Z" stroke="#1A2E50" stroke-width="2.02747" stroke-miterlimit="10"/>
<path d="M549.686 111.042H550.463V112.077H549.686V111.042Z" fill="white"/>
<path d="M558.228 120.873H559.005V121.907H558.228V120.873Z" fill="white"/>
<path d="M558.228 106.127H559.005V107.162H558.228V106.127Z" fill="white"/>
<path d="M558.487 112.077H559.264V113.112H558.487V112.077Z" fill="white"/>
<path d="M548.651 93.1926H549.427V94.2274H548.651V93.1926Z" fill="white"/>
<path d="M565.735 109.232H566.512V110.266H565.735V109.232Z" fill="white"/>
<path d="M558.228 89.0536H559.005V90.0883H558.228V89.0536Z" fill="white"/>
<path d="M551.239 116.734H552.016V117.768H551.239V116.734Z" fill="white"/>
<path d="M554.604 88.5363H555.381V89.571H554.604V88.5363Z" fill="white"/>
<path d="M548.909 119.062H549.686V120.097H548.909V119.062Z" fill="white"/>
<path d="M551.498 123.718H552.275V124.753H551.498V123.718Z" fill="white"/>
<path d="M466.334 125.27C474.769 125.27 481.607 118.437 481.607 110.008C481.607 101.578 474.769 94.7448 466.334 94.7448C457.9 94.7448 451.062 101.578 451.062 110.008C451.062 118.437 457.9 125.27 466.334 125.27Z" fill="#FFEA80"/>
<path d="M500.896 92.6202C502.331 86.4995 498.529 80.3753 492.404 78.9413C486.28 77.5073 480.152 81.3066 478.717 87.4272C477.282 93.5478 481.084 99.672 487.208 101.106C493.333 102.54 499.461 98.7408 500.896 92.6202Z" fill="#7BC5B5"/>
<path d="M466.334 112.077V140.275" stroke="#1A2E50" stroke-width="2.02747" stroke-miterlimit="10"/>
<path d="M489.373 91.3817H490.408V140.275H489.373V91.3817Z" fill="#1A2E50"/>
<path d="M489.631 128.633C483.419 125.529 481.607 119.579 481.348 119.321L482.383 119.062C482.383 119.062 484.195 125.012 490.149 127.599L489.631 128.633ZM489.357 117.453L498.72 101.947L499.608 102.482L490.245 117.986L489.357 117.453Z" fill="#1A2E50"/>
<path d="M460.593 100.948L461.37 100.927L461.419 102.738L460.642 102.759L460.593 100.948ZM468.361 103.796L469.138 103.776L469.187 105.587L468.411 105.607L468.361 103.796ZM471.985 101.986L472.762 101.965L472.811 103.776L472.035 103.794L471.985 101.986ZM485.446 83.0984L486.222 83.0778L486.272 84.8886L485.495 84.9093L485.446 83.0984ZM493.468 93.7074L494.244 93.6867L494.291 95.4975L493.514 95.5157L493.468 93.7074ZM489.324 86.9814L490.1 86.9607L490.152 88.7715L489.375 88.7897L489.324 86.9814ZM496.054 86.9814L496.83 86.9607L496.88 88.7715L496.103 88.7923L496.054 86.9814ZM482.081 90.8644L482.857 90.8411L482.904 92.6519L482.127 92.6726L482.081 90.8644ZM491.917 83.1036L492.694 83.0803L492.74 84.8912L491.964 84.9119L491.917 83.1036ZM485.184 93.7074L485.961 93.6867L486.008 95.4975L485.231 95.5157L485.184 93.7074ZM462.408 107.159L463.184 107.139L463.236 108.95L462.459 108.968L462.408 107.159ZM458.005 110.784L458.781 110.76L458.833 112.571L458.056 112.592L458.005 110.784ZM469.917 114.659L470.694 114.638L470.743 116.449L469.966 116.467L469.917 114.659ZM473.277 108.455L474.054 108.432L474.1 110.243L473.324 110.264L473.277 108.455ZM460.857 116.99L461.634 116.969L461.683 118.78L460.906 118.801L460.857 116.99Z" fill="#7BC5B5"/>
<path d="M460.593 100.948L461.369 100.927L461.419 102.738L460.642 102.759L460.593 100.948Z" fill="#7BC5B5"/>
<path d="M468.361 103.796L469.138 103.776L469.187 105.587L468.41 105.607L468.361 103.796Z" fill="#7BC5B5"/>
<path d="M471.985 101.986L472.762 101.965L472.811 103.776L472.034 103.794L471.985 101.986Z" fill="#7BC5B5"/>
<path d="M462.407 107.159L463.184 107.139L463.236 108.95L462.459 108.968L462.407 107.159Z" fill="#7BC5B5"/>
<path d="M458.004 110.784L458.781 110.76L458.833 112.571L458.056 112.592L458.004 110.784Z" fill="#7BC5B5"/>
<path d="M469.917 114.659L470.693 114.638L470.743 116.449L469.966 116.467L469.917 114.659Z" fill="#7BC5B5"/>
<path d="M473.277 108.455L474.054 108.432L474.1 110.243L473.324 110.264L473.277 108.455Z" fill="#7BC5B5"/>
<path d="M460.857 116.99L461.633 116.969L461.683 118.78L460.906 118.801L460.857 116.99Z" fill="#7BC5B5"/>
<path d="M1.42804 156.823H0.133759V153.719H1.42804V156.823Z" fill="#D1CEE9"/>
<path d="M85.5564 121.649C84.0032 120.355 83.2267 118.544 82.9678 116.475C82.709 114.923 82.1912 113.112 80.3792 112.077C79.085 111.301 77.7907 110.266 77.5318 108.714C76.4964 105.351 74.6844 100.436 71.3193 100.436C67.9541 100.436 66.1421 105.351 65.1067 108.714C64.589 110.266 63.5536 111.301 62.2593 112.077C60.7061 112.853 59.9296 114.664 59.6707 116.475C59.4119 118.544 58.6353 120.355 57.0822 121.649C53.1993 125.529 53.1993 130.962 57.341 130.962H84.7798C89.4392 130.962 89.6981 125.529 85.5564 121.649Z" fill="white"/>
<path d="M71.3192 106.645H71.8369V139.499H71.3192V106.645Z" fill="#1A2E50"/>
<path d="M71.4279 124.978L77.8346 113.441L78.2876 113.694L71.8809 125.229L71.4279 124.978ZM71.3192 129.668L62.5181 116.992L63.0358 116.734L71.8369 129.41L71.3192 129.668Z" fill="#1A2E50"/>
<path d="M79.6026 123.977H80.1203V125.788H79.6026V123.977ZM66.9186 127.599H67.4363V129.41H66.9186V127.599ZM84.0031 126.564H84.5208V128.375H84.0031V126.564ZM77.014 125.788H77.5317V127.599H77.014V125.788ZM78.3083 117.768H78.826V119.579H78.3083V117.768ZM73.39 110.008H73.9077V111.819H73.39V110.008ZM66.9186 113.888H67.4363V115.699H66.9186V113.888ZM58.894 126.305H59.4118V128.116H58.894V126.305ZM63.2946 126.305H63.8123V128.116H63.2946V126.305ZM68.9894 121.39H69.5072V123.201H68.9894V121.39ZM62.0003 121.39H62.518V123.201H62.0003V121.39Z" fill="#649FCB"/>
<path d="M56.5644 150.364H68.213V153.468H56.5644V150.364ZM70.2838 150.364H74.1667V153.468H70.2838V150.364ZM77.5318 150.364H89.1803V153.468H77.5318V150.364ZM102.123 150.364H113.772V153.468H102.123V150.364ZM93.8398 150.364H97.7226V153.468H93.8398V150.364ZM43.1039 156.831H54.7524V159.935H43.1039V156.831ZM56.5644 156.831H60.4473V159.935H56.5644V156.831ZM63.8124 156.831H75.4609V159.935H63.8124V156.831ZM88.6626 156.831H100.311V159.935H88.6626V156.831ZM80.1204 156.831H84.0032V159.935H80.1204V156.831ZM92.1443 172.249H80.4957V169.145H92.1443V172.249ZM78.386 172.249H74.5032V169.145H78.386V172.249ZM71.2002 172.249H59.5516V169.145H71.2002V172.249ZM46.5156 172.249H34.8671V169.145H46.5156V172.249ZM54.8456 172.249H50.9628V169.145H54.8456V172.249ZM105.67 165.751H94.021V162.646H105.67V165.751ZM92.1701 165.751H88.2873V162.646H92.1701V165.751ZM84.9843 165.751H73.3357V162.646H84.9843V165.751ZM60.0409 165.751H48.3923V162.646H60.0409V165.751ZM68.6271 165.751H64.7443V162.646H68.6271V165.751ZM594.877 165.751H583.229V162.646H594.877V165.751ZM581.122 165.751H577.239V162.646H581.122V165.751ZM573.933 165.751H562.285V162.646H573.933V165.751ZM549.249 165.751H537.6V162.646H549.249V165.751ZM557.579 165.751H553.696V162.646H557.579V165.751ZM532.084 150.364H543.732V153.468H532.084V150.364ZM545.803 150.364H549.686V153.468H545.803V150.364ZM552.792 150.364H564.441V153.468H552.792V150.364ZM577.643 150.364H589.291V153.468H577.643V150.364ZM569.359 150.364H573.242V153.468H569.359V150.364ZM545.803 156.831H557.452V159.935H545.803V156.831ZM559.264 156.831H563.147V159.935H559.264V156.831ZM566.512 156.831H578.16V159.935H566.512V156.831ZM591.362 156.831H603.011V159.935H591.362V156.831ZM582.82 156.831H586.703V159.935H582.82V156.831ZM283.323 150.364H294.971V153.468H283.323V150.364ZM297.042 150.364H300.925V153.468H297.042V150.364ZM304.29 150.364H315.939V153.468H304.29V150.364ZM329.14 150.364H340.789V153.468H329.14V150.364ZM320.598 150.364H324.481V153.468H320.598V150.364ZM269.862 156.831H281.511V159.935H269.862V156.831ZM283.582 156.831H287.464V159.935H283.582V156.831ZM290.571 156.831H302.219V159.935H290.571V156.831ZM315.421 156.831H327.07V159.935H315.421V156.831ZM307.138 156.831H311.02V159.935H307.138V156.831Z" fill="#ADAAD5"/>
</svg>
