<?xml version="1.0" standalone="no"?>
<!DOCTYPE svg PUBLIC "-//W3C//DTD SVG 1.1//EN" "http://www.w3.org/Graphics/SVG/1.1/DTD/svg11.dtd" >
<svg xmlns="http://www.w3.org/2000/svg" xmlns:xlink="http://www.w3.org/1999/xlink" version="1.1">
<metadata>
Created by FontForge 20170731 at Wed Feb 20 11:01:22 2008
 By ,,,
Copyright (c) 2007 Monotype Imaging Inc. Soho is designed by Sebastian Lester. All rights reserved.
</metadata>
<defs>
<font id="SohoGothicPro-Medium" horiz-adv-x="1300" >
  <font-face 
    font-family="Soho Gothic Pro Medium"
    font-weight="500"
    font-stretch="normal"
    units-per-em="2048"
    panose-1="2 11 6 3 3 5 4 2 2 4"
    ascent="1612"
    descent="-436"
    x-height="1153"
    cap-height="1522"
    bbox="-150 -600 3039 2370"
    underline-thickness="160"
    underline-position="-258"
    unicode-range="U+0020-FE6A"
  />
<missing-glyph horiz-adv-x="2048" 
d="M1792 0h-1536v1536h1536v-1536zM1663 129v1278h-1278v-1278h1278z" />
    <glyph glyph-name="f_f" unicode="ff" horiz-adv-x="1599" 
d="M969 0v936h-449v-936h-272v936l-203 20v197h203v111q0 79 13.5 145t49 113t98.5 73.5t162 26.5q36 0 73 -3t70 -8t60 -10.5t45 -11.5v-172q-15 1 -37 2.5t-46.5 2t-50 1t-48.5 0.5q-42 0 -65.5 -9.5t-35 -29.5t-14 -50.5t-2.5 -73.5v-107h449v111q0 79 13.5 145t49 113
t98 73.5t160.5 26.5q36 0 72.5 -3t69.5 -8t60.5 -10.5t45.5 -11.5v-172q-15 1 -37 2.5t-46.5 2t-50 1t-48.5 0.5q-42 0 -65.5 -9t-35 -28.5t-14 -50.5t-2.5 -75v-107h295v-217h-295v-936h-270z" />
    <glyph glyph-name="f_i" unicode="fi" horiz-adv-x="1397" 
d="M967 0v936h-449v-936h-270v936l-205 20v197h205v111q0 83 13.5 149t49 112.5t98 71.5t160.5 25q37 0 74 -3t70 -8t60.5 -10.5t45.5 -11.5v-172q-16 1 -38.5 2.5t-47 2t-50 1t-48.5 0.5q-42 0 -65.5 -9t-35 -28.5t-14 -50.5t-2.5 -75v-107h719v-1153h-270zM963 1331v260
h278v-260h-278z" />
    <glyph glyph-name="f_l" unicode="fl" horiz-adv-x="1405" 
d="M977 0v1413q-21 1 -54 3t-72.5 3.5t-81.5 2.5t-81 1q-47 0 -79.5 -5t-52.5 -22t-29 -49.5t-9 -86.5v-107h295v-217h-295v-936h-270v936l-205 20v197h205v107q0 106 24.5 175.5t72 111t118.5 58.5t164 17q48 0 100 -3.5t99.5 -8t87 -10t63.5 -9.5h270v-1591h-270z" />
    <glyph glyph-name="f_f_i" unicode="ffi" horiz-adv-x="2111" 
d="M1683 0v936h-446v-936h-268v936h-449v-936h-272v936l-203 20v197h203v111q0 81 13.5 147t49 113t98.5 72.5t162 25.5q36 0 73 -3t70 -8t60 -10.5t45 -11.5v-172q-15 1 -37 2.5t-46.5 2t-50 1t-48.5 0.5q-41 0 -64.5 -9t-35 -28.5t-14.5 -50.5t-3 -75v-107h449v111
q0 81 13.5 147t49 113t98 72.5t160.5 25.5q36 0 72.5 -3t69.5 -8t60.5 -10.5t45.5 -11.5v-172q-16 1 -38 2.5t-46.5 2t-50 1t-49.5 0.5q-40 0 -63.5 -9t-35.5 -28.5t-15 -50.5t-3 -75v-107h717v-1153h-271zM1679 1331v260h281v-260h-281z" />
    <glyph glyph-name="f_f_l" unicode="ffl" horiz-adv-x="2122" 
d="M1694 0v1413q-21 1 -54 3t-71.5 3.5t-80.5 2.5t-81 1q-47 0 -79.5 -5t-52.5 -22t-29 -49.5t-9 -86.5v-107h297v-217h-297v-936h-270v936h-447v-936h-272v936l-203 20v197h203v111q0 81 13.5 147t49.5 113t99 72.5t161 25.5q36 0 73 -3t70 -8t60 -10.5t45 -11.5v-172
q-15 1 -37 2.5t-46.5 2t-50 1t-48.5 0.5q-42 0 -65.5 -9t-35 -28.5t-14 -50.5t-2.5 -75v-107h447v107q0 106 24 175.5t71.5 111t118.5 58.5t165 17q48 0 99 -3.5t98.5 -8t87 -10t63.5 -9.5h270v-1591h-270z" />
    <glyph glyph-name="f_b" unicode="fb" horiz-adv-x="2077" 
d="M1972 512q0 -146 -34 -249t-102 -168.5t-169.5 -95.5t-236.5 -30q-56 0 -104.5 1.5t-101.5 5.5t-115 9.5t-144 14.5v1411q-57 5 -130.5 8.5t-154.5 3.5q-44 0 -74.5 -5t-50 -22t-28.5 -49.5t-9 -86.5v-107h295v-217h-295v-936h-270v936l-205 20v197h205v107
q0 103 24 172.5t71.5 111.5t118 60t163.5 18q85 0 170 -8.5t170 -22.5h268v-463q68 31 139.5 43.5t134.5 12.5q240 0 352.5 -125t112.5 -387v-160zM1702 674q0 78 -11.5 131.5t-38.5 86.5t-71.5 47.5t-110.5 14.5q-18 0 -47 -2t-62 -6.5t-66 -13t-60 -21.5v-702l85 -5
t116 -3q70 0 120 14.5t82.5 50t48 95.5t15.5 151v162z" />
    <glyph glyph-name="f_f_b" unicode="ffb" horiz-adv-x="2804" 
d="M2699 512q0 -146 -34.5 -249t-102.5 -168.5t-170.5 -95.5t-237.5 -30q-54 0 -105.5 2t-106.5 6t-116 9.5t-134 13.5v1413q-20 1 -52 3t-70 3.5t-80 2.5t-83 1q-44 0 -75 -5t-51 -22t-29 -49.5t-9 -86.5v-107h297v-217h-297v-936h-268v936h-455v-936h-272v936l-203 18v199
h203v111q0 79 13 145t48.5 113t98.5 73.5t163 26.5q73 0 137 -10t109 -23v-172q-43 2 -88 4t-90 2q-42 0 -66 -9t-36 -28.5t-14.5 -50.5t-2.5 -75v-107h455v107q0 103 24 172.5t71 111.5t116.5 60t161.5 18q47 0 96.5 -3.5t95.5 -8t85.5 -10t66.5 -9.5h268v-463
q63 31 134.5 43.5t137.5 12.5q240 0 353.5 -125t113.5 -387v-160zM2429 674q0 78 -11.5 131.5t-38.5 86.5t-71.5 47.5t-109.5 14.5q-19 0 -48 -2t-62 -6.5t-66.5 -13t-61.5 -21.5v-702q29 -2 82.5 -5t118.5 -3q70 0 120.5 14.5t83.5 50t48.5 95.5t15.5 151v162z" />
    <glyph glyph-name="f_h" unicode="fh" horiz-adv-x="2120" 
d="M1702 0v727q0 67 -9.5 110.5t-31 69.5t-56 36.5t-85.5 10.5q-42 0 -82.5 -6t-77 -15t-68 -20t-55.5 -22v-891h-268v1413q-23 1 -54.5 3t-68.5 3.5t-77 2.5t-79 1q-47 0 -79.5 -5t-52.5 -22t-29 -49.5t-9 -86.5v-107h295v-217h-295v-936h-272v936l-203 20v197h203v107
q0 106 25 175.5t73.5 111t120.5 58.5t166 17q48 0 97.5 -3.5t94 -8t82 -10t62.5 -9.5h268v-495q30 16 69 31.5t85 27.5t97.5 19.5t106.5 7.5q107 0 179.5 -31t117 -89t63.5 -142t19 -189v-731h-272z" />
    <glyph glyph-name="f_f_h" unicode="ffh" horiz-adv-x="2836" 
d="M2421 0v727q0 67 -9.5 110.5t-31 69.5t-56.5 36.5t-86 10.5q-41 0 -81.5 -6t-77 -15t-68 -20t-53.5 -22v-891h-272v1413q-22 1 -53.5 3t-68.5 3.5t-77 2.5t-78 1q-47 0 -79.5 -5t-53 -22t-30 -49.5t-9.5 -86.5v-107h295v-217h-295v-936h-268v936h-449v-936h-272v936
l-203 20v197h203v111q0 79 13 145t48.5 113t98.5 73.5t163 26.5q36 0 73 -3t70 -8t60 -10.5t45 -11.5v-172q-16 1 -38 2.5t-46.5 2t-49.5 1t-48 0.5q-42 0 -65.5 -9t-35 -28.5t-14 -50.5t-2.5 -75v-107h449v107q0 106 24.5 175.5t73 111t120 58.5t165.5 17q46 0 94.5 -3.5
t93.5 -8t83 -10t63 -9.5h272v-495q29 16 67.5 31.5t84.5 27.5t97.5 19.5t106.5 7.5q108 0 180 -31t116 -89t62.5 -142t18.5 -189v-731h-270z" />
    <glyph glyph-name="f_j" unicode="fj" horiz-adv-x="1399" 
d="M741 -244q25 -2 54 -2h63q36 0 58 7t34.5 24t16.5 46t4 73v1032h-451v-936h-272v936l-203 20v197h203v111q0 79 13.5 145t49.5 113t99 73.5t161 26.5q36 0 73 -3t70 -8t60 -10.5t45 -11.5v-172q-16 1 -38 2.5t-46.5 2t-49.5 1t-48 0.5q-41 0 -64.5 -9t-35 -28.5
t-14.5 -50.5t-3 -75v-107h721v-1249q0 -98 -18 -165.5t-57 -109.5t-101 -61t-150 -19q-29 0 -56.5 2t-51 4.5t-40.5 5.5t-26 5v190zM965 1331v260h280v-260h-280z" />
    <glyph glyph-name="f_f_j" unicode="ffj" horiz-adv-x="2118" 
d="M1460 -244q23 -2 52.5 -2h64.5t57 7t34 24t16 46t4 73v1032h-451v-936h-270v936h-449v-936h-270v936l-205 20v197h205v111q0 79 13.5 145t49.5 113t98 73.5t160 26.5q36 0 73 -3t70 -8t60 -10.5t45 -11.5v-172q-15 1 -37 2.5t-46.5 2t-50 1t-48.5 0.5q-41 0 -64.5 -9.5
t-35 -30t-14.5 -51t-3 -72.5v-107h449v111q0 79 13.5 145t49 113t98.5 73.5t162 26.5q36 0 72.5 -3t69 -8t59.5 -10.5t45 -11.5v-172q-16 1 -37.5 2.5t-46 2t-49.5 1t-49 0.5q-41 0 -64.5 -9t-35 -28.5t-14.5 -50.5t-3 -75v-107h721v-1249q0 -98 -17.5 -165.5t-56 -109.5
t-100.5 -61t-150 -19q-30 0 -58 2t-51 4.5t-40 5.5t-25 5v190zM1681 1331v260h283v-260h-283z" />
    <glyph glyph-name="f_k" unicode="fk" horiz-adv-x="1993" 
d="M1645 0l-408 547v-547h-268v1413q-23 1 -54.5 3t-68.5 3.5t-77 2.5t-79 1q-47 0 -79.5 -5t-52.5 -22t-29 -49.5t-9 -86.5v-107h295v-217h-295v-936h-272v936l-203 20v197h203v107q0 106 25.5 175.5t74 111t120.5 58.5t165 17q48 0 97.5 -3.5t94 -8t82 -10t62.5 -9.5h268
v-952l410 514h309l-447 -553l459 -600h-323z" />
    <glyph glyph-name="f_f_k" unicode="ffk" horiz-adv-x="2712" 
d="M2363 0l-407 547v-547h-270v1413q-23 1 -54.5 3t-68.5 3.5t-76.5 2.5t-77.5 1q-47 0 -79.5 -5t-53 -22t-30 -49.5t-9.5 -86.5v-107h297v-217h-297v-936h-270v936h-447v-936h-272v936l-203 20v197h203v111q0 79 13.5 145t49 113t98.5 73.5t162 26.5q36 0 73 -3t70 -8
t60 -10.5t45 -11.5v-172q-15 1 -37 2.5t-46.5 2t-50 1t-48.5 0.5q-42 0 -65.5 -9t-35 -28.5t-14 -50.5t-2.5 -75v-107h447v107q0 106 25 175.5t73.5 111t120 58.5t164.5 17q48 0 97.5 -3.5t94 -8t82 -10t62.5 -9.5h270v-952l409 514h310l-447 -553l459 -600h-324z" />
    <glyph glyph-name=".notdef" horiz-adv-x="2048" 
d="M1792 0h-1536v1536h1536v-1536zM1663 129v1278h-1278v-1278h1278z" />
    <glyph glyph-name=".null" horiz-adv-x="0" 
 />
    <glyph glyph-name="nonmarkingreturn" horiz-adv-x="401" 
 />
    <glyph glyph-name="space" unicode=" " horiz-adv-x="401" 
 />
    <glyph glyph-name="exclam" unicode="!" horiz-adv-x="616" 
d="M170 0v313h276v-313h-276zM186 432l-26 1159h297l-25 -1159h-246z" />
    <glyph glyph-name="quotedbl" unicode="&#x22;" horiz-adv-x="840" 
d="M41 1049l51 520h250l-106 -520h-195zM496 1049l53 520h250l-109 -520h-194z" />
    <glyph glyph-name="numbersign" unicode="#" horiz-adv-x="1546" 
d="M840 0l41 379h-312l-43 -379h-229l43 379h-188v199h208l37 346h-245v196h268l45 402h229l-43 -402h310l47 402h229l-43 -402h199v-196h-222l-38 -346h260v-199h-281l-43 -379h-229zM940 924h-311l-39 -346h313z" />
    <glyph glyph-name="dollar" unicode="$" horiz-adv-x="1323" 
d="M539 -254v225q-60 2 -117 7t-105.5 11t-86.5 12.5t-60 12.5v211q95 -9 205.5 -16.5t253.5 -7.5q139 0 205.5 46.5t66.5 149.5q0 36 -9 66t-30.5 55.5t-58.5 49.5t-94 48l-242 103q-79 33 -141 71t-105 88.5t-65.5 117t-22.5 155.5q0 178 102 273t304 120v215h241v-211
q58 -2 112.5 -7.5t101.5 -12t83.5 -13t59.5 -12.5v-209q-57 6 -111 11t-108.5 8.5t-110 5.5t-115.5 2q-67 0 -118 -8t-85.5 -27t-52.5 -50t-18 -77q0 -36 8 -64t29 -52t57.5 -46t93.5 -45l238 -98q88 -37 153 -78.5t107.5 -94t63 -118.5t20.5 -153q0 -191 -105 -299
t-303 -134v-231h-241z" />
    <glyph glyph-name="percent" unicode="%" horiz-adv-x="2275" 
d="M2165 410q0 -212 -95.5 -322.5t-285.5 -110.5q-191 0 -287 111t-96 322v92q0 211 95.5 320.5t287.5 109.5q190 0 285.5 -109.5t95.5 -320.5v-92zM1950 502q0 78 -12.5 128t-34.5 78.5t-52.5 39t-66.5 10.5q-37 0 -67.5 -10.5t-53 -39t-35 -78.5t-12.5 -128v-92
q0 -78 12.5 -127.5t35 -78t53 -39.5t67.5 -11q36 0 66.5 11t52.5 39.5t34.5 78t12.5 127.5v92zM514 0l993 1524h244l-995 -1524h-242zM868 1028q0 -98 -20 -178t-65 -137t-117 -88t-177 -31t-177.5 32t-117.5 89.5t-65 137.5t-20 175v88q0 96 20 176t65 137t117.5 89
t177.5 32t177 -30.5t117 -87.5t65 -137t20 -179v-88zM655 1116q0 76 -10 126t-30 80t-51.5 42t-74.5 12t-74 -13t-51.5 -43.5t-30 -80.5t-9.5 -123v-88q0 -75 9.5 -125t30 -79.5t51.5 -41.5t74 -12t74.5 12t51.5 41.5t30 79.5t10 125v88z" />
    <glyph glyph-name="ampersand" unicode="&#x26;" horiz-adv-x="1593" 
d="M1202 0l-102 94q-76 -56 -187 -90.5t-264 -34.5q-111 0 -208.5 20.5t-171 67.5t-116 125t-42.5 193v14q0 71 18 127.5t54 104.5t90 89.5t126 82.5l-16 16q-48 48 -86 92.5t-65 90.5t-41.5 95.5t-14.5 108.5v8q0 92 33.5 158t96.5 108t154 62t206 20q60 0 123.5 -4
t125 -11t117.5 -16t101 -18v-203q-103 10 -221.5 16.5t-229.5 6.5q-52 0 -94.5 -6t-72.5 -22.5t-46 -45t-16 -73.5q0 -36 8 -64t26.5 -56t48 -59.5t72.5 -72.5l508 -496q32 66 45 146.5t13 166.5l-105 17v160h436v-160l-104 -17q0 -136 -30.5 -258t-96.5 -221l211 -203v-59
h-283zM563 618q-45 -23 -77.5 -45.5t-53.5 -49.5t-31 -59.5t-10 -74.5v-14q0 -54 22 -92t59.5 -62.5t87 -35.5t104.5 -11q96 0 166.5 19.5t121.5 54.5z" />
    <glyph glyph-name="quotesingle" unicode="'" horiz-adv-x="383" 
d="M41 1049l51 520h250l-106 -520h-195z" />
    <glyph glyph-name="parenleft" unicode="(" horiz-adv-x="772" 
d="M444 -416q-53 69 -109 165t-102.5 217.5t-76 267t-29.5 311.5v14q0 167 29.5 312.5t76 267t102.5 218t109 165.5h252q-68 -100 -123.5 -206.5t-95 -224.5t-61 -249.5t-21.5 -282.5v-14q0 -152 21.5 -283.5t61 -249.5t95 -223.5t123.5 -204.5h-252z" />
    <glyph glyph-name="parenright" unicode=")" horiz-adv-x="772" 
d="M76 -416q69 99 124.5 204.5t95 223.5t60.5 249.5t21 283.5v14q0 151 -21 282.5t-60.5 249.5t-95 224.5t-124.5 206.5h252q53 -69 109 -165.5t101.5 -218t75 -267t29.5 -312.5v-14q0 -166 -29.5 -311.5t-75 -267t-101.5 -217.5t-109 -165h-252z" />
    <glyph glyph-name="asterisk" unicode="*" horiz-adv-x="1108" 
d="M715 776l-82 109q-22 29 -41.5 61.5t-38.5 67.5q-19 -35 -39.5 -67t-40.5 -60l-82 -111l-168 127l84 111q20 28 46 56t55 54q-81 13 -150 35l-133 41l63 207l134 -43q34 -11 70.5 -25t70.5 -32q-5 38 -8.5 75.5t-3.5 71.5v137h206v-137q0 -35 -4 -73t-12 -78q37 20 74 34
t69 25l136 45l63 -207l-135 -43q-32 -11 -70.5 -19.5t-79.5 -13.5q28 -28 53.5 -57t47.5 -55l84 -109z" />
    <glyph glyph-name="plus" unicode="+" horiz-adv-x="1411" 
d="M811 682v-414h-209v414h-426v223h426v414h209v-414h422v-223h-422z" />
    <glyph glyph-name="comma" unicode="," horiz-adv-x="641" 
d="M53 -188l193 505h293l-256 -505h-230z" />
    <glyph glyph-name="hyphen" unicode="-" horiz-adv-x="791" 
d="M135 496v213h520v-213h-520z" />
    <glyph glyph-name="period" unicode="." horiz-adv-x="567" 
d="M147 0v315h273v-315h-273z" />
    <glyph glyph-name="slash" unicode="/" horiz-adv-x="928" 
d="M29 0l600 1522h268l-596 -1522h-272z" />
    <glyph glyph-name="zero" unicode="0" horiz-adv-x="1376" 
d="M1268 647q0 -332 -146.5 -506t-433.5 -174t-433 174t-146 506v225q0 332 146 506t433 174t433.5 -174t146.5 -506v-225zM981 872q0 128 -21.5 213t-60 135.5t-92.5 71.5t-119 21t-118.5 -21t-92.5 -71.5t-60.5 -135.5t-21.5 -213v-225q0 -128 21.5 -213t60.5 -135.5
t92.5 -71t118.5 -20.5t119 20.5t92.5 71t60 135.5t21.5 213v225z" />
    <glyph glyph-name="one" unicode="1" horiz-adv-x="1194" 
d="M117 0v217l340 14v1022l-342 -98v229l420 146h204v-1299l340 -14v-217h-962z" />
    <glyph glyph-name="two" unicode="2" horiz-adv-x="1270" 
d="M119 0v190q0 90 11 161.5t34 130.5t59.5 108t88 93t118.5 86t152 87q92 49 149 86.5t89 71t43 67.5t11 76q0 47 -16 78.5t-52.5 51t-95.5 28t-145 8.5q-51 0 -107.5 -2t-111.5 -6t-105.5 -8.5t-88.5 -10.5v199q40 12 93 22t112 18t121.5 12.5t123.5 4.5q144 0 250 -22.5
t175 -69t102.5 -119t33.5 -172.5q0 -75 -20 -138.5t-67 -122t-125 -114.5t-195 -116q-114 -59 -184.5 -104t-108.5 -90t-51 -97t-13 -127v-22h742v-238h-1022z" />
    <glyph glyph-name="three" unicode="3" horiz-adv-x="1278" 
d="M1167 418q0 -125 -36.5 -211t-108 -139t-178 -77t-246.5 -24q-69 0 -139.5 6.5t-132.5 16t-111.5 21t-77.5 20.5v198q33 -5 83 -10t109 -9.5t123 -7.5t126 -3q76 0 133.5 9t95.5 34t57 70t19 116v41q0 45 -8 82.5t-33 64.5t-72.5 41.5t-126.5 14.5h-428v217h428
q79 0 126.5 16t72.5 44t33 66t8 83v24q0 58 -14.5 96.5t-49.5 61.5t-94.5 32t-149.5 9q-120 0 -233.5 -8.5t-200.5 -18.5v201q19 6 67 15.5t112 19t136.5 16t141.5 6.5q140 0 246.5 -21t178 -69t108 -127t36.5 -196v-25q0 -50 -9.5 -98.5t-31.5 -92t-56.5 -80t-84.5 -61.5
q51 -24 85.5 -59t56 -77t31 -89.5t9.5 -97.5v-41z" />
    <glyph glyph-name="four" unicode="4" horiz-adv-x="1397" 
d="M801 0v367h-711v235l725 920h270v-930h218v-225h-218v-367h-284zM809 1174l-473 -582h473v582z" />
    <glyph glyph-name="five" unicode="5" horiz-adv-x="1255" 
d="M1145 440q0 -130 -39 -220t-114 -146.5t-183.5 -81.5t-247.5 -25q-78 0 -151.5 6.5t-134.5 15.5t-106.5 18.5t-68.5 15.5v204q34 -3 81 -8t102.5 -10t116 -8.5t120.5 -3.5q94 0 158.5 12t105 39.5t58.5 74t18 115.5v47q0 63 -14.5 106.5t-52 70.5t-102.5 39t-167 12h-401
l67 809h904v-236h-670l-33 -352h176q159 0 269 -25.5t179 -80t99.5 -139t30.5 -202.5v-47z" />
    <glyph glyph-name="six" unicode="6" horiz-adv-x="1352" 
d="M1239 463q0 -99 -24 -174.5t-65 -130.5t-95.5 -92t-116 -59t-126.5 -31t-126 -9q-129 0 -235.5 28.5t-182 99.5t-117.5 191t-42 302v360q0 144 28 256t96 189.5t183.5 118t290.5 40.5q73 0 145 -6t133.5 -14t109.5 -17.5t74 -15.5v-205q-99 11 -208 19t-230 8
q-116 0 -183 -22.5t-101.5 -66t-44 -106t-9.5 -143.5v-59q32 8 72.5 15t83 12t84 7.5t74.5 2.5q71 0 138.5 -6.5t126.5 -24t108 -47.5t84.5 -77t55 -113.5t19.5 -155.5v-74zM956 528q0 73 -18 118t-52.5 70t-85.5 33.5t-118 8.5q-26 0 -60 -1.5t-71.5 -4.5t-78 -8.5
t-79.5 -14.5v-184q0 -107 20 -176t58 -108.5t92.5 -55t124.5 -15.5q56 0 105 15.5t85 48.5t57 85t21 124v65z" />
    <glyph glyph-name="seven" unicode="7" horiz-adv-x="1241" 
d="M182 0l699 1286h-787v236h1063v-265l-668 -1257h-307z" />
    <glyph glyph-name="eight" unicode="8" horiz-adv-x="1401" 
d="M1284 436q0 -108 -22.5 -184.5t-62 -129t-94 -83t-119 -47t-136 -21t-145.5 -4.5h-9q-74 0 -146 4.5t-136 21t-118.5 47t-94 83t-62 129t-22.5 184.5v17q0 122 41.5 201t124.5 132q-76 48 -119 125t-43 197v20q0 89 21.5 155t60 113.5t92 77.5t117.5 47.5t136 24t148 6.5
h9q75 0 147 -6.5t135.5 -24t117 -47.5t92 -77.5t60 -113.5t21.5 -155v-20q0 -120 -43 -197t-119 -125q83 -53 125.5 -132t42.5 -201v-17zM1001 455q-1 60 -10.5 103t-31 71t-58 41.5t-90.5 13.5h-223q-55 0 -91.5 -13.5t-58.5 -41.5t-31.5 -71t-9.5 -103v-15
q0 -84 21.5 -134.5t61 -77.5t94.5 -35.5t122 -8.5h9q66 0 120.5 8.5t93.5 35.5t60.5 77.5t21.5 134.5v15zM997 1122q0 66 -21.5 107t-60 64.5t-92.5 31.5t-118 8h-9q-65 0 -119.5 -8t-93.5 -31.5t-60.5 -64.5t-21.5 -107v-20q0 -49 8.5 -88t30 -66t57.5 -41t91 -14h223
q54 0 90 14t57.5 41t30 66t8.5 88v20z" />
    <glyph glyph-name="nine" unicode="9" horiz-adv-x="1352" 
d="M956 596q-32 -9 -72.5 -15.5t-83 -11.5t-83.5 -7.5t-74 -2.5q-108 0 -204.5 16t-170 62t-116.5 129t-43 217v72q0 99 24 174.5t65 131t95.5 92t116 59t126 31.5t126.5 9q130 0 236 -28.5t182 -98.5t117.5 -188.5t41.5 -298.5v-365q0 -142 -27 -254.5t-95 -190.5
t-183 -119.5t-291 -41.5q-74 0 -145.5 5.5t-133.5 14t-110 17.5t-74 16v205q38 -4 89 -8.5t109 -9t120.5 -7.5t124.5 -3q114 0 180.5 23t100.5 67t43 107t9 143v59zM956 973q0 108 -20 177t-57.5 108.5t-92 55t-124.5 15.5q-56 0 -105.5 -16t-86.5 -49t-58 -84.5t-21 -122.5
v-68q0 -72 18 -116.5t53.5 -69t87 -33t118.5 -8.5q26 0 59.5 1.5t71.5 4.5t78 8.5t79 14.5v182z" />
    <glyph glyph-name="colon" unicode=":" horiz-adv-x="586" 
d="M156 0v317h272v-317h-272zM156 836v317h272v-317h-272z" />
    <glyph glyph-name="semicolon" unicode=";" horiz-adv-x="610" 
d="M4 -188l178 505h297l-250 -505h-225zM184 836v317h273v-317h-273z" />
    <glyph glyph-name="less" unicode="&#x3c;" horiz-adv-x="1411" 
d="M836 260l-584 535l584 532h321l-582 -532l582 -535h-321z" />
    <glyph glyph-name="equal" unicode="=" horiz-adv-x="1411" 
d="M225 422v225h959v-225h-959zM225 938v227h959v-227h-959z" />
    <glyph glyph-name="greater" unicode="&#x3e;" horiz-adv-x="1411" 
d="M573 260h-321l582 535l-582 532h321l584 -532z" />
    <glyph glyph-name="question" unicode="?" horiz-adv-x="1038" 
d="M240 0v315h270v-315h-270zM250 434v66q0 65 5 118t23.5 102.5t54 100.5t97.5 113q54 54 88.5 94t54.5 73.5t27.5 63.5t7.5 62v14q0 42 -14 69t-42.5 42.5t-71 21.5t-99.5 6q-72 0 -155.5 -6t-162.5 -12v199q82 26 182.5 41.5t209.5 15.5q111 0 196.5 -19t143 -60t87 -105
t29.5 -154v-16q0 -51 -10.5 -96.5t-35.5 -92t-65.5 -96.5t-101.5 -109q-71 -70 -111 -118.5t-60.5 -88.5t-25.5 -77.5t-5 -85.5v-66h-246z" />
    <glyph glyph-name="at" unicode="@" horiz-adv-x="1708" 
d="M1178 -195q-18 -3 -56.5 -8.5t-89.5 -10.5t-110.5 -9t-118.5 -4q-186 0 -319 38.5t-217.5 112.5t-124.5 181.5t-40 244.5q0 81 7.5 157t19.5 142q66 361 272 534t560 173q167 0 296.5 -39t218 -115t134 -188t45.5 -258q0 -144 -38 -264.5t-126.5 -208t-232.5 -136.5
t-357 -49q-114 0 -197 18.5t-136.5 58t-79 100.5t-25.5 145q0 168 27.5 280.5t82 180.5t135.5 96.5t187 28.5q97 0 187 -12.5t167 -30.5l-67 -658q79 19 136.5 59t94.5 97.5t54.5 132.5t17.5 164q0 233 -133.5 346t-399.5 113q-140 0 -250 -35t-191 -107.5t-134.5 -184.5
t-81.5 -265q-12 -63 -18.5 -131.5t-6.5 -143.5q0 -108 27 -191.5t89.5 -140.5t164.5 -86.5t252 -29.5q59 0 120.5 2t114 5t90.5 6t50 5v-115zM1010 819q-25 3 -59 3.5t-62 0.5q-33 0 -61 -5.5t-51.5 -20.5t-42 -43t-31 -73t-19 -109.5t-6.5 -153.5q0 -43 11 -72t35 -46
t62 -24.5t93 -7.5h39.5t37.5 2z" />
    <glyph glyph-name="A" unicode="A" horiz-adv-x="1444" 
d="M1096 0l-131 426h-490l-135 -426h-293l461 1522h428l461 -1522h-301zM782 1081q-17 57 -29.5 117.5t-23.5 122.5h-18q-13 -62 -25 -122.5t-29 -117.5l-129 -419h381z" />
    <glyph glyph-name="B" unicode="B" horiz-adv-x="1382" 
d="M1278 440q0 -143 -50.5 -231.5t-140.5 -137.5t-214 -66t-271 -17q-65 0 -115 0.5t-98 2t-101.5 4t-125.5 5.5v1522q75 3 130 5t104 3.5t99 2.5t115 1q153 0 275 -16.5t207.5 -62t131.5 -126.5t46 -209v-18q0 -49 -11 -96.5t-34.5 -89.5t-60 -76.5t-87.5 -57.5
q54 -22 92 -56.5t62.5 -77t35.5 -90.5t11 -97v-21zM997 463q-1 50 -14.5 90t-47 68.5t-90.5 43.5t-145 15h-260v-457h78q117 0 206 3.5t150 24t92 64.5t31 125v23zM991 1110q0 65 -25 102.5t-74 56.5t-120 24t-162 5h-170v-411h258q88 0 145 14t90 40.5t45.5 64.5t12.5 86
v18z" />
    <glyph glyph-name="C" unicode="C" horiz-adv-x="1202" 
d="M1139 6q-26 -6 -70.5 -13t-97.5 -12.5t-109 -9.5t-106 -4q-147 0 -266.5 31.5t-205 110.5t-132 212.5t-46.5 337.5v203q0 204 46.5 337.5t132 212t205 109.5t266.5 31q50 0 106 -4t109 -10t97.5 -13.5t70.5 -13.5v-227q-38 3 -83 6.5t-93 6t-96 4.5t-93 2
q-96 0 -167.5 -19.5t-119 -69.5t-71 -135.5t-23.5 -216.5v-203q0 -131 23.5 -216.5t71 -135.5t119 -70t167.5 -20q45 0 93 1.5t96 4.5t93 6.5t83 6.5v-230z" />
    <glyph glyph-name="D" unicode="D" horiz-adv-x="1446" 
d="M1339 668q0 -168 -38.5 -295.5t-122.5 -213t-217.5 -128.5t-323.5 -43q-70 0 -127 0.5t-111.5 2t-111 4t-125.5 5.5v1522q69 3 123.5 5t107.5 3.5t111 2.5t133 1q185 0 317.5 -42.5t218 -127.5t126 -211t40.5 -293v-192zM1055 860q0 124 -25 207t-77 132.5t-132 70
t-190 20.5h-189v-1061h189q110 0 190 22t132 73t77 135t25 209v192z" />
    <glyph glyph-name="E" unicode="E" horiz-adv-x="1237" 
d="M162 0v1522h968v-238h-681v-387h638v-229h-638v-432h681v-236h-968z" />
    <glyph glyph-name="F" unicode="F" horiz-adv-x="1217" 
d="M162 0v1522h968v-240h-681v-385h638v-229h-638v-668h-287z" />
    <glyph glyph-name="G" unicode="G" horiz-adv-x="1370" 
d="M969 811h272v-797q-32 -7 -82.5 -15t-115.5 -15t-141.5 -12t-158.5 -5q-87 0 -168 12.5t-152 43t-129 81t-100 126.5t-65 180.5t-23 242.5v215q0 145 26 252.5t71 183.5t106.5 124t133 76t150 38t157.5 10q84 0 164 -6t146.5 -14t113.5 -16.5t65 -14.5v-219
q-37 3 -95.5 6.5t-122 7t-123.5 5.5t-99 2q-93 0 -168.5 -14.5t-128.5 -60.5t-82 -132t-29 -228v-215q0 -131 23.5 -215t70.5 -133.5t117 -68.5t162 -19q57 0 110.5 1.5t94.5 4.5v588z" />
    <glyph glyph-name="H" unicode="H" horiz-adv-x="1563" 
d="M1114 0v670h-665v-670h-287v1522h287v-607h665v607h287v-1522h-287z" />
    <glyph glyph-name="I" unicode="I" horiz-adv-x="610" 
d="M162 0v1522h287v-1522h-287z" />
    <glyph glyph-name="J" unicode="J" horiz-adv-x="608" 
d="M-90 -227q32 -2 61.5 -2h63.5q43 0 68.5 7.5t38.5 25t16.5 45t3.5 67.5v1606h284v-1598q0 -97 -19.5 -166t-62.5 -113.5t-111.5 -65.5t-166.5 -21q-21 0 -46.5 1t-50 3t-45.5 5t-34 7v199z" />
    <glyph glyph-name="K" unicode="K" horiz-adv-x="1405" 
d="M1022 0l-565 717v-717h-287v1522h287v-709l585 709h344l-628 -750l624 -772h-360z" />
    <glyph glyph-name="L" unicode="L" horiz-adv-x="1147" 
d="M162 0v1522h287v-1280h645v-242h-932z" />
    <glyph glyph-name="M" unicode="M" horiz-adv-x="1751" 
d="M1311 0v844q0 36 0.5 68t2 63t3.5 63t4 68h-4q-25 -57 -52 -108.5t-53 -102.5l-225 -428h-227l-221 428q-26 50 -50.5 103.5t-52.5 107.5h-4q1 -36 2.5 -67.5t3 -62.5t2 -63t0.5 -69v-844h-278v1522h311l305 -596q23 -45 47 -95t45 -98h4q22 50 46 100t49 97l309 592h311
v-1522h-278z" />
    <glyph glyph-name="N" unicode="N" horiz-adv-x="1518" 
d="M1022 0l-487 903q-28 53 -58.5 111.5t-56.5 115.5h-4q3 -65 5.5 -134t2.5 -138v-858h-262v1522h332l485 -885q28 -53 60 -114.5t57 -116.5h4q-5 68 -6.5 143.5t-1.5 144.5v828h264v-1522h-334z" />
    <glyph glyph-name="O" unicode="O" horiz-adv-x="1464" 
d="M1358 672q0 -185 -43.5 -318.5t-125 -219.5t-197.5 -126.5t-261 -40.5t-261 40.5t-197 126.5t-124 219.5t-43 318.5v178q0 184 43.5 317t124.5 218.5t197 126t260 40.5t260 -40.5t197.5 -126t125.5 -218.5t44 -317v-178zM1073 848q0 127 -24 214.5t-68.5 140.5t-108 76.5
t-141.5 23.5t-140.5 -23.5t-107 -76.5t-68.5 -140.5t-24 -214.5v-176q0 -128 24.5 -215.5t69 -141t107 -77t139.5 -23.5q78 0 141 23.5t107.5 77t69 141t24.5 215.5v176z" />
    <glyph glyph-name="P" unicode="P" horiz-adv-x="1327" 
d="M162 0v1522q109 6 212.5 8t215.5 2q93 0 179 -7t160 -26.5t134.5 -53t104 -86.5t67.5 -128t25 -176v-23q0 -102 -23.5 -178t-66.5 -129.5t-103 -88t-132.5 -54.5t-155 -27.5t-171.5 -7.5h-82.5t-85.5 2v-549h-278zM979 1055q-1 88 -32.5 136t-93.5 70t-155 25.5t-217 3.5
h-41v-499q41 -2 81.5 -2.5t82.5 -0.5q94 0 164 10t117 37t70.5 74.5t23.5 122.5v23z" />
    <glyph glyph-name="Q" unicode="Q" horiz-adv-x="1464" 
d="M1163 -369q-17 -5 -46.5 -10.5t-65.5 -10t-76 -7t-78 -2.5q-68 0 -124 11.5t-96 43.5t-61.5 88t-21.5 145v93q-115 18 -205.5 68.5t-153.5 135.5t-96 205t-33 277v184q0 184 44 316.5t125.5 217.5t197 125.5t258.5 40.5q144 0 259.5 -40.5t197.5 -125.5t126 -217.5
t44 -316.5v-184q0 -158 -34 -278.5t-98 -206t-155.5 -136t-206.5 -67.5v-86q0 -26 4.5 -42.5t18 -25.5t38.5 -12.5t66 -3.5h172v-179zM1073 852q0 127 -24.5 213t-69 139t-107.5 76t-141 23t-140.5 -23t-107 -76t-68.5 -139t-24 -213v-184q0 -127 24.5 -213.5t69 -140
t107 -76.5t139.5 -23q78 0 141 23t107.5 76.5t69 140t24.5 213.5v184z" />
    <glyph glyph-name="R" unicode="R" horiz-adv-x="1386" 
d="M1051 0l-336 563q-31 -2 -64.5 -2h-68.5h-142v-561h-278v1522q102 5 206 7.5t220 2.5q91 0 176.5 -7.5t159.5 -26.5t135.5 -53t105.5 -86.5t68 -127t24 -174.5v-15q0 -87 -18 -153.5t-52 -117.5t-82.5 -87.5t-109.5 -62.5l359 -621h-303zM977 1053q0 88 -31.5 136
t-97 70.5t-167 26.5t-241.5 4v-499q41 -2 79.5 -2.5t78.5 -0.5q98 0 169.5 12t118 40.5t69 77t22.5 122.5v13z" />
    <glyph glyph-name="S" unicode="S" horiz-adv-x="1262" 
d="M141 233q94 -9 204 -16.5t253 -7.5q138 0 205 42.5t67 145.5q0 37 -8.5 66.5t-30 55t-58 48.5t-93.5 47l-229 95q-85 34 -149.5 76.5t-108.5 96t-66.5 120t-22.5 149.5q0 111 34.5 187.5t103 124t170.5 68.5t237 21q72 0 140.5 -5t127 -12.5t104.5 -16t73 -15.5v-217
q-88 8 -200 17.5t-232 9.5q-67 0 -118.5 -7t-86 -24t-52.5 -47t-18 -76q0 -35 9 -62t31.5 -50t60 -44.5t94.5 -44.5l206 -84q100 -41 171 -84t116 -97.5t65.5 -125.5t20.5 -168q0 -104 -36.5 -184t-105.5 -135.5t-169.5 -84t-228.5 -28.5q-75 0 -148.5 4.5t-137.5 11.5
t-115 15t-79 16v219z" />
    <glyph glyph-name="T" unicode="T" horiz-adv-x="1311" 
d="M512 0v1284h-455v238h1196v-238h-454v-1284h-287z" />
    <glyph glyph-name="U" unicode="U" horiz-adv-x="1497" 
d="M1065 1522h281v-899q0 -329 -153.5 -492.5t-442.5 -163.5q-291 0 -444.5 163.5t-153.5 492.5v899h282v-885q0 -115 15 -195.5t51.5 -131.5t97 -74t152.5 -23q90 0 150.5 23t97 74t52 131.5t15.5 195.5v885z" />
    <glyph glyph-name="V" unicode="V" horiz-adv-x="1456" 
d="M518 0l-459 1522h295l314 -1055q10 -33 18 -68.5t15 -71t13.5 -69t14.5 -63.5h4q13 61 27.5 133.5t34.5 138.5l313 1055h289l-461 -1522h-418z" />
    <glyph glyph-name="W" unicode="W" horiz-adv-x="1942" 
d="M1208 0l-192 805q-13 51 -22 103t-21 100h-4q-13 -48 -22 -100t-21 -103l-191 -805h-387l-264 1522h291l151 -922q13 -74 22.5 -150t20.5 -145h9q17 71 31.5 142.5t31.5 140.5l160 669h346l160 -675q15 -68 31 -138t30 -139h8q10 72 19.5 144.5t23.5 150.5l154 922h285
l-267 -1522h-383z" />
    <glyph glyph-name="X" unicode="X" horiz-adv-x="1440" 
d="M1065 0l-371 541l-356 -541h-283l500 776l-494 746h316l364 -525l349 525h282l-493 -758l505 -764h-319z" />
    <glyph glyph-name="Y" unicode="Y" horiz-adv-x="1364" 
d="M543 0v569l-508 953h299l239 -441q28 -52 56.5 -115t50.5 -120h12q10 28 23.5 59t28.5 61.5t30 59.5t29 55l239 441h287l-508 -953v-569h-278z" />
    <glyph glyph-name="Z" unicode="Z" horiz-adv-x="1313" 
d="M109 0v260l749 1020h-725v242h1047v-262l-748 -1020h772v-240h-1095z" />
    <glyph glyph-name="bracketleft" unicode="[" horiz-adv-x="862" 
d="M201 -418v1940h553v-226h-285v-1491h285v-223h-553z" />
    <glyph glyph-name="backslash" unicode="\" horiz-adv-x="975" 
d="M649 0l-596 1522h269l598 -1522h-271z" />
    <glyph glyph-name="bracketright" unicode="]" horiz-adv-x="862" 
d="M106 -418v223h285v1493h-285v224h553v-1940h-553z" />
    <glyph glyph-name="asciicircum" unicode="^" horiz-adv-x="1411" 
d="M971 866l-266 539l-265 -539h-270l330 660h409l330 -660h-268z" />
    <glyph glyph-name="underscore" unicode="_" horiz-adv-x="1214" 
d="M4 -258v160h1204v-160h-1204z" />
    <glyph glyph-name="grave" unicode="`" horiz-adv-x="965" 
d="M426 1282l-324 303h314l268 -303h-258z" />
    <glyph glyph-name="a" unicode="a" horiz-adv-x="1182" 
d="M797 0v76q-27 -18 -64.5 -37t-83.5 -34.5t-101 -25.5t-116 -10q-161 0 -249.5 81.5t-88.5 248.5v43q0 115 39.5 184t111.5 105.5t172 47.5t222 11h137v72q0 61 -8.5 99.5t-34.5 60t-73 29t-123 7.5q-87 0 -177 -5.5t-186 -16.5v182q18 8 58 19t94.5 21t120 17t135.5 7
q138 0 228 -24t142.5 -75t73.5 -130.5t21 -190.5v-762h-250zM782 524h-143q-75 0 -128.5 -6t-88 -24t-50.5 -52.5t-16 -91.5v-49q0 -40 12 -66t33 -41.5t51 -21.5t66 -6q42 0 82.5 7.5t75.5 18t63 23t43 21.5v288z" />
    <glyph glyph-name="b" unicode="b" horiz-adv-x="1262" 
d="M1157 512q0 -146 -34.5 -249t-102.5 -168.5t-170.5 -95.5t-237.5 -30q-57 0 -107 1.5t-103.5 5.5t-114 10.5t-137.5 15.5v1589h270v-463q63 31 133.5 43.5t136.5 12.5q240 0 353.5 -125t113.5 -387v-160zM887 674q0 78 -12 131.5t-39.5 86.5t-72 47.5t-108.5 14.5
q-19 0 -48.5 -2t-62.5 -6.5t-66 -13t-60 -21.5v-702q34 -2 84.5 -5t113.5 -3q71 0 122 14.5t84 50t49 95.5t16 151v162z" />
    <glyph glyph-name="c" unicode="c" horiz-adv-x="1028" 
d="M946 12q-20 -5 -53.5 -12.5t-78.5 -14.5t-101.5 -11.5t-122.5 -4.5q-249 0 -367.5 137.5t-118.5 397.5v145q0 264 118.5 398.5t367.5 134.5q66 0 122.5 -4.5t101.5 -11t78.5 -14t53.5 -13.5v-205q-109 9 -185 13.5t-124 4.5q-63 0 -112 -12t-82 -45.5t-50.5 -92.5
t-17.5 -153v-145q0 -93 17.5 -152.5t50.5 -93t82 -46.5t112 -13q48 0 124 4.5t185 13.5v-205z" />
    <glyph glyph-name="d" unicode="d" horiz-adv-x="1262" 
d="M858 0v59q-59 -37 -140 -63.5t-183 -26.5t-182 31t-135.5 95t-84.5 161t-29 229v164q0 152 36.5 254.5t102 164.5t157 88t202.5 26q65 0 123 -6t117 -17v432h270v-1591h-254zM844 936q-59 9 -117 14.5t-98 5.5q-62 0 -109 -11.5t-79.5 -44.5t-49 -93.5t-16.5 -157.5v-164
q0 -77 13 -131.5t41.5 -89t73 -50t107.5 -15.5t121.5 14t112.5 37v686z" />
    <glyph glyph-name="e" unicode="e" horiz-adv-x="1245" 
d="M1096 18q-65 -15 -174 -32t-254 -17q-156 0 -263.5 31.5t-174.5 99.5t-96.5 175.5t-29.5 259.5v71q0 290 131.5 433t389.5 143q144 0 243.5 -44.5t161 -124t88.5 -190t27 -241.5v-90h-772v-21q0 -63 8 -114t39 -87t92.5 -55.5t167.5 -19.5q91 0 196 7.5t220 18.5v-203z
M874 686q0 50 -7.5 100t-33.5 89.5t-75 64.5t-133 25q-81 0 -130.5 -25t-76 -65t-35 -90t-8.5 -99v-18h499v18z" />
    <glyph glyph-name="f" unicode="f" horiz-adv-x="881" 
d="M248 0v936l-203 18v199h203v111q0 79 13.5 145t49 113t98.5 73.5t162 26.5q73 0 137.5 -10t110.5 -23v-172q-43 2 -89 4t-91 2q-42 0 -66 -9t-36 -28.5t-14.5 -50.5t-2.5 -75v-107h295v-217h-295v-936h-272z" />
    <glyph glyph-name="g" unicode="g" horiz-adv-x="1262" 
d="M844 2q-14 -2 -37.5 -5t-52 -5.5t-59 -4t-58.5 -1.5q-127 0 -225.5 29t-166.5 92.5t-103.5 165t-35.5 245.5v129q0 137 32 237.5t101 166.5t176 98.5t257 32.5q57 0 115.5 -2.5t115.5 -6.5t110.5 -9.5t100.5 -10.5v-1196q0 -94 -21.5 -169t-76.5 -127.5t-150.5 -81
t-242.5 -28.5q-75 0 -149 6t-136.5 13.5t-106.5 15.5t-59 11v184q48 -3 102 -6.5t110.5 -6t112.5 -4.5t109 -2q80 0 127 12t72 36.5t32 61t7 85.5v45zM844 944q-9 1 -27.5 3.5t-43.5 4t-55.5 3t-62.5 1.5q-83 0 -136.5 -18.5t-85 -57t-44 -97t-12.5 -138.5v-127
q0 -87 14.5 -145.5t47.5 -94.5t85 -51.5t127 -15.5q27 0 56.5 1.5t56.5 3.5t48.5 4.5t31.5 4.5v719z" />
    <glyph glyph-name="h" unicode="h" 
d="M883 0v727q0 67 -9.5 110.5t-31 69.5t-56.5 36.5t-86 10.5q-41 0 -81.5 -6t-77 -15t-68 -20t-55.5 -22v-891h-268v1591h268v-495q30 16 69 31.5t85 27.5t97.5 19.5t106.5 7.5q107 0 179.5 -31t117 -89t63.5 -142t19 -189v-731h-272z" />
    <glyph glyph-name="i" unicode="i" horiz-adv-x="588" 
d="M158 0v1153h272v-1153h-272zM156 1331v260h278v-260h-278z" />
    <glyph glyph-name="j" unicode="j" horiz-adv-x="588" 
d="M-70 -244q25 -2 54 -2h63q36 0 58 7t33.5 24t15.5 46t4 73v1249h272v-1249q0 -101 -18 -169t-57.5 -109.5t-102.5 -59t-154 -17.5q-25 0 -51 1.5t-49 3.5t-41 5t-27 5v192zM156 1331v260h278v-260h-278z" />
    <glyph glyph-name="k" unicode="k" horiz-adv-x="1174" 
d="M825 0l-407 547v-547h-268v1591h268v-952l409 514h310l-447 -553l459 -600h-324z" />
    <glyph glyph-name="l" unicode="l" horiz-adv-x="586" 
d="M158 0v1591h270v-1591h-270z" />
    <glyph glyph-name="m" unicode="m" horiz-adv-x="1862" 
d="M1448 0v756q0 48 -2.5 85t-16.5 62.5t-43 39t-83 13.5q-25 0 -54 -4.5t-60.5 -13.5t-63.5 -22t-62 -29q5 -34 5.5 -67t0.5 -64v-756h-270v756q0 48 -2.5 85.5t-15 63t-39.5 38.5t-76 13q-32 0 -64.5 -6.5t-65 -17t-62.5 -23.5t-56 -26v-883h-268v1153h258v-92
q71 56 159.5 88.5t184.5 32.5q103 0 165 -33t97 -92q99 68 188.5 96.5t169.5 28.5q81 0 138.5 -17t96 -46.5t60.5 -70t33.5 -87t14.5 -98t3 -103.5v-760h-270z" />
    <glyph glyph-name="n" unicode="n" horiz-adv-x="1298" 
d="M883 0v731q0 62 -6.5 104.5t-24.5 69t-49.5 38t-81.5 11.5q-59 0 -134.5 -20t-168.5 -57v-877h-268v1153h258v-92q94 54 187.5 87.5t190.5 33.5q122 0 195 -33.5t111.5 -93.5t50.5 -143t12 -181v-731h-272z" />
    <glyph glyph-name="o" unicode="o" horiz-adv-x="1249" 
d="M1145 506q0 -274 -134 -405.5t-386 -131.5t-386.5 131.5t-134.5 405.5v141q0 272 134.5 403.5t386.5 131.5t386 -131.5t134 -403.5v-141zM877 647q0 83 -14.5 140.5t-45.5 93.5t-78.5 52.5t-113.5 16.5q-65 0 -112.5 -16.5t-78.5 -52.5t-46 -93.5t-15 -140.5v-141
q0 -83 14.5 -141t45.5 -94.5t78.5 -53t113.5 -16.5t113.5 16.5t78.5 53t45.5 94.5t14.5 141v141z" />
    <glyph glyph-name="p" unicode="p" horiz-adv-x="1260" 
d="M150 -422v1575h251v-76q79 54 166 79.5t172 25.5q97 0 174 -29t131 -93.5t82.5 -168t28.5 -252.5v-107q0 -161 -37 -268.5t-104 -172.5t-160.5 -92.5t-206.5 -27.5q-27 0 -58 2t-61.5 5.5t-59 8t-50.5 9.5v-418h-268zM887 639q0 91 -13.5 151t-41 95.5t-69 50t-97.5 14.5
q-28 0 -55 -2.5t-56.5 -9.5t-63.5 -19t-75 -30v-670q59 -11 112 -16.5t101 -5.5q61 0 109 12.5t81 49t50.5 102t17.5 171.5v107z" />
    <glyph glyph-name="q" unicode="q" horiz-adv-x="1260" 
d="M844 -422v451q-81 -32 -155.5 -46t-143.5 -14q-113 0 -196 30t-137.5 96t-81 170t-26.5 251v102q0 167 35 276t104.5 173t173.5 89.5t242 25.5q55 0 104 -1.5t101 -5t111.5 -10t136.5 -16.5v-1571h-268zM842 942q-17 1 -41.5 2.5t-51 3t-52.5 2t-46 0.5q-71 0 -122.5 -10
t-86 -44.5t-51 -101t-16.5 -178.5v-100q0 -90 10 -150.5t34 -97t64 -52t101 -15.5q40 0 107 9t151 40v692z" />
    <glyph glyph-name="r" unicode="r" horiz-adv-x="831" 
d="M150 0v1153h256v-94q40 36 86.5 59.5t96.5 38t103 20t107 5.5v-248q-53 0 -106.5 -5t-103.5 -14.5t-94 -22.5t-77 -28v-864h-268z" />
    <glyph glyph-name="s" unicode="s" horiz-adv-x="1049" 
d="M111 209q22 -2 63.5 -6t93.5 -9t110 -8.5t114 -3.5q63 0 104 7.5t65 22.5t34 37.5t10 53.5q0 30 -8 50.5t-30.5 38t-62.5 35.5t-104 44l-88 35q-81 32 -141 67.5t-99.5 79t-58.5 96t-19 119.5q0 87 29 147t86.5 97t144 53.5t201.5 16.5q49 0 103.5 -4.5t104.5 -11.5
t90.5 -14.5t61.5 -14.5v-189q-97 10 -189 15.5t-167 5.5q-52 0 -89.5 -3.5t-62 -13.5t-36 -28.5t-11.5 -49.5q0 -27 8.5 -46t29.5 -35t56.5 -31.5t88.5 -36.5l92 -37q93 -38 157 -73t103.5 -77t57 -94.5t18.5 -124.5q0 -81 -28 -145.5t-85.5 -109.5t-145.5 -69t-208 -24
q-60 0 -121.5 5t-115.5 11.5t-95.5 14.5t-60.5 14v193z" />
    <glyph glyph-name="t" unicode="t" horiz-adv-x="874" 
d="M813 2q-12 -3 -35.5 -8.5t-54.5 -11t-68 -9.5t-75 -4q-86 0 -146 18t-98.5 57.5t-56 102.5t-17.5 154v635l-215 18v199h215v293h270v-293h281v-217h-281v-631q0 -40 3 -64.5t14 -38.5t32 -19t58 -5q22 0 47.5 0.5t49.5 2t44.5 2.5t32.5 3v-184z" />
    <glyph glyph-name="u" unicode="u" 
d="M891 0v92q-103 -56 -201 -89.5t-198 -33.5q-76 0 -131 17t-93.5 47t-62.5 72t-37.5 92t-18 106.5t-4.5 116.5v733h269v-733q0 -62 7 -104.5t25 -68.5t50.5 -38t83.5 -12q58 0 133 21t168 56v879h270v-1153h-260z" />
    <glyph glyph-name="v" unicode="v" horiz-adv-x="1182" 
d="M399 0l-358 1153h283l188 -657q23 -82 42.5 -160.5t39.5 -153.5q18 75 36.5 152.5t41.5 161.5l186 657h283l-359 -1153h-383z" />
    <glyph glyph-name="w" unicode="w" horiz-adv-x="1792" 
d="M1139 0l-178 565q-23 71 -37.5 127.5t-22.5 104.5h-8q-8 -48 -22 -103.5t-37 -128.5l-181 -565h-350l-252 1153h275l129 -623q15 -77 25 -148t14 -136h10q18 68 36 140.5t40 141.5l151 482h332l151 -482q22 -69 40 -141.5t36 -140.5h10q4 65 15 136t26 148l127 623h273
l-248 -1153h-354z" />
    <glyph glyph-name="x" unicode="x" horiz-adv-x="1202" 
d="M846 0l-266 389l-244 -389h-295l395 602l-375 551h312l254 -373l225 373h297l-377 -586l389 -567h-315z" />
    <glyph glyph-name="y" unicode="y" horiz-adv-x="1198" 
d="M471 8l-430 1145h293l201 -612q12 -39 22 -76t19.5 -74.5t19.5 -76.5t22 -81q19 85 36 158t40 150l183 612h280l-401 -1196q-35 -102 -71 -178t-84.5 -127t-115 -76t-161.5 -25q-84 0 -157 8t-118 17v197q35 -2 63.5 -4t53.5 -3t49 -1.5t51 -0.5q37 0 62.5 9t45 29.5
t36 53.5t34.5 81z" />
    <glyph glyph-name="z" unicode="z" horiz-adv-x="1061" 
d="M82 0v242l588 692h-566v219h865v-238l-592 -700h594v-215h-889z" />
    <glyph glyph-name="braceleft" unicode="{" horiz-adv-x="895" 
d="M653 -422q-129 0 -211.5 19t-129.5 60.5t-65 107.5t-18 161v310q0 50 -6.5 83.5t-21.5 58.5t-39 45t-60 42v170q36 22 60 42t39 45.5t21.5 59t6.5 82.5v312q0 95 18 161t65 107t129.5 59.5t211.5 18.5h129v-224h-127q-53 0 -84 -4.5t-46.5 -17.5t-20 -37t-4.5 -63v-312
q0 -62 -8.5 -109t-27.5 -83.5t-48 -65.5t-70 -55q41 -27 70 -56.5t48 -66t27.5 -83.5t8.5 -109v-310q0 -41 4.5 -65.5t20 -37.5t46.5 -17.5t84 -4.5h129v-223h-131z" />
    <glyph glyph-name="bar" unicode="|" horiz-adv-x="668" 
d="M199 -422v1944h268v-1944h-268z" />
    <glyph glyph-name="braceright" unicode="}" horiz-adv-x="895" 
d="M111 -422v223h129q53 0 84 4.5t47.5 17.5t21 37.5t4.5 65.5v310q0 62 8.5 109t27.5 83.5t48 66t70 56.5q-42 26 -71 55t-47.5 65.5t-27 83.5t-8.5 109v312q0 39 -4.5 63t-21 37t-47.5 17.5t-84 4.5h-127v224h129q129 0 211.5 -18.5t129.5 -59.5t65 -107t18 -161v-312
q0 -49 6.5 -82.5t21.5 -59t40 -45.5t61 -42v-170q-36 -22 -61 -42t-40 -45t-21.5 -58.5t-6.5 -83.5v-310q0 -95 -18 -161t-65 -107.5t-129.5 -60.5t-211.5 -19h-131z" />
    <glyph glyph-name="asciitilde" unicode="~" horiz-adv-x="1411" 
d="M1214 993q0 -78 -13 -138t-42 -100.5t-76.5 -61.5t-117.5 -21q-36 0 -67 3.5t-60 12t-57.5 22.5t-59.5 35l-129 86q-18 12 -32.5 21.5t-28 17t-27.5 11.5t-31 4q-50 0 -66 -30.5t-16 -90.5v-76h-196v76q0 164 65 242.5t199 78.5q31 0 58.5 -5t53.5 -15.5t52.5 -25.5
t56.5 -35l123 -82q35 -23 66.5 -36.5t68.5 -13.5q28 0 44 8.5t24.5 24t11 38t2.5 50.5v76h194v-76z" />
    <glyph glyph-name="uni00A0" unicode="&#xa0;" horiz-adv-x="401" 
 />
    <glyph glyph-name="exclamdown" unicode="&#xa1;" horiz-adv-x="616" 
d="M160 -436l26 1159h244l27 -1159h-297zM168 842v313h278v-313h-278z" />
    <glyph glyph-name="cent" unicode="&#xa2;" horiz-adv-x="1063" 
d="M473 -248v232q-185 32 -273.5 165.5t-88.5 354.5v145q0 221 88.5 353.5t273.5 166.5v226h232v-217q92 -8 157.5 -19.5t89.5 -19.5v-203q-96 9 -174 12.5t-135 3.5q-63 0 -112 -12t-82 -45.5t-50.5 -92.5t-17.5 -153v-145q0 -93 17.5 -152.5t50.5 -93t82 -46.5t112 -13
q54 0 132 4t177 12v-203q-28 -8 -92 -20t-155 -17v-223h-232z" />
    <glyph glyph-name="sterling" unicode="&#xa3;" horiz-adv-x="1313" 
d="M182 0v193q54 54 74 117t20 122v248h-157v213h157v129q0 135 23.5 234.5t81 165.5t153.5 98t240 32q67 0 128.5 -4t115.5 -10t98 -13.5t76 -15.5v-215q-24 2 -66.5 5.5t-95 7t-109.5 6t-110 2.5q-85 0 -135.5 -14t-76.5 -48t-34 -90.5t-8 -140.5v-129h469v-213h-469v-248
q0 -111 -63 -203h698v-229h-1010z" />
    <glyph glyph-name="currency" unicode="&#xa4;" horiz-adv-x="1348" 
d="M1067 238l-160 155q-52 -31 -112 -48t-119 -17q-62 0 -121 15.5t-115 49.5l-161 -155l-142 141l162 160q-32 51 -50 111.5t-18 119.5q0 60 16.5 118.5t51.5 110.5l-162 160l142 141l161 -157q54 34 115 49.5t121 15.5q62 0 120.5 -15.5t112.5 -49.5l158 153l143 -141
l-157 -156q32 -54 49.5 -112.5t17.5 -118.5t-16.5 -118.5t-50.5 -112.5l157 -156zM936 770q0 54 -21 101t-57 82t-83 55t-99 20q-54 0 -101.5 -20.5t-83.5 -55.5t-56.5 -82t-20.5 -100q0 -54 21.5 -101.5t57.5 -82t83.5 -54.5t99.5 -20q51 0 98 20t83 55t57.5 82t21.5 101z
" />
    <glyph glyph-name="yen" unicode="&#xa5;" horiz-adv-x="1432" 
d="M854 446v-446h-281v446h-475v183h449l-105 188h-344v182h248l-283 523h302l241 -441q29 -52 57 -115t50 -120h10q10 28 23.5 59t28.5 61.5t30.5 59.5t30.5 55l237 441h291l-283 -523h246v-182h-342l-106 -188h448v-183h-473z" />
    <glyph glyph-name="brokenbar" unicode="&#xa6;" horiz-adv-x="668" 
d="M199 721v801h268v-801h-268zM199 -422v805h268v-805h-268z" />
    <glyph glyph-name="section" unicode="&#xa7;" horiz-adv-x="1368" 
d="M193 -186q40 -3 94 -7t114 -7.5t122.5 -6t121.5 -2.5q80 0 132.5 12.5t84 37t44 60.5t12.5 83q0 37 -6.5 66t-29.5 56t-67.5 54.5t-120.5 60.5l-245 107q-76 33 -131.5 71.5t-91.5 86.5t-53 107t-17 132q0 53 13 113t44 112q-55 83 -55 219q0 95 32 166t98 118.5t168 71
t242 23.5q74 0 144.5 -5t131 -12t107.5 -15.5t74 -14.5v-211q-35 2 -85 6.5t-108.5 8.5t-122.5 7t-126 3q-78 0 -130.5 -9.5t-84 -29t-45 -49t-13.5 -70.5q0 -35 7.5 -63t28 -52.5t58 -48.5t97.5 -49l237 -100q100 -42 166 -87t105 -96t55 -109t16 -126q0 -50 -11.5 -105
t-49.5 -118q61 -95 61 -219q0 -102 -32.5 -181.5t-99.5 -135t-169 -84.5t-241 -29q-66 0 -135 4t-132.5 10.5t-117.5 14.5t-90 16v215zM967 385q0 48 -5 82.5t-25 62.5t-59 52t-106 53l-240 100q-32 13 -55 24.5t-40 23t-30 23t-26 25.5v-24q0 -68 3 -109.5t20 -71t54.5 -52
t106.5 -50.5l244 -102q45 -19 84 -42t74 -46v51z" />
    <glyph glyph-name="dieresis" unicode="&#xa8;" horiz-adv-x="989" 
d="M629 1321v254h227v-254h-227zM133 1321v254h229v-254h-229z" />
    <glyph glyph-name="copyright" unicode="&#xa9;" horiz-adv-x="1745" 
d="M868 0q-161 0 -296.5 50.5t-233.5 148t-153.5 241t-55.5 328.5q0 184 55.5 327.5t153.5 241t233.5 148.5t296.5 51q160 0 295.5 -51t234 -148.5t153.5 -241t55 -327.5q0 -185 -55 -328.5t-153.5 -241t-234 -148t-295.5 -50.5zM868 154q126 0 231 41.5t181 120.5t118 193
t42 259q0 144 -42 258t-118 192.5t-181 120t-231 41.5q-127 0 -231.5 -41.5t-179.5 -120t-116.5 -192.5t-41.5 -258q0 -145 41.5 -259t116.5 -193t179.5 -120.5t231.5 -41.5zM1118 352q-17 -5 -44 -9.5t-59 -7.5t-66 -5t-64 -2q-192 0 -287.5 100t-95.5 283v114
q0 187 95 285t288 98q30 0 64 -2t66 -5t59 -7.5t44 -9.5v-156q-132 12 -217 12q-57 0 -94 -11t-59.5 -36.5t-31.5 -66.5t-9 -101v-114q0 -59 9 -100t31.5 -66.5t59.5 -37t94 -11.5q85 0 217 12v-156z" />
    <glyph glyph-name="ordfeminine" unicode="&#xaa;" horiz-adv-x="911" 
d="M571 862v49q-18 -11 -43 -23t-56 -22t-66.5 -16t-75.5 -6q-50 0 -91 12.5t-70.5 38.5t-46 64.5t-16.5 91.5v24q0 75 29 117.5t78.5 64.5t116 27.5t141.5 5.5h84v37q0 35 -5 57.5t-21.5 35t-46.5 17.5t-79 5q-29 0 -62.5 -1.5t-66.5 -3.5t-62 -4.5t-50 -5.5v127
q15 6 43.5 13.5t65.5 14t81 11t92 4.5q90 0 150.5 -15t96.5 -47.5t51.5 -84t15.5 -123.5v-465h-187zM561 1178h-88q-47 0 -80 -3t-54 -13t-30.5 -29.5t-9.5 -51.5v-24q0 -24 7.5 -38t21 -21t32 -9t39.5 -2q25 0 50 4t47 10t39 13t26 12v152z" />
    <glyph glyph-name="guillemotleft" unicode="&#xab;" horiz-adv-x="1485" 
d="M1083 152l-325 444l325 440h293l-315 -440l315 -444h-293zM428 152l-326 444l326 440h293l-315 -440l315 -444h-293z" />
    <glyph glyph-name="logicalnot" unicode="&#xac;" horiz-adv-x="1411" 
d="M969 422v516h-744v227h959v-743h-215z" />
    <glyph glyph-name="uni00AD" unicode="&#xad;" horiz-adv-x="791" 
d="M135 496v213h520v-213h-520z" />
    <glyph glyph-name="registered" unicode="&#xae;" horiz-adv-x="1382" 
d="M688 381q-128 0 -231 41.5t-176 119t-112.5 187t-39.5 244.5t39.5 244.5t112.5 186.5t176 119t231 42q127 0 229.5 -42t175.5 -119t112.5 -186.5t39.5 -244.5t-39.5 -244.5t-112.5 -187t-175.5 -119t-229.5 -41.5zM688 510q97 0 174.5 31.5t131.5 91t83 145.5t29 195
q0 108 -29 193.5t-83 145t-131.5 91t-174.5 31.5q-98 0 -176 -31.5t-132 -91t-83 -145t-29 -193.5q0 -109 29 -195t83 -145.5t132 -91t176 -31.5zM813 672l-147 227h-66v-227h-143v633q34 2 58 3.5t44.5 2t40.5 0.5h47q61 -1 114 -9t91 -30t60 -62.5t22 -105.5
q0 -71 -32 -115.5t-89 -62.5l168 -254h-168zM600 1194v-186q48 0 83 2t58.5 11.5t35 28.5t11.5 54q0 33 -10.5 51t-32 27t-54 10.5t-75.5 1.5h-16z" />
    <glyph glyph-name="glyph113" unicode="&#xaf;" horiz-adv-x="983" 
d="M106 1339v181h771v-181h-771z" />
    <glyph glyph-name="degree" unicode="&#xb0;" horiz-adv-x="907" 
d="M807 1208q0 -71 -27.5 -133.5t-75.5 -109t-112 -73t-137 -26.5q-74 0 -138.5 26.5t-112 73t-75 109t-27.5 133.5q0 72 27.5 134.5t75 109t112 73.5t138.5 27q73 0 137 -27t112 -73.5t75.5 -109t27.5 -134.5zM637 1208q0 39 -14.5 72t-39.5 56.5t-58.5 36.5t-71.5 13
q-39 0 -72.5 -13t-58.5 -36.5t-39.5 -56.5t-14.5 -72q0 -38 14.5 -70.5t39.5 -56.5t58.5 -37.5t72.5 -13.5q38 0 71.5 13.5t58.5 37.5t39.5 56.5t14.5 70.5z" />
    <glyph glyph-name="plusminus" unicode="&#xb1;" horiz-adv-x="1411" 
d="M184 0v195h1039v-195h-1039zM811 768v-403h-209v403h-422v225h422v402h209v-402h420v-225h-420z" />
    <glyph glyph-name="two.superior" unicode="&#xb2;" horiz-adv-x="922" 
d="M113 618v113q0 84 15.5 144t50 107t90.5 84.5t137 76.5q62 30 98.5 51t55.5 39t24.5 35.5t5.5 40.5q0 47 -38.5 67.5t-133.5 20.5q-39 0 -82.5 -2t-84 -4.5t-73.5 -5t-51 -3.5v136q20 6 56 12t80 11t92.5 8t93.5 3q183 0 270.5 -56t87.5 -181q0 -48 -13.5 -87t-45 -73.5
t-82 -66.5t-123.5 -66q-71 -33 -113.5 -57.5t-65.5 -48.5t-30.5 -52.5t-7.5 -68.5v-11h465v-166h-678z" />
    <glyph glyph-name="three.superior" unicode="&#xb3;" horiz-adv-x="913" 
d="M799 874q0 -74 -23 -126.5t-69.5 -85.5t-116.5 -48.5t-164 -15.5q-46 0 -94.5 4t-91 9.5t-75 12t-46.5 11.5v137q18 -2 50.5 -4t72.5 -4.5t83 -4t81 -1.5q45 0 78.5 5t55.5 18.5t33 38t11 63.5v18q0 25 -4.5 46t-20 35t-45 22t-78.5 8h-268v149h270q48 0 77 8.5t44.5 24
t20 36t4.5 44.5v12q0 31 -8.5 51.5t-28.5 33t-54.5 17.5t-86.5 5q-39 0 -80 -2t-78.5 -4t-71 -5t-57.5 -4v138q15 5 47.5 11.5t74.5 12t90.5 9t94.5 3.5q90 0 159.5 -12.5t117 -41.5t72 -77t24.5 -118v-15q0 -29 -6 -58.5t-20 -56t-36 -49t-53 -37.5q32 -14 54 -35.5
t35.5 -47t19.5 -54t6 -57.5v-19z" />
    <glyph glyph-name="acute" unicode="&#xb4;" horiz-adv-x="965" 
d="M520 1282h-260l270 303h314z" />
    <glyph glyph-name="mu" unicode="&#xb5;" horiz-adv-x="1389" 
d="M932 0v92q-97 -48 -183 -78t-163 -30q-50 0 -78 3t-51 9v-416h-271v1573h269v-733q0 -62 7 -104.5t25 -68.5t50.5 -38t83.5 -12q58 0 133 21t168 56v879h270v-1153h-260z" />
    <glyph glyph-name="paragraph" unicode="&#xb6;" horiz-adv-x="1524" 
d="M1182 -403v1732h-123v-1732h-195v913h-98q-137 0 -254 21t-203 76.5t-135 152t-49 246.5v20q0 154 49.5 250.5t137 151t208 74.5t262.5 20h594v-1925h-194z" />
    <glyph glyph-name="glyph121" unicode="&#xb7;" horiz-adv-x="567" 
d="M152 596v317h262v-317h-262z" />
    <glyph glyph-name="cedilla" unicode="&#xb8;" horiz-adv-x="932" 
d="M133 -422l225 289h306l-273 -289h-258z" />
    <glyph glyph-name="one.superior" unicode="&#xb9;" horiz-adv-x="858" 
d="M141 618v154l189 8v553l-191 -59v174l252 90h156v-758l188 -8v-154h-594z" />
    <glyph glyph-name="ordmasculine" unicode="&#xba;" horiz-adv-x="922" 
d="M815 1188q0 -179 -92 -262.5t-262 -83.5q-84 0 -150 20.5t-111.5 63t-69.5 108t-24 154.5v65q0 178 93 261t262 83q170 0 262 -83t92 -261v-65zM614 1253q0 98 -36 138.5t-117 40.5q-80 0 -117 -40.5t-37 -138.5v-65q0 -50 8.5 -84.5t27.5 -55.5t48 -30.5t70 -9.5
q40 0 69 9.5t48 30.5t27.5 55.5t8.5 84.5v65z" />
    <glyph glyph-name="guillemotright" unicode="&#xbb;" horiz-adv-x="1485" 
d="M764 152l313 444l-313 440h291l325 -440l-325 -444h-291zM106 152l316 444l-316 440h293l326 -440l-326 -444h-293z" />
    <glyph glyph-name="onequarter" unicode="&#xbc;" horiz-adv-x="1991" 
d="M434 0l991 1524h244l-993 -1524h-242zM141 618v154l189 8v553l-191 -59v174l252 90h156v-758l188 -8v-154h-594zM1534 0v209h-449v158l478 548h186v-550h135v-156h-135v-209h-215zM1544 678l-278 -313h278v313z" />
    <glyph glyph-name="onehalf" unicode="&#xbd;" horiz-adv-x="2179" 
d="M434 0l991 1524h244l-993 -1524h-242zM141 618v154l189 8v553l-191 -59v174l252 90h156v-758l188 -8v-154h-594zM1389 0v113q0 84 15.5 144t50 106.5t90 84.5t136.5 76q62 30 99 51t56 39t24.5 35.5t5.5 40.5q0 48 -38.5 68t-133.5 20q-39 0 -82.5 -2t-84 -4.5
t-73.5 -4.5t-51 -3v135q20 6 56 12t80 11.5t92.5 8.5t92.5 3q184 0 271.5 -56.5t87.5 -181.5q0 -48 -13.5 -87t-45 -73.5t-82 -66.5t-123.5 -66q-71 -33 -113.5 -57.5t-65.5 -48.5t-30.5 -52t-7.5 -69v-10h464v-166h-677z" />
    <glyph glyph-name="threequarters" unicode="&#xbe;" horiz-adv-x="2099" 
d="M475 0l995 1524h244l-995 -1524h-244zM1636 0v209h-448v158l477 548h186v-550h136v-156h-136v-209h-215zM1647 678l-279 -313h279v313zM799 874q0 -74 -23 -126.5t-69.5 -85.5t-116.5 -48.5t-164 -15.5q-46 0 -94.5 4t-91 9.5t-75 12t-46.5 11.5v137q18 -2 50.5 -4
t72.5 -4.5t83 -4t81 -1.5q45 0 78.5 5t55.5 18.5t33 38t11 63.5v18q0 25 -4.5 46t-20 35t-45 22t-78.5 8h-268v149h270q48 0 77 8.5t44.5 24t20 36t4.5 44.5v12q0 31 -8.5 51.5t-28.5 33t-54.5 17.5t-86.5 5q-39 0 -80 -2t-78.5 -4t-71 -5t-57.5 -4v138q15 5 47.5 11.5
t74.5 12t90.5 9t94.5 3.5q90 0 159.5 -12.5t117 -41.5t72 -77t24.5 -118v-15q0 -29 -6 -58.5t-20 -56t-36 -49t-53 -37.5q32 -14 54 -35.5t35.5 -47t19.5 -54t6 -57.5v-19z" />
    <glyph glyph-name="questiondown" unicode="&#xbf;" horiz-adv-x="1038" 
d="M975 -401q-82 -26 -183.5 -42t-209.5 -16q-111 0 -196 19t-143 60t-88 105t-30 154v17q0 51 10.5 96.5t35 91.5t65.5 95.5t102 109.5q70 70 111 119t62 89.5t26.5 77.5t5.5 84v66h243v-66q0 -65 -5 -118t-23 -102.5t-53.5 -101t-96.5 -112.5q-54 -54 -88.5 -94.5
t-54.5 -74t-27.5 -63t-7.5 -61.5v-14q0 -42 14 -69t42.5 -42.5t70.5 -21.5t98 -6q73 0 156 6t164 12v-198zM528 844v315h271v-315h-271z" />
    <glyph glyph-name="Agrave" unicode="&#xc0;" horiz-adv-x="1444" 
d="M1096 0l-131 426h-490l-135 -426h-293l461 1522h428l461 -1522h-301zM782 1081q-17 57 -29.5 117.5t-23.5 122.5h-18q-13 -62 -25 -122.5t-29 -117.5l-129 -419h381zM674 1617l-324 305h314l268 -305h-258z" />
    <glyph glyph-name="Aacute" unicode="&#xc1;" horiz-adv-x="1444" 
d="M1096 0l-131 426h-490l-135 -426h-293l461 1522h428l461 -1522h-301zM782 1081q-17 57 -29.5 117.5t-23.5 122.5h-18q-13 -62 -25 -122.5t-29 -117.5l-129 -419h381zM805 1617h-260l270 305h314z" />
    <glyph glyph-name="Acircumflex" unicode="&#xc2;" horiz-adv-x="1444" 
d="M1096 0l-131 426h-490l-135 -426h-293l461 1522h428l461 -1522h-301zM782 1081q-17 57 -29.5 117.5t-23.5 122.5h-18q-13 -62 -25 -122.5t-29 -117.5l-129 -419h381zM916 1617l-197 187l-195 -187h-247l276 305h334l276 -305h-247z" />
    <glyph glyph-name="Atilde" unicode="&#xc3;" horiz-adv-x="1444" 
d="M1096 0l-131 426h-490l-135 -426h-293l461 1522h428l461 -1522h-301zM782 1081q-17 57 -29.5 117.5t-23.5 122.5h-18q-13 -62 -25 -122.5t-29 -117.5l-129 -419h381zM1155 1879q0 -140 -55 -206t-164 -66q-53 0 -103.5 16t-109.5 54l-90 59q-34 23 -59 35t-54 12
q-41 0 -54 -27.5t-13 -80.5v-58h-168v58q0 140 59 207t168 67q28 0 52 -3.5t47.5 -11.5t48 -21t53.5 -32l92 -59q32 -22 60 -35.5t59 -13.5q41 0 54 26.5t13 79.5v58h164v-58z" />
    <glyph glyph-name="Adieresis" unicode="&#xc4;" horiz-adv-x="1444" 
d="M1096 0l-131 426h-490l-135 -426h-293l461 1522h428l461 -1522h-301zM782 1081q-17 57 -29.5 117.5t-23.5 122.5h-18q-13 -62 -25 -122.5t-29 -117.5l-129 -419h381zM852 1645v254h227v-254h-227zM356 1645v254h229v-254h-229z" />
    <glyph glyph-name="Aring" unicode="&#xc5;" horiz-adv-x="1444" 
d="M1096 0l-131 426h-490l-135 -426h-293l461 1522h428l461 -1522h-301zM782 1081q-17 57 -29.5 117.5t-23.5 122.5h-18q-13 -62 -25 -122.5t-29 -117.5l-129 -419h381zM725 1583q-57 0 -106 14.5t-85 44.5t-56.5 75t-20.5 106q0 60 20.5 105t56.5 75t85 45t106 15
q56 0 104 -15t83 -45t55 -75t20 -105q0 -61 -20 -106t-55 -75t-83 -44.5t-104 -14.5zM725 1927q-50 0 -82.5 -23.5t-32.5 -80.5q0 -56 32 -80t83 -24q47 0 80 24t33 80q0 28 -9 48t-24 32.5t-35.5 18t-44.5 5.5z" />
    <glyph glyph-name="AE" unicode="&#xc6;" horiz-adv-x="2042" 
d="M971 0v426h-469l-133 -426h-291l450 1522h1409v-238h-682v-387h641v-229h-641v-432h682v-236h-966zM971 1315h-228q-15 -56 -29 -113t-30 -112l-129 -431h416v656z" />
    <glyph glyph-name="Ccedilla" unicode="&#xc7;" horiz-adv-x="1202" 
d="M1139 6q-26 -6 -70.5 -13t-97.5 -12.5t-109 -9.5t-106 -4q-147 0 -266.5 31.5t-205 110.5t-132 212.5t-46.5 337.5v203q0 204 46.5 337.5t132 212t205 109.5t266.5 31q50 0 106 -4t109 -10t97.5 -13.5t70.5 -13.5v-227q-38 3 -83 6.5t-93 6t-96 4.5t-93 2
q-96 0 -167.5 -19.5t-119 -69.5t-71 -135.5t-23.5 -216.5v-203q0 -131 23.5 -216.5t71 -135.5t119 -70t167.5 -20q45 0 93 1.5t96 4.5t93 6.5t83 6.5v-230zM338 -422l225 289h306l-273 -289h-258z" />
    <glyph glyph-name="Egrave" unicode="&#xc8;" horiz-adv-x="1237" 
d="M162 0v1522h968v-238h-681v-387h638v-229h-638v-432h681v-236h-968zM565 1617l-324 305h314l268 -305h-258z" />
    <glyph glyph-name="Eacute" unicode="&#xc9;" horiz-adv-x="1237" 
d="M162 0v1522h968v-238h-681v-387h638v-229h-638v-432h681v-236h-968zM751 1617h-260l270 305h314z" />
    <glyph glyph-name="Ecircumflex" unicode="&#xca;" horiz-adv-x="1237" 
d="M162 0v1522h968v-238h-681v-387h638v-229h-638v-432h681v-236h-968zM844 1617l-197 187l-195 -187h-247l276 305h334l276 -305h-247z" />
    <glyph glyph-name="Edieresis" unicode="&#xcb;" horiz-adv-x="1237" 
d="M162 0v1522h968v-238h-681v-387h638v-229h-638v-432h681v-236h-968zM785 1645v254h227v-254h-227zM289 1645v254h229v-254h-229z" />
    <glyph glyph-name="Igrave" unicode="&#xcc;" horiz-adv-x="610" 
d="M162 0v1522h287v-1522h-287zM273 1617l-324 305h314l268 -305h-258z" />
    <glyph glyph-name="Iacute" unicode="&#xcd;" horiz-adv-x="610" 
d="M162 0v1522h287v-1522h-287zM392 1615h-260l270 305h314z" />
    <glyph glyph-name="Icircumflex" unicode="&#xce;" horiz-adv-x="610" 
d="M162 0v1522h287v-1522h-287zM503 1617l-197 187l-195 -187h-247l276 305h334l276 -305h-247z" />
    <glyph glyph-name="Idieresis" unicode="&#xcf;" horiz-adv-x="610" 
d="M162 0v1522h287v-1522h-287zM440 1645v254h227v-254h-227zM-56 1645v254h229v-254h-229z" />
    <glyph glyph-name="Eth" unicode="&#xd0;" horiz-adv-x="1446" 
d="M1339 668q0 -168 -38.5 -295.5t-122.5 -213t-217.5 -128.5t-323.5 -43q-121 0 -237.5 3t-237.5 9v672h-107v225h107v625q235 12 475 12q185 0 317.5 -42.5t218 -127.5t126 -211t40.5 -293v-192zM1055 860q0 124 -25 207t-77 132.5t-132 70t-190 20.5h-189v-393h267v-225
h-267v-443h189q110 0 190 22t132 73t77 135t25 209v192z" />
    <glyph glyph-name="Ntilde" unicode="&#xd1;" horiz-adv-x="1518" 
d="M1022 0l-487 903q-28 53 -58.5 111.5t-56.5 115.5h-4q3 -65 5.5 -134t2.5 -138v-858h-262v1522h332l485 -885q28 -53 60 -114.5t57 -116.5h4q-5 68 -6.5 143.5t-1.5 144.5v828h264v-1522h-334zM1192 1877q0 -140 -55 -206t-164 -66q-53 0 -103.5 16t-109.5 54l-90 59
q-34 23 -59 35t-54 12q-41 0 -54 -27.5t-13 -80.5v-58h-168v58q0 140 59 207t168 67q28 0 52 -3.5t47.5 -11.5t48 -21t53.5 -32l92 -59q32 -22 60 -35.5t59 -13.5q41 0 54 26.5t13 79.5v58h164v-58z" />
    <glyph glyph-name="Ograve" unicode="&#xd2;" horiz-adv-x="1464" 
d="M1358 672q0 -185 -43.5 -318.5t-125 -219.5t-197.5 -126.5t-261 -40.5t-261 40.5t-197 126.5t-124 219.5t-43 318.5v178q0 184 43.5 317t124.5 218.5t197 126t260 40.5t260 -40.5t197.5 -126t125.5 -218.5t44 -317v-178zM1073 848q0 127 -24 214.5t-68.5 140.5t-108 76.5
t-141.5 23.5t-140.5 -23.5t-107 -76.5t-68.5 -140.5t-24 -214.5v-176q0 -128 24.5 -215.5t69 -141t107 -77t139.5 -23.5q78 0 141 23.5t107.5 77t69 141t24.5 215.5v176zM674 1616l-324 303h314l268 -303h-258z" />
    <glyph glyph-name="Oacute" unicode="&#xd3;" horiz-adv-x="1464" 
d="M1358 672q0 -185 -43.5 -318.5t-125 -219.5t-197.5 -126.5t-261 -40.5t-261 40.5t-197 126.5t-124 219.5t-43 318.5v178q0 184 43.5 317t124.5 218.5t197 126t260 40.5t260 -40.5t197.5 -126t125.5 -218.5t44 -317v-178zM1073 848q0 127 -24 214.5t-68.5 140.5t-108 76.5
t-141.5 23.5t-140.5 -23.5t-107 -76.5t-68.5 -140.5t-24 -214.5v-176q0 -128 24.5 -215.5t69 -141t107 -77t139.5 -23.5q78 0 141 23.5t107.5 77t69 141t24.5 215.5v176zM794 1617h-260l270 305h314z" />
    <glyph glyph-name="Ocircumflex" unicode="&#xd4;" horiz-adv-x="1464" 
d="M1358 672q0 -185 -43.5 -318.5t-125 -219.5t-197.5 -126.5t-261 -40.5t-261 40.5t-197 126.5t-124 219.5t-43 318.5v178q0 184 43.5 317t124.5 218.5t197 126t260 40.5t260 -40.5t197.5 -126t125.5 -218.5t44 -317v-178zM1073 848q0 127 -24 214.5t-68.5 140.5t-108 76.5
t-141.5 23.5t-140.5 -23.5t-107 -76.5t-68.5 -140.5t-24 -214.5v-176q0 -128 24.5 -215.5t69 -141t107 -77t139.5 -23.5q78 0 141 23.5t107.5 77t69 141t24.5 215.5v176zM928 1615l-197 187l-195 -187h-247l276 305h334l276 -305h-247z" />
    <glyph glyph-name="Otilde" unicode="&#xd5;" horiz-adv-x="1464" 
d="M1358 672q0 -185 -43.5 -318.5t-125 -219.5t-197.5 -126.5t-261 -40.5t-261 40.5t-197 126.5t-124 219.5t-43 318.5v178q0 184 43.5 317t124.5 218.5t197 126t260 40.5t260 -40.5t197.5 -126t125.5 -218.5t44 -317v-178zM1073 848q0 127 -24 214.5t-68.5 140.5t-108 76.5
t-141.5 23.5t-140.5 -23.5t-107 -76.5t-68.5 -140.5t-24 -214.5v-176q0 -128 24.5 -215.5t69 -141t107 -77t139.5 -23.5q78 0 141 23.5t107.5 77t69 141t24.5 215.5v176zM1165 1878q0 -140 -55 -207t-164 -67q-53 0 -103.5 17t-109.5 54l-90 58q-34 25 -59 37t-54 12
q-41 0 -54 -28.5t-13 -80.5v-57h-168v57q0 141 59 207t168 66q28 0 52 -3.5t47.5 -11.5t48 -20.5t53.5 -30.5l92 -59q32 -22 60 -35.5t59 -13.5q41 0 54 26.5t13 79.5v56h164v-56z" />
    <glyph glyph-name="Odieresis" unicode="&#xd6;" horiz-adv-x="1464" 
d="M1358 672q0 -185 -43.5 -318.5t-125 -219.5t-197.5 -126.5t-261 -40.5t-261 40.5t-197 126.5t-124 219.5t-43 318.5v178q0 184 43.5 317t124.5 218.5t197 126t260 40.5t260 -40.5t197.5 -126t125.5 -218.5t44 -317v-178zM1073 848q0 127 -24 214.5t-68.5 140.5t-108 76.5
t-141.5 23.5t-140.5 -23.5t-107 -76.5t-68.5 -140.5t-24 -214.5v-176q0 -128 24.5 -215.5t69 -141t107 -77t139.5 -23.5q78 0 141 23.5t107.5 77t69 141t24.5 215.5v176zM867 1648v254h227v-254h-227zM371 1648v254h229v-254h-229z" />
    <glyph glyph-name="multiply" unicode="&#xd7;" horiz-adv-x="1411" 
d="M707 637l-308 -299l-145 154l309 301l-309 299l143 151l310 -299l305 299l145 -153l-307 -299l305 -297l-145 -152z" />
    <glyph glyph-name="Oslash" unicode="&#xd8;" horiz-adv-x="1464" 
d="M1358 672q0 -185 -43.5 -318.5t-125 -219.5t-197.5 -126.5t-261 -40.5q-114 0 -209.5 25t-171.5 76l-49 -68h-272l172 233q-47 82 -71 190.5t-24 248.5v178q0 184 43.5 317t124.5 218.5t197 126t260 40.5q112 0 205 -23t168 -73l49 66h268l-166 -226q103 -164 103 -446
v-178zM1073 848q0 51 -4 95.5t-12 82.5l-545 -739q43 -38 98 -55t121 -17q78 0 141 23.5t107.5 77t69 141t24.5 215.5v176zM944 1239q-43 34 -96.5 49t-116.5 15q-78 0 -140.5 -23.5t-107 -76.5t-68.5 -140.5t-24 -214.5v-176q0 -94 12 -164z" />
    <glyph glyph-name="Ugrave" unicode="&#xd9;" horiz-adv-x="1497" 
d="M1065 1522h281v-899q0 -329 -153.5 -492.5t-442.5 -163.5q-291 0 -444.5 163.5t-153.5 492.5v899h282v-885q0 -115 15 -195.5t51.5 -131.5t97 -74t152.5 -23q90 0 150.5 23t97 74t52 131.5t15.5 195.5v885zM659 1616l-324 303h314l268 -303h-258z" />
    <glyph glyph-name="Uacute" unicode="&#xda;" horiz-adv-x="1497" 
d="M1065 1522h281v-899q0 -329 -153.5 -492.5t-442.5 -163.5q-291 0 -444.5 163.5t-153.5 492.5v899h282v-885q0 -115 15 -195.5t51.5 -131.5t97 -74t152.5 -23q90 0 150.5 23t97 74t52 131.5t15.5 195.5v885zM848 1618h-260l270 303h314z" />
    <glyph glyph-name="Ucircumflex" unicode="&#xdb;" horiz-adv-x="1497" 
d="M1065 1522h281v-899q0 -329 -153.5 -492.5t-442.5 -163.5q-291 0 -444.5 163.5t-153.5 492.5v899h282v-885q0 -115 15 -195.5t51.5 -131.5t97 -74t152.5 -23q90 0 150.5 23t97 74t52 131.5t15.5 195.5v885zM947 1616l-197 184l-195 -184h-247l276 303h334l276 -303h-247z
" />
    <glyph glyph-name="Udieresis" unicode="&#xdc;" horiz-adv-x="1497" 
d="M1065 1522h281v-899q0 -329 -153.5 -492.5t-442.5 -163.5q-291 0 -444.5 163.5t-153.5 492.5v899h282v-885q0 -115 15 -195.5t51.5 -131.5t97 -74t152.5 -23q90 0 150.5 23t97 74t52 131.5t15.5 195.5v885zM881 1645v254h227v-254h-227zM385 1645v254h229v-254h-229z" />
    <glyph glyph-name="Yacute" unicode="&#xdd;" horiz-adv-x="1364" 
d="M543 0v569l-508 953h299l239 -441q28 -52 56.5 -115t50.5 -120h12q10 28 23.5 59t28.5 61.5t30 59.5t29 55l239 441h287l-508 -953v-569h-278zM786 1616h-260l270 303h314z" />
    <glyph glyph-name="Thorn" unicode="&#xde;" horiz-adv-x="1343" 
d="M1276 791q0 -152 -52 -247t-141 -147.5t-207 -71t-251 -18.5h-44h-42.5t-45.5 0.5t-53 1.5v-309h-278v1536h278v-244q51 2 98 2h83q90 0 173.5 -7.5t156 -26.5t132.5 -53t102.5 -87.5t66 -128.5t24.5 -176v-24zM995 817q-1 81 -28 128t-81 71t-135.5 30.5t-189.5 6.5
h-121v-500q32 -2 80 -2h101q94 0 164.5 9.5t117 36t69.5 73t23 121.5v26z" />
    <glyph glyph-name="germandbls" unicode="&#xdf;" horiz-adv-x="1362" 
d="M1249 442q0 -104 -29 -189.5t-91 -146t-158 -93.5t-230 -33q-61 0 -155 12v213q38 -2 64 -2h38q78 0 134 14.5t92 45.5t52.5 78.5t16.5 113.5v39q0 55 -17 98t-53.5 72.5t-94 45t-138.5 15.5h-94v195h94q78 0 131 16t85.5 45.5t46 71.5t13.5 94v18q0 48 -12 87.5t-41 68
t-79 44t-126 15.5q-75 0 -127 -17.5t-85 -58t-47.5 -107t-14.5 -165.5v-1032h-270v1032q0 137 28.5 244.5t93 182t169 114t257.5 39.5q141 0 239 -35.5t158.5 -95t87.5 -137.5t27 -164v-23q0 -106 -45.5 -190.5t-142.5 -132.5q55 -25 97 -61.5t70 -82.5t42 -98.5t14 -108.5
v-41z" />
    <glyph glyph-name="agrave" unicode="&#xe0;" horiz-adv-x="1182" 
d="M797 0v76q-27 -18 -64.5 -37t-83.5 -34.5t-101 -25.5t-116 -10q-161 0 -249.5 81.5t-88.5 248.5v43q0 115 39.5 184t111.5 105.5t172 47.5t222 11h137v72q0 61 -8.5 99.5t-34.5 60t-73 29t-123 7.5q-87 0 -177 -5.5t-186 -16.5v182q18 8 58 19t94.5 21t120 17t135.5 7
q138 0 228 -24t142.5 -75t73.5 -130.5t21 -190.5v-762h-250zM782 524h-143q-75 0 -128.5 -6t-88 -24t-50.5 -52.5t-16 -91.5v-49q0 -40 12 -66t33 -41.5t51 -21.5t66 -6q42 0 82.5 7.5t75.5 18t63 23t43 21.5v288zM535 1282l-324 303h314l268 -303h-258z" />
    <glyph glyph-name="aacute" unicode="&#xe1;" horiz-adv-x="1182" 
d="M797 0v76q-27 -18 -64.5 -37t-83.5 -34.5t-101 -25.5t-116 -10q-161 0 -249.5 81.5t-88.5 248.5v43q0 115 39.5 184t111.5 105.5t172 47.5t222 11h137v72q0 61 -8.5 99.5t-34.5 60t-73 29t-123 7.5q-87 0 -177 -5.5t-186 -16.5v182q18 8 58 19t94.5 21t120 17t135.5 7
q138 0 228 -24t142.5 -75t73.5 -130.5t21 -190.5v-762h-250zM782 524h-143q-75 0 -128.5 -6t-88 -24t-50.5 -52.5t-16 -91.5v-49q0 -40 12 -66t33 -41.5t51 -21.5t66 -6q42 0 82.5 7.5t75.5 18t63 23t43 21.5v288zM692 1282h-260l270 303h314z" />
    <glyph glyph-name="acircumflex" unicode="&#xe2;" horiz-adv-x="1182" 
d="M797 0v76q-27 -18 -64.5 -37t-83.5 -34.5t-101 -25.5t-116 -10q-161 0 -249.5 81.5t-88.5 248.5v43q0 115 39.5 184t111.5 105.5t172 47.5t222 11h137v72q0 61 -8.5 99.5t-34.5 60t-73 29t-123 7.5q-87 0 -177 -5.5t-186 -16.5v182q18 8 58 19t94.5 21t120 17t135.5 7
q138 0 228 -24t142.5 -75t73.5 -130.5t21 -190.5v-762h-250zM782 524h-143q-75 0 -128.5 -6t-88 -24t-50.5 -52.5t-16 -91.5v-49q0 -40 12 -66t33 -41.5t51 -21.5t66 -6q42 0 82.5 7.5t75.5 18t63 23t43 21.5v288zM791 1282l-197 184l-195 -184h-247l276 303h334l276 -303
h-247z" />
    <glyph glyph-name="atilde" unicode="&#xe3;" horiz-adv-x="1182" 
d="M797 0v76q-27 -18 -64.5 -37t-83.5 -34.5t-101 -25.5t-116 -10q-161 0 -249.5 81.5t-88.5 248.5v43q0 115 39.5 184t111.5 105.5t172 47.5t222 11h137v72q0 61 -8.5 99.5t-34.5 60t-73 29t-123 7.5q-87 0 -177 -5.5t-186 -16.5v182q18 8 58 19t94.5 21t120 17t135.5 7
q138 0 228 -24t142.5 -75t73.5 -130.5t21 -190.5v-762h-250zM782 524h-143q-75 0 -128.5 -6t-88 -24t-50.5 -52.5t-16 -91.5v-49q0 -40 12 -66t33 -41.5t51 -21.5t66 -6q42 0 82.5 7.5t75.5 18t63 23t43 21.5v288zM1030 1546q0 -140 -55 -207t-164 -67q-53 0 -103.5 17
t-109.5 54l-90 58q-34 25 -59 37t-54 12q-41 0 -54 -28.5t-13 -80.5v-57h-168v57q0 141 59 207t168 66q28 0 52 -3.5t47.5 -11.5t48 -20.5t53.5 -30.5l92 -59q32 -22 60 -35.5t59 -13.5q41 0 54 26.5t13 79.5v56h164v-56z" />
    <glyph glyph-name="adieresis" unicode="&#xe4;" horiz-adv-x="1182" 
d="M797 0v76q-27 -18 -64.5 -37t-83.5 -34.5t-101 -25.5t-116 -10q-161 0 -249.5 81.5t-88.5 248.5v43q0 115 39.5 184t111.5 105.5t172 47.5t222 11h137v72q0 61 -8.5 99.5t-34.5 60t-73 29t-123 7.5q-87 0 -177 -5.5t-186 -16.5v182q18 8 58 19t94.5 21t120 17t135.5 7
q138 0 228 -24t142.5 -75t73.5 -130.5t21 -190.5v-762h-250zM782 524h-143q-75 0 -128.5 -6t-88 -24t-50.5 -52.5t-16 -91.5v-49q0 -40 12 -66t33 -41.5t51 -21.5t66 -6q42 0 82.5 7.5t75.5 18t63 23t43 21.5v288zM731 1320v254h227v-254h-227zM235 1320v254h229v-254h-229z
" />
    <glyph glyph-name="aring" unicode="&#xe5;" horiz-adv-x="1182" 
d="M797 0v76q-27 -18 -64.5 -37t-83.5 -34.5t-101 -25.5t-116 -10q-161 0 -249.5 81.5t-88.5 248.5v43q0 115 39.5 184t111.5 105.5t172 47.5t222 11h137v72q0 61 -8.5 99.5t-34.5 60t-73 29t-123 7.5q-87 0 -177 -5.5t-186 -16.5v182q18 8 58 19t94.5 21t120 17t135.5 7
q138 0 228 -24t142.5 -75t73.5 -130.5t21 -190.5v-762h-250zM782 524h-143q-75 0 -128.5 -6t-88 -24t-50.5 -52.5t-16 -91.5v-49q0 -40 12 -66t33 -41.5t51 -21.5t66 -6q42 0 82.5 7.5t75.5 18t63 23t43 21.5v288zM615 1248q-57 0 -106 14.5t-85 44.5t-56.5 75t-20.5 106
q0 60 20.5 105t56.5 75t85 45t106 15q56 0 104 -15t83 -45t55 -75t20 -105q0 -61 -20 -106t-55 -75t-83 -44.5t-104 -14.5zM615 1592q-50 0 -82.5 -23.5t-32.5 -80.5q0 -56 32 -80t83 -24q47 0 80 24t33 80q0 28 -9 48t-24 32.5t-35.5 18t-44.5 5.5z" />
    <glyph glyph-name="ae" unicode="&#xe6;" horiz-adv-x="1917" 
d="M1769 18q-33 -8 -80 -16.5t-104 -15.5t-121.5 -11t-132.5 -4q-158 0 -264.5 34t-169.5 104q-54 -38 -108 -64t-110 -42.5t-117 -24t-130 -7.5q-161 0 -249.5 80.5t-88.5 247.5v43q0 115 39.5 184t111.5 105.5t172 47.5t222 11h137v72q0 59 -8.5 97t-34 60t-72.5 30.5
t-124 8.5q-88 0 -175.5 -5.5t-187.5 -14.5v180q18 8 58 19t94.5 21t120 17t135.5 7q81 0 139.5 -7t101 -20.5t72.5 -33t53 -44.5q60 48 144 75.5t206 27.5q144 0 243 -44.5t160.5 -122t88.5 -182t27 -225.5v-114h-770v-21q0 -62 7.5 -114.5t38 -90.5t91.5 -59t168 -21
q54 0 109 2.5t109 6t104.5 9t94.5 11.5v-197zM1548 686q0 50 -8 100t-34 89.5t-76 64.5t-134 25q-81 0 -130 -25t-75 -65t-34 -90t-8 -99v-18h499v18zM782 524h-143q-75 0 -128.5 -6t-88 -24t-50.5 -52.5t-16 -91.5v-49q0 -40 12 -66t33 -41.5t50.5 -21.5t64.5 -6
q42 0 83 7.5t76 18t63 23t44 21.5v288z" />
    <glyph glyph-name="ccedilla" unicode="&#xe7;" horiz-adv-x="1028" 
d="M946 12q-20 -5 -53.5 -12.5t-78.5 -14.5t-101.5 -11.5t-122.5 -4.5q-249 0 -367.5 137.5t-118.5 397.5v145q0 264 118.5 398.5t367.5 134.5q66 0 122.5 -4.5t101.5 -11t78.5 -14t53.5 -13.5v-205q-109 9 -185 13.5t-124 4.5q-63 0 -112 -12t-82 -45.5t-50.5 -92.5
t-17.5 -153v-145q0 -93 17.5 -152.5t50.5 -93t82 -46.5t112 -13q48 0 124 4.5t185 13.5v-205zM221 -422l225 289h306l-273 -289h-258z" />
    <glyph glyph-name="egrave" unicode="&#xe8;" horiz-adv-x="1245" 
d="M1096 18q-65 -15 -174 -32t-254 -17q-156 0 -263.5 31.5t-174.5 99.5t-96.5 175.5t-29.5 259.5v71q0 290 131.5 433t389.5 143q144 0 243.5 -44.5t161 -124t88.5 -190t27 -241.5v-90h-772v-21q0 -63 8 -114t39 -87t92.5 -55.5t167.5 -19.5q91 0 196 7.5t220 18.5v-203z
M874 686q0 50 -7.5 100t-33.5 89.5t-75 64.5t-133 25q-81 0 -130.5 -25t-76 -65t-35 -90t-8.5 -99v-18h499v18zM584 1282l-324 303h314l268 -303h-258z" />
    <glyph glyph-name="eacute" unicode="&#xe9;" horiz-adv-x="1245" 
d="M1096 18q-65 -15 -174 -32t-254 -17q-156 0 -263.5 31.5t-174.5 99.5t-96.5 175.5t-29.5 259.5v71q0 290 131.5 433t389.5 143q144 0 243.5 -44.5t161 -124t88.5 -190t27 -241.5v-90h-772v-21q0 -63 8 -114t39 -87t92.5 -55.5t167.5 -19.5q91 0 196 7.5t220 18.5v-203z
M874 686q0 50 -7.5 100t-33.5 89.5t-75 64.5t-133 25q-81 0 -130.5 -25t-76 -65t-35 -90t-8.5 -99v-18h499v18zM737 1282h-260l270 303h314z" />
    <glyph glyph-name="ecircumflex" unicode="&#xea;" horiz-adv-x="1245" 
d="M1096 18q-65 -15 -174 -32t-254 -17q-156 0 -263.5 31.5t-174.5 99.5t-96.5 175.5t-29.5 259.5v71q0 290 131.5 433t389.5 143q144 0 243.5 -44.5t161 -124t88.5 -190t27 -241.5v-90h-772v-21q0 -63 8 -114t39 -87t92.5 -55.5t167.5 -19.5q91 0 196 7.5t220 18.5v-203z
M874 686q0 50 -7.5 100t-33.5 89.5t-75 64.5t-133 25q-81 0 -130.5 -25t-76 -65t-35 -90t-8.5 -99v-18h499v18zM824 1282l-197 184l-195 -184h-247l276 303h334l276 -303h-247z" />
    <glyph glyph-name="edieresis" unicode="&#xeb;" horiz-adv-x="1245" 
d="M1096 18q-65 -15 -174 -32t-254 -17q-156 0 -263.5 31.5t-174.5 99.5t-96.5 175.5t-29.5 259.5v71q0 290 131.5 433t389.5 143q144 0 243.5 -44.5t161 -124t88.5 -190t27 -241.5v-90h-772v-21q0 -63 8 -114t39 -87t92.5 -55.5t167.5 -19.5q91 0 196 7.5t220 18.5v-203z
M874 686q0 50 -7.5 100t-33.5 89.5t-75 64.5t-133 25q-81 0 -130.5 -25t-76 -65t-35 -90t-8.5 -99v-18h499v18zM758 1320v254h227v-254h-227zM262 1320v254h229v-254h-229z" />
    <glyph glyph-name="igrave" unicode="&#xec;" horiz-adv-x="588" 
d="M158 0v1153h272v-1153h-272zM226 1282l-324 303h314l268 -303h-258z" />
    <glyph glyph-name="iacute" unicode="&#xed;" horiz-adv-x="588" 
d="M158 0v1153h272v-1153h-272zM359 1282h-260l270 303h314z" />
    <glyph glyph-name="icircumflex" unicode="&#xee;" horiz-adv-x="588" 
d="M158 0v1153h272v-1153h-272zM491 1282l-197 184l-195 -184h-247l276 303h334l276 -303h-247z" />
    <glyph glyph-name="idieresis" unicode="&#xef;" horiz-adv-x="588" 
d="M158 0v1153h272v-1153h-272zM427 1321v254h227v-254h-227zM-69 1321v254h229v-254h-229z" />
    <glyph glyph-name="eth" unicode="&#xf0;" horiz-adv-x="1249" 
d="M1145 526q0 -281 -132 -418t-388 -137q-255 0 -388 131.5t-133 399.5v112q0 138 34 238t100 165t163 96.5t222 31.5q55 0 105.5 -10.5t90.5 -30.5q-37 83 -97.5 145t-148.5 101l-254 -172l-81 98l184 127q-50 11 -104.5 16.5t-110.5 5.5h-23t-32 -2v185q24 2 46.5 3
t39.5 1q106 0 197.5 -15t168.5 -41l160 111l82 -96l-101 -74q104 -56 179.5 -141.5t124.5 -194.5t72.5 -239t23.5 -275v-121zM877 627q0 78 -15 133.5t-46 90.5t-78.5 51t-112.5 16t-112.5 -16t-78.5 -52t-46 -93t-15 -139v-116q0 -82 14.5 -139.5t45.5 -93.5t78.5 -52
t113.5 -16t113.5 16t78.5 51.5t45.5 93t14.5 140.5v125z" />
    <glyph glyph-name="ntilde" unicode="&#xf1;" horiz-adv-x="1298" 
d="M883 0v731q0 62 -6.5 104.5t-24.5 69t-49.5 38t-81.5 11.5q-59 0 -134.5 -20t-168.5 -57v-877h-268v1153h258v-92q94 54 187.5 87.5t190.5 33.5q122 0 195 -33.5t111.5 -93.5t50.5 -143t12 -181v-731h-272zM1081 1546q0 -140 -55 -207t-164 -67q-53 0 -103.5 17
t-109.5 54l-90 58q-34 25 -59 37t-54 12q-41 0 -54 -28.5t-13 -80.5v-57h-168v57q0 141 59 207t168 66q28 0 52 -3.5t47.5 -11.5t48 -20.5t53.5 -30.5l92 -59q32 -22 60 -35.5t59 -13.5q41 0 54 26.5t13 79.5v56h164v-56z" />
    <glyph glyph-name="ograve" unicode="&#xf2;" horiz-adv-x="1249" 
d="M1145 506q0 -274 -134 -405.5t-386 -131.5t-386.5 131.5t-134.5 405.5v141q0 272 134.5 403.5t386.5 131.5t386 -131.5t134 -403.5v-141zM877 647q0 83 -14.5 140.5t-45.5 93.5t-78.5 52.5t-113.5 16.5q-65 0 -112.5 -16.5t-78.5 -52.5t-46 -93.5t-15 -140.5v-141
q0 -83 14.5 -141t45.5 -94.5t78.5 -53t113.5 -16.5t113.5 16.5t78.5 53t45.5 94.5t14.5 141v141zM561 1282l-324 303h314l268 -303h-258z" />
    <glyph glyph-name="oacute" unicode="&#xf3;" horiz-adv-x="1249" 
d="M1145 506q0 -274 -134 -405.5t-386 -131.5t-386.5 131.5t-134.5 405.5v141q0 272 134.5 403.5t386.5 131.5t386 -131.5t134 -403.5v-141zM877 647q0 83 -14.5 140.5t-45.5 93.5t-78.5 52.5t-113.5 16.5q-65 0 -112.5 -16.5t-78.5 -52.5t-46 -93.5t-15 -140.5v-141
q0 -83 14.5 -141t45.5 -94.5t78.5 -53t113.5 -16.5t113.5 16.5t78.5 53t45.5 94.5t14.5 141v141zM704 1282h-260l270 303h314z" />
    <glyph glyph-name="ocircumflex" unicode="&#xf4;" horiz-adv-x="1249" 
d="M1145 506q0 -274 -134 -405.5t-386 -131.5t-386.5 131.5t-134.5 405.5v141q0 272 134.5 403.5t386.5 131.5t386 -131.5t134 -403.5v-141zM877 647q0 83 -14.5 140.5t-45.5 93.5t-78.5 52.5t-113.5 16.5q-65 0 -112.5 -16.5t-78.5 -52.5t-46 -93.5t-15 -140.5v-141
q0 -83 14.5 -141t45.5 -94.5t78.5 -53t113.5 -16.5t113.5 16.5t78.5 53t45.5 94.5t14.5 141v141zM820 1282l-197 184l-195 -184h-247l276 303h334l276 -303h-247z" />
    <glyph glyph-name="otilde" unicode="&#xf5;" horiz-adv-x="1249" 
d="M1145 506q0 -274 -134 -405.5t-386 -131.5t-386.5 131.5t-134.5 405.5v141q0 272 134.5 403.5t386.5 131.5t386 -131.5t134 -403.5v-141zM877 647q0 83 -14.5 140.5t-45.5 93.5t-78.5 52.5t-113.5 16.5q-65 0 -112.5 -16.5t-78.5 -52.5t-46 -93.5t-15 -140.5v-141
q0 -83 14.5 -141t45.5 -94.5t78.5 -53t113.5 -16.5t113.5 16.5t78.5 53t45.5 94.5t14.5 141v141zM1059 1546q0 -140 -55 -207t-164 -67q-53 0 -103.5 17t-109.5 54l-90 58q-34 25 -59 37t-54 12q-41 0 -54 -28.5t-13 -80.5v-57h-168v57q0 141 59 207t168 66q28 0 52 -3.5
t47.5 -11.5t48 -20.5t53.5 -30.5l92 -59q32 -22 60 -35.5t59 -13.5q41 0 54 26.5t13 79.5v56h164v-56z" />
    <glyph glyph-name="odieresis" unicode="&#xf6;" horiz-adv-x="1249" 
d="M1145 506q0 -274 -134 -405.5t-386 -131.5t-386.5 131.5t-134.5 405.5v141q0 272 134.5 403.5t386.5 131.5t386 -131.5t134 -403.5v-141zM877 647q0 83 -14.5 140.5t-45.5 93.5t-78.5 52.5t-113.5 16.5q-65 0 -112.5 -16.5t-78.5 -52.5t-46 -93.5t-15 -140.5v-141
q0 -83 14.5 -141t45.5 -94.5t78.5 -53t113.5 -16.5t113.5 16.5t78.5 53t45.5 94.5t14.5 141v141zM760 1321v254h227v-254h-227zM264 1321v254h229v-254h-229z" />
    <glyph glyph-name="divide" unicode="&#xf7;" horiz-adv-x="1411" 
d="M571 186v299h269v-299h-269zM201 682v225h1007v-225h-1007zM571 1098v299h269v-299h-269z" />
    <glyph glyph-name="oslash" unicode="&#xf8;" horiz-adv-x="1249" 
d="M1145 506q0 -274 -134 -405.5t-386 -131.5q-94 0 -171 18.5t-139 53.5l-45 -61h-250l156 202q-35 63 -53.5 143.5t-18.5 180.5v141q0 272 134.5 403.5t386.5 131.5q80 0 147.5 -14t124.5 -40l53 70h248l-147 -194q46 -65 70 -153.5t24 -203.5v-141zM877 647q0 32 -3 61.5
t-8 55.5l-399 -526q29 -20 68 -28.5t90 -8.5q66 0 113.5 16.5t78.5 53t45.5 94.5t14.5 141v141zM745 930q-24 11 -54.5 15.5t-65.5 4.5q-65 0 -112.5 -16.5t-78.5 -52.5t-46 -93.5t-15 -140.5v-141v-32.5t2 -31.5z" />
    <glyph glyph-name="ugrave" unicode="&#xf9;" 
d="M891 0v92q-103 -56 -201 -89.5t-198 -33.5q-76 0 -131 17t-93.5 47t-62.5 72t-37.5 92t-18 106.5t-4.5 116.5v733h269v-733q0 -62 7 -104.5t25 -68.5t50.5 -38t83.5 -12q58 0 133 21t168 56v879h270v-1153h-260zM573 1282l-324 303h314l268 -303h-258z" />
    <glyph glyph-name="uacute" unicode="&#xfa;" 
d="M891 0v92q-103 -56 -201 -89.5t-198 -33.5q-76 0 -131 17t-93.5 47t-62.5 72t-37.5 92t-18 106.5t-4.5 116.5v733h269v-733q0 -62 7 -104.5t25 -68.5t50.5 -38t83.5 -12q58 0 133 21t168 56v879h270v-1153h-260zM749 1282h-260l270 303h314z" />
    <glyph glyph-name="ucircumflex" unicode="&#xfb;" 
d="M891 0v92q-103 -56 -201 -89.5t-198 -33.5q-76 0 -131 17t-93.5 47t-62.5 72t-37.5 92t-18 106.5t-4.5 116.5v733h269v-733q0 -62 7 -104.5t25 -68.5t50.5 -38t83.5 -12q58 0 133 21t168 56v879h270v-1153h-260zM848 1282l-197 184l-195 -184h-247l276 303h334l276 -303
h-247z" />
    <glyph glyph-name="udieresis" unicode="&#xfc;" 
d="M891 0v92q-103 -56 -201 -89.5t-198 -33.5q-76 0 -131 17t-93.5 47t-62.5 72t-37.5 92t-18 106.5t-4.5 116.5v733h269v-733q0 -62 7 -104.5t25 -68.5t50.5 -38t83.5 -12q58 0 133 21t168 56v879h270v-1153h-260zM787 1320v254h227v-254h-227zM291 1320v254h229v-254h-229
z" />
    <glyph glyph-name="yacute" unicode="&#xfd;" horiz-adv-x="1198" 
d="M713 1282h-260l270 303h314zM471 8l-430 1145h293l201 -612q12 -39 22 -76t19.5 -74.5t19.5 -76.5t22 -81q19 85 36 158t40 150l183 612h280l-401 -1196q-35 -102 -71 -178t-84.5 -127t-115 -76t-161.5 -25q-84 0 -157 8t-118 17v197q35 -2 63.5 -4t53.5 -3t49 -1.5
t51 -0.5q37 0 62.5 9t45 29.5t36 53.5t34.5 81z" />
    <glyph glyph-name="thorn" unicode="&#xfe;" horiz-adv-x="1260" 
d="M150 -422v2013h256v-512q83 54 161.5 78.5t163.5 24.5q100 0 178.5 -29.5t133 -93t83.5 -162.5t29 -238v-151q0 -150 -37 -252.5t-104 -165.5t-160.5 -91t-206.5 -28q-54 0 -112 7t-117 16v-416h-268zM887 659q0 81 -13.5 136.5t-41 90t-69 49.5t-97.5 15q-28 0 -55 -2.5
t-56.5 -9.5t-63.5 -19t-75 -30v-670q29 -5 59 -9t57.5 -7t52.5 -4.5t44 -1.5q61 0 109 13t81 48t50.5 95t17.5 155v151z" />
    <glyph glyph-name="ydieresis" unicode="&#xff;" horiz-adv-x="1198" 
d="M752 1320v254h227v-254h-227zM256 1320v254h229v-254h-229zM471 8l-430 1145h293l201 -612q12 -39 22 -76t19.5 -74.5t19.5 -76.5t22 -81q19 85 36 158t40 150l183 612h280l-401 -1196q-35 -102 -71 -178t-84.5 -127t-115 -76t-161.5 -25q-84 0 -157 8t-118 17v197
q35 -2 63.5 -4t53.5 -3t49 -1.5t51 -0.5q37 0 62.5 9t45 29.5t36 53.5t34.5 81z" />
    <glyph glyph-name="Amacron" unicode="&#x100;" horiz-adv-x="1444" 
d="M1096 0l-131 426h-490l-135 -426h-293l461 1522h428l461 -1522h-301zM782 1081q-17 57 -29.5 117.5t-23.5 122.5h-18q-13 -62 -25 -122.5t-29 -117.5l-129 -419h381zM337 1669v182h771v-182h-771z" />
    <glyph glyph-name="amacron" unicode="&#x101;" horiz-adv-x="1182" 
d="M797 0v76q-27 -18 -64.5 -37t-83.5 -34.5t-101 -25.5t-116 -10q-161 0 -249.5 81.5t-88.5 248.5v43q0 115 39.5 184t111.5 105.5t172 47.5t222 11h137v72q0 61 -8.5 99.5t-34.5 60t-73 29t-123 7.5q-87 0 -177 -5.5t-186 -16.5v182q18 8 58 19t94.5 21t120 17t135.5 7
q138 0 228 -24t142.5 -75t73.5 -130.5t21 -190.5v-762h-250zM782 524h-143q-75 0 -128.5 -6t-88 -24t-50.5 -52.5t-16 -91.5v-49q0 -40 12 -66t33 -41.5t51 -21.5t66 -6q42 0 82.5 7.5t75.5 18t63 23t43 21.5v288zM210 1339v181h771v-181h-771z" />
    <glyph glyph-name="Abreve" unicode="&#x102;" horiz-adv-x="1444" 
d="M1096 0l-131 426h-490l-135 -426h-293l461 1522h428l461 -1522h-301zM782 1081q-17 57 -29.5 117.5t-23.5 122.5h-18q-13 -62 -25 -122.5t-29 -117.5l-129 -419h381zM1108 1935q-16 -161 -116 -242.5t-271 -81.5q-172 0 -271 81.5t-114 242.5h174q5 -49 22 -82t44 -53
t63.5 -28.5t81.5 -8.5q46 0 82.5 8.5t63.5 28.5t44.5 53t24.5 82h172z" />
    <glyph glyph-name="abreve" unicode="&#x103;" horiz-adv-x="1182" 
d="M797 0v76q-27 -18 -64.5 -37t-83.5 -34.5t-101 -25.5t-116 -10q-161 0 -249.5 81.5t-88.5 248.5v43q0 115 39.5 184t111.5 105.5t172 47.5t222 11h137v72q0 61 -8.5 99.5t-34.5 60t-73 29t-123 7.5q-87 0 -177 -5.5t-186 -16.5v182q18 8 58 19t94.5 21t120 17t135.5 7
q138 0 228 -24t142.5 -75t73.5 -130.5t21 -190.5v-762h-250zM782 524h-143q-75 0 -128.5 -6t-88 -24t-50.5 -52.5t-16 -91.5v-49q0 -40 12 -66t33 -41.5t51 -21.5t66 -6q42 0 82.5 7.5t75.5 18t63 23t43 21.5v288zM994 1599q-16 -158 -116 -239.5t-271 -81.5
q-172 0 -271 81.5t-114 239.5h174q5 -49 22 -81.5t44 -52t63.5 -27.5t81.5 -8q46 0 82.5 8t63.5 27.5t44.5 52t24.5 81.5h172z" />
    <glyph glyph-name="Aogonek" unicode="&#x104;" horiz-adv-x="1444" 
d="M1397 -416q-26 -8 -86.5 -18t-139.5 -10q-139 0 -210.5 52.5t-71.5 158.5q0 65 52 129.5t151 115.5l-127 414h-490l-135 -426h-293l461 1522h428l461 -1522q-90 -36 -145 -65.5t-84.5 -54t-39.5 -45t-10 -38.5q0 -37 24.5 -57.5t90.5 -20.5q42 0 82.5 4t81.5 7v-146z
M782 1081q-17 57 -29.5 117.5t-23.5 122.5h-18q-13 -62 -25 -122.5t-29 -117.5l-129 -419h381z" />
    <glyph glyph-name="aogonek" unicode="&#x105;" horiz-adv-x="1182" 
d="M1047 -416q-26 -8 -86.5 -18t-139.5 -10q-139 0 -210.5 51.5t-71.5 150.5q0 36 18.5 72t52.5 69.5t81.5 64.5t105.5 56v56q-27 -18 -64.5 -37t-83.5 -34.5t-101 -25.5t-116 -10q-161 0 -249.5 81.5t-88.5 248.5v43q0 115 39.5 184t111.5 105.5t172 47.5t222 11h137v72
q0 61 -8.5 99.5t-34.5 60t-73 29t-123 7.5q-87 0 -177 -5.5t-186 -16.5v182q18 8 58 19t94.5 21t120 17t135.5 7q138 0 228 -24t142.5 -75t73.5 -130.5t21 -190.5v-762q-90 -36 -145 -65.5t-84.5 -54t-39.5 -45t-10 -38.5q0 -37 24.5 -57.5t90.5 -20.5q42 0 82.5 4t81.5 7
v-146zM782 524h-143q-75 0 -128.5 -6t-88 -24t-50.5 -52.5t-16 -91.5v-49q0 -40 12 -66t33 -41.5t51 -21.5t66 -6q42 0 82.5 7.5t75.5 18t63 23t43 21.5v288z" />
    <glyph glyph-name="Cacute" unicode="&#x106;" horiz-adv-x="1202" 
d="M1139 6q-26 -6 -70.5 -13t-97.5 -12.5t-109 -9.5t-106 -4q-147 0 -266.5 31.5t-205 110.5t-132 212.5t-46.5 337.5v203q0 204 46.5 337.5t132 212t205 109.5t266.5 31q50 0 106 -4t109 -10t97.5 -13.5t70.5 -13.5v-227q-38 3 -83 6.5t-93 6t-96 4.5t-93 2
q-96 0 -167.5 -19.5t-119 -69.5t-71 -135.5t-23.5 -216.5v-203q0 -131 23.5 -216.5t71 -135.5t119 -70t167.5 -20q45 0 93 1.5t96 4.5t93 6.5t83 6.5v-230zM813 1617h-260l270 305h314z" />
    <glyph glyph-name="cacute" unicode="&#x107;" horiz-adv-x="1028" 
d="M946 12q-20 -5 -53.5 -12.5t-78.5 -14.5t-101.5 -11.5t-122.5 -4.5q-249 0 -367.5 137.5t-118.5 397.5v145q0 264 118.5 398.5t367.5 134.5q66 0 122.5 -4.5t101.5 -11t78.5 -14t53.5 -13.5v-205q-109 9 -185 13.5t-124 4.5q-63 0 -112 -12t-82 -45.5t-50.5 -92.5
t-17.5 -153v-145q0 -93 17.5 -152.5t50.5 -93t82 -46.5t112 -13q48 0 124 4.5t185 13.5v-205zM694 1282h-260l270 303h314z" />
    <glyph glyph-name="Ccircumflex" unicode="&#x108;" horiz-adv-x="1202" 
d="M1139 6q-26 -6 -70.5 -13t-97.5 -12.5t-109 -9.5t-106 -4q-147 0 -266.5 31.5t-205 110.5t-132 212.5t-46.5 337.5v203q0 204 46.5 337.5t132 212t205 109.5t266.5 31q50 0 106 -4t109 -10t97.5 -13.5t70.5 -13.5v-227q-38 3 -83 6.5t-93 6t-96 4.5t-93 2
q-96 0 -167.5 -19.5t-119 -69.5t-71 -135.5t-23.5 -216.5v-203q0 -131 23.5 -216.5t71 -135.5t119 -70t167.5 -20q45 0 93 1.5t96 4.5t93 6.5t83 6.5v-230zM877 1617l-197 187l-195 -187h-247l276 305h334l276 -305h-247z" />
    <glyph glyph-name="ccircumflex" unicode="&#x109;" horiz-adv-x="1028" 
d="M946 12q-20 -5 -53.5 -12.5t-78.5 -14.5t-101.5 -11.5t-122.5 -4.5q-249 0 -367.5 137.5t-118.5 397.5v145q0 264 118.5 398.5t367.5 134.5q66 0 122.5 -4.5t101.5 -11t78.5 -14t53.5 -13.5v-205q-109 9 -185 13.5t-124 4.5q-63 0 -112 -12t-82 -45.5t-50.5 -92.5
t-17.5 -153v-145q0 -93 17.5 -152.5t50.5 -93t82 -46.5t112 -13q48 0 124 4.5t185 13.5v-205zM777 1282l-197 184l-195 -184h-247l276 303h334l276 -303h-247z" />
    <glyph glyph-name="Cdotaccent" unicode="&#x10a;" horiz-adv-x="1202" 
d="M1139 6q-26 -6 -70.5 -13t-97.5 -12.5t-109 -9.5t-106 -4q-147 0 -266.5 31.5t-205 110.5t-132 212.5t-46.5 337.5v203q0 204 46.5 337.5t132 212t205 109.5t266.5 31q50 0 106 -4t109 -10t97.5 -13.5t70.5 -13.5v-227q-38 3 -83 6.5t-93 6t-96 4.5t-93 2
q-96 0 -167.5 -19.5t-119 -69.5t-71 -135.5t-23.5 -216.5v-203q0 -131 23.5 -216.5t71 -135.5t119 -70t167.5 -20q45 0 93 1.5t96 4.5t93 6.5t83 6.5v-230zM575 1645v256h275v-256h-275z" />
    <glyph glyph-name="cdotaccent" unicode="&#x10b;" horiz-adv-x="1028" 
d="M946 12q-20 -5 -53.5 -12.5t-78.5 -14.5t-101.5 -11.5t-122.5 -4.5q-249 0 -367.5 137.5t-118.5 397.5v145q0 264 118.5 398.5t367.5 134.5q66 0 122.5 -4.5t101.5 -11t78.5 -14t53.5 -13.5v-205q-109 9 -185 13.5t-124 4.5q-63 0 -112 -12t-82 -45.5t-50.5 -92.5
t-17.5 -153v-145q0 -93 17.5 -152.5t50.5 -93t82 -46.5t112 -13q48 0 124 4.5t185 13.5v-205zM460 1333v254h275v-254h-275z" />
    <glyph glyph-name="Ccaron" unicode="&#x10c;" horiz-adv-x="1202" 
d="M1139 6q-26 -6 -70.5 -13t-97.5 -12.5t-109 -9.5t-106 -4q-147 0 -266.5 31.5t-205 110.5t-132 212.5t-46.5 337.5v203q0 204 46.5 337.5t132 212t205 109.5t266.5 31q50 0 106 -4t109 -10t97.5 -13.5t70.5 -13.5v-227q-38 3 -83 6.5t-93 6t-96 4.5t-93 2
q-96 0 -167.5 -19.5t-119 -69.5t-71 -135.5t-23.5 -216.5v-203q0 -131 23.5 -216.5t71 -135.5t119 -70t167.5 -20q45 0 93 1.5t96 4.5t93 6.5t83 6.5v-230zM545 1617l-276 305h247l195 -188l197 188h247l-276 -305h-334z" />
    <glyph glyph-name="ccaron" unicode="&#x10d;" horiz-adv-x="1028" 
d="M946 12q-20 -5 -53.5 -12.5t-78.5 -14.5t-101.5 -11.5t-122.5 -4.5q-249 0 -367.5 137.5t-118.5 397.5v145q0 264 118.5 398.5t367.5 134.5q66 0 122.5 -4.5t101.5 -11t78.5 -14t53.5 -13.5v-205q-109 9 -185 13.5t-124 4.5q-63 0 -112 -12t-82 -45.5t-50.5 -92.5
t-17.5 -153v-145q0 -93 17.5 -152.5t50.5 -93t82 -46.5t112 -13q48 0 124 4.5t185 13.5v-205zM414 1282l-276 303h247l195 -186l197 186h247l-276 -303h-334z" />
    <glyph glyph-name="Dcaron" unicode="&#x10e;" horiz-adv-x="1446" 
d="M1339 668q0 -168 -38.5 -295.5t-122.5 -213t-217.5 -128.5t-323.5 -43q-70 0 -127 0.5t-111.5 2t-111 4t-125.5 5.5v1522q69 3 123.5 5t107.5 3.5t111 2.5t133 1q185 0 317.5 -42.5t218 -127.5t126 -211t40.5 -293v-192zM1055 860q0 124 -25 207t-77 132.5t-132 70
t-190 20.5h-189v-1061h189q110 0 190 22t132 73t77 135t25 209v192zM551 1615l-276 305h247l195 -188l197 188h247l-276 -305h-334z" />
    <glyph glyph-name="dcaron" unicode="&#x10f;" horiz-adv-x="1554" 
d="M858 0v59q-59 -37 -140 -63.5t-183 -26.5t-182 31t-135.5 95t-84.5 161t-29 229v164q0 152 36.5 254.5t102 164.5t157 88t202.5 26q65 0 123 -6t117 -17v432h270v-1591h-254zM844 936q-59 9 -117 14.5t-98 5.5q-62 0 -109 -11.5t-79.5 -44.5t-49 -93.5t-16.5 -157.5v-164
q0 -77 13 -131.5t41.5 -89t73 -50t107.5 -15.5t121.5 14t112.5 37v686zM1430 1090h-199l108 501h256z" />
    <glyph glyph-name="Dcroat" unicode="&#x110;" horiz-adv-x="1446" 
d="M1339 668q0 -168 -38.5 -295.5t-122.5 -213t-217.5 -128.5t-323.5 -43q-121 0 -237.5 3t-237.5 9v672h-107v225h107v625q235 12 475 12q185 0 317.5 -42.5t218 -127.5t126 -211t40.5 -293v-192zM1055 860q0 124 -25 207t-77 132.5t-132 70t-190 20.5h-189v-393h267v-225
h-267v-443h189q110 0 190 22t132 73t77 135t25 209v192z" />
    <glyph glyph-name="dcroat" unicode="&#x111;" horiz-adv-x="1286" 
d="M858 0v59q-59 -37 -140 -63.5t-183 -26.5t-182 31t-135.5 95t-84.5 161t-29 229v164q0 152 36.5 254.5t102 164.5t157 88t202.5 26q65 0 123 -6t117 -17v139h-346v168h346v125h270v-125h119v-168h-119v-1298h-254zM844 936q-59 9 -117 14.5t-98 5.5q-62 0 -109 -11.5
t-79.5 -44.5t-49 -93.5t-16.5 -157.5v-164q0 -77 13 -131.5t41.5 -89t73 -50t107.5 -15.5t122 14t112 37v686z" />
    <glyph glyph-name="Emacron" unicode="&#x112;" horiz-adv-x="1237" 
d="M162 0v1522h968v-238h-681v-387h638v-229h-638v-432h681v-236h-968zM268 1669v182h771v-182h-771z" />
    <glyph glyph-name="emacron" unicode="&#x113;" horiz-adv-x="1245" 
d="M1096 18q-65 -15 -174 -32t-254 -17q-156 0 -263.5 31.5t-174.5 99.5t-96.5 175.5t-29.5 259.5v71q0 290 131.5 433t389.5 143q144 0 243.5 -44.5t161 -124t88.5 -190t27 -241.5v-90h-772v-21q0 -63 8 -114t39 -87t92.5 -55.5t167.5 -19.5q91 0 196 7.5t220 18.5v-203z
M874 686q0 50 -7.5 100t-33.5 89.5t-75 64.5t-133 25q-81 0 -130.5 -25t-76 -65t-35 -90t-8.5 -99v-18h499v18zM233 1339v181h771v-181h-771z" />
    <glyph glyph-name="Ebreve" unicode="&#x114;" horiz-adv-x="1237" 
d="M162 0v1522h968v-238h-681v-387h638v-229h-638v-432h681v-236h-968zM1045 1935q-16 -161 -116 -242.5t-271 -81.5q-172 0 -271 81.5t-114 242.5h174q5 -49 22 -82t44 -53t63.5 -28.5t81.5 -8.5q46 0 82.5 8.5t63.5 28.5t44.5 53t24.5 82h172z" />
    <glyph glyph-name="ebreve" unicode="&#x115;" horiz-adv-x="1245" 
d="M1096 18q-65 -15 -174 -32t-254 -17q-156 0 -263.5 31.5t-174.5 99.5t-96.5 175.5t-29.5 259.5v71q0 290 131.5 433t389.5 143q144 0 243.5 -44.5t161 -124t88.5 -190t27 -241.5v-90h-772v-21q0 -63 8 -114t39 -87t92.5 -55.5t167.5 -19.5q91 0 196 7.5t220 18.5v-203z
M874 686q0 50 -7.5 100t-33.5 89.5t-75 64.5t-133 25q-81 0 -130.5 -25t-76 -65t-35 -90t-8.5 -99v-18h499v18zM1012 1599q-16 -158 -116 -239.5t-271 -81.5q-172 0 -271 81.5t-114 239.5h174q5 -49 22 -81.5t44 -52t63.5 -27.5t81.5 -8q46 0 82.5 8t63.5 27.5t44.5 52
t24.5 81.5h172z" />
    <glyph glyph-name="Edotaccent" unicode="&#x116;" horiz-adv-x="1237" 
d="M162 0v1522h968v-238h-681v-387h638v-229h-638v-432h681v-236h-968zM508 1645v256h275v-256h-275z" />
    <glyph glyph-name="edotaccent" unicode="&#x117;" horiz-adv-x="1245" 
d="M1096 18q-65 -15 -174 -32t-254 -17q-156 0 -263.5 31.5t-174.5 99.5t-96.5 175.5t-29.5 259.5v71q0 290 131.5 433t389.5 143q144 0 243.5 -44.5t161 -124t88.5 -190t27 -241.5v-90h-772v-21q0 -63 8 -114t39 -87t92.5 -55.5t167.5 -19.5q91 0 196 7.5t220 18.5v-203z
M874 686q0 50 -7.5 100t-33.5 89.5t-75 64.5t-133 25q-81 0 -130.5 -25t-76 -65t-35 -90t-8.5 -99v-18h499v18zM479 1333v254h275v-254h-275z" />
    <glyph glyph-name="Eogonek" unicode="&#x118;" horiz-adv-x="1237" 
d="M1130 -416q-26 -8 -86 -18t-139 -10q-139 0 -210.5 51.5t-71.5 150.5q0 69 55 132.5t168 109.5h-684v1522h968v-238h-681v-387h638v-229h-638v-432h681v-236q-90 -36 -144.5 -65.5t-84 -54t-39.5 -45t-10 -38.5q0 -37 24.5 -57.5t90.5 -20.5q42 0 82.5 4t80.5 7v-146z
" />
    <glyph glyph-name="eogonek" unicode="&#x119;" horiz-adv-x="1245" 
d="M1096 -416q-26 -8 -86.5 -18t-139.5 -10q-139 0 -211.5 51.5t-72.5 150.5q0 54 33.5 109.5t101.5 101.5h-53q-156 0 -263.5 31.5t-174.5 99.5t-96.5 175.5t-29.5 259.5v71q0 290 131.5 433t389.5 143q144 0 243.5 -44.5t161 -124t88.5 -190t27 -241.5v-90h-772v-21
q0 -63 8 -114t39 -87t92.5 -55.5t167.5 -19.5q91 0 196 7.5t220 18.5v-203q-91 -36 -146 -68t-85 -60t-40 -51.5t-10 -41.5q0 -37 25.5 -57.5t91.5 -20.5q40 0 81 4t83 7v-146zM874 686q0 50 -7.5 100t-33.5 89.5t-75 64.5t-133 25q-81 0 -130.5 -25t-76 -65t-35 -90
t-8.5 -99v-18h499v18z" />
    <glyph glyph-name="Ecaron" unicode="&#x11a;" horiz-adv-x="1237" 
d="M162 0v1522h968v-238h-681v-387h638v-229h-638v-432h681v-236h-968zM489 1617l-276 305h247l195 -188l197 188h247l-276 -305h-334z" />
    <glyph glyph-name="ecaron" unicode="&#x11b;" horiz-adv-x="1245" 
d="M1096 18q-65 -15 -174 -32t-254 -17q-156 0 -263.5 31.5t-174.5 99.5t-96.5 175.5t-29.5 259.5v71q0 290 131.5 433t389.5 143q144 0 243.5 -44.5t161 -124t88.5 -190t27 -241.5v-90h-772v-21q0 -63 8 -114t39 -87t92.5 -55.5t167.5 -19.5q91 0 196 7.5t220 18.5v-203z
M874 686q0 50 -7.5 100t-33.5 89.5t-75 64.5t-133 25q-81 0 -130.5 -25t-76 -65t-35 -90t-8.5 -99v-18h499v18zM473 1282l-276 303h247l195 -186l197 186h247l-276 -303h-334z" />
    <glyph glyph-name="Gcircumflex" unicode="&#x11c;" horiz-adv-x="1370" 
d="M969 811h272v-797q-32 -7 -82.5 -15t-115.5 -15t-141.5 -12t-158.5 -5q-87 0 -168 12.5t-152 43t-129 81t-100 126.5t-65 180.5t-23 242.5v215q0 145 26 252.5t71 183.5t106.5 124t133 76t150 38t157.5 10q84 0 164 -6t146.5 -14t113.5 -16.5t65 -14.5v-219
q-37 3 -95.5 6.5t-122 7t-123.5 5.5t-99 2q-93 0 -168.5 -14.5t-128.5 -60.5t-82 -132t-29 -228v-215q0 -131 23.5 -215t70.5 -133.5t117 -68.5t162 -19q57 0 110.5 1.5t94.5 4.5v588zM908 1617l-197 187l-195 -187h-247l276 305h334l276 -305h-247z" />
    <glyph glyph-name="gcircumflex" unicode="&#x11d;" horiz-adv-x="1262" 
d="M844 2q-14 -2 -37.5 -5t-52 -5.5t-59 -4t-58.5 -1.5q-127 0 -225.5 29t-166.5 92.5t-103.5 165t-35.5 245.5v129q0 137 32 237.5t101 166.5t176 98.5t257 32.5q57 0 115.5 -2.5t115.5 -6.5t110.5 -9.5t100.5 -10.5v-1196q0 -94 -21.5 -169t-76.5 -127.5t-150.5 -81
t-242.5 -28.5q-75 0 -149 6t-136.5 13.5t-106.5 15.5t-59 11v184q48 -3 102 -6.5t110.5 -6t112.5 -4.5t109 -2q80 0 127 12t72 36.5t32 61t7 85.5v45zM844 944q-9 1 -27.5 3.5t-43.5 4t-55.5 3t-62.5 1.5q-83 0 -136.5 -18.5t-85 -57t-44 -97t-12.5 -138.5v-127
q0 -87 14.5 -145.5t47.5 -94.5t85 -51.5t127 -15.5q27 0 56.5 1.5t56.5 3.5t48.5 4.5t31.5 4.5v719zM832 1282l-197 184l-195 -184h-247l276 303h334l276 -303h-247z" />
    <glyph glyph-name="Gbreve" unicode="&#x11e;" horiz-adv-x="1370" 
d="M969 811h272v-797q-32 -7 -82.5 -15t-115.5 -15t-141.5 -12t-158.5 -5q-87 0 -168 12.5t-152 43t-129 81t-100 126.5t-65 180.5t-23 242.5v215q0 145 26 252.5t71 183.5t106.5 124t133 76t150 38t157.5 10q84 0 164 -6t146.5 -14t113.5 -16.5t65 -14.5v-219
q-37 3 -95.5 6.5t-122 7t-123.5 5.5t-99 2q-93 0 -168.5 -14.5t-128.5 -60.5t-82 -132t-29 -228v-215q0 -131 23.5 -215t70.5 -133.5t117 -68.5t162 -19q57 0 110.5 1.5t94.5 4.5v588zM1127 1939q-16 -161 -116 -242.5t-271 -81.5q-172 0 -271 81.5t-114 242.5h174
q5 -49 22 -82t44 -53t63.5 -28.5t81.5 -8.5q46 0 82.5 8.5t63.5 28.5t44.5 53t24.5 82h172z" />
    <glyph glyph-name="gbreve" unicode="&#x11f;" horiz-adv-x="1262" 
d="M844 2q-14 -2 -37.5 -5t-52 -5.5t-59 -4t-58.5 -1.5q-127 0 -225.5 29t-166.5 92.5t-103.5 165t-35.5 245.5v129q0 137 32 237.5t101 166.5t176 98.5t257 32.5q57 0 115.5 -2.5t115.5 -6.5t110.5 -9.5t100.5 -10.5v-1196q0 -94 -21.5 -169t-76.5 -127.5t-150.5 -81
t-242.5 -28.5q-75 0 -149 6t-136.5 13.5t-106.5 15.5t-59 11v184q48 -3 102 -6.5t110.5 -6t112.5 -4.5t109 -2q80 0 127 12t72 36.5t32 61t7 85.5v45zM844 944q-9 1 -27.5 3.5t-43.5 4t-55.5 3t-62.5 1.5q-83 0 -136.5 -18.5t-85 -57t-44 -97t-12.5 -138.5v-127
q0 -87 14.5 -145.5t47.5 -94.5t85 -51.5t127 -15.5q27 0 56.5 1.5t56.5 3.5t48.5 4.5t31.5 4.5v719zM1024 1599q-16 -158 -116 -239.5t-271 -81.5q-172 0 -271 81.5t-114 239.5h174q5 -49 22 -81.5t44 -52t63.5 -27.5t81.5 -8q46 0 82.5 8t63.5 27.5t44.5 52t24.5 81.5h172z
" />
    <glyph glyph-name="Gdotaccent" unicode="&#x120;" horiz-adv-x="1370" 
d="M969 811h272v-797q-32 -7 -82.5 -15t-115.5 -15t-141.5 -12t-158.5 -5q-87 0 -168 12.5t-152 43t-129 81t-100 126.5t-65 180.5t-23 242.5v215q0 145 26 252.5t71 183.5t106.5 124t133 76t150 38t157.5 10q84 0 164 -6t146.5 -14t113.5 -16.5t65 -14.5v-219
q-37 3 -95.5 6.5t-122 7t-123.5 5.5t-99 2q-93 0 -168.5 -14.5t-128.5 -60.5t-82 -132t-29 -228v-215q0 -131 23.5 -215t70.5 -133.5t117 -68.5t162 -19q57 0 110.5 1.5t94.5 4.5v588zM591 1645v256h275v-256h-275z" />
    <glyph glyph-name="gdotaccent" unicode="&#x121;" horiz-adv-x="1262" 
d="M844 2q-14 -2 -37.5 -5t-52 -5.5t-59 -4t-58.5 -1.5q-127 0 -225.5 29t-166.5 92.5t-103.5 165t-35.5 245.5v129q0 137 32 237.5t101 166.5t176 98.5t257 32.5q57 0 115.5 -2.5t115.5 -6.5t110.5 -9.5t100.5 -10.5v-1196q0 -94 -21.5 -169t-76.5 -127.5t-150.5 -81
t-242.5 -28.5q-75 0 -149 6t-136.5 13.5t-106.5 15.5t-59 11v184q48 -3 102 -6.5t110.5 -6t112.5 -4.5t109 -2q80 0 127 12t72 36.5t32 61t7 85.5v45zM844 944q-9 1 -27.5 3.5t-43.5 4t-55.5 3t-62.5 1.5q-83 0 -136.5 -18.5t-85 -57t-44 -97t-12.5 -138.5v-127
q0 -87 14.5 -145.5t47.5 -94.5t85 -51.5t127 -15.5q27 0 56.5 1.5t56.5 3.5t48.5 4.5t31.5 4.5v719zM499 1333v254h275v-254h-275z" />
    <glyph glyph-name="Gcommaaccent" unicode="&#x122;" horiz-adv-x="1370" 
d="M969 811h272v-797q-32 -7 -82.5 -15t-115.5 -15t-141.5 -12t-158.5 -5q-87 0 -168 12.5t-152 43t-129 81t-100 126.5t-65 180.5t-23 242.5v215q0 145 26 252.5t71 183.5t106.5 124t133 76t150 38t157.5 10q84 0 164 -6t146.5 -14t113.5 -16.5t65 -14.5v-219
q-37 3 -95.5 6.5t-122 7t-123.5 5.5t-99 2q-93 0 -168.5 -14.5t-128.5 -60.5t-82 -132t-29 -228v-215q0 -131 23.5 -215t70.5 -133.5t117 -68.5t162 -19q57 0 110.5 1.5t94.5 4.5v588zM469 -422l138 289h290l-188 -289h-240z" />
    <glyph glyph-name="gcommaaccent" unicode="&#x123;" horiz-adv-x="1262" 
d="M1114 -43q0 -94 -21.5 -169t-76.5 -127.5t-150.5 -81t-242.5 -28.5q-75 0 -149 6t-136.5 13.5t-106.5 15.5t-59 11v184q48 -3 102 -6.5t110.5 -6t112.5 -4.5t109 -2q80 0 127 12t72 36.5t32 61t7 85.5v45q-14 -2 -37.5 -5t-52 -5.5t-59 -4t-58.5 -1.5q-127 0 -225.5 29
t-166.5 92.5t-103.5 165t-35.5 245.5v129q0 137 32 237.5t101 166.5t176 98.5t257 32.5q57 0 115.5 -2.5t115.5 -6.5t110.5 -9.5t100.5 -10.5v-1196zM844 944q-9 1 -27.5 3.5t-43.5 4t-55.5 3t-62.5 1.5q-83 0 -136.5 -18.5t-85 -57t-44 -97t-12.5 -138.5v-127
q0 -87 14.5 -145.5t47.5 -94.5t85 -51.5t127 -15.5q27 0 56.5 1.5t56.5 3.5t48.5 4.5t31.5 4.5v719zM705 1569h239l-137 -289h-291z" />
    <glyph glyph-name="Hcircumflex" unicode="&#x124;" horiz-adv-x="1563" 
d="M1114 0v670h-665v-670h-287v1522h287v-607h665v607h287v-1522h-287zM981 1615l-197 187l-195 -187h-247l276 305h334l276 -305h-247z" />
    <glyph glyph-name="hcircumflex" unicode="&#x125;" 
d="M883 0v727q0 67 -9.5 110.5t-31 69.5t-56.5 36.5t-86 10.5q-41 0 -81.5 -6t-77 -15t-68 -20t-55.5 -22v-891h-268v1591h268v-495q30 16 69 31.5t85 27.5t97.5 19.5t106.5 7.5q107 0 179.5 -31t117 -89t63.5 -142t19 -189v-731h-272zM842 1627l-197 187l-195 -187h-247
l276 305h334l276 -305h-247z" />
    <glyph glyph-name="Hbar" unicode="&#x126;" horiz-adv-x="1563" 
d="M1114 0v670h-665v-670h-287v1124h-129v156h129v242h287v-242h665v242h287v-242h129v-156h-129v-1124h-287zM1114 1124h-665v-209h665v209z" />
    <glyph glyph-name="hbar" unicode="&#x127;" 
d="M883 0v727q0 67 -9.5 110.5t-31 69.5t-56.5 36.5t-86 10.5q-41 0 -81 -6t-76.5 -15t-68 -20t-54.5 -22v-891h-270v1305h-117v161h117v125h270v-125h350v-161h-350v-209q29 16 68 31.5t85 27.5t97.5 19.5t105.5 7.5q108 0 180.5 -31t116.5 -89t63 -142t19 -189v-731h-272z
" />
    <glyph glyph-name="Itilde" unicode="&#x128;" horiz-adv-x="610" 
d="M162 0v1522h287v-1522h-287zM738 1878q0 -140 -55 -207t-164 -67q-53 0 -103.5 17t-109.5 54l-90 58q-34 25 -59 37t-54 12q-41 0 -54 -28.5t-13 -80.5v-57h-168v57q0 141 59 207t168 66q28 0 52 -3.5t47.5 -11.5t48 -20.5t53.5 -30.5l92 -59q32 -22 60 -35.5t59 -13.5
q41 0 54 26.5t13 79.5v56h164v-56z" />
    <glyph glyph-name="itilde" unicode="&#x129;" horiz-adv-x="588" 
d="M158 0v1153h272v-1153h-272zM730 1546q0 -140 -55 -207t-164 -67q-53 0 -103.5 17t-109.5 54l-90 58q-34 25 -59 37t-54 12q-41 0 -54 -28.5t-13 -80.5v-57h-168v57q0 141 59 207t168 66q28 0 52 -3.5t47.5 -11.5t48 -20.5t53.5 -30.5l92 -59q32 -22 60 -35.5t59 -13.5
q41 0 54 26.5t13 79.5v56h164v-56z" />
    <glyph glyph-name="Imacron" unicode="&#x12a;" horiz-adv-x="610" 
d="M162 0v1522h287v-1522h-287zM-79 1669v182h771v-182h-771z" />
    <glyph glyph-name="imacron" unicode="&#x12b;" horiz-adv-x="588" 
d="M158 0v1153h272v-1153h-272zM-90 1339v181h771v-181h-771z" />
    <glyph glyph-name="Ibreve" unicode="&#x12c;" horiz-adv-x="610" 
d="M162 0v1522h287v-1522h-287zM694 1941q-16 -161 -116 -242.5t-271 -81.5q-172 0 -271 81.5t-114 242.5h174q5 -49 22 -82t44 -53t63.5 -28.5t81.5 -8.5q46 0 82.5 8.5t63.5 28.5t44.5 53t24.5 82h172z" />
    <glyph glyph-name="ibreve" unicode="&#x12d;" horiz-adv-x="588" 
d="M158 0v1153h272v-1153h-272zM683 1599q-16 -158 -116 -239.5t-271 -81.5q-172 0 -271 81.5t-114 239.5h174q5 -49 22 -81.5t44 -52t63.5 -27.5t81.5 -8q46 0 82.5 8t63.5 27.5t44.5 52t24.5 81.5h172z" />
    <glyph glyph-name="Iogonek" unicode="&#x12e;" horiz-adv-x="610" 
d="M557 -416q-26 -8 -86.5 -18t-138.5 -10q-69 0 -122.5 16.5t-89.5 46t-54.5 70.5t-18.5 90q0 50 28 110t87 111v1522h287v-1522q-55 -29 -89 -55t-52.5 -49t-25 -43t-6.5 -35q0 -18 6 -36t19.5 -32t36 -22.5t55.5 -8.5q40 0 81 4t83 7v-146z" />
    <glyph glyph-name="iogonek" unicode="&#x12f;" horiz-adv-x="588" 
d="M545 -416q-13 -4 -36.5 -8.5t-53.5 -9t-65 -7.5t-71 -3q-139 0 -210.5 53t-71.5 160q0 72 34 130.5t87 104.5v1149h272v-1153q-51 -32 -83 -60t-50 -53t-24.5 -46.5t-6.5 -39.5q0 -37 24.5 -59.5t90.5 -22.5q46 0 85 4t79 7v-146zM156 1331v260h278v-260h-278z" />
    <glyph glyph-name="Idotaccent" unicode="&#x130;" horiz-adv-x="610" 
d="M162 0v1522h287v-1522h-287zM169 1645v256h275v-256h-275z" />
    <glyph glyph-name="dotlessi" unicode="&#x131;" horiz-adv-x="588" 
d="M158 0v1153h272v-1153h-272z" />
    <glyph glyph-name="IJ" unicode="&#x132;" horiz-adv-x="1241" 
d="M168 0v1522h285v-1522h-285zM537 -227q32 -2 61 -2h64q43 0 68 7.5t38 25t16.5 45t3.5 67.5v1606h285v-1598q0 -97 -19.5 -166t-62.5 -113.5t-111.5 -65.5t-166.5 -21q-22 0 -47.5 1t-49.5 3t-45 5t-34 7v199z" />
    <glyph glyph-name="ij" unicode="&#x133;" horiz-adv-x="1190" 
d="M162 0v1153h270v-1153h-270zM160 1331v260h276v-260h-276zM528 -244q25 -2 55 -2h64q35 0 57 7t34 24t16 46t4 73v1249h270v-1249q0 -101 -17.5 -169t-56.5 -109.5t-102 -59t-154 -17.5q-25 0 -51 1.5t-49 3.5t-41.5 5t-28.5 5v192zM756 1331v260h276v-260h-276z" />
    <glyph glyph-name="Jcircumflex" unicode="&#x134;" horiz-adv-x="608" 
d="M-90 -227q32 -2 61.5 -2h63.5q43 0 68.5 7.5t38.5 25t16.5 45t3.5 67.5v1606h284v-1598q0 -97 -19.5 -166t-62.5 -113.5t-111.5 -65.5t-166.5 -21q-21 0 -46.5 1t-50 3t-45.5 5t-34 7v199zM501 1617l-197 187l-195 -187h-247l276 305h334l276 -305h-247z" />
    <glyph glyph-name="jcircumflex" unicode="&#x135;" horiz-adv-x="588" 
d="M-70 -244q25 0 54 -1t63 -1q36 0 58 7.5t33.5 25t15.5 46.5t4 73v1247h272v-1247q0 -101 -18 -169t-57.5 -109t-102.5 -59t-154 -18q-25 0 -51 1.5t-49 3.5t-41 5t-27 5v190zM489 1282l-196 184l-195 -184h-248l277 303h336l274 -303h-248z" />
    <glyph glyph-name="Kcommaaccent" unicode="&#x136;" horiz-adv-x="1405" 
d="M1022 0l-565 717v-717h-287v1522h287v-709l585 709h344l-628 -750l624 -772h-360zM485 -422l138 289h290l-188 -289h-240z" />
    <glyph glyph-name="kcommaaccent" unicode="&#x137;" horiz-adv-x="1174" 
d="M825 0l-407 547v-547h-268v1591h268v-952l409 514h310l-447 -553l459 -600h-324zM333 -422l138 289h290l-188 -289h-240z" />
    <glyph glyph-name="kgreenlandic" unicode="&#x138;" horiz-adv-x="1174" 
d="M825 0l-407 547v-547h-268v1153h268v-514l409 514h310l-447 -553l459 -600h-324z" />
    <glyph glyph-name="Lacute" unicode="&#x139;" horiz-adv-x="1147" 
d="M162 0v1522h287v-1280h645v-242h-932zM708 1617h-260l270 305h314z" />
    <glyph glyph-name="lacute" unicode="&#x13a;" horiz-adv-x="586" 
d="M158 0v1591h270v-1591h-270zM386 1628h-260l270 305h314z" />
    <glyph glyph-name="Lcommaaccent" unicode="&#x13b;" horiz-adv-x="1147" 
d="M162 0v1522h287v-1280h645v-242h-932zM370 -422l138 289h290l-188 -289h-240z" />
    <glyph glyph-name="lcommaaccent" unicode="&#x13c;" horiz-adv-x="586" 
d="M158 0v1591h270v-1591h-270zM11 -422l138 289h290l-188 -289h-240z" />
    <glyph glyph-name="Lcaron" unicode="&#x13d;" horiz-adv-x="1147" 
d="M162 0v1522h287v-1280h645v-242h-932zM870 1063h-194l110 504h256z" />
    <glyph glyph-name="lcaron" unicode="&#x13e;" horiz-adv-x="889" 
d="M158 0v1591h270v-1591h-270zM758 1090h-195l111 501h256z" />
    <glyph glyph-name="Ldot" unicode="&#x13f;" horiz-adv-x="1147" 
d="M666 713v317h262v-317h-262zM162 0v1522h287v-1280h645v-242h-932z" />
    <glyph glyph-name="ldot" unicode="&#x140;" horiz-adv-x="889" 
d="M586 596v317h262v-317h-262zM158 0v1591h270v-1591h-270z" />
    <glyph glyph-name="Lslash" unicode="&#x141;" horiz-adv-x="1147" 
d="M160 0v565l-154 -131v221l154 129v738h286v-529l205 176v-221l-205 -176v-530h648v-242h-934z" />
    <glyph glyph-name="lslash" unicode="&#x142;" horiz-adv-x="668" 
d="M199 0v573l-164 -149v268l164 150v749h270v-485l164 147v-268l-164 -145v-840h-270z" />
    <glyph glyph-name="Nacute" unicode="&#x143;" horiz-adv-x="1518" 
d="M1022 0l-487 903q-28 53 -58.5 111.5t-56.5 115.5h-4q3 -65 5.5 -134t2.5 -138v-858h-262v1522h332l485 -885q28 -53 60 -114.5t57 -116.5h4q-5 68 -6.5 143.5t-1.5 144.5v828h264v-1522h-334zM862 1617h-260l270 305h314z" />
    <glyph glyph-name="nacute" unicode="&#x144;" horiz-adv-x="1298" 
d="M883 0v731q0 62 -6.5 104.5t-24.5 69t-49.5 38t-81.5 11.5q-59 0 -134.5 -20t-168.5 -57v-877h-268v1153h258v-92q94 54 187.5 87.5t190.5 33.5q122 0 195 -33.5t111.5 -93.5t50.5 -143t12 -181v-731h-272zM758 1282h-260l270 303h314z" />
    <glyph glyph-name="Ncommaaccent" unicode="&#x145;" horiz-adv-x="1518" 
d="M1022 0l-487 903q-28 53 -58.5 111.5t-56.5 115.5h-4q3 -65 5.5 -134t2.5 -138v-858h-262v1522h332l485 -885q28 -53 60 -114.5t57 -116.5h4q-5 68 -6.5 143.5t-1.5 144.5v828h264v-1522h-334zM508 -422l138 289h290l-188 -289h-240z" />
    <glyph glyph-name="ncommaaccent" unicode="&#x146;" horiz-adv-x="1298" 
d="M883 0v731q0 62 -6.5 104.5t-24.5 69t-49.5 38t-81.5 11.5q-59 0 -134.5 -20t-168.5 -57v-877h-268v1153h258v-92q94 54 187.5 87.5t190.5 33.5q122 0 195 -33.5t111.5 -93.5t50.5 -143t12 -181v-731h-272zM376 -422l138 289h290l-188 -289h-240z" />
    <glyph glyph-name="Ncaron" unicode="&#x147;" horiz-adv-x="1518" 
d="M1022 0l-487 903q-28 53 -58.5 111.5t-56.5 115.5h-4q3 -65 5.5 -134t2.5 -138v-858h-262v1522h332l485 -885q28 -53 60 -114.5t57 -116.5h4q-5 68 -6.5 143.5t-1.5 144.5v828h264v-1522h-334zM594 1617l-276 305h247l195 -188l197 188h247l-276 -305h-334z" />
    <glyph glyph-name="ncaron" unicode="&#x148;" horiz-adv-x="1298" 
d="M883 0v731q0 62 -6.5 104.5t-24.5 69t-49.5 38t-81.5 11.5q-59 0 -134.5 -20t-168.5 -57v-877h-268v1153h258v-92q94 54 187.5 87.5t190.5 33.5q122 0 195 -33.5t111.5 -93.5t50.5 -143t12 -181v-731h-272zM496 1282l-276 303h247l195 -186l197 186h247l-276 -303h-334z
" />
    <glyph glyph-name="napostrophe" unicode="&#x149;" horiz-adv-x="1446" 
d="M1030 0v731q0 62 -6.5 104.5t-24.5 69t-49.5 38t-81.5 11.5q-58 0 -134 -20t-169 -57v-877h-268v1153h258v-92q94 54 188 87.5t191 33.5q122 0 195 -33.5t111.5 -93.5t50.5 -143t12 -181v-731h-273zM-47 1090l110 501h256l-172 -501h-194z" />
    <glyph glyph-name="Eng" unicode="&#x14a;" horiz-adv-x="1518" 
d="M819 -229h125q43 0 68.5 7.5t38.5 25t16.5 45t3.5 67.5v117l-534 870q-20 33 -35.5 62t-29 56.5t-26 54t-26.5 54.5h-4q5 -65 6.5 -134t1.5 -138v-858h-262v1522h332l487 -791q38 -65 64.5 -121.5t52.5 -111.5h4q-6 69 -8 144t-2 144v736h266v-1598q0 -97 -20 -166
t-63.5 -113.5t-112.5 -65.5t-167 -21q-21 0 -46 1t-49.5 3t-45.5 5t-35 7v197z" />
    <glyph glyph-name="eng" unicode="&#x14b;" horiz-adv-x="1298" 
d="M655 -240q25 -2 54.5 -3t64.5 -1t57 7.5t34 24.5t16 46t4 72v825q0 62 -7 104.5t-25 69t-49.5 38t-80.5 11.5q-117 0 -303 -77v-877h-270v1153h258v-92q94 54 193 87.5t190 33.5q120 0 192 -33.5t110.5 -93.5t50 -143t11.5 -181v-825q0 -98 -18 -165t-57 -108.5t-101 -60
t-150 -18.5q-26 0 -52.5 1.5t-50 4t-42.5 5.5t-29 5v190z" />
    <glyph glyph-name="Omacron" unicode="&#x14c;" horiz-adv-x="1464" 
d="M1358 672q0 -185 -43.5 -318.5t-125 -219.5t-197.5 -126.5t-261 -40.5t-261 40.5t-197 126.5t-124 219.5t-43 318.5v178q0 184 43.5 317t124.5 218.5t197 126t260 40.5t260 -40.5t197.5 -126t125.5 -218.5t44 -317v-178zM1073 848q0 127 -24 214.5t-68.5 140.5t-108 76.5
t-141.5 23.5t-140.5 -23.5t-107 -76.5t-68.5 -140.5t-24 -214.5v-176q0 -128 24.5 -215.5t69 -141t107 -77t139.5 -23.5q78 0 141 23.5t107.5 77t69 141t24.5 215.5v176zM346 1669v182h771v-182h-771z" />
    <glyph glyph-name="omacron" unicode="&#x14d;" horiz-adv-x="1249" 
d="M1145 506q0 -274 -134 -405.5t-386 -131.5t-386.5 131.5t-134.5 405.5v141q0 272 134.5 403.5t386.5 131.5t386 -131.5t134 -403.5v-141zM877 647q0 83 -14.5 140.5t-45.5 93.5t-78.5 52.5t-113.5 16.5q-65 0 -112.5 -16.5t-78.5 -52.5t-46 -93.5t-15 -140.5v-141
q0 -83 14.5 -141t45.5 -94.5t78.5 -53t113.5 -16.5t113.5 16.5t78.5 53t45.5 94.5t14.5 141v141zM239 1339v181h771v-181h-771z" />
    <glyph glyph-name="Obreve" unicode="&#x14e;" horiz-adv-x="1464" 
d="M1358 672q0 -185 -43.5 -318.5t-125 -219.5t-197.5 -126.5t-261 -40.5t-261 40.5t-197 126.5t-124 219.5t-43 318.5v178q0 184 43.5 317t124.5 218.5t197 126t260 40.5t260 -40.5t197.5 -126t125.5 -218.5t44 -317v-178zM1073 848q0 127 -24 214.5t-68.5 140.5t-108 76.5
t-141.5 23.5t-140.5 -23.5t-107 -76.5t-68.5 -140.5t-24 -214.5v-176q0 -128 24.5 -215.5t69 -141t107 -77t139.5 -23.5q78 0 141 23.5t107.5 77t69 141t24.5 215.5v176zM1119 1933q-16 -161 -116 -242.5t-271 -81.5q-172 0 -271 81.5t-114 242.5h174q5 -49 22 -82t44 -53
t63.5 -28.5t81.5 -8.5q46 0 82.5 8.5t63.5 28.5t44.5 53t24.5 82h172z" />
    <glyph glyph-name="obreve" unicode="&#x14f;" horiz-adv-x="1249" 
d="M1145 506q0 -274 -134 -405.5t-386 -131.5t-386.5 131.5t-134.5 405.5v141q0 272 134.5 403.5t386.5 131.5t386 -131.5t134 -403.5v-141zM877 647q0 83 -14.5 140.5t-45.5 93.5t-78.5 52.5t-113.5 16.5q-65 0 -112.5 -16.5t-78.5 -52.5t-46 -93.5t-15 -140.5v-141
q0 -83 14.5 -141t45.5 -94.5t78.5 -53t113.5 -16.5t113.5 16.5t78.5 53t45.5 94.5t14.5 141v141zM1012 1599q-16 -158 -116 -239.5t-271 -81.5q-172 0 -271 81.5t-114 239.5h174q5 -49 22 -81.5t44 -52t63.5 -27.5t81.5 -8q46 0 82.5 8t63.5 27.5t44.5 52t24.5 81.5h172z
" />
    <glyph glyph-name="Ohungarumlaut" unicode="&#x150;" horiz-adv-x="1464" 
d="M1082 1614h-246l270 305h301zM908 1919l-326 -305h-246l269 305h303zM1358 672q0 -185 -43.5 -318.5t-125 -219.5t-197.5 -126.5t-261 -40.5t-261 40.5t-197 126.5t-124 219.5t-43 318.5v178q0 184 43.5 317t124.5 218.5t197 126t260 40.5t260 -40.5t197.5 -126
t125.5 -218.5t44 -317v-178zM1073 848q0 127 -24 214.5t-68.5 140.5t-108 76.5t-141.5 23.5t-140.5 -23.5t-107 -76.5t-68.5 -140.5t-24 -214.5v-176q0 -128 24.5 -215.5t69 -141t107 -77t139.5 -23.5q78 0 141 23.5t107.5 77t69 141t24.5 215.5v176z" />
    <glyph glyph-name="ohungarumlaut" unicode="&#x151;" horiz-adv-x="1249" 
d="M1145 506q0 -274 -134 -405.5t-386 -131.5t-386.5 131.5t-134.5 405.5v141q0 272 134.5 403.5t386.5 131.5t386 -131.5t134 -403.5v-141zM877 647q0 83 -14.5 140.5t-45.5 93.5t-78.5 52.5t-113.5 16.5q-65 0 -112.5 -16.5t-78.5 -52.5t-46 -93.5t-15 -140.5v-141
q0 -83 14.5 -141t45.5 -94.5t78.5 -53t113.5 -16.5t113.5 16.5t78.5 53t45.5 94.5t14.5 141v141zM500 1283h-246l268 305h303zM995 1283h-247l270 305h301z" />
    <glyph glyph-name="OE" unicode="&#x152;" horiz-adv-x="2025" 
d="M1036 0q-39 -6 -75 -12t-72.5 -10.5t-75.5 -7.5t-84 -3q-145 0 -261 40t-197.5 125t-125 218t-43.5 318v184q0 184 43 316t124 217t197 125t261 40q86 0 160 -8t149 -20h885v-238h-682v-387h639v-229h-639v-432h682v-236h-885zM387 668q0 -127 24.5 -213.5t70 -140
t110 -76.5t145.5 -23q28 0 51.5 0.5t48 2t53 5t66.5 8.5v1053q-35 5 -63 8.5t-53.5 6t-50 3.5t-52.5 1q-81 0 -146 -23t-110.5 -76t-69.5 -140t-24 -214v-182z" />
    <glyph glyph-name="oe" unicode="&#x153;" horiz-adv-x="2019" 
d="M1866 18q-32 -8 -78 -16.5t-103 -15.5t-122 -11t-133 -4q-162 0 -264 37.5t-158 100.5q-63 -69 -158.5 -104.5t-226.5 -35.5q-125 0 -222 32.5t-163.5 99t-101 167.5t-34.5 238v141q0 136 34.5 236.5t101 167t163.5 99t222 32.5q133 0 230 -36t159 -106q60 70 157.5 106
t225.5 36q144 0 243.5 -44.5t161 -122.5t88.5 -183t27 -226v-114h-770v-21q0 -62 7.5 -114.5t37.5 -90.5t91 -59t169 -21q53 0 108 2.5t109 6t104.5 9t94.5 11.5v-197zM1647 686q0 50 -8 100t-34 89.5t-75.5 64.5t-132.5 25q-81 0 -130 -24t-75.5 -61t-35.5 -82t-9 -87v-43
h500v18zM874 647q0 83 -14.5 141.5t-45 95t-78 53.5t-113.5 17q-65 0 -112 -17t-77.5 -53.5t-45.5 -95t-15 -141.5v-141q0 -83 14.5 -141.5t45 -95t78 -53.5t112.5 -17q66 0 113.5 17t78 53.5t45 95t14.5 141.5v141z" />
    <glyph glyph-name="Racute" unicode="&#x154;" horiz-adv-x="1386" 
d="M751 1617h-260l270 305h314zM1051 0l-336 563q-31 -2 -64.5 -2h-68.5h-142v-561h-278v1522q102 5 206 7.5t220 2.5q91 0 176.5 -7.5t159.5 -26.5t135.5 -53t105.5 -86.5t68 -127t24 -174.5v-15q0 -87 -18 -153.5t-52 -117.5t-82.5 -87.5t-109.5 -62.5l359 -621h-303z
M977 1053q0 88 -31.5 136t-97 70.5t-167 26.5t-241.5 4v-499q41 -2 79.5 -2.5t78.5 -0.5q98 0 169.5 12t118 40.5t69 77t22.5 122.5v13z" />
    <glyph glyph-name="racute" unicode="&#x155;" horiz-adv-x="831" 
d="M150 0v1153h256v-94q40 36 86.5 59.5t96.5 38t103 20t107 5.5v-248q-53 0 -106.5 -5t-103.5 -14.5t-94 -22.5t-77 -28v-864h-268zM590 1282h-260l270 303h314z" />
    <glyph glyph-name="Rcommaaccent" unicode="&#x156;" horiz-adv-x="1386" 
d="M1051 0l-336 563q-31 -2 -64.5 -2h-68.5h-142v-561h-278v1522q102 5 206 7.5t220 2.5q91 0 176.5 -7.5t159.5 -26.5t135.5 -53t105.5 -86.5t68 -127t24 -174.5v-15q0 -87 -18 -153.5t-52 -117.5t-82.5 -87.5t-109.5 -62.5l359 -621h-303zM977 1053q0 88 -31.5 136
t-97 70.5t-167 26.5t-241.5 4v-499q41 -2 79.5 -2.5t78.5 -0.5q98 0 169.5 12t118 40.5t69 77t22.5 122.5v13zM456 -422l138 289h290l-188 -289h-240z" />
    <glyph glyph-name="rcommaaccent" unicode="&#x157;" horiz-adv-x="831" 
d="M150 0v1153h256v-94q40 36 86.5 59.5t96.5 38t103 20t107 5.5v-248q-53 0 -106.5 -5t-103.5 -14.5t-94 -22.5t-77 -28v-864h-268zM152 -422l138 289h290l-188 -289h-240z" />
    <glyph glyph-name="Rcaron" unicode="&#x158;" horiz-adv-x="1386" 
d="M522 1615l-276 305h247l195 -188l197 188h247l-276 -305h-334zM1051 0l-336 563q-31 -2 -64.5 -2h-68.5h-142v-561h-278v1522q102 5 206 7.5t220 2.5q91 0 176.5 -7.5t159.5 -26.5t135.5 -53t105.5 -86.5t68 -127t24 -174.5v-15q0 -87 -18 -153.5t-52 -117.5t-82.5 -87.5
t-109.5 -62.5l359 -621h-303zM977 1053q0 88 -31.5 136t-97 70.5t-167 26.5t-241.5 4v-499q41 -2 79.5 -2.5t78.5 -0.5q98 0 169.5 12t118 40.5t69 77t22.5 122.5v13z" />
    <glyph glyph-name="rcaron" unicode="&#x159;" horiz-adv-x="831" 
d="M150 0v1153h256v-94q40 36 86.5 59.5t96.5 38t103 20t107 5.5v-248q-53 0 -106.5 -5t-103.5 -14.5t-94 -22.5t-77 -28v-864h-268zM300 1282l-276 303h247l195 -186l197 186h247l-276 -303h-334z" />
    <glyph glyph-name="Sacute" unicode="&#x15a;" horiz-adv-x="1262" 
d="M141 233q94 -9 204 -16.5t253 -7.5q138 0 205 42.5t67 145.5q0 37 -8.5 66.5t-30 55t-58 48.5t-93.5 47l-229 95q-85 34 -149.5 76.5t-108.5 96t-66.5 120t-22.5 149.5q0 111 34.5 187.5t103 124t170.5 68.5t237 21q72 0 140.5 -5t127 -12.5t104.5 -16t73 -15.5v-217
q-88 8 -200 17.5t-232 9.5q-67 0 -118.5 -7t-86 -24t-52.5 -47t-18 -76q0 -35 9 -62t31.5 -50t60 -44.5t94.5 -44.5l206 -84q100 -41 171 -84t116 -97.5t65.5 -125.5t20.5 -168q0 -104 -36.5 -184t-105.5 -135.5t-169.5 -84t-228.5 -28.5q-75 0 -148.5 4.5t-137.5 11.5
t-115 15t-79 16v219zM721 1616h-260l270 303h314z" />
    <glyph glyph-name="sacute" unicode="&#x15b;" horiz-adv-x="1049" 
d="M111 209q22 -2 63.5 -6t93.5 -9t110 -8.5t114 -3.5q63 0 104 7.5t65 22.5t34 37.5t10 53.5q0 30 -8 50.5t-30.5 38t-62.5 35.5t-104 44l-88 35q-81 32 -141 67.5t-99.5 79t-58.5 96t-19 119.5q0 87 29 147t86.5 97t144 53.5t201.5 16.5q49 0 103.5 -4.5t104.5 -11.5
t90.5 -14.5t61.5 -14.5v-189q-97 10 -189 15.5t-167 5.5q-52 0 -89.5 -3.5t-62 -13.5t-36 -28.5t-11.5 -49.5q0 -27 8.5 -46t29.5 -35t56.5 -31.5t88.5 -36.5l92 -37q93 -38 157 -73t103.5 -77t57 -94.5t18.5 -124.5q0 -81 -28 -145.5t-85.5 -109.5t-145.5 -69t-208 -24
q-60 0 -121.5 5t-115.5 11.5t-95.5 14.5t-60.5 14v193zM647 1282h-260l270 303h314z" />
    <glyph glyph-name="Scircumflex" unicode="&#x15c;" horiz-adv-x="1262" 
d="M141 233q94 -9 204 -16.5t253 -7.5q138 0 205 42.5t67 145.5q0 37 -8.5 66.5t-30 55t-58 48.5t-93.5 47l-229 95q-85 34 -149.5 76.5t-108.5 96t-66.5 120t-22.5 149.5q0 111 34.5 187.5t103 124t170.5 68.5t237 21q72 0 140.5 -5t127 -12.5t104.5 -16t73 -15.5v-217
q-88 8 -200 17.5t-232 9.5q-67 0 -118.5 -7t-86 -24t-52.5 -47t-18 -76q0 -35 9 -62t31.5 -50t60 -44.5t94.5 -44.5l206 -84q100 -41 171 -84t116 -97.5t65.5 -125.5t20.5 -168q0 -104 -36.5 -184t-105.5 -135.5t-169.5 -84t-228.5 -28.5q-75 0 -148.5 4.5t-137.5 11.5
t-115 15t-79 16v219zM811 1616l-197 184l-195 -184h-247l276 303h334l276 -303h-247z" />
    <glyph glyph-name="scircumflex" unicode="&#x15d;" horiz-adv-x="1049" 
d="M111 209q22 -2 63.5 -6t93.5 -9t110 -8.5t114 -3.5q63 0 104 7.5t65 22.5t34 37.5t10 53.5q0 30 -8 50.5t-30.5 38t-62.5 35.5t-104 44l-88 35q-81 32 -141 67.5t-99.5 79t-58.5 96t-19 119.5q0 87 29 147t86.5 97t144 53.5t201.5 16.5q49 0 103.5 -4.5t104.5 -11.5
t90.5 -14.5t61.5 -14.5v-189q-97 10 -189 15.5t-167 5.5q-52 0 -89.5 -3.5t-62 -13.5t-36 -28.5t-11.5 -49.5q0 -27 8.5 -46t29.5 -35t56.5 -31.5t88.5 -36.5l92 -37q93 -38 157 -73t103.5 -77t57 -94.5t18.5 -124.5q0 -81 -28 -145.5t-85.5 -109.5t-145.5 -69t-208 -24
q-60 0 -121.5 5t-115.5 11.5t-95.5 14.5t-60.5 14v193zM717 1282l-197 184l-195 -184h-247l276 303h334l276 -303h-247z" />
    <glyph glyph-name="Scedilla" unicode="&#x15e;" horiz-adv-x="1262" 
d="M141 233q94 -9 204 -16.5t253 -7.5q138 0 205 42.5t67 145.5q0 37 -8.5 66.5t-30 55t-58 48.5t-93.5 47l-229 95q-85 34 -149.5 76.5t-108.5 96t-66.5 120t-22.5 149.5q0 111 34.5 187.5t103 124t170.5 68.5t237 21q72 0 140.5 -5t127 -12.5t104.5 -16t73 -15.5v-217
q-88 8 -200 17.5t-232 9.5q-67 0 -118.5 -7t-86 -24t-52.5 -47t-18 -76q0 -35 9 -62t31.5 -50t60 -44.5t94.5 -44.5l206 -84q100 -41 171 -84t116 -97.5t65.5 -125.5t20.5 -168q0 -104 -36.5 -184t-105.5 -135.5t-169.5 -84t-228.5 -28.5q-75 0 -148.5 4.5t-137.5 11.5
t-115 15t-79 16v219zM301 -422l225 289h306l-273 -289h-258z" />
    <glyph glyph-name="scedilla" unicode="&#x15f;" horiz-adv-x="1049" 
d="M111 209q22 -2 63.5 -6t93.5 -9t110 -8.5t114 -3.5q63 0 104 7.5t65 22.5t34 37.5t10 53.5q0 30 -8 50.5t-30.5 38t-62.5 35.5t-104 44l-88 35q-81 32 -141 67.5t-99.5 79t-58.5 96t-19 119.5q0 87 29 147t86.5 97t144 53.5t201.5 16.5q49 0 103.5 -4.5t104.5 -11.5
t90.5 -14.5t61.5 -14.5v-189q-97 10 -189 15.5t-167 5.5q-52 0 -89.5 -3.5t-62 -13.5t-36 -28.5t-11.5 -49.5q0 -27 8.5 -46t29.5 -35t56.5 -31.5t88.5 -36.5l92 -37q93 -38 157 -73t103.5 -77t57 -94.5t18.5 -124.5q0 -81 -28 -145.5t-85.5 -109.5t-145.5 -69t-208 -24
q-60 0 -121.5 5t-115.5 11.5t-95.5 14.5t-60.5 14v193zM194 -422l225 289h306l-273 -289h-258z" />
    <glyph glyph-name="Scaron" unicode="&#x160;" horiz-adv-x="1262" 
d="M141 233q94 -9 204 -16.5t253 -7.5q138 0 205 42.5t67 145.5q0 37 -8.5 66.5t-30 55t-58 48.5t-93.5 47l-229 95q-85 34 -149.5 76.5t-108.5 96t-66.5 120t-22.5 149.5q0 111 34.5 187.5t103 124t170.5 68.5t237 21q72 0 140.5 -5t127 -12.5t104.5 -16t73 -15.5v-217
q-88 8 -200 17.5t-232 9.5q-67 0 -118.5 -7t-86 -24t-52.5 -47t-18 -76q0 -35 9 -62t31.5 -50t60 -44.5t94.5 -44.5l206 -84q100 -41 171 -84t116 -97.5t65.5 -125.5t20.5 -168q0 -104 -36.5 -184t-105.5 -135.5t-169.5 -84t-228.5 -28.5q-75 0 -148.5 4.5t-137.5 11.5
t-115 15t-79 16v219zM463 1614l-276 303h247l195 -186l197 186h247l-276 -303h-334z" />
    <glyph glyph-name="scaron" unicode="&#x161;" horiz-adv-x="1049" 
d="M111 209q22 -2 63.5 -6t93.5 -9t110 -8.5t114 -3.5q63 0 104 7.5t65 22.5t34 37.5t10 53.5q0 30 -8 50.5t-30.5 38t-62.5 35.5t-104 44l-88 35q-81 32 -141 67.5t-99.5 79t-58.5 96t-19 119.5q0 87 29 147t86.5 97t144 53.5t201.5 16.5q49 0 103.5 -4.5t104.5 -11.5
t90.5 -14.5t61.5 -14.5v-189q-97 10 -189 15.5t-167 5.5q-52 0 -89.5 -3.5t-62 -13.5t-36 -28.5t-11.5 -49.5q0 -27 8.5 -46t29.5 -35t56.5 -31.5t88.5 -36.5l92 -37q93 -38 157 -73t103.5 -77t57 -94.5t18.5 -124.5q0 -81 -28 -145.5t-85.5 -109.5t-145.5 -69t-208 -24
q-60 0 -121.5 5t-115.5 11.5t-95.5 14.5t-60.5 14v193zM364 1282l-276 303h247l195 -186l197 186h247l-276 -303h-334z" />
    <glyph glyph-name="Tcedilla" unicode="&#x162;" horiz-adv-x="1311" 
d="M512 0v1284h-455v238h1196v-238h-454v-1284h-287zM385 -422l138 289h290l-188 -289h-240z" />
    <glyph glyph-name="tcedilla" unicode="&#x163;" horiz-adv-x="874" 
d="M813 2q-12 -3 -35.5 -8.5t-54.5 -11t-68 -9.5t-75 -4q-86 0 -146 18t-98.5 57.5t-56 102.5t-17.5 154v635l-215 18v199h215v293h270v-293h281v-217h-281v-631q0 -40 3 -64.5t14 -38.5t32 -19t58 -5q22 0 47.5 0.5t49.5 2t44.5 2.5t32.5 3v-184zM248 -422l138 289h290
l-188 -289h-240z" />
    <glyph glyph-name="Tcaron" unicode="&#x164;" horiz-adv-x="1311" 
d="M512 0v1284h-455v238h1196v-238h-454v-1284h-287zM487 1615l-276 305h247l195 -188l197 188h247l-276 -305h-334z" />
    <glyph glyph-name="tcaron" unicode="&#x165;" horiz-adv-x="909" 
d="M813 2q-12 -3 -35.5 -8.5t-54.5 -11t-68 -9.5t-75 -4q-86 0 -146 18t-98.5 57.5t-56 102.5t-17.5 154v635l-215 18v199h215v293h270v-293h281v-217h-281v-631q0 -40 3 -64.5t14 -38.5t32 -19t58 -5q22 0 47.5 0.5t49.5 2t44.5 2.5t32.5 3v-184zM811 1264h-174l70 327h235
z" />
    <glyph glyph-name="Tbar" unicode="&#x166;" horiz-adv-x="1311" 
d="M512 0v743h-399v205h399v336h-455v238h1196v-238h-454v-336h401v-205h-401v-743h-287z" />
    <glyph glyph-name="tbar" unicode="&#x167;" horiz-adv-x="874" 
d="M811 2q-11 -3 -34 -8t-54.5 -10.5t-68.5 -9t-76 -3.5q-85 0 -145 17.5t-98 56.5t-55.5 102t-17.5 154v315l-215 17v178h215v147l-215 13v182h215v287h268v-287h283v-195h-283v-147h283v-195h-283v-311q0 -41 3 -66.5t14.5 -39.5t33 -18.5t58.5 -4.5q43 0 90 2t82 4v-180z
" />
    <glyph glyph-name="Utilde" unicode="&#x168;" horiz-adv-x="1497" 
d="M1065 1522h281v-899q0 -329 -153.5 -492.5t-442.5 -163.5q-291 0 -444.5 163.5t-153.5 492.5v899h282v-885q0 -115 15 -195.5t51.5 -131.5t97 -74t152.5 -23q90 0 150.5 23t97 74t52 131.5t15.5 195.5v885zM1188 1878q0 -140 -55 -207t-164 -67q-53 0 -103.5 17
t-109.5 54l-90 58q-34 25 -59 37t-54 12q-41 0 -54 -28.5t-13 -80.5v-57h-168v57q0 141 59 207t168 66q28 0 52 -3.5t47.5 -11.5t48 -20.5t53.5 -30.5l92 -59q32 -22 60 -35.5t59 -13.5q41 0 54 26.5t13 79.5v56h164v-56z" />
    <glyph glyph-name="utilde" unicode="&#x169;" 
d="M891 0v92q-103 -56 -201 -89.5t-198 -33.5q-76 0 -131 17t-93.5 47t-62.5 72t-37.5 92t-18 106.5t-4.5 116.5v733h269v-733q0 -62 7 -104.5t25 -68.5t50.5 -38t83.5 -12q58 0 133 21t168 56v879h270v-1153h-260zM1088 1546q0 -140 -55 -207t-164 -67q-53 0 -103.5 17
t-109.5 54l-90 58q-34 25 -59 37t-54 12q-41 0 -54 -28.5t-13 -80.5v-57h-168v57q0 141 59 207t168 66q28 0 52 -3.5t47.5 -11.5t48 -20.5t53.5 -30.5l92 -59q32 -22 60 -35.5t59 -13.5q41 0 54 26.5t13 79.5v56h164v-56z" />
    <glyph glyph-name="Umacron" unicode="&#x16a;" horiz-adv-x="1497" 
d="M1065 1522h281v-899q0 -329 -153.5 -492.5t-442.5 -163.5q-291 0 -444.5 163.5t-153.5 492.5v899h282v-885q0 -115 15 -195.5t51.5 -131.5t97 -74t152.5 -23q90 0 150.5 23t97 74t52 131.5t15.5 195.5v885zM364 1669v182h771v-182h-771z" />
    <glyph glyph-name="umacron" unicode="&#x16b;" 
d="M891 0v92q-103 -56 -201 -89.5t-198 -33.5q-76 0 -131 17t-93.5 47t-62.5 72t-37.5 92t-18 106.5t-4.5 116.5v733h269v-733q0 -62 7 -104.5t25 -68.5t50.5 -38t83.5 -12q58 0 133 21t168 56v879h270v-1153h-260zM268 1339v181h771v-181h-771z" />
    <glyph glyph-name="Ubreve" unicode="&#x16c;" horiz-adv-x="1497" 
d="M1065 1522h281v-899q0 -329 -153.5 -492.5t-442.5 -163.5q-291 0 -444.5 163.5t-153.5 492.5v899h282v-885q0 -115 15 -195.5t51.5 -131.5t97 -74t152.5 -23q90 0 150.5 23t97 74t52 131.5t15.5 195.5v885zM1137 1916q-16 -158 -116 -239.5t-271 -81.5q-172 0 -271 81.5
t-114 239.5h174q5 -49 22 -81.5t44 -52t63.5 -27.5t81.5 -8q46 0 82.5 8t63.5 27.5t44.5 52t24.5 81.5h172z" />
    <glyph glyph-name="ubreve" unicode="&#x16d;" 
d="M891 0v92q-103 -56 -201 -89.5t-198 -33.5q-76 0 -131 17t-93.5 47t-62.5 72t-37.5 92t-18 106.5t-4.5 116.5v733h269v-733q0 -62 7 -104.5t25 -68.5t50.5 -38t83.5 -12q58 0 133 21t168 56v879h270v-1153h-260zM1039 1599q-16 -158 -116 -239.5t-271 -81.5
q-172 0 -271 81.5t-114 239.5h174q5 -49 22 -81.5t44 -52t63.5 -27.5t81.5 -8q46 0 82.5 8t63.5 27.5t44.5 52t24.5 81.5h172z" />
    <glyph glyph-name="Uring" unicode="&#x16e;" horiz-adv-x="1497" 
d="M1065 1522h281v-899q0 -329 -153.5 -492.5t-442.5 -163.5q-291 0 -444.5 163.5t-153.5 492.5v899h282v-885q0 -115 15 -195.5t51.5 -131.5t97 -74t152.5 -23q90 0 150.5 23t97 74t52 131.5t15.5 195.5v885zM752 1583q-57 0 -106 14.5t-85 44.5t-56.5 75t-20.5 106
q0 60 20.5 105t56.5 75t85 45t106 15q56 0 104 -15t83 -45t55 -75t20 -105q0 -61 -20 -106t-55 -75t-83 -44.5t-104 -14.5zM752 1927q-50 0 -82.5 -23.5t-32.5 -80.5q0 -56 32 -80t83 -24q47 0 80 24t33 80q0 28 -9 48t-24 32.5t-35.5 18t-44.5 5.5z" />
    <glyph glyph-name="uring" unicode="&#x16f;" 
d="M891 0v92q-103 -56 -201 -89.5t-198 -33.5q-76 0 -131 17t-93.5 47t-62.5 72t-37.5 92t-18 106.5t-4.5 116.5v733h269v-733q0 -62 7 -104.5t25 -68.5t50.5 -38t83.5 -12q58 0 133 21t168 56v879h270v-1153h-260zM660 1255q-57 0 -106 14.5t-85 44.5t-56.5 75t-20.5 106
q0 60 20.5 105t56.5 75t85 45t106 15q56 0 104 -15t83 -45t55 -75t20 -105q0 -61 -20 -106t-55 -75t-83 -44.5t-104 -14.5zM660 1599q-50 0 -82.5 -23.5t-32.5 -80.5q0 -56 32 -80t83 -24q47 0 80 24t33 80q0 28 -9 48t-24 32.5t-35.5 18t-44.5 5.5z" />
    <glyph glyph-name="Uhungarumlaut" unicode="&#x170;" horiz-adv-x="1497" 
d="M1065 1522h281v-899q0 -329 -153.5 -492.5t-442.5 -163.5q-291 0 -444.5 163.5t-153.5 492.5v899h282v-885q0 -115 15 -195.5t51.5 -131.5t97 -74t152.5 -23q90 0 150.5 23t97 74t52 131.5t15.5 195.5v885zM1102 1616h-246l270 305h301zM928 1921l-326 -305h-246l269 305
h303z" />
    <glyph glyph-name="uhungarumlaut" unicode="&#x171;" 
d="M891 0v92q-103 -56 -201 -89.5t-198 -33.5q-76 0 -131 17t-93.5 47t-62.5 72t-37.5 92t-18 106.5t-4.5 116.5v733h269v-733q0 -62 7 -104.5t25 -68.5t50.5 -38t83.5 -12q58 0 133 21t168 56v879h270v-1153h-260zM1008 1282h-246l270 305h301zM834 1587l-326 -305h-246
l269 305h303z" />
    <glyph glyph-name="Uogonek" unicode="&#x172;" horiz-adv-x="1497" 
d="M1004 -416q-26 -8 -86.5 -18t-139.5 -10q-139 0 -211.5 53.5t-72.5 152.5q0 56 37 111t112 100q-239 28 -365 189.5t-126 460.5v899h282v-885q0 -115 15 -195.5t51.5 -131.5t97 -74t152.5 -23q90 0 150.5 23t97 74t52 131.5t15.5 195.5v885h281v-899q0 -263 -97 -418.5
t-282 -208.5q-78 -33 -126 -61t-74.5 -52t-35 -44t-8.5 -38q0 -37 25.5 -59.5t91.5 -22.5q40 0 81 4t83 7v-146z" />
    <glyph glyph-name="uogonek" unicode="&#x173;" 
d="M1151 -416q-26 -8 -86.5 -18t-138.5 -10q-140 0 -212.5 51.5t-72.5 150.5q0 34 17 69.5t49 69t78.5 64t105.5 55.5v76q-103 -56 -201 -89.5t-198 -33.5q-76 0 -131 17t-93.5 47t-62.5 72t-37.5 92t-18 106.5t-4.5 116.5v733h269v-733q0 -62 7 -104.5t25 -68.5t50.5 -38
t83.5 -12q58 0 133 21t168 56v879h270v-1153q-90 -36 -145 -65.5t-84.5 -54t-39.5 -45t-10 -38.5q0 -37 24.5 -57.5t90.5 -20.5q42 0 83 4t81 7v-146z" />
    <glyph glyph-name="Wcircumflex" unicode="&#x174;" horiz-adv-x="1942" 
d="M1208 0l-192 805q-13 51 -22 103t-21 100h-4q-13 -48 -22 -100t-21 -103l-191 -805h-387l-264 1522h291l151 -922q13 -74 22.5 -150t20.5 -145h9q17 71 31.5 142.5t31.5 140.5l160 669h346l160 -675q15 -68 31 -138t30 -139h8q10 72 19.5 144.5t23.5 150.5l154 922h285
l-267 -1522h-383zM1168 1617l-197 187l-195 -187h-247l276 305h334l276 -305h-247z" />
    <glyph glyph-name="wcircumflex" unicode="&#x175;" horiz-adv-x="1792" 
d="M1139 0l-178 565q-23 71 -37.5 127.5t-22.5 104.5h-8q-8 -48 -22 -103.5t-37 -128.5l-181 -565h-350l-252 1153h275l129 -623q15 -77 25 -148t14 -136h10q18 68 36 140.5t40 141.5l151 482h332l151 -482q22 -69 40 -141.5t36 -140.5h10q4 65 15 136t26 148l127 623h273
l-248 -1153h-354zM1092 1282l-197 184l-195 -184h-247l276 303h334l276 -303h-247z" />
    <glyph glyph-name="Ycircumflex" unicode="&#x176;" horiz-adv-x="1364" 
d="M543 0v569l-508 953h299l239 -441q28 -52 56.5 -115t50.5 -120h12q10 28 23.5 59t28.5 61.5t30 59.5t29 55l239 441h287l-508 -953v-569h-278zM883 1617l-197 187l-195 -187h-247l276 305h334l276 -305h-247z" />
    <glyph glyph-name="ycircumflex" unicode="&#x177;" horiz-adv-x="1198" 
d="M809 1282l-197 184l-195 -184h-247l276 303h334l276 -303h-247zM471 8l-430 1145h293l201 -612q12 -39 22 -76t19.5 -74.5t19.5 -76.5t22 -81q19 85 36 158t40 150l183 612h280l-401 -1196q-35 -102 -71 -178t-84.5 -127t-115 -76t-161.5 -25q-84 0 -157 8t-118 17v197
q35 -2 63.5 -4t53.5 -3t49 -1.5t51 -0.5q37 0 62.5 9t45 29.5t36 53.5t34.5 81z" />
    <glyph glyph-name="Ydieresis" unicode="&#x178;" horiz-adv-x="1364" 
d="M543 0v569l-508 953h299l239 -441q28 -52 56.5 -115t50.5 -120h12q10 28 23.5 59t28.5 61.5t30 59.5t29 55l239 441h287l-508 -953v-569h-278zM822 1645v254h227v-254h-227zM326 1645v254h229v-254h-229z" />
    <glyph glyph-name="Zacute" unicode="&#x179;" horiz-adv-x="1313" 
d="M109 0v260l749 1020h-725v242h1047v-262l-748 -1020h772v-240h-1095zM782 1617h-260l270 305h314z" />
    <glyph glyph-name="zacute" unicode="&#x17a;" horiz-adv-x="1061" 
d="M82 0v242l588 692h-566v219h865v-238l-592 -700h594v-215h-889zM665 1282h-260l270 303h314z" />
    <glyph glyph-name="Zdotaccent" unicode="&#x17b;" horiz-adv-x="1313" 
d="M109 0v260l749 1020h-725v242h1047v-262l-748 -1020h772v-240h-1095zM518 1645v256h275v-256h-275z" />
    <glyph glyph-name="zdotaccent" unicode="&#x17c;" horiz-adv-x="1061" 
d="M82 0v242l588 692h-566v219h865v-238l-592 -700h594v-215h-889zM415 1333v254h275v-254h-275z" />
    <glyph glyph-name="Zcaron" unicode="&#x17d;" horiz-adv-x="1313" 
d="M109 0v260l749 1020h-725v242h1047v-262l-748 -1020h772v-240h-1095zM514 1617l-276 305h247l195 -188l197 188h247l-276 -305h-334z" />
    <glyph glyph-name="zcaron" unicode="&#x17e;" horiz-adv-x="1061" 
d="M82 0v242l588 692h-566v219h865v-238l-592 -700h594v-215h-889zM395 1282l-276 303h247l195 -186l197 186h247l-276 -303h-334z" />
    <glyph glyph-name="florin" unicode="&#x192;" horiz-adv-x="1331" 
d="M811 696l-92 -669q-14 -102 -46.5 -167.5t-80 -103.5t-108.5 -52.5t-132 -14.5q-75 0 -134 8t-107 20l22 177q47 -5 83.5 -7t74.5 -2q32 0 58.5 4.5t46.5 20t34 46t21 81.5l92 659h-297l28 213h297l43 301q15 102 46.5 168t79.5 104.5t110.5 54t138.5 15.5q68 0 126.5 -9
t105.5 -21l-21 -174q-50 3 -84.5 4.5t-66.5 1.5q-38 0 -65.5 -5t-47 -21.5t-32 -46.5t-19.5 -81l-43 -291h327l-26 -213h-332z" />
    <glyph glyph-name="Aringacute" unicode="&#x1fa;" horiz-adv-x="1444" 
d="M1096 0l-131 426h-490l-135 -426h-293l461 1522h428l461 -1522h-301zM782 1081q-17 57 -29.5 117.5t-23.5 122.5h-18q-13 -62 -25 -122.5t-29 -117.5l-129 -419h381zM989 1794q0 -60 -20 -105t-55 -75t-83 -45t-104 -15q-57 0 -106 15t-85 45t-56.5 75t-20.5 105
q0 61 20.5 106t56.5 75t85 44.5t106 14.5q56 0 104 -14.5t83 -44.5t55 -75t20 -106zM840 1794q0 57 -32.5 80.5t-80.5 23.5q-49 0 -82 -23.5t-33 -80.5q0 -28 9 -47.5t24.5 -31.5t36.5 -17.5t45 -5.5t44.5 5.5t36 17.5t24 31.5t8.5 47.5zM838 2064h-258l268 306h313z" />
    <glyph glyph-name="aringacute" unicode="&#x1fb;" horiz-adv-x="1182" 
d="M797 0v76q-27 -18 -64.5 -37t-83.5 -34.5t-101 -25.5t-116 -10q-161 0 -249.5 81.5t-88.5 248.5v43q0 115 39.5 184t111.5 105.5t172 47.5t222 11h137v72q0 61 -8.5 99.5t-34.5 60t-73 29t-123 7.5q-87 0 -177 -5.5t-186 -16.5v182q18 8 58 19t94.5 21t120 17t135.5 7
q138 0 228 -24t142.5 -75t73.5 -130.5t21 -190.5v-762h-250zM782 524h-143q-75 0 -128.5 -6t-88 -24t-50.5 -52.5t-16 -91.5v-49q0 -40 12 -66t33 -41.5t51 -21.5t66 -6q42 0 82.5 7.5t75.5 18t63 23t43 21.5v288zM616 1229q-57 0 -106 14.5t-85 44.5t-56.5 75t-20.5 105
t20.5 105t56.5 75t85 45t106 15q56 0 104 -15t83.5 -45t55.5 -75t20 -105t-20 -105t-55.5 -75t-83.5 -44.5t-104 -14.5zM616 1573q-49 0 -81.5 -24t-32.5 -81q0 -55 31.5 -79.5t82.5 -24.5q48 0 80.5 24.5t32.5 79.5q0 57 -32.5 81t-80.5 24zM737 1741h-258l269 305h315z
" />
    <glyph glyph-name="AEacute" unicode="&#x1fc;" horiz-adv-x="2042" 
d="M971 0v426h-469l-133 -426h-291l450 1522h1409v-238h-682v-387h641v-229h-641v-432h682v-236h-966zM971 1315h-228q-15 -56 -29 -113t-30 -112l-129 -431h416v656zM1296 1617h-260l270 305h314z" />
    <glyph glyph-name="aeacute" unicode="&#x1fd;" horiz-adv-x="1917" 
d="M1769 18q-33 -8 -80 -16.5t-104 -15.5t-121.5 -11t-132.5 -4q-158 0 -264.5 34t-169.5 104q-54 -38 -108 -64t-110 -42.5t-117 -24t-130 -7.5q-161 0 -249.5 80.5t-88.5 247.5v43q0 115 39.5 184t111.5 105.5t172 47.5t222 11h137v72q0 59 -8.5 97t-34 60t-72.5 30.5
t-124 8.5q-88 0 -175.5 -5.5t-187.5 -14.5v180q18 8 58 19t94.5 21t120 17t135.5 7q81 0 139.5 -7t101 -20.5t72.5 -33t53 -44.5q60 48 144 75.5t206 27.5q144 0 243 -44.5t160.5 -122t88.5 -182t27 -225.5v-114h-770v-21q0 -62 7.5 -114.5t38 -90.5t91.5 -59t168 -21
q54 0 109 2.5t109 6t104.5 9t94.5 11.5v-197zM1548 686q0 50 -8 100t-34 89.5t-76 64.5t-134 25q-81 0 -130 -25t-75 -65t-34 -90t-8 -99v-18h499v18zM782 524h-143q-75 0 -128.5 -6t-88 -24t-50.5 -52.5t-16 -91.5v-49q0 -40 12 -66t33 -41.5t50.5 -21.5t64.5 -6
q42 0 83 7.5t76 18t63 23t44 21.5v288zM1087 1282h-260l270 303h314z" />
    <glyph glyph-name="Oslashacute" unicode="&#x1fe;" horiz-adv-x="1464" 
d="M1358 672q0 -185 -43.5 -318.5t-125 -219.5t-197.5 -126.5t-261 -40.5q-114 0 -209.5 25t-171.5 76l-49 -68h-272l172 233q-47 82 -71 190.5t-24 248.5v178q0 184 43.5 317t124.5 218.5t197 126t260 40.5q112 0 205 -23t168 -73l49 66h268l-166 -226q103 -164 103 -446
v-178zM1073 848q0 51 -4 95.5t-12 82.5l-545 -739q43 -38 98 -55t121 -17q78 0 141 23.5t107.5 77t69 141t24.5 215.5v176zM944 1239q-43 34 -96.5 49t-116.5 15q-78 0 -140.5 -23.5t-107 -76.5t-68.5 -140.5t-24 -214.5v-176q0 -94 12 -164zM801 1618h-260l270 303h314z
" />
    <glyph glyph-name="oslashacute" unicode="&#x1ff;" horiz-adv-x="1249" 
d="M1145 506q0 -274 -134 -405.5t-386 -131.5q-94 0 -171 18.5t-139 53.5l-45 -61h-250l156 202q-35 63 -53.5 143.5t-18.5 180.5v141q0 272 134.5 403.5t386.5 131.5q80 0 147.5 -14t124.5 -40l53 70h248l-147 -194q46 -65 70 -153.5t24 -203.5v-141zM877 647q0 32 -3 61.5
t-8 55.5l-399 -526q29 -20 68 -28.5t90 -8.5q66 0 113.5 16.5t78.5 53t45.5 94.5t14.5 141v141zM745 930q-24 11 -54.5 15.5t-65.5 4.5q-65 0 -112.5 -16.5t-78.5 -52.5t-46 -93.5t-15 -140.5v-141v-32.5t2 -31.5zM713 1282h-260l270 303h314z" />
    <glyph glyph-name="Scommaaccent" unicode="&#x218;" horiz-adv-x="1262" 
d="M141 233q94 -9 204 -16.5t253 -7.5q138 0 205 42.5t67 145.5q0 37 -8.5 66.5t-30 55t-58 48.5t-93.5 47l-229 95q-85 34 -149.5 76.5t-108.5 96t-66.5 120t-22.5 149.5q0 111 34.5 187.5t103 124t170.5 68.5t237 21q72 0 140.5 -5t127 -12.5t104.5 -16t73 -15.5v-217
q-88 8 -200 17.5t-232 9.5q-67 0 -118.5 -7t-86 -24t-52.5 -47t-18 -76q0 -35 9 -62t31.5 -50t60 -44.5t94.5 -44.5l206 -84q100 -41 171 -84t116 -97.5t65.5 -125.5t20.5 -168q0 -104 -36.5 -184t-105.5 -135.5t-169.5 -84t-228.5 -28.5q-75 0 -148.5 4.5t-137.5 11.5
t-115 15t-79 16v219zM376 -422l138 289h290l-188 -289h-240z" />
    <glyph glyph-name="scommaaccent" unicode="&#x219;" horiz-adv-x="1049" 
d="M111 209q22 -2 63.5 -6t93.5 -9t110 -8.5t114 -3.5q63 0 104 7.5t65 22.5t34 37.5t10 53.5q0 30 -8 50.5t-30.5 38t-62.5 35.5t-104 44l-88 35q-81 32 -141 67.5t-99.5 79t-58.5 96t-19 119.5q0 87 29 147t86.5 97t144 53.5t201.5 16.5q49 0 103.5 -4.5t104.5 -11.5
t90.5 -14.5t61.5 -14.5v-189q-97 10 -189 15.5t-167 5.5q-52 0 -89.5 -3.5t-62 -13.5t-36 -28.5t-11.5 -49.5q0 -27 8.5 -46t29.5 -35t56.5 -31.5t88.5 -36.5l92 -37q93 -38 157 -73t103.5 -77t57 -94.5t18.5 -124.5q0 -81 -28 -145.5t-85.5 -109.5t-145.5 -69t-208 -24
q-60 0 -121.5 5t-115.5 11.5t-95.5 14.5t-60.5 14v193zM253 -422l138 289h290l-188 -289h-240z" />
    <glyph glyph-name="Tcommaaccent" unicode="&#x21a;" horiz-adv-x="1311" 
d="M512 0v1284h-455v238h1196v-238h-454v-1284h-287zM385 -422l138 289h290l-188 -289h-240z" />
    <glyph glyph-name="tcommaaccent" unicode="&#x21b;" horiz-adv-x="874" 
d="M813 2q-12 -3 -35.5 -8.5t-54.5 -11t-68 -9.5t-75 -4q-86 0 -146 18t-98.5 57.5t-56 102.5t-17.5 154v635l-215 18v199h215v293h270v-293h281v-217h-281v-631q0 -40 3 -64.5t14 -38.5t32 -19t58 -5q22 0 47.5 0.5t49.5 2t44.5 2.5t32.5 3v-184zM248 -422l138 289h290
l-188 -289h-240z" />
    <glyph glyph-name="circumflex" unicode="&#x2c6;" horiz-adv-x="1026" 
d="M709 1282l-197 184l-195 -184h-247l276 303h334l276 -303h-247z" />
    <glyph glyph-name="caron" unicode="&#x2c7;" horiz-adv-x="1026" 
d="M346 1282l-276 303h247l195 -186l197 186h247l-276 -303h-334z" />
    <glyph glyph-name="uni02C9" unicode="&#x2c9;" horiz-adv-x="983" 
d="M106 1339v181h771v-181h-771z" />
    <glyph glyph-name="breve" unicode="&#x2d8;" horiz-adv-x="993" 
d="M883 1599q-16 -158 -116 -239.5t-271 -81.5q-172 0 -271 81.5t-114 239.5h174q5 -49 22 -81.5t44 -52t63.5 -27.5t81.5 -8q46 0 82.5 8t63.5 27.5t44.5 52t24.5 81.5h172z" />
    <glyph glyph-name="dotaccent" unicode="&#x2d9;" horiz-adv-x="905" 
d="M315 1333v254h275v-254h-275z" />
    <glyph glyph-name="ring" unicode="&#x2da;" horiz-adv-x="924" 
d="M465 1255q-57 0 -106 14.5t-85 44.5t-56.5 75t-20.5 106q0 60 20.5 105t56.5 75t85 45t106 15q56 0 104 -15t83 -45t55 -75t20 -105q0 -61 -20 -106t-55 -75t-83 -44.5t-104 -14.5zM465 1599q-50 0 -82.5 -23.5t-32.5 -80.5q0 -56 32 -80t83 -24q47 0 80 24t33 80
q0 28 -9 48t-24 32.5t-35.5 18t-44.5 5.5z" />
    <glyph glyph-name="ogonek" unicode="&#x2db;" horiz-adv-x="938" 
d="M745 -416q-26 -8 -86 -18t-139 -10q-139 0 -211.5 51.5t-72.5 150.5q0 39 18 76.5t54 72t90 64t126 52.5l221 -23q-90 -36 -145 -65.5t-85 -54t-40 -45t-10 -38.5q0 -37 25.5 -57.5t91.5 -20.5q40 0 80.5 4t82.5 7v-146z" />
    <glyph glyph-name="tilde" unicode="&#x2dc;" horiz-adv-x="995" 
d="M938 1546q0 -140 -55 -207t-164 -67q-53 0 -103.5 17t-109.5 54l-90 58q-34 25 -59 37t-54 12q-41 0 -54 -28.5t-13 -80.5v-57h-168v57q0 141 59 207t168 66q28 0 52 -3.5t47.5 -11.5t48 -20.5t53.5 -30.5l92 -59q32 -22 60 -35.5t59 -13.5q41 0 54 26.5t13 79.5v56h164
v-56z" />
    <glyph glyph-name="hungarumlaut" unicode="&#x2dd;" horiz-adv-x="1104" 
d="M932 1276h-246l270 305h301zM758 1581l-326 -305h-246l269 305h303z" />
    <glyph glyph-name="uni037E" unicode="&#x37e;" horiz-adv-x="532" 
d="M139 522v316h260v-316h-260z" />
    <glyph glyph-name="uni03A9" unicode="&#x3a9;" horiz-adv-x="1462" 
d="M803 0v395q140 34 207 137.5t67 268.5v129q0 110 -27 182t-73.5 114.5t-110 59.5t-135.5 17q-73 0 -136.5 -17t-110.5 -59.5t-74 -114.5t-27 -182v-129q0 -165 67 -268.5t207 -137.5v-395h-536v203h313v78q-90 34 -153 87t-102.5 122t-58 151.5t-18.5 175.5v129
q0 153 43.5 267t125 189t198 112.5t262.5 37.5q145 0 261 -37.5t197.5 -112.5t125 -189t43.5 -267v-129q0 -93 -18 -175.5t-58 -151.5t-103 -122t-153 -87v-78h315v-203h-538z" />
    <glyph glyph-name="uni03BC" unicode="&#x3bc;" horiz-adv-x="1389" 
d="M932 0v92q-97 -48 -183 -78t-163 -30q-50 0 -78 3t-51 9v-416h-271v1573h269v-733q0 -62 7 -104.5t25 -68.5t50.5 -38t83.5 -12q58 0 133 21t168 56v879h270v-1153h-260z" />
    <glyph glyph-name="pi" unicode="&#x3c0;" horiz-adv-x="1397" 
d="M1305 -14q-31 -8 -76.5 -12.5t-85.5 -4.5q-81 0 -135.5 19t-87.5 58t-47.5 99.5t-14.5 143.5v610h-328v-899h-272v899h-178v254h1225v-254h-177v-612q0 -31 3 -52t12 -33.5t25 -18t42 -5.5h48t47 2v-194z" />
    <glyph glyph-name="Wgrave" unicode="&#x1e80;" horiz-adv-x="1942" 
d="M1208 0l-192 805q-13 51 -22 103t-21 100h-4q-13 -48 -22 -100t-21 -103l-191 -805h-387l-264 1522h291l151 -922q13 -74 22.5 -150t20.5 -145h9q17 71 31.5 142.5t31.5 140.5l160 669h346l160 -675q15 -68 31 -138t30 -139h8q10 72 19.5 144.5t23.5 150.5l154 922h285
l-267 -1522h-383zM915 1617l-324 305h314l268 -305h-258z" />
    <glyph glyph-name="wgrave" unicode="&#x1e81;" horiz-adv-x="1792" 
d="M1139 0l-178 565q-23 71 -37.5 127.5t-22.5 104.5h-8q-8 -48 -22 -103.5t-37 -128.5l-181 -565h-350l-252 1153h275l129 -623q15 -77 25 -148t14 -136h10q18 68 36 140.5t40 141.5l151 482h332l151 -482q22 -69 40 -141.5t36 -140.5h10q4 65 15 136t26 148l127 623h273
l-248 -1153h-354zM813 1282l-324 303h314l268 -303h-258z" />
    <glyph glyph-name="Wacute" unicode="&#x1e82;" horiz-adv-x="1942" 
d="M1208 0l-192 805q-13 51 -22 103t-21 100h-4q-13 -48 -22 -100t-21 -103l-191 -805h-387l-264 1522h291l151 -922q13 -74 22.5 -150t20.5 -145h9q17 71 31.5 142.5t31.5 140.5l160 669h346l160 -675q15 -68 31 -138t30 -139h8q10 72 19.5 144.5t23.5 150.5l154 922h285
l-267 -1522h-383zM1073 1617h-260l270 305h314z" />
    <glyph glyph-name="wacute" unicode="&#x1e83;" horiz-adv-x="1792" 
d="M1139 0l-178 565q-23 71 -37.5 127.5t-22.5 104.5h-8q-8 -48 -22 -103.5t-37 -128.5l-181 -565h-350l-252 1153h275l129 -623q15 -77 25 -148t14 -136h10q18 68 36 140.5t40 141.5l151 482h332l151 -482q22 -69 40 -141.5t36 -140.5h10q4 65 15 136t26 148l127 623h273
l-248 -1153h-354zM989 1282h-260l270 303h314z" />
    <glyph glyph-name="Wdieresis" unicode="&#x1e84;" horiz-adv-x="1942" 
d="M1208 0l-192 805q-13 51 -22 103t-21 100h-4q-13 -48 -22 -100t-21 -103l-191 -805h-387l-264 1522h291l151 -922q13 -74 22.5 -150t20.5 -145h9q17 71 31.5 142.5t31.5 140.5l160 669h346l160 -675q15 -68 31 -138t30 -139h8q10 72 19.5 144.5t23.5 150.5l154 922h285
l-267 -1522h-383zM1106 1645v254h227v-254h-227zM610 1645v254h229v-254h-229z" />
    <glyph glyph-name="wdieresis" unicode="&#x1e85;" horiz-adv-x="1792" 
d="M1139 0l-178 565q-23 71 -37.5 127.5t-22.5 104.5h-8q-8 -48 -22 -103.5t-37 -128.5l-181 -565h-350l-252 1153h275l129 -623q15 -77 25 -148t14 -136h10q18 68 36 140.5t40 141.5l151 482h332l151 -482q22 -69 40 -141.5t36 -140.5h10q4 65 15 136t26 148l127 623h273
l-248 -1153h-354zM1030 1320v254h227v-254h-227zM534 1320v254h229v-254h-229z" />
    <glyph glyph-name="Ygrave" unicode="&#x1ef2;" horiz-adv-x="1364" 
d="M543 0v569l-508 953h299l239 -441q28 -52 56.5 -115t50.5 -120h12q10 28 23.5 59t28.5 61.5t30 59.5t29 55l239 441h287l-508 -953v-569h-278zM616 1615l-324 305h314l268 -305h-258z" />
    <glyph glyph-name="ygrave" unicode="&#x1ef3;" horiz-adv-x="1198" 
d="M545 1282l-324 303h314l268 -303h-258zM471 8l-430 1145h293l201 -612q12 -39 22 -76t19.5 -74.5t19.5 -76.5t22 -81q19 85 36 158t40 150l183 612h280l-401 -1196q-35 -102 -71 -178t-84.5 -127t-115 -76t-161.5 -25q-84 0 -157 8t-118 17v197q35 -2 63.5 -4t53.5 -3
t49 -1.5t51 -0.5q37 0 62.5 9t45 29.5t36 53.5t34.5 81z" />
    <glyph glyph-name="figuredash" unicode="&#x2012;" horiz-adv-x="1475" 
d="M135 483v203h1204v-203h-1204z" />
    <glyph glyph-name="endash" unicode="&#x2013;" horiz-adv-x="1001" 
d="M135 496v213h731v-213h-731z" />
    <glyph glyph-name="emdash" unicode="&#x2014;" horiz-adv-x="1323" 
d="M135 496v213h1055v-213h-1055z" />
    <glyph glyph-name="quoteleft" unicode="&#x2018;" horiz-adv-x="451" 
d="M41 1090l174 501h195l-111 -501h-258z" />
    <glyph glyph-name="quoteright" unicode="&#x2019;" horiz-adv-x="451" 
d="M41 1090l111 501h258l-174 -501h-195z" />
    <glyph glyph-name="quotesinglbase" unicode="&#x201a;" horiz-adv-x="451" 
d="M41 -199l111 502h258l-174 -502h-195z" />
    <glyph glyph-name="quotedblleft" unicode="&#x201c;" horiz-adv-x="889" 
d="M41 1090l174 501h195l-111 -501h-258zM479 1090l174 501h195l-111 -501h-258z" />
    <glyph glyph-name="quotedblright" unicode="&#x201d;" horiz-adv-x="889" 
d="M479 1090l111 501h258l-174 -501h-195zM41 1090l111 501h258l-174 -501h-195z" />
    <glyph glyph-name="quotedblbase" unicode="&#x201e;" horiz-adv-x="889" 
d="M479 -199l111 502h258l-174 -502h-195zM41 -199l111 502h258l-174 -502h-195z" />
    <glyph glyph-name="dagger" unicode="&#x2020;" horiz-adv-x="1073" 
d="M391 -266v1214h-252v230h252v413h271v-413h272v-230h-272v-1214h-271z" />
    <glyph glyph-name="daggerdbl" unicode="&#x2021;" horiz-adv-x="1073" 
d="M391 -266v747h-252v228h252v247h-252v232h252v397h271v-397h272v-232h-272v-247h272v-228h-272v-747h-271z" />
    <glyph glyph-name="bullet" unicode="&#x2022;" horiz-adv-x="1071" 
d="M913 754q0 -78 -30 -146t-81 -118.5t-120 -79.5t-147 -29t-147 29t-120 79.5t-80.5 118.5t-29.5 146t29.5 146t80.5 118.5t120 80t147 29.5t147 -29.5t120 -80t81 -118.5t30 -146z" />
    <glyph glyph-name="onedotenleader" unicode="&#x2024;" horiz-adv-x="555" 
d="M141 0v315h273v-315h-273z" />
    <glyph glyph-name="twodotenleader" unicode="&#x2025;" horiz-adv-x="1057" 
d="M141 0v315h273v-315h-273zM645 0v315h270v-315h-270z" />
    <glyph glyph-name="ellipsis" unicode="&#x2026;" horiz-adv-x="1806" 
d="M150 0v315h272v-315h-272zM768 0v315h270v-315h-270zM1384 0v315h273v-315h-273z" />
    <glyph glyph-name="perthousand" unicode="&#x2030;" horiz-adv-x="3150" 
d="M3039 406q0 -212 -95.5 -320.5t-285.5 -108.5q-189 0 -285 108.5t-96 320.5v90q0 211 96 319.5t285 108.5q190 0 285.5 -108.5t95.5 -319.5v-90zM2824 498q0 76 -12.5 125t-34.5 77.5t-52.5 39t-66.5 10.5t-66.5 -10.5t-52.5 -39t-34.5 -77.5t-12.5 -125v-92
q0 -78 12.5 -127t34.5 -77.5t52.5 -39t66.5 -10.5t66.5 10.5t52.5 39t34.5 77.5t12.5 127v92zM2159 406q0 -212 -96 -320.5t-285 -108.5q-190 0 -286.5 108.5t-96.5 320.5v90q0 211 96.5 319.5t286.5 108.5q189 0 285 -108.5t96 -319.5v-90zM1944 498q0 76 -12.5 125
t-34.5 77.5t-52.5 39t-66.5 10.5t-67 -10.5t-53.5 -39t-35 -77.5t-12.5 -125v-92q0 -78 12.5 -127t35 -77.5t53.5 -39t67 -10.5t66.5 10.5t52.5 39t34.5 77.5t12.5 127v92zM512 0l993 1524h242l-993 -1524h-242zM868 1032q0 -98 -20.5 -177t-65.5 -134.5t-117 -86
t-176 -30.5t-176.5 31t-117.5 87.5t-65.5 135.5t-20.5 174v88q0 96 20.5 175t65.5 136t117.5 88t176.5 31t176 -30.5t117 -86.5t65.5 -135.5t20.5 -177.5v-88zM653 1120q0 75 -9.5 124t-29.5 78.5t-51 41.5t-74 12t-74 -13t-51.5 -43t-30 -79t-9.5 -121v-88
q0 -74 9.5 -123.5t30 -79t51.5 -41.5t74 -12t74 12t51 41.5t29.5 79t9.5 123.5v88z" />
    <glyph glyph-name="guilsinglleft" unicode="&#x2039;" horiz-adv-x="827" 
d="M426 152l-324 444l324 440h293l-313 -440l313 -444h-293z" />
    <glyph glyph-name="guilsinglright" unicode="&#x203a;" horiz-adv-x="827" 
d="M106 152l314 444l-314 440h293l324 -440l-324 -444h-293z" />
    <glyph glyph-name="exclamdbl" unicode="&#x203c;" horiz-adv-x="1116" 
d="M670 0v313h276v-313h-276zM686 432l-27 1159h297l-24 -1159h-246zM170 0v313h276v-313h-276zM186 432l-26 1159h297l-25 -1159h-246z" />
    <glyph glyph-name="fraction" unicode="&#x2044;" horiz-adv-x="991" 
d="M-123 0l993 1524h244l-993 -1524h-244z" />
    <glyph glyph-name="zero.superior" unicode="&#x2070;" horiz-adv-x="958" 
d="M862 1100q0 -212 -96 -322t-289 -110t-289 110t-96 322v90q0 214 96 323t289 109t289 -109t96 -323v-90zM645 1190q0 79 -13 129.5t-35.5 79.5t-53 40t-66.5 11q-37 0 -67.5 -11t-53 -40t-35 -79.5t-12.5 -129.5v-90q0 -78 12.5 -128.5t35 -79t53 -39.5t67.5 -11
q36 0 66.5 11t53 39.5t35.5 79t13 128.5v90z" />
    <glyph glyph-name="i.superior" unicode="&#x2071;" horiz-adv-x="455" 
d="M127 627v704h205v-704h-205zM121 1430v161h213v-161h-213z" />
    <glyph glyph-name="four.superior" unicode="&#x2074;" horiz-adv-x="958" 
d="M528 688v209h-448v158l477 549h186v-551h136v-156h-136v-209h-215zM539 1366l-279 -313h279v313z" />
    <glyph glyph-name="five.superior" unicode="&#x2075;" horiz-adv-x="915" 
d="M805 963q0 -81 -26 -137t-75 -91t-120 -51t-160 -16q-52 0 -100.5 4t-89 9.5t-71.5 11t-48 9.5v142q66 -6 135.5 -12.5t134.5 -6.5q56 0 94.5 7t62 22.5t34 41t10.5 62.5v23q0 34 -8.5 57t-30.5 37t-60 19.5t-96 5.5h-266l45 504h602v-162h-428l-20 -189h106
q103 0 174.5 -15t116 -47t64.5 -83.5t20 -124.5v-20z" />
    <glyph glyph-name="six.superior" unicode="&#x2076;" horiz-adv-x="969" 
d="M854 971q0 -89 -32 -147t-84.5 -93t-118.5 -49t-134 -14q-93 0 -164.5 20t-119.5 66t-72.5 119.5t-24.5 181.5v188q0 89 17.5 159.5t61.5 119t119.5 74.5t191.5 26q49 0 97 -4t89.5 -9t74 -11.5t50.5 -10.5v-143q-28 3 -62.5 6t-72.5 5t-77.5 3.5t-76.5 1.5
q-67 0 -106.5 -11.5t-60 -35t-26.5 -58t-6 -79.5v-29q19 6 43.5 10t50 7t49.5 4.5t42 1.5q72 0 136 -9.5t112 -38t76 -80.5t28 -136v-35zM639 1004q0 41 -10.5 66.5t-30.5 39.5t-49 18.5t-66 4.5q-31 0 -76 -4t-90 -15v-92q0 -63 12 -102.5t34 -62t53 -30.5t69 -8
q32 0 60 8.5t49 26.5t33 47t12 70v33z" />
    <glyph glyph-name="seven.superior" unicode="&#x2077;" horiz-adv-x="909" 
d="M160 688l438 754h-475v162h688v-181l-422 -735h-229z" />
    <glyph glyph-name="eight.superior" unicode="&#x2078;" horiz-adv-x="997" 
d="M877 950q0 -96 -32 -152t-85.5 -85t-124 -37t-148.5 -8q-75 0 -144 8t-122.5 37t-85 85t-31.5 152v11q0 71 26 119t77 79q-48 32 -74.5 79t-26.5 118v12q0 81 31 130.5t84.5 77t124 37t148.5 9.5q76 0 144.5 -9.5t120.5 -37t82.5 -77t30.5 -130.5v-12q0 -71 -26 -118
t-74 -79q53 -31 79 -79t26 -119v-11zM424 1092q-63 0 -86 -32t-23 -106q0 -45 12.5 -72.5t36 -42t56.5 -19.5t74 -5q38 0 70 5t54.5 19.5t35 42t12.5 72.5q0 74 -23 106t-86 32h-133zM557 1233q63 0 84 30.5t21 84.5q0 40 -12.5 64.5t-35 38.5t-55 19t-72.5 5q-38 0 -69 -5
t-53.5 -19t-35 -38.5t-12.5 -64.5q0 -54 22 -84.5t85 -30.5h133z" />
    <glyph glyph-name="nine.superior" unicode="&#x2079;" horiz-adv-x="969" 
d="M639 1042q-19 -5 -43.5 -8.5t-49.5 -6t-49 -4t-42 -1.5q-72 0 -136.5 9.5t-112.5 38t-76 80.5t-28 136v33q0 88 32.5 146.5t85 93t119 49t134.5 14.5q93 0 164 -20t118.5 -66t72 -119.5t24.5 -181.5v-186q0 -89 -17.5 -160t-61.5 -120t-119 -75t-191 -26q-49 0 -97 3.5
t-90 9t-75 11t-51 10.5v142q23 -2 56.5 -4.5t72.5 -5.5t81 -5t82 -2q66 0 105 12.5t59.5 36.5t26.5 58.5t6 79.5v28zM639 1270q0 62 -11.5 101.5t-33.5 62t-53.5 31t-71.5 8.5q-32 0 -59.5 -8.5t-48 -27t-32.5 -47.5t-12 -71v-31q0 -41 10.5 -66t30.5 -39t48.5 -19t64.5 -5
q32 0 77.5 3.5t90.5 13.5v94z" />
    <glyph glyph-name="parenleft.superior" unicode="&#x207d;" horiz-adv-x="584" 
d="M297 457q-29 37 -60 91t-56.5 122.5t-41.5 149.5t-16 173v11q0 91 16 172t41.5 150t56.5 124t60 94h195q-34 -51 -64 -109.5t-52 -126t-35 -143.5t-13 -161v-11q0 -86 13 -162t35 -143t52 -124.5t64 -106.5h-195z" />
    <glyph glyph-name="parenright.superior" unicode="&#x207e;" horiz-adv-x="584" 
d="M90 457q34 49 64 106.5t52.5 124.5t35 143t12.5 162v11q0 85 -12.5 161t-35 143.5t-52.5 126t-64 109.5h195q29 -39 59.5 -94t56 -124t42 -150t16.5 -172v-11q0 -92 -16.5 -173t-42 -149.5t-56 -122.5t-59.5 -91h-195z" />
    <glyph glyph-name="n.superior" unicode="&#x207f;" horiz-adv-x="926" 
d="M600 627v434q0 35 -4 59.5t-15 40t-30 22.5t-49 7q-37 0 -81.5 -12.5t-92.5 -30.5v-520h-207v704h196v-53q59 32 120.5 52t121.5 20q83 0 131.5 -23t74 -62.5t33 -91t7.5 -108.5v-438h-205z" />
    <glyph glyph-name="zero.inferior" unicode="&#x2080;" horiz-adv-x="958" 
d="M862 -16q0 -212 -96 -322.5t-289 -110.5t-289 110.5t-96 322.5v90q0 213 96 322.5t289 109.5t289 -109.5t96 -322.5v-90zM645 74q0 79 -13 129.5t-35.5 79.5t-53 40t-66.5 11q-37 0 -67.5 -11t-53 -40t-35 -79.5t-12.5 -129.5v-90q0 -78 12.5 -128.5t35 -79t53 -39.5
t67.5 -11q36 0 66.5 11t53 39.5t35.5 79t13 128.5v90z" />
    <glyph glyph-name="one.inferior" unicode="&#x2081;" horiz-adv-x="858" 
d="M141 -428v154l189 8v553l-191 -60v174l252 91h156v-758l188 -8v-154h-594z" />
    <glyph glyph-name="two.inferior" unicode="&#x2082;" horiz-adv-x="922" 
d="M113 -428v113q0 84 15.5 144t50 106.5t90.5 84.5t137 76q62 30 98.5 51t55.5 39t24.5 35.5t5.5 40.5q0 48 -38.5 68t-133.5 20q-39 0 -82.5 -2t-84 -4.5t-73.5 -4.5t-51 -3v135q20 6 56 12t80 11.5t92.5 8.5t93.5 3q183 0 270.5 -56.5t87.5 -181.5q0 -48 -13.5 -87
t-45 -73.5t-82 -66.5t-123.5 -66q-71 -33 -113.5 -57.5t-65.5 -48.5t-30.5 -52t-7.5 -69v-10h465v-166h-678z" />
    <glyph glyph-name="three.inferior" unicode="&#x2083;" horiz-adv-x="913" 
d="M799 -172q0 -75 -23 -127.5t-69.5 -85.5t-116.5 -48.5t-164 -15.5q-46 0 -94.5 4t-91 9.5t-75 12t-46.5 11.5v138q18 -2 50.5 -4.5t72.5 -5t83 -4t81 -1.5q45 0 78.5 5t55.5 18.5t33 38t11 63.5v19q0 25 -4.5 45.5t-20 34.5t-45 22t-78.5 8h-268v150h270q48 0 77 8.5
t44.5 23.5t20 35.5t4.5 44.5v13q0 31 -8.5 51.5t-28.5 32.5t-54.5 17t-86.5 5q-39 0 -80 -1.5t-78.5 -4t-71 -5t-57.5 -3.5v137q15 5 47.5 11.5t74.5 12t90.5 9.5t94.5 4q90 0 159.5 -12.5t117 -42t72 -77.5t24.5 -118v-14q0 -29 -6 -58.5t-20 -56t-36 -49t-53 -37.5
q32 -15 54 -36t35.5 -46.5t19.5 -54.5t6 -58v-18z" />
    <glyph glyph-name="four.inferior" unicode="&#x2084;" horiz-adv-x="958" 
d="M528 -428v209h-448v158l477 548h186v-550h136v-156h-136v-209h-215zM539 250l-279 -313h279v313z" />
    <glyph glyph-name="five.inferior" unicode="&#x2085;" horiz-adv-x="915" 
d="M805 -154q0 -81 -26 -137t-75 -91t-120 -51t-160 -16q-52 0 -100.5 4t-89 9.5t-71.5 11.5t-48 10v142q66 -7 135.5 -13t134.5 -6q56 0 94.5 7t62 22.5t34 41t10.5 62.5v23q0 34 -8.5 57t-30.5 37t-60 19.5t-96 5.5h-266l45 503h602v-161h-428l-20 -189h106
q103 0 174.5 -15t116 -47.5t64.5 -83.5t20 -124v-21z" />
    <glyph glyph-name="six.inferior" unicode="&#x2086;" horiz-adv-x="969" 
d="M854 -145q0 -89 -32 -147.5t-84.5 -93t-118.5 -49t-134 -14.5q-93 0 -164.5 20.5t-119.5 66t-72.5 119.5t-24.5 182v188q0 89 17.5 159.5t61.5 119t119.5 74.5t191.5 26q49 0 97 -4t89.5 -9t74 -11.5t50.5 -10.5v-143q-28 3 -62.5 6t-72.5 5t-77.5 3.5t-76.5 1.5
q-67 0 -106.5 -11.5t-60 -35t-26.5 -58t-6 -79.5v-29q19 5 43.5 9.5t50 7.5t49.5 4.5t42 1.5q72 0 136 -9.5t112 -38t76 -80.5t28 -137v-34zM639 -113q0 42 -10.5 67t-30.5 39t-49 18.5t-66 4.5q-31 0 -76 -3.5t-90 -14.5v-92q0 -63 12 -102.5t34 -62t53 -30.5t69 -8
q32 0 60 8.5t49 26.5t33 47t12 70v32z" />
    <glyph glyph-name="seven.inferior" unicode="&#x2087;" horiz-adv-x="909" 
d="M160 -428l438 754h-475v161h688v-180l-422 -735h-229z" />
    <glyph glyph-name="eight.inferior" unicode="&#x2088;" horiz-adv-x="997" 
d="M877 -166q0 -64 -14.5 -110t-40.5 -77.5t-62.5 -50t-79.5 -29t-92 -13.5t-101 -3q-75 0 -144 8t-122.5 37.5t-85 85.5t-31.5 152v10q0 72 26 120t77 79q-48 32 -74.5 78.5t-26.5 118.5v12q0 81 31 130.5t84.5 77t124 37t148.5 9.5q76 0 144.5 -9.5t120.5 -37t82.5 -77
t30.5 -130.5v-12q0 -72 -26 -118.5t-74 -78.5q53 -31 79 -79t26 -120v-10zM424 -25q-63 0 -86 -31.5t-23 -105.5q0 -45 12.5 -72.5t36 -42.5t56.5 -19.5t74 -4.5q38 0 70 4.5t54.5 19.5t35 42.5t12.5 72.5q0 74 -23 105.5t-86 31.5h-133zM557 117q31 0 51.5 8t32.5 22.5
t16.5 35.5t4.5 48q0 40 -12.5 65t-35 38.5t-55 18.5t-72.5 5q-38 0 -69 -5t-53.5 -18.5t-35 -38.5t-12.5 -65q0 -54 22 -84t85 -30h133z" />
    <glyph glyph-name="nine.inferior" unicode="&#x2089;" horiz-adv-x="969" 
d="M639 -74q-19 -5 -43.5 -8.5t-49.5 -6t-49 -4t-42 -1.5q-72 0 -136.5 9.5t-112.5 38t-76 80.5t-28 136v33q0 88 32.5 146.5t85 93t119 49t134.5 14.5q93 0 164 -20t118.5 -66t72 -119.5t24.5 -181.5v-187q0 -89 -17.5 -159.5t-61.5 -120t-119 -75.5t-191 -26q-49 0 -97 4
t-90 9t-75 11t-51 11v142q23 -2 56.5 -4.5t72.5 -5.5t81 -5t82 -2q66 0 105 12.5t59.5 36.5t26.5 58.5t6 79.5v28zM639 154q0 62 -11.5 101t-33.5 61.5t-53.5 31t-71.5 8.5q-32 0 -59.5 -8.5t-48 -27t-32.5 -47.5t-12 -70v-31q0 -41 10.5 -66t30.5 -39t48.5 -19t64.5 -5
q32 0 77.5 3.5t90.5 12.5v95z" />
    <glyph glyph-name="parenleft.inferior" unicode="&#x208d;" horiz-adv-x="584" 
d="M297 -489q-29 37 -60 91t-56.5 122t-41.5 149.5t-16 173.5v10q0 91 16 172.5t41.5 150.5t56.5 124t60 94h195q-34 -51 -64 -109.5t-52 -126t-35 -144t-13 -161.5v-10q0 -86 13 -162t35 -143t52 -124.5t64 -106.5h-195z" />
    <glyph glyph-name="parenright.inferior" unicode="&#x208e;" horiz-adv-x="584" 
d="M90 -489q34 49 64 106.5t52.5 124.5t35 143t12.5 162v10q0 85 -12.5 161.5t-35 144t-52.5 126t-64 109.5h195q29 -39 59.5 -94t56 -124t42 -150.5t16.5 -172.5v-10q0 -92 -16.5 -173.5t-42 -149.5t-56 -122t-59.5 -91h-195z" />
    <glyph glyph-name="colonmonetary" unicode="&#x20a1;" horiz-adv-x="1040" 
d="M664 -233v204q-16 -2 -28.5 -2h-25.5q-28 0 -47.5 1.5t-38.5 4.5v-208h-172v256q-115 58 -174 178.5t-59 300.5v149q0 180 59 299.5t174 177.5v265h172v-217q37 6 92 6h48v211h172v-230q46 -6 77 -12.5t45 -11.5v-205q-22 1 -56.5 4t-75.5 6t-86.5 5.5t-90.5 2.5
q-62 0 -111 -12t-82.5 -45.5t-51 -92t-17.5 -151.5v-149q0 -92 17.5 -150.5t51 -92.5t82.5 -47t111 -13q54 0 133 4t176 12v-203q-15 -5 -46 -10.5t-76 -11.5v-223h-172z" />
    <glyph glyph-name="franc" unicode="&#x20a3;" horiz-adv-x="1260" 
d="M471 289v-289h-287v289h-102v190h102v1043h969v-240h-682v-385h647v-233h-647v-185h377v-190h-377z" />
    <glyph glyph-name="lira" unicode="&#x20a4;" horiz-adv-x="1352" 
d="M197 0v193q52 54 73 114t21 123v64h-158v157h158v148h-158v157h158v68q0 136 23 235.5t80 164.5t153 96.5t241 31.5q66 0 127.5 -4t115.5 -10t98.5 -13.5t76.5 -15.5v-221q-44 6 -94 10.5t-100.5 8.5t-99 6t-87.5 2q-86 0 -136.5 -14t-77 -48t-34.5 -89.5t-8 -139.5v-68
h469v-157h-469v-148h469v-157h-469v-64q0 -59 -13.5 -106.5t-47.5 -94.5h698v-229h-1009z" />
    <glyph glyph-name="peseta" unicode="&#x20a7;" horiz-adv-x="1497" 
d="M1317 944q-15 -125 -72 -203t-143.5 -121t-196.5 -58t-233 -15h-91t-94 2v-549h-278v944h-170v207h170v371q109 5 222 7.5t222 2.5q127 0 240 -14.5t201 -56t145.5 -116t75.5 -194.5h160v-207h-158zM1042 1055q-1 75 -24.5 121t-70.5 71.5t-117.5 34t-163.5 8.5h-179
v-499q45 -2 89.5 -2.5t91.5 -0.5q94 0 164 10t116.5 37t70 74.5t23.5 122.5v23z" />
    <glyph glyph-name="Euro" unicode="&#x20ac;" horiz-adv-x="1386" 
d="M1257 6q-26 -6 -67.5 -13t-91.5 -12.5t-103.5 -9.5t-103.5 -4q-134 0 -245 25.5t-194.5 89t-136 170t-67.5 268.5h-121v158h115v164h-115v157h121q15 162 67.5 269t136 170t194.5 88.5t245 25.5q50 0 103.5 -4t103.5 -10t91.5 -13.5t67.5 -13.5v-227q-38 3 -80 6.5t-87 6
t-90.5 4.5t-90.5 2q-82 0 -146 -14t-110.5 -48.5t-75.5 -93.5t-40 -148h649l-41 -157h-617v-164h568l-45 -158h-514q11 -88 40 -146.5t75.5 -93t110.5 -49t146 -14.5q45 0 90.5 1.5t90.5 4.5t87 6.5t80 6.5v-230z" />
    <glyph glyph-name="litre" unicode="&#x2113;" horiz-adv-x="1042" 
d="M948 88q-74 -57 -157.5 -91t-176.5 -34q-164 0 -244.5 84.5t-80.5 265.5v162l-111 -110l-94 84q31 34 54.5 59t46 47.5t47 47.5t57.5 61v567q0 98 19 170.5t59.5 120t104.5 71t153 23.5q84 0 142.5 -20t94.5 -57t52 -88t16 -112q0 -87 -26.5 -168.5t-75.5 -160.5
t-117 -156.5t-152 -155.5v-364q0 -53 7 -87.5t23 -54.5t41 -28t60 -8q40 0 84 18t84 49zM559 887q54 57 94.5 112t68.5 110t42 112t14 118q0 27 -4.5 50t-16.5 40.5t-32 27t-51 9.5q-39 0 -62 -15t-35 -45t-15 -74t-3 -101v-344z" />
    <glyph glyph-name="trademark" unicode="&#x2122;" horiz-adv-x="1907" 
d="M1550 698v414q0 37 1 75.5t3 74.5q-15 -29 -30.5 -59t-32.5 -56l-113 -166h-121l-110 166q-16 23 -33 55t-33 60q2 -36 3 -74.5t1 -75.5v-414h-192v832h207l166 -266q15 -25 26.5 -47t24.5 -50q17 26 27.5 49t25.5 48l168 266h207v-832h-195zM326 698v678h-242v154h684
v-154h-242v-678h-200z" />
    <glyph glyph-name="Omega" unicode="&#x2126;" horiz-adv-x="1462" 
d="M803 0v395q140 34 207 137.5t67 268.5v129q0 110 -27 182t-73.5 114.5t-110 59.5t-135.5 17q-73 0 -136.5 -17t-110.5 -59.5t-74 -114.5t-27 -182v-129q0 -165 67 -268.5t207 -137.5v-395h-536v203h313v78q-90 34 -153 87t-102.5 122t-58 151.5t-18.5 175.5v129
q0 153 43.5 267t125 189t198 112.5t262.5 37.5q145 0 261 -37.5t197.5 -112.5t125 -189t43.5 -267v-129q0 -93 -18 -175.5t-58 -151.5t-103 -122t-153 -87v-78h315v-203h-538z" />
    <glyph glyph-name="estimated" unicode="&#x212e;" horiz-adv-x="1346" 
d="M1198 274q-43 -62 -93 -114.5t-113 -91t-143 -60.5t-183 -22q-135 0 -246 47.5t-189.5 128.5t-121.5 189t-43 229q0 122 42 230t120.5 189t191.5 128t254 47t253.5 -48t191 -129.5t120 -190t41.5 -228.5h-950v-396q71 -62 153 -95.5t183 -33.5q93 0 163 21t125 57t97 83
t79 99zM1014 979q-30 25 -68.5 48.5t-83 40.5t-92.5 27.5t-96 10.5q-100 0 -189 -32t-155 -95v-334h684v334z" />
    <glyph glyph-name="onethird" unicode="&#x2153;" horiz-adv-x="2169" 
d="M410 0l991 1524h244l-994 -1524h-241zM141 618v154l189 8v553l-191 -59v174l252 90h156v-758l188 -8v-154h-594zM2083 256q0 -75 -23 -127.5t-69.5 -85.5t-116.5 -48t-164 -15q-46 0 -94.5 3.5t-91 9t-75 12t-46.5 11.5v138q18 -2 50.5 -4.5t72.5 -4.5t83 -4t81 -2
q45 0 78.5 5t55.5 18.5t33 38t11 63.5v19q0 25 -4.5 45.5t-20 34.5t-45 22t-78.5 8h-268v150h270q48 0 77 8.5t44.5 23.5t20 35.5t4.5 44.5v13q0 31 -8.5 51.5t-28.5 32.5t-54.5 17t-86.5 5q-39 0 -80 -1.5t-78.5 -4t-71 -5t-57.5 -3.5v137q15 5 47.5 11.5t74.5 12t90.5 9.5
t94.5 4q90 0 159.5 -12.5t117 -42t72 -77.5t24.5 -118v-14q0 -29 -6 -58.5t-20 -56t-36 -49t-53 -37.5q32 -15 54 -36t35.5 -46.5t19.5 -54.5t6 -58v-18z" />
    <glyph glyph-name="twothirds" unicode="&#x2154;" horiz-adv-x="2306" 
d="M518 0l995 1524h244l-995 -1524h-244zM2175 256q0 -75 -23 -127.5t-69.5 -85.5t-116.5 -48t-164 -15q-46 0 -94.5 3.5t-91 9t-75 12t-46.5 11.5v138q18 -2 50.5 -4.5t72.5 -4.5t83 -4t81 -2q45 0 78.5 5t55.5 18.5t33 38t11 63.5v19q0 25 -4.5 45.5t-20 34.5t-45 22
t-78.5 8h-268v150h271q48 0 77 8.5t44 23.5t19.5 35.5t4.5 44.5v13q0 31 -8.5 51.5t-28.5 32.5t-54.5 17t-86.5 5q-39 0 -79.5 -1.5t-78.5 -4t-71 -5t-58 -3.5v137q15 5 47.5 11.5t74.5 12t90.5 9.5t94.5 4q90 0 159.5 -12.5t117 -42t72 -77.5t24.5 -118v-14q0 -29 -6 -58.5
t-20 -56t-36 -49t-53 -37.5q32 -15 54 -36t35.5 -46.5t19.5 -54.5t6 -58v-18zM113 618v113q0 84 15.5 144t50 107t90.5 84.5t137 76.5q62 30 98.5 51t55.5 39t24.5 35.5t5.5 40.5q0 47 -38.5 67.5t-133.5 20.5q-39 0 -82.5 -2t-84 -4.5t-73.5 -5t-51 -3.5v136q20 6 56 12
t80 11t92.5 8t93.5 3q183 0 270.5 -56t87.5 -181q0 -48 -13.5 -87t-45 -73.5t-82 -66.5t-123.5 -66q-71 -33 -113.5 -57.5t-65.5 -48.5t-30.5 -52.5t-7.5 -68.5v-11h465v-166h-678z" />
    <glyph glyph-name="oneeighth" unicode="&#x215b;" horiz-adv-x="2193" 
d="M410 0l991 1524h244l-994 -1524h-241zM2081 262q0 -96 -32 -152t-85.5 -85t-124 -37t-147.5 -8q-75 0 -144.5 8t-122.5 37t-84.5 85t-31.5 152v10q0 72 25.5 120t76.5 79q-48 32 -74 78.5t-26 118.5v12q0 81 31 130.5t84 77t123.5 37t148.5 9.5q76 0 145 -9.5t121 -37
t82.5 -77t30.5 -130.5v-12q0 -72 -26.5 -118.5t-74.5 -78.5q53 -31 79 -79t26 -120v-10zM1628 403q-63 0 -85.5 -31.5t-22.5 -105.5q0 -45 12.5 -72.5t35.5 -42.5t56 -19.5t74 -4.5q38 0 70 4.5t54.5 19.5t35 42.5t12.5 72.5q0 74 -23 105.5t-86 31.5h-133zM1761 545
q31 0 51.5 8t32.5 22.5t16.5 35.5t4.5 48q0 40 -12.5 65t-35 38.5t-54.5 18.5t-72 5q-38 0 -69 -5t-53.5 -18.5t-35 -38.5t-12.5 -65q0 -54 21.5 -84t84.5 -30h133zM141 618v154l189 8v553l-191 -59v174l252 90h156v-758l188 -8v-154h-594z" />
    <glyph glyph-name="threeeighths" unicode="&#x215c;" horiz-adv-x="2263" 
d="M463 0l993 1524h244l-993 -1524h-244zM799 874q0 -74 -23 -126.5t-69.5 -85.5t-116.5 -48.5t-164 -15.5q-46 0 -94.5 4t-91 9.5t-75 12t-46.5 11.5v137q18 -2 50.5 -4t72.5 -4.5t83 -4t81 -1.5q45 0 78.5 5t55.5 18.5t33 38t11 63.5v18q0 25 -4.5 46t-20 35t-45 22
t-78.5 8h-268v149h270q48 0 77 8.5t44.5 24t20 36t4.5 44.5v12q0 31 -8.5 51.5t-28.5 33t-54.5 17.5t-86.5 5q-39 0 -80 -2t-78.5 -4t-71 -5t-57.5 -4v138q15 5 47.5 11.5t74.5 12t90.5 9t94.5 3.5q90 0 159.5 -12.5t117 -41.5t72 -77t24.5 -118v-15q0 -29 -6 -58.5t-20 -56
t-36 -49t-53 -37.5q32 -14 54 -35.5t35.5 -47t19.5 -54t6 -57.5v-19zM2144 262q0 -96 -31.5 -152t-85 -85t-124 -37t-148.5 -8q-75 0 -144.5 8t-122.5 37t-84.5 85t-31.5 152v10q0 72 26 120t77 79q-48 32 -74.5 78.5t-26.5 118.5v12q0 81 31 130.5t84 77t123.5 37
t148.5 9.5q76 0 145 -9.5t121 -37t82.5 -77t30.5 -130.5v-12q0 -72 -26 -118.5t-74 -78.5q52 -31 78 -79t26 -120v-10zM1692 403q-63 0 -86 -31.5t-23 -105.5q0 -45 12.5 -72.5t36 -42.5t56 -19.5t73.5 -4.5q39 0 70.5 4.5t54 19.5t35 42.5t12.5 72.5q0 74 -22.5 105.5
t-85.5 31.5h-133zM1825 545q31 0 51.5 8t32 22.5t16 35.5t4.5 48q0 40 -12 65t-34.5 38.5t-55 18.5t-72.5 5q-38 0 -69 -5t-53.5 -18.5t-35 -38.5t-12.5 -65q0 -54 22 -84t85 -30h133z" />
    <glyph glyph-name="fiveeighths" unicode="&#x215d;" horiz-adv-x="2269" 
d="M467 0l993 1524h244l-993 -1524h-244zM2150 262q0 -96 -31.5 -152t-85 -85t-124 -37t-148.5 -8q-75 0 -144 8t-122.5 37t-85 85t-31.5 152v10q0 72 26 120t77 79q-48 32 -74.5 78.5t-26.5 118.5v12q0 81 31 130.5t84.5 77t123.5 37t148 9.5q76 0 145 -9.5t121 -37
t82.5 -77t30.5 -130.5v-12q0 -72 -26 -118.5t-74 -78.5q53 -31 78.5 -79t25.5 -120v-10zM1698 403q-63 0 -86 -31.5t-23 -105.5q0 -45 12.5 -72.5t36 -42.5t56 -19.5t73.5 -4.5q39 0 70.5 4.5t54 19.5t35 42.5t12.5 72.5q0 74 -22.5 105.5t-85.5 31.5h-133zM1831 545
q31 0 51.5 8t32 22.5t16 35.5t4.5 48q0 40 -12 65t-34.5 38.5t-55 18.5t-72.5 5q-38 0 -69 -5t-53.5 -18.5t-35 -38.5t-12.5 -65q0 -54 22 -84t85 -30h133zM805 893q0 -81 -26 -137t-75 -91t-120 -51t-160 -16q-52 0 -100.5 4t-89 9.5t-71.5 11.5t-48 10v141
q66 -6 135.5 -12t134.5 -6q56 0 94.5 7t62 22.5t34 41t10.5 62.5v22q0 35 -8.5 58t-30.5 36.5t-60 19t-96 5.5h-266l45 504h602v-162h-428l-20 -188h106q103 0 174.5 -15t116 -47.5t64.5 -84t20 -124.5v-20z" />
    <glyph glyph-name="seveneighths" unicode="&#x215e;" horiz-adv-x="2085" 
d="M283 0l993 1524h244l-994 -1524h-243zM1966 262q0 -96 -31.5 -152t-85 -85t-124 -37t-148.5 -8q-75 0 -144.5 8t-122.5 37t-84.5 85t-31.5 152v10q0 72 25.5 120t76.5 79q-48 32 -74 78.5t-26 118.5v12q0 81 31 130.5t84 77t123.5 37t148.5 9.5q76 0 145 -9.5t121 -37
t82.5 -77t30.5 -130.5v-12q0 -72 -26 -118.5t-74 -78.5q52 -31 78 -79t26 -120v-10zM1513 403q-62 0 -85 -31.5t-23 -105.5q0 -45 12.5 -72.5t36 -42.5t56 -19.5t73.5 -4.5q39 0 70.5 4.5t54 19.5t35 42.5t12.5 72.5q0 74 -22.5 105.5t-85.5 31.5h-134zM1647 545
q31 0 51.5 8t32 22.5t16 35.5t4.5 48q0 40 -12.5 65t-35 38.5t-54.5 18.5t-72 5q-38 0 -69 -5t-53.5 -18.5t-35 -38.5t-12.5 -65q0 -53 22 -83.5t84 -30.5h134zM160 618l438 754h-475v162h688v-180l-422 -736h-229z" />
    <glyph glyph-name="partialdiff" unicode="&#x2202;" horiz-adv-x="1321" 
d="M285 1577q71 17 146 26t151 9q160 0 277 -48.5t193.5 -137.5t113 -214.5t36.5 -279.5q0 -105 -11.5 -219t-33.5 -213q-28 -141 -76.5 -241t-119.5 -164t-166.5 -94t-216.5 -30q-114 0 -199.5 28.5t-143 82.5t-86 132t-28.5 177q0 47 2 94t10 90q17 121 62.5 210
t117 147.5t167.5 86.5t214 28q46 0 84.5 -7t69.5 -17.5t54.5 -23t39.5 -24.5q0 25 -0.5 57.5t-3.5 57.5q-8 66 -30 125.5t-66 104t-115 71t-176 26.5q-63 0 -134 -6.5t-141 -21.5zM604 201q67 0 117 18.5t85.5 57.5t57.5 99t33 142q6 37 8 67.5t2 49.5q0 91 -50.5 137.5
t-166.5 46.5q-133 0 -204.5 -71t-88.5 -213q-5 -39 -7.5 -77.5t-2.5 -70.5q0 -98 51 -142t166 -44z" />
    <glyph glyph-name="Delta" unicode="&#x2206;" horiz-adv-x="1511" 
d="M78 0l463 1522h428l467 -1522h-1358zM819 1081q-20 63 -33.5 128t-27.5 124h-4q-14 -57 -28 -123t-34 -129l-260 -852h647z" />
    <glyph glyph-name="product" unicode="&#x220f;" horiz-adv-x="1548" 
d="M1014 -141v1407h-482v-1407h-276v1409h-176v254h1384v-254h-174v-1409h-276z" />
    <glyph glyph-name="summation" unicode="&#x2211;" horiz-adv-x="1262" 
d="M147 -141v239l439 584l-439 600v240h969v-240h-647l391 -539v-129l-391 -516h647v-239h-969z" />
    <glyph glyph-name="minus" unicode="&#x2212;" horiz-adv-x="1411" 
d="M201 682v225h1007v-225h-1007z" />
    <glyph glyph-name="uni2215" unicode="&#x2215;" horiz-adv-x="993" 
d="M-121 0l993 1524h242l-991 -1524h-244z" />
    <glyph glyph-name="uni2219" unicode="&#x2219;" horiz-adv-x="567" 
d="M152 596v317h262v-317h-262z" />
    <glyph glyph-name="radical" unicode="&#x221a;" horiz-adv-x="1673" 
d="M645 -152l-297 930h-250v240h420l281 -899q132 419 266 836.5t266 836.5h246l-623 -1944h-309z" />
    <glyph glyph-name="infinity" unicode="&#x221e;" horiz-adv-x="1544" 
d="M987 260q-72 0 -127.5 27.5t-101.5 77.5q-34 -48 -86 -78.5t-121 -30.5h-14q-75 0 -128 25t-88.5 66t-55.5 93.5t-30.5 106.5t-13 105.5t-2.5 90.5v50q0 37 2.5 87.5t13 104.5t30.5 106.5t55.5 94t88.5 67t128 25.5h14q71 0 125.5 -29.5t97.5 -79.5q37 57 88 84t125 27
h14q74 0 126.5 -25t87 -66t54.5 -93t30.5 -106t13 -105.5t2.5 -91.5v-48q0 -38 -2.5 -88.5t-13 -104.5t-30.5 -106.5t-54.5 -93.5t-87 -66.5t-126.5 -25.5h-14zM997 446q46 0 71.5 26.5t38 69t15 96t2.5 107.5v48q0 56 -2.5 109.5t-14.5 95t-37.5 67t-70.5 25.5h-12
q-34 -1 -54.5 -21.5t-34 -61.5t-21.5 -102.5t-17 -144.5q-8 -62 -14.5 -113t-16.5 -106q34 -50 73.5 -72.5t82.5 -22.5h12zM551 449q31 0 51 19t34 58t23.5 99.5t18.5 144.5q6 59 13.5 110t17.5 111q-32 48 -72.5 74.5t-83.5 26.5h-12q-47 0 -73.5 -27.5t-39 -70.5
t-15.5 -96.5t-3 -104.5v-50q0 -54 2.5 -106.5t15 -94t38.5 -67.5t73 -26h12z" />
    <glyph glyph-name="integral" unicode="&#x222b;" horiz-adv-x="1102" 
d="M117 -211q15 -2 37 -3t46.5 -2.5t50 -2t48.5 -0.5q41 0 64.5 7t35 24t14.5 45.5t3 72.5v1311q0 78 12.5 141.5t47 108.5t96.5 69.5t161 24.5q39 0 77 -3t71 -7.5t59.5 -10t44.5 -10.5v-172q-15 1 -37 2t-46.5 2t-50 2t-48.5 1q-41 0 -64.5 -6.5t-35 -23.5t-14.5 -46
t-3 -74v-1311q0 -78 -12.5 -141.5t-47 -108.5t-96.5 -69.5t-161 -24.5q-39 0 -77 3t-71 8t-59.5 10t-44.5 10v174z" />
    <glyph glyph-name="approxequal" unicode="&#x2248;" horiz-adv-x="1411" 
d="M1204 1184q0 -158 -63 -234t-193 -76q-68 0 -124.5 15t-114.5 55l-113 76q-38 26 -67 39.5t-58 13.5q-46 0 -59 -30.5t-13 -88.5v-63h-192v63q0 158 66 234t194 76q29 0 55 -5.5t51.5 -15.5t52 -25t56.5 -34l119 -76q40 -26 70.5 -34.5t68.5 -8.5q23 0 37 7.5t22 22.5
t10.5 37.5t2.5 51.5v63h192v-63zM1204 649q0 -159 -63 -235t-193 -76q-68 0 -124 15.5t-115 56.5l-113 73q-40 26 -67 40t-58 14q-46 0 -59 -30.5t-13 -88.5v-64h-192v64q0 158 66 233.5t194 75.5q57 0 106.5 -20.5t108.5 -57.5l119 -76q20 -13 37 -21.5t33.5 -14t33 -7.5
t35.5 -2q46 0 59 30.5t13 90.5v64h192v-64z" />
    <glyph glyph-name="notequal" unicode="&#x2260;" horiz-adv-x="1411" 
d="M707 422l-160 -428h-246l162 428h-240v225h312l104 291h-416v227h486l137 363h244l-138 -363h242v-227h-313l-101 -291h414v-225h-487z" />
    <glyph glyph-name="lessequal" unicode="&#x2264;" horiz-adv-x="1411" 
d="M186 0v195h1039v-195h-1039zM797 324l-584 501l584 502h321l-581 -502l581 -501h-321z" />
    <glyph glyph-name="greaterequal" unicode="&#x2265;" horiz-adv-x="1411" 
d="M184 0v195h1037v-195h-1037zM612 324h-321l581 501l-581 502h321l584 -502z" />
    <glyph glyph-name="lozenge" unicode="&#x25ca;" horiz-adv-x="1432" 
d="M182 739l535 647l532 -645l-536 -639zM1012 741l-295 342l-297 -344l293 -338z" />
    <glyph glyph-name="percent.oldstyle" unicode="&#xfe6a;" horiz-adv-x="1874" 
d="M1753 338q0 -172 -75.5 -266.5t-235.5 -94.5q-161 0 -236.5 94.5t-75.5 266.5v18q0 174 75.5 267.5t236.5 93.5q160 0 235.5 -93.5t75.5 -267.5v-18zM1556 356q0 61 -8 100t-23 62t-36 32t-47 9q-27 0 -48.5 -9t-36 -32t-22.5 -62t-8 -100v-18q0 -61 8 -100t22.5 -61.5
t36 -31t48.5 -8.5q26 0 47 8.5t36 31t23 61.5t8 100v18zM436 0l793 1208h215l-791 -1208h-217zM743 850q0 -172 -75.5 -265t-235.5 -93t-235.5 93t-75.5 265v18q0 175 75.5 269t235.5 94t235.5 -94t75.5 -269v-18zM547 868q0 61 -8 100t-22.5 62t-36 32t-48.5 9
q-26 0 -47 -9t-35.5 -32t-22.5 -62t-8 -100v-18q0 -60 8 -98.5t22.5 -61t35.5 -31t47 -8.5q27 0 48.5 8.5t36 31t22.5 61t8 98.5v18z" />
    <glyph glyph-name="dollar.oldstyle" horiz-adv-x="1122" 
d="M449 -229v204q-47 3 -93 7t-86.5 9t-74.5 11t-56 12v201q56 -2 154 -7t231 -5q110 0 158.5 32.5t48.5 98.5q0 27 -7 47.5t-26 39t-52 36.5t-85 41l-168 71q-69 31 -122 65t-89 77.5t-54.5 100t-18.5 132.5q0 288 340 334v201h229v-193q48 -3 93.5 -8t85 -11t71.5 -12.5
t53 -11.5v-201q-33 3 -78.5 6.5t-97 6.5t-106 5.5t-105.5 2.5q-48 0 -87 -5t-66 -17.5t-41.5 -33.5t-14.5 -53q0 -24 6 -44t22.5 -38t46 -36t77.5 -37l165 -70q81 -35 139.5 -70t96.5 -79t56 -100.5t18 -133.5q0 -152 -84.5 -244t-249.5 -116v-215h-229z" />
    <glyph glyph-name="dollar.superior" horiz-adv-x="874" 
d="M348 516v160q-71 2 -132.5 10t-98.5 16v156q45 -3 121.5 -8.5t169.5 -5.5q88 0 123.5 25t35.5 71q0 35 -25.5 59t-90.5 50l-138 53q-50 19 -90.5 43t-69 56t-44 74t-15.5 97q0 109 63 169t191 77v160h189v-154q36 -2 70 -5.5t62.5 -7.5t51 -8.5t35.5 -7.5v-155
q-37 3 -77.5 6t-79 6t-73.5 4.5t-61 1.5q-74 0 -117 -18.5t-43 -63.5q0 -18 5.5 -32.5t18.5 -27t35 -23.5t54 -21l137 -47q110 -38 169.5 -102t59.5 -169q0 -115 -65 -184t-182 -88v-166h-189z" />
    <glyph glyph-name="zero.oldstyle" horiz-adv-x="1376" 
d="M1266 559q0 -289 -147 -439.5t-431 -150.5t-430.5 149.5t-146.5 440.5v80q0 291 146.5 440.5t430.5 149.5t431 -150.5t147 -439.5v-80zM981 639q0 99 -21.5 166.5t-60.5 108.5t-93 59t-118 18q-65 0 -118.5 -18t-91.5 -59t-59.5 -108.5t-21.5 -166.5v-80q0 -98 21.5 -165
t59.5 -108t91.5 -59t118.5 -18q64 0 118 18t93 59t60.5 108t21.5 165v80z" />
    <glyph glyph-name="one.oldstyle" horiz-adv-x="1122" 
d="M98 0v223l328 15v686l-330 -109v252l406 145h207v-974l315 -15v-223h-926z" />
    <glyph glyph-name="two.oldstyle" horiz-adv-x="1270" 
d="M115 0v240l364 217q126 74 203.5 129.5t120 100.5t57 84.5t14.5 82.5q0 40 -16.5 68t-53.5 45.5t-96.5 25.5t-144.5 8q-44 0 -100 -2.5t-114.5 -7t-114.5 -9.5t-99 -9v201q42 11 100 21t121 17.5t127 12t119 4.5q157 0 264.5 -22.5t173.5 -67t94.5 -110t28.5 -152.5
q0 -79 -22 -142.5t-76 -124t-144.5 -124t-226.5 -142.5l-176 -104h629v-240h-1032z" />
    <glyph glyph-name="three.oldstyle" horiz-adv-x="1278" 
d="M1133 94q0 -125 -36.5 -210.5t-108.5 -138t-178.5 -76t-246.5 -23.5q-69 0 -139.5 6.5t-132.5 16t-111.5 20t-77.5 18.5v199q33 -4 83 -9t109 -9.5t123 -7.5t126 -3q77 0 134 8.5t95 33.5t57 69.5t19 115.5v41q0 45 -8 83t-33 65t-72.5 42t-126.5 15h-428v215h428
q79 0 126.5 16t72.5 44.5t33 67t8 83.5v23q0 58 -14.5 96.5t-49.5 61t-94 31.5t-149 9q-121 0 -234.5 -7.5t-200.5 -16.5v198q19 7 67 17t112 19t136.5 15.5t141.5 6.5q140 0 246.5 -20.5t178.5 -68.5t108.5 -127t36.5 -196v-24q0 -51 -10 -100t-31.5 -92t-56.5 -79t-85 -61
q51 -26 85.5 -61t56.5 -77t31.5 -89.5t9.5 -96.5v-43z" />
    <glyph glyph-name="four.oldstyle" horiz-adv-x="1401" 
d="M795 -319v366h-709v238l725 917h270v-930h215v-225h-215v-366h-286zM805 856l-473 -584h473v584z" />
    <glyph glyph-name="five.oldstyle" horiz-adv-x="1255" 
d="M1145 102q0 -130 -39 -220t-114 -146.5t-183.5 -81.5t-247.5 -25q-78 0 -151.5 6.5t-134.5 15.5t-106.5 18.5t-68.5 15.5v204q34 -3 81 -8t102.5 -10t116 -8.5t120.5 -3.5q94 0 158.5 12t105 39.5t58.5 74t18 115.5v47q0 63 -14.5 106t-52 70t-102.5 38.5t-167 11.5h-401
l67 811h904v-236h-670l-33 -352h176q159 0 269 -25.5t179 -80t99.5 -139t30.5 -201.5v-48z" />
    <glyph glyph-name="six.oldstyle" horiz-adv-x="1352" 
d="M1239 463q0 -99 -24 -174.5t-65 -130.5t-95.5 -92t-116 -59t-126.5 -31t-126 -9q-129 0 -235.5 28.5t-182 99.5t-117.5 191t-42 302v360q1 144 28.5 256t95.5 189.5t183 118t291 40.5q73 0 145 -6t133.5 -14t109.5 -17.5t74 -15.5v-205q-42 5 -93 10t-108 8.5t-117 6
t-120 2.5q-116 0 -183 -22.5t-101.5 -66t-44 -106t-9.5 -143.5v-59q32 8 72.5 15t83 12t84 7.5t74.5 2.5q71 0 138.5 -6.5t126.5 -24t108 -47.5t84.5 -77t55 -113.5t19.5 -155.5v-74zM956 528q0 73 -18 118t-52.5 70t-85.5 33.5t-118 8.5q-26 0 -60 -1.5t-71.5 -4.5
t-78 -8.5t-79.5 -14.5v-184q0 -107 20 -176t58 -108.5t92.5 -55t124.5 -15.5q56 0 105 15.5t85 48.5t57 85t21 124v65z" />
    <glyph glyph-name="seven.oldstyle" horiz-adv-x="1243" 
d="M184 -317l699 1286h-787v235h1063v-264l-667 -1257h-308z" />
    <glyph glyph-name="eight.oldstyle" horiz-adv-x="1403" 
d="M1284 436q0 -108 -22.5 -184.5t-62 -129t-94 -83t-119 -47t-136 -21t-145.5 -4.5h-9q-74 0 -146 4.5t-136 21t-118.5 47t-94 83t-62 129t-22.5 184.5v17q0 122 41.5 201t124.5 132q-74 48 -118 125t-44 197v20q0 89 21.5 155t60.5 113.5t92.5 77.5t117.5 47.5t136 24
t147 6.5h9q75 0 147 -6.5t135.5 -24t117 -47.5t92 -77.5t60 -113.5t21.5 -155v-20q0 -120 -43 -197t-117 -125q83 -53 124.5 -132t41.5 -201v-17zM1001 455q0 60 -9.5 103t-31 71t-57.5 41.5t-90 13.5h-225q-55 0 -91.5 -13.5t-58 -41.5t-30.5 -71t-9 -103v-15
q0 -84 21.5 -134.5t60.5 -77.5t93.5 -35.5t121.5 -8.5h9q67 0 121.5 8.5t93.5 35.5t60 77.5t21 134.5v15zM997 1122q0 66 -21.5 107t-60 64.5t-92.5 31.5t-118 8h-9q-65 0 -119.5 -8t-93.5 -31.5t-60.5 -64.5t-21.5 -107v-20q0 -49 8.5 -88t30 -66t57.5 -41t91 -14h225
q54 0 89.5 14t56.5 41t29.5 66t8.5 88v20z" />
    <glyph glyph-name="nine.oldstyle" horiz-adv-x="1352" 
d="M940 272q-32 -8 -72.5 -15t-83 -11.5t-83.5 -7t-74 -2.5q-72 0 -139.5 6.5t-127 24t-109 48t-85 77.5t-55 113.5t-19.5 156.5v71q0 99 24 174t65 130t95.5 92t116 59t126 31.5t126.5 9.5q130 0 236.5 -28t182.5 -98t117.5 -189t41.5 -300v-362q0 -143 -27 -255.5
t-95 -190.5t-183 -119t-291 -41q-74 0 -146 5.5t-133.5 14t-109.5 17t-74 14.5v205q37 -4 88 -9t109 -9t120.5 -6.5t124.5 -2.5q114 0 180.5 23t100.5 66.5t43.5 106t9.5 142.5v59zM940 651q0 107 -20 176t-58 108.5t-92.5 55t-124.5 15.5q-56 0 -105 -15.5t-86 -48.5
t-58 -85t-21 -124v-65q0 -73 18 -118t53 -70t86.5 -33.5t118.5 -8.5q26 0 60 1.5t72 5.5t78 9.5t79 14.5v182z" />
    <glyph glyph-name="comma.superior" horiz-adv-x="520" 
d="M96 567l111 318h205l-150 -318h-166z" />
    <glyph glyph-name="period.superior" horiz-adv-x="430" 
d="M115 688v197h200v-197h-200z" />
    <glyph glyph-name="a.superior" horiz-adv-x="852" 
d="M543 627v49q-17 -12 -41 -23.5t-54 -21t-65.5 -15.5t-75.5 -6q-103 0 -161 49t-58 152v25q0 73 27 115.5t75 63.5t113.5 26.5t142.5 5.5h80v38q0 35 -5 56.5t-20 33.5t-43 16.5t-75 4.5q-26 0 -57 -0.5t-63 -2t-63.5 -3t-56.5 -2.5v119q13 5 40.5 12.5t65 14t82 11.5
t91.5 5q88 0 147.5 -15t95.5 -47t51 -82.5t15 -122.5v-456h-188zM535 940h-86q-43 0 -74 -3t-51 -13t-29.5 -29.5t-9.5 -52.5v-23q0 -47 27 -62.5t67 -15.5q24 0 48 4t45 10t37.5 12t25.5 11v162z" />
    <glyph glyph-name="b.superior" horiz-adv-x="889" 
d="M805 952q0 -94 -24 -159t-70 -105.5t-114.5 -59t-156.5 -18.5q-38 0 -73 1t-72 3t-79 6.5t-95 10.5v964h205v-270q35 16 77 22.5t82 6.5q164 0 242 -80t78 -250v-72zM600 1024q0 48 -7 80.5t-23.5 52t-43 27.5t-65.5 8q-11 0 -28 -1t-36 -3.5t-38.5 -7.5t-34.5 -13v-391
q18 -3 49.5 -4.5t68.5 -1.5q42 0 71.5 8.5t49 29.5t28.5 56t9 88v72z" />
    <glyph glyph-name="cent.superior" horiz-adv-x="809" 
d="M362 516v170q-62 14 -112 45t-85 82t-54 123t-19 168v90q0 180 66.5 285t203.5 133v160h183v-148q50 -3 98 -9.5t74 -12.5v-172q-50 5 -105 7.5t-100 2.5q-58 0 -96.5 -13t-62 -42.5t-33 -76.5t-9.5 -114v-90q0 -66 8.5 -112.5t31 -76.5t61.5 -43.5t100 -13.5
q56 0 112 3.5t93 6.5v-172q-13 -4 -32 -7.5t-42 -6.5t-48 -5t-50 -3v-158h-183z" />
    <glyph glyph-name="d.superior" horiz-adv-x="889" 
d="M580 627v39q-38 -23 -91.5 -40.5t-119.5 -17.5t-119 20t-89.5 61t-56.5 103.5t-20 147.5v74q0 94 23.5 158.5t67 104t105 56.5t136.5 17q43 0 78 -4t69 -9v254h205v-964h-188zM567 1178q-34 6 -69 9t-58 3q-37 0 -65 -6.5t-47 -25.5t-29 -53.5t-10 -90.5v-74
q0 -47 7.5 -79.5t24.5 -53t44 -30t65 -9.5q37 0 72.5 8t64.5 21v381z" />
    <glyph glyph-name="e.superior" horiz-adv-x="868" 
d="M750 637q-21 -5 -53 -10t-70.5 -9t-82.5 -7t-89 -3q-111 0 -183 25.5t-114 70.5t-58 107t-16 135v60q0 87 24 152t69 107.5t110 63.5t147 21q99 0 166 -29t108 -78t58.5 -113.5t17.5 -134.5v-73h-497q0 -35 4.5 -65t22.5 -52t55.5 -34.5t103.5 -12.5t140 4.5t137 13.5
v-139zM582 1047q0 28 -4.5 56t-20 50t-44.5 35.5t-77 13.5t-77 -14t-45 -37.5t-21 -53.5t-6 -61h295v11z" />
    <glyph glyph-name="l.superior" horiz-adv-x="446" 
d="M121 627v964h205v-964h-205z" />
    <glyph glyph-name="m.superior" horiz-adv-x="1303" 
d="M975 627v450q0 27 -1.5 48.5t-9 36t-25 22.5t-48.5 8t-68.5 -10t-72.5 -29q3 -20 3.5 -39.5t0.5 -36.5v-450h-205v450q0 27 -1.5 48.5t-9 36t-23.5 22.5t-46 8q-37 0 -75.5 -13.5t-67.5 -27.5v-524h-205v704h192v-59q48 35 105.5 56.5t122.5 21.5q69 0 109 -21.5
t65 -58.5q65 43 124.5 61.5t110.5 18.5q78 0 124 -22t70 -59t31 -86t7 -102v-454h-207z" />
    <glyph glyph-name="o.superior" horiz-adv-x="870" 
d="M786 944q0 -87 -23.5 -150t-68.5 -104.5t-110.5 -61.5t-149.5 -20q-167 0 -258.5 81.5t-91.5 254.5v70q0 173 91.5 254.5t258.5 81.5q84 0 149.5 -20t110.5 -61.5t68.5 -104.5t23.5 -150v-70zM582 1014q0 95 -35.5 135.5t-112.5 40.5q-78 0 -112.5 -40.5t-34.5 -135.5
v-70q0 -95 34.5 -135.5t112.5 -40.5q77 0 112.5 40.5t35.5 135.5v70z" />
    <glyph glyph-name="r.superior" horiz-adv-x="639" 
d="M121 627v704h190v-59q54 46 119 62t131 16v-176q-65 0 -128.5 -11t-106.5 -26v-510h-205z" />
    <glyph glyph-name="s.superior" horiz-adv-x="770" 
d="M100 762q19 -2 48 -4t62.5 -4.5t70.5 -4t73 -1.5q37 0 61 4t38.5 12.5t20 21t5.5 29.5q0 15 -4.5 27t-17.5 22t-36.5 20.5t-60.5 22.5l-57 19q-106 34 -160.5 84.5t-54.5 138.5q0 58 20.5 97t58.5 62t93.5 32.5t126.5 9.5q40 0 81 -2.5t77 -6.5t65 -9.5t45 -10.5v-121
q-21 1 -52 2.5t-65.5 3t-68.5 3t-61 1.5q-63 0 -90 -10.5t-27 -44.5q0 -14 4.5 -24t16 -19t31 -17.5t50.5 -19.5l64 -22q62 -23 105 -45t69.5 -48.5t38.5 -59.5t12 -77q0 -52 -17.5 -92.5t-56 -68t-98.5 -42t-145 -14.5q-39 0 -80 3.5t-77 8t-64.5 9.5t-43.5 8v127z" />
    <glyph glyph-name="t.superior" horiz-adv-x="678" 
d="M596 629q-7 -2 -22.5 -5.5t-37 -7t-47.5 -6t-53 -2.5q-58 0 -99 12t-67.5 38.5t-38.5 68t-12 100.5v359l-137 12v133h137v174h205v-174h172v-145h-172v-357q0 -24 1.5 -39.5t8 -24.5t19 -12t34.5 -3q28 0 60.5 1t48.5 3v-125z" />
    <glyph glyph-name="hyphen.superior" horiz-adv-x="520" 
d="M106 1020v160h306v-160h-306z" />
    <glyph glyph-name="cent.oldstyle" horiz-adv-x="1102" 
d="M510 -236v222q-199 37 -293 170t-94 366v160q0 230 95 363.5t292 171.5v210h227v-200q33 -2 67.5 -5t66.5 -7t60 -9t48 -10v-209q-75 5 -145.5 7.5t-145.5 2.5t-129.5 -15t-89.5 -51.5t-51.5 -97t-16.5 -151.5v-160q0 -90 16.5 -150.5t51.5 -97t89.5 -52t129.5 -15.5
q79 0 154 3t137 9v-211q-20 -5 -48 -10t-60 -9t-66.5 -7t-67.5 -5v-213h-227z" />
    <glyph glyph-name="hyphen.inferior" horiz-adv-x="520" 
d="M106 4v160h306v-160h-306z" />
    <glyph glyph-name="cent.inferior" horiz-adv-x="809" 
d="M362 -600v170q-62 14 -112 45t-85 82t-54 123t-19 168v90q0 179 66.5 284.5t203.5 133.5v159h183v-147q50 -3 98 -9.5t74 -13.5v-172q-50 5 -105 8t-100 3q-58 0 -96.5 -13t-62 -42.5t-33 -76.5t-9.5 -114v-90q0 -66 8.5 -112.5t31 -76.5t61.5 -43.5t100 -13.5
q56 0 112 3.5t93 6.5v-172q-13 -4 -32 -7.5t-42 -6.5t-48 -5t-50 -3v-158h-183z" />
    <glyph glyph-name="dollar.inferior" horiz-adv-x="874" 
d="M348 -600v160q-71 2 -132.5 10t-98.5 16v156q45 -3 121.5 -8.5t169.5 -5.5q88 0 123.5 24.5t35.5 71.5q0 35 -26 58.5t-90 49.5l-138 54q-50 19 -90.5 43t-69 56t-44 74t-15.5 97q0 212 254 246v160h189v-154q36 -2 70 -6t62.5 -8t51 -8t35.5 -7v-155q-37 3 -77.5 6
t-79 6t-73.5 4.5t-61 1.5q-74 0 -117 -18.5t-43 -63.5q0 -18 5.5 -32.5t18.5 -27t35 -23.5t54 -21l137 -47q110 -39 169.5 -103t59.5 -168q0 -115 -65 -184.5t-182 -87.5v-166h-189z" />
    <glyph glyph-name="period.inferior" horiz-adv-x="430" 
d="M115 -328v197h200v-197h-200z" />
    <glyph glyph-name="comma.inferior" horiz-adv-x="520" 
d="M96 -449l111 318h205l-150 -318h-166z" />
    <glyph glyph-name="commaaccent" horiz-adv-x="1051" 
d="M272 -422l138 289h290l-188 -289h-240z" />
    <glyph glyph-name="Dotaccent" horiz-adv-x="905" 
d="M315 1679v256h275v-256h-275z" />
    <glyph glyph-name="Breve" horiz-adv-x="993" 
d="M883 1948q-16 -161 -116 -242.5t-271 -81.5q-172 0 -271 81.5t-114 242.5h174q5 -49 22 -82t44 -53t63.5 -28.5t81.5 -8.5q46 0 82.5 8.5t63.5 28.5t44.5 53t24.5 82h172z" />
    <glyph glyph-name="Ogonek" horiz-adv-x="938" 
d="M745 -416q-26 -8 -86 -18t-139 -10q-139 0 -211.5 51.5t-72.5 150.5q0 39 15.5 73t49 67t86 65.5t125.5 67.5h242q-100 -51 -157.5 -87.5t-87 -62.5t-37 -45t-7.5 -37q0 -38 25.5 -59t91.5 -21q40 0 80.5 4t82.5 7v-146z" />
    <glyph glyph-name="Cedilla" horiz-adv-x="932" 
d="M133 -422l225 289h306l-273 -289h-258z" />
    <glyph glyph-name="Ring" horiz-adv-x="924" 
d="M465 1587q-57 0 -106 14.5t-85 44.5t-56.5 75t-20.5 106q0 60 20.5 105t56.5 74.5t85 44.5t106 15q56 0 104 -15t83 -44.5t55 -74.5t20 -105q0 -61 -20 -106t-55 -75t-83 -44.5t-104 -14.5zM465 1931q-50 0 -82.5 -23.5t-32.5 -80.5q0 -56 32 -80.5t83 -24.5
q47 0 80 24.5t33 80.5q0 28 -9 48t-24 32.5t-35.5 18t-44.5 5.5z" />
    <glyph glyph-name="Tilde" horiz-adv-x="995" 
d="M938 1892q0 -140 -55 -206t-164 -66q-53 0 -103.5 16t-109.5 54l-90 59q-34 23 -59 35t-54 12q-41 0 -54 -27.5t-13 -80.5v-58h-168v58q0 140 59 207t168 67q28 0 52 -3.5t47.5 -11.5t48 -21t53.5 -32l92 -59q32 -22 60 -35.5t59 -13.5q41 0 54 26.5t13 79.5v58h164v-58z
" />
    <glyph glyph-name="Circumflex" horiz-adv-x="1026" 
d="M709 1628l-197 187l-195 -187h-247l276 305h334l276 -305h-247z" />
    <glyph glyph-name="Acute" horiz-adv-x="965" 
d="M520 1628h-260l270 305h314z" />
    <glyph glyph-name="Caron" horiz-adv-x="1026" 
d="M346 1628l-276 305h247l195 -188l197 188h247l-276 -305h-334z" />
    <glyph glyph-name="Dieresis" horiz-adv-x="989" 
d="M629 1667v254h227v-254h-227zM133 1667v254h229v-254h-229z" />
    <glyph glyph-name="Grave" horiz-adv-x="965" 
d="M426 1628l-324 305h314l268 -305h-258z" />
    <glyph glyph-name="Hungarumlaut" horiz-adv-x="1104" 
d="M416 1624h-246l268 305h303zM911 1624h-247l270 305h301z" />
    <glyph glyph-name="Macron" horiz-adv-x="983" 
d="M106 1686v182h771v-182h-771z" />
    <glyph glyph-name="commaaccent.cap" horiz-adv-x="1051" 
d="M272 -422l138 289h290l-188 -289h-240z" />
    <glyph glyph-name="h.superior" horiz-adv-x="928" 
d="M600 627v436q0 37 -6 62t-19 39t-33.5 20t-49.5 6q-50 0 -95 -12t-71 -23v-528h-205v964h205v-293q42 20 102.5 36t126.5 16q73 0 121.5 -20t77.5 -56.5t41 -89.5t12 -119v-438h-207z" />
    <glyph glyph-name="zero.slash" horiz-adv-x="1376" 
d="M1268 647q0 -332 -146.5 -506t-433.5 -174q-106 0 -192 24t-154 70l-41 -61h-272l161 238q-42 80 -61.5 182t-19.5 227v225q0 332 146 506t433 174q206 0 338 -90l41 60h268l-155 -230q43 -81 65.5 -186.5t22.5 -233.5v-225zM981 872q0 66 -6 119l-483 -710
q38 -42 87.5 -58t108.5 -16q65 0 119 20.5t92.5 71t60 135.5t21.5 213v225zM879 1245q-38 37 -86 52.5t-105 15.5q-65 0 -118.5 -21t-92.5 -71.5t-60.5 -135.5t-21.5 -213v-225q0 -29 0.5 -54.5t3.5 -49.5z" />
    <glyph glyph-name="perthousand.oldstyle" horiz-adv-x="2605" 
d="M2484 338q0 -172 -75.5 -266.5t-233.5 -94.5q-81 0 -140.5 24t-97.5 70.5t-56.5 113.5t-18.5 153v18q0 174 75 267.5t238 93.5q158 0 233.5 -93.5t75.5 -267.5v-18zM2288 356q0 61 -8 100t-22.5 62t-35.5 32t-47 9q-28 0 -49.5 -9t-36 -32t-22 -62t-7.5 -100v-18
q0 -61 7.5 -100t22 -61.5t36 -31t49.5 -8.5q26 0 47 8.5t35.5 31t22.5 61.5t8 100v18zM1753 338q0 -172 -75.5 -266.5t-235.5 -94.5q-161 0 -236.5 94.5t-75.5 266.5v18q0 174 75.5 267.5t236.5 93.5q160 0 235.5 -93.5t75.5 -267.5v-18zM1556 356q0 61 -8 100t-23 62
t-36 32t-47 9q-27 0 -48.5 -9t-36 -32t-22.5 -62t-8 -100v-18q0 -61 8 -100t22.5 -61.5t36 -31t48.5 -8.5q26 0 47 8.5t36 31t23 61.5t8 100v18zM436 0l793 1208h215l-791 -1208h-217zM743 850q0 -172 -75.5 -265t-235.5 -93t-235.5 93t-75.5 265v18q0 175 75.5 269
t235.5 94t235.5 -94t75.5 -269v-18zM547 868q0 61 -8 100t-22.5 62t-36 32t-48.5 9q-26 0 -47 -9t-35.5 -32t-22.5 -62t-8 -100v-18q0 -60 8 -98.5t22.5 -61t35.5 -31t47 -8.5q27 0 48.5 8.5t36 31t22.5 61t8 98.5v18z" />
    <glyph glyph-name="zero.taboldstyle" horiz-adv-x="1407" 
d="M1280 559q0 -289 -147.5 -439.5t-430.5 -150.5q-284 0 -430.5 150.5t-146.5 439.5v80q0 289 146.5 439.5t430.5 150.5q283 0 430.5 -150.5t147.5 -439.5v-80zM993 639q0 99 -21 166.5t-59 108.5t-91.5 59t-119.5 18q-65 0 -118 -18t-91.5 -59t-59.5 -108.5t-21 -166.5
v-80q0 -98 21 -165t59.5 -108t91.5 -59t118 -18q66 0 119.5 18t91.5 59t59 108t21 165v80z" />
    <glyph glyph-name="one.taboldstyle" horiz-adv-x="1407" 
d="M233 0v225l332 13v688l-334 -107v248l412 145h209v-974l322 -13v-225h-941z" />
    <glyph glyph-name="two.taboldstyle" horiz-adv-x="1407" 
d="M180 0v240l363 217q126 74 203.5 129.5t120 100.5t57 84.5t14.5 82.5q0 40 -16.5 68t-53.5 45.5t-96.5 25.5t-144.5 8q-44 0 -100.5 -2.5t-115 -7t-114 -9.5t-98.5 -9v201q42 11 99.5 21t121 17.5t127.5 12t119 4.5q157 0 264.5 -22.5t173.5 -67t94.5 -110t28.5 -152.5
q0 -79 -22.5 -142.5t-76.5 -124t-144 -124t-226 -142.5l-176 -104h628v-240h-1030z" />
    <glyph glyph-name="three.taboldstyle" horiz-adv-x="1407" 
d="M1219 94q0 -125 -37 -210.5t-109 -138t-178.5 -76t-245.5 -23.5q-69 0 -139.5 6.5t-133 16t-112 20t-76.5 18.5v199q33 -4 83 -9t109 -9.5t123 -7.5t126 -3q77 0 134 8.5t95 33.5t57 69.5t19 115.5v41q0 45 -8 83t-33.5 65t-73 42t-127.5 15h-426v215h428q79 0 126.5 16
t72.5 44.5t33 67t8 83.5v23q0 58 -14.5 96.5t-50 61t-94.5 31.5t-148 9q-121 0 -234.5 -7.5t-199.5 -16.5v198q18 7 65.5 17t111 19t136.5 15.5t143 6.5q139 0 245.5 -20.5t178.5 -68.5t109 -127t37 -196v-24q0 -51 -10 -100t-32 -92t-57 -79t-84 -61q51 -26 85.5 -61
t56.5 -77t31.5 -89.5t9.5 -96.5v-43z" />
    <glyph glyph-name="four.taboldstyle" horiz-adv-x="1407" 
d="M805 -319v366h-709v238l725 917h271v-930h215v-225h-215v-366h-287zM815 856l-473 -584h473v584z" />
    <glyph glyph-name="five.taboldstyle" horiz-adv-x="1407" 
d="M1227 121q0 -129 -39.5 -219t-114.5 -146.5t-183.5 -82t-246.5 -25.5q-78 0 -151.5 6.5t-134.5 15.5t-107 18.5t-70 16.5v205q34 -4 81.5 -9.5t103 -11t116.5 -9t121 -3.5q94 0 158.5 12t104.5 40.5t57.5 75t17.5 114.5v49q0 63 -14.5 106t-52 69.5t-103 38t-166.5 11.5
h-401l69 809h904v-233h-670l-33 -353h174q159 0 269.5 -26t179.5 -80.5t100 -138.5t31 -201v-49z" />
    <glyph glyph-name="six.taboldstyle" horiz-adv-x="1407" 
d="M1268 463q0 -99 -24 -174.5t-65 -130.5t-95.5 -92t-116 -59t-126.5 -31t-126 -9q-130 0 -236.5 28.5t-182.5 99.5t-117.5 191t-41.5 302v360q0 144 27 256t95 189.5t183.5 118t292.5 40.5q73 0 144.5 -6t133 -14t109.5 -17.5t74 -15.5v-205q-42 4 -93 9t-107.5 9
t-116 6.5t-119.5 2.5q-117 0 -184.5 -22.5t-102 -66t-44 -106t-9.5 -143.5v-59q32 8 73 15t83.5 12t83.5 7.5t73 2.5q108 0 205 -16t170.5 -62t116.5 -129t43 -217v-74zM985 528q0 73 -18 118t-52.5 70t-86.5 33.5t-119 8.5q-26 0 -60 -1.5t-72 -4.5t-78 -8.5t-79 -14.5
v-184q0 -107 20 -176t58 -108.5t93 -55t124 -15.5q56 0 105 15.5t86 48.5t58 85t21 124v65z" />
    <glyph glyph-name="seven.taboldstyle" horiz-adv-x="1407" 
d="M264 -317l699 1286h-787v235h1063v-264l-668 -1257h-307z" />
    <glyph glyph-name="eight.taboldstyle" horiz-adv-x="1407" 
d="M1286 436q0 -108 -22.5 -184.5t-62.5 -129t-94.5 -83t-119 -47t-136.5 -21t-146 -4.5h-9q-74 0 -146 4.5t-136 21t-118.5 47t-94 83t-62 129t-22.5 184.5v17q0 122 42.5 201t125.5 132q-76 48 -119 125t-43 197v20q0 89 21.5 155t60 113.5t92 77.5t117 47.5t135.5 24
t147 6.5h9q76 0 148 -6.5t136 -24t117.5 -47.5t92 -77.5t60 -113.5t21.5 -155v-20q0 -120 -43 -197t-119 -125q83 -53 125.5 -132t42.5 -201v-17zM1004 455q0 60 -9.5 103t-31.5 71t-59 41.5t-91 13.5h-223q-55 0 -91.5 -13.5t-58.5 -41.5t-31.5 -71t-9.5 -103v-15
q0 -84 21.5 -134.5t61 -77.5t94 -35.5t120.5 -8.5h9q67 0 122 8.5t94.5 35.5t61 77.5t21.5 134.5v15zM999 1122q0 66 -21.5 107t-60.5 64.5t-93 31.5t-119 8h-9q-65 0 -118.5 -8t-92.5 -31.5t-60.5 -64.5t-21.5 -107v-20q0 -49 8.5 -88t30 -66t57.5 -41t91 -14h223
q54 0 90 14t57.5 41t30 66t8.5 88v20z" />
    <glyph glyph-name="nine.taboldstyle" horiz-adv-x="1407" 
d="M985 272q-33 -8 -74 -15t-83.5 -11.5t-83 -7t-72.5 -2.5q-108 0 -205.5 16t-170.5 62.5t-116 129.5t-43 218v71q0 99 24 174t65 130t95.5 92t116 59t126 31.5t126.5 9.5q130 0 236.5 -28t182.5 -98t117.5 -189t41.5 -300v-362q0 -143 -27 -255.5t-95 -190.5t-183.5 -119
t-292.5 -41q-74 0 -146 5.5t-133.5 14t-109 17t-72.5 14.5v205q37 -4 87 -9t108 -9t120.5 -6.5t124.5 -2.5q114 0 181 23t101.5 66.5t44 106t9.5 142.5v59zM985 651q0 107 -20.5 176t-58.5 108.5t-93 55t-125 15.5q-56 0 -105 -15.5t-85 -48.5t-57 -85t-21 -124v-65
q0 -73 18 -118t52.5 -70t85.5 -33.5t118 -8.5q26 0 60 1.5t72 5.5t78.5 9.5t80.5 14.5v182z" />
    <glyph glyph-name="colonmonetary.taboldstyle" horiz-adv-x="1251" 
d="M762 -215v186h-29q-29 0 -59 2.5t-56 6.5v-195h-161v242q-131 55 -193.5 178.5t-62.5 318.5v156q0 195 62.5 318t193.5 182v227h161v-182q25 3 55.5 5.5t59.5 2.5h29v174h164v-188q37 -5 69.5 -11t55.5 -12v-217q-73 8 -143.5 12t-141.5 4q-75 0 -129.5 -15t-89.5 -51
t-51.5 -97t-16.5 -152v-156q0 -91 16.5 -151.5t51.5 -97t89.5 -51.5t129.5 -15q77 0 151 4t134 10v-215q-22 -6 -55 -11.5t-70 -10.5v-201h-164z" />
    <glyph glyph-name="Euro.taboldstyle" horiz-adv-x="1292" 
d="M1124 2q-23 -6 -61 -12t-82 -11.5t-90 -8.5t-84 -3q-119 0 -211.5 21t-158.5 71t-105 132.5t-51 205.5h-105v131h100v131h-100v134h105q10 129 48.5 214t104.5 135t159 70.5t212 20.5q41 0 86 -3t88 -7.5t80.5 -10.5t64.5 -12v-211q-66 6 -140.5 10.5t-145.5 4.5
q-65 0 -113.5 -8t-82.5 -31.5t-54.5 -64.5t-28.5 -107h506l-37 -134h-475v-131h442l-34 -131h-402q6 -59 26 -98t54 -62t83 -32.5t114 -9.5q37 0 76 1t76.5 2.5t72.5 4l63 4.5v-205z" />
    <glyph glyph-name="florin.taboldstyle" horiz-adv-x="1266" 
d="M764 539l-57 -447q-11 -85 -37 -141.5t-65.5 -90t-92.5 -47.5t-117 -14q-68 0 -118.5 7t-92.5 16l23 174q21 -2 36.5 -3t30.5 -1.5t30.5 -1t35.5 -0.5q29 0 47.5 6.5t30.5 20t19.5 35.5t13.5 52l53 435h-221l22 194h227l29 215q12 85 39.5 139.5t69 86.5t94.5 44.5
t115 12.5q65 0 112 -7.5t90 -17.5l-18 -170q-35 3 -64.5 4.5t-64.5 1.5q-25 0 -44 -3t-33 -14t-23 -32.5t-15 -58.5l-31 -201h250l-24 -194h-250z" />
    <glyph glyph-name="numbersign.taboldstyle" horiz-adv-x="1395" 
d="M741 0l33 287h-233l-33 -287h-215l33 287h-142v180h160l31 254h-191v178h209l37 307h215l-37 -307h234l37 307h215l-35 -307h151v-178h-172l-28 -254h200v-180h-219l-33 -287h-217zM823 721h-233l-31 -254h236z" />
    <glyph glyph-name="sterling.taboldstyle" horiz-adv-x="1272" 
d="M238 0v180q42 40 59.5 83.5t17.5 94.5v160h-125v201h125v94q0 111 23 190.5t73 130t130.5 74t195.5 23.5q93 0 176 -8.5t166 -24.5v-209q-93 9 -163.5 14t-124.5 5q-66 0 -107 -8.5t-64 -30.5t-31.5 -60t-8.5 -96v-94h352v-201h-352v-160q0 -45 -10.5 -77t-30.5 -60h540
v-221h-841z" />
    <glyph glyph-name="yen.taboldstyle" horiz-adv-x="1364" 
d="M813 313v-313h-264v313h-416v166h399l-86 156h-313v166h234l-213 405h290l160 -327q20 -42 38.5 -85t37.5 -89h4q17 46 35.5 89t40.5 85l162 327h288l-215 -405h238v-166h-318l-84 -156h402v-166h-420z" />
    <glyph glyph-name="dollar.taboldstyle" horiz-adv-x="1276" 
d="M528 -215v190q-46 3 -90.5 7t-84.5 9t-73 10.5t-55 10.5v199q66 -5 159.5 -10.5t217.5 -5.5q103 0 155 29t52 95q0 26 -7.5 46.5t-27 38.5t-53 36t-86.5 39l-156 64q-70 28 -123.5 59.5t-89.5 72.5t-54.5 95.5t-18.5 128.5q0 144 83.5 223t251.5 101v184h224v-178
q47 -3 91.5 -8t83 -10.5t69.5 -11.5t51 -11v-193q-70 3 -162.5 11t-212.5 8q-48 0 -86.5 -4.5t-65.5 -16t-41 -32t-14 -52.5q0 -23 6 -42t22.5 -36.5t46.5 -34.5t78 -36l160 -66q80 -32 137.5 -65t95 -75t55 -97t17.5 -131q0 -144 -83.5 -231t-247.5 -111v-199h-224z" />
    <glyph glyph-name="cent.taboldstyle" horiz-adv-x="1251" 
d="M586 -236v222q-199 37 -293 170t-94 366v160q0 232 94 364.5t293 170.5v210h227v-200q32 -2 66.5 -5t66.5 -7t59.5 -9t47.5 -10v-207q-42 2 -78 3.5t-70 2.5t-68 1.5t-73 0.5q-76 0 -130.5 -15t-89 -51.5t-51 -97t-16.5 -151.5v-160q0 -90 16.5 -150.5t51 -97t89 -52
t130.5 -15.5q77 0 152 3t137 9v-211q-20 -5 -47.5 -10t-59.5 -9t-66.5 -7t-68.5 -5v-213h-225z" />
    <glyph glyph-name="zero.denominator" horiz-adv-x="958" 
d="M862 412q0 -212 -96 -322t-289 -110t-289 110t-96 322v90q0 213 96 322.5t289 109.5t289 -109.5t96 -322.5v-90zM645 502q0 79 -13 129.5t-35.5 79.5t-53 40t-66.5 11q-37 0 -67.5 -11t-53 -40t-35 -79.5t-12.5 -129.5v-90q0 -78 12.5 -128.5t35 -79t53 -39.5t67.5 -11
q36 0 66.5 11t53 39.5t35.5 79t13 128.5v90z" />
    <glyph glyph-name="one.denominator" horiz-adv-x="858" 
d="M141 0v154l189 8v553l-191 -60v174l252 91h156v-758l188 -8v-154h-594z" />
    <glyph glyph-name="two.denominator" horiz-adv-x="922" 
d="M113 0v113q0 84 15.5 144t50 106.5t90.5 84.5t137 76q62 30 98.5 51t55.5 39t24.5 35.5t5.5 40.5q0 48 -38.5 68t-133.5 20q-39 0 -82.5 -2t-84 -4.5t-73.5 -4.5t-51 -3v135q20 6 56 12t80 11.5t92.5 8.5t93.5 3q183 0 270.5 -56.5t87.5 -181.5q0 -48 -13.5 -87
t-45 -73.5t-82 -66.5t-123.5 -66q-71 -33 -113.5 -57.5t-65.5 -48.5t-30.5 -52t-7.5 -69v-10h465v-166h-678z" />
    <glyph glyph-name="three.denominator" horiz-adv-x="913" 
d="M799 256q0 -75 -23 -127.5t-69.5 -85.5t-116.5 -48t-164 -15q-46 0 -94.5 3.5t-91 9t-75 12t-46.5 11.5v138q18 -2 50.5 -4.5t72.5 -4.5t83 -4t81 -2q45 0 78.5 5t55.5 18.5t33 38t11 63.5v19q0 25 -4.5 45.5t-20 34.5t-45 22t-78.5 8h-268v150h270q48 0 77 8.5
t44.5 23.5t20 35.5t4.5 44.5v13q0 31 -8.5 51.5t-28.5 32.5t-54.5 17t-86.5 5q-39 0 -80 -1.5t-78.5 -4t-71 -5t-57.5 -3.5v137q15 5 47.5 11.5t74.5 12t90.5 9.5t94.5 4q90 0 159.5 -12.5t117 -42t72 -77.5t24.5 -118v-14q0 -29 -6 -58.5t-20 -56t-36 -49t-53 -37.5
q32 -15 54 -36t35.5 -46.5t19.5 -54.5t6 -58v-18z" />
    <glyph glyph-name="four.denominator" horiz-adv-x="958" 
d="M528 0v209h-448v158l477 548h186v-550h136v-156h-136v-209h-215zM539 678l-279 -313h279v313z" />
    <glyph glyph-name="five.denominator" horiz-adv-x="915" 
d="M805 274q0 -81 -26 -137t-75 -91t-120 -50.5t-160 -15.5q-52 0 -100.5 4t-89 9.5t-71.5 11t-48 9.5v142q66 -7 135.5 -13t134.5 -6q56 0 94.5 7t62 22.5t34 41t10.5 62.5v23q0 34 -8.5 57t-30.5 37t-60 19.5t-96 5.5h-266l45 503h602v-161h-428l-20 -189h106
q103 0 174.5 -15t116 -47.5t64.5 -83.5t20 -124v-21z" />
    <glyph glyph-name="six.denominator" horiz-adv-x="969" 
d="M854 283q0 -89 -32 -147t-84.5 -93t-118.5 -49t-134 -14q-93 0 -164.5 20t-119.5 66t-72.5 119.5t-24.5 181.5v188q0 89 17.5 159.5t61.5 119t119.5 74.5t191.5 26q49 0 97 -4t89.5 -9t74 -11.5t50.5 -10.5v-143q-28 3 -62.5 6t-72.5 5t-77.5 3.5t-76.5 1.5
q-67 0 -106.5 -11.5t-60 -35t-26.5 -58t-6 -79.5v-29q19 5 43.5 9.5t50 7.5t49.5 4.5t42 1.5q72 0 136 -9.5t112 -38t76 -80.5t28 -137v-34zM639 315q0 42 -10.5 67t-30.5 39t-49 18.5t-66 4.5q-31 0 -76 -3.5t-90 -14.5v-92q0 -63 12 -102.5t34 -62t53 -30.5t69 -8
q32 0 60 8.5t49 26.5t33 47t12 70v32z" />
    <glyph glyph-name="seven.denominator" horiz-adv-x="909" 
d="M160 0l438 754h-475v161h688v-180l-422 -735h-229z" />
    <glyph glyph-name="eight.denominator" horiz-adv-x="997" 
d="M877 262q0 -96 -32 -152t-85.5 -85t-124 -37t-148.5 -8q-75 0 -144 8t-122.5 37t-85 85t-31.5 152v10q0 72 26 120t77 79q-48 32 -74.5 78.5t-26.5 118.5v12q0 81 31 130.5t84.5 77t124 37t148.5 9.5q76 0 144.5 -9.5t120.5 -37t82.5 -77t30.5 -130.5v-12
q0 -72 -26 -118.5t-74 -78.5q53 -31 79 -79t26 -120v-10zM424 403q-63 0 -86 -31.5t-23 -105.5q0 -45 12.5 -72.5t36 -42.5t56.5 -19.5t74 -4.5q38 0 70 4.5t54.5 19.5t35 42.5t12.5 72.5q0 74 -23 105.5t-86 31.5h-133zM557 545q31 0 51.5 8t32.5 22.5t16.5 35.5t4.5 48
q0 40 -12.5 65t-35 38.5t-55 18.5t-72.5 5q-38 0 -69 -5t-53.5 -18.5t-35 -38.5t-12.5 -65q0 -54 22 -84t85 -30h133z" />
    <glyph glyph-name="nine.denominator" horiz-adv-x="969" 
d="M639 354q-19 -5 -43.5 -8.5t-49.5 -6t-49 -4t-42 -1.5q-72 0 -136.5 9.5t-112.5 38t-76 80.5t-28 136v33q0 88 32.5 146.5t85 93t119 49t134.5 14.5q93 0 164 -20t118.5 -66t72 -119.5t24.5 -181.5v-187q0 -89 -17.5 -159.5t-61.5 -119.5t-119 -75t-191 -26
q-49 0 -97 3.5t-90 9t-75 11t-51 10.5v142q23 -2 56.5 -4.5t72.5 -5.5t81 -5t82 -2q66 0 105 12.5t59.5 36.5t26.5 58.5t6 79.5v28zM639 582q0 62 -11.5 101.5t-33.5 62t-53.5 30.5t-71.5 8q-32 0 -59.5 -8.5t-48 -27t-32.5 -47.5t-12 -70v-31q0 -41 10.5 -66t30.5 -39
t48.5 -19t64.5 -5q32 0 77.5 3.5t90.5 12.5v95z" />
    <glyph glyph-name="comma.denominator" horiz-adv-x="520" 
d="M96 -113l111 318h205l-150 -318h-166z" />
    <glyph glyph-name="period.denominator" horiz-adv-x="430" 
d="M115 8v197h200v-197h-200z" />
    <glyph glyph-name="cent.denominator" horiz-adv-x="809" 
d="M362 -172v170q-62 14 -112 45t-85 82t-54 123t-19 168v90q0 179 66.5 284.5t203.5 133.5v159h183v-147q50 -3 98 -9.5t74 -13.5v-172q-50 5 -105 8t-100 3q-58 0 -96.5 -13t-62 -42.5t-33 -76.5t-9.5 -114v-90q0 -66 8.5 -112.5t31 -76.5t61.5 -43.5t100 -13.5
q56 0 112 3.5t93 6.5v-172q-13 -4 -32 -7.5t-42 -6.5t-48 -5t-50 -3v-158h-183z" />
    <glyph glyph-name="dollar.denominator" horiz-adv-x="874" 
d="M348 -172v160q-71 2 -132.5 10t-98.5 16v156q45 -3 121.5 -8.5t169.5 -5.5q88 0 123.5 24.5t35.5 71.5q0 35 -26 58.5t-90 49.5l-138 54q-50 19 -90.5 43t-69 56t-44 74t-15.5 97q0 212 254 246v160h189v-154q36 -2 70 -6t62.5 -8t51 -8t35.5 -7v-155q-37 3 -77.5 6
t-79 6t-73.5 4.5t-61 1.5q-74 0 -117 -18.5t-43 -63.5q0 -18 5.5 -32.5t18.5 -27t35 -23.5t54 -21l137 -47q110 -39 169.5 -102.5t59.5 -168.5q0 -115 -65 -184.5t-182 -87.5v-166h-189z" />
    <glyph glyph-name="hyphen.denominator" horiz-adv-x="520" 
d="M106 340v160h306v-160h-306z" />
    <glyph glyph-name="parenleft.denominator" horiz-adv-x="584" 
d="M297 -154q-29 38 -60 92t-56.5 122t-41.5 149.5t-16 173.5v10q0 91 16 172.5t41.5 150t56.5 124t60 94.5h195q-34 -51 -64 -109.5t-52 -126t-35 -144t-13 -161.5v-10q0 -86 13 -162t35 -143t52 -125t64 -107h-195z" />
    <glyph glyph-name="parenright.denominator" horiz-adv-x="584" 
d="M90 -154q34 49 64 107t52.5 125t35 143t12.5 162v10q0 85 -12.5 161.5t-35 144t-52.5 126t-64 109.5h195q29 -39 59.5 -94.5t56 -124t42 -150t16.5 -172.5v-10q0 -92 -16.5 -173.5t-42 -149.5t-56 -122t-59.5 -92h-195z" />
    <glyph glyph-name="zero.numerator" horiz-adv-x="958" 
d="M862 1030q0 -211 -96 -321.5t-289 -110.5t-289 110.5t-96 321.5v90q0 214 96 323t289 109t289 -109t96 -323v-90zM645 1120q0 79 -13 129.5t-35.5 79.5t-53 40t-66.5 11q-37 0 -67.5 -11t-53 -40t-35 -79.5t-12.5 -129.5v-90q0 -78 12.5 -128.5t35 -79t53 -39.5t67.5 -11
q36 0 66.5 11t53 39.5t35.5 79t13 128.5v90z" />
    <glyph glyph-name="one.numerator" horiz-adv-x="858" 
d="M141 618v154l189 8v553l-191 -59v174l252 90h156v-758l188 -8v-154h-594z" />
    <glyph glyph-name="two.numerator" horiz-adv-x="922" 
d="M113 618v113q0 84 15.5 144t50 107t90.5 84.5t137 76.5q62 30 98.5 51t55.5 39t24.5 35.5t5.5 40.5q0 47 -38.5 67.5t-133.5 20.5q-39 0 -82.5 -2t-84 -4.5t-73.5 -5t-51 -3.5v136q20 6 56 12t80 11t92.5 8t93.5 3q183 0 270.5 -56t87.5 -181q0 -48 -13.5 -87t-45 -73.5
t-82 -66.5t-123.5 -66q-71 -33 -113.5 -57.5t-65.5 -48.5t-30.5 -52.5t-7.5 -68.5v-11h465v-166h-678z" />
    <glyph glyph-name="three.numerator" horiz-adv-x="913" 
d="M799 874q0 -74 -23 -126.5t-69.5 -85.5t-116.5 -48.5t-164 -15.5q-46 0 -94.5 4t-91 9.5t-75 12t-46.5 11.5v137q18 -2 50.5 -4t72.5 -4.5t83 -4t81 -1.5q45 0 78.5 5t55.5 18.5t33 38t11 63.5v18q0 25 -4.5 46t-20 35t-45 22t-78.5 8h-268v149h270q48 0 77 8.5t44.5 24
t20 36t4.5 44.5v12q0 31 -8.5 51.5t-28.5 33t-54.5 17.5t-86.5 5q-39 0 -80 -2t-78.5 -4t-71 -5t-57.5 -4v138q15 5 47.5 11.5t74.5 12t90.5 9t94.5 3.5q90 0 159.5 -12.5t117 -41.5t72 -77t24.5 -118v-15q0 -29 -6 -58.5t-20 -56t-36 -49t-53 -37.5q32 -14 54 -35.5
t35.5 -47t19.5 -54t6 -57.5v-19z" />
    <glyph glyph-name="four.numerator" horiz-adv-x="958" 
d="M528 618v209h-448v158l477 549h186v-551h136v-156h-136v-209h-215zM539 1296l-279 -313h279v313z" />
    <glyph glyph-name="five.numerator" horiz-adv-x="915" 
d="M805 893q0 -81 -26 -137t-75 -91t-120 -51t-160 -16q-52 0 -100.5 4t-89 9.5t-71.5 11.5t-48 10v141q66 -6 135.5 -12t134.5 -6q56 0 94.5 7t62 22.5t34 41t10.5 62.5v22q0 35 -8.5 58t-30.5 36.5t-60 19t-96 5.5h-266l45 504h602v-162h-428l-20 -188h106
q103 0 174.5 -15t116 -47.5t64.5 -84t20 -124.5v-20z" />
    <glyph glyph-name="six.numerator" horiz-adv-x="969" 
d="M854 901q0 -88 -32 -146.5t-84.5 -93t-118.5 -49t-134 -14.5q-93 0 -164.5 20t-119.5 66t-72.5 119.5t-24.5 181.5v189q0 89 17.5 159t61.5 119t119.5 74.5t191.5 25.5q49 0 97 -3.5t89.5 -9t74 -11.5t50.5 -10v-144q-28 3 -62.5 6t-72.5 5.5t-77.5 4t-76.5 1.5
q-67 0 -106.5 -12t-60 -35t-26.5 -58t-6 -80v-28q19 5 43.5 9t50 7t49.5 4.5t42 1.5q72 0 136 -9.5t112 -38t76 -80.5t28 -136v-35zM639 934q0 41 -10.5 66.5t-30.5 39.5t-49 18.5t-66 4.5q-31 0 -76 -4t-90 -15v-92q0 -63 12 -102.5t34 -61.5t53 -30t69 -8q32 0 60 8.5
t49 26.5t33 46.5t12 69.5v33z" />
    <glyph glyph-name="seven.numerator" horiz-adv-x="909" 
d="M160 618l438 754h-475v162h688v-180l-422 -736h-229z" />
    <glyph glyph-name="eight.numerator" horiz-adv-x="997" 
d="M877 881q0 -64 -14.5 -110t-40.5 -77.5t-62.5 -50t-79.5 -29t-92 -13.5t-101 -3q-75 0 -144 8t-122.5 37.5t-85 85.5t-31.5 152v10q0 71 26 119.5t77 79.5q-48 32 -74.5 78.5t-26.5 117.5v12q0 81 31 130.5t84.5 77t124 37t148.5 9.5q76 0 144.5 -9.5t120.5 -37t82.5 -77
t30.5 -130.5v-12q0 -71 -26 -117.5t-74 -78.5q53 -31 79 -79.5t26 -119.5v-10zM424 1022q-63 0 -86 -32t-23 -105q0 -45 12.5 -72.5t36 -42.5t56.5 -20t74 -5q38 0 70 5t54.5 20t35 42.5t12.5 72.5q0 73 -23 105t-86 32h-133zM557 1163q63 0 84 30.5t21 84.5
q0 40 -12.5 64.5t-35 38.5t-55 19t-72.5 5q-38 0 -69 -5t-53.5 -19t-35 -38.5t-12.5 -64.5q0 -54 22 -84.5t85 -30.5h133z" />
    <glyph glyph-name="nine.numerator" horiz-adv-x="969" 
d="M639 973q-19 -5 -43.5 -8.5t-49.5 -6.5t-49 -4.5t-42 -1.5q-72 0 -136.5 9.5t-112.5 38t-76 80.5t-28 137v32q0 88 32.5 146.5t85 93.5t119 49t134.5 14q93 0 164 -20t118.5 -66t72 -119.5t24.5 -181.5v-186q0 -89 -17.5 -160t-61.5 -120t-119 -75t-191 -26q-49 0 -97 4
t-90 9t-75 11t-51 11v141q23 -2 56.5 -4.5t72.5 -5t81 -4.5t82 -2q66 0 105 12.5t59.5 36t26.5 58t6 79.5v29zM639 1200q0 62 -11.5 101.5t-33.5 62t-53.5 31t-71.5 8.5q-32 0 -59.5 -8.5t-48 -27t-32.5 -47.5t-12 -71v-30q0 -41 10.5 -66t30.5 -39t48.5 -19t64.5 -5
q32 0 77.5 3.5t90.5 12.5v94z" />
    <glyph glyph-name="comma.numerator" horiz-adv-x="520" 
d="M96 506l111 317h205l-150 -317h-166z" />
    <glyph glyph-name="period.numerator" horiz-adv-x="430" 
d="M115 627v196h200v-196h-200z" />
    <glyph glyph-name="cent.numerator" horiz-adv-x="809" 
d="M362 446v170q-62 14 -112 45t-85 82t-54 123t-19 168v90q0 180 66.5 285t203.5 133v160h183v-148q50 -3 98 -9.5t74 -12.5v-172q-50 5 -105 7.5t-100 2.5q-58 0 -96.5 -13t-62 -42t-33 -76t-9.5 -115v-90q0 -66 8.5 -112.5t31 -76.5t61.5 -43.5t100 -13.5q56 0 112 4
t93 7v-172q-13 -4 -32 -8t-42 -7t-48 -5t-50 -3v-158h-183z" />
    <glyph glyph-name="dollar.numerator" horiz-adv-x="874" 
d="M348 446v160q-71 2 -132.5 10.5t-98.5 16.5v155q45 -3 121.5 -8.5t169.5 -5.5q88 0 123.5 25t35.5 71q0 36 -26 59.5t-90 49.5l-138 53q-50 19 -90.5 43t-69 56t-44 74t-15.5 98q0 212 254 245v160h189v-154q36 -2 70 -5.5t62.5 -7.5t51 -8t35.5 -7v-156q-37 3 -77.5 6.5
t-79 6t-73.5 4.5t-61 2q-74 0 -117 -18.5t-43 -63.5q0 -18 5.5 -32.5t18.5 -27t35 -23.5t54 -22l137 -47q110 -38 169.5 -102t59.5 -168q0 -116 -65 -185t-182 -88v-166h-189z" />
    <glyph glyph-name="hyphen.numerator" horiz-adv-x="520" 
d="M106 958v160h306v-160h-306z" />
    <glyph glyph-name="parenleft.numerator" horiz-adv-x="584" 
d="M297 465q-29 37 -60 91t-56.5 122.5t-41.5 149.5t-16 173v11q0 91 16 172t41.5 150t56.5 124t60 94h195q-34 -51 -64 -109.5t-52 -126t-35 -143.5t-13 -161v-11q0 -86 13 -162t35 -143t52 -124.5t64 -106.5h-195z" />
    <glyph glyph-name="parenright.numerator" horiz-adv-x="584" 
d="M90 465q34 49 64 106.5t52.5 124.5t35 143t12.5 162v11q0 85 -12.5 161t-35 143.5t-52.5 126t-64 109.5h195q29 -39 59.5 -94t56 -124t42 -150t16.5 -172v-11q0 -92 -16.5 -173t-42 -149.5t-56 -122.5t-59.5 -91h-195z" />
    <glyph glyph-name="parenleft.cap" horiz-adv-x="651" 
d="M354 0q-39 51 -81 129t-77.5 176t-58 212t-22.5 239v12q0 124 22.5 237.5t58 210.5t77.5 175t81 131h221q-48 -73 -89 -158.5t-71 -180.5t-46.5 -199.5t-16.5 -215.5v-12q0 -112 16 -216t45.5 -199.5t70.5 -180.5t91 -160h-221z" />
    <glyph glyph-name="parenright.cap" horiz-adv-x="651" 
d="M104 0q49 75 90 160t70.5 180.5t45.5 199.5t16 216v12q0 111 -16.5 215.5t-46 199.5t-70.5 180.5t-89 158.5h220q40 -53 82 -131t77 -175t57.5 -210.5t22.5 -237.5v-12q0 -125 -22.5 -239t-57.5 -212t-77 -176t-82 -129h-220z" />
    <glyph glyph-name="bracketleft.cap" horiz-adv-x="711" 
d="M160 0v1522h450v-199h-209v-1126h209v-197h-450z" />
    <glyph glyph-name="bracketright.cap" horiz-adv-x="711" 
d="M98 0v197h211v1126h-211v199h449v-1522h-449z" />
    <glyph glyph-name="braceleft.cap" horiz-adv-x="750" 
d="M551 0q-113 0 -184 17t-111.5 54t-55 95.5t-14.5 140.5v187q0 43 -5.5 71.5t-17.5 49.5t-31.5 38t-47.5 35v143q28 19 47.5 35.5t31.5 37.5t17.5 50t5.5 72v186q0 84 14.5 143t55 96t111.5 54t184 17h104v-203h-102q-42 0 -66.5 -3.5t-37.5 -14.5t-17 -32t-4 -57v-186
q0 -53 -7 -93t-21.5 -71t-37.5 -55.5t-55 -46.5q32 -23 55.5 -47.5t38.5 -55.5t22 -70.5t7 -92.5v-187q0 -35 3.5 -56t16.5 -32t37 -14.5t66 -3.5h102v-201h-104z" />
    <glyph glyph-name="braceright.cap" horiz-adv-x="750" 
d="M84 0v201h104q42 0 66 3.5t37 14.5t16.5 32t3.5 56v187q0 53 7 92.5t22 70.5t37.5 55.5t54.5 47.5q-32 22 -55 46.5t-37.5 55.5t-21.5 71t-7 93v186q0 36 -3.5 57t-16.5 32t-37 14.5t-66 3.5h-104v203h104q113 0 184.5 -17t112 -54t55.5 -96t15 -143v-186q0 -43 5 -72
t17 -50t31 -37.5t47 -35.5v-143q-28 -18 -47 -35t-31 -38t-17 -49.5t-5 -71.5v-187q0 -82 -15 -140.5t-55.5 -95.5t-112 -54t-184.5 -17h-104z" />
    <glyph glyph-name="exclamdown.cap" horiz-adv-x="616" 
d="M160 -70l26 1160h244l27 -1160h-297zM168 1208v314h278v-314h-278z" />
    <glyph glyph-name="questiondown.cap" horiz-adv-x="1038" 
d="M975 -39q-82 -26 -182.5 -41.5t-208.5 -15.5q-111 0 -196.5 19t-143.5 60t-87.5 105t-29.5 154v16q0 51 10 96.5t34.5 92t65 96.5t101.5 108q70 71 111 120t62 89t26.5 77t5.5 85v65h245v-65q0 -65 -5 -118t-23.5 -102.5t-54.5 -101t-97 -112.5q-54 -55 -88.5 -95.5
t-54.5 -73.5t-27.5 -62.5t-7.5 -61.5v-14q0 -42 14 -69.5t42.5 -43t70.5 -21.5t98 -6q73 0 156 6.5t164 12.5v-199zM528 1206v316h271v-316h-271z" />
    <glyph glyph-name="guillemotleft.cap" horiz-adv-x="1485" 
d="M1083 342l-325 444l325 441h293l-315 -441l315 -444h-293zM428 342l-326 444l326 441h293l-315 -441l315 -444h-293z" />
    <glyph glyph-name="guillemotright.cap" horiz-adv-x="1485" 
d="M764 342l313 444l-313 441h291l325 -441l-325 -444h-291zM106 342l316 444l-316 441h293l326 -441l-326 -444h-293z" />
    <glyph glyph-name="guilsinglleft.cap" horiz-adv-x="827" 
d="M426 342l-324 444l324 441h293l-313 -441l313 -444h-293z" />
    <glyph glyph-name="guilsinglright.cap" horiz-adv-x="827" 
d="M106 342l314 444l-314 441h293l324 -441l-324 -444h-293z" />
    <glyph glyph-name="hyphen.cap" horiz-adv-x="772" 
d="M135 696v197h500v-197h-500z" />
    <glyph glyph-name="endash.cap" horiz-adv-x="993" 
d="M135 696v197h721v-197h-721z" />
    <glyph glyph-name="emdash.cap" horiz-adv-x="1354" 
d="M135 696v197h1084v-197h-1084z" />
    <glyph glyph-name="periodcentered.cap" horiz-adv-x="567" 
d="M156 633v317h254v-317h-254z" />
    <glyph glyph-name="at.cap" horiz-adv-x="1759" 
d="M1178 -2q-18 -3 -56.5 -8.5t-89.5 -11t-110.5 -9.5t-118.5 -4q-186 0 -319 38.5t-217.5 112.5t-124.5 181.5t-40 245.5q0 80 7.5 156.5t19.5 142.5q66 361 272 533.5t560 172.5q167 0 296.5 -39t218 -115t134 -188t45.5 -258q0 -144 -38 -264.5t-126.5 -207.5
t-232.5 -136t-357 -49q-114 0 -197 18.5t-136.5 57.5t-79 100t-25.5 145q0 15 0.5 35.5t2 42.5t2.5 44t3 40q12 121 45.5 202t87.5 130.5t127 70.5t164 21q97 0 187 -12t167 -31l-67 -657q79 19 136.5 58.5t94.5 97.5t54.5 132.5t17.5 163.5q0 232 -134 345.5t-399 113.5
q-140 0 -249 -35t-190.5 -107.5t-135.5 -184t-82 -265.5q-11 -63 -18 -131.5t-7 -142.5q0 -108 27 -191.5t89.5 -140.5t164.5 -87t252 -30q59 0 120.5 2.5t114 5.5t90.5 6t50 5v-115zM1010 1012q-25 3 -59 3.5t-62 0.5q-41 0 -75 -8.5t-60 -35t-43.5 -76.5t-24.5 -134
q-5 -59 -6.5 -93t-1.5 -59q0 -43 11 -71.5t35 -46t62 -24.5t93 -7h39.5t37.5 2z" />
    <glyph glyph-name="T_h" horiz-adv-x="2361" 
d="M1946 0v727q0 67 -9.5 110.5t-31.5 69.5t-56.5 36.5t-85.5 10.5q-41 0 -81 -6t-77 -15t-68.5 -20t-55.5 -22v-891h-271v1284h-411v-1284h-287v1284h-455v238h1424v-426q31 15 70 30.5t84.5 28t97 20t106.5 7.5q107 0 179 -31t116 -89t63 -142t19 -189v-731h-270z" />
    <glyph glyph-name="A.alt" horiz-adv-x="1444" 
d="M1096 0l-131 426h-490l-135 -426h-293l402 1292l-113 11v219h600l461 -1522h-301zM782 1081q-17 57 -29.5 117.5t-23.5 122.5h-18q-13 -62 -25 -122.5t-29 -117.5l-129 -419h381z" />
    <glyph glyph-name="B.alt" horiz-adv-x="1382" 
d="M1278 440q0 -143 -50.5 -231.5t-140.5 -137.5t-214 -66t-271 -17q-65 0 -115.5 0.5t-99 2t-102 4t-123.5 5.5v1288l-105 15v219q153 6 287.5 9t265.5 3q153 0 275 -16.5t207.5 -62t131.5 -126.5t46 -209v-18q0 -49 -11 -96.5t-34.5 -89.5t-60 -76.5t-87.5 -57.5
q54 -22 92 -56.5t62.5 -77t35.5 -90.5t11 -97v-21zM997 463q0 50 -13.5 90t-47.5 68.5t-91 43.5t-145 15h-260v-457h178q93 0 164 7.5t118.5 31t72 66t24.5 112.5v23zM991 1110q0 64 -24 101.5t-70.5 57t-114.5 24.5t-157 5h-185v-411h258q88 0 145 14t90 40.5t45.5 64.5
t12.5 86v18z" />
    <glyph glyph-name="C.alt" horiz-adv-x="1202" 
d="M1139 6q-26 -6 -70.5 -13t-97.5 -12.5t-109 -9.5t-106 -4q-147 0 -266.5 31.5t-205 110.5t-132 212.5t-46.5 337.5v203q0 204 46.5 337.5t132 212t205 109.5t266.5 31q50 0 106 -3.5t109 -9.5t97.5 -13.5t70.5 -14.5v-348h-193l-18 135q-37 2 -76.5 3.5t-77.5 1.5
q-96 0 -167.5 -19.5t-119 -69.5t-71 -135.5t-23.5 -216.5v-203q0 -131 23.5 -216.5t71 -135.5t119 -70t167.5 -20q45 0 94 1.5t97 3.5t93 4.5l81 4.5v-225z" />
    </font>
</defs>
</svg>
