<?xml version="1.0" encoding="UTF-8"?>
<svg width="137px" height="70px" viewBox="0 0 137 70" version="1.1" xmlns="http://www.w3.org/2000/svg" xmlns:xlink="http://www.w3.org/1999/xlink">
    <!-- Generator: Sketch 51.3 (57544) - http://www.bohemiancoding.com/sketch -->
    <title>ilus/ my_market / api</title>
    <desc>Created with Sketch.</desc>
    <defs></defs>
    <g id="ilus/-my_market-/-api" stroke="none" stroke-width="1" fill="none" fill-rule="evenodd">
        <g transform="translate(4.000000, 5.000000)" fill="#2E6C99" fill-rule="nonzero" id="Group-44" stroke="#2E6C99">
            <g>
                <path d="M26.2071801,45.2355338 C26.3610776,45.2355338 26.4859799,45.3647612 26.4859799,45.5239878 C26.4859799,45.6832144 26.3610776,45.8124417 26.2071801,45.8124417 L15.1198701,45.8124417 C14.9838158,46.7614553 14.198158,47.4947053 13.24299,47.4947053 C12.2878219,47.4947053 11.5021641,46.7620322 11.3661098,45.8124417 L0.278799789,45.8124417 C0.124902305,45.8124417 0,45.6832144 0,45.5239878 C0,45.3647612 0.124902305,45.2355338 0.278799789,45.2355338 L11.3661098,45.2355338 C11.4887817,44.3805562 12.1383852,43.7084585 12.9641902,43.5815387 L12.9641902,38.5999387 L7.71383255,38.5999387 C7.6513814,38.5999387 7.59004545,38.5959003 7.52870949,38.591285 L7.40826799,38.5924389 C7.35529603,38.5964772 7.30232407,38.5999387 7.24879451,38.5999387 C3.25192074,38.5999387 0,35.2354116 0,31.1001354 C0,27.0687028 3.00936492,23.8143651 6.88300918,23.6164856 C8.27533533,20.7682911 11.1363788,18.9377622 14.2187892,18.9377622 C18.4124956,18.9377622 21.8868986,22.1401782 22.382047,26.421412 C24.2332776,26.8944766 25.5564614,28.6269311 25.5564614,30.620148 C25.5564614,30.820912 25.5414062,31.0251374 25.5101807,31.2397472 C26.1402682,32.0439568 26.4859799,33.0477766 26.4859799,34.0815957 C26.4859799,36.5726842 24.526575,38.5999387 22.1183024,38.5999387 L13.5217898,38.5999387 L13.5217898,43.5815387 C14.3475947,43.7084585 14.9971982,44.3805562 15.1198701,45.2355338 L26.2071801,45.2355338 Z M8.22091401,37.3033094 C8.26431832,37.3068488 8.30772263,36.8138988 8.35162017,36.8133931 L21.0937445,36.8133931 C22.9522382,36.8133931 24.4639906,35.7601118 24.4639906,33.8548797 C24.4639906,33.0301892 24.1734776,32.2302749 23.6457207,31.6022764 C23.5978773,31.544634 23.5771616,31.4677775 23.5899856,31.3929436 C23.625005,31.1906896 23.6417748,31.0036047 23.6417748,30.8210705 C23.6417748,29.2525912 22.5532145,27.8969842 21.0532996,27.5971427 C20.9462685,27.575906 20.8653787,27.4848918 20.8550208,27.3731465 C20.52209,23.7902179 17.6209065,21.0881052 14.1061439,21.0881052 C11.5181619,21.0881052 9.11958052,22.6388873 7.99550753,25.0396416 C7.95555584,25.1250939 7.87219984,25.1807137 7.77996568,25.1832419 C4.55127689,25.2722336 2.02198937,27.9338955 2.02198937,31.2422644 C2.02198937,34.5880502 4.67705074,36.8138988 7.94075892,36.8138988 C7.97627153,36.8138988 8.01129092,36.810865 8.04631031,36.8083368 L8.13065277,36.8027748 L8.22091401,37.3033094 Z" id="Combined-Shape" stroke-width="0.81"></path>
                <path d="M48.5441214,26.2977716 C48.6980189,26.2977716 48.8229212,26.8746795 48.8229212,26.5862255 C48.8229212,26.2977716 48.6980189,26.8746795 48.5441214,26.8746795 L37.1780116,26.8746795 C37.0419573,27.8236931 36.2562995,28.5569431 35.3011314,28.5569431 C34.3459633,28.5569431 33.5603055,27.82427 33.4242512,26.8746795 L21.7488299,26.8746795 C21.5949324,26.8746795 21.4700301,26.7454521 21.4700301,26.5862255 C21.4700301,26.4269989 21.5949324,26.2977716 21.7488299,26.2977716 L33.4242512,26.2977716 C33.5469231,25.442794 34.1965266,24.7706962 35.0223316,24.6437765 L35.0223316,19.6621764 L29.771974,19.6621764 C29.7095228,19.6621764 29.6481869,19.6581381 29.4664094,19.6546766 C29.4134375,19.658715 29.3604655,19.6621764 29.3069359,19.6621764 C25.3100622,19.6621764 22.0581414,16.2976493 22.0581414,12.1623732 C22.0581414,8.13094051 25.0675064,4.87660282 28.9411506,4.6787234 C30.3334768,1.8305289 33.1945202,0 36.2769307,0 C40.4706371,0 43.9450401,3.20241598 44.4401885,7.4836498 C46.2914191,7.95671432 47.6146029,9.68916886 47.6146029,11.6823858 C47.6146029,11.8831498 47.5995477,12.0873752 47.5683221,12.3019849 C48.1984096,13.1061946 48.5441214,14.1100144 48.5441214,15.1438334 C48.5441214,17.6349219 46.5847165,19.6621764 44.1764439,19.6621764 L35.5799312,19.6621764 L35.5799312,24.6437765 C36.4057362,24.7706962 37.0553397,25.442794 37.1780116,26.2977716 L48.5441214,26.2977716 Z M30.1094199,18.3601998 C30.1521628,18.3637369 30.1949058,17.85672 30.2381344,17.8562147 L42.7861045,17.8562147 C44.6162798,17.8562147 46.1049973,16.8180201 46.1049973,14.9140446 C46.1049973,14.0898981 45.818911,13.2905114 45.2991956,12.6629271 C45.2520812,12.6053227 45.2316812,12.5285169 45.2443098,12.4537323 C45.2787956,12.2516118 45.2953099,12.0646503 45.2953099,11.8822365 C45.2953099,10.3147917 44.2233361,8.96007883 42.7462758,8.66043513 C42.6408756,8.63921247 42.5612183,8.54825823 42.5510182,8.43658663 C42.2231604,4.85602129 39.3661828,2.1556909 35.9049753,2.1556909 C33.3564269,2.1556909 30.9943932,3.70545013 29.887448,6.10462092 C29.848105,6.19001685 29.7660191,6.24559999 29.6751904,6.2481265 C26.4956978,6.33705954 24.0049495,8.99696583 24.0049495,12.3031525 C24.0049495,15.6467315 26.6195552,17.85672 29.8335336,17.85672 C29.8685051,17.85672 29.9029909,17.8536882 29.9374766,17.8511617 L30.020534,17.8456034 L30.1094199,18.3601998 Z" id="Combined-Shape" stroke-width="0.81"></path>
                <path d="M68.4683403,55.4341445 C68.6493961,55.4341445 68.79634,55.5905777 68.79634,55.7833256 C68.79634,55.9760736 68.6493961,56.1325068 68.4683403,56.1325068 L55.4244462,56.1325068 C55.2643823,57.2813127 54.340079,58.1689311 53.2163518,58.1689311 C52.0926247,58.1689311 51.1683214,57.282011 51.0082575,56.1325068 L37.9643634,56.1325068 C37.7833075,56.1325068 37.6363636,55.9760736 37.6363636,55.7833256 C37.6363636,55.5905777 37.7833075,55.4341445 37.9643634,55.4341445 L51.0082575,55.4341445 C51.1525774,54.3991717 51.9168168,53.5855797 52.8883521,53.43194 L52.8883521,47.8907995 L46.7114608,47.8907995 C46.6379888,47.8907995 46.5658289,47.885911 46.4936689,47.8803241 L46.351973,47.8817208 C46.2896531,47.8866093 46.2273331,47.8907995 46.1643572,47.8907995 C41.4621527,47.8907995 37.6363636,43.3287334 37.6363636,38.3228728 C37.6363636,33.4427175 41.176793,29.503256 45.7340215,29.2637178 C47.3720523,25.8159034 50.7379857,23.6 54.364351,23.6 C59.2981232,23.6 63.3856561,27.4766088 63.9681837,32.659155 C66.146102,33.2318121 67.7027889,35.3289939 67.7027889,37.7418354 C67.7027889,37.9848655 67.6850769,38.2320857 67.6483409,38.4918765 C68.3896203,39.4653935 68.79634,40.6805438 68.79634,41.9320089 C68.79634,44.9475371 66.4911578,47.8907995 63.6578959,47.8907995 L53.5443516,47.8907995 L53.5443516,53.43194 C54.5158868,53.5855797 55.2801263,54.3991717 55.4244462,55.4341445 L68.4683403,55.4341445 Z M47.0637168,46.5161443 C47.1168922,46.5207294 47.1700676,46.5246596 47.2238473,46.5240045 L62.8344516,46.5240045 C65.1113254,46.5240045 66.9634002,44.5170309 66.9634002,42.048925 C66.9634002,40.9805915 66.6074876,39.9443538 65.9609232,39.1308221 C65.9023094,39.0561501 65.8769302,38.9565874 65.8926411,38.8596448 C65.935544,38.5976378 65.956089,38.3552814 65.956089,38.11882 C65.956089,36.0869558 64.6224743,34.3308539 62.7849018,33.9424285 C62.6537761,33.9149178 62.5546765,33.7970146 62.5419869,33.6522558 C62.1341075,29.0108018 58.5798156,25.5103883 54.2738171,25.5103883 C51.1032341,25.5103883 48.1646892,27.519327 46.7875673,30.62935 C46.7386218,30.740048 46.6365008,30.8120999 46.5235031,30.815375 C42.5679788,30.9306581 39.4693034,34.3786702 39.4693034,38.6644496 C39.4693034,42.9987004 42.7220666,46.5246596 46.7204938,46.5246596 C46.7640009,46.5246596 46.8069038,46.5207294 46.8498067,46.5174544 L46.9531361,46.5102492 L47.0637168,46.5161443 Z" id="Combined-Shape" stroke-width="0.972"></path>
            </g>
        </g>
        <path d="M102.77,46.44 L98.36,46.44 L96.44,40.2 L89.27,40.2 L87.29,46.44 L83,46.44 L89.75,24.15 L96.02,24.15 L102.77,46.44 Z M95.63,36.75 L93.77,30.6 C93.44,29.49 93.2,28.29 92.99,27.09 L92.72,27.09 C92.48,28.29 92.27,29.49 91.94,30.6 L90.05,36.75 L95.63,36.75 Z M121.91,31.32 C121.91,37.32 117.56,38.43 112.37,38.43 C111.56,38.43 110.78,38.43 109.91,38.4 L109.91,46.44 L105.83,46.44 L105.83,24.15 C107.96,24.03 109.94,24 112.1,24 C117.56,24 121.88,25.05 121.91,30.99 L121.91,31.32 Z M117.8,31.32 L117.8,30.99 C117.77,27.54 115.34,27.54 110.51,27.54 L109.91,27.54 L109.91,34.86 C110.69,34.89 111.5,34.89 112.31,34.89 C115.97,34.89 117.8,34.26 117.8,31.32 Z M129.47,46.44 L125.27,46.44 L125.27,24.15 C125.27,24.15 129.47,24.15 129.47,24.15 L129.47,46.44 Z" id="API-Copy" fill="#2E6C99"></path>
        <rect id="Rectangle" x="0" y="0" width="137" height="70"></rect>
    </g>
</svg>