<?xml version="1.0" encoding="UTF-8"?>
<svg width="137px" height="70px" viewBox="0 0 137 70" version="1.1" xmlns="http://www.w3.org/2000/svg" xmlns:xlink="http://www.w3.org/1999/xlink">
    <!-- Generator: Sketch 51.3 (57544) - http://www.bohemiancoding.com/sketch -->
    <title>ilus/ my_market / app</title>
    <desc>Created with Sketch.</desc>
    <defs></defs>
    <g id="ilus/-my_market-/-app" stroke="none" stroke-width="1" fill="none" fill-rule="evenodd">
        <g transform="translate(18.000000, 9.000000)" id="Group-5">
            <g>
                <g id="Group-42" fill="#2E6C99" fill-rule="nonzero">
                    <path d="M4.10974552,0.915708008 C0.222825777,0.915708008 0.222825777,3.75351011 0.222825777,5.54964412 L0.222825777,45.1594862 C0.222825777,46.9556202 1.97879359,48.435708 4.10974552,48.435708 L31.3181837,48.435708 C33.4491356,48.435708 35.2051034,46.9556202 35.2051034,45.1594862 L35.2051034,5.54964412 C35.2051034,3.75351011 35.2051034,0.915708008 31.3181837,0.915708008 L4.10974552,0.915708008 Z M3.5779072,3.84556139 L31.5328712,3.84556139 L31.5328712,44.8635087 L3.5779072,44.8635087 L3.5779072,3.84556139 Z" id="Shape"></path>
                    <rect id="Rectangle-15-Copy" x="2.64" y="7.92" width="29.6819326" height="2.23041454"></rect>
                    <rect id="Rectangle-15-Copy-2" x="2.64" y="38.28" width="29.6819326" height="2.23041454"></rect>
                </g>
                <path d="M71.4786595,38 L67.0646376,38 L65.1428866,31.7543091 L57.9663475,31.7543091 L55.9845418,38 L51.6906293,38 L58.4467853,15.6896715 L64.7225035,15.6896715 L71.4786595,38 Z M64.3321478,28.3011627 L62.4704515,22.1455539 C62.1401506,21.0345416 61.8999317,19.8334472 61.6897402,18.6323528 L61.4194939,18.6323528 C61.179275,19.8334472 60.9690835,21.0345416 60.6387826,22.1455539 L58.7470589,28.3011627 L64.3321478,28.3011627 Z M90.6361152,22.8662106 C90.6361152,28.8716826 86.282148,29.9826949 81.0874147,29.9826949 C80.276676,29.9826949 79.4959646,29.9826949 78.6251712,29.9526675 L78.6251712,38 L74.5414502,38 L74.5414502,15.6896715 C76.6733928,15.5695621 78.6551986,15.5395347 80.8171685,15.5395347 C86.282148,15.5395347 90.6060878,16.5904923 90.6361152,22.5359096 L90.6361152,22.8662106 Z M86.5223669,22.8662106 L86.5223669,22.5359096 C86.4923395,19.0827632 84.0601234,19.0827632 79.2257184,19.0827632 L78.6251712,19.0827632 L78.6251712,26.409439 C79.4058826,26.4394664 80.2166213,26.4394664 81.02736,26.4394664 C84.6906979,26.4394664 86.5223669,25.8088918 86.5223669,22.8662106 Z M110.093844,22.8662106 C110.093844,28.8716826 105.739877,29.9826949 100.545144,29.9826949 C99.7344053,29.9826949 98.9536939,29.9826949 98.0829005,29.9526675 L98.0829005,38 L93.9991795,38 L93.9991795,15.6896715 C96.1311221,15.5695621 98.1129278,15.5395347 100.274898,15.5395347 C105.739877,15.5395347 110.063817,16.5904923 110.093844,22.5359096 L110.093844,22.8662106 Z M105.980096,22.8662106 L105.980096,22.5359096 C105.950069,19.0827632 103.517853,19.0827632 98.6834477,19.0827632 L98.0829005,19.0827632 L98.0829005,26.409439 C98.8636118,26.4394664 99.6743506,26.4394664 100.485089,26.4394664 C104.148427,26.4394664 105.980096,25.8088918 105.980096,22.8662106 Z" id="APP" fill="#2E6C99"></path>
                <g id="Group-41" transform="translate(13.200000, 18.480000)"></g>
                <path d="M17.6958637,17.3346534 C17.8581745,17.3320952 18.0209574,17.3755837 18.1603269,17.4586792 L24.2803127,20.9871525 C24.5445781,21.140597 24.7172229,21.439988 24.7174545,21.745245 L24.7174545,28.8022313 C24.7172229,29.1074884 24.5445781,29.4068793 24.2803127,29.5603238 L18.1603269,33.0887971 C18.036677,33.1628509 17.8945316,33.205766 17.7505064,33.2128229 C17.5881957,33.2153811 17.4254128,33.1718927 17.2860432,33.0887971 L11.1660574,29.5603238 C10.9017921,29.4068793 10.7291473,29.1074884 10.7289156,28.8022313 L10.7289156,21.745245 C10.7291473,21.439988 10.9017921,21.140597 11.1660574,20.9871525 L17.2860432,17.4586792 C17.4096932,17.3846254 17.5518386,17.3417103 17.6958637,17.3346534 Z M17.7231851,19.2028313 L13.1549068,21.7185273 L17.7231851,24.2342233 L22.2914634,21.7185273 L17.7231851,19.2028313 Z M12.2240664,23.2390029 L12.2240664,28.2842794 L16.8066653,30.8137758 L16.8066653,25.7684949 L12.2240664,23.2390029 Z M23.2223038,23.2390029 L18.6397049,25.7684949 L18.6397049,30.8137758 L23.2223038,28.2842794 L23.2223038,23.2390029 Z" id="Combined-Shape" fill="#2E6C99" fill-rule="nonzero"></path>
            </g>
        </g>
        <rect id="Rectangle" x="0" y="0" width="137" height="70"></rect>
    </g>
</svg>