<?xml version="1.0" encoding="UTF-8"?>
<svg width="137px" height="70px" viewBox="0 0 137 70" version="1.1" xmlns="http://www.w3.org/2000/svg" xmlns:xlink="http://www.w3.org/1999/xlink">
    <!-- Generator: Sketch 51.3 (57544) - http://www.bohemiancoding.com/sketch -->
    <title>ilus/ my_market / doc</title>
    <desc>Created with Sketch.</desc>
    <defs></defs>
    <g id="ilus/-my_market-/-doc" stroke="none" stroke-width="1" fill="none" fill-rule="evenodd">
        <g transform="translate(18.000000, 10.000000)">
            <path d="M74.8526304,26.1009824 C74.8526304,32.0791568 72.2320608,35.1637856 65.4895536,35.1637856 C63.005472,35.1637856 61.6132944,35.1091904 59.1565104,35 L59.1565104,14.7178832 C61.6132944,14.6086928 62.8143888,14.5540976 65.4895536,14.5540976 C72.0682752,14.5540976 74.8526304,17.6114288 74.8526304,23.535008 L74.8526304,26.1009824 Z M71.058264,26.1009824 L71.058264,23.535008 C71.058264,19.1127968 69.3112176,17.802512 65.4076608,17.802512 L62.8962816,17.802512 L62.8962816,31.9426688 L65.4076608,31.9426688 C69.3112176,31.9426688 71.058264,30.5231936 71.058264,26.1009824 Z M94.3704144,26.0463872 C94.3704144,32.6251088 91.1765952,35.4367616 86.0173488,35.4367616 C80.8581024,35.4367616 77.6915808,32.6251088 77.6915808,26.0463872 L77.6915808,23.671496 C77.6915808,17.120072 80.8854,14.3084192 86.0173488,14.3084192 C91.1492976,14.3084192 94.3704144,17.120072 94.3704144,23.671496 L94.3704144,26.0463872 Z M90.576048,26.0463872 L90.576048,23.6987936 C90.576048,19.167392 88.801704,17.6387264 86.0173488,17.6387264 C83.2602912,17.6387264 81.4859472,19.167392 81.4859472,23.6987936 L81.4859472,26.0463872 C81.4859472,30.6050864 83.2875888,32.133752 86.0173488,32.133752 C88.7744064,32.133752 90.576048,30.6050864 90.576048,26.0463872 Z M110.967355,34.9181072 C110.039237,35.136488 107.637048,35.4367616 105.862704,35.4367616 C100.648862,35.4367616 97.2093648,33.4713344 97.2093648,26.2101728 L97.2093648,23.5077104 C97.2093648,16.2465488 100.648862,14.3084192 105.862704,14.3084192 C107.637048,14.3084192 110.039237,14.6359904 110.967355,14.8543712 L110.967355,17.8844048 C109.629773,17.7752144 107.691643,17.6387264 106.108382,17.6387264 C102.696182,17.6387264 101.031029,18.8398208 101.031029,23.5077104 L101.031029,26.2101728 C101.031029,30.8780624 102.696182,32.1064544 106.108382,32.1064544 C107.691643,32.1064544 109.629773,31.9699664 110.967355,31.860776 L110.967355,34.9181072 Z" id="DOC" fill="#2E6C99"></path>
            <g id="ilus/-onthology_wizard-/-from_file-copy" fill-rule="nonzero">
                <g id="Group-40">
                    <g id="Group">
                        <path d="M37.9117242,11.8068263 L13.8162758,11.8068263 C12.8700642,11.8068263 12.1,12.5573623 12.1,13.4804969 L12.1,44.2648897 C12.1,45.1876123 12.8696418,45.9385602 13.8162758,45.9385602 L32.2002386,45.9385602 C32.26867,45.9385602 32.3332997,45.9253785 32.39455,45.9056058 C32.4853694,45.8738873 32.5419731,45.8409329 32.5930854,45.8009757 C32.5961832,45.7985041 34.8659646,43.9332862 39.4024299,40.205322 C39.4805768,40.1258196 39.4932493,40.111402 39.505077,40.0961606 C39.5490082,40.0277803 39.5591462,40.0108912 39.5675945,39.9927662 C39.5967412,39.9186189 39.6034999,39.8996701 39.6081465,39.8798975 C39.6220862,39.8016308 39.6246207,39.7802105 39.6254655,39.7583782 C39.6257471,39.7526112 39.6265919,30.9933174 39.628,13.4804969 C39.6275776,12.5573623 38.8579358,11.8068263 37.9117242,11.8068263 Z M13.6629208,44.0249811 L13.6629208,13.7950093 C13.6629208,13.5579659 13.8602565,13.3650142 14.1022721,13.3650142 L37.700235,13.3650142 C37.9426643,13.3650142 38.14,13.5579659 38.14,13.7950093 L38.14,38.9681895 L32.1074007,38.9681895 C31.7648557,38.9681895 31.4868481,39.2400208 31.4868481,39.5749559 L31.4868481,44.4545718 L14.1022721,44.4545718 C13.8602565,44.4545718 13.6629208,44.2616201 13.6629208,44.0249811 Z" id="Shape-Copy-2" stroke="#2E6C99" stroke-width="1.188" fill="#2E6C99"></path>
                        <rect id="Rectangle-path-Copy" fill="#2E6C99" x="18.4545455" y="18.1487603" width="2.92989947" height="2.92989947"></rect>
                        <rect id="Rectangle-path-Copy-2" fill="#2E6C99" x="24.8016529" y="18.1487603" width="2.92989947" height="2.92989947"></rect>
                        <rect id="Rectangle-path-Copy-3" fill="#2E6C99" x="29.5619835" y="18.1487603" width="2.92989947" height="2.92989947"></rect>
                        <path d="M31.5537109,11.391245 L31.5537109,6.56651163 C31.5537109,5.83749576 30.9627268,5.24651163 30.2337109,5.24651163 L6.65333333,5.24651163 C5.92431746,5.24651163 5.33333333,5.83749576 5.33333333,6.56651163 L5.33333333,36.751473 C5.33333333,37.4804889 5.92431746,38.071473 6.65333333,38.071473 L13.8701172,38.071473" id="Path-5" stroke="#2E6C99" stroke-width="2.64"></path>
                        <path d="M26.2203776,6.14473338 L26.2203776,1.32 C26.2203776,0.59098413 25.6293935,8.81265622e-17 24.9003776,2.22044605e-16 L1.32,0 C0.59098413,1.33918043e-16 1.3276591e-16,0.59098413 2.22044605e-16,1.32 L0,31.5049614 C2.03176718e-15,32.2339773 0.59098413,32.8249614 1.32,32.8249614 L5.73567708,32.8249614" id="Path-5-Copy" stroke="#2E6C99" stroke-width="2.64"></path>
                    </g>
                </g>
            </g>
        </g>
        <rect id="Rectangle" x="0" y="0" width="137" height="70"></rect>
    </g>
</svg>