<?xml version="1.0" encoding="UTF-8"?>
<svg width="137px" height="70px" viewBox="0 0 137 70" version="1.1" xmlns="http://www.w3.org/2000/svg" xmlns:xlink="http://www.w3.org/1999/xlink">
    <!-- Generator: Sketch 51.3 (57544) - http://www.bohemiancoding.com/sketch -->
    <title>ilus/ my_market / generico</title>
    <desc>Created with Sketch.</desc>
    <defs></defs>
    <g id="ilus/-my_market-/-generico" stroke="none" stroke-width="1" fill="none" fill-rule="evenodd">
        <g id="ilus/-my_market-/-app" transform="translate(31.000000, 27.000000)">
            <g id="Group-5">
                <g id="Group-41" transform="translate(0.200000, 0.480000)"></g>
            </g>
        </g>
        <g transform="translate(36.000000, 5.000000)" fill="#2E6C99" fill-rule="nonzero" id="generico_card">
            <g>
                <path d="M23.095641,35.7039503 L31.7493917,40.0663745 L31.7493917,29.4820427 L23.095641,25.9921033 L23.095641,35.7039503 Z M32.8311105,42.9215812 C32.6656075,42.9215812 32.5001045,42.88341 32.3475822,42.8070676 L21.5303939,37.3540372 C21.1636912,37.1686342 20.9322034,36.7912845 20.9322034,36.3779448 L20.9322034,24.3812782 C20.9322034,24.0191969 21.110687,23.6811091 21.407078,23.4782563 C21.7056324,23.2754036 22.0853157,23.2350512 22.4152399,23.3681051 L33.2324282,27.7305294 C33.6434813,27.8973921 33.9128293,28.2976445 33.9128293,28.7437024 L33.9128293,41.8309751 C33.9128293,42.2094154 33.7181199,42.5605906 33.3990129,42.7590809 C33.2259379,42.8670509 33.029065,42.9215812 32.8311105,42.9215812 Z" id="Shape"></path>
                <path d="M33.0108953,29.4828202 L33.0108953,40.067152 L41.6646459,35.7047277 L41.6646459,25.9928808 L33.0108953,29.4828202 Z M31.9291765,42.9223586 C31.7312219,42.9223586 31.5343491,42.8667377 31.3612741,42.7587677 C31.042167,42.5602774 30.8474576,42.2091023 30.8474576,41.8317526 L30.8474576,28.7444799 C30.8474576,28.298422 31.1168056,27.8970789 31.5278588,27.7313068 L42.345047,23.3688826 C42.6749713,23.234738 43.0535729,23.2750905 43.353209,23.4790338 C43.6496,23.6818865 43.8280836,24.0199744 43.8280836,24.3820556 L43.8280836,36.3787223 C43.8280836,36.792062 43.5965957,37.1694117 43.229893,37.3537241 L32.4127048,42.8067544 C32.2601824,42.8841874 32.0946794,42.9223586 31.9291765,42.9223586 Z" id="Shape"></path>
                <path d="M24.6521641,24.178667 L32.8310402,27.4766598 L41.0088345,24.178667 L32.8310402,20.0561761 L24.6521641,24.178667 Z M32.8310402,29.7429392 C32.6947436,29.7429392 32.5584471,29.7167646 32.4286408,29.6644155 L21.6114525,25.3019913 C21.2155434,25.1427628 20.9505223,24.7643225 20.9332148,24.3346237 C20.9148256,23.9060155 21.1484769,23.5057631 21.5292419,23.3138164 L32.3464302,17.8607861 C32.6514749,17.7070107 33.0106055,17.7070107 33.3145685,17.8607861 L44.1317568,23.3138164 C44.5125218,23.5057631 44.7461731,23.9060155 44.7288656,24.3346237 C44.7104764,24.7643225 44.4454553,25.1427628 44.0495462,25.3019913 L33.2323579,29.6644155 C33.1025516,29.7167646 32.9673368,29.7429392 32.8310402,29.7429392 Z" id="Shape"></path>
                <path d="M21.2155691,25.379697 C21.002356,25.379697 20.7891429,25.2968109 20.6117798,25.1266764 L15.2144688,19.9266667 L10.8388827,19.9266667 C10.3171709,19.9266667 9.89546178,19.4380752 9.89546178,18.8360606 C9.89546178,18.2340461 10.3171709,17.7454545 10.8388827,17.7454545 L15.5559872,17.7454545 C15.7767477,17.7454545 15.9909042,17.8348842 16.16072,17.9984752 L21.8212453,23.4515055 C22.2203124,23.8364894 22.2750308,24.5246618 21.9420032,24.9870788 C21.7542625,25.2455524 21.4863309,25.379697 21.2155691,25.379697" id="Shape" stroke="#2E6C99" stroke-width="1.1"></path>
                <path d="M43.5249254,25.379697 C43.2541636,25.379697 42.986232,25.2455524 42.7984913,24.9870788 C42.4654637,24.5246618 42.5201821,23.8364894 42.9192491,23.4515055 L48.5797745,17.9984752 C48.7495903,17.8348842 48.9637468,17.7454545 49.1845073,17.7454545 L53.9016118,17.7454545 C54.4233236,17.7454545 54.8450327,18.2340461 54.8450327,18.8360606 C54.8450327,19.4380752 54.4233236,19.9266667 53.9016118,19.9266667 L49.5260257,19.9266667 L44.1287147,25.1266764 C43.9513516,25.2968109 43.7381385,25.379697 43.5249254,25.379697" id="Shape" stroke="#2E6C99" stroke-width="1.1"></path>
                <path d="M53.9016118,42.0159615 L49.1845073,42.0159615 C48.9637468,42.0159615 48.7495903,41.9265318 48.5797745,41.7629409 L42.9192491,36.3099106 C42.5201821,35.9249266 42.4654637,35.2367542 42.7984913,34.7743372 C43.1324623,34.3119202 43.7268174,34.2486651 44.1287147,34.6347396 L49.5260257,39.8347493 L53.9016118,39.8347493 C54.4233236,39.8347493 54.8450327,40.3233409 54.8450327,40.9253554 C54.8450327,41.5273699 54.4233236,42.0159615 53.9016118,42.0159615" id="Shape" stroke="#2E6C99" stroke-width="1.1"></path>
                <path d="M15.5559872,42.0159615 L10.8388827,42.0159615 C10.3171709,42.0159615 9.89546178,41.5273699 9.89546178,40.9253554 C9.89546178,40.3233409 10.3171709,39.8347493 10.8388827,39.8347493 L15.2144688,39.8347493 L20.6117798,34.6347396 C21.0146205,34.2486651 21.6080322,34.3119202 21.9420032,34.7743372 C22.2750308,35.2367542 22.2203124,35.9249266 21.8212453,36.3099106 L16.16072,41.7629409 C15.9909042,41.9265318 15.7767477,42.0159615 15.5559872,42.0159615" id="Shape" stroke="#2E6C99" stroke-width="1.1"></path>
                <path d="M31.9291765,19.7787879 C31.3309859,19.7787879 30.8474576,19.3398836 30.8474576,18.7990909 L30.8474576,10.9615152 C30.8474576,10.4207224 31.3309859,9.98181818 31.9291765,9.98181818 C32.527367,9.98181818 33.0108953,10.4207224 33.0108953,10.9615152 L33.0108953,18.7990909 C33.0108953,19.3398836 32.527367,19.7787879 31.9291765,19.7787879" id="Shape" stroke="#2E6C99" stroke-width="1.1"></path>
                <path d="M31.9291765,50.8333333 C31.3309859,50.8333333 30.8474576,50.3891592 30.8474576,49.8418733 L30.8474576,40.9187328 C30.8474576,40.3714468 31.3309859,39.9272727 31.9291765,39.9272727 C32.527367,39.9272727 33.0108953,40.3714468 33.0108953,40.9187328 L33.0108953,49.8418733 C33.0108953,50.3891592 32.527367,50.8333333 31.9291765,50.8333333" id="Shape" stroke="#2E6C99" stroke-width="1.1"></path>
                <path d="M2.16343766,44.2157576 L8.65375062,44.2157576 L8.65375062,37.6721212 L2.16343766,37.6721212 L2.16343766,44.2157576 Z M9.73546945,46.3969697 L1.08171883,46.3969697 C0.483528316,46.3969697 0,45.9083782 0,45.3063636 L0,36.5815152 C0,35.9795006 0.483528316,35.4909091 1.08171883,35.4909091 L9.73546945,35.4909091 C10.3325782,35.4909091 10.8171883,35.9795006 10.8171883,36.5815152 L10.8171883,45.3063636 C10.8171883,45.9083782 10.3325782,46.3969697 9.73546945,46.3969697 Z" id="Shape"></path>
                <path d="M56.1464885,44.2157576 L62.6368015,44.2157576 L62.6368015,37.6721212 L56.1464885,37.6721212 L56.1464885,44.2157576 Z M63.7185203,46.3969697 L55.0647697,46.3969697 C54.4665792,46.3969697 53.9830508,45.9083782 53.9830508,45.3063636 L53.9830508,36.5815152 C53.9830508,35.9795006 54.4665792,35.4909091 55.0647697,35.4909091 L63.7185203,35.4909091 C64.3156291,35.4909091 64.8002391,35.9795006 64.8002391,36.5815152 L64.8002391,45.3063636 C64.8002391,45.9083782 64.3156291,46.3969697 63.7185203,46.3969697 Z" id="Shape"></path>
                <path d="M2.16343766,22.0339394 L8.65375062,22.0339394 L8.65375062,15.490303 L2.16343766,15.490303 L2.16343766,22.0339394 Z M9.73546945,24.2151515 L1.08171883,24.2151515 C0.483528316,24.2151515 0,23.72656 0,23.1245455 L0,14.399697 C0,13.7976824 0.483528316,13.3090909 1.08171883,13.3090909 L9.73546945,13.3090909 C10.3325782,13.3090909 10.8171883,13.7976824 10.8171883,14.399697 L10.8171883,23.1245455 C10.8171883,23.72656 10.3325782,24.2151515 9.73546945,24.2151515 Z" id="Shape"></path>
                <path d="M28.6041156,58.6339394 L35.0944286,58.6339394 L35.0944286,52.090303 L28.6041156,52.090303 L28.6041156,58.6339394 Z M36.1761474,60.8151515 L27.5223968,60.8151515 C26.9242063,60.8151515 26.440678,60.32656 26.440678,59.7245455 L26.440678,50.999697 C26.440678,50.3976824 26.9242063,49.9090909 27.5223968,49.9090909 L36.1761474,49.9090909 C36.7732562,49.9090909 37.2578662,50.3976824 37.2578662,50.999697 L37.2578662,59.7245455 C37.2578662,60.32656 36.7732562,60.8151515 36.1761474,60.8151515 Z" id="Shape"></path>
                <path d="M28.6041156,8.72484848 L35.0944286,8.72484848 L35.0944286,2.18121212 L28.6041156,2.18121212 L28.6041156,8.72484848 Z M36.1761474,10.9060606 L27.5223968,10.9060606 C26.9242063,10.9060606 26.440678,10.4174691 26.440678,9.81545455 L26.440678,1.09060606 C26.440678,0.488591515 26.9242063,0 27.5223968,0 L36.1761474,0 C36.7732562,0 37.2578662,0.488591515 37.2578662,1.09060606 L37.2578662,9.81545455 C37.2578662,10.4174691 36.7732562,10.9060606 36.1761474,10.9060606 Z" id="Shape"></path>
                <path d="M56.1464885,22.0339394 L62.6368015,22.0339394 L62.6368015,15.490303 L56.1464885,15.490303 L56.1464885,22.0339394 Z M63.7185203,24.2151515 L55.0647697,24.2151515 C54.4665792,24.2151515 53.9830508,23.72656 53.9830508,23.1245455 L53.9830508,14.399697 C53.9830508,13.7976824 54.4665792,13.3090909 55.0647697,13.3090909 L63.7185203,13.3090909 C64.3156291,13.3090909 64.8002391,13.7976824 64.8002391,14.399697 L64.8002391,23.1245455 C64.8002391,23.72656 64.3156291,24.2151515 63.7185203,24.2151515 Z" id="Shape"></path>
            </g>
        </g>
        <rect id="Rectangle" x="0" y="0" width="137" height="70"></rect>
    </g>
</svg>