<?xml version="1.0" encoding="UTF-8"?>
<svg width="137px" height="70px" viewBox="0 0 137 70" version="1.1" xmlns="http://www.w3.org/2000/svg" xmlns:xlink="http://www.w3.org/1999/xlink">
    <!-- Generator: Sketch 51.3 (57544) - http://www.bohemiancoding.com/sketch -->
    <title>ilus/ my_market / jar</title>
    <desc>Created with Sketch.</desc>
    <defs></defs>
    <g id="ilus/-my_market-/-jar" stroke="none" stroke-width="1" fill="none" fill-rule="evenodd">
        <g transform="translate(21.000000, 10.000000)" fill="#2E6C99" fill-rule="nonzero" id="noun_code-file_1119625">
            <g transform="translate(0.000000, 0.523636)">
                <g id="Group">
                    <path d="M0.0598295455,40.1723077 C0.0598295455,44.1895385 3.290625,47.4763636 7.239375,47.4763636 L31.0515341,47.4763636 C35.0002841,47.4763636 38.2310795,44.1895385 38.2310795,40.1723077 L38.2310795,14.7298462 C38.2310795,14.4255105 38.1114205,14.0603077 37.8721023,13.8168392 L23.8121591,0.304335664 C23.5728409,0.121734266 23.3335227,0 23.034375,0 L7.239375,0 C3.290625,0 0.0598295455,3.28682517 0.0598295455,7.30405594 L0.0598295455,40.1723077 Z M23.7524716,3.15498845 L36.5813352,14.4964801 L26.8624991,14.4964801 C25.151984,14.4964801 23.7524716,13.1878464 23.7524716,11.5884053 L23.7524716,3.15498845 Z M1.17290659,6.36496304 C1.17290659,3.53377183 3.49164955,1.21734266 6.32566873,1.21734266 L22.0415933,1.21734266 L22.0415933,10.3543688 C22.0415933,13.18556 24.3603362,15.5019892 27.1943554,15.5019892 L37.177832,15.5019892 L37.177832,41.1114006 C37.177832,43.9425918 34.8590891,46.259021 32.0250699,46.259021 L6.32566873,46.259021 C3.49164955,46.259021 1.17290659,43.9425918 1.17290659,41.1114006 L1.17290659,6.36496304 Z" id="Shape" stroke="#2E6C99" stroke-width="1.2672"></path>
                    <path d="M25.4873864,36.3985455 C25.7267045,36.5811469 25.9660227,36.7028811 26.2651705,36.7028811 C26.6241477,36.7028811 26.9232955,36.5811469 27.1626136,36.2768112 L31.3506818,31.4074406 C31.7694886,30.9205035 31.7694886,30.250965 31.3506818,29.8248951 L27.1626136,24.9555245 C26.7438068,24.4685874 25.9660227,24.4077203 25.4873864,24.8337902 C25.00875,25.2598601 24.9489205,26.0511329 25.3677273,26.5380699 L28.8378409,30.6161678 L25.4275568,34.6942657 C24.9489205,35.1812028 25.00875,35.9116084 25.4873864,36.3985455 Z" id="Shape"></path>
                    <path d="M11.0684659,36.2768112 C11.3077841,36.5811469 11.6069318,36.7028811 11.9659091,36.7028811 C12.2650568,36.7028811 12.504375,36.5811469 12.7436932,36.3985455 C13.2223295,35.9724755 13.2821591,35.1812028 12.8633523,34.6942657 L9.39323864,30.6161678 L12.8633523,26.5380699 C13.2821591,26.0511329 13.2223295,25.2598601 12.7436932,24.8337902 C12.2650568,24.4077203 11.4872727,24.4685874 11.0684659,24.9555245 L6.88039773,29.8248951 C6.46159091,30.3118322 6.46159091,30.9813706 6.88039773,31.4074406 L11.0684659,36.2768112 Z" id="Shape"></path>
                    <path d="M17.7095455,40.294042 C17.769375,40.294042 17.8292045,40.294042 17.8890341,40.294042 C18.4873295,40.294042 18.9659659,39.867972 19.085625,39.2593007 L21.6582955,22.2165035 C21.7779545,21.546965 21.2993182,20.9382937 20.6411932,20.8165594 C19.9830682,20.6948252 19.3847727,21.1817622 19.2651136,21.8513007 L16.6924432,38.8940979 C16.5727841,39.6245035 17.0514205,40.2331748 17.7095455,40.294042 Z" id="Shape"></path>
                </g>
            </g>
        </g>
        <path d="M86.4918656,46.1018304 C86.4918656,49.8540096 85.062464,51.4323072 81.2507264,51.4323072 C80.4169088,51.4323072 79.1959616,51.3429696 78.6897152,51.1940736 L78.6897152,48.3054912 C79.3150784,48.3352704 79.851104,48.3352704 80.5062464,48.3352704 C82.1738816,48.3352704 82.3525568,47.7694656 82.3525568,46.2209472 L82.3525568,22.8740544 L86.4918656,22.8740544 L86.4918656,46.1018304 Z M109.153837,45 L104.776294,45 L102.870426,38.8059264 L95.7531968,38.8059264 L93.7877696,45 L89.529344,45 L96.229664,22.8740544 L102.453517,22.8740544 L109.153837,45 Z M102.066387,35.3813184 L100.220077,29.2765824 C99.8925056,28.174752 99.654272,26.983584 99.4458176,25.792416 L99.1778048,25.792416 C98.9395712,26.983584 98.7311168,28.174752 98.4035456,29.2765824 L96.527456,35.3813184 L102.066387,35.3813184 Z M129.52281,45 L125.115488,45 L120.231699,36.81072 C119.636115,36.8404992 118.980973,36.8404992 118.296051,36.8404992 L116.241286,36.8404992 L116.241286,45 L112.191315,45 L112.191315,22.8740544 C114.156742,22.7847168 116.151949,22.7251584 118.385389,22.7251584 C123.715866,22.7251584 128.123187,23.7972096 128.123187,29.6339328 L128.123187,29.8423872 C128.123187,33.2074368 126.664006,34.9644096 124.31145,35.9769024 L129.52281,45 Z M124.043437,29.8721664 L124.043437,29.6934912 C124.043437,26.2688832 121.661101,26.239104 116.241286,26.239104 L116.241286,33.5052288 C117.015546,33.535008 117.760026,33.535008 118.534285,33.535008 C122.346022,33.535008 124.043437,32.7309696 124.043437,29.8721664 Z" id="JAR" fill="#2E6C99"></path>
        <rect id="Rectangle" x="0" y="0" width="137" height="70"></rect>
    </g>
</svg>