<?xml version="1.0" encoding="UTF-8"?>
<svg width="137px" height="70px" viewBox="0 0 137 70" version="1.1" xmlns="http://www.w3.org/2000/svg" xmlns:xlink="http://www.w3.org/1999/xlink">
    <!-- Generator: Sketch 51.3 (57544) - http://www.bohemiancoding.com/sketch -->
    <title>ilus/ my_market / restapi</title>
    <desc>Created with Sketch.</desc>
    <defs></defs>
    <g id="ilus/-my_market-/-restapi" stroke="none" stroke-width="1" fill="none" fill-rule="evenodd">
        <path d="M103.066223,51.4686437 L98.6562227,51.4686437 L96.7362227,45.2286437 L89.5662227,45.2286437 L87.5862227,51.4686437 L83.2962227,51.4686437 L90.0462227,29.1786437 L96.3162227,29.1786437 L103.066223,51.4686437 Z M95.9262227,41.7786437 L94.0662227,35.6286437 C93.7362227,34.5186437 93.4962227,33.3186437 93.2862227,32.1186437 L93.0162227,32.1186437 C92.7762227,33.3186437 92.5662227,34.5186437 92.2362227,35.6286437 L90.3462227,41.7786437 L95.9262227,41.7786437 Z M122.206223,36.3486437 C122.206223,42.3486437 117.856223,43.4586437 112.666223,43.4586437 C111.856223,43.4586437 111.076223,43.4586437 110.206223,43.4286437 L110.206223,51.4686437 L106.126223,51.4686437 L106.126223,29.1786437 C108.256223,29.0586437 110.236223,29.0286437 112.396223,29.0286437 C117.856223,29.0286437 122.176223,30.0786437 122.206223,36.0186437 L122.206223,36.3486437 Z M118.096223,36.3486437 L118.096223,36.0186437 C118.066223,32.5686437 115.636223,32.5686437 110.806223,32.5686437 L110.206223,32.5686437 L110.206223,39.8886437 C110.986223,39.9186437 111.796223,39.9186437 112.606223,39.9186437 C116.266223,39.9186437 118.096223,39.2886437 118.096223,36.3486437 Z M129.766223,51.4686437 L125.566223,51.4686437 L125.566223,29.1786437 C125.566223,29.1786437 129.766223,29.1786437 129.766223,29.1786437 L129.766223,51.4686437 Z" id="API" fill="#2E6C99"></path>
        <path d="M93.405019,23.2345649 L91.629019,23.2345649 L89.661019,19.9345649 C89.421019,19.9465649 89.157019,19.9465649 88.881019,19.9465649 L88.053019,19.9465649 L88.053019,23.2345649 L86.421019,23.2345649 L86.421019,14.3185649 C87.213019,14.2825649 88.017019,14.2585649 88.917019,14.2585649 C91.065019,14.2585649 92.841019,14.6905649 92.841019,17.0425649 L92.841019,17.1265649 C92.841019,18.4825649 92.253019,19.1905649 91.305019,19.5985649 L93.405019,23.2345649 Z M91.197019,17.1385649 L91.197019,17.0665649 C91.197019,15.6865649 90.237019,15.6745649 88.053019,15.6745649 L88.053019,18.6025649 C88.365019,18.6145649 88.665019,18.6145649 88.977019,18.6145649 C90.513019,18.6145649 91.197019,18.2905649 91.197019,17.1385649 Z M100.221019,23.2345649 L94.545019,23.2345649 L94.545019,14.3185649 L100.221019,14.3185649 L100.221019,15.7105649 L96.225019,15.7105649 L96.225019,17.9785649 L99.969019,17.9785649 L99.969019,19.3225649 L96.225019,19.3225649 L96.225019,21.8545649 L100.221019,21.8545649 L100.221019,23.2345649 Z M107.649019,20.8945649 C107.649019,22.5145649 106.485019,23.4265649 104.481019,23.4265649 C103.317019,23.4265649 102.117019,23.2705649 101.673019,23.1505649 L101.673019,21.8665649 C102.405019,21.9385649 103.233019,22.0105649 104.349019,22.0105649 C105.429019,22.0105649 105.945019,21.7105649 105.945019,20.9065649 C105.945019,20.3305649 105.717019,20.0065649 104.829019,19.6345649 L103.485019,19.0825649 C102.165019,18.5425649 101.457019,17.7865649 101.457019,16.4905649 C101.457019,14.7625649 102.537019,14.1385649 104.649019,14.1385649 C105.777019,14.1385649 106.833019,14.3185649 107.253019,14.4265649 L107.253019,15.6985649 C106.569019,15.6385649 105.657019,15.5425649 104.721019,15.5425649 C103.677019,15.5425649 103.113019,15.7225649 103.113019,16.4425649 C103.113019,16.9825649 103.365019,17.2585649 104.253019,17.6185649 L105.465019,18.1105649 C107.025019,18.7465649 107.649019,19.3825649 107.649019,20.8945649 Z M115.581019,15.7105649 L112.917019,15.7105649 L112.917019,23.2345649 L111.237019,23.2345649 L111.237019,15.7105649 L108.573019,15.7105649 L108.573019,14.3185649 L115.581019,14.3185649 L115.581019,15.7105649 Z" id="REST" fill="#2E6C99"></path>
        <g id="Group-39" transform="translate(0.000000, -0.799222)">
            <rect id="Rectangle" x="0" y="0.799222168" width="137" height="70"></rect>
            <rect id="Rectangle-path-Copy" fill="#2E6C99" fill-rule="nonzero" x="28.4545455" y="28.9479825" width="2.92989947" height="2.92989947"></rect>
            <rect id="Rectangle-path-Copy-2" fill="#2E6C99" fill-rule="nonzero" x="34.8016529" y="28.9479825" width="2.92989947" height="2.92989947"></rect>
            <rect id="Rectangle-path-Copy-3" fill="#2E6C99" fill-rule="nonzero" x="39.5619835" y="28.9479825" width="2.92989947" height="2.92989947"></rect>
            <path d="M51.9740169,23 L72.0599789,23 C72.6122636,23 73.0599789,23.4477153 73.0599789,24 L73.0599789,24.9298995 C73.0599789,25.4821842 72.6122636,25.9298995 72.0599789,25.9298995 L52.5625763,25.9298995 C52.2070755,25.9298995 51.8783017,25.7411634 51.6990321,25.4341727 L51.1330469,24.4649497 C50.8618248,24.0004948 51.018471,23.4041108 51.4829259,23.1328888 C51.6319564,23.0458612 51.8014368,23 51.9740169,23 Z" id="Rectangle-15" fill="#2E6C99" fill-rule="nonzero"></path>
            <path d="M57.5157895,56.9653333 C57.7830737,56.9653333 58,57.1961212 58,57.4804848 C58,57.7648485 57.7830737,57.9956364 57.5157895,57.9956364 L38.2597053,57.9956364 C38.0234105,59.6904848 36.6589053,61 35,61 C33.3410947,61 31.9765895,59.6915152 31.7402947,57.9956364 L12.4842105,57.9956364 C12.2169263,57.9956364 12,57.7648485 12,57.4804848 C12,57.1961212 12.2169263,56.9653333 12.4842105,56.9653333 L31.7402947,56.9653333 C31.9533474,55.4384242 33.0815579,54.2381212 34.5157895,54.0114545 L34.5157895,45.8365369 L25.3971368,45.8365369 C25.2886737,45.8365369 25.1821474,45.8293248 25.0756211,45.8210824 L24.8664421,45.823143 C24.7744421,45.8303551 24.6824421,45.8365369 24.5894737,45.8365369 C17.6478316,45.8365369 12,39.1060606 12,31.7208485 C12,24.5210909 17.2265684,18.7091515 23.9541895,18.3557576 C26.3723368,13.2691515 31.3413053,10 36.6947368,10 C43.9782316,10 50.0124632,15.7192121 50.8724211,23.3650909 C54.0875789,24.2099394 56.3856421,27.3039394 56.3856421,30.8636364 C56.3856421,31.2221818 56.3594947,31.5869091 56.3052632,31.9701818 C57.3995789,33.4064242 58,35.1991515 58,37.0454545 C58,41.494303 54.5969684,45.8365369 50.4143579,45.8365369 L35.4842105,45.8365369 L35.4842105,54.0114545 C36.9184421,54.2381212 38.0466526,55.4384242 38.2597053,56.9653333 L57.5157895,56.9653333 Z M25.5354131,44.3973932 C25.6172127,44.4044649 25.6990123,44.4105263 25.7817414,44.4095161 L49.7955048,44.4095161 C53.2980155,44.4095161 56.1470588,41.3141401 56.1470588,37.507555 C56.1470588,35.8598532 55.5995591,34.2616532 54.6049502,33.0069349 C54.5147847,32.8917675 54.475744,32.738211 54.4999121,32.5886954 C54.5659095,32.1845993 54.5975139,31.8108105 54.5975139,31.4461137 C54.5975139,28.3123486 52.5460168,25.6038946 49.7192825,25.0048222 C49.5175721,24.9623921 49.3651273,24.7805489 49.345607,24.5572858 C48.7181668,17.3987237 43.2506063,12 36.6266968,12 C31.749395,12 27.2290368,15.0984067 25.1106128,19.8950272 C25.03532,20.0657578 24.8782275,20.1768842 24.7044034,20.1819354 C18.6196277,20.3597377 13.8529412,25.6776422 13.8529412,32.2876438 C13.8529412,38.9724033 18.8566606,44.4105263 25.0074337,44.4105263 C25.0743607,44.4105263 25.1403581,44.4044649 25.2063555,44.3994137 L25.365307,44.388301 L25.5354131,44.3973932 Z" id="Combined-Shape-Copy" stroke="#2E6C99" stroke-width="1.4256" fill="#2E6C99" fill-rule="nonzero"></path>
            <circle id="Oval-4-Copy" fill="#2E6C99" fill-rule="nonzero" cx="71.7335926" cy="24.7335926" r="3.73359261"></circle>
        </g>
    </g>
</svg>