<?xml version="1.0" encoding="UTF-8"?>
<svg width="137px" height="70px" viewBox="0 0 137 70" version="1.1" xmlns="http://www.w3.org/2000/svg" xmlns:xlink="http://www.w3.org/1999/xlink">
    <!-- Generator: Sketch 51.3 (57544) - http://www.bohemiancoding.com/sketch -->
    <title>ilus/ my_market / url</title>
    <desc>Created with Sketch.</desc>
    <defs></defs>
    <g id="ilus/-my_market-/-url" stroke="none" stroke-width="1" fill="none" fill-rule="evenodd">
        <g id="ilus/-my_market-/-app" transform="translate(31.000000, 27.000000)">
            <g id="Group-5">
                <g id="Group-41" transform="translate(0.200000, 0.480000)"></g>
            </g>
        </g>
        <g transform="translate(15.000000, 10.000000)">
            <g id="Group-9-Copy" transform="translate(0.000000, 6.200000)" stroke="#2E6C99" stroke-linecap="round" stroke-linejoin="round" stroke-width="2.496">
                <path d="M40.6655253,1.36415561 L40.6655253,30.4990907 L2.87857143,30.4990907 L2.87857143,1.36415561 C2.87857143,0.610753412 3.51368163,0 4.29712965,0 L39.2469663,0 C40.0304143,-1.52805458e-15 40.6655253,0.610753326 40.6655253,1.36415561 Z" id="Shape"></path>
                <path d="M42.9371429,30.5439697 L42.9371429,31.6651015 C42.9371429,33.7038145 41.3359649,35.3726401 39.3680016,35.3726401 L3.56914123,35.3726401 C1.59222402,35.3726401 0,33.7038145 0,31.6651015 L0,30.5439697 L42.9371429,30.5439697 Z" id="Shape"></path>
            </g>
            <g id="illus-/-my_market-/-api-copy-3" transform="translate(55.900000, 0.000000)" fill="#2E6C99">
                <path d="M19.4290668,26.0099904 C19.4290668,32.338484 16.3831096,35.4731584 10.8234984,35.4731584 C5.2343148,35.4731584 2.1883576,32.338484 2.1883576,26.0099904 L2.1883576,13.0277068 L6.2693488,13.0277068 L6.2693488,25.8029836 C6.2693488,30.2388436 7.3043828,31.9244704 10.8234984,31.9244704 C14.3130416,31.9244704 15.377648,30.2388436 15.377648,25.8029836 L15.377648,13.0277068 L19.4290668,13.0277068 L19.4290668,26.0099904 Z M41.1647808,35 L36.7880656,35 L31.938192,26.86759 C31.346744,26.8971624 30.6961512,26.8971624 30.015986,26.8971624 L27.9754904,26.8971624 L27.9754904,35 L23.953644,35 L23.953644,13.0277068 C25.9054224,12.9389896 27.8867732,12.8798448 30.1047032,12.8798448 C35.3981628,12.8798448 39.774878,13.9444512 39.774878,19.7406416 L39.774878,19.9476484 C39.774878,23.2893296 38.3258304,25.0341012 35.9896108,26.0395628 L41.1647808,35 Z M35.7234592,19.9772208 L35.7234592,19.7997864 C35.7234592,16.3989604 33.3576672,16.369388 27.9754904,16.369388 L27.9754904,23.5850536 C28.7443728,23.614626 29.4836828,23.614626 30.2525652,23.614626 C34.0378324,23.614626 35.7234592,22.8161712 35.7234592,19.9772208 Z M57.4296008,35 L43.9741588,35 L43.9741588,13.0277068 L48.1142948,13.0277068 L48.1142948,31.5104568 L57.4296008,31.5104568 L57.4296008,35 Z" id="URL"></path>
            </g>
            <g id="noun_url_1014254" transform="translate(10.400000, 10.100000)" fill="#2E6C99" fill-rule="nonzero">
                <g id="Group">
                    <path d="M13.26,13.2330488 C13.8259756,12.6670732 14.2841463,11.9393902 14.607561,11.1308537 C14.7962195,10.6457317 14.5536585,10.1067073 14.0415854,9.91804878 C13.7990244,9.83719512 13.5564634,9.83719512 13.3139024,9.945 C13.0982927,10.0528049 12.9096341,10.2414634 12.8287805,10.4840244 C12.640122,11.0230488 12.3167073,11.5081707 11.912439,11.912439 C11.2117073,12.6131707 10.2414634,13.017439 9.21731707,13.017439 C8.22012195,13.017439 7.22292683,12.6131707 6.52219512,11.912439 L3.12634146,8.54353659 C2.42560976,7.84280488 2.02134146,6.87256098 2.02134146,5.84841463 C2.02134146,4.85121951 2.42560976,3.85402439 3.12634146,3.15329268 C4.60865854,1.67097561 7.03426829,1.67097561 8.51658537,3.15329268 L11.669878,6.30658537 C11.8585366,6.4952439 12.1280488,6.60304878 12.3706098,6.57609756 C12.6131707,6.57609756 12.8557317,6.46829268 12.9904878,6.30658537 C13.1791463,6.11792683 13.2869512,5.87536585 13.26,5.60585366 C13.26,5.36329268 13.1521951,5.12073171 12.9904878,4.98597561 L9.86414634,1.80573171 C8.78609756,0.727682927 7.35768293,0.134756098 5.82146341,0.134756098 C5.82146341,0.134756098 5.82146341,0.134756098 5.7945122,0.134756098 C4.2852439,0.134756098 2.85682927,0.727682927 1.77878049,1.80573171 C0.700731707,2.88378049 0.107804878,4.31219512 0.107804878,5.84841463 C0.107804878,7.35768293 0.700731707,8.78609756 1.77878049,9.89109756 L5.14768293,13.2330488 C6.22573171,14.3110976 7.65414634,14.9040244 9.19036585,14.9040244 C10.6996341,14.9040244 12.155,14.3110976 13.26,13.2330488 Z" id="Shape"></path>
                    <path d="M20.3212195,12.2089024 L16.9253659,8.86695122 C15.8473171,7.78890244 14.4189024,7.19597561 12.8826829,7.19597561 C11.3734146,7.19597561 9.945,7.78890244 8.84,8.86695122 C8.27402439,9.43292683 7.81585366,10.1606098 7.49243902,10.9691463 C7.41158537,11.2117073 7.41158537,11.4542683 7.51939024,11.6968293 C7.62719512,11.912439 7.81585366,12.1010976 8.05841463,12.1819512 C8.54353659,12.3706098 9.08256098,12.1280488 9.27121951,11.6159756 C9.48682927,11.0769512 9.78329268,10.5918293 10.187561,10.187561 C10.8882927,9.48682927 11.8585366,9.08256098 12.8826829,9.08256098 C13.879878,9.08256098 14.8770732,9.48682927 15.5778049,10.187561 L18.9467073,13.5564634 C19.647439,14.2571951 20.0517073,15.227439 20.0517073,16.2515854 C20.0517073,17.2487805 19.647439,18.2459756 18.9467073,18.9467073 C18.2459756,19.6743902 17.3026829,20.0786585 16.3054878,20.0786585 C16.3054878,20.0786585 16.2785366,20.0786585 16.2785366,20.0786585 C15.2813415,20.0786585 14.3110976,19.6743902 13.6103659,18.9736585 L10.4031707,15.8203659 C10.2145122,15.6317073 9.97195122,15.5239024 9.70243902,15.5508537 C9.45987805,15.5508537 9.21731707,15.6586585 9.08256098,15.8203659 C8.89390244,16.0090244 8.78609756,16.2515854 8.81304878,16.5210976 C8.81304878,16.7636585 8.92085366,17.0062195 9.08256098,17.1409756 L12.2358537,20.2942683 C13.3139024,21.3723171 14.7423171,21.9652439 16.2785366,21.9652439 C17.7878049,21.9652439 19.2162195,21.3723171 20.3212195,20.2942683 C21.3992683,19.2162195 21.9921951,17.7878049 21.9921951,16.2515854 C21.9652439,14.7423171 21.3992683,13.3139024 20.3212195,12.2089024 Z" id="Shape"></path>
                </g>
            </g>
        </g>
        <rect id="Rectangle" x="0" y="0" width="137" height="70"></rect>
    </g>
</svg>