<?xml version="1.0" encoding="UTF-8"?>
<svg width="137px" height="70px" viewBox="0 0 137 70" version="1.1" xmlns="http://www.w3.org/2000/svg" xmlns:xlink="http://www.w3.org/1999/xlink">
    <!-- Generator: Sketch 51.3 (57544) - http://www.bohemiancoding.com/sketch -->
    <title>ilus/ my_market / web</title>
    <desc>Created with Sketch.</desc>
    <defs></defs>
    <g id="ilus/-my_market-/-web" stroke="none" stroke-width="1" fill="none" fill-rule="evenodd">
        <g transform="translate(13.000000, 13.000000)">
            <g id="Group-9" transform="translate(0.000000, 3.280000)" stroke="#2E6C99">
                <path d="M41.2911488,1.38514262 L41.2911488,30.9683074 L2.92285714,30.9683074 L2.92285714,1.38514262 C2.92285714,0.620149618 3.56773827,0 4.36323934,0 L39.8507658,0 C40.6462668,-1.55156311e-15 41.2911488,0.620149531 41.2911488,1.38514262 Z" id="Shape" stroke-width="2.5344" stroke-linecap="round" stroke-linejoin="round"></path>
                <g id="Group-15" transform="translate(14.520000, 9.240000)" fill-rule="nonzero" stroke-width="2.64">
                    <path d="M16.23336,2.904 L8.294,2.904 L7.34066667,0 L0.92664,-1.11022302e-16 C0.414870859,-1.70118365e-17 -1.73695946e-16,0.414870859 -1.11022302e-16,0.92664 L0,13.59336 C-8.46410969e-16,14.1051291 0.414870859,14.52 0.92664,14.52 L16.23336,14.52 C16.7451291,14.52 17.16,14.1051291 17.16,13.59336 L17.16,3.83064 C17.16,3.31887086 16.7451291,2.904 16.23336,2.904 Z" id="Shape-Copy-19"></path>
                    <rect id="Rectangle-6" fill="#2E6C99" x="1.32" y="11.22" width="14.52" height="1"></rect>
                </g>
                <path d="M43.5977143,31.013877 L43.5977143,32.1522569 C43.5977143,34.2223348 41.9719028,35.9168346 39.9736632,35.9168346 L3.6240511,35.9168346 C1.61671978,35.9168346 0,34.2223348 0,32.1522569 L0,31.013877 L43.5977143,31.013877 Z" id="Shape" stroke-width="2.5344" stroke-linecap="round" stroke-linejoin="round"></path>
            </g>
            <g id="illus-/-my_market-/-api-copy-2" transform="translate(56.120000, 0.000000)" fill="#2E6C99">
                <path d="M24.7589232,12.7178832 L21.2102352,33 L16.105584,33 L13.5396096,22.2720432 C13.3212288,21.3712224 13.1847408,20.4158064 12.96636,19.5695808 L12.9117648,19.5695808 C12.693384,20.4158064 12.556896,21.3712224 12.3385152,22.2720432 L9.7998384,33 L4.640592,33 L1.1192016,12.7178832 L4.9954608,12.7178832 L7.0154832,25.0018032 C7.233864,26.312088 7.3976496,27.7042656 7.5887328,28.9326576 L7.6979232,28.9326576 C7.9981968,27.676968 8.2438752,26.3939808 8.5441488,25.1655888 L10.6733616,16.2392736 L15.286656,16.2392736 L17.4158688,25.2474816 C17.6888448,26.448576 17.9891184,27.7042656 18.2347968,28.9326576 L18.3439872,28.9326576 C18.5077728,27.6496704 18.6715584,26.3939808 18.9172368,25.0018032 L20.9645568,12.7178832 L24.7589232,12.7178832 Z M40.9464,33 L28.0346352,33 L28.0346352,12.7178832 L40.9464,12.7178832 L40.9464,15.8844048 L31.8562992,15.8844048 L31.8562992,21.0436512 L40.3731504,21.0436512 L40.3731504,24.1009824 L31.8562992,24.1009824 L31.8562992,29.860776 L40.9464,29.860776 L40.9464,33 Z M59.3995776,27.131016 C59.3995776,32.2083696 55.6325088,33.1637856 50.3913696,33.1637856 C48.0710736,33.1637856 47.08836,33.1091904 44.5223856,33 L44.5223856,12.7178832 C47.1975504,12.6086928 48.180264,12.5540976 50.50056,12.5540976 C55.9327824,12.5540976 59.2903872,13.5095136 59.2903872,18.0682128 L59.2903872,18.3138912 C59.2903872,20.0609376 58.5260544,21.7533888 56.7244128,22.5723168 C58.6352448,23.3639472 59.3995776,25.1109936 59.3995776,26.85804 L59.3995776,27.131016 Z M55.6598064,27.131016 L55.6598064,26.8307424 C55.6325088,25.0563984 54.8135808,23.9371968 51.7016544,23.9371968 L48.2348592,23.9371968 L48.2348592,30.0245616 L49.272168,30.0245616 C53.4214032,30.0245616 55.6598064,29.997264 55.6598064,27.131016 Z M55.5779136,18.4503792 L55.5779136,18.2047008 C55.5779136,15.8844048 53.7489744,15.6933216 50.50056,15.6933216 L48.2348592,15.6933216 L48.2348592,21.1801392 L51.6743568,21.1801392 C54.8135808,21.1801392 55.5779136,20.1428304 55.5779136,18.4503792 Z" id="WEB"></path>
            </g>
        </g>
        <rect id="Rectangle" x="0" y="0" width="137" height="70"></rect>
    </g>
</svg>