<?xml version="1.0" encoding="UTF-8"?>
<svg width="33px" height="34px" viewBox="0 0 33 34" version="1.1" xmlns="http://www.w3.org/2000/svg" xmlns:xlink="http://www.w3.org/1999/xlink">
    <!-- Generator: sketchtool 51.2 (57519) - http://www.bohemiancoding.com/sketch -->
    <title>8A8F2589-3D64-4975-93DA-4DDE7F49347D</title>
    <desc>Created with sketchtool.</desc>
    <defs></defs>
    <g id="Page-1" stroke="none" stroke-width="1" fill="none" fill-rule="evenodd">
        <g id="Assets_graficos" transform="translate(-572.000000, -914.000000)" fill-rule="nonzero">
            <g id="ico-/-cards-/-apis" transform="translate(573.000000, 915.000000)">
                <g id="Group-19">
                    <path d="M30.4971219,29.3167686 L17.5948927,29.3167686 C17.4521402,28.3636392 16.6962009,27.6143843 15.7352172,27.4728941 L15.7352172,21.9194039 L25.738922,21.9194039 C28.5414129,21.9194039 30.8215594,19.6594196 30.8215594,16.8823529 C30.8215594,15.729851 30.4192569,14.6107922 29.6860283,13.7142588 C29.7223653,13.4750118 29.7398849,13.2473412 29.7398849,13.0235294 C29.7398849,10.8014902 28.2001047,8.87014902 26.0458399,8.34277647 C25.4696389,3.5700549 21.4264992,0 16.5463108,0 C12.9593302,0 9.6299529,2.04067451 8.00971219,5.21584314 C3.50197802,5.43643922 0,9.06437647 0,13.5586196 C0,18.1686275 3.78423862,21.9194039 8.43537415,21.9194039 C8.49766614,21.9194039 8.55930926,21.9155451 8.62095238,21.9110431 L8.68194662,21.9046118 L8.76110937,21.9097569 C8.83248561,21.914902 8.90386185,21.9194039 8.97653585,21.9194039 L15.0863422,21.9194039 L15.0863422,27.4728941 C14.1253585,27.6143843 13.3694192,28.3636392 13.2266667,29.3167686 L0.324437467,29.3167686 C0.145347985,29.3167686 0,29.4608314 0,29.6383373 C0,29.8158431 0.145347985,29.9599059 0.324437467,29.9599059 L13.2266667,29.9599059 C13.3849922,31.0185098 14.2992569,31.8352941 15.4107797,31.8352941 C16.5223025,31.8352941 17.4365672,31.0178667 17.5948927,29.9599059 L30.4971219,29.9599059 C30.6762114,29.9599059 30.8215594,29.8158431 30.8215594,29.6383373 C30.8215594,29.4608314 30.6762114,29.3167686 30.4971219,29.3167686 Z M15.4107797,31.1921569 C14.5458294,31.1921569 13.842449,30.4949961 13.842449,29.6383373 C13.842449,28.7810353 14.5458294,28.0832314 15.4107797,28.0832314 C16.27573,28.0832314 16.9791104,28.7810353 16.9791104,29.6383373 C16.9791104,30.4949961 16.27573,31.1921569 15.4107797,31.1921569 Z M8.80393511,21.2679059 L8.685191,21.2621176 L8.57423339,21.2691922 C8.52816327,21.2724078 8.48209314,21.2762667 8.43537415,21.2762667 C4.14176871,21.2762667 0.648874935,17.8142588 0.648874935,13.5586196 C0.648874935,9.35057255 3.9763056,5.96509804 8.22384092,5.85190588 C8.34518053,5.8486902 8.4548404,5.7779451 8.50739927,5.6692549 C9.98618524,2.61563922 13.1416641,0.643137255 16.5463108,0.643137255 C21.1701936,0.643137255 24.986876,4.08006275 25.4248666,8.63733333 C25.4384929,8.77946667 25.5449084,8.89523137 25.6857143,8.92224314 C27.658943,9.30362353 29.0910099,11.0278745 29.0910099,13.0228863 C29.0910099,13.2550588 29.0689482,13.4930196 29.0228781,13.7502745 C29.0060073,13.8454588 29.0332601,13.9432157 29.0962009,14.0165333 C29.7904971,14.8153098 30.1726845,15.8327529 30.1726845,16.8817098 C30.1726845,19.305051 28.1838828,21.2756235 25.738922,21.2756235 L8.97588697,21.2756235 C8.9181371,21.2762667 8.86103611,21.2724078 8.80393511,21.2679059 Z" id="Shape-Copy-16" stroke="#5789AD" stroke-width="0.8" fill="#2E6C99"></path>
                    <path d="M15.9342222,15.8498734 C14.3164444,15.8498734 13,14.5375949 13,12.9249367 C13,11.3122785 14.3164444,10 15.9342222,10 C17.5524444,10 18.8684444,11.3122785 18.8684444,12.9249367 C18.8684444,14.5375949 17.5524444,15.8498734 15.9342222,15.8498734 Z M15.9342222,11.6618354 C15.2355556,11.6618354 14.6671111,12.228481 14.6671111,12.9249367 C14.6671111,13.6213924 15.2355556,14.188038 15.9342222,14.188038 C16.6328889,14.188038 17.2013333,13.6213924 17.2013333,12.9249367 C17.2013333,12.228481 16.6328889,11.6618354 15.9342222,11.6618354 Z" id="Shape" fill="#5789AD"></path>
                    <path d="M9.83377778,13.8972152 C9.37288889,13.8972152 9,13.5250633 9,13.0660759 C9,9.72113924 11.7297778,7 15.0853333,7 C15.5462222,7 15.9191111,7.37170886 15.9191111,7.83113924 C15.9191111,8.28968354 15.5462222,8.66183544 15.0853333,8.66183544 C12.6493333,8.66183544 10.6671111,10.6373418 10.6671111,13.0660759 C10.6671111,13.5250633 10.2937778,13.8972152 9.83377778,13.8972152 Z" id="Shape" fill="#5789AD"></path>
                    <path d="M16.8333333,18.8963291 C16.3728889,18.8963291 16,18.5246203 16,18.0656329 C16,17.6070886 16.3733333,17.2349367 16.8333333,17.2349367 C19.2693333,17.2349367 21.2511111,15.2589873 21.2511111,12.8306962 C21.2511111,12.3717089 21.6244444,12 22.0848889,12 C22.5453333,12 22.9182222,12.3721519 22.9182222,12.8306962 C22.9186667,16.1751899 20.1888889,18.8963291 16.8333333,18.8963291 Z" id="Shape" fill="#5789AD"></path>
                </g>
            </g>
        </g>
    </g>
</svg>