<svg width="80" height="105" viewBox="0 0 80 105" fill="none" xmlns="http://www.w3.org/2000/svg">
<path d="M47.3403 72.2304L47.3279 89.7539L2 102.701L2.11161 2L47.4147 15.0465L47.4023 33.5869" stroke="#79C4B3" stroke-width="2.48032" stroke-miterlimit="10"/>
<path d="M73.184 64.1688C73.6977 64.1688 74.1141 63.7524 74.1141 63.2387C74.1141 62.725 73.6977 62.3086 73.184 62.3086C72.6703 62.3086 72.2539 62.725 72.2539 63.2387C72.2539 63.7524 72.6703 64.1688 73.184 64.1688Z" stroke="#1A3B47" stroke-width="2.48032" stroke-miterlimit="10" stroke-linecap="round" stroke-linejoin="round"/>
<path d="M7.53145 58.4548C7.17181 58.8145 7.17181 59.4097 7.53145 59.7818C7.8911 60.1414 8.48638 60.1414 8.85843 59.7818C9.21807 59.4221 9.21807 58.8269 8.85843 58.4548C8.48638 58.0828 7.9035 58.0828 7.53145 58.4548Z" stroke="#1A3B47" stroke-width="2.48032" stroke-miterlimit="10" stroke-linecap="round" stroke-linejoin="round"/>
<path d="M3.68701 67.0097H16.5723V31.7891H3.625" stroke="#1A3B47" stroke-width="2.48032" stroke-miterlimit="10" stroke-linecap="round" stroke-linejoin="round"/>
<path d="M78.0241 70.5917H66.5898V35.3711H77.9869" stroke="#1A3B47" stroke-width="2.48032" stroke-miterlimit="10" stroke-linecap="round" stroke-linejoin="round"/>
<path d="M17.1914 35.9414H37.2448" stroke="#1A3B47" stroke-width="2.48032" stroke-miterlimit="10" stroke-linecap="round" stroke-linejoin="round"/>
<path d="M66.3263 38.8563L54.3339 33.3004H43.4205C43.4205 33.3004 40.9774 33.0896 38.7947 34.9126C36.1656 37.1077 27.5464 47.8351 27.5464 47.8351C27.5464 47.8351 26.9512 50.1914 28.4021 51.1215C29.8531 52.0517 31.6266 52.3741 32.5567 52.1633C33.4868 51.9524 35.9795 50.7123 37.0213 49.7698C38.063 48.8396 41.4859 45.0944 41.4859 45.0944C41.4859 45.0944 44.4002 43.0109 46.4713 43.8542C48.5424 44.6851 49.3857 46.0369 49.3857 46.0369L59.6666 64.4285C59.6666 64.4285 60.9068 66.822 58.5257 68.583C56.1322 70.3441 55.2144 70.034 54.3711 69.3519C53.8007 68.8807 52.4985 67.0824 52.4985 67.0824C52.4985 67.0824 52.4489 69.786 50.5762 70.9269C48.7036 72.0679 47.4386 71.9191 46.6325 71.3362C46.0124 70.8897 44.7599 68.9427 44.7599 68.9427C44.7599 68.9427 44.8095 71.485 42.9989 72.5763C41.1758 73.6677 39.452 73.37 38.8443 72.6756C38.4971 72.2787 37.2445 70.5549 37.0089 70.2324L36.9965 70.2572C37.1205 70.6541 37.6041 72.6135 35.8307 73.8785C33.8589 75.2799 32.4079 75.5899 31.6266 74.759C30.8453 73.9281 21.1348 60.7824 21.1348 60.7824H16.5586" stroke="#1A3B47" stroke-width="2.48032" stroke-miterlimit="10" stroke-linecap="round" stroke-linejoin="round"/>
<path d="M44.773 68.9189L39.6016 60.957" stroke="#1A3B47" stroke-width="2.48032" stroke-miterlimit="10" stroke-linecap="round" stroke-linejoin="round"/>
<path d="M45.5547 57.3242L52.8592 67.5804" stroke="#1A3B47" stroke-width="2.48032" stroke-miterlimit="10" stroke-linecap="round" stroke-linejoin="round"/>
<path d="M36.985 70.1723L33.4258 65.1992" stroke="#1A3B47" stroke-width="2.48032" stroke-miterlimit="10" stroke-linecap="round" stroke-linejoin="round"/>
<path d="M58.9492 62.4336H66.0181" stroke="#1A3B47" stroke-width="2.48032" stroke-miterlimit="10" stroke-linecap="round" stroke-linejoin="round"/>
</svg>
