<?xml version="1.0" encoding="UTF-8"?>
<svg width="38px" height="21px" viewBox="0 0 38 21" version="1.1" xmlns="http://www.w3.org/2000/svg" xmlns:xlink="http://www.w3.org/1999/xlink">
    <!-- Generator: sketchtool 51.2 (57519) - http://www.bohemiancoding.com/sketch -->
    <title>E44B0A59-E119-45E6-836D-5F56BB03C8D4</title>
    <desc>Created with sketchtool.</desc>
    <defs></defs>
    <g id="Page-1" stroke="none" stroke-width="1" fill="none" fill-rule="evenodd">
        <g id="Assets_graficos" transform="translate(-571.000000, -858.000000)" fill-rule="nonzero">
            <g id="ico-/-cards-/-connect_device" transform="translate(571.000000, 858.000000)">
                <rect id="Rectangle-9" stroke="#5789AD" x="0.5" y="0.5" width="37" height="20" rx="10"></rect>
                <ellipse id="Oval" stroke="#5789AD" cx="11.1613411" cy="11.2360995" rx="6.1613411" ry="6.23609953"></ellipse>
                <path d="M26.0838243,14.2236157 L24.2960824,12.4141771 C24.1065041,12.2223011 24,11.96206 24,11.6907046 C24,11.4193492 24.1065041,11.159108 24.2960824,10.967232 C24.4856581,10.7753536 24.7427796,10.6675572 25.0108819,10.6675572 C25.2789843,10.6675572 25.5361057,10.7753536 25.7256815,10.967232 L26.6789177,11.9320292 L30.2677316,8.29967063 C30.6625053,7.90010979 31.302557,7.90010979 31.6973307,8.29967063 C31.8869092,8.4915475 31.9934135,8.75178952 31.9934135,9.02314574 C31.9934135,9.29450196 31.8869092,9.55474399 31.6973307,9.74662086 L27.2740061,14.2236157 C26.945346,14.556262 26.4124844,14.556262 26.0838243,14.2236157 Z" id="Shape" fill="#5789AD"></path>
            </g>
        </g>
    </g>
</svg>