<svg width="198" height="62" xmlns="http://www.w3.org/2000/svg">
 <!-- Generator: sketchtool 51.2 (57519) - http://www.bohemiancoding.com/sketch -->
 <title>168B54D1-393B-428B-8116-E845778F1F86</title>
 <desc>Created with sketchtool.</desc>

 <g>
  <title>background</title>
  <rect fill="none" id="canvas_background" height="21.375043" width="63.875139" y="-1" x="-1"/>
 </g>
 <g>
  <title>Layer 1</title>
  <g fill-rule="evenodd" fill="none" id="Page-1">
   <g id="Assets_graficos">
    <g id="ilus/-onthology_wizard-/-from_rest_api">
     <circle r="4.5" cy="22.447369" cx="50.078949" fill="#2E6C99" id="Oval-2"/>
     <circle r="4.5" cy="39.447369" cx="50.078949" fill="#2E6C99" id="Oval-2-Copy"/>
     <circle r="4.5" cy="30.447369" cx="33.078949" fill="#2E6C99" id="Oval-2-Copy-2"/>
     <rect height="2" width="15" y="25.133946" x="34.258275" transform="rotate(-26 41.758270263671854,26.13394737243652) " fill="#2E6C99" id="Rectangle-8"/>
     <polygon points="34.578948974609375,32.744975090026855 35.455657958984375,30.947367668151855 48.937591552734375,37.522929191589355 48.060882568359375,39.320536613464355 " fill="#2E6C99" id="Rectangle-8-Copy"/>
     <path stroke="null" fill-rule="nonzero" fill="#2E6C99" id="Shape-Copy-6" d="m108.505065,20.578947l-1.761386,1.816507l7.326345,7.743056l-35.859498,0l0,2.333355l35.859498,0l-7.326345,7.743056l1.761386,1.923841l9.651803,-10.18773c0.424922,-0.426167 0.756628,-0.5475 -0.000006,-1.291667l-9.651797,-10.080418z"/>
     <g stroke="null" id="svg_34">
      <g stroke="null" transform="matrix(0.6743628409159405,0,0,0.6376697880511533,36.75490533485409,58.40366478198799) " id="svg_5">
       <path stroke="null" fill="#2e6c99" id="svg_6" d="m201.747252,-49.532626l-10.899,0c-0.553,0 -1,0.447 -1,1s0.447,1 1,1l9.102,0l2.899,27l-50.522,0l3.403,-27l9.118,0c0.553,0 1,-0.447 1,-1s-0.447,-1 -1,-1l-10.882,0l-3.907,31l55.017,0l-3.329,-31z"/>
       <path stroke="null" fill="#2e6c99" id="svg_7" d="m176.713252,-33.577626c-0.147,0.087 -0.304,0.164 -0.445,0.255c-0.22,0.142 -0.435,0.291 -0.646,0.445c-0.445,0.327 -0.541,0.953 -0.215,1.398c0.196,0.267 0.5,0.408 0.808,0.408c0.205,0 0.412,-0.063 0.591,-0.193c0.178,-0.131 0.359,-0.257 0.548,-0.379c0.321,-0.208 0.662,-0.403 1.014,-0.581c0.468,-0.237 0.658,-0.791 0.462,-1.269c0.008,-0.008 0.018,-0.014 0.025,-0.022c1.809,-1.916 7.905,-9.096 10.429,-21.058c0.512,-2.426 0.627,-4.754 0.342,-6.919c-0.86,-6.575 -4.945,-10.051 -11.813,-10.051c-6.866,0 -10.951,3.476 -11.813,10.051c-0.284,2.166 -0.169,4.494 0.343,6.919c2.499,11.846 8.499,18.998 10.37,20.996zm-8.73,-27.654c0.733,-5.592 3.949,-8.311 9.831,-8.311c5.883,0 9.098,2.719 9.83,8.311c0.255,1.94 0.148,4.043 -0.316,6.247c-2.269,10.753 -7.679,17.576 -9.514,19.646c-1.837,-2.072 -7.246,-8.898 -9.514,-19.646c-0.465,-2.204 -0.571,-4.306 -0.317,-6.247z"/>
       <path stroke="null" fill="#2e6c99" id="svg_8" d="m177.814252,-52.620626c4.051,0 7.346,-3.295 7.346,-7.346s-3.295,-7.346 -7.346,-7.346s-7.346,3.295 -7.346,7.346s3.295,7.346 7.346,7.346zm0,-12.691c2.947,0 5.346,2.398 5.346,5.346s-2.398,5.346 -5.346,5.346s-5.346,-2.398 -5.346,-5.346s2.399,-5.346 5.346,-5.346z"/>
       <path stroke="null" fill="#2e6c99" id="svg_9" d="m181.487252,-35.375626c-0.54,0.114 -0.884,0.646 -0.769,1.187c0.1,0.47 0.515,0.791 0.977,0.791c0.069,0 0.14,-0.007 0.21,-0.022c0.586,-0.124 1.221,-0.229 1.886,-0.313c0.548,-0.067 0.938,-0.567 0.869,-1.115c-0.068,-0.549 -0.563,-0.945 -1.115,-0.869c-0.723,0.089 -1.416,0.204 -2.058,0.341z"/>
       <path stroke="null" fill="#2e6c99" id="svg_10" d="m186.658252,-34.969626c0.022,0.537 0.466,0.957 0.998,0.957c0.015,0 0.029,0 0.044,-0.001l2.001,-0.083c0.551,-0.025 0.979,-0.493 0.953,-1.044c-0.025,-0.553 -0.539,-0.984 -1.044,-0.954l-1.996,0.083c-0.552,0.023 -0.98,0.489 -0.956,1.042z"/>
       <path stroke="null" fill="#2e6c99" id="svg_11" d="m172.492252,-30.368626c-0.514,0.388 -1.045,0.761 -1.58,1.107c-0.463,0.301 -0.595,0.92 -0.294,1.384c0.191,0.295 0.513,0.455 0.84,0.455c0.187,0 0.375,-0.052 0.544,-0.161c0.573,-0.372 1.144,-0.772 1.695,-1.188c0.44,-0.333 0.528,-0.96 0.196,-1.401c-0.333,-0.437 -0.958,-0.529 -1.401,-0.196z"/>
       <path stroke="null" fill="#2e6c99" id="svg_12" d="m194.779252,-36.962626c-0.338,0.237 -0.777,0.409 -1.346,0.526c-0.541,0.111 -0.889,0.641 -0.777,1.182c0.098,0.473 0.514,0.798 0.979,0.798c0.067,0 0.135,-0.007 0.203,-0.021c0.842,-0.174 1.526,-0.452 2.096,-0.853l0.134,-0.098c0.44,-0.334 0.527,-0.961 0.194,-1.401c-0.334,-0.44 -0.96,-0.526 -1.401,-0.194l-0.082,0.061z"/>
       <path stroke="null" fill="#2e6c99" id="svg_13" d="m158.919252,-29.143626c0.145,-0.533 -0.171,-1.082 -0.704,-1.226c-0.529,-0.149 -1.082,0.169 -1.226,0.704c-0.126,0.464 -0.201,0.938 -0.225,1.405c-0.005,0.115 -0.008,0.231 -0.008,0.353c0.001,0.196 0.01,0.392 0.029,0.587c0.053,0.515 0.487,0.898 0.994,0.898c0.033,0 0.067,-0.002 0.103,-0.005c0.549,-0.057 0.949,-0.547 0.894,-1.097c-0.014,-0.131 -0.019,-0.264 -0.02,-0.39c0,-0.083 0.003,-0.166 0.007,-0.248c0.016,-0.324 0.068,-0.655 0.156,-0.981z"/>
       <path stroke="null" fill="#2e6c99" id="svg_14" d="m194.757252,-44.735626c-0.794,-0.106 -1.604,-0.041 -2.386,0.181c-0.532,0.149 -0.841,0.702 -0.69,1.233c0.124,0.441 0.525,0.729 0.961,0.729c0.091,0 0.182,-0.012 0.272,-0.038c0.52,-0.146 1.055,-0.192 1.575,-0.122c0.562,0.07 1.052,-0.311 1.125,-0.857c0.074,-0.549 -0.31,-1.052 -0.857,-1.126z"/>
       <path stroke="null" fill="#2e6c99" id="svg_15" d="m196.747252,-39.781626c-0.163,0.527 0.133,1.088 0.66,1.25c0.099,0.031 0.197,0.045 0.295,0.045c0.428,0 0.823,-0.275 0.955,-0.705c0.099,-0.318 0.16,-0.641 0.183,-0.963c0.005,-0.083 0.008,-0.167 0.008,-0.25c0,-0.468 -0.086,-0.937 -0.255,-1.392c-0.192,-0.519 -0.771,-0.781 -1.285,-0.59c-0.519,0.192 -0.782,0.768 -0.59,1.285c0.086,0.232 0.13,0.467 0.13,0.696l-0.003,0.117c-0.012,0.166 -0.044,0.332 -0.098,0.507z"/>
       <path stroke="null" fill="#2e6c99" id="svg_16" d="m167.540252,-27.381626c-0.586,0.275 -1.183,0.53 -1.774,0.759c-0.515,0.198 -0.771,0.777 -0.572,1.293c0.153,0.396 0.531,0.64 0.933,0.64c0.12,0 0.242,-0.021 0.36,-0.067c0.635,-0.245 1.275,-0.519 1.903,-0.813c0.5,-0.234 0.715,-0.83 0.48,-1.33c-0.233,-0.501 -0.827,-0.718 -1.33,-0.482z"/>
       <path stroke="null" fill="#2e6c99" id="svg_17" d="m160.260252,-31.544626c0.161,0 0.325,-0.039 0.478,-0.122c0.288,-0.157 0.595,-0.255 0.911,-0.289c0.135,-0.016 0.273,-0.016 0.406,0.002c0.563,0.073 1.05,-0.313 1.122,-0.86c0.072,-0.548 -0.313,-1.05 -0.86,-1.122c-0.298,-0.039 -0.601,-0.041 -0.891,-0.008c-0.574,0.063 -1.128,0.239 -1.646,0.521c-0.485,0.265 -0.664,0.871 -0.399,1.356c0.182,0.334 0.525,0.522 0.879,0.522z"/>
       <path stroke="null" fill="#2e6c99" id="svg_18" d="m160.052252,-23.703626c0.216,0.056 0.436,0.098 0.654,0.124c0.256,0.031 0.512,0.047 0.769,0.047c0.313,0 0.627,-0.022 0.94,-0.062c0.548,-0.069 0.937,-0.569 0.867,-1.117s-0.567,-0.934 -1.117,-0.867c-0.404,0.052 -0.812,0.064 -1.216,0.015c-0.132,-0.017 -0.264,-0.042 -0.394,-0.075c-0.535,-0.143 -1.08,0.181 -1.22,0.716c-0.137,0.535 0.183,1.081 0.717,1.219z"/>
      </g>
      <g stroke="null" transform="matrix(0.6743628409159405,0,0,0.6376697880511533,36.75490533485409,58.40366478198799) " id="svg_19"/>
      <g stroke="null" transform="matrix(0.6743628409159405,0,0,0.6376697880511533,36.75490533485409,58.40366478198799) " id="svg_20"/>
      <g stroke="null" transform="matrix(0.6743628409159405,0,0,0.6376697880511533,36.75490533485409,58.40366478198799) " id="svg_21"/>
      <g stroke="null" transform="matrix(0.6743628409159405,0,0,0.6376697880511533,36.75490533485409,58.40366478198799) " id="svg_22"/>
      <g stroke="null" transform="matrix(0.6743628409159405,0,0,0.6376697880511533,36.75490533485409,58.40366478198799) " id="svg_23"/>
      <g stroke="null" transform="matrix(0.6743628409159405,0,0,0.6376697880511533,36.75490533485409,58.40366478198799) " id="svg_24"/>
      <g stroke="null" transform="matrix(0.6743628409159405,0,0,0.6376697880511533,36.75490533485409,58.40366478198799) " id="svg_25"/>
      <g stroke="null" transform="matrix(0.6743628409159405,0,0,0.6376697880511533,36.75490533485409,58.40366478198799) " id="svg_26"/>
      <g stroke="null" transform="matrix(0.6743628409159405,0,0,0.6376697880511533,36.75490533485409,58.40366478198799) " id="svg_27"/>
      <g stroke="null" transform="matrix(0.6743628409159405,0,0,0.6376697880511533,36.75490533485409,58.40366478198799) " id="svg_28"/>
      <g stroke="null" transform="matrix(0.6743628409159405,0,0,0.6376697880511533,36.75490533485409,58.40366478198799) " id="svg_29"/>
      <g stroke="null" transform="matrix(0.6743628409159405,0,0,0.6376697880511533,36.75490533485409,58.40366478198799) " id="svg_30"/>
      <g stroke="null" transform="matrix(0.6743628409159405,0,0,0.6376697880511533,36.75490533485409,58.40366478198799) " id="svg_31"/>
      <g stroke="null" transform="matrix(0.6743628409159405,0,0,0.6376697880511533,36.75490533485409,58.40366478198799) " id="svg_32"/>
      <g stroke="null" transform="matrix(0.6743628409159405,0,0,0.6376697880511533,36.75490533485409,58.40366478198799) " id="svg_33"/>
     </g>
    </g>
   </g>
  </g>
 </g>
</svg>