<svg width="198" height="61.99999999999999" xmlns="http://www.w3.org/2000/svg">
 <!-- Generator: sketchtool 51.2 (57519) - http://www.bohemiancoding.com/sketch -->
 <title>168B54D1-393B-428B-8116-E845778F1F86</title>
 <desc>Created with sketchtool.</desc>

 <g>
  <title>background</title>
  <rect fill="none" id="canvas_background" height="402" width="582" y="-1" x="-1"/>
 </g>
 <g>
  <title>Layer 1</title>
  <g fill-rule="evenodd" fill="none" id="Page-1">
   <g id="Assets_graficos">
    <g id="ilus/-onthology_wizard-/-from_rest_api">
     <path fill-rule="nonzero" fill="#2E6C99" id="Shape-Copy-6" d="m125.584859,29l-1.76139,1.81651l7.32635,7.74305l-35.8595,0l0,2.33336l35.8595,0l-7.32635,7.74305l1.76139,1.92384l9.6518,-10.18772c0.42492,-0.42617 0.75663,-0.5475 0,-1.29167l-9.6518,-10.08042z"/>
     <rect rx="6" height="48" width="74" y="11" x="2.290319" fill-rule="nonzero" stroke-width="2" stroke="#2E6C99" id="Rectangle-17"/>
     <path fill-rule="nonzero" fill="#2E6C99" stroke-width="1.296" stroke="#2E6C99" id="Shape-Copy" d="m68.037689,58.81484l-10.04665,0c-0.11116,-0.77843 -0.69979,-1.39035 -1.44809,-1.5059l0,-3.8134l8.04587,0c2.18223,0 4.61024,-2.318 3.95773,-4.48173c-0.25623,-0.84965 -0.56949,-1.85519 -1.14044,-2.5874c0.02829,-0.19539 0.04194,-0.38133 0.04194,-0.56412c0,-1.81474 -1.19899,-2.61801 -2.87647,-3.04871c-0.44867,-3.8979 -3.59697,-6.81358 -7.39705,-6.81358c-2.79309,0 -5.3856,1.66663 -6.64724,4.2598c-3.51006,0.18016 -6.23697,2.36904 -6.23697,6.0395c0,3.76501 2.94669,7.19624 6.56842,7.19624c0.04851,0 0.09651,-0.00316 0.14451,-0.00683l0.10913,-0.00105c0.05558,0.0042 0.11116,0.00788 0.16775,0.00788l4.75756,0l0,3.8134c-0.7483,0.11555 -1.33693,0.72747 -1.44809,1.5059l-10.04665,0c-0.13945,0 -0.25263,0.11765 -0.25263,0.26262c0,0.14497 0.11318,0.26263 0.25263,0.26263l10.04665,0c0.12329,0.86456 0.8352,1.53163 1.70072,1.53163c0.86552,0 1.57743,-0.66759 1.70072,-1.53163l10.04665,0c0.13945,0 0.25263,-0.11766 0.25263,-0.26263c0,-0.14497 -0.11318,-0.26262 -0.25263,-0.26262z"/>
     <path fill-rule="nonzero" fill="#2E6C99" stroke-width="1.296" stroke="#2E6C99" id="Shape-Copy-7" d="m75.676059,24.16904l-25.68502,0c-0.11116,-0.77842 -0.69979,-1.39034 -1.44809,-1.5059l0,-4.1676l8.04587,0c2.18223,0 4.61024,-2.318 3.95773,-4.48173c-0.25623,-0.84965 -0.56949,-1.85519 -1.14044,-2.5874c0.02829,-0.19539 0.04194,-0.38133 0.04194,-0.56412c0,-1.81474 -1.19899,-2.61801 -2.87647,-3.04871c-0.44867,-3.8979 -3.59697,-6.81358 -7.39705,-6.81358c-2.79309,0 -5.3856,1.66663 -6.64724,4.2598c-3.51006,0.18016 -6.23697,2.36904 -6.23697,6.0395c0,3.76501 2.94669,7.19624 6.56842,7.19624c0.04851,0 0.09651,-0.00316 0.14451,-0.00683c0.16471,0.00315 0.22029,0.00683 0.27688,0.00683l4.75756,0l0,4.1676c-0.7483,0.11556 -1.33693,0.72748 -1.44809,1.5059l-10.04665,0c-0.13945,0 -0.25263,0.11766 -0.25263,0.26263c0,0.14497 0.11318,0.26262 0.25263,0.26262l10.04665,0c0.12329,0.86457 0.8352,1.53164 1.70072,1.53164c0.86552,0 1.57743,-0.6676 1.70072,-1.53164l25.68502,0c0.13945,0 0.25263,-0.11765 0.25263,-0.26262c0,-0.14497 -0.11318,-0.26263 -0.25263,-0.26263z"/>
     <path fill-rule="nonzero" fill="#2E6C99" stroke-width="1.296" stroke="#2E6C99" id="Shape-Copy-8" d="m44.160439,45.16904l-17.1694,0c-0.11116,-0.77842 -0.69979,-1.39034 -1.44809,-1.5059l0,-4.1676l8.04587,0c2.18223,0 4.61024,-2.318 3.95773,-4.48173c-0.25623,-0.84965 -0.56949,-1.85519 -1.14044,-2.5874c0.02829,-0.19539 0.04194,-0.38133 0.04194,-0.56412c0,-1.81474 -1.19899,-2.61801 -2.87647,-3.04871c-0.44867,-3.8979 -3.59697,-6.81358 -7.39705,-6.81358c-2.79309,0 -5.3856,1.66663 -6.64724,4.2598c-3.51006,0.18016 -6.23697,2.36904 -6.23697,6.0395c0,3.76501 2.94669,7.19624 6.56842,7.19624c0.04851,0 0.09651,-0.00316 0.14451,-0.00683l0.10913,-0.00105c0.05558,0.0042 0.11116,0.00788 0.16775,0.00788l4.75756,0l0,4.1676c-0.7483,0.11556 -1.33693,0.72748 -1.44809,1.5059l-10.04665,0c-0.13945,0 -0.25263,0.11766 -0.25263,0.26263c0,0.14497 0.11318,0.26262 0.25263,0.26262l10.04665,0c0.12329,0.86457 0.8352,1.53164 1.70072,1.53164c0.86552,0 1.57743,-0.6676 1.70072,-1.53164l17.1694,0c0.13945,0 0.25263,-0.11765 0.25263,-0.26262c0,-0.14497 -0.11318,-0.26263 -0.25263,-0.26263z"/>
     <path fill-rule="nonzero" fill="#FFFFFF" stroke-width="1.340064" stroke="#2E6C99" id="Path-Copy-3" d="m51.026789,52.72497l-0.09809,-0.00465l-0.09165,0.00569c-0.03806,0.00258 -0.07611,0.00568 -0.11471,0.00568c-3.54672,0 -6.43202,-2.78116 -6.43202,-6.19987c0,-3.38049 2.74862,-6.10016 6.25729,-6.1911c0.10023,-0.00258 0.19081,-0.05941 0.23423,-0.14673c1.22155,-2.45308 3.63162,-4.19399 6.44403,-4.19399c3.81955,0 6.58422,2.91734 6.94602,6.57836c0.01126,0.11418 0.09916,0.20718 0.21548,0.22888c1.62998,0.30638 3.00943,1.69153 3.00943,3.2942c0,0.18651 -0.01822,0.37768 -0.05628,0.58434c-0.01393,0.07646 0.00858,0.155 0.06057,0.21389c0.57352,0.64169 0.88923,1.45904 0.88923,2.30171c0,1.94676 -1.64285,3.52979 -3.6625,3.52979l-13.45899,0c-0.0477,0.00052 -0.09487,-0.00258 -0.14204,-0.0062z"/>
     <path fill-rule="nonzero" fill="#2E6C99" id="Shape" d="m56.290319,48c-1.1027,0 -2,-0.8973 -2,-2c0,-1.1027 0.8973,-2 2,-2c1.103,0 2,0.8973 2,2c0,1.1027 -0.897,2 -2,2zm0,-2.86368c-0.47622,0 -0.86368,0.38746 -0.86368,0.86368c0,0.47622 0.38746,0.86368 0.86368,0.86368c0.47622,0 0.86368,-0.38746 0.86368,-0.86368c0,-0.47622 -0.38746,-0.86368 -0.86368,-0.86368z"/>
     <path fill-rule="nonzero" fill="#2E6C99" id="Shape" d="m52.772329,46c-0.26644,0 -0.48201,-0.21583 -0.48201,-0.48201c0,-1.93988 1.57811,-3.51799 3.51799,-3.51799c0.26644,0 0.48201,0.21557 0.48201,0.48201c0,0.26593 -0.21557,0.48176 -0.48201,0.48176c-1.40828,0 -2.55422,1.14569 -2.55422,2.55422c0,0.26618 -0.21583,0.48201 -0.48176,0.48201z"/>
     <path fill-rule="nonzero" fill="#2E6C99" id="Shape" d="m56.772139,50c-0.26622,0 -0.48182,-0.2156 -0.48182,-0.48182c0,-0.26596 0.21586,-0.48182 0.48182,-0.48182c1.40845,0 2.55428,-1.14609 2.55428,-2.55454c0,-0.26622 0.21586,-0.48182 0.48208,-0.48182c0.26622,0 0.48182,0.21586 0.48182,0.48182c0.00026,1.93987 -1.57805,3.51818 -3.51818,3.51818z"/>
     <path fill-rule="nonzero" fill="#FFFFFF" stroke-width="1.340064" stroke="#2E6C99" id="Path-Copy-7" d="m43.026789,17.83532l-0.09809,-0.00465l-0.09165,0.00569c-0.03806,0.00258 -0.07611,0.00568 -0.11471,0.00568c-3.54672,0 -6.43202,-2.78116 -6.43202,-6.19987c0,-3.38048 2.74862,-6.10016 6.25729,-6.19109c0.10023,-0.00259 0.19081,-0.05942 0.23423,-0.14673c1.22155,-2.45309 3.82813,-4.30435 6.64053,-4.30435c3.81955,0 6.62817,3.02769 6.98998,6.68871c0.01125,0.11418 0.09916,0.20718 0.21547,0.22888c1.62998,0.30638 2.76898,1.69153 2.76898,3.2942c0,0.18651 -0.01822,0.37768 -0.05628,0.58434c-0.01393,0.07647 0.00858,0.155 0.06057,0.2139c0.57352,0.64168 0.88923,1.45903 0.88923,2.3017c0,1.94676 -1.64285,3.52979 -3.6625,3.52979l-13.45899,0c-0.0477,0.00052 -0.09487,-0.00258 -0.14204,-0.0062z"/>
     <path fill-rule="nonzero" fill="#FFFFFF" stroke-width="1.340064" stroke="#2E6C99" id="Path-Copy-8" d="m20.026789,38.76892l-0.09809,-0.00465l-0.09165,0.00568c-0.03806,0.00258 -0.07611,0.00568 -0.11471,0.00568c-3.54672,0 -6.43202,-2.78116 -6.43202,-6.19987c0,-3.38048 2.74862,-6.10016 6.25729,-6.19109c0.10023,-0.00258 0.19081,-0.05942 0.23423,-0.14673c1.22155,-2.45308 3.82813,-4.23794 6.64053,-4.23794c3.81955,0 6.27114,2.96128 6.63295,6.62231c0.01125,0.11418 0.09916,0.20718 0.21547,0.22888c1.62998,0.30637 3.12601,1.69153 3.12601,3.2942c0,0.18651 -0.01822,0.37767 -0.05628,0.58433c-0.01393,0.07647 0.00858,0.155 0.06057,0.2139c0.57352,0.64169 0.88923,1.45904 0.88923,2.3017c0,1.94676 -1.64285,3.5298 -3.6625,3.5298l-13.45899,0c-0.0477,0.00051 -0.09487,-0.00259 -0.14204,-0.0062z"/>
     <path fill-rule="nonzero" fill="#2E6C99" id="Shape-Copy-11" d="m49.290319,12c-1.1027,0 -2,-0.8973 -2,-2c0,-1.1027 0.8973,-2 2,-2c1.103,0 2,0.8973 2,2c0,1.1027 -0.897,2 -2,2zm0,-2.86368c-0.47622,0 -0.86368,0.38746 -0.86368,0.86368c0,0.47622 0.38746,0.86368 0.86368,0.86368c0.47622,0 0.86368,-0.38746 0.86368,-0.86368c0,-0.47622 -0.38746,-0.86368 -0.86368,-0.86368z"/>
     <path fill-rule="nonzero" fill="#2E6C99" id="Shape-Copy-14" d="m25.290319,34c-1.1027,0 -2,-0.8973 -2,-2c0,-1.1027 0.8973,-2 2,-2c1.103,0 2,0.8973 2,2c0,1.1027 -0.897,2 -2,2zm0,-2.86368c-0.47622,0 -0.86368,0.38746 -0.86368,0.86368c0,0.47622 0.38746,0.86368 0.86368,0.86368c0.47622,0 0.86368,-0.38746 0.86368,-0.86368c0,-0.47622 -0.38746,-0.86368 -0.86368,-0.86368z"/>
     <path fill-rule="nonzero" fill="#2E6C99" id="Shape-Copy-12" d="m45.772329,10c-0.26644,0 -0.48201,-0.21583 -0.48201,-0.48201c0,-1.93988 1.57811,-3.51799 3.51799,-3.51799c0.26644,0 0.48201,0.21557 0.48201,0.48201c0,0.26593 -0.21557,0.48176 -0.48201,0.48176c-1.40828,0 -2.55422,1.14569 -2.55422,2.55422c0,0.26618 -0.21583,0.48201 -0.48176,0.48201z"/>
     <path fill-rule="nonzero" fill="#2E6C99" id="Shape-Copy-15" d="m21.772329,32c-0.26644,0 -0.48201,-0.21583 -0.48201,-0.48201c0,-1.93988 1.57811,-3.51799 3.51799,-3.51799c0.26644,0 0.48201,0.21557 0.48201,0.48201c0,0.26593 -0.21557,0.48176 -0.48201,0.48176c-1.40828,0 -2.55422,1.14569 -2.55422,2.55422c0,0.26618 -0.21583,0.48201 -0.48176,0.48201z"/>
     <path fill-rule="nonzero" fill="#2E6C99" id="Shape-Copy-13" d="m49.772139,14c-0.26622,0 -0.48182,-0.2156 -0.48182,-0.48182c0,-0.26596 0.21586,-0.48182 0.48182,-0.48182c1.40845,0 2.55428,-1.14609 2.55428,-2.55454c0,-0.26622 0.21586,-0.48182 0.48208,-0.48182c0.26622,0 0.48182,0.21586 0.48182,0.48182c0.00026,1.93987 -1.57805,3.51818 -3.51818,3.51818z"/>
     <path fill-rule="nonzero" fill="#2E6C99" id="Shape-Copy-18" d="m25.772139,36c-0.26622,0 -0.48182,-0.2156 -0.48182,-0.48182c0,-0.26596 0.21586,-0.48182 0.48182,-0.48182c1.40845,0 2.55428,-1.14609 2.55428,-2.55454c0,-0.26622 0.21586,-0.48182 0.48208,-0.48182c0.26622,0 0.48182,0.21586 0.48182,0.48182c0.00026,1.93987 -1.57805,3.51818 -3.51818,3.51818z"/>
    </g>
   </g>
  </g>
  <g stroke="null" id="svg_34">
   <g stroke="null" transform="matrix(0.6759014391109706,0,0,0.6684195057862123,30.94508820834426,33.94524179831751) " id="svg_5">
    <path fill="#2e6c99" stroke="null" id="svg_6" d="m226.803688,-9.603777l-10.899,0c-0.553,0 -1,0.447 -1,1s0.447,1 1,1l9.102,0l2.899,27l-50.522,0l3.403,-27l9.118,0c0.553,0 1,-0.447 1,-1s-0.447,-1 -1,-1l-10.882,0l-3.907,31l55.017,0l-3.329,-31z"/>
    <path fill="#2e6c99" stroke="null" id="svg_7" d="m201.769688,6.351223c-0.147,0.087 -0.304,0.164 -0.445,0.255c-0.22,0.142 -0.435,0.291 -0.646,0.445c-0.445,0.327 -0.541,0.953 -0.215,1.398c0.196,0.267 0.5,0.408 0.808,0.408c0.205,0 0.412,-0.063 0.591,-0.193c0.178,-0.131 0.359,-0.257 0.548,-0.379c0.321,-0.208 0.662,-0.403 1.014,-0.581c0.468,-0.237 0.658,-0.791 0.462,-1.269c0.008,-0.008 0.018,-0.014 0.025,-0.022c1.809,-1.916 7.905,-9.096 10.429,-21.058c0.512,-2.426 0.627,-4.754 0.342,-6.919c-0.86,-6.575 -4.945,-10.051 -11.813,-10.051c-6.866,0 -10.951,3.476 -11.813,10.051c-0.284,2.166 -0.169,4.494 0.343,6.919c2.499,11.846 8.499,18.998 10.37,20.996zm-8.73,-27.654c0.733,-5.592 3.949,-8.311 9.831,-8.311c5.883,0 9.098,2.719 9.83,8.311c0.255,1.94 0.148,4.043 -0.316,6.247c-2.269,10.753 -7.679,17.576 -9.514,19.646c-1.837,-2.072 -7.246,-8.898 -9.514,-19.646c-0.465,-2.204 -0.571,-4.306 -0.317,-6.247z"/>
    <path fill="#2e6c99" stroke="null" id="svg_8" d="m202.870688,-12.691777c4.051,0 7.346,-3.295 7.346,-7.346s-3.295,-7.346 -7.346,-7.346s-7.346,3.295 -7.346,7.346s3.295,7.346 7.346,7.346zm0,-12.691c2.947,0 5.346,2.398 5.346,5.346s-2.398,5.346 -5.346,5.346s-5.346,-2.398 -5.346,-5.346s2.399,-5.346 5.346,-5.346z"/>
    <path fill="#2e6c99" stroke="null" id="svg_9" d="m206.543688,4.553223c-0.54,0.114 -0.884,0.646 -0.769,1.187c0.1,0.47 0.515,0.791 0.977,0.791c0.069,0 0.14,-0.007 0.21,-0.022c0.586,-0.124 1.221,-0.229 1.886,-0.313c0.548,-0.067 0.938,-0.567 0.869,-1.115c-0.068,-0.549 -0.563,-0.945 -1.115,-0.869c-0.723,0.089 -1.416,0.204 -2.058,0.341z"/>
    <path fill="#2e6c99" stroke="null" id="svg_10" d="m211.714688,4.959223c0.022,0.537 0.466,0.957 0.998,0.957c0.015,0 0.029,0 0.044,-0.001l2.001,-0.083c0.551,-0.025 0.979,-0.493 0.953,-1.044c-0.025,-0.553 -0.539,-0.984 -1.044,-0.954l-1.996,0.083c-0.552,0.023 -0.98,0.489 -0.956,1.042z"/>
    <path fill="#2e6c99" stroke="null" id="svg_11" d="m197.548688,9.560223c-0.514,0.388 -1.045,0.761 -1.58,1.107c-0.463,0.301 -0.595,0.92 -0.294,1.384c0.191,0.295 0.513,0.455 0.84,0.455c0.187,0 0.375,-0.052 0.544,-0.161c0.573,-0.372 1.144,-0.772 1.695,-1.188c0.44,-0.333 0.528,-0.96 0.196,-1.401c-0.333,-0.437 -0.958,-0.529 -1.401,-0.196z"/>
    <path fill="#2e6c99" stroke="null" id="svg_12" d="m219.835688,2.966223c-0.338,0.237 -0.777,0.409 -1.346,0.526c-0.541,0.111 -0.889,0.641 -0.777,1.182c0.098,0.473 0.514,0.798 0.979,0.798c0.067,0 0.135,-0.007 0.203,-0.021c0.842,-0.174 1.526,-0.452 2.096,-0.853l0.134,-0.098c0.44,-0.334 0.527,-0.961 0.194,-1.401c-0.334,-0.44 -0.96,-0.526 -1.401,-0.194l-0.082,0.061z"/>
    <path fill="#2e6c99" stroke="null" id="svg_13" d="m183.975688,10.785223c0.145,-0.533 -0.171,-1.082 -0.704,-1.226c-0.529,-0.149 -1.082,0.169 -1.226,0.704c-0.126,0.464 -0.201,0.938 -0.225,1.405c-0.005,0.115 -0.008,0.231 -0.008,0.353c0.001,0.196 0.01,0.392 0.029,0.587c0.053,0.515 0.487,0.898 0.994,0.898c0.033,0 0.067,-0.002 0.103,-0.005c0.549,-0.057 0.949,-0.547 0.894,-1.097c-0.014,-0.131 -0.019,-0.264 -0.02,-0.39c0,-0.083 0.003,-0.166 0.007,-0.248c0.016,-0.324 0.068,-0.655 0.156,-0.981z"/>
    <path fill="#2e6c99" stroke="null" id="svg_14" d="m219.813688,-4.806777c-0.794,-0.106 -1.604,-0.041 -2.386,0.181c-0.532,0.149 -0.841,0.702 -0.69,1.233c0.124,0.441 0.525,0.729 0.961,0.729c0.091,0 0.182,-0.012 0.272,-0.038c0.52,-0.146 1.055,-0.192 1.575,-0.122c0.562,0.07 1.052,-0.311 1.125,-0.857c0.074,-0.549 -0.31,-1.052 -0.857,-1.126z"/>
    <path fill="#2e6c99" stroke="null" id="svg_15" d="m221.803688,0.147223c-0.163,0.527 0.133,1.088 0.66,1.25c0.099,0.031 0.197,0.045 0.295,0.045c0.428,0 0.823,-0.275 0.955,-0.705c0.099,-0.318 0.16,-0.641 0.183,-0.963c0.005,-0.083 0.008,-0.167 0.008,-0.25c0,-0.468 -0.086,-0.937 -0.255,-1.392c-0.192,-0.519 -0.771,-0.781 -1.285,-0.59c-0.519,0.192 -0.782,0.768 -0.59,1.285c0.086,0.232 0.13,0.467 0.13,0.696l-0.003,0.117c-0.012,0.166 -0.044,0.332 -0.098,0.507z"/>
    <path fill="#2e6c99" stroke="null" id="svg_16" d="m192.596688,12.547223c-0.586,0.275 -1.183,0.53 -1.774,0.759c-0.515,0.198 -0.771,0.777 -0.572,1.293c0.153,0.396 0.531,0.64 0.933,0.64c0.12,0 0.242,-0.021 0.36,-0.067c0.635,-0.245 1.275,-0.519 1.903,-0.813c0.5,-0.234 0.715,-0.83 0.48,-1.33c-0.233,-0.501 -0.827,-0.718 -1.33,-0.482z"/>
    <path fill="#2e6c99" stroke="null" id="svg_17" d="m185.316688,8.384223c0.161,0 0.325,-0.039 0.478,-0.122c0.288,-0.157 0.595,-0.255 0.911,-0.289c0.135,-0.016 0.273,-0.016 0.406,0.002c0.563,0.073 1.05,-0.313 1.122,-0.86c0.072,-0.548 -0.313,-1.05 -0.86,-1.122c-0.298,-0.039 -0.601,-0.041 -0.891,-0.008c-0.574,0.063 -1.128,0.239 -1.646,0.521c-0.485,0.265 -0.664,0.871 -0.399,1.356c0.182,0.334 0.525,0.522 0.879,0.522z"/>
    <path fill="#2e6c99" stroke="null" id="svg_18" d="m185.108688,16.225223c0.216,0.056 0.436,0.098 0.654,0.124c0.256,0.031 0.512,0.047 0.769,0.047c0.313,0 0.627,-0.022 0.94,-0.062c0.548,-0.069 0.937,-0.569 0.867,-1.117s-0.567,-0.934 -1.117,-0.867c-0.404,0.052 -0.812,0.064 -1.216,0.015c-0.132,-0.017 -0.264,-0.042 -0.394,-0.075c-0.535,-0.143 -1.08,0.181 -1.22,0.716c-0.137,0.535 0.183,1.081 0.717,1.219z"/>
   </g>
   <g stroke="null" transform="matrix(0.6759014391109706,0,0,0.6684195057862123,30.94508820834426,33.94524179831751) " id="svg_19"/>
   <g stroke="null" transform="matrix(0.6759014391109706,0,0,0.6684195057862123,30.94508820834426,33.94524179831751) " id="svg_20"/>
   <g stroke="null" transform="matrix(0.6759014391109706,0,0,0.6684195057862123,30.94508820834426,33.94524179831751) " id="svg_21"/>
   <g stroke="null" transform="matrix(0.6759014391109706,0,0,0.6684195057862123,30.94508820834426,33.94524179831751) " id="svg_22"/>
   <g stroke="null" transform="matrix(0.6759014391109706,0,0,0.6684195057862123,30.94508820834426,33.94524179831751) " id="svg_23"/>
   <g stroke="null" transform="matrix(0.6759014391109706,0,0,0.6684195057862123,30.94508820834426,33.94524179831751) " id="svg_24"/>
   <g stroke="null" transform="matrix(0.6759014391109706,0,0,0.6684195057862123,30.94508820834426,33.94524179831751) " id="svg_25"/>
   <g stroke="null" transform="matrix(0.6759014391109706,0,0,0.6684195057862123,30.94508820834426,33.94524179831751) " id="svg_26"/>
   <g stroke="null" transform="matrix(0.6759014391109706,0,0,0.6684195057862123,30.94508820834426,33.94524179831751) " id="svg_27"/>
   <g stroke="null" transform="matrix(0.6759014391109706,0,0,0.6684195057862123,30.94508820834426,33.94524179831751) " id="svg_28"/>
   <g stroke="null" transform="matrix(0.6759014391109706,0,0,0.6684195057862123,30.94508820834426,33.94524179831751) " id="svg_29"/>
   <g stroke="null" transform="matrix(0.6759014391109706,0,0,0.6684195057862123,30.94508820834426,33.94524179831751) " id="svg_30"/>
   <g stroke="null" transform="matrix(0.6759014391109706,0,0,0.6684195057862123,30.94508820834426,33.94524179831751) " id="svg_31"/>
   <g stroke="null" transform="matrix(0.6759014391109706,0,0,0.6684195057862123,30.94508820834426,33.94524179831751) " id="svg_32"/>
   <g stroke="null" transform="matrix(0.6759014391109706,0,0,0.6684195057862123,30.94508820834426,33.94524179831751) " id="svg_33"/>
  </g>
 </g>
</svg>