<?xml version="1.0" encoding="UTF-8"?>
<svg width="198px" height="62px" viewBox="0 0 198 62" version="1.1" xmlns="http://www.w3.org/2000/svg" xmlns:xlink="http://www.w3.org/1999/xlink">
    <!-- Generator: sketchtool 51.2 (57519) - http://www.bohemiancoding.com/sketch -->
    <title>168B54D1-393B-428B-8116-E845778F1F86</title>
    <desc>Created with sketchtool.</desc>
    <defs></defs>
    <g id="Page-1" stroke="none" stroke-width="1" fill="none" fill-rule="evenodd">
        <g id="Assets_graficos" transform="translate(-1505.000000, -812.000000)">
            <g id="ilus/-onthology_wizard-/-from_rest_api" transform="translate(1505.000000, 813.000000)">
                <circle id="Oval-2" fill="#2E6C99" cx="193.5" cy="27.5" r="4.5"></circle>
                <circle id="Oval-2-Copy" fill="#2E6C99" cx="193.5" cy="44.5" r="4.5"></circle>
                <circle id="Oval-2-Copy-2" fill="#2E6C99" cx="176.5" cy="35.5" r="4.5"></circle>
                <rect id="Rectangle-8" fill="#2E6C99" transform="translate(185.179326, 31.186578) rotate(-26.000000) translate(-185.179326, -31.186578) " x="177.679326" y="30.1865776" width="15" height="2"></rect>
                <polygon id="Rectangle-8-Copy" fill="#2E6C99" points="178 37.7975881 178.876742 36 192.358653 42.5755672 191.481911 44.3731553"></polygon>
                <path d="M124.294539,28 L122.533153,29.8165073 L129.859498,37.5595628 L94,37.5595628 L94,39.8929184 L129.859498,39.8929184 L122.533153,47.635974 L124.294539,49.5598145 L133.946342,39.3720851 C134.371264,38.9459184 134.70297,38.8245851 133.946336,38.0804184 L124.294539,28 Z" id="Shape-Copy-6" fill="#2E6C99" fill-rule="nonzero"></path>
                <rect id="Rectangle-17" stroke="#2E6C99" stroke-width="2" fill-rule="nonzero" x="1" y="10" width="74" height="48" rx="6"></rect>
                <path d="M66.7473684,57.8148354 L56.7007158,57.8148354 C56.5895579,57.0364111 56.0009263,56.4244919 55.2526316,56.3089364 L55.2526316,52.4955363 L63.2984993,52.4955363 C65.4807308,52.4955363 67.9087374,50.1775432 67.2562256,48.0138081 C67,47.1641617 66.6867368,46.1586161 66.1157895,45.4264141 C66.1440842,45.2310202 66.1577263,45.0450808 66.1577263,44.8622929 C66.1577263,43.0475454 64.9587368,42.2442828 63.2812632,41.8135758 C62.8325895,37.9156768 59.6842947,35 55.8842105,35 C53.0911158,35 50.4986105,36.6666263 49.2369684,39.259798 C45.7269053,39.4399596 43,41.6288384 43,45.299303 C43,49.0643131 45.9466947,52.4955363 49.5684211,52.4955363 C49.6169263,52.4955363 49.6649263,52.4923848 49.7129263,52.4887081 L49.8220632,52.4876575 C49.8776421,52.4918596 49.9332211,52.4955363 49.9898105,52.4955363 L54.7473684,52.4955363 L54.7473684,56.3089364 C53.9990737,56.4244919 53.4104421,57.0364111 53.2992842,57.8148354 L43.2526316,57.8148354 C43.1131789,57.8148354 43,57.9324919 43,58.0774616 C43,58.2224313 43.1131789,58.3400879 43.2526316,58.3400879 L53.2992842,58.3400879 C53.4225684,59.2046535 54.1344842,59.8717243 55,59.8717243 C55.8655158,59.8717243 56.5774316,59.2041283 56.7007158,58.3400879 L66.7473684,58.3400879 C66.8868211,58.3400879 67,58.2224313 67,58.0774616 C67,57.9324919 66.8868211,57.8148354 66.7473684,57.8148354 Z" id="Shape-Copy" stroke="#2E6C99" stroke-width="1.296" fill="#2E6C99" fill-rule="nonzero"></path>
                <path d="M74.3857422,23.1690404 L48.7007158,23.1690404 C48.5895579,22.3906161 48.0009263,21.7786969 47.2526316,21.6631414 L47.2526316,17.4955363 L55.2984993,17.4955363 C57.4807308,17.4955363 59.9087374,15.1775432 59.2562256,13.0138081 C59,12.1641617 58.6867368,11.1586161 58.1157895,10.4264141 C58.1440842,10.2310202 58.1577263,10.0450808 58.1577263,9.86229291 C58.1577263,8.04754543 56.9587368,7.24428283 55.2812632,6.81357576 C54.8325895,2.91567677 51.6842947,0 47.8842105,0 C45.0911158,0 42.4986105,1.66662626 41.2369684,4.25979798 C37.7269053,4.4399596 35,6.62883836 35,10.299303 C35,14.0643131 37.9466947,17.4955363 41.5684211,17.4955363 C41.6169263,17.4955363 41.6649263,17.4923848 41.7129263,17.4887081 C41.8776421,17.4918596 41.9332211,17.4955363 41.9898105,17.4955363 L46.7473684,17.4955363 L46.7473684,21.6631414 C45.9990737,21.7786969 45.4104421,22.3906161 45.2992842,23.1690404 L35.2526316,23.1690404 C35.1131789,23.1690404 35,23.2866969 35,23.4316666 C35,23.5766363 35.1131789,23.6942929 35.2526316,23.6942929 L45.2992842,23.6942929 C45.4225684,24.5588586 46.1344842,25.2259293 47,25.2259293 C47.8655158,25.2259293 48.5774316,24.5583333 48.7007158,23.6942929 L74.3857422,23.6942929 C74.5251948,23.6942929 74.6383738,23.5766363 74.6383738,23.4316666 C74.6383738,23.2866969 74.5251948,23.1690404 74.3857422,23.1690404 Z" id="Shape-Copy-7" stroke="#2E6C99" stroke-width="1.296" fill="#2E6C99" fill-rule="nonzero"></path>
                <path d="M42.8701172,44.1690404 L25.7007158,44.1690404 C25.5895579,43.3906161 25.0009263,42.7786969 24.2526316,42.6631414 L24.2526316,38.4955363 L32.2984993,38.4955363 C34.4807308,38.4955363 36.9087374,36.1775432 36.2562256,34.0138081 C36,33.1641617 35.6867368,32.1586161 35.1157895,31.4264141 C35.1440842,31.2310202 35.1577263,31.0450808 35.1577263,30.8622929 C35.1577263,29.0475454 33.9587368,28.2442828 32.2812632,27.8135758 C31.8325895,23.9156768 28.6842947,21 24.8842105,21 C22.0911158,21 19.4986105,22.6666263 18.2369684,25.259798 C14.7269053,25.4399596 12,27.6288384 12,31.299303 C12,35.0643131 14.9466947,38.4955363 18.5684211,38.4955363 C18.6169263,38.4955363 18.6649263,38.4923848 18.7129263,38.4887081 L18.8220632,38.4876575 C18.8776421,38.4918596 18.9332211,38.4955363 18.9898105,38.4955363 L23.7473684,38.4955363 L23.7473684,42.6631414 C22.9990737,42.7786969 22.4104421,43.3906161 22.2992842,44.1690404 L12.2526316,44.1690404 C12.1131789,44.1690404 12,44.2866969 12,44.4316666 C12,44.5766363 12.1131789,44.6942929 12.2526316,44.6942929 L22.2992842,44.6942929 C22.4225684,45.5588586 23.1344842,46.2259293 24,46.2259293 C24.8655158,46.2259293 25.5774316,45.5583333 25.7007158,44.6942929 L42.8701172,44.6942929 C43.0095698,44.6942929 43.1227488,44.5766363 43.1227488,44.4316666 C43.1227488,44.2866969 43.0095698,44.1690404 42.8701172,44.1690404 Z" id="Shape-Copy-8" stroke="#2E6C99" stroke-width="1.296" fill="#2E6C99" fill-rule="nonzero"></path>
                <path d="M49.7364725,51.7249729 L49.6383842,51.720323 L49.5467278,51.7260062 C49.5086717,51.7285895 49.4706156,51.7316895 49.4320234,51.7316895 C45.8852985,51.7316895 43,48.9505291 43,45.5318151 C43,42.1513335 45.748618,39.4316553 49.2572868,39.3407238 C49.3575191,39.3381405 49.4481035,39.2813083 49.4915196,39.1939935 C50.7130681,36.7409098 53.1231446,35 55.9355469,35 C59.7550968,35 62.5197715,37.917336 62.8815728,41.5783618 C62.8928288,41.6925428 62.9807331,41.7855409 63.0970456,41.8072405 C64.7270275,42.1136176 66.1064847,43.4987729 66.1064847,45.1014404 C66.1064847,45.2879533 66.0882607,45.4791161 66.0502045,45.6857786 C66.0362685,45.7622437 66.0587806,45.8407755 66.1107728,45.8996743 C66.6842949,46.5413613 67,47.3587114 67,48.2013776 C67,50.1481382 65.357154,51.7311728 63.3374987,51.7311728 L49.878513,51.7311728 C49.8308089,51.7316895 49.7836407,51.7285895 49.7364725,51.7249729 Z" id="Path-Copy-3" stroke="#2E6C99" stroke-width="1.340064" fill="#FFFFFF" fill-rule="nonzero"></path>
                <path d="M55,47 C53.8973038,47 53,46.1026962 53,45 C53,43.8973038 53.8973038,43 55,43 C56.1029991,43 57,43.8973038 57,45 C57,46.1026962 56.1029991,47 55,47 Z M55,44.1363223 C54.5237807,44.1363223 54.1363223,44.5237807 54.1363223,45 C54.1363223,45.4762193 54.5237807,45.8636777 55,45.8636777 C55.4762193,45.8636777 55.8636777,45.4762193 55.8636777,45 C55.8636777,44.5237807 55.4762193,44.1363223 55,44.1363223 Z" id="Shape" fill="#2E6C99" fill-rule="nonzero"></path>
                <path d="M51.4820144,45 C51.2155704,45 51,44.7841727 51,44.5179856 C51,42.5781089 52.5781089,41 54.5179856,41 C54.7844296,41 55,41.2155704 55,41.4820144 C55,41.7479445 54.7844296,41.9637718 54.5179856,41.9637718 C53.1097122,41.9637718 51.9637718,43.1094553 51.9637718,44.5179856 C51.9637718,44.7841727 51.7479445,45 51.4820144,45 Z" id="Shape" fill="#2E6C99" fill-rule="nonzero"></path>
                <path d="M55.4818193,49 C55.2155981,49 55,48.7844019 55,48.5181807 C55,48.2522164 55.2158551,48.0363613 55.4818193,48.0363613 C56.8902737,48.0363613 58.0361043,46.8902737 58.0361043,45.4818193 C58.0361043,45.2155981 58.2519594,45 58.5181807,45 C58.7844019,45 59,45.2158551 59,45.4818193 C59.000257,47.4216883 57.4219453,49 55.4818193,49 Z" id="Shape" fill="#2E6C99" fill-rule="nonzero"></path>
                <path d="M41.7364725,16.8353245 L41.6383842,16.8306746 L41.5467278,16.8363578 C41.5086717,16.8389411 41.4706156,16.842041 41.4320234,16.842041 C37.8852985,16.842041 35,14.0608807 35,10.6421666 C35,7.2616851 37.748618,4.54200686 41.2572868,4.45107537 C41.3575191,4.44849209 41.4481035,4.39165991 41.4915196,4.30434501 C42.7130681,1.85126138 45.3196456,0 48.1320478,0 C51.9515977,0 54.7602246,3.02768754 55.1220259,6.68871338 C55.1332819,6.8028944 55.2211862,6.89589251 55.3374987,6.91759207 C56.9674806,7.2239692 58.1064847,8.60912447 58.1064847,10.211792 C58.1064847,10.3983049 58.0882607,10.5894677 58.0502045,10.7961302 C58.0362685,10.8725953 58.0587806,10.951127 58.1107728,11.0100258 C58.6842949,11.6517128 59,12.4690629 59,13.3117292 C59,15.2584898 57.357154,16.8415244 55.3374987,16.8415244 L41.878513,16.8415244 C41.8308089,16.842041 41.7836407,16.8389411 41.7364725,16.8353245 Z" id="Path-Copy-7" stroke="#2E6C99" stroke-width="1.340064" fill="#FFFFFF" fill-rule="nonzero"></path>
                <path d="M18.7364725,37.7689182 L18.6383842,37.7642683 L18.5467278,37.7699515 C18.5086717,37.7725348 18.4706156,37.7756348 18.4320234,37.7756348 C14.8852985,37.7756348 12,34.9944744 12,31.5757604 C12,28.1952789 14.748618,25.4756006 18.2572868,25.3846691 C18.3575191,25.3820858 18.4481035,25.3252537 18.4915196,25.2379388 C19.7130681,22.7848551 22.3196456,21 25.1320478,21 C28.9515977,21 31.4031946,23.9612813 31.764996,27.6223071 C31.776252,27.7364881 31.8641563,27.8294863 31.9804688,27.8511858 C33.6104507,28.1575629 35.1064847,29.5427182 35.1064847,31.1453858 C35.1064847,31.3318986 35.0882607,31.5230614 35.0502045,31.7297239 C35.0362685,31.806189 35.0587806,31.8847208 35.1107728,31.9436196 C35.6842949,32.5853066 36,33.4026567 36,34.245323 C36,36.1920835 34.357154,37.7751181 32.3374987,37.7751181 L18.878513,37.7751181 C18.8308089,37.7756348 18.7836407,37.7725348 18.7364725,37.7689182 Z" id="Path-Copy-8" stroke="#2E6C99" stroke-width="1.340064" fill="#FFFFFF" fill-rule="nonzero"></path>
                <path d="M48,11 C46.8973038,11 46,10.1026962 46,9 C46,7.89730385 46.8973038,7 48,7 C49.1029991,7 50,7.89730385 50,9 C50,10.1026962 49.1029991,11 48,11 Z M48,8.13632233 C47.5237807,8.13632233 47.1363223,8.52378067 47.1363223,9 C47.1363223,9.47621933 47.5237807,9.86367767 48,9.86367767 C48.4762193,9.86367767 48.8636777,9.47621933 48.8636777,9 C48.8636777,8.52378067 48.4762193,8.13632233 48,8.13632233 Z" id="Shape-Copy-11" fill="#2E6C99" fill-rule="nonzero"></path>
                <path d="M24,33 C22.8973038,33 22,32.1026962 22,31 C22,29.8973038 22.8973038,29 24,29 C25.1029991,29 26,29.8973038 26,31 C26,32.1026962 25.1029991,33 24,33 Z M24,30.1363223 C23.5237807,30.1363223 23.1363223,30.5237807 23.1363223,31 C23.1363223,31.4762193 23.5237807,31.8636777 24,31.8636777 C24.4762193,31.8636777 24.8636777,31.4762193 24.8636777,31 C24.8636777,30.5237807 24.4762193,30.1363223 24,30.1363223 Z" id="Shape-Copy-14" fill="#2E6C99" fill-rule="nonzero"></path>
                <path d="M44.4820144,9 C44.2155704,9 44,8.78417266 44,8.51798561 C44,6.57810894 45.5781089,5 47.5179856,5 C47.7844296,5 48,5.2155704 48,5.48201439 C48,5.7479445 47.7844296,5.96377184 47.5179856,5.96377184 C46.1097122,5.96377184 44.9637718,7.10945529 44.9637718,8.51798561 C44.9637718,8.78417266 44.7479445,9 44.4820144,9 Z" id="Shape-Copy-12" fill="#2E6C99" fill-rule="nonzero"></path>
                <path d="M20.4820144,31 C20.2155704,31 20,30.7841727 20,30.5179856 C20,28.5781089 21.5781089,27 23.5179856,27 C23.7844296,27 24,27.2155704 24,27.4820144 C24,27.7479445 23.7844296,27.9637718 23.5179856,27.9637718 C22.1097122,27.9637718 20.9637718,29.1094553 20.9637718,30.5179856 C20.9637718,30.7841727 20.7479445,31 20.4820144,31 Z" id="Shape-Copy-15" fill="#2E6C99" fill-rule="nonzero"></path>
                <path d="M48.4818193,13 C48.2155981,13 48,12.7844019 48,12.5181807 C48,12.2522164 48.2158551,12.0363613 48.4818193,12.0363613 C49.8902737,12.0363613 51.0361043,10.8902737 51.0361043,9.48181935 C51.0361043,9.2155981 51.2519594,9 51.5181807,9 C51.7844019,9 52,9.21585507 52,9.48181935 C52.000257,11.4216883 50.4219453,13 48.4818193,13 Z" id="Shape-Copy-13" fill="#2E6C99" fill-rule="nonzero"></path>
                <path d="M24.4818193,35 C24.2155981,35 24,34.7844019 24,34.5181807 C24,34.2522164 24.2158551,34.0363613 24.4818193,34.0363613 C25.8902737,34.0363613 27.0361043,32.8902737 27.0361043,31.4818193 C27.0361043,31.2155981 27.2519594,31 27.5181807,31 C27.7844019,31 28,31.2158551 28,31.4818193 C28.000257,33.4216883 26.4219453,35 24.4818193,35 Z" id="Shape-Copy-18" fill="#2E6C99" fill-rule="nonzero"></path>
            </g>
        </g>
    </g>
</svg>