<?xml version="1.0" encoding="UTF-8"?>
<svg width="201px" height="60px" viewBox="0 0 201 60" version="1.1" xmlns="http://www.w3.org/2000/svg" xmlns:xlink="http://www.w3.org/1999/xlink">
    <!-- Generator: sketchtool 51.2 (57519) - http://www.bohemiancoding.com/sketch -->
    <title>EA4EA8F1-9CCF-406B-BF3F-4027141FFD9E</title>
    <desc>Created with sketchtool.</desc>
    <defs></defs>
    <g id="Page-1" stroke="none" stroke-width="1" fill="none" fill-rule="evenodd">
        <g id="Assets_graficos" transform="translate(-1516.000000, -594.000000)" fill="#2E6C99">
            <g id="ilus/-onthology_wizard-/-from_database" transform="translate(1516.000000, 591.000000)">
                <path d="M113.294539,24 L111.533153,25.8165073 L118.859498,33.5595628 L83,33.5595628 L83,35.8929184 L118.859498,35.8929184 L111.533153,43.635974 L113.294539,45.5598145 L122.946342,35.3720851 C123.371264,34.9459184 123.70297,34.8245851 122.946336,34.0804184 L113.294539,24 Z" id="Shape-Copy-3" fill-rule="nonzero"></path>
                <text id="{" font-family="Helvetica" font-size="45" font-weight="normal">
                    <tspan x="142" y="44">{</tspan>
                </text>
                <text id="{-copy" transform="translate(192.000000, 27.000000) scale(-1, 1) translate(-192.000000, -27.000000) " font-family="Helvetica" font-size="45" font-weight="normal">
                    <tspan x="184" y="44">{</tspan>
                </text>
                <circle id="Oval-2" cx="178.5" cy="23.5" r="4.5"></circle>
                <circle id="Oval-2-Copy" cx="178.5" cy="40.5" r="4.5"></circle>
                <circle id="Oval-2-Copy-2" cx="161.5" cy="31.5" r="4.5"></circle>
                <rect id="Rectangle-8" transform="translate(170.179326, 27.186578) rotate(-26.000000) translate(-170.179326, -27.186578) " x="162.679326" y="26.1865776" width="15" height="2"></rect>
                <rect id="Rectangle-8-Copy" transform="translate(170.179326, 36.186578) scale(1, -1) rotate(-26.000000) translate(-170.179326, -36.186578) " x="162.679326" y="35.1865776" width="15" height="2"></rect>
                <path d="M10.5,9 C8.019,9 6,11.019 6,13.5 C6,15.981 8.019,18 10.5,18 C12.981,18 15,15.981 15,13.5 C15,11.019 12.981,9 10.5,9 Z M10.5,16 C9.122,16 8,14.879 8,13.5 C8,12.121 9.122,11 10.5,11 C11.878,11 13,12.121 13,13.5 C13,14.879 11.878,16 10.5,16 Z" id="Shape" fill-rule="nonzero"></path>
                <circle id="Oval" fill-rule="nonzero" cx="42" cy="12" r="1"></circle>
                <circle id="Oval" fill-rule="nonzero" cx="44" cy="15" r="1"></circle>
                <circle id="Oval" fill-rule="nonzero" cx="38" cy="12" r="1"></circle>
                <circle id="Oval" fill-rule="nonzero" cx="40" cy="15" r="1"></circle>
                <circle id="Oval" fill-rule="nonzero" cx="34" cy="12" r="1"></circle>
                <circle id="Oval" fill-rule="nonzero" cx="36" cy="15" r="1"></circle>
                <path d="M10.5,28 C8.019,28 6,30.019 6,32.5 C6,34.981 8.019,37 10.5,37 C12.981,37 15,34.981 15,32.5 C15,30.019 12.981,28 10.5,28 Z M10.5,35 C9.122,35 8,33.879 8,32.5 C8,31.121 9.122,30 10.5,30 C11.878,30 13,31.121 13,32.5 C13,33.879 11.878,35 10.5,35 Z" id="Shape" fill-rule="nonzero"></path>
                <path d="M10.5,47 C8.019,47 6,49.019 6,51.5 C6,53.981 8.019,56 10.5,56 C12.981,56 15,53.981 15,51.5 C15,49.019 12.981,47 10.5,47 Z M10.5,54 C9.122,54 8,52.879 8,51.5 C8,50.121 9.122,49 10.5,49 C11.878,49 13,50.121 13,51.5 C13,52.879 11.878,54 10.5,54 Z" id="Shape" fill-rule="nonzero"></path>
                <path d="M60,19.392 L60,7.608 C60,5.067 57.933,3 55.392,3 L4.608,3 C2.067,3 0,5.067 0,7.608 L0,19.391 C0,20.86 0.703,22.155 1.777,22.999 C0.703,23.844 0,25.14 0,26.608 L0,38.391 C0,39.86 0.703,41.155 1.777,41.999 C0.703,42.844 0,44.14 0,45.608 L0,57.391 C0,59.932 2.067,61.999 4.608,61.999 L32.483,61.999 C35.165,62.493 38.105,62.749 41,62.749 C49.672,62.749 58.816,60.5 59.895,56.196 C59.962,56.063 60,55.911 60,55.75 L60,46.75 L60,46.375 L60,46 L60,37.75 L60,37.375 L60,37 L60,28.375 L60,28 C60,27.85 59.963,27.711 59.904,27.584 C59.557,26.12 58.256,24.887 56.342,23.899 C58.428,23.46 60,21.607 60,19.392 Z M2,38.392 L2,26.608 C2,25.17 3.17,24 4.608,24 L25.468,24 C23.659,24.971 22.431,26.169 22.096,27.584 C22.037,27.712 22,27.85 22,28 L22,28.375 L22,37 L22,37.375 L22,37.75 L22,41 L4.608,41 C3.17,41 2,39.83 2,38.392 Z M24.626,32.255 C24.671,32.284 24.719,32.313 24.765,32.342 C24.941,32.452 25.124,32.56 25.315,32.666 C25.37,32.696 25.423,32.727 25.478,32.756 C25.711,32.881 25.953,33.003 26.205,33.12 C26.245,33.139 26.288,33.157 26.328,33.175 C26.549,33.276 26.776,33.373 27.01,33.468 C27.079,33.496 27.147,33.524 27.216,33.551 C27.492,33.659 27.773,33.765 28.064,33.865 C28.08,33.87 28.096,33.875 28.112,33.881 C28.39,33.976 28.676,34.067 28.967,34.155 C29.045,34.179 29.124,34.202 29.203,34.225 C29.491,34.309 29.783,34.391 30.082,34.469 C30.106,34.475 30.129,34.482 30.153,34.488 C30.475,34.571 30.804,34.648 31.138,34.723 C31.222,34.742 31.307,34.76 31.391,34.778 C31.677,34.84 31.966,34.899 32.258,34.955 C32.316,34.966 32.374,34.978 32.432,34.989 C32.775,35.053 33.122,35.112 33.473,35.168 C33.556,35.181 33.641,35.194 33.724,35.207 C34.015,35.252 34.308,35.294 34.604,35.333 C34.685,35.344 34.765,35.355 34.847,35.365 C35.205,35.41 35.565,35.452 35.928,35.49 C36.001,35.498 36.075,35.504 36.148,35.511 C36.453,35.541 36.76,35.568 37.067,35.593 C37.16,35.6 37.252,35.608 37.345,35.615 C37.712,35.642 38.081,35.666 38.45,35.685 C38.502,35.688 38.555,35.689 38.608,35.692 C38.933,35.708 39.259,35.72 39.585,35.729 C39.683,35.732 39.781,35.735 39.88,35.737 C40.253,35.745 40.626,35.751 40.998,35.751 C41.37,35.751 41.743,35.745 42.116,35.737 C42.214,35.735 42.312,35.732 42.411,35.729 C42.737,35.72 43.062,35.708 43.388,35.692 C43.441,35.689 43.493,35.688 43.546,35.685 C43.915,35.666 44.284,35.642 44.651,35.615 C44.744,35.608 44.836,35.601 44.929,35.593 C45.237,35.569 45.543,35.541 45.848,35.511 C45.921,35.504 45.995,35.497 46.068,35.49 C46.431,35.452 46.791,35.411 47.149,35.365 C47.23,35.355 47.311,35.344 47.392,35.333 C47.687,35.294 47.981,35.252 48.272,35.207 C48.356,35.194 48.44,35.182 48.523,35.168 C48.874,35.112 49.221,35.053 49.564,34.989 C49.623,34.978 49.68,34.966 49.738,34.955 C50.031,34.899 50.32,34.84 50.605,34.778 C50.69,34.759 50.774,34.741 50.858,34.723 C51.191,34.648 51.521,34.571 51.843,34.488 C51.867,34.482 51.89,34.475 51.914,34.469 C52.213,34.392 52.505,34.31 52.793,34.225 C52.872,34.202 52.951,34.179 53.029,34.155 C53.32,34.067 53.606,33.976 53.884,33.881 C53.9,33.876 53.916,33.871 53.932,33.865 C54.223,33.764 54.505,33.659 54.78,33.551 C54.85,33.524 54.918,33.496 54.986,33.468 C55.22,33.373 55.447,33.276 55.668,33.175 C55.709,33.156 55.751,33.139 55.791,33.12 C56.043,33.003 56.284,32.881 56.518,32.756 C56.574,32.726 56.627,32.696 56.681,32.666 C56.871,32.561 57.054,32.453 57.231,32.342 C57.277,32.313 57.325,32.285 57.37,32.255 C57.577,32.121 57.773,31.983 57.959,31.841 C57.971,31.832 57.985,31.824 57.997,31.815 L57.997,36.803 C57.973,36.919 57.957,37.037 57.976,37.156 C57.99,37.229 58,37.301 58,37.375 C58,37.485 57.969,37.597 57.942,37.708 C57.921,37.794 57.894,37.881 57.858,37.967 C57.826,38.042 57.786,38.118 57.742,38.193 C57.699,38.268 57.652,38.344 57.598,38.419 C57.521,38.523 57.434,38.627 57.335,38.731 C57.298,38.771 57.261,38.811 57.221,38.851 C55.104,40.899 48.857,42.749 41.001,42.749 C33.15,42.749 26.906,40.901 24.785,38.854 C24.741,38.81 24.701,38.767 24.661,38.723 C24.567,38.623 24.482,38.523 24.408,38.423 C24.351,38.344 24.301,38.265 24.256,38.185 C24.215,38.114 24.177,38.043 24.146,37.971 C24.107,37.88 24.08,37.79 24.058,37.7 C24.031,37.592 24,37.483 24,37.375 C24,37.304 24.009,37.233 24.021,37.163 C24.042,37.033 24.029,36.903 24,36.778 L24,31.814 C24.012,31.823 24.026,31.831 24.038,31.84 C24.223,31.982 24.419,32.12 24.626,32.255 Z M57.857,46.967 C57.825,47.042 57.785,47.118 57.741,47.193 C57.698,47.268 57.651,47.344 57.597,47.419 C57.52,47.523 57.433,47.627 57.334,47.731 C57.297,47.771 57.26,47.811 57.22,47.851 C55.103,49.899 48.856,51.749 41,51.749 C33.149,51.749 26.905,49.901 24.784,47.854 C24.74,47.81 24.7,47.767 24.66,47.723 C24.566,47.623 24.481,47.523 24.407,47.423 C24.35,47.344 24.3,47.265 24.255,47.185 C24.214,47.114 24.176,47.043 24.145,46.971 C24.106,46.88 24.079,46.79 24.057,46.7 C24.034,46.606 24.01,46.511 24.007,46.417 L24.007,46.297 C24.011,46.252 24.013,46.207 24.02,46.162 C24.034,46.076 24.015,45.992 24.006,45.907 L24,41 L24,40.814 C24.04,40.845 24.087,40.874 24.129,40.904 C24.255,40.998 24.387,41.09 24.522,41.181 C24.632,41.254 24.746,41.326 24.862,41.398 C25.041,41.508 25.221,41.617 25.413,41.722 C25.415,41.723 25.417,41.724 25.418,41.725 C27.504,42.862 30.372,43.683 33.543,44.18 C33.567,44.184 33.591,44.187 33.615,44.191 C34.638,44.35 35.688,44.474 36.756,44.565 C36.983,44.584 37.209,44.604 37.438,44.62 C37.661,44.636 37.884,44.65 38.108,44.662 C38.41,44.679 38.712,44.694 39.014,44.706 C39.19,44.713 39.366,44.721 39.543,44.726 C40.03,44.74 40.516,44.75 41.001,44.75 C41.485,44.75 41.971,44.741 42.456,44.727 C42.634,44.722 42.811,44.714 42.989,44.707 C43.289,44.695 43.588,44.681 43.887,44.664 C44.113,44.651 44.338,44.637 44.563,44.621 C44.788,44.605 45.01,44.586 45.234,44.567 C46.312,44.476 47.372,44.35 48.404,44.19 C48.419,44.188 48.435,44.185 48.45,44.183 C51.915,43.641 55.014,42.71 57.131,41.404 C57.246,41.333 57.36,41.262 57.469,41.189 C57.604,41.099 57.736,41.007 57.861,40.913 C57.906,40.88 57.957,40.849 58.001,40.815 L58.001,45.803 C57.977,45.919 57.961,46.037 57.98,46.156 C57.99,46.229 58,46.301 58,46.375 C58,46.485 57.969,46.597 57.942,46.708 C57.92,46.794 57.894,46.881 57.857,46.967 Z M4.608,60 C3.17,60 2,58.83 2,57.392 L2,45.608 C2,44.17 3.17,43 4.608,43 L22,43 L22,46 L22,46.375 L22,46.75 L22,55.75 L22,56.75 L22.296,56.75 C22.312,56.787 22.335,56.823 22.353,56.86 C22.388,56.935 22.427,57.008 22.467,57.082 C22.549,57.23 22.642,57.376 22.745,57.52 C22.847,57.665 22.962,57.805 23.084,57.944 C23.146,58.014 23.208,58.083 23.275,58.152 C23.658,58.547 24.118,58.917 24.649,59.263 C24.667,59.275 24.686,59.287 24.705,59.299 C25.089,59.546 25.504,59.78 25.953,60.001 L4.608,60.001 L4.608,60 Z M58,55.494 C57.992,55.525 57.985,55.557 57.98,55.588 C57.571,58.081 50.65,60.75 41,60.75 C37.921,60.75 35.125,60.477 32.724,60.026 L32.725,60.018 C27.752,59.077 25,57.488 24.23,56.148 C24.229,56.147 24.228,56.146 24.228,56.144 C24.193,56.082 24.168,56.021 24.141,55.961 C24.089,55.836 24.04,55.712 24.02,55.588 L24.012,49.823 C24.048,49.851 24.091,49.877 24.128,49.905 C24.254,49.999 24.386,50.091 24.521,50.182 C24.631,50.255 24.745,50.327 24.861,50.399 C25.04,50.509 25.22,50.618 25.412,50.723 C25.414,50.724 25.416,50.725 25.417,50.726 C27.503,51.863 30.371,52.684 33.542,53.181 C33.566,53.185 33.59,53.188 33.614,53.192 C34.637,53.351 35.687,53.475 36.755,53.566 C36.982,53.585 37.208,53.605 37.437,53.621 C37.66,53.637 37.883,53.651 38.107,53.663 C38.409,53.68 38.711,53.695 39.013,53.707 C39.189,53.714 39.365,53.722 39.542,53.727 C40.029,53.741 40.515,53.751 41,53.751 C41.484,53.751 41.97,53.742 42.455,53.728 C42.633,53.723 42.81,53.715 42.988,53.708 C43.288,53.696 43.587,53.682 43.886,53.665 C44.112,53.652 44.337,53.638 44.562,53.622 C44.787,53.606 45.009,53.587 45.233,53.568 C46.311,53.477 47.371,53.351 48.403,53.191 C48.418,53.189 48.434,53.186 48.449,53.184 C51.914,52.642 55.013,51.711 57.13,50.405 C57.245,50.334 57.359,50.263 57.468,50.19 C57.603,50.1 57.735,50.008 57.86,49.914 C57.905,49.881 57.956,49.85 58,49.816 L58,55.494 Z M58,28.375 C58,30.912 50.729,33.75 41,33.75 C31.27,33.75 24,30.912 24,28.375 C24,28.247 24.031,28.117 24.068,27.987 C24.108,27.858 24.162,27.726 24.242,27.59 C24.245,27.584 24.248,27.578 24.251,27.572 C24.584,27.016 25.255,26.418 26.288,25.841 C26.332,25.817 26.377,25.793 26.422,25.769 C26.599,25.673 26.786,25.578 26.983,25.484 C27.212,25.377 27.447,25.27 27.699,25.167 C27.748,25.146 27.799,25.126 27.85,25.106 C29.012,24.643 30.412,24.232 31.988,23.896 C32.481,23.792 32.983,23.694 33.499,23.608 C33.636,23.585 33.77,23.561 33.909,23.539 C38.386,22.849 43.609,22.849 48.086,23.539 C48.227,23.561 48.363,23.586 48.502,23.609 C49.015,23.694 49.514,23.791 50.003,23.895 C54.878,24.933 58,26.716 58,28.375 Z M58,19.392 C58,20.83 56.83,22 55.392,22 L50.762,22 C50.704,21.987 50.64,21.979 50.582,21.966 C49.926,21.824 49.251,21.697 48.561,21.587 C48.494,21.577 48.427,21.566 48.36,21.556 C45.999,21.189 43.479,21 41,21 C38.521,21 36.003,21.189 33.642,21.556 C33.573,21.566 33.505,21.577 33.436,21.587 C32.748,21.697 32.075,21.824 31.421,21.965 C31.362,21.978 31.296,21.986 31.237,21.999 L4.608,21.999 C3.17,22 2,20.83 2,19.392 L2,7.608 C2,6.17 3.17,5 4.608,5 L55.391,5 C56.83,5 58,6.17 58,7.608 L58,19.392 Z" id="Shape" fill-rule="nonzero"></path>
            </g>
        </g>
    </g>
</svg>