<?xml version="1.0" encoding="UTF-8"?>
<svg width="226px" height="87px" viewBox="0 0 226 87" version="1.1" xmlns="http://www.w3.org/2000/svg" xmlns:xlink="http://www.w3.org/1999/xlink">
    <!-- Generator: sketchtool 51.2 (57519) - http://www.bohemiancoding.com/sketch -->
    <title>C25810ED-2BA0-4F50-ADDA-ADB599639DC5</title>
    <desc>Created with sketchtool.</desc>
    <defs></defs>
    <g id="Page-1" stroke="none" stroke-width="1" fill="none" fill-rule="evenodd">
        <g id="Assets_graficos" transform="translate(-1496.000000, -691.000000)">
            <g id="ilus/-onthology_wizard-/-from_file" transform="translate(1496.000000, 691.000000)">
                <text id="{-copy-2" font-family="Helvetica" font-size="45" font-weight="normal" fill="#2E6C99">
                    <tspan x="167" y="55">{</tspan>
                </text>
                <text id="{-copy-3" transform="translate(217.000000, 38.000000) scale(-1, 1) translate(-217.000000, -38.000000) " font-family="Helvetica" font-size="45" font-weight="normal" fill="#2E6C99">
                    <tspan x="209" y="55">{</tspan>
                </text>
                <circle id="Oval-2-Copy-3" fill="#2E6C99" cx="203.5" cy="34.5" r="4.5"></circle>
                <circle id="Oval-2-Copy-4" fill="#2E6C99" cx="203.5" cy="51.5" r="4.5"></circle>
                <circle id="Oval-2-Copy-5" fill="#2E6C99" cx="186.5" cy="42.5" r="4.5"></circle>
                <rect id="Rectangle-8-Copy-2" fill="#2E6C99" transform="translate(195.179326, 38.186578) rotate(-26.000000) translate(-195.179326, -38.186578) " x="187.679326" y="37.1865776" width="15" height="2"></rect>
                <rect id="Rectangle-8-Copy-3" fill="#2E6C99" transform="translate(195.179326, 47.186578) scale(1, -1) rotate(-26.000000) translate(-195.179326, -47.186578) " x="187.679326" y="46.1865776" width="15" height="2"></rect>
                <rect id="Rectangle-path" fill="#2E6C99" fill-rule="nonzero" x="28" y="39" width="1.98091339" height="1.98091339"></rect>
                <rect id="Rectangle-path" fill="#2E6C99" fill-rule="nonzero" x="32" y="39" width="1.98091339" height="1.98091339"></rect>
                <rect id="Rectangle-path" fill="#2E6C99" fill-rule="nonzero" x="23" y="39" width="1.98091339" height="1.98091339"></rect>
                <text id="XML" font-family="Poppins-SemiBold, Poppins" font-size="11" font-weight="500" fill="#2E6C99">
                    <tspan x="33" y="16">XML</tspan>
                </text>
                <path d="M59.0809047,0 L25.3990953,0 C24.0764338,0 23,1.05197241 23,2.34586383 L23,45.4941362 C23,46.7874502 24.0758434,47.84 25.3990953,47.84 L51.0971078,47.84 C51.1927645,47.84 51.283107,47.8215241 51.3687258,47.7938102 C51.4956776,47.7493525 51.5748011,47.7031628 51.6462485,47.6471576 C51.6505786,47.6436934 54.8233914,45.0293514 61.164687,39.8041317 C61.2739246,39.6926989 61.2916388,39.6724908 61.3081721,39.6511281 C61.3695814,39.5552843 61.3837528,39.531612 61.3955622,39.5062076 C61.4363049,39.4022806 61.4457525,39.3757215 61.4522477,39.3480076 C61.4717334,39.2383068 61.4752762,39.2082835 61.4764572,39.1776828 C61.4768508,39.1695995 61.4780318,26.8923266 61.48,2.34586383 C61.4794095,1.05197241 60.4035662,0 59.0809047,0 Z M25.184728,45.1578736 L25.184728,2.78669334 C25.184728,2.45444659 25.4605737,2.184 25.798875,2.184 L58.7852748,2.184 C59.1241543,2.184 59.4,2.45444659 59.4,2.78669334 L59.4,38.0701319 L50.9673343,38.0701319 C50.4885079,38.0701319 50.0998951,38.4511385 50.0998951,38.9205929 L50.0998951,45.76 L25.798875,45.76 C25.4605737,45.76 25.184728,45.4895534 25.184728,45.1578736 Z" id="Shape-Copy-5" fill="#2E6C99" fill-rule="nonzero"></path>
                <polygon id="Path-2" fill="#FFFFFF" points="80.4 29 80.4 66.3752529 70.1226514 74.76 44 74.76 44 72.99807 44 29"></polygon>
                <text id="CSV" font-family="Poppins-SemiBold, Poppins" font-size="11" font-weight="500" fill="#2E6C99">
                    <tspan x="51" y="42">CSV</tspan>
                </text>
                <path d="M79.0809047,27 L45.3990953,27 C44.0764338,27 43,28.0519724 43,29.3458638 L43,72.4941362 C43,73.7874502 44.0758434,74.84 45.3990953,74.84 L71.0971078,74.84 C71.1927645,74.84 71.283107,74.8215241 71.3687258,74.7938102 C71.4956776,74.7493525 71.5748011,74.7031628 71.6462485,74.6471576 C71.6505786,74.6436934 74.8233914,72.0293514 81.164687,66.8041317 C81.2739246,66.6926989 81.2916388,66.6724908 81.3081721,66.6511281 C81.3695814,66.5552843 81.3837528,66.531612 81.3955622,66.5062076 C81.4363049,66.4022806 81.4457525,66.3757215 81.4522477,66.3480076 C81.4717334,66.2383068 81.4752762,66.2082835 81.4764572,66.1776828 C81.4768508,66.1695995 81.4780318,53.8923266 81.48,29.3458638 C81.4794095,28.0519724 80.4035662,27 79.0809047,27 Z M45.184728,72.1578736 L45.184728,29.7866933 C45.184728,29.4544466 45.4605737,29.184 45.798875,29.184 L78.7852748,29.184 C79.1241543,29.184 79.4,29.4544466 79.4,29.7866933 L79.4,65.0701319 L70.9673343,65.0701319 C70.4885079,65.0701319 70.0998951,65.4511385 70.0998951,65.9205929 L70.0998951,72.76 L45.798875,72.76 C45.4605737,72.76 45.184728,72.4895534 45.184728,72.1578736 Z" id="Shape-Copy-2" fill="#2E6C99" fill-rule="nonzero"></path>
                <polygon id="Path-2-Copy" fill="#FFFFFF" points="38.48 40 38.48 77.3752529 27.6153744 85.76 0 85.76 0 83.99807 0 40"></polygon>
                <text id="JSON" font-family="Poppins-SemiBold, Poppins" font-size="11" font-weight="500" fill="#2E6C99">
                    <tspan x="5" y="54">JSON</tspan>
                </text>
                <path d="M36.0809047,39 L2.39909526,39 C1.07643383,39 0,40.0519724 0,41.3458638 L0,84.4941362 C0,85.7874502 1.07584336,86.84 2.39909526,86.84 L28.0971078,86.84 C28.1927645,86.84 28.283107,86.8215241 28.3687258,86.7938102 C28.4956776,86.7493525 28.5748011,86.7031628 28.6462485,86.6471576 C28.6505786,86.6436934 31.8233914,84.0293514 38.164687,78.8041317 C38.2739246,78.6926989 38.2916388,78.6724908 38.3081721,78.6511281 C38.3695814,78.5552843 38.3837528,78.531612 38.3955622,78.5062076 C38.4363049,78.4022806 38.4457525,78.3757215 38.4522477,78.3480076 C38.4717334,78.2383068 38.4752762,78.2082835 38.4764572,78.1776828 C38.4768508,78.1695995 38.4780318,65.8923266 38.48,41.3458638 C38.4794095,40.0519724 37.4035662,39 36.0809047,39 Z M2.184728,84.1578736 L2.184728,41.7866933 C2.184728,41.4544466 2.46057367,41.184 2.79887496,41.184 L35.7852748,41.184 C36.1241543,41.184 36.4,41.4544466 36.4,41.7866933 L36.4,77.0701319 L27.9673343,77.0701319 C27.4885079,77.0701319 27.0998951,77.4511385 27.0998951,77.9205929 L27.0998951,84.76 L2.79887496,84.76 C2.46057367,84.76 2.184728,84.4895534 2.184728,84.1578736 Z" id="Shape-Copy-4" fill="#2E6C99" fill-rule="nonzero"></path>
                <path d="M133.294539,37 L131.533153,38.8165073 L138.859498,46.5595628 L103,46.5595628 L103,48.8929184 L138.859498,48.8929184 L131.533153,56.635974 L133.294539,58.5598145 L142.946342,48.3720851 C143.371264,47.9459184 143.70297,47.8245851 142.946336,47.0804184 L133.294539,37 Z" id="Shape-Copy-3" fill="#2E6C99" fill-rule="nonzero"></path>
            </g>
        </g>
    </g>
</svg>