<?xml version="1.0" encoding="UTF-8"?>
<svg width="34px" height="33px" viewBox="0 0 34 33" version="1.1" xmlns="http://www.w3.org/2000/svg" xmlns:xlink="http://www.w3.org/1999/xlink">
    <!-- Generator: sketchtool 51.2 (57519) - http://www.bohemiancoding.com/sketch -->
    <title>0A2BC0AB-4D42-4D54-90D9-2DEA98295CB3</title>
    <desc>Created with sketchtool.</desc>
    <defs></defs>
    <g id="Page-1" stroke="none" stroke-width="1" fill="none" fill-rule="evenodd">
        <g id="Assets_graficos" transform="translate(-574.000000, -492.000000)" fill-rule="nonzero">
            <g id="ico-/-cards-/-devices" transform="translate(574.000000, 492.000000)">
                <g id="Group-10">
                    <rect id="Rectangle-3" stroke="#5789AD" x="0.5" y="7.5" width="24.9646601" height="24.2777778" rx="2"></rect>
                    <path d="M20.9373219,13.8888889 C22.0075244,13.8888889 22.8746439,13.018008 22.8746439,11.9445093 C22.8746439,10.8709587 22.0075244,10 20.9373219,10 C19.8671195,10 19,10.8709587 19,11.9445093 C19,13.018008 19.8671195,13.8888889 20.9373219,13.8888889 Z" id="Shape" fill="#5789AD"></path>
                    <path d="M27.7315466,0.00352694773 C27.3290787,-0.0380708918 27,0.293988395 27,0.698655324 C27,1.10332225 27.3297821,1.42630737 27.7310776,1.47892212 C30.2217358,1.80551336 32.1945669,3.77805039 32.5210664,6.26896223 C32.573705,6.67019653 32.8966875,7 33.3013828,7 C33.7060781,7 34.0380877,6.67095856 33.9964693,6.26843467 C33.6554326,2.96807878 31.0321816,0.344616017 27.7315466,0.00352694773 Z" id="Shape" fill="#5789AD"></path>
                    <path d="M29.3524039,8 C29.7381538,8 30.0570792,7.68478538 29.9913721,7.30470189 C29.7007186,5.62476038 28.3752899,4.29925653 26.6952886,4.00863732 C26.3152377,3.94288566 26,4.26187731 26,4.647604 C26,5.03333068 26.3181431,5.3366443 26.6905952,5.43676919 C27.6013316,5.6815388 28.3185225,6.39876157 28.563248,7.30938407 C28.6633731,7.68189114 28.9666539,8 29.3524039,8 Z" id="Shape" fill="#5789AD"></path>
                </g>
                <rect id="Rectangle-6-Copy" fill="#5789AD" x="4" y="27" width="19" height="1" rx="0.5"></rect>
            </g>
        </g>
    </g>
</svg>