<svg width="73" height="114" viewBox="0 0 73 114" fill="none" xmlns="http://www.w3.org/2000/svg">
<g clip-path="url(#clip0)">
<path d="M43.1 79.0401V100.16L1 112.23V1.33008L43.1 13.4001V41.6201" stroke="#7874B3" stroke-width="2" stroke-miterlimit="10"/>
<path d="M43.82 41.6202C50.06 37.8102 55.18 36.4602 57.3 38.5802C60.96 42.2402 54.28 54.8502 42.39 66.7402C30.5 78.6302 17.89 85.3102 14.22 81.6502C12.13 79.5602 13.41 74.5702 17.09 68.4602" stroke="#004254" stroke-width="2" stroke-miterlimit="10" stroke-linecap="round" stroke-linejoin="round"/>
<path d="M46.61 51.4802C43.78 48.6902 39.89 46.9702 35.6 46.9702C30.99 46.9702 26.85 48.9602 23.97 52.1202" stroke="#004254" stroke-width="2" stroke-miterlimit="10" stroke-linecap="round" stroke-linejoin="round"/>
<path d="M55.8999 60.2102C55.8999 49.0302 46.8399 39.9702 35.6599 39.9702C24.4799 39.9702 15.4199 49.0302 15.4199 60.2102C15.4199 71.3902 24.4799 80.4502 35.6599 80.4502C46.8399 80.4502 55.8999 71.3902 55.8999 60.2102Z" stroke="#004254" stroke-width="2" stroke-miterlimit="10" stroke-linecap="round" stroke-linejoin="round"/>
<path d="M18.3501 29.1501C17.9601 26.0101 15.4701 23.5301 12.3301 23.1301C15.4701 22.7401 17.9501 20.2501 18.3501 17.1101C18.7401 20.2501 21.2301 22.7301 24.3701 23.1301C21.2301 23.5201 18.7501 26.0101 18.3501 29.1501Z" stroke="#004254" stroke-width="2" stroke-miterlimit="10" stroke-linecap="round" stroke-linejoin="round"/>
<path d="M56.03 96.0101C60.01 95.5101 63.16 92.3601 63.66 88.3801C64.16 92.3601 67.31 95.5101 71.29 96.0101C67.31 96.5101 64.16 99.6601 63.66 103.64C63.16 99.6501 60.01 96.5001 56.03 96.0101Z" stroke="#004254" stroke-width="2" stroke-miterlimit="10" stroke-linecap="round" stroke-linejoin="round"/>
</g>
<defs>
<clipPath id="clip0">
<rect width="72.29" height="113.56" fill="white"/>
</clipPath>
</defs>
</svg>
