<svg width="60" height="99" viewBox="0 0 60 99" fill="none" xmlns="http://www.w3.org/2000/svg">
<path fill-rule="evenodd" clip-rule="evenodd" d="M41.7506 47.582V48.9526H51.5135L57.2827 69.1051H2.49819L8.26606 48.9526H10.91V47.582H7.23638L0.683594 70.475H59.0973L52.5438 47.582H41.7506Z" fill="#FFEA80"/>
<mask id="mask0" mask-type="alpha" maskUnits="userSpaceOnUse" x="22" y="29" width="9" height="8">
<path fill-rule="evenodd" clip-rule="evenodd" d="M22.4648 29.0859H30.1854V36.8202H22.4648V29.0859Z" fill="white"/>
</mask>
<g mask="url(#mask0)">
<path fill-rule="evenodd" clip-rule="evenodd" d="M26.3263 30.4539C24.952 30.4539 23.8335 31.5745 23.8335 32.9512C23.8335 34.328 24.952 35.4485 26.3263 35.4485C27.7006 35.4485 28.8192 34.328 28.8192 32.9512C28.8192 31.5745 27.7006 30.4539 26.3263 30.4539ZM26.3251 36.8204C24.1967 36.8204 22.4648 35.0854 22.4648 32.9531C22.4648 30.8209 24.1967 29.0859 26.3251 29.0859C28.4536 29.0859 30.1854 30.8209 30.1854 32.9531C30.1854 35.0854 28.4536 36.8204 26.3251 36.8204Z" fill="#1A3B47"/>
</g>
<path fill-rule="evenodd" clip-rule="evenodd" d="M32.0393 65.2877C31.6619 65.2877 31.3555 64.9809 31.3555 64.6028V42.1927C31.3555 40.6968 29.0514 39.4324 26.3247 39.4324C23.5974 39.4324 21.2932 40.6968 21.2932 42.1927V64.6028C21.2932 64.9809 20.9869 65.2877 20.6095 65.2877C20.2321 65.2877 19.9258 64.9809 19.9258 64.6028V42.1927C19.9258 39.8769 22.7366 38.0625 26.3247 38.0625C29.9122 38.0625 32.723 39.8769 32.723 42.1927V64.6028C32.723 64.9809 32.4167 65.2877 32.0393 65.2877Z" fill="#1A3B47"/>
<mask id="mask1" mask-type="alpha" maskUnits="userSpaceOnUse" x="12" y="29" width="9" height="8">
<path fill-rule="evenodd" clip-rule="evenodd" d="M12.7188 29.0859H20.4393V36.8202H12.7188V29.0859Z" fill="white"/>
</mask>
<g mask="url(#mask1)">
<path fill-rule="evenodd" clip-rule="evenodd" d="M16.5802 30.4545C15.2059 30.4545 14.0873 31.5751 14.0873 32.9518C14.0873 34.3285 15.2059 35.4491 16.5802 35.4491C17.9544 35.4491 19.073 34.3285 19.073 32.9518C19.073 31.5751 17.9544 30.4545 16.5802 30.4545ZM16.579 36.8204C14.4506 36.8204 12.7188 35.0854 12.7188 32.9531C12.7188 30.8209 14.4506 29.0859 16.579 29.0859C18.7075 29.0859 20.4393 30.8209 20.4393 32.9531C20.4393 35.0854 18.7075 36.8204 16.579 36.8204Z" fill="#1A3B47"/>
</g>
<mask id="mask2" mask-type="alpha" maskUnits="userSpaceOnUse" x="32" y="29" width="9" height="8">
<path fill-rule="evenodd" clip-rule="evenodd" d="M32.2852 29.0859H40.0057V36.8202H32.2852V29.0859Z" fill="white"/>
</mask>
<g mask="url(#mask2)">
<path fill-rule="evenodd" clip-rule="evenodd" d="M36.1466 30.4545C34.7723 30.4545 33.6537 31.5751 33.6537 32.9518C33.6537 34.3285 34.7723 35.4491 36.1466 35.4491C37.5208 35.4491 38.6394 34.3285 38.6394 32.9518C38.6394 31.5751 37.5208 30.4545 36.1466 30.4545ZM36.1454 36.8204C34.017 36.8204 32.2852 35.0854 32.2852 32.9531C32.2852 30.8209 34.017 29.0859 36.1454 29.0859C38.2739 29.0859 40.0057 30.8209 40.0057 32.9531C40.0057 35.0854 38.2739 36.8204 36.1454 36.8204Z" fill="#1A3B47"/>
</g>
<path fill-rule="evenodd" clip-rule="evenodd" d="M41.7466 61.4233C41.3692 61.4233 41.0628 61.1164 41.0628 60.7383V42.192C41.0628 40.6961 38.7587 39.4324 36.032 39.4324C35.2047 39.4324 34.3815 39.5495 33.6527 39.7721C33.2924 39.8824 32.9095 39.6783 32.7994 39.3166C32.6893 38.955 32.8931 38.5721 33.2541 38.4618C34.1231 38.1967 35.057 38.0625 36.032 38.0625C39.6195 38.0625 42.4303 39.8762 42.4303 42.192V60.7383C42.4303 61.1164 42.124 61.4233 41.7466 61.4233Z" fill="#1A3B47"/>
<path fill-rule="evenodd" clip-rule="evenodd" d="M10.9064 61.4233C10.529 61.4233 10.2227 61.1164 10.2227 60.7383V42.192C10.2227 39.8762 13.0334 38.0625 16.6209 38.0625C17.5952 38.0625 18.5299 38.1967 19.3989 38.4618C19.7599 38.5721 19.9636 38.955 19.8535 39.3166C19.7435 39.6783 19.3606 39.8824 19.0003 39.7721C18.2707 39.5495 17.4482 39.4324 16.6209 39.4324C13.8942 39.4324 11.5901 40.6961 11.5901 42.192V60.7383C11.5901 61.1164 11.2838 61.4233 10.9064 61.4233Z" fill="#1A3B47"/>
</svg>
