<svg width="94" height="58" viewBox="0 0 94 58" fill="none" xmlns="http://www.w3.org/2000/svg">
<g clip-path="url(#clip0)">
<path d="M75.8586 25.5192L82.1186 25.5292L91.9486 56.4392H1.30859L9.84859 25.4492L18.8586 25.4692" stroke="#79C4B3" stroke-width="2" stroke-miterlimit="10"/>
<path d="M28.1914 21.2519L33.8014 17.5119L40.1614 25.7519L52.5014 11.2319L59.9814 18.3419L65.9614 9.92188" stroke="#1A3B47" stroke-width="2.0126" stroke-miterlimit="10" stroke-linecap="round" stroke-linejoin="round"/>
<path d="M75.66 16.4217L75.63 35.3817C75.63 38.3517 73.88 40.7517 71.73 40.7517H37.36H27.54H22.4C20.24 40.7517 18.5 38.3417 18.5 35.3717V28.0417V6.39172C18.5 3.42172 20.25 1.01172 22.4 1.01172H71.74C73.89 1.01172 75.63 3.40172 75.64 6.37172L75.66 13.1217V16.4217V16.4217Z" stroke="#1A3B47" stroke-width="2.0126" stroke-miterlimit="10" stroke-linecap="round" stroke-linejoin="round"/>
<path d="M30.0391 46.7812H64.1191" stroke="#1A3B47" stroke-width="2.0126" stroke-miterlimit="10" stroke-linecap="round" stroke-linejoin="round"/>
<path d="M18.5312 34.2734H75.6312" stroke="#1A3B47" stroke-width="2.0126" stroke-miterlimit="10" stroke-linecap="round" stroke-linejoin="round"/>
<path d="M47.0781 41.0234V46.4234" stroke="#1A3B47" stroke-width="2.0126" stroke-miterlimit="10" stroke-linecap="round" stroke-linejoin="round"/>
</g>
<defs>
<clipPath id="clip0">
<rect width="93.32" height="57.44" fill="white"/>
</clipPath>
</defs>
</svg>
