<svg width="176" height="64" viewBox="0 0 176 64" fill="none" xmlns="http://www.w3.org/2000/svg">
<g clip-path="url(#clip0)">
<path d="M57.0508 44.9531C56.832 45 56.5742 45.0449 56.2773 45.0879C55.9805 45.1348 55.6426 45.1582 55.2637 45.1582C54.8184 45.1582 54.4316 45.0996 54.1035 44.9824C53.7754 44.8613 53.5039 44.6758 53.2891 44.4258C53.0781 44.1758 52.9199 43.8574 52.8145 43.4707C52.7129 43.084 52.6621 42.625 52.6621 42.0938V41.3789C52.6621 40.3281 52.875 39.5547 53.3008 39.0586C53.7266 38.5625 54.3809 38.3145 55.2637 38.3145C55.6543 38.3145 56 38.3379 56.3008 38.3848C56.6016 38.4316 56.8516 38.4766 57.0508 38.5195V39.1172C56.6523 39.0742 56.3184 39.0449 56.0488 39.0293C55.7793 39.0098 55.5527 39 55.3691 39C55.0605 39 54.7871 39.0352 54.5488 39.1055C54.3105 39.1719 54.1094 39.2949 53.9453 39.4746C53.7852 39.6504 53.6621 39.8926 53.5762 40.2012C53.4941 40.5098 53.4531 40.9023 53.4531 41.3789V42.0938C53.4531 42.582 53.4941 42.9805 53.5762 43.2891C53.6582 43.5977 53.7793 43.8418 53.9395 44.0215C54.1035 44.1973 54.3047 44.3184 54.543 44.3848C54.7812 44.4512 55.0566 44.4844 55.3691 44.4844C55.541 44.4844 55.7617 44.4746 56.0312 44.4551C56.3008 44.4355 56.6406 44.4004 57.0508 44.3496V44.9531ZM63.6836 42.082C63.6836 43.0898 63.4629 43.8555 63.0215 44.3789C62.5801 44.8984 61.8984 45.1582 60.9766 45.1582C60.0508 45.1582 59.3672 44.8984 58.9258 44.3789C58.4844 43.8555 58.2637 43.0898 58.2637 42.082V41.3906C58.2637 40.3906 58.4844 39.6289 58.9258 39.1055C59.3672 38.5781 60.0508 38.3145 60.9766 38.3145C61.8984 38.3145 62.5801 38.5781 63.0215 39.1055C63.4629 39.6289 63.6836 40.3906 63.6836 41.3906V42.082ZM62.9043 41.3906C62.9043 40.9727 62.8672 40.6152 62.793 40.3184C62.7188 40.0176 62.6035 39.7715 62.4473 39.5801C62.291 39.3848 62.0918 39.2422 61.8496 39.1523C61.6074 39.0586 61.3164 39.0117 60.9766 39.0117C60.6406 39.0117 60.3496 39.0586 60.1035 39.1523C59.8613 39.2422 59.6602 39.3848 59.5 39.5801C59.3438 39.7715 59.2285 40.0176 59.1543 40.3184C59.0801 40.6152 59.043 40.9727 59.043 41.3906V42.082C59.043 42.5 59.0801 42.8594 59.1543 43.1602C59.2285 43.4609 59.3438 43.709 59.5 43.9043C59.6562 44.0996 59.8555 44.2441 60.0977 44.3379C60.3438 44.4277 60.6367 44.4727 60.9766 44.4727C61.3164 44.4727 61.6074 44.4277 61.8496 44.3379C62.0918 44.2441 62.291 44.0996 62.4473 43.9043C62.6035 43.709 62.7188 43.4609 62.793 43.1602C62.8672 42.8594 62.9043 42.5 62.9043 42.082V41.3906ZM69.6191 45V40.8691C69.6191 40.5215 69.5977 40.2285 69.5547 39.9902C69.5117 39.752 69.4395 39.5605 69.3379 39.416C69.2363 39.2676 69.0996 39.1621 68.9277 39.0996C68.7559 39.0332 68.5391 39 68.2773 39C67.9609 39 67.6211 39.0566 67.2578 39.1699C66.8984 39.2793 66.5137 39.4297 66.1035 39.6211V45H65.3242V38.4844H66.1035V39.0117C66.4668 38.8203 66.834 38.6562 67.2051 38.5195C67.5762 38.3828 67.957 38.3145 68.3477 38.3145C68.7695 38.3145 69.1133 38.3691 69.3789 38.4785C69.6484 38.5879 69.8594 38.752 70.0117 38.9707C70.1641 39.1855 70.2676 39.4531 70.3223 39.7734C70.3809 40.0898 70.4102 40.4551 70.4102 40.8691V45H69.6191ZM75.666 45.0117C75.5996 45.0273 75.5195 45.043 75.4258 45.0586C75.3359 45.0781 75.2383 45.0938 75.1328 45.1055C75.0273 45.1211 74.9199 45.1328 74.8105 45.1406C74.7012 45.1523 74.5957 45.1582 74.4941 45.1582C74.2168 45.1582 73.9844 45.1289 73.7969 45.0703C73.6094 45.0156 73.457 44.9258 73.3398 44.8008C73.2266 44.6719 73.1445 44.5039 73.0938 44.2969C73.043 44.0898 73.0176 43.8359 73.0176 43.5352V39.1465L71.5996 39.082V38.4844H73.0176V36.7324H73.7969V38.4844H75.666V39.1465H73.7969V43.5C73.7969 43.707 73.8047 43.877 73.8203 44.0098C73.8398 44.1387 73.877 44.2422 73.9316 44.3203C73.9902 44.3945 74.0703 44.4473 74.1719 44.4785C74.2734 44.5059 74.4082 44.5195 74.5762 44.5195C74.6582 44.5195 74.7461 44.5195 74.8398 44.5195C74.9375 44.5156 75.0352 44.5117 75.1328 44.5078C75.2305 44.5 75.3262 44.4922 75.4199 44.4844C75.5137 44.4766 75.5957 44.4688 75.666 44.4609V45.0117ZM76.9727 45V38.4844H77.7402V39.0117C77.9316 38.875 78.1309 38.7617 78.3379 38.6719C78.5488 38.582 78.7598 38.5117 78.9707 38.4609C79.1816 38.4062 79.3906 38.3691 79.5977 38.3496C79.8047 38.3262 80.002 38.3145 80.1895 38.3145V39.0234C80.0098 39.0234 79.8145 39.0352 79.6035 39.0586C79.3926 39.0781 79.1797 39.1133 78.9648 39.1641C78.75 39.2109 78.5371 39.2734 78.3262 39.3516C78.1152 39.4258 77.9199 39.5156 77.7402 39.6211V45H76.9727ZM86.4414 42.082C86.4414 43.0898 86.2207 43.8555 85.7793 44.3789C85.3379 44.8984 84.6562 45.1582 83.7344 45.1582C82.8086 45.1582 82.125 44.8984 81.6836 44.3789C81.2422 43.8555 81.0215 43.0898 81.0215 42.082V41.3906C81.0215 40.3906 81.2422 39.6289 81.6836 39.1055C82.125 38.5781 82.8086 38.3145 83.7344 38.3145C84.6562 38.3145 85.3379 38.5781 85.7793 39.1055C86.2207 39.6289 86.4414 40.3906 86.4414 41.3906V42.082ZM85.6621 41.3906C85.6621 40.9727 85.625 40.6152 85.5508 40.3184C85.4766 40.0176 85.3613 39.7715 85.2051 39.5801C85.0488 39.3848 84.8496 39.2422 84.6074 39.1523C84.3652 39.0586 84.0742 39.0117 83.7344 39.0117C83.3984 39.0117 83.1074 39.0586 82.8613 39.1523C82.6191 39.2422 82.418 39.3848 82.2578 39.5801C82.1016 39.7715 81.9863 40.0176 81.9121 40.3184C81.8379 40.6152 81.8008 40.9727 81.8008 41.3906V42.082C81.8008 42.5 81.8379 42.8594 81.9121 43.1602C81.9863 43.4609 82.1016 43.709 82.2578 43.9043C82.4141 44.0996 82.6133 44.2441 82.8555 44.3379C83.1016 44.4277 83.3945 44.4727 83.7344 44.4727C84.0742 44.4727 84.3652 44.4277 84.6074 44.3379C84.8496 44.2441 85.0488 44.0996 85.2051 43.9043C85.3613 43.709 85.4766 43.4609 85.5508 43.1602C85.625 42.8594 85.6621 42.5 85.6621 42.082V41.3906ZM88.1289 45V35.7246H88.9082V45H88.1289ZM93.2852 47.5078V38.4844H94.0293V38.9531C94.3066 38.7695 94.623 38.6172 94.9785 38.4961C95.334 38.375 95.6934 38.3145 96.0566 38.3145C96.4473 38.3145 96.7871 38.373 97.0762 38.4902C97.3652 38.6035 97.6055 38.7852 97.7969 39.0352C97.9883 39.2852 98.1309 39.6094 98.2246 40.0078C98.3223 40.4062 98.3711 40.8867 98.3711 41.4492V41.9297C98.3711 42.543 98.3047 43.0566 98.1719 43.4707C98.043 43.8809 97.8574 44.2109 97.6152 44.4609C97.377 44.7109 97.0859 44.8906 96.7422 45C96.4023 45.1055 96.0215 45.1582 95.5996 45.1582C95.4004 45.1582 95.1641 45.1426 94.8906 45.1113C94.6211 45.084 94.3418 45.0469 94.0527 45V47.5078H93.2852ZM97.5918 41.4492C97.5918 40.9922 97.5605 40.6094 97.498 40.3008C97.4355 39.9883 97.3379 39.7363 97.2051 39.5449C97.0723 39.3535 96.9023 39.2168 96.6953 39.1348C96.4883 39.0527 96.2383 39.0117 95.9453 39.0117C95.6328 39.0117 95.3242 39.0625 95.0195 39.1641C94.7188 39.2617 94.3965 39.3945 94.0527 39.5625V44.3379C94.3691 44.3887 94.6562 44.4258 94.9141 44.4492C95.1719 44.4727 95.4004 44.4844 95.5996 44.4844C95.9199 44.4844 96.2031 44.4473 96.4492 44.373C96.6992 44.2949 96.9082 44.1602 97.0762 43.9688C97.2441 43.7734 97.3711 43.5117 97.457 43.1836C97.5469 42.8555 97.5918 42.4375 97.5918 41.9297V41.4492ZM103.791 45V44.5312C103.678 44.6016 103.545 44.6738 103.393 44.748C103.244 44.8184 103.078 44.8848 102.895 44.9473C102.715 45.0098 102.518 45.0605 102.303 45.0996C102.088 45.1387 101.859 45.1582 101.617 45.1582C100.98 45.1582 100.496 45.0078 100.164 44.707C99.8359 44.4062 99.6719 43.9316 99.6719 43.2832V43.1016C99.6719 42.6875 99.7363 42.3516 99.8652 42.0938C99.998 41.8359 100.191 41.6348 100.445 41.4902C100.699 41.3418 101.01 41.2422 101.377 41.1914C101.748 41.1367 102.172 41.1094 102.648 41.1094H103.756V40.5586C103.756 40.2422 103.734 39.9824 103.691 39.7793C103.648 39.5762 103.562 39.416 103.434 39.2988C103.309 39.1816 103.133 39.1016 102.906 39.0586C102.684 39.0117 102.391 38.9883 102.027 38.9883C101.867 38.9883 101.711 38.9922 101.559 39C101.41 39.0039 101.26 39.0117 101.107 39.0234C100.955 39.0352 100.797 39.0488 100.633 39.0645C100.473 39.0801 100.301 39.0977 100.117 39.1172V38.543C100.27 38.5156 100.418 38.4883 100.562 38.4609C100.711 38.4336 100.861 38.4102 101.014 38.3906C101.17 38.3672 101.334 38.3496 101.506 38.3379C101.682 38.3223 101.875 38.3145 102.086 38.3145C102.605 38.3145 103.025 38.3594 103.346 38.4492C103.666 38.5391 103.914 38.6777 104.09 38.8652C104.27 39.0488 104.391 39.2812 104.453 39.5625C104.516 39.8438 104.547 40.1758 104.547 40.5586V45H103.791ZM103.756 41.7246H102.648C102.254 41.7246 101.918 41.7422 101.641 41.7773C101.363 41.8125 101.137 41.8809 100.961 41.9824C100.785 42.0801 100.656 42.2188 100.574 42.3984C100.496 42.5781 100.457 42.8125 100.457 43.1016V43.3301C100.457 43.5566 100.486 43.748 100.545 43.9043C100.607 44.0566 100.695 44.1816 100.809 44.2793C100.926 44.373 101.064 44.4414 101.225 44.4844C101.389 44.5234 101.572 44.543 101.775 44.543C101.979 44.543 102.178 44.5234 102.373 44.4844C102.572 44.4453 102.758 44.3965 102.93 44.3379C103.105 44.2793 103.264 44.2168 103.404 44.1504C103.549 44.0801 103.666 44.0156 103.756 43.957V41.7246ZM110.682 45V40.8691C110.682 40.5215 110.66 40.2285 110.617 39.9902C110.574 39.752 110.502 39.5605 110.4 39.416C110.299 39.2676 110.162 39.1621 109.99 39.0996C109.818 39.0332 109.602 39 109.34 39C109.023 39 108.684 39.0566 108.32 39.1699C107.961 39.2793 107.576 39.4297 107.166 39.6211V45H106.387V38.4844H107.166V39.0117C107.529 38.8203 107.896 38.6562 108.268 38.5195C108.639 38.3828 109.02 38.3145 109.41 38.3145C109.832 38.3145 110.176 38.3691 110.441 38.4785C110.711 38.5879 110.922 38.752 111.074 38.9707C111.227 39.1855 111.33 39.4531 111.385 39.7734C111.443 40.0898 111.473 40.4551 111.473 40.8691V45H110.682ZM118.24 44.918C118.006 44.9727 117.693 45.0254 117.303 45.0762C116.912 45.1309 116.473 45.1582 115.984 45.1582C115.43 45.1582 114.965 45.0957 114.59 44.9707C114.215 44.8418 113.912 44.6484 113.682 44.3906C113.455 44.1289 113.293 43.7988 113.195 43.4004C113.098 43.002 113.049 42.5312 113.049 41.9883V41.5312C113.049 41.0234 113.102 40.5703 113.207 40.1719C113.312 39.7695 113.475 39.4316 113.693 39.1582C113.916 38.8848 114.195 38.6758 114.531 38.5312C114.871 38.3867 115.275 38.3145 115.744 38.3145C116.217 38.3145 116.623 38.3867 116.963 38.5312C117.307 38.6719 117.588 38.8828 117.807 39.1641C118.029 39.4414 118.193 39.7852 118.299 40.1953C118.404 40.6055 118.457 41.0781 118.457 41.6133V42.0117H113.828V42.1582C113.828 42.5293 113.857 42.8594 113.916 43.1484C113.979 43.4375 114.09 43.6797 114.25 43.875C114.414 44.0703 114.637 44.2188 114.918 44.3203C115.199 44.4219 115.562 44.4727 116.008 44.4727C116.188 44.4727 116.377 44.4688 116.576 44.4609C116.775 44.4492 116.973 44.4355 117.168 44.4199C117.367 44.4043 117.559 44.3848 117.742 44.3613C117.926 44.3379 118.092 44.3145 118.24 44.291V44.918ZM117.643 41.2441C117.643 40.9512 117.617 40.6699 117.566 40.4004C117.516 40.1309 117.42 39.8926 117.279 39.6855C117.143 39.4785 116.951 39.3125 116.705 39.1875C116.459 39.0625 116.139 39 115.744 39C115.35 39 115.027 39.0645 114.777 39.1934C114.531 39.3184 114.338 39.4863 114.197 39.6973C114.061 39.9082 113.967 40.1484 113.916 40.418C113.865 40.6875 113.84 40.9629 113.84 41.2441L113.828 41.3496H117.643V41.2441ZM120.109 45V35.7246H120.889V45H120.109Z" fill="#1A3B47"/>
</g>
<path fill-rule="evenodd" clip-rule="evenodd" d="M24 14V50L44 44.177V19.823L24 14ZM25.8 16.398L42.199 21.174V42.825L25.8 47.602V16.398Z" fill="#1A3B47"/>
<path d="M59.1094 24.5957C59.1094 25.7715 58.8519 26.6647 58.3369 27.2754C57.8219 27.8815 57.0267 28.1846 55.9512 28.1846C54.8711 28.1846 54.0736 27.8815 53.5586 27.2754C53.0436 26.6647 52.7861 25.7715 52.7861 24.5957V23.7891C52.7861 22.6224 53.0436 21.7337 53.5586 21.123C54.0736 20.5078 54.8711 20.2002 55.9512 20.2002C57.0267 20.2002 57.8219 20.5078 58.3369 21.123C58.8519 21.7337 59.1094 22.6224 59.1094 23.7891V24.5957ZM58.2002 23.7891C58.2002 23.3014 58.1569 22.8844 58.0703 22.5381C57.9837 22.1872 57.8493 21.9001 57.667 21.6768C57.4847 21.4489 57.2523 21.2826 56.9697 21.1777C56.6872 21.0684 56.3477 21.0137 55.9512 21.0137C55.5592 21.0137 55.2197 21.0684 54.9326 21.1777C54.6501 21.2826 54.4154 21.4489 54.2285 21.6768C54.0462 21.9001 53.9118 22.1872 53.8252 22.5381C53.7386 22.8844 53.6953 23.3014 53.6953 23.7891V24.5957C53.6953 25.0833 53.7386 25.5026 53.8252 25.8535C53.9118 26.2044 54.0462 26.4938 54.2285 26.7217C54.4108 26.9495 54.6432 27.1182 54.9258 27.2275C55.2129 27.3324 55.5547 27.3848 55.9512 27.3848C56.3477 27.3848 56.6872 27.3324 56.9697 27.2275C57.2523 27.1182 57.4847 26.9495 57.667 26.7217C57.8493 26.4938 57.9837 26.2044 58.0703 25.8535C58.1569 25.5026 58.2002 25.0833 58.2002 24.5957V23.7891ZM66.0342 28V23.1807C66.0342 22.7751 66.0091 22.4333 65.959 22.1553C65.9089 21.8773 65.8245 21.654 65.7061 21.4854C65.5876 21.3122 65.4281 21.1891 65.2275 21.1162C65.027 21.0387 64.7741 21 64.4688 21C64.0996 21 63.7031 21.0661 63.2793 21.1982C62.86 21.3258 62.4111 21.5013 61.9326 21.7246V28H61.0234V20.3984H61.9326V21.0137C62.3564 20.7904 62.7848 20.599 63.2178 20.4395C63.6507 20.2799 64.0951 20.2002 64.5508 20.2002C65.043 20.2002 65.444 20.264 65.7539 20.3916C66.0684 20.5192 66.3145 20.7106 66.4922 20.9658C66.6699 21.2165 66.7907 21.5286 66.8545 21.9023C66.9229 22.2715 66.957 22.6976 66.957 23.1807V28H66.0342ZM74.8525 27.9043C74.5791 27.9681 74.2145 28.0296 73.7588 28.0889C73.3031 28.1527 72.7904 28.1846 72.2207 28.1846C71.5736 28.1846 71.0312 28.1117 70.5938 27.9658C70.1562 27.8154 69.8031 27.5898 69.5342 27.2891C69.2699 26.9837 69.0807 26.5986 68.9668 26.1338C68.8529 25.6689 68.7959 25.1198 68.7959 24.4863V23.9531C68.7959 23.3607 68.8574 22.832 68.9805 22.3672C69.1035 21.8978 69.2926 21.5036 69.5479 21.1846C69.8076 20.8656 70.1335 20.6217 70.5254 20.4531C70.9219 20.2845 71.3936 20.2002 71.9404 20.2002C72.4919 20.2002 72.9658 20.2845 73.3623 20.4531C73.7633 20.6172 74.0915 20.8633 74.3467 21.1914C74.6064 21.515 74.7979 21.916 74.9209 22.3945C75.0439 22.873 75.1055 23.4245 75.1055 24.0488V24.5137H69.7051V24.6846C69.7051 25.1175 69.7393 25.5026 69.8076 25.8398C69.8805 26.1771 70.0104 26.4596 70.1973 26.6875C70.3887 26.9154 70.6484 27.0885 70.9766 27.207C71.3047 27.3255 71.7285 27.3848 72.248 27.3848C72.4577 27.3848 72.6787 27.3802 72.9111 27.3711C73.1436 27.3574 73.3737 27.3415 73.6016 27.3232C73.834 27.305 74.0573 27.2822 74.2715 27.2549C74.4857 27.2275 74.6794 27.2002 74.8525 27.1729V27.9043ZM74.1553 23.6182C74.1553 23.2764 74.1257 22.9482 74.0664 22.6338C74.0072 22.3193 73.8955 22.0413 73.7314 21.7998C73.5719 21.5583 73.3486 21.3646 73.0615 21.2188C72.7744 21.0729 72.4007 21 71.9404 21C71.4801 21 71.1042 21.0752 70.8125 21.2256C70.5254 21.3714 70.2998 21.5674 70.1357 21.8135C69.9762 22.0596 69.8669 22.3398 69.8076 22.6543C69.7484 22.9688 69.7188 23.29 69.7188 23.6182L69.7051 23.7412H74.1553V23.6182ZM76.6572 27.1865C76.7757 27.2002 76.9238 27.2184 77.1016 27.2412C77.2839 27.264 77.4821 27.2891 77.6963 27.3164C77.9105 27.3392 78.1338 27.3597 78.3662 27.3779C78.6032 27.3916 78.8356 27.3984 79.0635 27.3984C79.4189 27.3984 79.7174 27.3688 79.959 27.3096C80.2005 27.2503 80.3919 27.166 80.5332 27.0566C80.679 26.9473 80.7816 26.8151 80.8408 26.6602C80.9046 26.5052 80.9365 26.332 80.9365 26.1406C80.9365 25.9492 80.9115 25.7852 80.8613 25.6484C80.8112 25.5072 80.7223 25.3773 80.5947 25.2588C80.4717 25.1403 80.2985 25.0241 80.0752 24.9102C79.8564 24.7962 79.5762 24.6686 79.2344 24.5273L78.6875 24.3154C78.3229 24.1696 78.0062 24.0192 77.7373 23.8643C77.473 23.7093 77.252 23.543 77.0742 23.3652C76.901 23.1875 76.7712 22.9915 76.6846 22.7773C76.598 22.5632 76.5547 22.3216 76.5547 22.0527C76.5547 21.4147 76.7757 20.9476 77.2178 20.6514C77.6644 20.3506 78.3503 20.2002 79.2754 20.2002C79.5078 20.2002 79.738 20.2093 79.9658 20.2275C80.1937 20.2458 80.4056 20.2686 80.6016 20.2959C80.7975 20.3187 80.973 20.346 81.1279 20.3779C81.2829 20.4098 81.4059 20.4395 81.4971 20.4668V21.1709C81.3193 21.1436 81.1325 21.1208 80.9365 21.1025C80.7451 21.0798 80.5537 21.0615 80.3623 21.0479C80.1709 21.0342 79.984 21.0228 79.8018 21.0137C79.624 21.0046 79.4622 21 79.3164 21C79.002 21 78.7285 21.016 78.4961 21.0479C78.2682 21.0798 78.0791 21.1367 77.9287 21.2188C77.7783 21.2962 77.6667 21.4033 77.5938 21.54C77.5208 21.6768 77.4844 21.8477 77.4844 22.0527C77.4844 22.2305 77.5094 22.3877 77.5596 22.5244C77.6143 22.6566 77.7031 22.7796 77.8262 22.8936C77.9492 23.0029 78.1087 23.11 78.3047 23.2148C78.5052 23.3197 78.7536 23.4313 79.0498 23.5498L79.5967 23.7754C80.0205 23.9531 80.376 24.1217 80.6631 24.2812C80.9502 24.4408 81.1826 24.6094 81.3604 24.7871C81.5381 24.9648 81.6634 25.1608 81.7363 25.375C81.8138 25.5892 81.8525 25.8398 81.8525 26.127C81.8525 26.3958 81.8092 26.6556 81.7227 26.9062C81.6361 27.1523 81.4857 27.3711 81.2715 27.5625C81.0618 27.7493 80.7793 27.8997 80.4238 28.0137C80.0684 28.1276 79.624 28.1846 79.0908 28.1846C78.8356 28.1846 78.5827 28.1732 78.332 28.1504C78.0814 28.1322 77.8467 28.1071 77.6279 28.0752C77.4092 28.0479 77.2155 28.0182 77.0469 27.9863C76.8783 27.9544 76.7484 27.9271 76.6572 27.9043V27.1865ZM88.0049 28V27.4531C87.8727 27.5352 87.7178 27.6195 87.54 27.7061C87.3669 27.7881 87.1732 27.8656 86.959 27.9385C86.7493 28.0114 86.5192 28.0706 86.2686 28.1162C86.0179 28.1618 85.7513 28.1846 85.4688 28.1846C84.7259 28.1846 84.1608 28.0091 83.7734 27.6582C83.3906 27.3073 83.1992 26.7536 83.1992 25.9971V25.7852C83.1992 25.3021 83.2744 24.9102 83.4248 24.6094C83.5798 24.3086 83.8053 24.0739 84.1016 23.9053C84.3978 23.7321 84.7601 23.6159 85.1885 23.5566C85.6214 23.4928 86.1159 23.4609 86.6719 23.4609H87.9639V22.8184C87.9639 22.4492 87.9388 22.1462 87.8887 21.9092C87.8385 21.6722 87.7383 21.4854 87.5879 21.3486C87.4421 21.2119 87.237 21.1185 86.9727 21.0684C86.7129 21.0137 86.3711 20.9863 85.9473 20.9863C85.7604 20.9863 85.5781 20.9909 85.4004 21C85.2272 21.0046 85.0518 21.0137 84.874 21.0273C84.6963 21.041 84.5117 21.057 84.3203 21.0752C84.1335 21.0934 83.9329 21.1139 83.7188 21.1367V20.4668C83.8965 20.4349 84.0697 20.403 84.2383 20.3711C84.4115 20.3392 84.5869 20.3118 84.7646 20.2891C84.9469 20.2617 85.1383 20.2412 85.3389 20.2275C85.5439 20.2093 85.7695 20.2002 86.0156 20.2002C86.6217 20.2002 87.1117 20.2526 87.4854 20.3574C87.859 20.4622 88.1484 20.624 88.3535 20.8428C88.5632 21.057 88.7044 21.3281 88.7773 21.6562C88.8503 21.9844 88.8867 22.3717 88.8867 22.8184V28H88.0049ZM87.9639 24.1787H86.6719C86.2116 24.1787 85.8197 24.1992 85.4961 24.2402C85.1725 24.2812 84.9082 24.361 84.7031 24.4795C84.498 24.5934 84.3477 24.7552 84.252 24.9648C84.1608 25.1745 84.1152 25.4479 84.1152 25.7852V26.0518C84.1152 26.3161 84.1494 26.5394 84.2178 26.7217C84.2907 26.8994 84.3932 27.0452 84.5254 27.1592C84.6621 27.2686 84.8239 27.3483 85.0107 27.3984C85.2021 27.444 85.4163 27.4668 85.6533 27.4668C85.8903 27.4668 86.1227 27.444 86.3506 27.3984C86.583 27.3529 86.7995 27.2959 87 27.2275C87.2051 27.1592 87.3896 27.0863 87.5537 27.0088C87.7223 26.9268 87.859 26.8516 87.9639 26.7832V24.1787ZM91.1016 28V20.3984H92.0244V28H91.1016ZM91.1016 18.915V17.1787H92.0381V18.915H91.1016ZM98.2861 28.0137C98.2087 28.0319 98.1152 28.0501 98.0059 28.0684C97.901 28.0911 97.7871 28.1094 97.6641 28.123C97.541 28.1413 97.4157 28.1549 97.2881 28.1641C97.1605 28.1777 97.0374 28.1846 96.9189 28.1846C96.5954 28.1846 96.3242 28.1504 96.1055 28.082C95.8867 28.0182 95.709 27.9134 95.5723 27.7676C95.4401 27.6172 95.3444 27.4212 95.2852 27.1797C95.2259 26.9382 95.1963 26.6419 95.1963 26.291V21.1709L93.542 21.0957V20.3984H95.1963V18.3545H96.1055V20.3984H98.2861V21.1709H96.1055V26.25C96.1055 26.4915 96.1146 26.6898 96.1328 26.8447C96.1556 26.9951 96.1989 27.1159 96.2627 27.207C96.3311 27.2936 96.4245 27.3551 96.543 27.3916C96.6615 27.4235 96.8187 27.4395 97.0146 27.4395C97.1104 27.4395 97.2129 27.4395 97.3223 27.4395C97.4362 27.4349 97.5501 27.4303 97.6641 27.4258C97.778 27.4167 97.8896 27.4076 97.999 27.3984C98.1084 27.3893 98.2041 27.3802 98.2861 27.3711V28.0137ZM102.627 30.9258V20.3984H103.495V20.9453C103.819 20.7311 104.188 20.5534 104.603 20.4121C105.017 20.2708 105.437 20.2002 105.86 20.2002C106.316 20.2002 106.713 20.2686 107.05 20.4053C107.387 20.5374 107.667 20.7493 107.891 21.041C108.114 21.3327 108.28 21.7109 108.39 22.1758C108.504 22.6406 108.561 23.2012 108.561 23.8574V24.418C108.561 25.1335 108.483 25.7327 108.328 26.2158C108.178 26.6943 107.961 27.0794 107.679 27.3711C107.401 27.6628 107.061 27.8724 106.66 28C106.264 28.123 105.819 28.1846 105.327 28.1846C105.095 28.1846 104.819 28.1663 104.5 28.1299C104.186 28.098 103.86 28.0547 103.522 28V30.9258H102.627ZM107.651 23.8574C107.651 23.3242 107.615 22.8776 107.542 22.5176C107.469 22.153 107.355 21.859 107.2 21.6357C107.045 21.4124 106.847 21.2529 106.605 21.1572C106.364 21.0615 106.072 21.0137 105.73 21.0137C105.366 21.0137 105.006 21.0729 104.65 21.1914C104.299 21.3053 103.924 21.4603 103.522 21.6562V27.2275C103.892 27.2868 104.227 27.3301 104.527 27.3574C104.828 27.3848 105.095 27.3984 105.327 27.3984C105.701 27.3984 106.031 27.3551 106.318 27.2686C106.61 27.1774 106.854 27.0202 107.05 26.7969C107.246 26.569 107.394 26.2637 107.494 25.8809C107.599 25.498 107.651 25.0104 107.651 24.418V23.8574ZM110.529 28V17.1787H111.438V28H110.529ZM118.138 28V27.4531C118.006 27.5352 117.851 27.6195 117.673 27.7061C117.5 27.7881 117.306 27.8656 117.092 27.9385C116.882 28.0114 116.652 28.0706 116.401 28.1162C116.151 28.1618 115.884 28.1846 115.602 28.1846C114.859 28.1846 114.294 28.0091 113.906 27.6582C113.523 27.3073 113.332 26.7536 113.332 25.9971V25.7852C113.332 25.3021 113.407 24.9102 113.558 24.6094C113.713 24.3086 113.938 24.0739 114.234 23.9053C114.531 23.7321 114.893 23.6159 115.321 23.5566C115.754 23.4928 116.249 23.4609 116.805 23.4609H118.097V22.8184C118.097 22.4492 118.072 22.1462 118.021 21.9092C117.971 21.6722 117.871 21.4854 117.721 21.3486C117.575 21.2119 117.37 21.1185 117.105 21.0684C116.846 21.0137 116.504 20.9863 116.08 20.9863C115.893 20.9863 115.711 20.9909 115.533 21C115.36 21.0046 115.185 21.0137 115.007 21.0273C114.829 21.041 114.645 21.057 114.453 21.0752C114.266 21.0934 114.066 21.1139 113.852 21.1367V20.4668C114.029 20.4349 114.202 20.403 114.371 20.3711C114.544 20.3392 114.72 20.3118 114.897 20.2891C115.08 20.2617 115.271 20.2412 115.472 20.2275C115.677 20.2093 115.902 20.2002 116.148 20.2002C116.755 20.2002 117.244 20.2526 117.618 20.3574C117.992 20.4622 118.281 20.624 118.486 20.8428C118.696 21.057 118.837 21.3281 118.91 21.6562C118.983 21.9844 119.02 22.3717 119.02 22.8184V28H118.138ZM118.097 24.1787H116.805C116.344 24.1787 115.952 24.1992 115.629 24.2402C115.305 24.2812 115.041 24.361 114.836 24.4795C114.631 24.5934 114.48 24.7552 114.385 24.9648C114.294 25.1745 114.248 25.4479 114.248 25.7852V26.0518C114.248 26.3161 114.282 26.5394 114.351 26.7217C114.424 26.8994 114.526 27.0452 114.658 27.1592C114.795 27.2686 114.957 27.3483 115.144 27.3984C115.335 27.444 115.549 27.4668 115.786 27.4668C116.023 27.4668 116.256 27.444 116.483 27.3984C116.716 27.3529 116.932 27.2959 117.133 27.2275C117.338 27.1592 117.522 27.0863 117.687 27.0088C117.855 26.9268 117.992 26.8516 118.097 26.7832V24.1787ZM124.536 28.0137C124.459 28.0319 124.365 28.0501 124.256 28.0684C124.151 28.0911 124.037 28.1094 123.914 28.123C123.791 28.1413 123.666 28.1549 123.538 28.1641C123.41 28.1777 123.287 28.1846 123.169 28.1846C122.845 28.1846 122.574 28.1504 122.355 28.082C122.137 28.0182 121.959 27.9134 121.822 27.7676C121.69 27.6172 121.594 27.4212 121.535 27.1797C121.476 26.9382 121.446 26.6419 121.446 26.291V21.1709L119.792 21.0957V20.3984H121.446V18.3545H122.355V20.3984H124.536V21.1709H122.355V26.25C122.355 26.4915 122.365 26.6898 122.383 26.8447C122.406 26.9951 122.449 27.1159 122.513 27.207C122.581 27.2936 122.674 27.3551 122.793 27.3916C122.911 27.4235 123.069 27.4395 123.265 27.4395C123.36 27.4395 123.463 27.4395 123.572 27.4395C123.686 27.4349 123.8 27.4303 123.914 27.4258C124.028 27.4167 124.14 27.4076 124.249 27.3984C124.358 27.3893 124.454 27.3802 124.536 27.3711V28.0137ZM126.717 28V21.1709L125.22 21.0957V20.3984H126.717V19.3594C126.717 19.0267 126.737 18.7191 126.778 18.4365C126.819 18.154 126.906 17.9102 127.038 17.7051C127.175 17.4954 127.368 17.3314 127.619 17.2129C127.874 17.0944 128.214 17.0352 128.638 17.0352C128.888 17.0352 129.137 17.0511 129.383 17.083C129.629 17.1149 129.836 17.1514 130.005 17.1924V17.835C129.923 17.8304 129.832 17.8236 129.731 17.8145C129.631 17.8053 129.524 17.7985 129.41 17.7939C129.301 17.7848 129.189 17.778 129.075 17.7734C128.961 17.7689 128.852 17.7666 128.747 17.7666C128.501 17.7666 128.305 17.7939 128.159 17.8486C128.013 17.9033 127.902 17.9945 127.824 18.1221C127.747 18.2497 127.697 18.416 127.674 18.6211C127.651 18.8216 127.64 19.0677 127.64 19.3594V20.3984H129.964V21.1709H127.64V28H126.717ZM137.545 24.5957C137.545 25.7715 137.287 26.6647 136.772 27.2754C136.257 27.8815 135.462 28.1846 134.387 28.1846C133.307 28.1846 132.509 27.8815 131.994 27.2754C131.479 26.6647 131.222 25.7715 131.222 24.5957V23.7891C131.222 22.6224 131.479 21.7337 131.994 21.123C132.509 20.5078 133.307 20.2002 134.387 20.2002C135.462 20.2002 136.257 20.5078 136.772 21.123C137.287 21.7337 137.545 22.6224 137.545 23.7891V24.5957ZM136.636 23.7891C136.636 23.3014 136.592 22.8844 136.506 22.5381C136.419 22.1872 136.285 21.9001 136.103 21.6768C135.92 21.4489 135.688 21.2826 135.405 21.1777C135.123 21.0684 134.783 21.0137 134.387 21.0137C133.995 21.0137 133.655 21.0684 133.368 21.1777C133.086 21.2826 132.851 21.4489 132.664 21.6768C132.482 21.9001 132.347 22.1872 132.261 22.5381C132.174 22.8844 132.131 23.3014 132.131 23.7891V24.5957C132.131 25.0833 132.174 25.5026 132.261 25.8535C132.347 26.2044 132.482 26.4938 132.664 26.7217C132.846 26.9495 133.079 27.1182 133.361 27.2275C133.648 27.3324 133.99 27.3848 134.387 27.3848C134.783 27.3848 135.123 27.3324 135.405 27.2275C135.688 27.1182 135.92 26.9495 136.103 26.7217C136.285 26.4938 136.419 26.2044 136.506 25.8535C136.592 25.5026 136.636 25.0833 136.636 24.5957V23.7891ZM139.459 28V20.3984H140.354V21.0137C140.578 20.8542 140.81 20.722 141.052 20.6172C141.298 20.5124 141.544 20.4303 141.79 20.3711C142.036 20.3073 142.28 20.264 142.521 20.2412C142.763 20.2139 142.993 20.2002 143.212 20.2002V21.0273C143.002 21.0273 142.774 21.041 142.528 21.0684C142.282 21.0911 142.034 21.1322 141.783 21.1914C141.533 21.2461 141.284 21.319 141.038 21.4102C140.792 21.4967 140.564 21.6016 140.354 21.7246V28H139.459ZM153.097 28V22.9209C153.097 22.6201 153.085 22.3512 153.062 22.1143C153.04 21.8727 152.983 21.6699 152.892 21.5059C152.805 21.3418 152.673 21.2165 152.495 21.1299C152.317 21.0433 152.076 21 151.771 21C151.474 21 151.139 21.0615 150.766 21.1846C150.392 21.3031 150.011 21.4785 149.624 21.7109C149.66 21.8887 149.686 22.0732 149.699 22.2646C149.717 22.4561 149.727 22.6748 149.727 22.9209V28H148.804V22.9209C148.804 22.611 148.792 22.3376 148.77 22.1006C148.751 21.859 148.699 21.6585 148.612 21.499C148.53 21.335 148.405 21.2119 148.236 21.1299C148.068 21.0433 147.835 21 147.539 21C147.375 21 147.204 21.0182 147.026 21.0547C146.849 21.0911 146.669 21.1436 146.486 21.2119C146.304 21.2757 146.124 21.3509 145.946 21.4375C145.769 21.5241 145.595 21.6152 145.427 21.7109V28H144.518V20.3984H145.427V21C145.782 20.7539 146.156 20.5602 146.548 20.4189C146.94 20.2731 147.336 20.2002 147.737 20.2002C148.193 20.2002 148.553 20.2754 148.817 20.4258C149.086 20.5762 149.291 20.7858 149.433 21.0547C149.884 20.7539 150.317 20.5374 150.731 20.4053C151.146 20.2686 151.529 20.2002 151.88 20.2002C152.222 20.2002 152.511 20.2389 152.748 20.3164C152.985 20.3893 153.183 20.4919 153.343 20.624C153.502 20.7516 153.625 20.9043 153.712 21.082C153.803 21.2552 153.871 21.4443 153.917 21.6494C153.963 21.8499 153.99 22.0596 153.999 22.2783C154.013 22.4925 154.02 22.7067 154.02 22.9209V28H153.097Z" fill="#1A3B47"/>
<defs>
<clipPath id="clip0">
<rect width="91" height="32" fill="white" transform="translate(52 16)"/>
</clipPath>
</defs>
</svg>
