<?xml version="1.0" encoding="UTF-8"?>
<svg width="35px" height="28px" viewBox="0 0 35 28" version="1.1" xmlns="http://www.w3.org/2000/svg" xmlns:xlink="http://www.w3.org/1999/xlink">
    <!-- Generator: sketchtool 51.2 (57519) - http://www.bohemiancoding.com/sketch -->
    <title>48CA9353-C9EE-4193-940E-B3F54CB1737B</title>
    <desc>Created with sketchtool.</desc>
    <defs></defs>
    <g id="Page-1" stroke="none" stroke-width="1" fill="none" fill-rule="evenodd">
        <g id="Assets_graficos" transform="translate(-573.000000, -671.000000)" fill-rule="nonzero">
            <g id="ico-/-cards-/-model_data" transform="translate(573.000000, 672.000000)">
                <g id="Group">
                    <path d="M15,8.13483146 C15,6.07865169 11.2162162,5 7.5,5 C3.78378378,5 0,6.07865169 0,8.13483146 L0,19.8651685 C0,21.9213483 3.78378378,23 7.5,23 C11.2162162,23 15,21.9213483 15,19.8651685 L15,8.13483146 Z M7.5,6 C11.7142857,6 14,7.32817469 14,8.01123596 C14,8.69429722 11.7142857,10.0224719 7.5,10.0224719 C3.28571429,10.0224719 1,8.69429722 1,8.01123596 C1,7.32817469 3.28571429,6 7.5,6 Z M1,9.68469375 C2.5,10.5273904 5,10.9318848 7.5,10.9318848 C10,10.9318848 12.5,10.4936825 14,9.68469375 L14,13.8988764 C14,14.505618 11.7142857,15.6853933 7.5,15.6853933 C3.28571429,15.6853933 1,14.505618 1,13.8988764 L1,9.68469375 Z M7.5,22 C3.28571429,22 1,20.6 1,19.88 L1,15.2026563 C2.53571429,16.2026563 5.03571429,16.7226563 7.5,16.7226563 C9.96428571,16.7226563 12.5,16.2026563 14,15.2426563 L14,19.88 C14,20.6 11.7142857,22 7.5,22 Z" id="Shape" fill="#5789AD"></path>
                    <g id="Group-11" transform="translate(19.000000, 0.000000)">
                        <path d="M3.98875559,23.7257227 L3.98875559,23.7257227 C3.98875559,23.4832297 3.79217624,23.2866504 3.54968332,23.2866504 L0.965239351,23.2866504 L0.965239351,13.7697949 L3.54968332,13.7697949 C3.79217624,13.7697949 3.98875559,13.5732156 3.98875559,13.3307227 L3.98875559,13.3307227 C3.98875559,13.0882297 3.79217624,12.8916504 3.54968332,12.8916504 L0.965239351,12.8916504 L0.965239351,3.84665039 L3.56543039,3.84665039 C3.79922644,3.84665039 3.98875559,3.65712124 3.98875559,3.4233252 L3.98875559,3.4233252 C3.98875559,3.18952915 3.79922644,3 3.56543039,3 L-9.09494702e-13,3 L-9.09494702e-13,24.1647949 L3.54968332,24.1647949 C3.79217624,24.1647949 3.98875559,23.9682156 3.98875559,23.7257227 Z" id="Shape" fill="#5789AD"></path>
                        <path d="M14.2978723,10 L8,10 C7.44771525,10 7,10.4477153 7,11 L7,15.2775 C7,15.8297847 7.44771525,16.2775 8,16.2775 L14.2978723,16.2775 C14.8501571,16.2775 15.2978723,15.8297847 15.2978723,15.2775 L15.2978723,11 C15.2978723,10.4477153 14.8501571,10 14.2978723,10 Z" id="Shape" stroke="#5789AD"></path>
                        <path d="M14.2978723,20 L8,20 C7.44771525,20 7,20.4477153 7,21 L7,25.2775 C7,25.8297847 7.44771525,26.2775 8,26.2775 L14.2978723,26.2775 C14.8501571,26.2775 15.2978723,25.8297847 15.2978723,25.2775 L15.2978723,21 C15.2978723,20.4477153 14.8501571,20 14.2978723,20 Z" id="Shape" stroke="#5789AD"></path>
                        <path d="M14.2978723,0 L8,-1.11022302e-16 C7.44771525,-9.5692398e-18 7,0.44771525 7,1 L7,5.2775 C7,5.82978475 7.44771525,6.2775 8,6.2775 L14.2978723,6.2775 C14.8501571,6.2775 15.2978723,5.82978475 15.2978723,5.2775 L15.2978723,1 C15.2978723,0.44771525 14.8501571,-1.01453063e-16 14.2978723,0 Z" id="Shape" stroke="#5789AD"></path>
                    </g>
                </g>
            </g>
        </g>
    </g>
</svg>