<svg width="132" height="36" viewBox="0 0 132 36" fill="none" xmlns="http://www.w3.org/2000/svg">
<path fill-rule="evenodd" clip-rule="evenodd" d="M0 0V36L20 30.177V5.823L0 0ZM1.8 2.398L18.199 7.174V28.825L1.8 33.602V2.398Z" fill="#051724"/>
<path d="M33.0508 31.9531C32.832 32 32.5742 32.0449 32.2773 32.0879C31.9805 32.1348 31.6426 32.1582 31.2637 32.1582C30.8184 32.1582 30.4316 32.0996 30.1035 31.9824C29.7754 31.8613 29.5039 31.6758 29.2891 31.4258C29.0781 31.1758 28.9199 30.8574 28.8145 30.4707C28.7129 30.084 28.6621 29.625 28.6621 29.0938V28.3789C28.6621 27.3281 28.875 26.5547 29.3008 26.0586C29.7266 25.5625 30.3809 25.3145 31.2637 25.3145C31.6543 25.3145 32 25.3379 32.3008 25.3848C32.6016 25.4316 32.8516 25.4766 33.0508 25.5195V26.1172C32.6523 26.0742 32.3184 26.0449 32.0488 26.0293C31.7793 26.0098 31.5527 26 31.3691 26C31.0605 26 30.7871 26.0352 30.5488 26.1055C30.3105 26.1719 30.1094 26.2949 29.9453 26.4746C29.7852 26.6504 29.6621 26.8926 29.5762 27.2012C29.4941 27.5098 29.4531 27.9023 29.4531 28.3789V29.0938C29.4531 29.582 29.4941 29.9805 29.5762 30.2891C29.6582 30.5977 29.7793 30.8418 29.9395 31.0215C30.1035 31.1973 30.3047 31.3184 30.543 31.3848C30.7812 31.4512 31.0566 31.4844 31.3691 31.4844C31.541 31.4844 31.7617 31.4746 32.0312 31.4551C32.3008 31.4355 32.6406 31.4004 33.0508 31.3496V31.9531ZM39.6836 29.082C39.6836 30.0898 39.4629 30.8555 39.0215 31.3789C38.5801 31.8984 37.8984 32.1582 36.9766 32.1582C36.0508 32.1582 35.3672 31.8984 34.9258 31.3789C34.4844 30.8555 34.2637 30.0898 34.2637 29.082V28.3906C34.2637 27.3906 34.4844 26.6289 34.9258 26.1055C35.3672 25.5781 36.0508 25.3145 36.9766 25.3145C37.8984 25.3145 38.5801 25.5781 39.0215 26.1055C39.4629 26.6289 39.6836 27.3906 39.6836 28.3906V29.082ZM38.9043 28.3906C38.9043 27.9727 38.8672 27.6152 38.793 27.3184C38.7188 27.0176 38.6035 26.7715 38.4473 26.5801C38.291 26.3848 38.0918 26.2422 37.8496 26.1523C37.6074 26.0586 37.3164 26.0117 36.9766 26.0117C36.6406 26.0117 36.3496 26.0586 36.1035 26.1523C35.8613 26.2422 35.6602 26.3848 35.5 26.5801C35.3438 26.7715 35.2285 27.0176 35.1543 27.3184C35.0801 27.6152 35.043 27.9727 35.043 28.3906V29.082C35.043 29.5 35.0801 29.8594 35.1543 30.1602C35.2285 30.4609 35.3438 30.709 35.5 30.9043C35.6562 31.0996 35.8555 31.2441 36.0977 31.3379C36.3438 31.4277 36.6367 31.4727 36.9766 31.4727C37.3164 31.4727 37.6074 31.4277 37.8496 31.3379C38.0918 31.2441 38.291 31.0996 38.4473 30.9043C38.6035 30.709 38.7188 30.4609 38.793 30.1602C38.8672 29.8594 38.9043 29.5 38.9043 29.082V28.3906ZM45.6191 32V27.8691C45.6191 27.5215 45.5977 27.2285 45.5547 26.9902C45.5117 26.752 45.4395 26.5605 45.3379 26.416C45.2363 26.2676 45.0996 26.1621 44.9277 26.0996C44.7559 26.0332 44.5391 26 44.2773 26C43.9609 26 43.6211 26.0566 43.2578 26.1699C42.8984 26.2793 42.5137 26.4297 42.1035 26.6211V32H41.3242V25.4844H42.1035V26.0117C42.4668 25.8203 42.834 25.6562 43.2051 25.5195C43.5762 25.3828 43.957 25.3145 44.3477 25.3145C44.7695 25.3145 45.1133 25.3691 45.3789 25.4785C45.6484 25.5879 45.8594 25.752 46.0117 25.9707C46.1641 26.1855 46.2676 26.4531 46.3223 26.7734C46.3809 27.0898 46.4102 27.4551 46.4102 27.8691V32H45.6191ZM51.666 32.0117C51.5996 32.0273 51.5195 32.043 51.4258 32.0586C51.3359 32.0781 51.2383 32.0938 51.1328 32.1055C51.0273 32.1211 50.9199 32.1328 50.8105 32.1406C50.7012 32.1523 50.5957 32.1582 50.4941 32.1582C50.2168 32.1582 49.9844 32.1289 49.7969 32.0703C49.6094 32.0156 49.457 31.9258 49.3398 31.8008C49.2266 31.6719 49.1445 31.5039 49.0938 31.2969C49.043 31.0898 49.0176 30.8359 49.0176 30.5352V26.1465L47.5996 26.082V25.4844H49.0176V23.7324H49.7969V25.4844H51.666V26.1465H49.7969V30.5C49.7969 30.707 49.8047 30.877 49.8203 31.0098C49.8398 31.1387 49.877 31.2422 49.9316 31.3203C49.9902 31.3945 50.0703 31.4473 50.1719 31.4785C50.2734 31.5059 50.4082 31.5195 50.5762 31.5195C50.6582 31.5195 50.7461 31.5195 50.8398 31.5195C50.9375 31.5156 51.0352 31.5117 51.1328 31.5078C51.2305 31.5 51.3262 31.4922 51.4199 31.4844C51.5137 31.4766 51.5957 31.4688 51.666 31.4609V32.0117ZM52.9727 32V25.4844H53.7402V26.0117C53.9316 25.875 54.1309 25.7617 54.3379 25.6719C54.5488 25.582 54.7598 25.5117 54.9707 25.4609C55.1816 25.4062 55.3906 25.3691 55.5977 25.3496C55.8047 25.3262 56.002 25.3145 56.1895 25.3145V26.0234C56.0098 26.0234 55.8145 26.0352 55.6035 26.0586C55.3926 26.0781 55.1797 26.1133 54.9648 26.1641C54.75 26.2109 54.5371 26.2734 54.3262 26.3516C54.1152 26.4258 53.9199 26.5156 53.7402 26.6211V32H52.9727ZM62.4414 29.082C62.4414 30.0898 62.2207 30.8555 61.7793 31.3789C61.3379 31.8984 60.6562 32.1582 59.7344 32.1582C58.8086 32.1582 58.125 31.8984 57.6836 31.3789C57.2422 30.8555 57.0215 30.0898 57.0215 29.082V28.3906C57.0215 27.3906 57.2422 26.6289 57.6836 26.1055C58.125 25.5781 58.8086 25.3145 59.7344 25.3145C60.6562 25.3145 61.3379 25.5781 61.7793 26.1055C62.2207 26.6289 62.4414 27.3906 62.4414 28.3906V29.082ZM61.6621 28.3906C61.6621 27.9727 61.625 27.6152 61.5508 27.3184C61.4766 27.0176 61.3613 26.7715 61.2051 26.5801C61.0488 26.3848 60.8496 26.2422 60.6074 26.1523C60.3652 26.0586 60.0742 26.0117 59.7344 26.0117C59.3984 26.0117 59.1074 26.0586 58.8613 26.1523C58.6191 26.2422 58.418 26.3848 58.2578 26.5801C58.1016 26.7715 57.9863 27.0176 57.9121 27.3184C57.8379 27.6152 57.8008 27.9727 57.8008 28.3906V29.082C57.8008 29.5 57.8379 29.8594 57.9121 30.1602C57.9863 30.4609 58.1016 30.709 58.2578 30.9043C58.4141 31.0996 58.6133 31.2441 58.8555 31.3379C59.1016 31.4277 59.3945 31.4727 59.7344 31.4727C60.0742 31.4727 60.3652 31.4277 60.6074 31.3379C60.8496 31.2441 61.0488 31.0996 61.2051 30.9043C61.3613 30.709 61.4766 30.4609 61.5508 30.1602C61.625 29.8594 61.6621 29.5 61.6621 29.082V28.3906ZM64.1289 32V22.7246H64.9082V32H64.1289ZM69.2852 34.5078V25.4844H70.0293V25.9531C70.3066 25.7695 70.623 25.6172 70.9785 25.4961C71.334 25.375 71.6934 25.3145 72.0566 25.3145C72.4473 25.3145 72.7871 25.373 73.0762 25.4902C73.3652 25.6035 73.6055 25.7852 73.7969 26.0352C73.9883 26.2852 74.1309 26.6094 74.2246 27.0078C74.3223 27.4062 74.3711 27.8867 74.3711 28.4492V28.9297C74.3711 29.543 74.3047 30.0566 74.1719 30.4707C74.043 30.8809 73.8574 31.2109 73.6152 31.4609C73.377 31.7109 73.0859 31.8906 72.7422 32C72.4023 32.1055 72.0215 32.1582 71.5996 32.1582C71.4004 32.1582 71.1641 32.1426 70.8906 32.1113C70.6211 32.084 70.3418 32.0469 70.0527 32V34.5078H69.2852ZM73.5918 28.4492C73.5918 27.9922 73.5605 27.6094 73.498 27.3008C73.4355 26.9883 73.3379 26.7363 73.2051 26.5449C73.0723 26.3535 72.9023 26.2168 72.6953 26.1348C72.4883 26.0527 72.2383 26.0117 71.9453 26.0117C71.6328 26.0117 71.3242 26.0625 71.0195 26.1641C70.7188 26.2617 70.3965 26.3945 70.0527 26.5625V31.3379C70.3691 31.3887 70.6562 31.4258 70.9141 31.4492C71.1719 31.4727 71.4004 31.4844 71.5996 31.4844C71.9199 31.4844 72.2031 31.4473 72.4492 31.373C72.6992 31.2949 72.9082 31.1602 73.0762 30.9688C73.2441 30.7734 73.3711 30.5117 73.457 30.1836C73.5469 29.8555 73.5918 29.4375 73.5918 28.9297V28.4492ZM79.791 32V31.5312C79.6777 31.6016 79.5449 31.6738 79.3926 31.748C79.2441 31.8184 79.0781 31.8848 78.8945 31.9473C78.7148 32.0098 78.5176 32.0605 78.3027 32.0996C78.0879 32.1387 77.8594 32.1582 77.6172 32.1582C76.9805 32.1582 76.4961 32.0078 76.1641 31.707C75.8359 31.4062 75.6719 30.9316 75.6719 30.2832V30.1016C75.6719 29.6875 75.7363 29.3516 75.8652 29.0938C75.998 28.8359 76.1914 28.6348 76.4453 28.4902C76.6992 28.3418 77.0098 28.2422 77.377 28.1914C77.748 28.1367 78.1719 28.1094 78.6484 28.1094H79.7559V27.5586C79.7559 27.2422 79.7344 26.9824 79.6914 26.7793C79.6484 26.5762 79.5625 26.416 79.4336 26.2988C79.3086 26.1816 79.1328 26.1016 78.9062 26.0586C78.6836 26.0117 78.3906 25.9883 78.0273 25.9883C77.8672 25.9883 77.7109 25.9922 77.5586 26C77.4102 26.0039 77.2598 26.0117 77.1074 26.0234C76.9551 26.0352 76.7969 26.0488 76.6328 26.0645C76.4727 26.0801 76.3008 26.0977 76.1172 26.1172V25.543C76.2695 25.5156 76.418 25.4883 76.5625 25.4609C76.7109 25.4336 76.8613 25.4102 77.0137 25.3906C77.1699 25.3672 77.334 25.3496 77.5059 25.3379C77.6816 25.3223 77.875 25.3145 78.0859 25.3145C78.6055 25.3145 79.0254 25.3594 79.3457 25.4492C79.666 25.5391 79.9141 25.6777 80.0898 25.8652C80.2695 26.0488 80.3906 26.2812 80.4531 26.5625C80.5156 26.8438 80.5469 27.1758 80.5469 27.5586V32H79.791ZM79.7559 28.7246H78.6484C78.2539 28.7246 77.918 28.7422 77.6406 28.7773C77.3633 28.8125 77.1367 28.8809 76.9609 28.9824C76.7852 29.0801 76.6562 29.2188 76.5742 29.3984C76.4961 29.5781 76.457 29.8125 76.457 30.1016V30.3301C76.457 30.5566 76.4863 30.748 76.5449 30.9043C76.6074 31.0566 76.6953 31.1816 76.8086 31.2793C76.9258 31.373 77.0645 31.4414 77.2246 31.4844C77.3887 31.5234 77.5723 31.543 77.7754 31.543C77.9785 31.543 78.1777 31.5234 78.373 31.4844C78.5723 31.4453 78.7578 31.3965 78.9297 31.3379C79.1055 31.2793 79.2637 31.2168 79.4043 31.1504C79.5488 31.0801 79.666 31.0156 79.7559 30.957V28.7246ZM86.6816 32V27.8691C86.6816 27.5215 86.6602 27.2285 86.6172 26.9902C86.5742 26.752 86.502 26.5605 86.4004 26.416C86.2988 26.2676 86.1621 26.1621 85.9902 26.0996C85.8184 26.0332 85.6016 26 85.3398 26C85.0234 26 84.6836 26.0566 84.3203 26.1699C83.9609 26.2793 83.5762 26.4297 83.166 26.6211V32H82.3867V25.4844H83.166V26.0117C83.5293 25.8203 83.8965 25.6562 84.2676 25.5195C84.6387 25.3828 85.0195 25.3145 85.4102 25.3145C85.832 25.3145 86.1758 25.3691 86.4414 25.4785C86.7109 25.5879 86.9219 25.752 87.0742 25.9707C87.2266 26.1855 87.3301 26.4531 87.3848 26.7734C87.4434 27.0898 87.4727 27.4551 87.4727 27.8691V32H86.6816ZM94.2402 31.918C94.0059 31.9727 93.6934 32.0254 93.3027 32.0762C92.9121 32.1309 92.4727 32.1582 91.9844 32.1582C91.4297 32.1582 90.9648 32.0957 90.5898 31.9707C90.2148 31.8418 89.9121 31.6484 89.6816 31.3906C89.4551 31.1289 89.293 30.7988 89.1953 30.4004C89.0977 30.002 89.0488 29.5312 89.0488 28.9883V28.5312C89.0488 28.0234 89.1016 27.5703 89.207 27.1719C89.3125 26.7695 89.4746 26.4316 89.6934 26.1582C89.916 25.8848 90.1953 25.6758 90.5312 25.5312C90.8711 25.3867 91.2754 25.3145 91.7441 25.3145C92.2168 25.3145 92.623 25.3867 92.9629 25.5312C93.3066 25.6719 93.5879 25.8828 93.8066 26.1641C94.0293 26.4414 94.1934 26.7852 94.2988 27.1953C94.4043 27.6055 94.457 28.0781 94.457 28.6133V29.0117H89.8281V29.1582C89.8281 29.5293 89.8574 29.8594 89.916 30.1484C89.9785 30.4375 90.0898 30.6797 90.25 30.875C90.4141 31.0703 90.6367 31.2188 90.918 31.3203C91.1992 31.4219 91.5625 31.4727 92.0078 31.4727C92.1875 31.4727 92.377 31.4688 92.5762 31.4609C92.7754 31.4492 92.9727 31.4355 93.168 31.4199C93.3672 31.4043 93.5586 31.3848 93.7422 31.3613C93.9258 31.3379 94.0918 31.3145 94.2402 31.291V31.918ZM93.6426 28.2441C93.6426 27.9512 93.6172 27.6699 93.5664 27.4004C93.5156 27.1309 93.4199 26.8926 93.2793 26.6855C93.1426 26.4785 92.9512 26.3125 92.7051 26.1875C92.459 26.0625 92.1387 26 91.7441 26C91.3496 26 91.0273 26.0645 90.7773 26.1934C90.5312 26.3184 90.3379 26.4863 90.1973 26.6973C90.0605 26.9082 89.9668 27.1484 89.916 27.418C89.8652 27.6875 89.8398 27.9629 89.8398 28.2441L89.8281 28.3496H93.6426V28.2441ZM96.1094 32V22.7246H96.8887V32H96.1094Z" fill="#051724"/>
<path d="M35.1094 12.5957C35.1094 13.7715 34.8519 14.6647 34.3369 15.2754C33.8219 15.8815 33.0267 16.1846 31.9512 16.1846C30.8711 16.1846 30.0736 15.8815 29.5586 15.2754C29.0436 14.6647 28.7861 13.7715 28.7861 12.5957V11.7891C28.7861 10.6224 29.0436 9.73372 29.5586 9.12305C30.0736 8.50781 30.8711 8.2002 31.9512 8.2002C33.0267 8.2002 33.8219 8.50781 34.3369 9.12305C34.8519 9.73372 35.1094 10.6224 35.1094 11.7891V12.5957ZM34.2002 11.7891C34.2002 11.3014 34.1569 10.8844 34.0703 10.5381C33.9837 10.1872 33.8493 9.90007 33.667 9.67676C33.4847 9.44889 33.2523 9.28255 32.9697 9.17773C32.6872 9.06836 32.3477 9.01367 31.9512 9.01367C31.5592 9.01367 31.2197 9.06836 30.9326 9.17773C30.6501 9.28255 30.4154 9.44889 30.2285 9.67676C30.0462 9.90007 29.9118 10.1872 29.8252 10.5381C29.7386 10.8844 29.6953 11.3014 29.6953 11.7891V12.5957C29.6953 13.0833 29.7386 13.5026 29.8252 13.8535C29.9118 14.2044 30.0462 14.4938 30.2285 14.7217C30.4108 14.9495 30.6432 15.1182 30.9258 15.2275C31.2129 15.3324 31.5547 15.3848 31.9512 15.3848C32.3477 15.3848 32.6872 15.3324 32.9697 15.2275C33.2523 15.1182 33.4847 14.9495 33.667 14.7217C33.8493 14.4938 33.9837 14.2044 34.0703 13.8535C34.1569 13.5026 34.2002 13.0833 34.2002 12.5957V11.7891ZM42.0342 16V11.1807C42.0342 10.7751 42.0091 10.4333 41.959 10.1553C41.9089 9.87728 41.8245 9.65397 41.7061 9.48535C41.5876 9.31217 41.4281 9.18913 41.2275 9.11621C41.027 9.03874 40.7741 9 40.4688 9C40.0996 9 39.7031 9.06608 39.2793 9.19824C38.86 9.32585 38.4111 9.5013 37.9326 9.72461V16H37.0234V8.39844H37.9326V9.01367C38.3564 8.79036 38.7848 8.59896 39.2178 8.43945C39.6507 8.27995 40.0951 8.2002 40.5508 8.2002C41.043 8.2002 41.444 8.264 41.7539 8.3916C42.0684 8.51921 42.3145 8.71061 42.4922 8.96582C42.6699 9.21647 42.7907 9.52865 42.8545 9.90234C42.9229 10.2715 42.957 10.6976 42.957 11.1807V16H42.0342ZM50.8525 15.9043C50.5791 15.9681 50.2145 16.0296 49.7588 16.0889C49.3031 16.1527 48.7904 16.1846 48.2207 16.1846C47.5736 16.1846 47.0312 16.1117 46.5938 15.9658C46.1562 15.8154 45.8031 15.5898 45.5342 15.2891C45.2699 14.9837 45.0807 14.5986 44.9668 14.1338C44.8529 13.6689 44.7959 13.1198 44.7959 12.4863V11.9531C44.7959 11.3607 44.8574 10.832 44.9805 10.3672C45.1035 9.89779 45.2926 9.50358 45.5479 9.18457C45.8076 8.86556 46.1335 8.62174 46.5254 8.45312C46.9219 8.28451 47.3936 8.2002 47.9404 8.2002C48.4919 8.2002 48.9658 8.28451 49.3623 8.45312C49.7633 8.61719 50.0915 8.86328 50.3467 9.19141C50.6064 9.51497 50.7979 9.91602 50.9209 10.3945C51.0439 10.873 51.1055 11.4245 51.1055 12.0488V12.5137H45.7051V12.6846C45.7051 13.1175 45.7393 13.5026 45.8076 13.8398C45.8805 14.1771 46.0104 14.4596 46.1973 14.6875C46.3887 14.9154 46.6484 15.0885 46.9766 15.207C47.3047 15.3255 47.7285 15.3848 48.248 15.3848C48.4577 15.3848 48.6787 15.3802 48.9111 15.3711C49.1436 15.3574 49.3737 15.3415 49.6016 15.3232C49.834 15.305 50.0573 15.2822 50.2715 15.2549C50.4857 15.2275 50.6794 15.2002 50.8525 15.1729V15.9043ZM50.1553 11.6182C50.1553 11.2764 50.1257 10.9482 50.0664 10.6338C50.0072 10.3193 49.8955 10.0413 49.7314 9.7998C49.5719 9.55827 49.3486 9.36458 49.0615 9.21875C48.7744 9.07292 48.4007 9 47.9404 9C47.4801 9 47.1042 9.0752 46.8125 9.22559C46.5254 9.37142 46.2998 9.56738 46.1357 9.81348C45.9762 10.0596 45.8669 10.3398 45.8076 10.6543C45.7484 10.9688 45.7188 11.29 45.7188 11.6182L45.7051 11.7412H50.1553V11.6182ZM52.6572 15.1865C52.7757 15.2002 52.9238 15.2184 53.1016 15.2412C53.2839 15.264 53.4821 15.2891 53.6963 15.3164C53.9105 15.3392 54.1338 15.3597 54.3662 15.3779C54.6032 15.3916 54.8356 15.3984 55.0635 15.3984C55.4189 15.3984 55.7174 15.3688 55.959 15.3096C56.2005 15.2503 56.3919 15.166 56.5332 15.0566C56.679 14.9473 56.7816 14.8151 56.8408 14.6602C56.9046 14.5052 56.9365 14.332 56.9365 14.1406C56.9365 13.9492 56.9115 13.7852 56.8613 13.6484C56.8112 13.5072 56.7223 13.3773 56.5947 13.2588C56.4717 13.1403 56.2985 13.0241 56.0752 12.9102C55.8564 12.7962 55.5762 12.6686 55.2344 12.5273L54.6875 12.3154C54.3229 12.1696 54.0062 12.0192 53.7373 11.8643C53.473 11.7093 53.252 11.543 53.0742 11.3652C52.901 11.1875 52.7712 10.9915 52.6846 10.7773C52.598 10.5632 52.5547 10.3216 52.5547 10.0527C52.5547 9.41471 52.7757 8.94759 53.2178 8.65137C53.6644 8.35059 54.3503 8.2002 55.2754 8.2002C55.5078 8.2002 55.738 8.20931 55.9658 8.22754C56.1937 8.24577 56.4056 8.26855 56.6016 8.2959C56.7975 8.31868 56.973 8.34603 57.1279 8.37793C57.2829 8.40983 57.4059 8.43945 57.4971 8.4668V9.1709C57.3193 9.14355 57.1325 9.12077 56.9365 9.10254C56.7451 9.07975 56.5537 9.06152 56.3623 9.04785C56.1709 9.03418 55.984 9.02279 55.8018 9.01367C55.624 9.00456 55.4622 9 55.3164 9C55.002 9 54.7285 9.01595 54.4961 9.04785C54.2682 9.07975 54.0791 9.13672 53.9287 9.21875C53.7783 9.29622 53.6667 9.40332 53.5938 9.54004C53.5208 9.67676 53.4844 9.84766 53.4844 10.0527C53.4844 10.2305 53.5094 10.3877 53.5596 10.5244C53.6143 10.6566 53.7031 10.7796 53.8262 10.8936C53.9492 11.0029 54.1087 11.11 54.3047 11.2148C54.5052 11.3197 54.7536 11.4313 55.0498 11.5498L55.5967 11.7754C56.0205 11.9531 56.376 12.1217 56.6631 12.2812C56.9502 12.4408 57.1826 12.6094 57.3604 12.7871C57.5381 12.9648 57.6634 13.1608 57.7363 13.375C57.8138 13.5892 57.8525 13.8398 57.8525 14.127C57.8525 14.3958 57.8092 14.6556 57.7227 14.9062C57.6361 15.1523 57.4857 15.3711 57.2715 15.5625C57.0618 15.7493 56.7793 15.8997 56.4238 16.0137C56.0684 16.1276 55.624 16.1846 55.0908 16.1846C54.8356 16.1846 54.5827 16.1732 54.332 16.1504C54.0814 16.1322 53.8467 16.1071 53.6279 16.0752C53.4092 16.0479 53.2155 16.0182 53.0469 15.9863C52.8783 15.9544 52.7484 15.9271 52.6572 15.9043V15.1865ZM64.0049 16V15.4531C63.8727 15.5352 63.7178 15.6195 63.54 15.7061C63.3669 15.7881 63.1732 15.8656 62.959 15.9385C62.7493 16.0114 62.5192 16.0706 62.2686 16.1162C62.0179 16.1618 61.7513 16.1846 61.4688 16.1846C60.7259 16.1846 60.1608 16.0091 59.7734 15.6582C59.3906 15.3073 59.1992 14.7536 59.1992 13.9971V13.7852C59.1992 13.3021 59.2744 12.9102 59.4248 12.6094C59.5798 12.3086 59.8053 12.0739 60.1016 11.9053C60.3978 11.7321 60.7601 11.6159 61.1885 11.5566C61.6214 11.4928 62.1159 11.4609 62.6719 11.4609H63.9639V10.8184C63.9639 10.4492 63.9388 10.1462 63.8887 9.90918C63.8385 9.6722 63.7383 9.48535 63.5879 9.34863C63.4421 9.21191 63.237 9.11849 62.9727 9.06836C62.7129 9.01367 62.3711 8.98633 61.9473 8.98633C61.7604 8.98633 61.5781 8.99089 61.4004 9C61.2272 9.00456 61.0518 9.01367 60.874 9.02734C60.6963 9.04102 60.5117 9.05697 60.3203 9.0752C60.1335 9.09342 59.9329 9.11393 59.7188 9.13672V8.4668C59.8965 8.4349 60.0697 8.40299 60.2383 8.37109C60.4115 8.33919 60.5869 8.31185 60.7646 8.28906C60.9469 8.26172 61.1383 8.24121 61.3389 8.22754C61.5439 8.20931 61.7695 8.2002 62.0156 8.2002C62.6217 8.2002 63.1117 8.2526 63.4854 8.35742C63.859 8.46224 64.1484 8.62402 64.3535 8.84277C64.5632 9.05697 64.7044 9.32812 64.7773 9.65625C64.8503 9.98438 64.8867 10.3717 64.8867 10.8184V16H64.0049ZM63.9639 12.1787H62.6719C62.2116 12.1787 61.8197 12.1992 61.4961 12.2402C61.1725 12.2812 60.9082 12.361 60.7031 12.4795C60.498 12.5934 60.3477 12.7552 60.252 12.9648C60.1608 13.1745 60.1152 13.4479 60.1152 13.7852V14.0518C60.1152 14.3161 60.1494 14.5394 60.2178 14.7217C60.2907 14.8994 60.3932 15.0452 60.5254 15.1592C60.6621 15.2686 60.8239 15.3483 61.0107 15.3984C61.2021 15.444 61.4163 15.4668 61.6533 15.4668C61.8903 15.4668 62.1227 15.444 62.3506 15.3984C62.583 15.3529 62.7995 15.2959 63 15.2275C63.2051 15.1592 63.3896 15.0863 63.5537 15.0088C63.7223 14.9268 63.859 14.8516 63.9639 14.7832V12.1787ZM67.1016 16V8.39844H68.0244V16H67.1016ZM67.1016 6.91504V5.17871H68.0381V6.91504H67.1016ZM74.2861 16.0137C74.2087 16.0319 74.1152 16.0501 74.0059 16.0684C73.901 16.0911 73.7871 16.1094 73.6641 16.123C73.541 16.1413 73.4157 16.1549 73.2881 16.1641C73.1605 16.1777 73.0374 16.1846 72.9189 16.1846C72.5954 16.1846 72.3242 16.1504 72.1055 16.082C71.8867 16.0182 71.709 15.9134 71.5723 15.7676C71.4401 15.6172 71.3444 15.4212 71.2852 15.1797C71.2259 14.9382 71.1963 14.6419 71.1963 14.291V9.1709L69.542 9.0957V8.39844H71.1963V6.35449H72.1055V8.39844H74.2861V9.1709H72.1055V14.25C72.1055 14.4915 72.1146 14.6898 72.1328 14.8447C72.1556 14.9951 72.1989 15.1159 72.2627 15.207C72.3311 15.2936 72.4245 15.3551 72.543 15.3916C72.6615 15.4235 72.8187 15.4395 73.0146 15.4395C73.1104 15.4395 73.2129 15.4395 73.3223 15.4395C73.4362 15.4349 73.5501 15.4303 73.6641 15.4258C73.778 15.4167 73.8896 15.4076 73.999 15.3984C74.1084 15.3893 74.2041 15.3802 74.2861 15.3711V16.0137ZM78.627 18.9258V8.39844H79.4951V8.94531C79.8187 8.73112 80.1878 8.55339 80.6025 8.41211C81.0173 8.27083 81.4365 8.2002 81.8604 8.2002C82.3161 8.2002 82.7126 8.26855 83.0498 8.40527C83.387 8.53743 83.6673 8.74935 83.8906 9.04102C84.1139 9.33268 84.2803 9.71094 84.3896 10.1758C84.5036 10.6406 84.5605 11.2012 84.5605 11.8574V12.418C84.5605 13.1335 84.4831 13.7327 84.3281 14.2158C84.1777 14.6943 83.9613 15.0794 83.6787 15.3711C83.4007 15.6628 83.0612 15.8724 82.6602 16C82.2637 16.123 81.8193 16.1846 81.3271 16.1846C81.0947 16.1846 80.819 16.1663 80.5 16.1299C80.1855 16.098 79.8597 16.0547 79.5225 16V18.9258H78.627ZM83.6514 11.8574C83.6514 11.3242 83.6149 10.8776 83.542 10.5176C83.4691 10.153 83.3551 9.85905 83.2002 9.63574C83.0452 9.41243 82.847 9.25293 82.6055 9.15723C82.3639 9.06152 82.0723 9.01367 81.7305 9.01367C81.3659 9.01367 81.0059 9.07292 80.6504 9.19141C80.2995 9.30534 79.9235 9.46029 79.5225 9.65625V15.2275C79.8916 15.2868 80.2266 15.3301 80.5273 15.3574C80.8281 15.3848 81.0947 15.3984 81.3271 15.3984C81.7008 15.3984 82.0312 15.3551 82.3184 15.2686C82.61 15.1774 82.8538 15.0202 83.0498 14.7969C83.2458 14.569 83.3939 14.2637 83.4941 13.8809C83.599 13.498 83.6514 13.0104 83.6514 12.418V11.8574ZM86.5293 16V5.17871H87.4385V16H86.5293ZM94.1377 16V15.4531C94.0055 15.5352 93.8506 15.6195 93.6729 15.7061C93.4997 15.7881 93.306 15.8656 93.0918 15.9385C92.8822 16.0114 92.652 16.0706 92.4014 16.1162C92.1507 16.1618 91.8841 16.1846 91.6016 16.1846C90.8587 16.1846 90.2936 16.0091 89.9062 15.6582C89.5234 15.3073 89.332 14.7536 89.332 13.9971V13.7852C89.332 13.3021 89.4072 12.9102 89.5576 12.6094C89.7126 12.3086 89.9382 12.0739 90.2344 11.9053C90.5306 11.7321 90.8929 11.6159 91.3213 11.5566C91.7542 11.4928 92.2487 11.4609 92.8047 11.4609H94.0967V10.8184C94.0967 10.4492 94.0716 10.1462 94.0215 9.90918C93.9714 9.6722 93.8711 9.48535 93.7207 9.34863C93.5749 9.21191 93.3698 9.11849 93.1055 9.06836C92.8457 9.01367 92.5039 8.98633 92.0801 8.98633C91.8932 8.98633 91.7109 8.99089 91.5332 9C91.36 9.00456 91.1846 9.01367 91.0068 9.02734C90.8291 9.04102 90.6445 9.05697 90.4531 9.0752C90.2663 9.09342 90.0658 9.11393 89.8516 9.13672V8.4668C90.0293 8.4349 90.2025 8.40299 90.3711 8.37109C90.5443 8.33919 90.7197 8.31185 90.8975 8.28906C91.0798 8.26172 91.2712 8.24121 91.4717 8.22754C91.6768 8.20931 91.9023 8.2002 92.1484 8.2002C92.7546 8.2002 93.2445 8.2526 93.6182 8.35742C93.9919 8.46224 94.2812 8.62402 94.4863 8.84277C94.696 9.05697 94.8372 9.32812 94.9102 9.65625C94.9831 9.98438 95.0195 10.3717 95.0195 10.8184V16H94.1377ZM94.0967 12.1787H92.8047C92.3444 12.1787 91.9525 12.1992 91.6289 12.2402C91.3053 12.2812 91.041 12.361 90.8359 12.4795C90.6309 12.5934 90.4805 12.7552 90.3848 12.9648C90.2936 13.1745 90.248 13.4479 90.248 13.7852V14.0518C90.248 14.3161 90.2822 14.5394 90.3506 14.7217C90.4235 14.8994 90.526 15.0452 90.6582 15.1592C90.7949 15.2686 90.9567 15.3483 91.1436 15.3984C91.335 15.444 91.5492 15.4668 91.7861 15.4668C92.0231 15.4668 92.2555 15.444 92.4834 15.3984C92.7158 15.3529 92.9323 15.2959 93.1328 15.2275C93.3379 15.1592 93.5225 15.0863 93.6865 15.0088C93.8551 14.9268 93.9919 14.8516 94.0967 14.7832V12.1787ZM100.536 16.0137C100.459 16.0319 100.365 16.0501 100.256 16.0684C100.151 16.0911 100.037 16.1094 99.9141 16.123C99.791 16.1413 99.6657 16.1549 99.5381 16.1641C99.4105 16.1777 99.2874 16.1846 99.1689 16.1846C98.8454 16.1846 98.5742 16.1504 98.3555 16.082C98.1367 16.0182 97.959 15.9134 97.8223 15.7676C97.6901 15.6172 97.5944 15.4212 97.5352 15.1797C97.4759 14.9382 97.4463 14.6419 97.4463 14.291V9.1709L95.792 9.0957V8.39844H97.4463V6.35449H98.3555V8.39844H100.536V9.1709H98.3555V14.25C98.3555 14.4915 98.3646 14.6898 98.3828 14.8447C98.4056 14.9951 98.4489 15.1159 98.5127 15.207C98.5811 15.2936 98.6745 15.3551 98.793 15.3916C98.9115 15.4235 99.0687 15.4395 99.2646 15.4395C99.3604 15.4395 99.4629 15.4395 99.5723 15.4395C99.6862 15.4349 99.8001 15.4303 99.9141 15.4258C100.028 15.4167 100.14 15.4076 100.249 15.3984C100.358 15.3893 100.454 15.3802 100.536 15.3711V16.0137ZM102.717 16V9.1709L101.22 9.0957V8.39844H102.717V7.35938C102.717 7.02669 102.737 6.71908 102.778 6.43652C102.819 6.15397 102.906 5.91016 103.038 5.70508C103.175 5.49544 103.368 5.33138 103.619 5.21289C103.874 5.0944 104.214 5.03516 104.638 5.03516C104.888 5.03516 105.137 5.05111 105.383 5.08301C105.629 5.11491 105.836 5.15137 106.005 5.19238V5.83496C105.923 5.8304 105.832 5.82357 105.731 5.81445C105.631 5.80534 105.524 5.7985 105.41 5.79395C105.301 5.78483 105.189 5.77799 105.075 5.77344C104.961 5.76888 104.852 5.7666 104.747 5.7666C104.501 5.7666 104.305 5.79395 104.159 5.84863C104.013 5.90332 103.902 5.99447 103.824 6.12207C103.747 6.24967 103.697 6.41602 103.674 6.62109C103.651 6.82161 103.64 7.06771 103.64 7.35938V8.39844H105.964V9.1709H103.64V16H102.717ZM113.545 12.5957C113.545 13.7715 113.287 14.6647 112.772 15.2754C112.257 15.8815 111.462 16.1846 110.387 16.1846C109.307 16.1846 108.509 15.8815 107.994 15.2754C107.479 14.6647 107.222 13.7715 107.222 12.5957V11.7891C107.222 10.6224 107.479 9.73372 107.994 9.12305C108.509 8.50781 109.307 8.2002 110.387 8.2002C111.462 8.2002 112.257 8.50781 112.772 9.12305C113.287 9.73372 113.545 10.6224 113.545 11.7891V12.5957ZM112.636 11.7891C112.636 11.3014 112.592 10.8844 112.506 10.5381C112.419 10.1872 112.285 9.90007 112.103 9.67676C111.92 9.44889 111.688 9.28255 111.405 9.17773C111.123 9.06836 110.783 9.01367 110.387 9.01367C109.995 9.01367 109.655 9.06836 109.368 9.17773C109.086 9.28255 108.851 9.44889 108.664 9.67676C108.482 9.90007 108.347 10.1872 108.261 10.5381C108.174 10.8844 108.131 11.3014 108.131 11.7891V12.5957C108.131 13.0833 108.174 13.5026 108.261 13.8535C108.347 14.2044 108.482 14.4938 108.664 14.7217C108.846 14.9495 109.079 15.1182 109.361 15.2275C109.648 15.3324 109.99 15.3848 110.387 15.3848C110.783 15.3848 111.123 15.3324 111.405 15.2275C111.688 15.1182 111.92 14.9495 112.103 14.7217C112.285 14.4938 112.419 14.2044 112.506 13.8535C112.592 13.5026 112.636 13.0833 112.636 12.5957V11.7891ZM115.459 16V8.39844H116.354V9.01367C116.578 8.85417 116.81 8.72201 117.052 8.61719C117.298 8.51237 117.544 8.43034 117.79 8.37109C118.036 8.30729 118.28 8.264 118.521 8.24121C118.763 8.21387 118.993 8.2002 119.212 8.2002V9.02734C119.002 9.02734 118.774 9.04102 118.528 9.06836C118.282 9.09115 118.034 9.13216 117.783 9.19141C117.533 9.24609 117.284 9.31901 117.038 9.41016C116.792 9.49674 116.564 9.60156 116.354 9.72461V16H115.459ZM129.097 16V10.9209C129.097 10.6201 129.085 10.3512 129.062 10.1143C129.04 9.87272 128.983 9.66992 128.892 9.50586C128.805 9.3418 128.673 9.21647 128.495 9.12988C128.317 9.04329 128.076 9 127.771 9C127.474 9 127.139 9.06152 126.766 9.18457C126.392 9.30306 126.011 9.47852 125.624 9.71094C125.66 9.88867 125.686 10.0732 125.699 10.2646C125.717 10.4561 125.727 10.6748 125.727 10.9209V16H124.804V10.9209C124.804 10.611 124.792 10.3376 124.77 10.1006C124.751 9.85905 124.699 9.65853 124.612 9.49902C124.53 9.33496 124.405 9.21191 124.236 9.12988C124.068 9.04329 123.835 9 123.539 9C123.375 9 123.204 9.01823 123.026 9.05469C122.849 9.09115 122.669 9.14355 122.486 9.21191C122.304 9.27572 122.124 9.35091 121.946 9.4375C121.769 9.52409 121.595 9.61523 121.427 9.71094V16H120.518V8.39844H121.427V9C121.782 8.75391 122.156 8.56022 122.548 8.41895C122.94 8.27311 123.336 8.2002 123.737 8.2002C124.193 8.2002 124.553 8.27539 124.817 8.42578C125.086 8.57617 125.291 8.78581 125.433 9.05469C125.884 8.75391 126.317 8.53743 126.731 8.40527C127.146 8.26855 127.529 8.2002 127.88 8.2002C128.222 8.2002 128.511 8.23893 128.748 8.31641C128.985 8.38932 129.183 8.49186 129.343 8.62402C129.502 8.75163 129.625 8.9043 129.712 9.08203C129.803 9.25521 129.871 9.44434 129.917 9.64941C129.963 9.84993 129.99 10.0596 129.999 10.2783C130.013 10.4925 130.02 10.7067 130.02 10.9209V16H129.097Z" fill="#051724"/>
</svg>
