<?xml version="1.0" encoding="UTF-8"?>
<svg width="36px" height="36px" viewBox="0 0 36 36" version="1.1" xmlns="http://www.w3.org/2000/svg" xmlns:xlink="http://www.w3.org/1999/xlink">
    <!-- Generator: sketchtool 51.2 (57519) - http://www.bohemiancoding.com/sketch -->
    <title>6E3E3AC2-7F67-47D1-8A60-828C90CA0A86</title>
    <desc>Created with sketchtool.</desc>
    <defs></defs>
    <g id="Page-1" stroke="none" stroke-width="1" fill="none" fill-rule="evenodd">
        <g id="Assets_graficos" transform="translate(-572.000000, -730.000000)" fill-rule="nonzero">
            <g id="ico-/-cards-/-simulate" transform="translate(573.000000, 731.000000)">
                <g id="Group">
                    <path d="M16.8191489,0 C7.54510638,0 0,7.54510638 0,16.8191489 C0,26.0928298 7.54510638,33.6372128 16.8191489,33.6372128 C26.0935532,33.6372128 33.6382979,26.0928298 33.6382979,16.8191489 C33.6382979,7.54510638 26.0935532,0 16.8191489,0 Z" id="Shape" stroke="#5789AD"></path>
                    <path d="M25.5061111,19.6595415 L25.5061111,14.3391977 C25.6819706,14.295702 25.8517105,14.2298281 26.0095332,14.1403152 C26.467219,13.882808 26.7947816,13.4661318 26.9313465,12.9675072 C27.0685556,12.4685673 26.9986627,11.9472493 26.7345513,11.4993696 C26.3825101,10.9027221 25.7260966,10.5323782 25.0216921,10.5323782 C24.6767368,10.5323782 24.3356465,10.6218911 24.0354614,10.7914613 C23.8779608,10.880659 23.7391412,10.9890831 23.6170702,11.1104298 L18.8801352,8.52338109 C18.9413317,8.3374212 18.9751509,8.13916905 18.9751509,7.93335244 C18.9751509,6.86739255 18.0890892,6 17.0001127,6 C15.9111362,6 15.0250746,6.86739255 15.0250746,7.93335244 C15.0250746,8.13065903 15.0556729,8.3213467 15.1123602,8.50100287 L10.4311462,11.1573926 C10.2987684,11.0161891 10.1425562,10.8920057 9.96444201,10.7911461 C9.66393475,10.6218911 9.3228445,10.5323782 8.9782113,10.5323782 C8.27348471,10.5323782 7.61739328,10.9027221 7.26535208,11.4993696 C7.00188483,11.9463037 6.93166984,12.4673066 7.06791268,12.9659312 C7.20447761,13.4648711 7.53139603,13.8818625 7.98843763,14.1396848 C8.16526345,14.2395989 8.35722736,14.3083095 8.55498884,14.3508596 L8.55498884,19.6472493 C8.35690527,19.6897994 8.16494136,19.75851 7.98747137,19.8584241 C7.0450445,20.3907736 6.72102487,21.5752436 7.26502999,22.4987393 C7.61674911,23.0953868 8.27251845,23.4657307 8.97627878,23.4657307 C9.32155615,23.4657307 9.66296848,23.3759026 9.96315367,23.2063324 C10.1029395,23.1272206 10.2256547,23.0291977 10.3393514,22.9229799 L15.1255658,25.4586533 C15.0608263,25.6496562 15.0247525,25.8532665 15.0247525,26.0650716 C15.0247525,27.1319771 15.9104921,28 16.9997906,28 C18.0887671,28 18.9748288,27.1319771 18.9748288,26.0650716 C18.9748288,25.8841547 18.9474514,25.7095415 18.8997825,25.5434384 L23.6122389,22.8832665 C23.9710439,23.2425788 24.470601,23.466361 25.0229804,23.466361 C26.1126011,23.466361 26.9989848,22.5992837 26.9989848,21.5339542 C26.9999511,21.0176791 26.7947816,20.5319771 26.4218047,20.1666762 C26.1654234,19.9151576 25.8501001,19.7436963 25.5061111,19.6595415 Z M24.5182699,11.6106304 C24.6719055,11.5239542 24.8461546,11.4782521 25.0216921,11.4782521 C25.3821075,11.4782521 25.7180444,11.6676791 25.8980911,11.972149 C26.0327235,12.2009742 26.0684752,12.4673066 25.9985823,12.7219771 C25.9286894,12.9766476 25.7618482,13.1890831 25.5267247,13.3211461 C25.3734112,13.4081375 25.1998062,13.4538395 25.0239467,13.4538395 C24.6641754,13.4538395 24.3288827,13.2644126 24.148836,12.9593123 C23.8708748,12.4884241 24.0367497,11.8829513 24.5182699,11.6106304 Z M17.0001127,6.94587393 C17.5563572,6.94587393 18.0088895,7.38902579 18.0088895,7.93366762 C18.0088895,8.47799427 17.5563572,8.92083095 17.0001127,8.92083095 C16.4438683,8.92083095 15.9913359,8.47799427 15.9913359,7.93366762 C15.9913359,7.38902579 16.4438683,6.94587393 17.0001127,6.94587393 Z M8.00132111,12.7216619 C7.9317503,12.4669914 7.96750197,12.200659 8.10213437,11.9724642 C8.28218107,11.6676791 8.61779583,11.4782521 8.9782113,11.4782521 C9.15407086,11.4782521 9.32831998,11.5242693 9.48163344,11.6103152 C9.96315367,11.8826361 10.1283844,12.4877937 9.85010109,12.9596275 C9.67037649,13.2647278 9.33508381,13.4541547 8.9756346,13.4541547 C8.80009713,13.4541547 8.62584801,13.4081375 8.47156828,13.3211461 C8.23805513,13.1893983 8.07089193,12.9766476 8.00132111,12.7216619 Z M9.95091436,21.7879943 C9.88134354,22.0429799 9.71418033,22.2554155 9.48066718,22.3874785 C9.32670955,22.4741547 9.15246042,22.5204871 8.97692295,22.5204871 C8.61715166,22.5204871 8.28218107,22.3310602 8.10245646,22.0265903 C7.82449529,21.5547564 7.98972598,20.9495989 8.47092411,20.6779083 C8.62488175,20.5909169 8.79945296,20.5448997 8.97499043,20.5448997 C9.33508381,20.5448997 9.67037649,20.7343266 9.85042318,21.0387966 C9.98505559,21.2673066 10.0208073,21.5333238 9.95091436,21.7879943 Z M17.0001127,27.0544413 C16.4438683,27.0544413 15.9913359,26.610659 15.9913359,26.0650716 C15.9913359,25.520745 16.4438683,25.0782235 17.0001127,25.0782235 C17.5563572,25.0782235 18.0088895,25.520745 18.0088895,26.0650716 C18.0088895,26.610659 17.5563572,27.0544413 17.0001127,27.0544413 Z M18.4182623,24.723639 C18.0591351,24.3602292 17.5563572,24.1329799 17.0001127,24.1329799 C16.4770433,24.1329799 16.0019648,24.334384 15.6483132,24.6602865 L10.8514699,22.1186246 C10.8611325,22.0893123 10.8762706,22.0625215 10.8846449,22.032894 C11.0212098,21.5342693 10.9509948,21.0132665 10.6872055,20.5663324 C10.4288916,20.1285387 10.0063133,19.814298 9.52157225,19.677192 L9.52157225,14.3221777 C10.0063133,14.1847564 10.4288916,13.8702006 10.6872055,13.4324069 C10.9548599,12.9788539 11.0115472,12.4622636 10.8894762,11.990745 L15.6151382,9.3091404 C15.9716886,9.65332378 16.4609389,9.86638968 17.0004348,9.86638968 C17.5305902,9.86638968 18.0114662,9.65994269 18.3667283,9.32616046 L23.1287862,11.9270774 C22.983847,12.415616 23.0328042,12.9583668 23.3123758,13.4324069 C23.5816406,13.8891117 24.0296638,14.2118625 24.5401719,14.3388825 L24.5401719,19.6608023 C23.6843864,19.8726074 23.0482644,20.6303152 23.0482644,21.5326934 C23.0482644,21.7177077 23.076608,21.8961032 23.1262095,22.0656734 L18.4182623,24.723639 Z M25.0229804,22.5208023 C24.466736,22.5208023 24.0142036,22.0776504 24.0142036,21.5326934 C24.0142036,20.9880516 24.466736,20.5452149 25.025235,20.5452149 C25.2944999,20.5452149 25.5476603,20.6479656 25.7380138,20.8345559 C25.9286894,21.0211461 26.0330456,21.2691977 26.0327235,21.5333238 C26.0327235,22.0776504 25.579869,22.5208023 25.0229804,22.5208023 Z" id="Shape" fill="#5789AD"></path>
                </g>
            </g>
        </g>
    </g>
</svg>