<?xml version="1.0" encoding="UTF-8"?>
<svg width="33px" height="30px" viewBox="0 0 33 30" version="1.1" xmlns="http://www.w3.org/2000/svg" xmlns:xlink="http://www.w3.org/1999/xlink">
    <!-- Generator: sketchtool 51.2 (57519) - http://www.bohemiancoding.com/sketch -->
    <title>593C5B75-91F7-4291-B097-1E5561FA4027</title>
    <desc>Created with sketchtool.</desc>
    <defs></defs>
    <g id="Page-1" stroke="none" stroke-width="1" fill="none" fill-rule="evenodd">
        <g id="Assets_graficos" transform="translate(-574.000000, -797.000000)" fill="#5789AD" fill-rule="nonzero">
            <g id="ico-/-cards-/-visualize" transform="translate(574.000000, 797.000000)">
                <path d="M0,0.437893771 L3.08674309e-28,29.1040811 C5.3030803e-05,29.591144 0.430003856,29.9859743 0.960391428,29.986023 L32.0313551,29.986023 C32.3777067,29.9905211 32.6075977,29.8102551 32.6075977,29.4455842 C32.6075977,29.0809133 32.3777067,28.9285128 32.0313551,28.933011 L27.9773487,28.933011 L27.9773487,0.881941852 C27.9772957,0.39487899 27.5473449,4.86989817e-05 27.0169573,0 L21.0911772,1.3455335e-13 C20.5061974,0.0428366067 20.1286422,0.425418288 20.1307858,0.881941852 L20.1307858,28.933011 L16.0464405,28.933011 L16.0464405,12.8661003 C16.0463875,12.3790374 15.6164367,11.9842071 15.0860491,11.9841584 L10.9747274,11.9841584 C10.3897477,12.026995 10.0121924,12.4095767 10.014336,12.8661003 L10.014336,28.933011 L0.926433245,28.933011 L0.926433245,22.9304882 L4.89800384,22.9304882 C5.07053474,22.9327289 5.31276576,22.7127849 5.31340828,22.4920135 C5.31405561,22.2695917 5.07182459,22.0463299 4.89800384,22.0485874 L0.926433245,22.0485874 L0.926433245,15.8749533 L4.89800384,15.8749533 C5.07641808,15.8772704 5.31880516,15.6419915 5.31340828,15.4138995 C5.30832832,15.1992016 5.06594124,14.9908715 4.89800384,14.9930526 L0.926433245,14.9930526 L0.926433245,7.99746408 L4.89800384,7.99746408 C5.30795136,7.98431348 5.462017,7.66437083 5.44341317,7.43381138 C5.42674485,7.22723895 5.28112746,6.97668722 4.89800384,6.99380197 L0.926433245,6.99380197 L0.926433245,0.437893771 C0.930500366,0.199208091 0.69293593,0.0842082379 0.460533527,0.0842082379 C0.228131124,0.0842082379 0,0.199208091 0,0.437893771 Z M21.0382618,0.99636545 L26.9844288,0.99636545 L26.9844288,28.9699983 L21.0382618,28.9699983 L21.0382618,0.99636545 Z M11.0070672,12.9861115 L14.9955372,12.9861115 L14.9955372,28.9699983 L11.0070672,28.9699983 L11.0070672,12.9861115 Z" id="shape"></path>
            </g>
        </g>
    </g>
</svg>