<svg width="16" height="16" viewBox="0 0 16 16" fill="none" xmlns="http://www.w3.org/2000/svg">
<path fill-rule="evenodd" clip-rule="evenodd" d="M12.8001 0.800049C12.3583 0.800049 12.0001 1.15822 12.0001 1.60005V12.8C12.0001 13.2419 12.3583 13.6 12.8001 13.6C13.2419 13.6 13.6001 13.2419 13.6001 12.8V1.60005C13.6001 1.15822 13.2419 0.800049 12.8001 0.800049ZM8.8001 4.80005C8.8001 4.35822 9.15827 4.00005 9.6001 4.00005C10.0419 4.00005 10.4001 4.35822 10.4001 4.80005V12.8C10.4001 13.2419 10.0419 13.6 9.6001 13.6C9.15827 13.6 8.8001 13.2419 8.8001 12.8V4.80005ZM6.4001 7.20005C5.95827 7.20005 5.6001 7.55822 5.6001 8.00005V12.8C5.6001 13.2419 5.95827 13.6 6.4001 13.6C6.84193 13.6 7.2001 13.2419 7.2001 12.8V8.00005C7.2001 7.55822 6.84193 7.20005 6.4001 7.20005ZM2.4001 9.60005C2.4001 9.15822 2.75827 8.80005 3.2001 8.80005C3.64193 8.80005 4.0001 9.15822 4.0001 9.60005V12.8C4.0001 13.2419 3.64193 13.6 3.2001 13.6C2.75827 13.6 2.4001 13.2419 2.4001 12.8V9.60005ZM1.6001 14.8C1.6001 14.5791 1.77918 14.4 2.0001 14.4H14.0001C14.221 14.4 14.4001 14.5791 14.4001 14.8C14.4001 15.021 14.221 15.2 14.0001 15.2H2.0001C1.77918 15.2 1.6001 15.021 1.6001 14.8Z" fill="#1168A6"/>
</svg>
