<svg width="16" height="16" viewBox="0 0 16 16" fill="none" xmlns="http://www.w3.org/2000/svg">
<path fill-rule="evenodd" clip-rule="evenodd" d="M6 11.2C8.87188 11.2 11.2 8.87188 11.2 6C11.2 5.33489 11.0751 4.69895 10.8476 4.11433L9.97341 4.76994C9.9908 4.84381 10 4.92083 10 5C10 5.55228 9.55229 6 9 6C8.87103 6 8.74776 5.97558 8.63456 5.93112L6.93112 7.63456C6.97558 7.74776 7 7.87103 7 8C7 8.55229 6.55228 9 6 9C5.44772 9 5 8.55229 5 8C5 7.94006 5.00527 7.88136 5.01538 7.82433L3.54082 6.84128C3.3849 6.94172 3.19925 7 3 7C2.58994 7 2.23752 6.75318 2.08321 6.4H0.815156C1.01941 9.08498 3.26271 11.2 6 11.2ZM6.36544 7.06888L8.06888 5.36544C8.02442 5.25224 8 5.12897 8 5C8 4.44772 8.44771 4 9 4C9.17941 4 9.34779 4.04725 9.49336 4.12998L10.4929 3.38033C9.59102 1.8369 7.9166 0.8 6 0.8C3.26271 0.8 1.01941 2.91502 0.815156 5.6H2.08321C2.23752 5.24682 2.58994 5 3 5C3.55228 5 4 5.44772 4 6C4 6.05994 3.99473 6.11864 3.98462 6.17567L5.45918 7.15872C5.6151 7.05828 5.80075 7 6 7C6.12897 7 6.25224 7.02442 6.36544 7.06888ZM11.2539 3.1C10.2314 1.25159 8.26188 0 6 0C2.68629 0 0 2.68629 0 6C0 9.31371 2.68629 12 6 12C7.55842 12 8.97806 11.4059 10.0448 10.4317L14.7308 15.1169C14.887 15.2731 15.1403 15.2731 15.2965 15.1168C15.4527 14.9606 15.4526 14.7074 15.2964 14.5512L10.5986 9.85417C11.4733 8.81164 12 7.46733 12 6C12 5.26121 11.8665 4.5536 11.6222 3.9H13.0832C13.2375 4.25318 13.5899 4.5 14 4.5C14.5523 4.5 15 4.05228 15 3.5C15 2.94772 14.5523 2.5 14 2.5C13.5899 2.5 13.2375 2.74682 13.0832 3.1H11.2539Z" fill="#1B6EAA"/>
</svg>
