<?xml version="1.0" encoding="UTF-8"?>
<svg width="20px" height="20px" viewBox="0 0 20 20" version="1.1" xmlns="http://www.w3.org/2000/svg" xmlns:xlink="http://www.w3.org/1999/xlink">
    <!-- Generator: Sketch 52.2 (67145) - http://www.bohemiancoding.com/sketch -->
    <title>ico / 20 / action / delete</title>
    <desc>Created with Sketch.</desc>
    <defs>
        <path d="M6.71778946,3.84210526 C6.94763509,2.23522909 8.32956594,1 10,1 C11.6704341,1 13.0523649,2.23522909 13.2822105,3.84210526 L18.5263158,3.84210526 C18.7879244,3.84210526 19,4.05418091 19,4.31578947 C19,4.57739804 18.7879244,4.78947368 18.5263158,4.78947368 L16.1578947,4.78947368 L16.1578947,17.1052632 C16.1578947,18.1516974 15.3095922,19 14.2631579,19 L5.73684211,19 C4.69040784,19 3.84210526,18.1516974 3.84210526,17.1052632 L3.84210526,4.78947368 L1.47368421,4.78947368 C1.21207564,4.78947368 1,4.57739804 1,4.31578947 C1,4.05418091 1.21207564,3.84210526 1.47368421,3.84210526 L6.71778946,3.84210526 Z M13.3157895,4.78947368 L6.68421053,4.78947368 L4.78947368,4.78947368 L4.78947368,17.1052632 C4.78947368,17.6284803 5.21362497,18.0526316 5.73684211,18.0526316 L14.2631579,18.0526316 C14.786375,18.0526316 15.2105263,17.6284803 15.2105263,17.1052632 L15.2105263,4.78947368 L13.3157895,4.78947368 Z M10,1.94736842 C8.85417783,1.94736842 7.89839979,2.76104406 7.67895595,3.84210526 L12.3210441,3.84210526 C12.1016002,2.76104406 11.1458222,1.94736842 10,1.94736842 Z M8.10526316,8.57894737 C8.36687172,8.57894737 8.57894737,8.79102301 8.57894737,9.05263158 L8.57894737,13.7894737 C8.57894737,14.0510822 8.36687172,14.2631579 8.10526316,14.2631579 C7.84365459,14.2631579 7.63157895,14.0510822 7.63157895,13.7894737 L7.63157895,9.05263158 C7.63157895,8.79102301 7.84365459,8.57894737 8.10526316,8.57894737 Z M10,8.57894737 C10.2616086,8.57894737 10.4736842,8.79102301 10.4736842,9.05263158 L10.4736842,13.7894737 C10.4736842,14.0510822 10.2616086,14.2631579 10,14.2631579 C9.73839143,14.2631579 9.52631579,14.0510822 9.52631579,13.7894737 L9.52631579,9.05263158 C9.52631579,8.79102301 9.73839143,8.57894737 10,8.57894737 Z M11.8947368,8.57894737 C12.1563454,8.57894737 12.3684211,8.79102301 12.3684211,9.05263158 L12.3684211,13.7894737 C12.3684211,14.0510822 12.1563454,14.2631579 11.8947368,14.2631579 C11.6331283,14.2631579 11.4210526,14.0510822 11.4210526,13.7894737 L11.4210526,9.05263158 C11.4210526,8.79102301 11.6331283,8.57894737 11.8947368,8.57894737 Z" id="path-1"></path>
    </defs>
    <g id="ico-/-20-/-action-/-delete" stroke="none" stroke-width="1" fill="none" fill-rule="evenodd">
        <mask id="mask-2" fill="white">
            <use xlink:href="#path-1"></use>
        </mask>
        <use id="Combined-Shape" fill="#6E767D" fill-rule="nonzero" xlink:href="#path-1"></use>
        <g id="Color-/-03_neutral-/-grey-01" mask="url(#mask-2)" fill="#6E767D">
            <rect id="Rectangle-2" x="0" y="0" width="20" height="20"></rect>
        </g>
    </g>
</svg>