<svg width="16" height="16" viewBox="0 0 16 16" fill="none" xmlns="http://www.w3.org/2000/svg">
<path fill-rule="evenodd" clip-rule="evenodd" d="M0.4 12H6C6.22091 12 6.4 12.1791 6.4 12.4C6.4 12.6209 6.22091 12.8 6 12.8H0.4C0.179086 12.8 0 12.6209 0 12.4C0 12.1791 0.179086 12 0.4 12ZM0.4 7.2H6C6.22091 7.2 6.4 7.37909 6.4 7.6C6.4 7.82091 6.22091 8 6 8H0.4C0.179086 8 0 7.82091 0 7.6C0 7.37909 0.179086 7.2 0.4 7.2ZM0.4 2.40002H6C6.22091 2.40002 6.4 2.57911 6.4 2.80002C6.4 3.02094 6.22091 3.20002 6 3.20002H0.4C0.179086 3.20002 0 3.02094 0 2.80002C0 2.57911 0.179086 2.40002 0.4 2.40002Z" fill="#1168A6"/>
</svg>
