<?xml version="1.0" encoding="UTF-8"?>
<svg width="20px" height="20px" viewBox="0 0 20 20" version="1.1" xmlns="http://www.w3.org/2000/svg" xmlns:xlink="http://www.w3.org/1999/xlink">
    <!-- Generator: Sketch 52.2 (67145) - http://www.bohemiancoding.com/sketch -->
    <title>ico / 20 / action / edit</title>
    <desc>Created with Sketch.</desc>
    <defs>
        <path d="M12.339539,6.0466458 L4.01083954,14.3753453 L4.01083954,16.9891605 L6.62465471,16.9891605 L14.9533542,8.66046098 L12.339539,6.0466458 Z M13.0466458,5.33953902 L15.660461,7.9533542 L17.4478216,6.16599356 C18.1696067,5.44420843 18.1696067,4.27396352 17.4478216,3.55217839 C16.7260365,2.83039326 15.5557916,2.83039326 14.8340064,3.55217839 L13.0466458,5.33953902 Z M0.5,19 L7.5,19 C7.77614237,19 8,19.2238576 8,19.5 C8,19.7761424 7.77614237,20 7.5,20 L0.5,20 C0.223857625,20 3.38176876e-17,19.7761424 0,19.5 C-3.38176876e-17,19.2238576 0.223857625,19 0.5,19 Z M18.1625931,2.83740689 C19.2791356,3.95394942 19.2791356,5.76422253 18.1625931,6.88076506 L7.04335816,18 L3,18 L3,13.9566418 L14.1192349,2.83740689 C15.2357775,1.72086437 17.0460506,1.72086437 18.1625931,2.83740689 Z" id="path-1"></path>
    </defs>
    <g id="ico-/-20-/-action-/-edit" stroke="none" stroke-width="1" fill="none" fill-rule="evenodd">
        <mask id="mask-2" fill="white">
            <use xlink:href="#path-1"></use>
        </mask>
        <use id="Combined-Shape" fill="#6E767D" xlink:href="#path-1"></use>
        <g id="Color-/-03_neutral-/-grey-01" mask="url(#mask-2)" fill="#6E767D">
            <rect id="Rectangle-2" x="0" y="0" width="20" height="20"></rect>
        </g>
    </g>
</svg>