<svg width="16" height="16" viewBox="0 0 16 16" fill="none" xmlns="http://www.w3.org/2000/svg">
<path d="M12.4301 1.61395C12.6117 1.53872 12.8064 1.5 13.003 1.5C13.1996 1.5 13.3942 1.53872 13.5759 1.61395C13.7575 1.68919 13.9225 1.79946 14.0615 1.93847C14.2006 2.07748 14.3108 2.24251 14.3861 2.42414C14.4613 2.60577 14.5 2.80044 14.5 2.99703C14.5 3.19363 14.4613 3.38829 14.3861 3.56992C14.3108 3.75155 14.2006 3.91658 14.0615 4.05559L4.62366 13.4935L1.71262 14.2874L2.50654 11.3763L11.9444 1.93847C12.0834 1.79946 12.2485 1.68919 12.4301 1.61395ZM13.003 0.5C12.6751 0.5 12.3504 0.564587 12.0474 0.690075C11.7445 0.815563 11.4692 0.999492 11.2373 1.23136L1.70554 10.7631C1.64402 10.8247 1.59961 10.9012 1.57672 10.9851L0.51763 14.8684C0.470419 15.0415 0.519583 15.2267 0.646458 15.3536C0.773333 15.4804 0.958464 15.5296 1.13157 15.4824L5.01488 14.4233C5.09883 14.4004 5.17535 14.356 5.23688 14.2945L14.7686 4.7627C15.0005 4.53083 15.1844 4.25556 15.3099 3.9526C15.4354 3.64965 15.5 3.32494 15.5 2.99703C15.5 2.66912 15.4354 2.34441 15.3099 2.04146C15.1844 1.7385 15.0005 1.46323 14.7686 1.23136C14.5368 0.999492 14.2615 0.815563 13.9586 0.690075C13.6556 0.564587 13.3309 0.5 13.003 0.5ZM8.00001 14.5C7.72387 14.5 7.50001 14.7239 7.50001 15C7.50001 15.2761 7.72387 15.5 8.00001 15.5H15C15.2762 15.5 15.5 15.2761 15.5 15C15.5 14.7239 15.2762 14.5 15 14.5H8.00001Z" fill="#505D66"/>
</svg>
