<svg width="16" height="16" viewBox="0 0 16 16" fill="none" xmlns="http://www.w3.org/2000/svg">
<path fill-rule="evenodd" clip-rule="evenodd" d="M9.88337 7.82806L9.87912 7.8338C9.677 8.1014 9.56794 8.42418 9.56728 8.75476V13.6134C9.56728 13.7805 9.46338 13.93 9.30674 13.9883L6.97152 14.8569C6.71019 14.9542 6.43207 14.7609 6.43207 14.482L6.43207 8.75555C6.43141 8.42415 6.32234 8.10142 6.11584 7.82806L1.69544 1.75302C1.50307 1.48864 1.69192 1.11768 2.01888 1.11768H13.9805C14.3074 1.11768 14.4963 1.48865 14.3039 1.75303L9.88337 7.82806ZM13.1948 1.91765H2.80469L6.75848 7.35152C7.06508 7.75722 7.23115 8.24861 7.23215 8.75473V13.9065L8.76736 13.3354L8.76736 8.75394C8.76836 8.24993 8.93358 7.75973 9.23859 7.35459L13.1948 1.91765Z" fill="#1168A6"/>
</svg>
