<?xml version="1.0" encoding="UTF-8"?>
<svg width="20px" height="20px" viewBox="0 0 20 20" version="1.1" xmlns="http://www.w3.org/2000/svg" xmlns:xlink="http://www.w3.org/1999/xlink">
    <!-- Generator: Sketch 52.2 (67145) - http://www.bohemiancoding.com/sketch -->
    <title>icon_menu_preferences</title>
    <desc>Created with Sketch.</desc>
    <defs>
        <path d="M10,20.0004687 C9.814375,20.0004687 9.629375,19.9942187 9.44625,19.9842187 C8.94875,19.9560937 8.518125,19.6304687 8.34875,19.1535937 L7.596875,17.0392187 C7.290625,16.9385937 7,16.8185937 6.725625,16.6848437 L4.700625,17.6385937 C4.24,17.8560937 3.701875,17.7823437 3.32875,17.4479687 C3.05875,17.2054687 2.798125,16.9448438 2.55375,16.6729687 C2.21875,16.2985937 2.144375,15.7604687 2.363125,15.3004687 L3.323125,13.2810938 C3.181875,12.9979688 3.0625,12.7079687 2.961875,12.4129687 L0.848125,11.6523438 C0.37125,11.4829687 0.045,11.0523438 0.01625,10.5548437 C0.005625,10.3710937 0,10.1860937 0,10.0004687 C0,9.81484375 0.005625,9.62984375 0.015625,9.44671875 C0.04375,8.94921875 0.370625,8.51796875 0.8475,8.34921875 L2.96125,7.59734375 C3.06125,7.29359375 3.180625,7.00296875 3.315625,6.72671875 L2.361875,4.70046875 C2.143125,4.24109375 2.218125,3.70234375 2.5525,3.32859375 C2.795625,3.05671875 3.056875,2.79609375 3.328125,2.55296875 C3.701875,2.21859375 4.240625,2.14359375 4.700625,2.36234375 L6.72,3.32234375 C7.0025,3.18109375 7.293125,3.06171875 7.58875,2.96109375 L8.34875,0.84734375 C8.518125,0.37046875 8.94875,0.04421875 9.44625,0.01546875 C9.8125,-0.00515625 10.188125,-0.00515625 10.55375,0.01546875 C11.05125,0.04359375 11.4825,0.37046875 11.65125,0.84734375 L12.403125,2.96109375 C12.70625,3.06109375 12.99625,3.18046875 13.27375,3.31546875 L15.299375,2.36171875 C15.758125,2.14234375 16.2975,2.21734375 16.67125,2.55234375 C16.944375,2.79734375 17.205,3.05796875 17.446875,3.32796875 C17.780625,3.70109375 17.855625,4.23921875 17.6375,4.69984375 L16.6775,6.71984375 C16.818125,6.99984375 16.9375,7.29046875 17.03875,7.58859375 L19.1525,8.34859375 C19.629375,8.51796875 19.955,8.94859375 19.983125,9.44609375 C19.99375,9.62984375 20,9.81484375 20,10.0004687 C20,10.1860937 19.99375,10.3710937 19.98375,10.5542187 C19.955625,11.0510937 19.63,11.4823437 19.153125,11.6517187 L17.03875,12.4035937 C16.938125,12.7092187 16.818125,12.9992187 16.684375,13.2748437 L17.638125,15.2998437 C17.856875,15.7604687 17.78125,16.2992187 17.4475,16.6717187 C17.20375,16.9435937 16.943125,17.2042187 16.6725,17.4467187 C16.298125,17.7817187 15.75875,17.8542187 15.300625,17.6379687 L13.280625,16.6779687 C13,16.8185937 12.71,16.9379687 12.4125,17.0385937 L11.651875,19.1529687 C11.4825,19.6298437 11.051875,19.9554687 10.554375,19.9835937 C10.370625,19.9942187 10.185625,20.0004687 10,20.0004687 Z M6.61857143,15.5853036 C6.81464286,15.5853036 7.012,15.6296607 7.1965,15.7203036 C7.4305,15.8347321 7.678,15.9363036 7.93321429,16.0230893 C8.31378571,16.1523036 8.60757143,16.438375 8.73935714,16.8093036 L9.51335714,18.9847321 C9.82257143,19.0072321 10.1684286,19.0053036 10.4975714,18.9866607 L11.2612857,16.8099464 C11.3924286,16.4396607 11.6868571,16.1529464 12.0680714,16.0230893 C12.3226429,15.9369464 12.5701429,15.8347321 12.8047857,15.7203036 C13.1641429,15.5441607 13.5723571,15.5403036 13.9265714,15.7074464 L16.0036429,16.694875 C16.2485714,16.4840179 16.4838571,16.2487321 16.7030714,16.0044464 L15.7072857,13.9267321 C15.5388571,13.5731607 15.544,13.1636607 15.7201429,12.8043036 C15.8345714,12.5703036 15.9367857,12.3221607 16.0235714,12.0675893 C16.1521429,11.6870179 16.4388571,11.3925893 16.8104286,11.2614464 L18.9845714,10.4880893 C18.9884286,10.4868036 18.9903571,10.484875 18.9903571,10.484875 C18.9948571,10.3325179 19,10.1666607 19,10.0001607 C19,9.83366071 18.9948571,9.66780357 18.9858571,9.50323214 L16.8091429,8.73951786 C16.4382143,8.60708929 16.1521429,8.31330357 16.0222857,7.93273214 C15.9355,7.67816071 15.8339286,7.43001786 15.7195,7.19666071 C15.544,6.83601786 15.5395,6.42716071 15.7066429,6.07358929 L16.6940714,3.99651786 C16.4845,3.75223214 16.2492143,3.51694643 16.0036429,3.29708929 L13.9259286,4.292875 C13.5717143,4.46001786 13.1641429,4.45551786 12.8041429,4.28066071 C12.5675714,4.16558929 12.3194286,4.063375 12.0667857,3.97723214 C11.6855714,3.847375 11.3917857,3.56066071 11.2606429,3.190375 L10.4872857,1.016875 C10.1780714,0.993732143 9.83221429,0.995660714 9.50307143,1.01494643 L8.73935714,3.19166071 C8.60757143,3.56194643 8.31378571,3.84801786 7.93385714,3.977875 C7.67992857,4.06401786 7.43178571,4.16623214 7.1965,4.28130357 C6.83585714,4.45616071 6.427,4.46066071 6.07407143,4.29351786 L3.997,3.30544643 C3.75142857,3.51694643 3.51678571,3.75158929 3.29757143,3.995875 L4.29271429,6.07423214 C4.4605,6.42651786 4.456,6.835375 4.2805,7.195375 C4.16542857,7.43194643 4.06321429,7.67944643 3.97707143,7.93273214 C3.84721429,8.31394643 3.56114286,8.60708929 3.19085714,8.738875 L1.01607143,9.512875 C1.00514286,9.66780357 1,9.83366071 1,10.0001607 C1,10.1666607 1.00514286,10.3325179 1.01414286,10.4970893 L3.19085714,11.2608036 C3.5605,11.3919464 3.84721429,11.6857321 3.97707143,12.0669464 C4.06321429,12.3202321 4.16478571,12.5677321 4.2805,12.8049464 C4.456,13.1643036 4.4605,13.5731607 4.29271429,13.9260893 L3.30528571,16.0031607 C3.51742857,16.249375 3.75271429,16.4846607 3.99571429,16.7019464 L6.07407143,15.7068036 C6.24635714,15.6258036 6.43214286,15.5853036 6.61857143,15.5853036 Z M10,14 C7.790861,14 6,12.209139 6,10 C6,7.790861 7.790861,6 10,6 C12.209139,6 14,7.790861 14,10 C14,12.209139 12.209139,14 10,14 Z M10,13 C11.6568542,13 13,11.6568542 13,10 C13,8.34314575 11.6568542,7 10,7 C8.34314575,7 7,8.34314575 7,10 C7,11.6568542 8.34314575,13 10,13 Z" id="path-1"></path>
    </defs>
    <g id="Page-1" stroke="none" stroke-width="1" fill="none" fill-rule="evenodd">
        <g id="icon_menu_preferences">
            <g id="Group">
                <g id="02">
                    <g id="icon_menu_preferences">
                        <g id="ico-/-20-/-action-/-setting">
                            <g id="Combined-Shape" fill="#6E767D" fill-rule="nonzero">
                                <path d="M10,20.0004687 C9.814375,20.0004687 9.629375,19.9942187 9.44625,19.9842187 C8.94875,19.9560937 8.518125,19.6304687 8.34875,19.1535937 L7.596875,17.0392187 C7.290625,16.9385937 7,16.8185937 6.725625,16.6848437 L4.700625,17.6385937 C4.24,17.8560937 3.701875,17.7823437 3.32875,17.4479687 C3.05875,17.2054687 2.798125,16.9448438 2.55375,16.6729687 C2.21875,16.2985937 2.144375,15.7604687 2.363125,15.3004687 L3.323125,13.2810938 C3.181875,12.9979688 3.0625,12.7079687 2.961875,12.4129687 L0.848125,11.6523438 C0.37125,11.4829687 0.045,11.0523438 0.01625,10.5548437 C0.005625,10.3710937 0,10.1860937 0,10.0004687 C0,9.81484375 0.005625,9.62984375 0.015625,9.44671875 C0.04375,8.94921875 0.370625,8.51796875 0.8475,8.34921875 L2.96125,7.59734375 C3.06125,7.29359375 3.180625,7.00296875 3.315625,6.72671875 L2.361875,4.70046875 C2.143125,4.24109375 2.218125,3.70234375 2.5525,3.32859375 C2.795625,3.05671875 3.056875,2.79609375 3.328125,2.55296875 C3.701875,2.21859375 4.240625,2.14359375 4.700625,2.36234375 L6.72,3.32234375 C7.0025,3.18109375 7.293125,3.06171875 7.58875,2.96109375 L8.34875,0.84734375 C8.518125,0.37046875 8.94875,0.04421875 9.44625,0.01546875 C9.8125,-0.00515625 10.188125,-0.00515625 10.55375,0.01546875 C11.05125,0.04359375 11.4825,0.37046875 11.65125,0.84734375 L12.403125,2.96109375 C12.70625,3.06109375 12.99625,3.18046875 13.27375,3.31546875 L15.299375,2.36171875 C15.758125,2.14234375 16.2975,2.21734375 16.67125,2.55234375 C16.944375,2.79734375 17.205,3.05796875 17.446875,3.32796875 C17.780625,3.70109375 17.855625,4.23921875 17.6375,4.69984375 L16.6775,6.71984375 C16.818125,6.99984375 16.9375,7.29046875 17.03875,7.58859375 L19.1525,8.34859375 C19.629375,8.51796875 19.955,8.94859375 19.983125,9.44609375 C19.99375,9.62984375 20,9.81484375 20,10.0004687 C20,10.1860937 19.99375,10.3710937 19.98375,10.5542187 C19.955625,11.0510937 19.63,11.4823437 19.153125,11.6517187 L17.03875,12.4035937 C16.938125,12.7092187 16.818125,12.9992187 16.684375,13.2748437 L17.638125,15.2998437 C17.856875,15.7604687 17.78125,16.2992187 17.4475,16.6717187 C17.20375,16.9435937 16.943125,17.2042187 16.6725,17.4467187 C16.298125,17.7817187 15.75875,17.8542187 15.300625,17.6379687 L13.280625,16.6779687 C13,16.8185937 12.71,16.9379687 12.4125,17.0385937 L11.651875,19.1529687 C11.4825,19.6298437 11.051875,19.9554687 10.554375,19.9835937 C10.370625,19.9942187 10.185625,20.0004687 10,20.0004687 Z M6.61857143,15.5853036 C6.81464286,15.5853036 7.012,15.6296607 7.1965,15.7203036 C7.4305,15.8347321 7.678,15.9363036 7.93321429,16.0230893 C8.31378571,16.1523036 8.60757143,16.438375 8.73935714,16.8093036 L9.51335714,18.9847321 C9.82257143,19.0072321 10.1684286,19.0053036 10.4975714,18.9866607 L11.2612857,16.8099464 C11.3924286,16.4396607 11.6868571,16.1529464 12.0680714,16.0230893 C12.3226429,15.9369464 12.5701429,15.8347321 12.8047857,15.7203036 C13.1641429,15.5441607 13.5723571,15.5403036 13.9265714,15.7074464 L16.0036429,16.694875 C16.2485714,16.4840179 16.4838571,16.2487321 16.7030714,16.0044464 L15.7072857,13.9267321 C15.5388571,13.5731607 15.544,13.1636607 15.7201429,12.8043036 C15.8345714,12.5703036 15.9367857,12.3221607 16.0235714,12.0675893 C16.1521429,11.6870179 16.4388571,11.3925893 16.8104286,11.2614464 L18.9845714,10.4880893 C18.9884286,10.4868036 18.9903571,10.484875 18.9903571,10.484875 C18.9948571,10.3325179 19,10.1666607 19,10.0001607 C19,9.83366071 18.9948571,9.66780357 18.9858571,9.50323214 L16.8091429,8.73951786 C16.4382143,8.60708929 16.1521429,8.31330357 16.0222857,7.93273214 C15.9355,7.67816071 15.8339286,7.43001786 15.7195,7.19666071 C15.544,6.83601786 15.5395,6.42716071 15.7066429,6.07358929 L16.6940714,3.99651786 C16.4845,3.75223214 16.2492143,3.51694643 16.0036429,3.29708929 L13.9259286,4.292875 C13.5717143,4.46001786 13.1641429,4.45551786 12.8041429,4.28066071 C12.5675714,4.16558929 12.3194286,4.063375 12.0667857,3.97723214 C11.6855714,3.847375 11.3917857,3.56066071 11.2606429,3.190375 L10.4872857,1.016875 C10.1780714,0.993732143 9.83221429,0.995660714 9.50307143,1.01494643 L8.73935714,3.19166071 C8.60757143,3.56194643 8.31378571,3.84801786 7.93385714,3.977875 C7.67992857,4.06401786 7.43178571,4.16623214 7.1965,4.28130357 C6.83585714,4.45616071 6.427,4.46066071 6.07407143,4.29351786 L3.997,3.30544643 C3.75142857,3.51694643 3.51678571,3.75158929 3.29757143,3.995875 L4.29271429,6.07423214 C4.4605,6.42651786 4.456,6.835375 4.2805,7.195375 C4.16542857,7.43194643 4.06321429,7.67944643 3.97707143,7.93273214 C3.84721429,8.31394643 3.56114286,8.60708929 3.19085714,8.738875 L1.01607143,9.512875 C1.00514286,9.66780357 1,9.83366071 1,10.0001607 C1,10.1666607 1.00514286,10.3325179 1.01414286,10.4970893 L3.19085714,11.2608036 C3.5605,11.3919464 3.84721429,11.6857321 3.97707143,12.0669464 C4.06321429,12.3202321 4.16478571,12.5677321 4.2805,12.8049464 C4.456,13.1643036 4.4605,13.5731607 4.29271429,13.9260893 L3.30528571,16.0031607 C3.51742857,16.249375 3.75271429,16.4846607 3.99571429,16.7019464 L6.07407143,15.7068036 C6.24635714,15.6258036 6.43214286,15.5853036 6.61857143,15.5853036 Z M10,14 C7.790861,14 6,12.209139 6,10 C6,7.790861 7.790861,6 10,6 C12.209139,6 14,7.790861 14,10 C14,12.209139 12.209139,14 10,14 Z M10,13 C11.6568542,13 13,11.6568542 13,10 C13,8.34314575 11.6568542,7 10,7 C8.34314575,7 7,8.34314575 7,10 C7,11.6568542 8.34314575,13 10,13 Z" id="path-1"></path>
                            </g>
                            <g id="Color-/-03_neutral-/-grey-01-Clipped">
                                <mask id="mask-2" fill="white">
                                    <use xlink:href="#path-1"></use>
                                </mask>
                                <g id="path-1"></g>
                                <g id="Color-/-03_neutral-/-grey-01" mask="url(#mask-2)" fill="#6E767D">
                                    <rect id="Rectangle-2" x="0" y="0" width="20" height="20"></rect>
                                </g>
                            </g>
                        </g>
                    </g>
                </g>
            </g>
        </g>
    </g>
</svg>