<svg width="16" height="16" viewBox="0 0 16 16" fill="none" xmlns="http://www.w3.org/2000/svg">
<path fill-rule="evenodd" clip-rule="evenodd" d="M8.5 0.5C8.5 0.223858 8.27614 0 8 0C7.72386 0 7.5 0.223858 7.5 0.5V9.29283L4.18687 5.9797C3.9916 5.78444 3.67502 5.78444 3.47976 5.9797C3.2845 6.17496 3.2845 6.49154 3.47976 6.68681L7.64185 10.8489C7.73267 10.9421 7.85957 11 8 11C8.14109 11 8.26854 10.9416 8.35944 10.8476L12.5202 6.68681C12.7155 6.49154 12.7155 6.17496 12.5202 5.9797C12.3249 5.78444 12.0084 5.78444 11.8131 5.9797L8.5 9.29279V0.5ZM0.5 10C0.776142 10 1 10.2239 1 10.5V13.8333C1 14.1428 1.12292 14.4395 1.34171 14.6583C1.5605 14.8771 1.85725 15 2.16667 15H13.8333C14.1428 15 14.4395 14.8771 14.6583 14.6583C14.8771 14.4395 15 14.1428 15 13.8333V10.5C15 10.2239 15.2239 10 15.5 10C15.7761 10 16 10.2239 16 10.5V13.8333C16 14.408 15.7717 14.9591 15.3654 15.3654C14.9591 15.7717 14.408 16 13.8333 16H2.16667C1.59203 16 1.04093 15.7717 0.634602 15.3654C0.228273 14.9591 0 14.408 0 13.8333V10.5C0 10.2239 0.223858 10 0.5 10Z" fill="#1168A6"/>
</svg>
