<?xml version="1.0" encoding="UTF-8"?>
<svg width="12px" height="12px" viewBox="0 0 12 12" version="1.1" xmlns="http://www.w3.org/2000/svg" xmlns:xlink="http://www.w3.org/1999/xlink">
    <!-- Generator: Sketch 52.2 (67145) - http://www.bohemiancoding.com/sketch -->
    <title>icon_button_plus</title>
    <desc>Created with Sketch.</desc>
    <defs>
        <path d="M5.53846154,5.53846154 L0.46153846,5.53846154 C0.20663781,5.53846154 0,5.74509935 0,6 C0,6.2549007 0.20663781,6.4615385 0.46153846,6.4615385 L5.53846154,6.4615385 L5.53846154,11.5384615 C5.53846154,11.7933622 5.74509935,12 6,12 C6.2549007,12 6.4615385,11.7933622 6.4615385,11.5384615 L6.4615385,6.4615385 L11.5384615,6.4615385 C11.7933622,6.4615385 12,6.2549007 12,6 C12,5.74509935 11.7933622,5.53846154 11.5384615,5.53846154 L6.4615385,5.53846154 L6.4615385,0.46153846 C6.4615385,0.20663781 6.2549007,0 6,0 C5.74509935,0 5.53846154,0.20663781 5.53846154,0.46153846 L5.53846154,5.53846154 Z" id="path-1"></path>
    </defs>
    <g id="Page-1" stroke="none" stroke-width="1" fill="none" fill-rule="evenodd">
        <g id="icon_button_plus">
            <g id="ico-/-20-/-suggested-/-add">
                <g id="Combined-Shape" fill="#FFFFFF">
                    <path d="M5.53846154,5.53846154 L0.46153846,5.53846154 C0.20663781,5.53846154 0,5.74509935 0,6 C0,6.2549007 0.20663781,6.4615385 0.46153846,6.4615385 L5.53846154,6.4615385 L5.53846154,11.5384615 C5.53846154,11.7933622 5.74509935,12 6,12 C6.2549007,12 6.4615385,11.7933622 6.4615385,11.5384615 L6.4615385,6.4615385 L11.5384615,6.4615385 C11.7933622,6.4615385 12,6.2549007 12,6 C12,5.74509935 11.7933622,5.53846154 11.5384615,5.53846154 L6.4615385,5.53846154 L6.4615385,0.46153846 C6.4615385,0.20663781 6.2549007,0 6,0 C5.74509935,0 5.53846154,0.20663781 5.53846154,0.46153846 L5.53846154,5.53846154 Z" id="path-1"></path>
                </g>
                <g id="Color-/-03_neutral-/-grey-01-Clipped">
                    <mask id="mask-2" fill="white">
                        <use xlink:href="#path-1"></use>
                    </mask>
                    <g id="path-1"></g>
                    <g id="Color-/-03_neutral-/-grey-01" mask="url(#mask-2)">
                        <g transform="translate(-4.000000, -4.000000)" id="Rectangle-2">
                            <g>
                                <g id="path-3-link" fill="#000000">
                                    <rect id="path-3" x="0" y="0" width="20" height="20"></rect>
                                </g>
                                <g id="path-3-link" fill="#FFFFFF">
                                    <rect id="path-3" x="0" y="0" width="20" height="20"></rect>
                                </g>
                            </g>
                        </g>
                    </g>
                </g>
            </g>
        </g>
    </g>
</svg>