<svg width="16" height="16" viewBox="0 0 16 16" fill="none" xmlns="http://www.w3.org/2000/svg">
<path fill-rule="evenodd" clip-rule="evenodd" d="M4 2.5C4 2.22386 4.22386 2 4.5 2H15.5C15.7761 2 16 2.22386 16 2.5C16 2.77614 15.7761 3 15.5 3H4.5C4.22386 3 4 2.77614 4 2.5ZM4 8C4 7.72386 4.22386 7.5 4.5 7.5H15.5C15.7761 7.5 16 7.72386 16 8C16 8.27614 15.7761 8.5 15.5 8.5H4.5C4.22386 8.5 4 8.27614 4 8ZM4 13.5C4 13.2239 4.22386 13 4.5 13H15.5C15.7761 13 16 13.2239 16 13.5C16 13.7761 15.7761 14 15.5 14H4.5C4.22386 14 4 13.7761 4 13.5Z" fill="#1168A6"/>
<path d="M2 13.5C2 14.0523 1.55228 14.5 1 14.5C0.447715 14.5 0 14.0523 0 13.5C0 12.9477 0.447715 12.5 1 12.5C1.55228 12.5 2 12.9477 2 13.5Z" fill="#1168A6"/>
<path d="M2 8C2 8.55228 1.55228 9 1 9C0.447715 9 0 8.55228 0 8C0 7.44772 0.447715 7 1 7C1.55228 7 2 7.44772 2 8Z" fill="#1168A6"/>
<path d="M2 2.5C2 3.05228 1.55228 3.5 1 3.5C0.447715 3.5 0 3.05228 0 2.5C0 1.94772 0.447715 1.5 1 1.5C1.55228 1.5 2 1.94772 2 2.5Z" fill="#1168A6"/>
</svg>
