<?xml version="1.0" encoding="UTF-8"?>
<svg width="14px" height="18px" viewBox="0 0 14 18" version="1.1" xmlns="http://www.w3.org/2000/svg" xmlns:xlink="http://www.w3.org/1999/xlink">
    <!-- Generator: Sketch 52.2 (67145) - http://www.bohemiancoding.com/sketch -->
    <title>icon_button_bin</title>
    <desc>Created with Sketch.</desc>
    <g id="Page-1" stroke="none" stroke-width="1" fill="none" fill-rule="evenodd">
        <g id="icon_button_bin" fill="#FFFFFF">
            <g id="noun_bin_1412942">
                <g>
                    <g id="Group">
                        <g id="icon_button_bin">
                            <g id="Group">
                                <path d="M11.8754282,3.31906392 L11.4123975,16.1780894 C11.4044505,16.3987886 11.2154774,16.5857143 10.9999936,16.5857143 L3.00000638,16.5857143 C2.78473568,16.5857143 2.59552458,16.398096 2.58760253,16.1780894 L2.12457178,3.31906392 C2.11179615,2.964267 1.82180918,2.68729984 1.4768677,2.70044046 C1.13192625,2.7135811 0.862652625,3.01185342 0.875428225,3.36665037 L1.33845898,16.2256758 C1.3712618,17.1366569 2.11227128,17.8714286 3.00000638,17.8714286 L10.9999936,17.8714286 C11.8872691,17.8714286 12.6286883,17.1380423 12.661541,16.2256758 L13.1245718,3.36665037 C13.1373474,3.01185342 12.8680738,2.7135811 12.5231323,2.70044046 C12.1781908,2.68729984 11.8882039,2.964267 11.8754282,3.31906392 Z" id="Path"></path>
                                <path d="M6.5,5.91428571 L6.5,14.6571429 C6.5,14.941175 6.72385763,15.1714286 7,15.1714286 C7.27614237,15.1714286 7.5,14.941175 7.5,14.6571429 L7.5,5.91428571 C7.5,5.63025356 7.27614237,5.4 7,5.4 C6.72385763,5.4 6.5,5.63025356 6.5,5.91428571 Z" id="Path"></path>
                                <path d="M3.75021612,5.92940523 L4.00021612,14.6722624 C4.00833445,14.9561718 4.2386765,15.1795565 4.51469952,15.1712063 C4.79072255,15.162856 5.0079022,14.9259327 4.99978388,14.6420233 L4.74978388,5.8991662 C4.74166555,5.61525681 4.5113235,5.39187202 4.23530048,5.4002223 C3.95927745,5.40857258 3.7420978,5.64549583 3.75021612,5.92940523 Z" id="Path"></path>
                                <path d="M9.25021612,5.8991662 L9.00021612,14.6420233 C8.9920978,14.9259327 9.20927745,15.162856 9.48530048,15.1712063 C9.7613235,15.1795565 9.99166555,14.9561718 9.99978388,14.6722624 L10.2497839,5.92940523 C10.2579022,5.64549583 10.0407225,5.40857258 9.76469952,5.4002223 C9.4886765,5.39187202 9.25833445,5.61525681 9.25021612,5.8991662 Z" id="Path"></path>
                                <path d="M0.75,3.6 L13.25,3.6 C13.595178,3.6 13.875,3.31218306 13.875,2.95714286 C13.875,2.60210265 13.595178,2.31428571 13.25,2.31428571 L0.75,2.31428571 C0.404822025,2.31428571 0.125,2.60210265 0.125,2.95714286 C0.125,3.31218306 0.404822025,3.6 0.75,3.6 Z" id="Path"></path>
                                <path d="M5.10095247,2.74803501 L5.36120383,1.81113015 C5.41694462,1.61046327 5.66984193,1.41428571 5.87287417,1.41428571 L8.12712583,1.41428571 C8.33028763,1.41428571 8.58300868,1.61029515 8.63879617,1.81113015 L8.89904753,2.74803501 L10.1009525,2.39482214 L9.84070113,1.45791728 C9.6315693,0.705042771 8.88830687,0.128571429 8.12712583,0.128571429 L5.87287417,0.128571429 C5.11178343,0.128571429 4.3683732,0.705249771 4.15929887,1.45791728 L3.89904753,2.39482214 L5.10095247,2.74803501 Z" id="Path"></path>
                            </g>
                        </g>
                    </g>
                </g>
            </g>
        </g>
    </g>
</svg>