<?xml version="1.0" encoding="UTF-8"?>
<svg width="38px" height="39px" viewBox="0 0 38 39" version="1.1" xmlns="http://www.w3.org/2000/svg" xmlns:xlink="http://www.w3.org/1999/xlink">
    <!-- Generator: Sketch 52.2 (67145) - http://www.bohemiancoding.com/sketch -->
    <title>icon_table</title>
    <desc>Created with Sketch.</desc>
    <g id="Page-1" stroke="none" stroke-width="1" fill="none" fill-rule="evenodd">
        <g id="icon_table" fill="#5789AD">
            <g id="Group-2" transform="translate(0.000000, -0.000000)">
                <g id="icon_table">
                    <path d="M36.8,38.64 L1.2,38.64 C0.6256,38.64 0.16,38.1744 0.16,37.6 L0.16,2 C0.16,1.4256 0.6256,0.96 1.2,0.96 L36.8,0.96 C37.3744,0.96 37.84,1.4256 37.84,2 L37.84,37.6 C37.84,38.1744 37.3744,38.64 36.8,38.64 Z M2.24,36.56 L35.7584,36.56 L35.7584,3.04 L2.24,3.04 L2.24,36.56 Z" id="Shape" fill-rule="nonzero"></path>
                    <path d="M19,37.9056 C18.4256,37.9056 17.96,37.44 17.96,36.8656 L17.96,2 C17.96,1.4256 18.4256,0.96 19,0.96 C19.5744,0.96 20.04,1.4256 20.04,2 L20.04,36.8672 C20.04,37.44 19.5744,37.9056 19,37.9056 Z" id="Path"></path>
                    <path d="M36.8,11.5728 L1.2,11.5728 C0.6256,11.5728 0.16,11.1072 0.16,10.5328 C0.16,9.9584 0.6256,9.4928 1.2,9.4928 L36.8,9.4928 C37.3744,9.4928 37.84,9.9584 37.84,10.5328 C37.84,11.1072 37.3744,11.5728 36.8,11.5728 Z" id="Path"></path>
                    <path d="M36.8,20.9056 L1.2,20.9056 C0.6256,20.9056 0.16,20.44 0.16,19.8656 C0.16,19.2912 0.6256,18.8256 1.2,18.8256 L36.8,18.8256 C37.3744,18.8256 37.84,19.2912 37.84,19.8656 C37.84,20.44 37.3744,20.9056 36.8,20.9056 Z" id="Path"></path>
                    <path d="M36.8,30.24 L1.2,30.24 C0.6256,30.24 0.16,29.7744 0.16,29.2 C0.16,28.6256 0.6256,28.16 1.2,28.16 L36.8,28.16 C37.3744,28.16 37.84,28.6256 37.84,29.2 C37.84,29.7744 37.3744,30.24 36.8,30.24 Z" id="Path"></path>
                </g>
            </g>
        </g>
    </g>
</svg>