<svg width="16" height="16" viewBox="0 0 16 16" fill="none" xmlns="http://www.w3.org/2000/svg">
<path fill-rule="evenodd" clip-rule="evenodd" d="M0 8C0 3.58172 3.58172 0 8 0C12.4183 0 16 3.58172 16 8C16 12.4183 12.4183 16 8 16C3.58172 16 0 12.4183 0 8ZM15.2 8C15.2 4.02355 11.9765 0.8 8 0.8C4.02355 0.8 0.8 4.02355 0.8 8C0.8 11.9765 4.02355 15.2 8 15.2C11.9765 15.2 15.2 11.9765 15.2 8ZM8 5.60019C7.77909 5.60019 7.6 5.77928 7.6 6.0002V11.6002C7.6 11.8211 7.77909 12.0002 8 12.0002C8.22091 12.0002 8.4 11.8211 8.4 11.6002V6.0002C8.4 5.77928 8.22091 5.60019 8 5.60019ZM7.6 4.4C7.6 4.17909 7.77909 4 8 4C8.22091 4 8.4 4.17909 8.4 4.4C8.4 4.62091 8.22091 4.8 8 4.8C7.77909 4.8 7.6 4.62091 7.6 4.4Z" fill="#1168A6"/>
</svg>
