<?xml version="1.0" encoding="UTF-8"?>
<svg width="37px" height="37px" viewBox="0 0 37 37" version="1.1" xmlns="http://www.w3.org/2000/svg" xmlns:xlink="http://www.w3.org/1999/xlink">
    <!-- Generator: Sketch 52.2 (67145) - http://www.bohemiancoding.com/sketch -->
    <title>icon_mixed_chart</title>
    <desc>Created with Sketch.</desc>
    <g id="Page-1" stroke="none" stroke-width="1" fill="none" fill-rule="evenodd">
        <g id="icon_mixed_chart" fill="#5789AD">
            <g id="Group-8" transform="translate(0.000000, -0.000000)">
                <g id="icon_mixed_chart">
                    <path d="M0.140687867,36.7797254 C12.1689746,36.8596782 24.4086026,36.7797254 36.4374854,36.7797254 L36.4374854,34.9008324 L2.10498485,34.9008324 L2.10498485,0.397524028 L0.140687867,0.397524028 L0.140687867,36.7797254 Z" id="Path"></path>
                    <path d="M32.9506393,9.6012856 C32.9506393,9.6012856 28.2015284,17.2209915 24.0116227,16.5235409 C20.6154292,15.9582113 17.7110306,19.3469097 14.7721351,21.140404 C11.7247192,23.0001242 6.1335897,27.471539 6.1335897,27.471539 L6.1335897,28.6344042 C6.1335897,28.6344042 11.7384114,23.9882407 14.7721351,22.1692641 C17.7207473,20.4013192 20.620173,17.0215253 24.0116227,17.5854504 C28.1880145,18.2798945 32.9506393,11.2903464 32.9506393,11.2903464 L32.9506393,9.6012856 Z M31.1259102,10.6137496 C31.1259102,11.5935223 31.9162479,12.3877824 32.8911781,12.3877824 C33.8661088,12.3877824 34.6564461,11.5935223 34.6564461,10.6137496 C34.6564461,9.63398069 33.8661088,8.83972022 32.8911781,8.83972022 C31.9162479,8.83972022 31.1259102,9.63398069 31.1259102,10.6137496 Z M22.0961011,16.9955733 C22.0961011,18.036618 22.9358665,18.8805486 23.9717694,18.8805486 C25.007672,18.8805486 25.8474377,18.036618 25.8474377,16.9955733 C25.8474377,15.9545252 25.007672,15.1105946 23.9717694,15.1105946 C22.9358665,15.1105946 22.0961011,15.9545252 22.0961011,16.9955733 Z M12.8569516,21.3635455 C12.8569516,22.4045902 13.6967174,23.2485242 14.7326199,23.2485242 C15.7685224,23.2485242 16.6082882,22.4045902 16.6082882,21.3635455 C16.6082882,20.3225009 15.7685224,19.4785668 14.7326199,19.4785668 C13.6967174,19.4785668 12.8569516,20.3225009 12.8569516,21.3635455 Z M4.24130828,27.8236622 C4.24130828,28.8647069 5.08107024,29.7086409 6.11697279,29.7086409 C7.15287534,29.7086409 7.99264148,28.8647069 7.99264148,27.8236622 C7.99264148,26.7826176 7.15287534,25.9386869 6.11697279,25.9386869 C5.08107024,25.9386869 4.24130828,26.7826176 4.24130828,27.8236622 Z" id="Shape" fill-rule="nonzero"></path>
                    <path d="M32.9316225,3.26447355 C32.9316225,3.26447355 27.7032936,7.58842044 23.9926058,7.38459472 C20.426833,7.18872919 17.9871941,11.2931239 14.7531194,12.8076738 C11.9819303,14.1054497 6.11457358,15.9139451 6.11457358,15.9139451 L6.11457358,16.8352505 C6.11457358,16.8352505 11.9946199,15.1177816 14.7531194,13.8365339 C18.0132306,12.3223011 20.4020093,8.105866 23.9926058,8.27569572 C27.6931724,8.45072677 32.9316225,4.39923949 32.9316225,4.39923949 L32.9316225,3.26447355 Z M31.1068933,3.89345119 C31.1068933,4.87322387 31.897231,5.66748396 32.8721613,5.66748396 C33.8470919,5.66748396 34.6374292,4.87322387 34.6374292,3.89345119 C34.6374292,2.9136823 33.8470919,2.11942183 32.8721613,2.11942183 C31.897231,2.11942183 31.1068933,2.9136823 31.1068933,3.89345119 Z M22.0770842,7.85662719 C22.0770842,8.89767187 22.9168496,9.74160248 23.9527525,9.74160248 C24.9886551,9.74160248 25.8284208,8.89767187 25.8284208,7.85662719 C25.8284208,6.81557909 24.9886551,5.97164848 23.9527525,5.97164848 C22.9168496,5.97164848 22.0770842,6.81557909 22.0770842,7.85662719 Z M12.8379336,13.0308153 C12.8379336,14.07186 13.677702,14.915794 14.713603,14.915794 C15.7495041,14.915794 16.5892725,14.07186 16.5892725,13.0308153 C16.5892725,11.989771 15.7495041,11.1458366 14.713603,11.1458366 C13.677702,11.1458366 12.8379336,11.989771 12.8379336,13.0308153 Z M4.22229103,16.2660683 C4.22229103,17.307113 5.06205185,18.151047 6.09795668,18.151047 C7.13385771,18.151047 7.97362612,17.307113 7.97362612,16.2660683 C7.97362612,15.2250237 7.13385771,14.3810931 6.09795668,14.3810931 C5.06205185,14.3810931 4.22229103,15.2250237 4.22229103,16.2660683 Z" id="Shape" fill-rule="nonzero"></path>
                </g>
            </g>
        </g>
    </g>
</svg>