<?xml version="1.0" encoding="UTF-8" standalone="no"?>
<svg
   width="16"
   height="16"
   viewBox="0 0 16 16"
   fill="none"
   version="1.1"
   id="svg1"
   xmlns:xlink="http://www.w3.org/1999/xlink"
   xmlns="http://www.w3.org/2000/svg"
   xmlns:svg="http://www.w3.org/2000/svg">
  <defs
     id="defs1">
    <clipPath
       clipPathUnits="userSpaceOnUse"
       id="clipPath28">
      <use
         x="0"
         y="0"
         xlink:href="#g27"
         id="use28" />
    </clipPath>
  </defs>
  <path
     style="display:inline;fill:#4f5c67;fill-opacity:0;stroke-width:0.0196078"
     d="m 7.8903209,0.04409513 c 0.04362,0.01484118 0.083631,0.02699342 0.08891,0.02699291 0.00528,-5.53e-6 1.0083781,0.93771056 2.2291091,2.08381096 1.314955,1.2345644 2.237696,2.115232 2.264133,2.1608974 0.0625,0.1079613 0.06899,0.319083 0.01332,0.4330243 -0.04627,0.094695 -0.154777,0.2021966 -0.245946,0.2436719 -0.08485,0.0386 -0.283543,0.043093 -0.375153,0.00848 -0.05185,-0.01959 -0.595196,-0.5174893 -1.826627,-1.6738474 L 8.2852394,1.6811646 8.4190235,6.1395 c 0.1483782,4.944933 0.147226,4.512071 0.012443,4.675586 -0.096612,0.117208 -0.195757,0.164198 -0.3570532,0.169226 -0.1612962,0.005 -0.2631754,-0.03569 -0.3669001,-0.146658 C 7.5628083,10.68285 7.5886187,11.114944 7.4287218,6.170369 L 7.2845628,1.712357 5.6376594,3.4642978 C 4.4806416,4.6951091 3.9693627,5.2258841 3.918833,5.248665 3.8295552,5.2889145 3.6309702,5.2968068 3.5438798,5.2635648 3.450304,5.2278491 3.3353146,5.1273137 3.2832344,5.0356845 3.2205449,4.9253962 3.2138931,4.7142965 3.2695856,4.6026707 3.320128,4.5013717 7.4359421,0.12432028 7.5266537,0.07540348 7.6184183,0.02591755 7.7928002,0.01090515 7.8903196,0.04406522 Z"
     id="path2" />
  <g
     id="g28"
     clip-path="url(#clipPath28)"
     transform="matrix(1.2854673,0,0,1.3257575,-2.3326665,0.68302646)"
     style="stroke:#4f5c67;stroke-width:0.99965;stroke-dasharray:none;stroke-opacity:1">
    <g
       id="g27"
       style="stroke:#4f5c67;stroke-width:0.99965;stroke-dasharray:none;stroke-opacity:1">
      <path
         fill-rule="evenodd"
         clip-rule="evenodd"
         d="M 8.5,0.5 C 8.5,0.223858 8.27614,0 8,0 7.72386,0 7.5,0.223858 7.5,0.5 V 9.29283 L 4.18687,5.9797 c -0.19527,-0.19526 -0.51185,-0.19526 -0.70711,0 -0.19526,0.19526 -0.19526,0.51184 0,0.70711 L 7.64185,10.8489 C 7.73267,10.9421 7.85957,11 8,11 8.14109,11 8.26854,10.9416 8.35944,10.8476 L 12.5202,6.68681 c 0.1953,-0.19527 0.1953,-0.51185 0,-0.70711 -0.1953,-0.19526 -0.5118,-0.19526 -0.7071,0 L 8.5,9.29279 Z M 2.2479141,10.987396 13.844766,9.9947884 M 12.85278,8.3732932 3.7533083,8.331356"
         fill="#1168a6"
         id="path1"
         style="display:inline;stroke:#4f5c67;stroke-width:0.99965;stroke-dasharray:none;stroke-opacity:1" />
    </g>
  </g>
  <path
     style="fill:#4f5c67;fill-opacity:0;stroke-width:0.0160804"
     d="M 7.8231156,10.95619 C 7.7404593,10.925266 7.5939356,10.782515 5.5833815,8.7741138 3.2016236,6.3949064 3.3450417,6.5511932 3.3462563,6.3362517 3.3471181,6.1837533 3.3940506,6.078551 3.5074614,5.9748999 3.6175541,5.8742813 3.7195375,5.8383743 3.8654676,5.8488502 c 0.06455,0.00463 0.1348505,0.021811 0.1787535,0.043677 0.052341,0.026069 0.5406247,0.5038883 1.7648241,1.727004 L 7.5015075,9.3104957 V 4.9107089 c 0,-2.8306673 0.00567,-4.42966695 0.015889,-4.48357063 C 7.5494168,0.25829783 7.6421926,0.13256205 7.7873487,0.06128159 7.8637253,0.02377613 7.8999302,0.01613704 8,0.01641305 8.2511942,0.0171059 8.4343339,0.17261554 8.4823924,0.4260275 c 0.0105,0.0553677 0.0161,1.6151742 0.0161,4.4846814 V 9.3104957 L 10.190955,7.6195314 c 1.224199,-1.2231157 1.712483,-1.7009354 1.764824,-1.727004 0.0439,-0.021866 0.114204,-0.039044 0.178753,-0.043677 0.14593,-0.010476 0.247914,0.025431 0.358007,0.1260497 0.11341,0.1036511 0.160343,0.2088534 0.161205,0.3613518 0.0012,0.2149428 0.144636,0.058654 -2.237126,2.4378394 -2.0641716,2.0619397 -2.1550601,2.1503397 -2.2443569,2.1829147 -0.1164103,0.04246 -0.2341975,0.04219 -0.3491455,-8.16e-4 z"
     id="path3" />
  <path
     style="fill:#4f5c67;fill-opacity:0;stroke-width:0.0160804"
     d="M 7.8231156,10.95619 C 7.7404593,10.925266 7.5939356,10.782515 5.5833815,8.7741138 3.2016236,6.3949064 3.3450417,6.5511932 3.3462563,6.3362517 3.3471181,6.1837533 3.3940506,6.078551 3.5074614,5.9748999 3.6175541,5.8742813 3.7195375,5.8383743 3.8654676,5.8488502 c 0.06455,0.00463 0.1348505,0.021811 0.1787535,0.043677 0.052341,0.026069 0.5406247,0.5038883 1.7648241,1.727004 L 7.5015075,9.3104957 V 4.9107089 c 0,-2.8306673 0.00567,-4.42966695 0.015889,-4.48357063 C 7.5494168,0.25829783 7.6421926,0.13256205 7.7873487,0.06128159 7.8637253,0.02377613 7.8999302,0.01613704 8,0.01641305 8.2511942,0.0171059 8.4343339,0.17261554 8.4823924,0.4260275 c 0.0105,0.0553677 0.0161,1.6151742 0.0161,4.4846814 V 9.3104957 L 10.190955,7.6195314 c 1.224199,-1.2231157 1.712483,-1.7009354 1.764824,-1.727004 0.0439,-0.021866 0.114204,-0.039044 0.178753,-0.043677 0.14593,-0.010476 0.247914,0.025431 0.358007,0.1260497 0.11341,0.1036511 0.160343,0.2088534 0.161205,0.3613518 0.0012,0.2149428 0.144636,0.058654 -2.237126,2.4378394 -2.0641716,2.0619397 -2.1550601,2.1503397 -2.2443569,2.1829147 -0.1164103,0.04246 -0.2341975,0.04219 -0.3491455,-8.16e-4 z"
     id="path4" />
  <path
     style="fill:#4f5c67;fill-opacity:0;stroke-width:0.0160804"
     d="M 7.8231156,10.95619 C 7.7404593,10.925266 7.5939356,10.782515 5.5833815,8.7741138 3.2016236,6.3949064 3.3450417,6.5511932 3.3462563,6.3362517 3.3471181,6.1837533 3.3940506,6.078551 3.5074614,5.9748999 3.6175541,5.8742813 3.7195375,5.8383743 3.8654676,5.8488502 c 0.06455,0.00463 0.1348505,0.021811 0.1787535,0.043677 0.052341,0.026069 0.5406247,0.5038883 1.7648241,1.727004 L 7.5015075,9.3104957 V 4.9107089 c 0,-2.8306673 0.00567,-4.42966695 0.015889,-4.48357063 C 7.5494168,0.25829783 7.6421926,0.13256205 7.7873487,0.06128159 7.8637253,0.02377613 7.8999302,0.01613704 8,0.01641305 8.2511942,0.0171059 8.4343339,0.17261554 8.4823924,0.4260275 c 0.0105,0.0553677 0.0161,1.6151742 0.0161,4.4846814 V 9.3104957 L 10.190955,7.6195314 c 1.224199,-1.2231157 1.712483,-1.7009354 1.764824,-1.727004 0.0439,-0.021866 0.114204,-0.039044 0.178753,-0.043677 0.14593,-0.010476 0.247914,0.025431 0.358007,0.1260497 0.11341,0.1036511 0.160343,0.2088534 0.161205,0.3613518 0.0012,0.2149428 0.144636,0.058654 -2.237126,2.4378394 -2.0641716,2.0619397 -2.1550601,2.1503397 -2.2443569,2.1829147 -0.1164103,0.04246 -0.2341975,0.04219 -0.3491455,-8.16e-4 z"
     id="path5" />
  <path
     style="fill:#4f5c67;fill-opacity:0;stroke-width:0.0160804"
     d="M 7.8231156,10.95619 C 7.7404593,10.925266 7.5939356,10.782515 5.5833815,8.7741138 3.2016236,6.3949064 3.3450417,6.5511932 3.3462563,6.3362517 3.3471181,6.1837533 3.3940506,6.078551 3.5074614,5.9748999 3.6175541,5.8742813 3.7195375,5.8383743 3.8654676,5.8488502 c 0.06455,0.00463 0.1348505,0.021811 0.1787535,0.043677 0.052341,0.026069 0.5406247,0.5038883 1.7648241,1.727004 L 7.5015075,9.3104957 V 4.9107089 c 0,-2.8306673 0.00567,-4.42966695 0.015889,-4.48357063 C 7.5494168,0.25829783 7.6421926,0.13256205 7.7873487,0.06128159 7.8637253,0.02377613 7.8999302,0.01613704 8,0.01641305 8.2511942,0.0171059 8.4343339,0.17261554 8.4823924,0.4260275 c 0.0105,0.0553677 0.0161,1.6151742 0.0161,4.4846814 V 9.3104957 L 10.190955,7.6195314 c 1.224199,-1.2231157 1.712483,-1.7009354 1.764824,-1.727004 0.0439,-0.021866 0.114204,-0.039044 0.178753,-0.043677 0.14593,-0.010476 0.247914,0.025431 0.358007,0.1260497 0.11341,0.1036511 0.160343,0.2088534 0.161205,0.3613518 0.0012,0.2149428 0.144636,0.058654 -2.237126,2.4378394 -2.0641716,2.0619397 -2.1550601,2.1503397 -2.2443569,2.1829147 -0.1164103,0.04246 -0.2341975,0.04219 -0.3491455,-8.16e-4 z"
     id="path6" />
  <path
     style="fill:#4f5c67;fill-opacity:0;stroke-width:0.0160804"
     d="M 7.8231156,10.95619 C 7.7404593,10.925266 7.5939356,10.782515 5.5833815,8.7741138 3.2016236,6.3949064 3.3450417,6.5511932 3.3462563,6.3362517 3.3471181,6.1837533 3.3940506,6.078551 3.5074614,5.9748999 3.6175541,5.8742813 3.7195375,5.8383743 3.8654676,5.8488502 c 0.06455,0.00463 0.1348505,0.021811 0.1787535,0.043677 0.052341,0.026069 0.5406247,0.5038883 1.7648241,1.727004 L 7.5015075,9.3104957 V 4.9107089 c 0,-2.8306673 0.00567,-4.42966695 0.015889,-4.48357063 C 7.5494168,0.25829783 7.6421926,0.13256205 7.7873487,0.06128159 7.8637253,0.02377613 7.8999302,0.01613704 8,0.01641305 8.2511942,0.0171059 8.4343339,0.17261554 8.4823924,0.4260275 c 0.0105,0.0553677 0.0161,1.6151742 0.0161,4.4846814 V 9.3104957 L 10.190955,7.6195314 c 1.224199,-1.2231157 1.712483,-1.7009354 1.764824,-1.727004 0.0439,-0.021866 0.114204,-0.039044 0.178753,-0.043677 0.14593,-0.010476 0.247914,0.025431 0.358007,0.1260497 0.11341,0.1036511 0.160343,0.2088534 0.161205,0.3613518 0.0012,0.2149428 0.144636,0.058654 -2.237126,2.4378394 -2.0641716,2.0619397 -2.1550601,2.1503397 -2.2443569,2.1829147 -0.1164103,0.04246 -0.2341975,0.04219 -0.3491455,-8.16e-4 z"
     id="path7" />
  <path
     style="fill:#4f5c67;fill-opacity:0;stroke-width:0.0160804"
     d="M 7.8231156,10.95619 C 7.7404593,10.925266 7.5939356,10.782515 5.5833815,8.7741138 3.2016236,6.3949064 3.3450417,6.5511932 3.3462563,6.3362517 3.3471181,6.1837533 3.3940506,6.078551 3.5074614,5.9748999 3.6175541,5.8742813 3.7195375,5.8383743 3.8654676,5.8488502 c 0.06455,0.00463 0.1348505,0.021811 0.1787535,0.043677 0.052341,0.026069 0.5406247,0.5038883 1.7648241,1.727004 L 7.5015075,9.3104957 V 4.9107089 c 0,-2.8306673 0.00567,-4.42966695 0.015889,-4.48357063 C 7.5494168,0.25829783 7.6421926,0.13256205 7.7873487,0.06128159 7.8637253,0.02377613 7.8999302,0.01613704 8,0.01641305 8.2511942,0.0171059 8.4343339,0.17261554 8.4823924,0.4260275 c 0.0105,0.0553677 0.0161,1.6151742 0.0161,4.4846814 V 9.3104957 L 10.190955,7.6195314 c 1.224199,-1.2231157 1.712483,-1.7009354 1.764824,-1.727004 0.0439,-0.021866 0.114204,-0.039044 0.178753,-0.043677 0.14593,-0.010476 0.247914,0.025431 0.358007,0.1260497 0.11341,0.1036511 0.160343,0.2088534 0.161205,0.3613518 0.0012,0.2149428 0.144636,0.058654 -2.237126,2.4378394 -2.0641716,2.0619397 -2.1550601,2.1503397 -2.2443569,2.1829147 -0.1164103,0.04246 -0.2341975,0.04219 -0.3491455,-8.16e-4 z"
     id="path8" />
  <path
     style="fill:#4f5c67;fill-opacity:0;stroke-width:0.0160804"
     d="M 7.8231156,10.95619 C 7.7404593,10.925266 7.5939356,10.782515 5.5833815,8.7741138 3.2016236,6.3949064 3.3450417,6.5511932 3.3462563,6.3362517 3.3471181,6.1837533 3.3940506,6.078551 3.5074614,5.9748999 3.6175541,5.8742813 3.7195375,5.8383743 3.8654676,5.8488502 c 0.06455,0.00463 0.1348505,0.021811 0.1787535,0.043677 0.052341,0.026069 0.5406247,0.5038883 1.7648241,1.727004 L 7.5015075,9.3104957 V 4.9107089 c 0,-2.8306673 0.00567,-4.42966695 0.015889,-4.48357063 C 7.5494168,0.25829783 7.6421926,0.13256205 7.7873487,0.06128159 7.8637253,0.02377613 7.8999302,0.01613704 8,0.01641305 8.2511942,0.0171059 8.4343339,0.17261554 8.4823924,0.4260275 c 0.0105,0.0553677 0.0161,1.6151742 0.0161,4.4846814 V 9.3104957 L 10.190955,7.6195314 c 1.224199,-1.2231157 1.712483,-1.7009354 1.764824,-1.727004 0.0439,-0.021866 0.114204,-0.039044 0.178753,-0.043677 0.14593,-0.010476 0.247914,0.025431 0.358007,0.1260497 0.11341,0.1036511 0.160343,0.2088534 0.161205,0.3613518 0.0012,0.2149428 0.144636,0.058654 -2.237126,2.4378394 -2.0641716,2.0619397 -2.1550601,2.1503397 -2.2443569,2.1829147 -0.1164103,0.04246 -0.2341975,0.04219 -0.3491455,-8.16e-4 z"
     id="path10" />
  <path
     style="fill:#4f5c67;fill-opacity:0;stroke-width:0.0160804"
     d="M 7.8231156,10.95619 C 7.7404593,10.925266 7.5939356,10.782515 5.5833815,8.7741138 3.2016236,6.3949064 3.3450417,6.5511932 3.3462563,6.3362517 3.3471181,6.1837533 3.3940506,6.078551 3.5074614,5.9748999 3.6175541,5.8742813 3.7195375,5.8383743 3.8654676,5.8488502 c 0.06455,0.00463 0.1348505,0.021811 0.1787535,0.043677 0.052341,0.026069 0.5406247,0.5038883 1.7648241,1.727004 L 7.5015075,9.3104957 V 4.9107089 c 0,-2.8306673 0.00567,-4.42966695 0.015889,-4.48357063 C 7.5494168,0.25829783 7.6421926,0.13256205 7.7873487,0.06128159 7.8637253,0.02377613 7.8999302,0.01613704 8,0.01641305 8.2511942,0.0171059 8.4343339,0.17261554 8.4823924,0.4260275 c 0.0105,0.0553677 0.0161,1.6151742 0.0161,4.4846814 V 9.3104957 L 10.190955,7.6195314 c 1.224199,-1.2231157 1.712483,-1.7009354 1.764824,-1.727004 0.0439,-0.021866 0.114204,-0.039044 0.178753,-0.043677 0.14593,-0.010476 0.247914,0.025431 0.358007,0.1260497 0.11341,0.1036511 0.160343,0.2088534 0.161205,0.3613518 0.0012,0.2149428 0.144636,0.058654 -2.237126,2.4378394 -2.0641716,2.0619397 -2.1550601,2.1503397 -2.2443569,2.1829147 -0.1164103,0.04246 -0.2341975,0.04219 -0.3491455,-8.16e-4 z"
     id="path11" />
  <path
     style="fill:#4f5c67;fill-opacity:0;stroke-width:0.0160804"
     d="M 7.8231156,10.95619 C 7.7404593,10.925266 7.5939356,10.782515 5.5833815,8.7741138 3.2016236,6.3949064 3.3450417,6.5511932 3.3462563,6.3362517 3.3471181,6.1837533 3.3940506,6.078551 3.5074614,5.9748999 3.6175541,5.8742813 3.7195375,5.8383743 3.8654676,5.8488502 c 0.06455,0.00463 0.1348505,0.021811 0.1787535,0.043677 0.052341,0.026069 0.5406247,0.5038883 1.7648241,1.727004 L 7.5015075,9.3104957 V 4.9107089 c 0,-2.8306673 0.00567,-4.42966695 0.015889,-4.48357063 C 7.5494168,0.25829783 7.6421926,0.13256205 7.7873487,0.06128159 7.8637253,0.02377613 7.8999302,0.01613704 8,0.01641305 8.2511942,0.0171059 8.4343339,0.17261554 8.4823924,0.4260275 c 0.0105,0.0553677 0.0161,1.6151742 0.0161,4.4846814 V 9.3104957 L 10.190955,7.6195314 c 1.224199,-1.2231157 1.712483,-1.7009354 1.764824,-1.727004 0.0439,-0.021866 0.114204,-0.039044 0.178753,-0.043677 0.14593,-0.010476 0.247914,0.025431 0.358007,0.1260497 0.11341,0.1036511 0.160343,0.2088534 0.161205,0.3613518 0.0012,0.2149428 0.144636,0.058654 -2.237126,2.4378394 -2.0641716,2.0619397 -2.1550601,2.1503397 -2.2443569,2.1829147 -0.1164103,0.04246 -0.2341975,0.04219 -0.3491455,-8.16e-4 z"
     id="path12" />
  <path
     style="fill:#4f5c67;fill-opacity:0;stroke-width:0.0160804"
     d="M 7.8231156,10.95619 C 7.7404593,10.925266 7.5939356,10.782515 5.5833815,8.7741138 3.2016236,6.3949064 3.3450417,6.5511932 3.3462563,6.3362517 3.3471181,6.1837533 3.3940506,6.078551 3.5074614,5.9748999 3.6175541,5.8742813 3.7195375,5.8383743 3.8654676,5.8488502 c 0.06455,0.00463 0.1348505,0.021811 0.1787535,0.043677 0.052341,0.026069 0.5406247,0.5038883 1.7648241,1.727004 L 7.5015075,9.3104957 V 4.9107089 c 0,-2.8306673 0.00567,-4.42966695 0.015889,-4.48357063 C 7.5494168,0.25829783 7.6421926,0.13256205 7.7873487,0.06128159 7.8637253,0.02377613 7.8999302,0.01613704 8,0.01641305 8.2511942,0.0171059 8.4343339,0.17261554 8.4823924,0.4260275 c 0.0105,0.0553677 0.0161,1.6151742 0.0161,4.4846814 V 9.3104957 L 10.190955,7.6195314 c 1.224199,-1.2231157 1.712483,-1.7009354 1.764824,-1.727004 0.0439,-0.021866 0.114204,-0.039044 0.178753,-0.043677 0.14593,-0.010476 0.247914,0.025431 0.358007,0.1260497 0.11341,0.1036511 0.160343,0.2088534 0.161205,0.3613518 0.0012,0.2149428 0.144636,0.058654 -2.237126,2.4378394 -2.0641716,2.0619397 -2.1550601,2.1503397 -2.2443569,2.1829147 -0.1164103,0.04246 -0.2341975,0.04219 -0.3491455,-8.16e-4 z"
     id="path13" />
  <path
     style="fill:#4f5c67;fill-opacity:0;stroke-width:0.0160804"
     d="M 7.8231156,10.95619 C 7.7404593,10.925266 7.5939356,10.782515 5.5833815,8.7741138 3.2016236,6.3949064 3.3450417,6.5511932 3.3462563,6.3362517 3.3471181,6.1837533 3.3940506,6.078551 3.5074614,5.9748999 3.6175541,5.8742813 3.7195375,5.8383743 3.8654676,5.8488502 c 0.06455,0.00463 0.1348505,0.021811 0.1787535,0.043677 0.052341,0.026069 0.5406247,0.5038883 1.7648241,1.727004 L 7.5015075,9.3104957 V 4.9107089 c 0,-2.8306673 0.00567,-4.42966695 0.015889,-4.48357063 C 7.5494168,0.25829783 7.6421926,0.13256205 7.7873487,0.06128159 7.8637253,0.02377613 7.8999302,0.01613704 8,0.01641305 8.2511942,0.0171059 8.4343339,0.17261554 8.4823924,0.4260275 c 0.0105,0.0553677 0.0161,1.6151742 0.0161,4.4846814 V 9.3104957 L 10.190955,7.6195314 c 1.224199,-1.2231157 1.712483,-1.7009354 1.764824,-1.727004 0.0439,-0.021866 0.114204,-0.039044 0.178753,-0.043677 0.14593,-0.010476 0.247914,0.025431 0.358007,0.1260497 0.11341,0.1036511 0.160343,0.2088534 0.161205,0.3613518 0.0012,0.2149428 0.144636,0.058654 -2.237126,2.4378394 -2.0641716,2.0619397 -2.1550601,2.1503397 -2.2443569,2.1829147 -0.1164103,0.04246 -0.2341975,0.04219 -0.3491455,-8.16e-4 z"
     id="path14" />
  <path
     style="fill:#4f5c67;fill-opacity:0;stroke-width:0.0160804"
     d="M 7.8231156,10.95619 C 7.7404593,10.925266 7.5939356,10.782515 5.5833815,8.7741138 3.2016236,6.3949064 3.3450417,6.5511932 3.3462563,6.3362517 3.3471181,6.1837533 3.3940506,6.078551 3.5074614,5.9748999 3.6175541,5.8742813 3.7195375,5.8383743 3.8654676,5.8488502 c 0.06455,0.00463 0.1348505,0.021811 0.1787535,0.043677 0.052341,0.026069 0.5406247,0.5038883 1.7648241,1.727004 L 7.5015075,9.3104957 V 4.9107089 c 0,-2.8306673 0.00567,-4.42966695 0.015889,-4.48357063 C 7.5494168,0.25829783 7.6421926,0.13256205 7.7873487,0.06128159 7.8637253,0.02377613 7.8999302,0.01613704 8,0.01641305 8.2511942,0.0171059 8.4343339,0.17261554 8.4823924,0.4260275 c 0.0105,0.0553677 0.0161,1.6151742 0.0161,4.4846814 V 9.3104957 L 10.190955,7.6195314 c 1.224199,-1.2231157 1.712483,-1.7009354 1.764824,-1.727004 0.0439,-0.021866 0.114204,-0.039044 0.178753,-0.043677 0.14593,-0.010476 0.247914,0.025431 0.358007,0.1260497 0.11341,0.1036511 0.160343,0.2088534 0.161205,0.3613518 0.0012,0.2149428 0.144636,0.058654 -2.237126,2.4378394 -2.0641716,2.0619397 -2.1550601,2.1503397 -2.2443569,2.1829147 -0.1164103,0.04246 -0.2341975,0.04219 -0.3491455,-8.16e-4 z"
     id="path15" />
  <path
     style="fill:#4f5c67;fill-opacity:0;stroke-width:0.0160804"
     d="M 7.8231156,10.95619 C 7.7404593,10.925266 7.5939356,10.782515 5.5833815,8.7741138 3.2016236,6.3949064 3.3450417,6.5511932 3.3462563,6.3362517 3.3471181,6.1837533 3.3940506,6.078551 3.5074614,5.9748999 3.6175541,5.8742813 3.7195375,5.8383743 3.8654676,5.8488502 c 0.06455,0.00463 0.1348505,0.021811 0.1787535,0.043677 0.052341,0.026069 0.5406247,0.5038883 1.7648241,1.727004 L 7.5015075,9.3104957 V 4.9107089 c 0,-2.8306673 0.00567,-4.42966695 0.015889,-4.48357063 C 7.5494168,0.25829783 7.6421926,0.13256205 7.7873487,0.06128159 7.8637253,0.02377613 7.8999302,0.01613704 8,0.01641305 8.2511942,0.0171059 8.4343339,0.17261554 8.4823924,0.4260275 c 0.0105,0.0553677 0.0161,1.6151742 0.0161,4.4846814 V 9.3104957 L 10.190955,7.6195314 c 1.224199,-1.2231157 1.712483,-1.7009354 1.764824,-1.727004 0.0439,-0.021866 0.114204,-0.039044 0.178753,-0.043677 0.14593,-0.010476 0.247914,0.025431 0.358007,0.1260497 0.11341,0.1036511 0.160343,0.2088534 0.161205,0.3613518 0.0012,0.2149428 0.144636,0.058654 -2.237126,2.4378394 -2.0641716,2.0619397 -2.1550601,2.1503397 -2.2443569,2.1829147 -0.1164103,0.04246 -0.2341975,0.04219 -0.3491455,-8.16e-4 z"
     id="path16" />
  <path
     style="fill:#4f5c67;fill-opacity:0;stroke-width:0.0160804"
     d="M 7.8231156,10.95619 C 7.7404593,10.925266 7.5939356,10.782515 5.5833815,8.7741138 3.2016236,6.3949064 3.3450417,6.5511932 3.3462563,6.3362517 3.3471181,6.1837533 3.3940506,6.078551 3.5074614,5.9748999 3.6175541,5.8742813 3.7195375,5.8383743 3.8654676,5.8488502 c 0.06455,0.00463 0.1348505,0.021811 0.1787535,0.043677 0.052341,0.026069 0.5406247,0.5038883 1.7648241,1.727004 L 7.5015075,9.3104957 V 4.9107089 c 0,-2.8306673 0.00567,-4.42966695 0.015889,-4.48357063 C 7.5494168,0.25829783 7.6421926,0.13256205 7.7873487,0.06128159 7.8637253,0.02377613 7.8999302,0.01613704 8,0.01641305 8.2511942,0.0171059 8.4343339,0.17261554 8.4823924,0.4260275 c 0.0105,0.0553677 0.0161,1.6151742 0.0161,4.4846814 V 9.3104957 L 10.190955,7.6195314 c 1.224199,-1.2231157 1.712483,-1.7009354 1.764824,-1.727004 0.0439,-0.021866 0.114204,-0.039044 0.178753,-0.043677 0.14593,-0.010476 0.247914,0.025431 0.358007,0.1260497 0.11341,0.1036511 0.160343,0.2088534 0.161205,0.3613518 0.0012,0.2149428 0.144636,0.058654 -2.237126,2.4378394 -2.0641716,2.0619397 -2.1550601,2.1503397 -2.2443569,2.1829147 -0.1164103,0.04246 -0.2341975,0.04219 -0.3491455,-8.16e-4 z"
     id="path17" />
  <path
     style="fill:#4f5c67;fill-opacity:0;stroke-width:0.0160804"
     d="M 7.8231156,10.95619 C 7.7404593,10.925266 7.5939356,10.782515 5.5833815,8.7741138 3.2016236,6.3949064 3.3450417,6.5511932 3.3462563,6.3362517 3.3471181,6.1837533 3.3940506,6.078551 3.5074614,5.9748999 3.6175541,5.8742813 3.7195375,5.8383743 3.8654676,5.8488502 c 0.06455,0.00463 0.1348505,0.021811 0.1787535,0.043677 0.052341,0.026069 0.5406247,0.5038883 1.7648241,1.727004 L 7.5015075,9.3104957 V 4.9107089 c 0,-2.8306673 0.00567,-4.42966695 0.015889,-4.48357063 C 7.5494168,0.25829783 7.6421926,0.13256205 7.7873487,0.06128159 7.8637253,0.02377613 7.8999302,0.01613704 8,0.01641305 8.2511942,0.0171059 8.4343339,0.17261554 8.4823924,0.4260275 c 0.0105,0.0553677 0.0161,1.6151742 0.0161,4.4846814 V 9.3104957 L 10.190955,7.6195314 c 1.224199,-1.2231157 1.712483,-1.7009354 1.764824,-1.727004 0.0439,-0.021866 0.114204,-0.039044 0.178753,-0.043677 0.14593,-0.010476 0.247914,0.025431 0.358007,0.1260497 0.11341,0.1036511 0.160343,0.2088534 0.161205,0.3613518 0.0012,0.2149428 0.144636,0.058654 -2.237126,2.4378394 -2.0641716,2.0619397 -2.1550601,2.1503397 -2.2443569,2.1829147 -0.1164103,0.04246 -0.2341975,0.04219 -0.3491455,-8.16e-4 z"
     id="path18" />
  <path
     style="fill:#4f5c67;fill-opacity:0;stroke-width:0.0160804"
     d="M 7.8231156,10.95619 C 7.7404593,10.925266 7.5939356,10.782515 5.5833815,8.7741138 3.2016236,6.3949064 3.3450417,6.5511932 3.3462563,6.3362517 3.3471181,6.1837533 3.3940506,6.078551 3.5074614,5.9748999 3.6175541,5.8742813 3.7195375,5.8383743 3.8654676,5.8488502 c 0.06455,0.00463 0.1348505,0.021811 0.1787535,0.043677 0.052341,0.026069 0.5406247,0.5038883 1.7648241,1.727004 L 7.5015075,9.3104957 V 4.9107089 c 0,-2.8306673 0.00567,-4.42966695 0.015889,-4.48357063 C 7.5494168,0.25829783 7.6421926,0.13256205 7.7873487,0.06128159 7.8637253,0.02377613 7.8999302,0.01613704 8,0.01641305 8.2511942,0.0171059 8.4343339,0.17261554 8.4823924,0.4260275 c 0.0105,0.0553677 0.0161,1.6151742 0.0161,4.4846814 V 9.3104957 L 10.190955,7.6195314 c 1.224199,-1.2231157 1.712483,-1.7009354 1.764824,-1.727004 0.0439,-0.021866 0.114204,-0.039044 0.178753,-0.043677 0.14593,-0.010476 0.247914,0.025431 0.358007,0.1260497 0.11341,0.1036511 0.160343,0.2088534 0.161205,0.3613518 0.0012,0.2149428 0.144636,0.058654 -2.237126,2.4378394 -2.0641716,2.0619397 -2.1550601,2.1503397 -2.2443569,2.1829147 -0.1164103,0.04246 -0.2341975,0.04219 -0.3491455,-8.16e-4 z"
     id="path19" />
  <path
     style="fill:#4f5c67;fill-opacity:0;stroke-width:0.0160804"
     d="M 7.8231156,10.95619 C 7.7404593,10.925266 7.5939356,10.782515 5.5833815,8.7741138 3.2016236,6.3949064 3.3450417,6.5511932 3.3462563,6.3362517 3.3471181,6.1837533 3.3940506,6.078551 3.5074614,5.9748999 3.6175541,5.8742813 3.7195375,5.8383743 3.8654676,5.8488502 c 0.06455,0.00463 0.1348505,0.021811 0.1787535,0.043677 0.052341,0.026069 0.5406247,0.5038883 1.7648241,1.727004 L 7.5015075,9.3104957 V 4.9107089 c 0,-2.8306673 0.00567,-4.42966695 0.015889,-4.48357063 C 7.5494168,0.25829783 7.6421926,0.13256205 7.7873487,0.06128159 7.8637253,0.02377613 7.8999302,0.01613704 8,0.01641305 8.2511942,0.0171059 8.4343339,0.17261554 8.4823924,0.4260275 c 0.0105,0.0553677 0.0161,1.6151742 0.0161,4.4846814 V 9.3104957 L 10.190955,7.6195314 c 1.224199,-1.2231157 1.712483,-1.7009354 1.764824,-1.727004 0.0439,-0.021866 0.114204,-0.039044 0.178753,-0.043677 0.14593,-0.010476 0.247914,0.025431 0.358007,0.1260497 0.11341,0.1036511 0.160343,0.2088534 0.161205,0.3613518 0.0012,0.2149428 0.144636,0.058654 -2.237126,2.4378394 -2.0641716,2.0619397 -2.1550601,2.1503397 -2.2443569,2.1829147 -0.1164103,0.04246 -0.2341975,0.04219 -0.3491455,-8.16e-4 z"
     id="path20" />
  <path
     style="fill:#4f5c67;fill-opacity:0;stroke-width:0.0160804"
     d="M 7.8231156,10.95619 C 7.7404593,10.925266 7.5939356,10.782515 5.5833815,8.7741138 3.2016236,6.3949064 3.3450417,6.5511932 3.3462563,6.3362517 3.3471181,6.1837533 3.3940506,6.078551 3.5074614,5.9748999 3.6175541,5.8742813 3.7195375,5.8383743 3.8654676,5.8488502 c 0.06455,0.00463 0.1348505,0.021811 0.1787535,0.043677 0.052341,0.026069 0.5406247,0.5038883 1.7648241,1.727004 L 7.5015075,9.3104957 V 4.9107089 c 0,-2.8306673 0.00567,-4.42966695 0.015889,-4.48357063 C 7.5494168,0.25829783 7.6421926,0.13256205 7.7873487,0.06128159 7.8637253,0.02377613 7.8999302,0.01613704 8,0.01641305 8.2511942,0.0171059 8.4343339,0.17261554 8.4823924,0.4260275 c 0.0105,0.0553677 0.0161,1.6151742 0.0161,4.4846814 V 9.3104957 L 10.190955,7.6195314 c 1.224199,-1.2231157 1.712483,-1.7009354 1.764824,-1.727004 0.0439,-0.021866 0.114204,-0.039044 0.178753,-0.043677 0.14593,-0.010476 0.247914,0.025431 0.358007,0.1260497 0.11341,0.1036511 0.160343,0.2088534 0.161205,0.3613518 0.0012,0.2149428 0.144636,0.058654 -2.237126,2.4378394 -2.0641716,2.0619397 -2.1550601,2.1503397 -2.2443569,2.1829147 -0.1164103,0.04246 -0.2341975,0.04219 -0.3491455,-8.16e-4 z"
     id="path21" />
  <path
     style="fill:#4f5c67;fill-opacity:0;stroke-width:0.0160804"
     d="M 7.8231156,10.95619 C 7.7404593,10.925266 7.5939356,10.782515 5.5833815,8.7741138 3.2016236,6.3949064 3.3450417,6.5511932 3.3462563,6.3362517 3.3471181,6.1837533 3.3940506,6.078551 3.5074614,5.9748999 3.6175541,5.8742813 3.7195375,5.8383743 3.8654676,5.8488502 c 0.06455,0.00463 0.1348505,0.021811 0.1787535,0.043677 0.052341,0.026069 0.5406247,0.5038883 1.7648241,1.727004 L 7.5015075,9.3104957 V 4.9107089 c 0,-2.8306673 0.00567,-4.42966695 0.015889,-4.48357063 C 7.5494168,0.25829783 7.6421926,0.13256205 7.7873487,0.06128159 7.8637253,0.02377613 7.8999302,0.01613704 8,0.01641305 8.2511942,0.0171059 8.4343339,0.17261554 8.4823924,0.4260275 c 0.0105,0.0553677 0.0161,1.6151742 0.0161,4.4846814 V 9.3104957 L 10.190955,7.6195314 c 1.224199,-1.2231157 1.712483,-1.7009354 1.764824,-1.727004 0.0439,-0.021866 0.114204,-0.039044 0.178753,-0.043677 0.14593,-0.010476 0.247914,0.025431 0.358007,0.1260497 0.11341,0.1036511 0.160343,0.2088534 0.161205,0.3613518 0.0012,0.2149428 0.144636,0.058654 -2.237126,2.4378394 -2.0641716,2.0619397 -2.1550601,2.1503397 -2.2443569,2.1829147 -0.1164103,0.04246 -0.2341975,0.04219 -0.3491455,-8.16e-4 z"
     id="path22" />
  <path
     style="fill:#4f5c67;fill-opacity:0;stroke-width:0.0160804"
     d="M 7.8231156,10.95619 C 7.7404593,10.925266 7.5939356,10.782515 5.5833815,8.7741138 3.2016236,6.3949064 3.3450417,6.5511932 3.3462563,6.3362517 3.3471181,6.1837533 3.3940506,6.078551 3.5074614,5.9748999 3.6175541,5.8742813 3.7195375,5.8383743 3.8654676,5.8488502 c 0.06455,0.00463 0.1348505,0.021811 0.1787535,0.043677 0.052341,0.026069 0.5406247,0.5038883 1.7648241,1.727004 L 7.5015075,9.3104957 V 4.9107089 c 0,-2.8306673 0.00567,-4.42966695 0.015889,-4.48357063 C 7.5494168,0.25829783 7.6421926,0.13256205 7.7873487,0.06128159 7.8637253,0.02377613 7.8999302,0.01613704 8,0.01641305 8.2511942,0.0171059 8.4343339,0.17261554 8.4823924,0.4260275 c 0.0105,0.0553677 0.0161,1.6151742 0.0161,4.4846814 V 9.3104957 L 10.190955,7.6195314 c 1.224199,-1.2231157 1.712483,-1.7009354 1.764824,-1.727004 0.0439,-0.021866 0.114204,-0.039044 0.178753,-0.043677 0.14593,-0.010476 0.247914,0.025431 0.358007,0.1260497 0.11341,0.1036511 0.160343,0.2088534 0.161205,0.3613518 0.0012,0.2149428 0.144636,0.058654 -2.237126,2.4378394 -2.0641716,2.0619397 -2.1550601,2.1503397 -2.2443569,2.1829147 -0.1164103,0.04246 -0.2341975,0.04219 -0.3491455,-8.16e-4 z"
     id="path23" />
  <path
     style="fill:#4f5c67;fill-opacity:0;stroke-width:0.0160804"
     d="M 7.8231156,10.95619 C 7.7404593,10.925266 7.5939356,10.782515 5.5833815,8.7741138 3.2016236,6.3949064 3.3450417,6.5511932 3.3462563,6.3362517 3.3471181,6.1837533 3.3940506,6.078551 3.5074614,5.9748999 3.6175541,5.8742813 3.7195375,5.8383743 3.8654676,5.8488502 c 0.06455,0.00463 0.1348505,0.021811 0.1787535,0.043677 0.052341,0.026069 0.5406247,0.5038883 1.7648241,1.727004 L 7.5015075,9.3104957 V 4.9107089 c 0,-2.8306673 0.00567,-4.42966695 0.015889,-4.48357063 C 7.5494168,0.25829783 7.6421926,0.13256205 7.7873487,0.06128159 7.8637253,0.02377613 7.8999302,0.01613704 8,0.01641305 8.2511942,0.0171059 8.4343339,0.17261554 8.4823924,0.4260275 c 0.0105,0.0553677 0.0161,1.6151742 0.0161,4.4846814 V 9.3104957 L 10.190955,7.6195314 c 1.224199,-1.2231157 1.712483,-1.7009354 1.764824,-1.727004 0.0439,-0.021866 0.114204,-0.039044 0.178753,-0.043677 0.14593,-0.010476 0.247914,0.025431 0.358007,0.1260497 0.11341,0.1036511 0.160343,0.2088534 0.161205,0.3613518 0.0012,0.2149428 0.144636,0.058654 -2.237126,2.4378394 -2.0641716,2.0619397 -2.1550601,2.1503397 -2.2443569,2.1829147 -0.1164103,0.04246 -0.2341975,0.04219 -0.3491455,-8.16e-4 z"
     id="path24" />
  <path
     style="fill:#4f5c67;fill-opacity:0;stroke-width:0.0160804"
     d="M 7.8231156,10.95619 C 7.7404593,10.925266 7.5939356,10.782515 5.5833815,8.7741138 3.2016236,6.3949064 3.3450417,6.5511932 3.3462563,6.3362517 3.3471181,6.1837533 3.3940506,6.078551 3.5074614,5.9748999 3.6175541,5.8742813 3.7195375,5.8383743 3.8654676,5.8488502 c 0.06455,0.00463 0.1348505,0.021811 0.1787535,0.043677 0.052341,0.026069 0.5406247,0.5038883 1.7648241,1.727004 L 7.5015075,9.3104957 V 4.9107089 c 0,-2.8306673 0.00567,-4.42966695 0.015889,-4.48357063 C 7.5494168,0.25829783 7.6421926,0.13256205 7.7873487,0.06128159 7.8637253,0.02377613 7.8999302,0.01613704 8,0.01641305 8.2511942,0.0171059 8.4343339,0.17261554 8.4823924,0.4260275 c 0.0105,0.0553677 0.0161,1.6151742 0.0161,4.4846814 V 9.3104957 L 10.190955,7.6195314 c 1.224199,-1.2231157 1.712483,-1.7009354 1.764824,-1.727004 0.0439,-0.021866 0.114204,-0.039044 0.178753,-0.043677 0.14593,-0.010476 0.247914,0.025431 0.358007,0.1260497 0.11341,0.1036511 0.160343,0.2088534 0.161205,0.3613518 0.0012,0.2149428 0.144636,0.058654 -2.237126,2.4378394 -2.0641716,2.0619397 -2.1550601,2.1503397 -2.2443569,2.1829147 -0.1164103,0.04246 -0.2341975,0.04219 -0.3491455,-8.16e-4 z"
     id="path25" />
  <path
     style="opacity:0.9;fill:#4f5c67;fill-opacity:0;fill-rule:evenodd;stroke-width:0.0160804"
     d="M 7.7919302,15.235695 C 7.7438236,15.222201 7.6725959,15.191464 7.6336466,15.16739 7.5931198,15.14234 6.4923391,14.0197 5.060078,12.542714 3.6835645,11.123216 2.4501536,9.8515925 2.3191649,9.7168833 2.0590056,9.4493348 1.9992529,9.3561375 1.969525,9.1715444 1.9254718,8.8979991 2.0893028,8.6004978 2.3517163,8.4775218 c 0.080429,-0.037692 0.1124477,-0.043297 0.2452686,-0.04294 0.1394813,3.753e-4 0.1622453,0.00501 0.2618104,0.053323 0.1040552,0.05049 0.2082075,0.1551852 2.2753768,2.2872332 l 2.1663304,2.234321 0.00804,-5.8896542 c 0.0074,-5.4176164 0.010166,-5.8957633 0.034559,-5.9658757 0.064781,-0.18619616 0.2154166,-0.35142849 0.3795652,-0.41634447 0.1310139,-0.0518122 0.3286376,-0.0511805 0.4622578,0.001478 0.122876,0.0484239 0.2724305,0.1942007 0.3388434,0.33028417 l 0.047086,0.096482 0.00411,5.9229194 c 0.00265,3.8163208 0.00965,5.9210238 0.019699,5.9175878 0.00858,-0.0029 0.9885702,-1.008666 2.1777651,-2.234965 2.05352,-2.1175936 2.167661,-2.2323369 2.27142,-2.2834175 0.100752,-0.0496 0.121182,-0.053783 0.262689,-0.053783 0.140456,0 0.162377,0.0044 0.259063,0.051998 0.12893,0.063472 0.256236,0.1928475 0.316681,0.3218288 0.03885,0.082895 0.04335,0.110881 0.04335,0.2693892 0,0.2636028 -0.02842,0.3153079 -0.363631,0.6615817 C 13.417668,9.8880631 12.182251,11.162463 10.816629,12.570967 8.4117714,15.05134 8.3300648,15.13367 8.2187611,15.18868 8.0788881,15.25781 7.9294542,15.27427 7.7919327,15.2357 Z"
     id="path30" />
  <path
     style="opacity:0.9;fill:#4f5c67;fill-opacity:0;fill-rule:evenodd;stroke-width:0.0160804"
     d="M 7.7919302,15.235695 C 7.7438236,15.222201 7.6725959,15.191464 7.6336466,15.16739 7.5931198,15.14234 6.4923391,14.0197 5.060078,12.542714 3.6835645,11.123216 2.4501536,9.8515925 2.3191649,9.7168833 2.0590056,9.4493348 1.9992529,9.3561375 1.969525,9.1715444 1.9254718,8.8979991 2.0893028,8.6004978 2.3517163,8.4775218 c 0.080429,-0.037692 0.1124477,-0.043297 0.2452686,-0.04294 0.1394813,3.753e-4 0.1622453,0.00501 0.2618104,0.053323 0.1040552,0.05049 0.2082075,0.1551852 2.2753768,2.2872332 l 2.1663304,2.234321 0.00804,-5.8896542 c 0.0074,-5.4176164 0.010166,-5.8957633 0.034559,-5.9658757 0.064781,-0.18619616 0.2154166,-0.35142849 0.3795652,-0.41634447 0.1310139,-0.0518122 0.3286376,-0.0511805 0.4622578,0.001478 0.122876,0.0484239 0.2724305,0.1942007 0.3388434,0.33028417 l 0.047086,0.096482 0.00411,5.9229194 c 0.00265,3.8163208 0.00965,5.9210238 0.019699,5.9175878 0.00858,-0.0029 0.9885702,-1.008666 2.1777651,-2.234965 2.05352,-2.1175936 2.167661,-2.2323369 2.27142,-2.2834175 0.100752,-0.0496 0.121182,-0.053783 0.262689,-0.053783 0.140456,0 0.162377,0.0044 0.259063,0.051998 0.12893,0.063472 0.256236,0.1928475 0.316681,0.3218288 0.03885,0.082895 0.04335,0.110881 0.04335,0.2693892 0,0.2636028 -0.02842,0.3153079 -0.363631,0.6615817 C 13.417668,9.8880631 12.182251,11.162463 10.816629,12.570967 8.4117714,15.05134 8.3300648,15.13367 8.2187611,15.18868 8.0788881,15.25781 7.9294542,15.27427 7.7919327,15.2357 Z"
     id="path31" />
  <path
     style="opacity:0.9;fill:#4f5c67;fill-opacity:0;fill-rule:evenodd;stroke-width:0.0160804"
     d="M 7.7919302,15.235695 C 7.7438236,15.222201 7.6725959,15.191464 7.6336466,15.16739 7.5931198,15.14234 6.4923391,14.0197 5.060078,12.542714 3.6835645,11.123216 2.4501536,9.8515925 2.3191649,9.7168833 2.0590056,9.4493348 1.9992529,9.3561375 1.969525,9.1715444 1.9254718,8.8979991 2.0893028,8.6004978 2.3517163,8.4775218 c 0.080429,-0.037692 0.1124477,-0.043297 0.2452686,-0.04294 0.1394813,3.753e-4 0.1622453,0.00501 0.2618104,0.053323 0.1040552,0.05049 0.2082075,0.1551852 2.2753768,2.2872332 l 2.1663304,2.234321 0.00804,-5.8896542 c 0.0074,-5.4176164 0.010166,-5.8957633 0.034559,-5.9658757 0.064781,-0.18619616 0.2154166,-0.35142849 0.3795652,-0.41634447 0.1310139,-0.0518122 0.3286376,-0.0511805 0.4622578,0.001478 0.122876,0.0484239 0.2724305,0.1942007 0.3388434,0.33028417 l 0.047086,0.096482 0.00411,5.9229194 c 0.00265,3.8163208 0.00965,5.9210238 0.019699,5.9175878 0.00858,-0.0029 0.9885702,-1.008666 2.1777651,-2.234965 2.05352,-2.1175936 2.167661,-2.2323369 2.27142,-2.2834175 0.100752,-0.0496 0.121182,-0.053783 0.262689,-0.053783 0.140456,0 0.162377,0.0044 0.259063,0.051998 0.12893,0.063472 0.256236,0.1928475 0.316681,0.3218288 0.03885,0.082895 0.04335,0.110881 0.04335,0.2693892 0,0.2636028 -0.02842,0.3153079 -0.363631,0.6615817 C 13.417668,9.8880631 12.182251,11.162463 10.816629,12.570967 8.4117714,15.05134 8.3300648,15.13367 8.2187611,15.18868 8.0788881,15.25781 7.9294542,15.27427 7.7919327,15.2357 Z"
     id="path32" />
  <path
     style="fill:#4f5c67;fill-opacity:0;stroke-width:0.0160804"
     d="M 7.8231156,10.95619 C 7.7404593,10.925266 7.5939356,10.782515 5.5833815,8.7741138 3.2016236,6.3949064 3.3450417,6.5511932 3.3462563,6.3362517 3.3471181,6.1837533 3.3940506,6.078551 3.5074614,5.9748999 3.6175541,5.8742813 3.7195375,5.8383743 3.8654676,5.8488502 c 0.06455,0.00463 0.1348505,0.021811 0.1787535,0.043677 0.052341,0.026069 0.5406247,0.5038883 1.7648241,1.727004 L 7.5015075,9.3104957 V 4.9107089 c 0,-2.8306673 0.00567,-4.42966695 0.015889,-4.48357063 C 7.5494168,0.25829783 7.6421926,0.13256205 7.7873487,0.06128159 7.8637253,0.02377613 7.8999302,0.01613704 8,0.01641305 8.2511942,0.0171059 8.4343339,0.17261554 8.4823924,0.4260275 c 0.0105,0.0553677 0.0161,1.6151742 0.0161,4.4846814 V 9.3104957 L 10.190955,7.6195314 c 1.224199,-1.2231157 1.712483,-1.7009354 1.764824,-1.727004 0.0439,-0.021866 0.114204,-0.039044 0.178753,-0.043677 0.14593,-0.010476 0.247914,0.025431 0.358007,0.1260497 0.11341,0.1036511 0.160343,0.2088534 0.161205,0.3613518 0.0012,0.2149428 0.144636,0.058654 -2.237126,2.4378394 -2.0641716,2.0619397 -2.1550601,2.1503397 -2.2443569,2.1829147 -0.1164103,0.04246 -0.2341975,0.04219 -0.3491455,-8.16e-4 z"
     id="path9" />
</svg>
