<?xml version="1.0" encoding="UTF-8"?>
<svg width="16px" height="16px" viewBox="0 0 16 16" version="1.1" xmlns="http://www.w3.org/2000/svg" xmlns:xlink="http://www.w3.org/1999/xlink">
    <!-- Generator: Sketch 52.2 (67145) - http://www.bohemiancoding.com/sketch -->
    <title>icon_button_save</title>
    <desc>Created with Sketch.</desc>
    <g id="Page-1" stroke="none" stroke-width="1" fill="none" fill-rule="evenodd">
        <g id="icon_button_save" fill="#FFFFFF" fill-rule="nonzero">
            <g id="noun_Save_896931">
                <g>
                    <g id="Group" transform="translate(0.000000, 0.127564)">
                        <g id="icon_button_save">
                            <path d="M1.23076923,0.072436 C0.556019282,0.072436 0,0.614554 0,1.272436 L0,14.472436 C0,15.130316 0.556019282,15.672436 1.23076923,15.672436 L14.7692308,15.672436 C15.4439807,15.672436 16,15.130316 16,14.472436 L16,3.672436 C15.9991307,3.56667419 15.9553398,3.4655519 15.8782051,3.391186 L12.5961538,0.191186 C12.5198811,0.115979679 12.416166,0.0732835994 12.3076923,0.072436 L1.23076923,0.072436 Z M1.23076923,0.872436 L3.07692308,0.872436 L3.07692308,6.072436 C3.07694573,6.29334075 3.26061051,6.47241391 3.48717949,6.472436 L11.6923077,6.472436 C11.9188767,6.47241391 12.1025414,6.29334075 12.1025641,6.072436 L12.1025641,0.872436 L12.1410256,0.872436 L15.1794872,3.834936 L15.1794872,14.472436 C15.1794872,14.700956 15.0036086,14.872436 14.7692308,14.872436 L1.23076923,14.872436 C0.996391385,14.872436 0.820512821,14.700956 0.820512821,14.472436 L0.820512821,1.272436 C0.820512821,1.043918 0.996391385,0.872436 1.23076923,0.872436 Z M3.8974359,0.872436 L11.2820513,0.872436 L11.2820513,5.672436 L3.8974359,5.672436 L3.8974359,0.872436 Z M8,8.272436 C6.64538913,8.272436 5.53846154,9.351696 5.53846154,10.672436 C5.53846154,11.993176 6.64538913,13.072436 8,13.072436 C9.35461087,13.072436 10.4615385,11.993176 10.4615385,10.672436 C10.4615385,9.351696 9.35461087,8.272436 8,8.272436 Z M8,9.072436 C8.91117272,9.072436 9.64102564,9.784036 9.64102564,10.672436 C9.64102564,11.560816 8.91117272,12.272436 8,12.272436 C7.08882728,12.272436 6.35897436,11.560816 6.35897436,10.672436 C6.35897436,9.784036 7.08882728,9.072436 8,9.072436 Z" id="Shape"></path>
                        </g>
                    </g>
                </g>
            </g>
        </g>
    </g>
</svg>