<?xml version="1.0" encoding="UTF-8"?>
<svg width="49px" height="47px" viewBox="0 0 49 47" version="1.1" xmlns="http://www.w3.org/2000/svg" xmlns:xlink="http://www.w3.org/1999/xlink">
    <!-- Generator: Sketch 52.2 (67145) - http://www.bohemiancoding.com/sketch -->
    <title>icon_radar</title>
    <desc>Created with Sketch.</desc>
    <g id="Page-1" stroke="none" stroke-width="1" fill="none" fill-rule="evenodd">
        <g id="icon_radar" transform="translate(1.000000, 1.000000)" fill="#5789AD" fill-rule="nonzero" stroke="#5789AD" stroke-width="0.72">
            <g id="Group-4">
                <g id="icon_radar">
                    <path d="M46.4300659,16.7191724 L24.1941978,0.392275862 C23.8122936,0.111661177 23.2949591,0.111661177 22.9130549,0.392275862 L0.677186813,16.7191724 C0.295494864,17.0000161 0.13631953,17.4973809 0.282989011,17.9508966 L8.7738022,44.3517241 C8.91997974,44.805524 9.33889776,45.1124347 9.81116484,45.1117241 L37.3012747,45.1117241 C37.7735418,45.1124347 38.1924598,44.805524 38.3386374,44.3517241 L46.8294505,17.9508966 C46.975027,17.4962439 46.81367,16.9986099 46.4300659,16.7191724 Z M45.5171868,17.4948966 L41.6945055,18.7423448 C41.5063266,18.4364872 41.1284286,18.3106676 40.7971868,18.4435862 L24.3653626,9.41268966 C24.3342026,9.067169 24.0839781,8.78243938 23.7481319,8.71034483 L23.7481319,1.50868966 L45.5171868,17.4948966 Z M40.2681319,19.1931034 L23.7481319,24.6284138 L23.7481319,10.2513103 C23.8528493,10.2283123 23.9517363,10.1837019 24.0385934,10.1202759 L40.2992527,19.0306207 C40.2834952,19.081798 40.2730651,19.1344971 40.2681319,19.1878621 L40.2681319,19.1931034 Z M34.5315165,40.8295172 L14.9564835,37.8628966 C14.9378581,37.7081922 14.8747403,37.5624052 14.7749451,37.4435862 L23.5406593,25.2311724 L34.6404396,40.6827586 C34.5987651,40.7273656 34.5622245,40.7765989 34.5315165,40.8295172 Z M23.2035165,10.1831724 C23.2531895,10.2079716 23.3053576,10.2273011 23.3591209,10.2408276 L23.3591209,24.6284138 L10.6462418,20.4615172 C10.6477692,20.4335845 10.6477692,20.4055879 10.6462418,20.3776552 C10.6417116,20.3006208 10.6259825,20.2246801 10.5995604,20.1522759 L23.2035165,10.1831724 Z M10.5113846,20.8284138 L23.245011,25.0215172 L14.4637363,37.2182069 C14.3856908,37.1879533 14.3034295,37.1702668 14.219956,37.1657931 L10.2883516,21.0485517 C10.3765437,20.9910177 10.4523905,20.9161554 10.5113846,20.8284138 Z M13.8672527,38.7172414 C13.9657816,38.7590309 14.0716063,38.7804185 14.1784615,38.7801379 C14.350315,38.7763856 14.5161742,38.7156061 14.6504615,38.6071724 L34.5678242,41.6262069 C34.7687898,41.9730007 35.1973939,42.1090571 35.5585055,41.9406897 L37.0263736,43.9586207 L10.0964396,43.9586207 L13.8672527,38.7172414 Z M35.2317363,40.3892414 C35.1395002,40.3907388 35.0482288,40.4084757 34.962022,40.4416552 L23.8674286,25.0005517 L40.3718681,19.5914483 C40.4316573,19.698345 40.515089,19.7898297 40.6156484,19.8587586 L35.2317363,40.3892414 Z M23.3591209,1.50868966 L23.3591209,8.71034483 C23.0163063,8.80415257 22.7769136,9.11671036 22.773011,9.47558621 C22.773011,9.47558621 22.773011,9.50703448 22.773011,9.528 L10.0549451,19.6071724 C9.99299869,19.5850072 9.92850765,19.5709165 9.86303297,19.5652414 C9.57774813,19.5688609 9.31634292,19.7269538 9.17837363,19.9793103 L1.59006593,17.4948966 L23.3591209,1.50868966 Z M1.47076923,17.8670345 L9.06426374,20.3566897 C9.06426374,20.3566897 9.06426374,20.3566897 9.06426374,20.3566897 C9.06535219,20.6623981 9.23835037,20.9408874 9.51032967,21.0747586 L13.5145495,37.537931 C13.3081707,37.8223434 13.3276619,38.2140786 13.5612308,38.4761379 L9.78523077,43.7175172 L1.47076923,17.8670345 Z M37.322022,43.728 L35.8541538,41.6891034 C36.0702758,41.4397977 36.0957175,41.075582 35.9163956,40.798069 L41.3936703,19.9373793 C41.679961,19.8076808 41.8646019,19.5206295 41.8656703,19.2035862 C41.8676038,19.1721683 41.8676038,19.1406593 41.8656703,19.1092414 L45.6572308,17.8670345 L37.322022,43.728 Z" id="Shape"></path>
                </g>
            </g>
        </g>
    </g>
</svg>