<svg width="16" height="16" viewBox="0 0 16 16" fill="none" xmlns="http://www.w3.org/2000/svg">
<path d="M8.2014 0.042219C8.13979 0.0150722 8.07165 0 8 0C7.93543 0 7.87373 0.0122377 7.81707 0.03452C7.75492 0.0589073 7.69666 0.0962162 7.64643 0.146447L3.47976 4.31311C3.2845 4.50837 3.2845 4.82496 3.47976 5.02022C3.67502 5.21548 3.9916 5.21548 4.18687 5.02022L7.5 1.70709V10.5C7.5 10.7761 7.72386 11 8 11C8.27614 11 8.5 10.7761 8.5 10.5V1.70713L11.8131 5.02022C12.0084 5.21548 12.3249 5.21548 12.5202 5.02022C12.7155 4.82496 12.7155 4.50837 12.5202 4.31311L8.35618 0.149091C8.34734 0.140117 8.33816 0.131477 8.32866 0.123189C8.28971 0.0891407 8.24673 0.0621514 8.2014 0.042219ZM0.5 10C0.776142 10 1 10.2239 1 10.5V13.8333C1 14.1428 1.12292 14.4395 1.34171 14.6583C1.5605 14.8771 1.85725 15 2.16667 15H13.8333C14.1428 15 14.4395 14.8771 14.6583 14.6583C14.8771 14.4395 15 14.1428 15 13.8333V10.5C15 10.2239 15.2239 10 15.5 10C15.7761 10 16 10.2239 16 10.5V13.8333C16 14.408 15.7717 14.9591 15.3654 15.3654C14.9591 15.7717 14.408 16 13.8333 16H2.16667C1.59203 16 1.04093 15.7717 0.634602 15.3654C0.228273 14.9591 0 14.408 0 13.8333V10.5C0 10.2239 0.223858 10 0.5 10Z" fill="#505D66"/>
</svg>
