<?xml version="1.0" encoding="UTF-8"?>
<svg width="41px" height="41px" viewBox="0 0 41 41" version="1.1" xmlns="http://www.w3.org/2000/svg" xmlns:xlink="http://www.w3.org/1999/xlink">
    <!-- Generator: Sketch 52.2 (67145) - http://www.bohemiancoding.com/sketch -->
    <title>icon_piechart</title>
    <desc>Created with Sketch.</desc>
    <g id="Page-1" stroke="none" stroke-width="1" fill="none" fill-rule="evenodd">
        <g id="icon_piechart">
            <g id="Group-7" transform="translate(0.000000, -0.000000)">
                <g id="icon_piechart">
                    <path d="M37.5453333,13.3728889 C37.464,13.1644444 37.3822222,12.9564444 37.2942222,12.7524444 C37.1875556,12.504 37.0737778,12.2608889 36.9577778,12.0191111 C36.8631111,11.8222222 36.7693333,11.6248889 36.6688889,11.4324444 C36.544,11.1937778 36.4111111,10.9613333 36.2773333,10.7297778 C36.1711111,10.5457778 36.0666667,10.3608889 35.9551111,10.1817778 C35.8111111,9.95111111 35.6582222,9.72844444 35.5057778,9.50577778 C35.3906667,9.33777778 35.2782222,9.16711111 35.1577778,9.00355556 C34.9928889,8.77955556 34.8186667,8.56488889 34.6444444,8.34977778 C34.5226667,8.19911111 34.4048889,8.04488889 34.2791111,7.89822222 C34.0888889,7.67733333 33.888,7.46755556 33.688,7.25688889 C33.5666667,7.12888889 33.4497778,6.99555556 33.3248889,6.87155556 C33.0928889,6.64044444 32.8493333,6.42266667 32.6053333,6.20533333 C32.5022222,6.11333333 32.404,6.01466667 32.2986667,5.92533333 C31.5893333,5.32088889 30.8346667,4.77288889 30.0408889,4.28488889 C29.9213333,4.21155556 29.7955556,4.14755556 29.6742222,4.07688889 C29.3937778,3.91333333 29.1128889,3.75022222 28.8231111,3.60133333 C28.6662222,3.52088889 28.5031111,3.45066667 28.3431111,3.37466667 C28.0813333,3.24977778 27.8195556,3.12355556 27.5511111,3.01111111 C27.3728889,2.93644444 27.1897778,2.87244444 27.0088889,2.80311111 C26.7506667,2.70444444 26.4924444,2.60488889 26.2288889,2.51733333 C26.036,2.45333333 25.8386667,2.39911111 25.6426667,2.34133333 C25.3835556,2.26488889 25.1244444,2.18844444 24.8608889,2.12266667 C24.6564444,2.072 24.4484444,2.02977778 24.2413333,1.98577778 C23.9791111,1.92977778 23.7164444,1.87511111 23.4502222,1.83022222 C23.2368889,1.79422222 23.0208889,1.76577778 22.8053333,1.73688889 C22.5386667,1.70133333 22.2711111,1.668 22.0008889,1.64311111 C21.7808889,1.62311111 21.5591111,1.60933333 21.3373333,1.59644444 C21.1844444,1.58755556 21.0302222,1.584 20.876,1.57866667 L20.876,19.2711111 L37.7031111,13.804 C37.6515556,13.6595556 37.6008889,13.5151111 37.5453333,13.3728889 Z" id="Path"></path>
                    <path d="M1.70711111,22.5755556 C1.71333333,22.6231111 1.72088889,22.6702222 1.72755556,22.7177778 C1.76044444,22.9586667 1.79733333,23.1995556 1.84044444,23.4404444 C1.85777778,23.5382222 1.87822222,23.636 1.89733333,23.7337778 C1.93466667,23.9271111 1.97333333,24.12 2.01733333,24.3128889 C2.04755556,24.4457778 2.08177778,24.5782222 2.11511111,24.7106667 C2.15511111,24.8711111 2.19511111,25.032 2.24,25.1924444 C2.25155556,25.2328889 2.26444444,25.2733333 2.27644444,25.3142222 L18.8728889,19.9217778 L5.80933333,8.35911111 C2.60933333,12.2617778 1.03955556,17.3937778 1.70711111,22.5755556 Z" id="Path"></path>
                    <path d="M27.1475556,37.4991111 C27.3417778,37.4213333 27.5364444,37.3444444 27.7262222,37.2608889 C27.844,37.2093333 27.9577778,37.152 28.0737778,37.0977778 C28.2386667,37.0208889 28.4048889,36.9462222 28.5671111,36.8648889 C28.6888889,36.804 28.8071111,36.7373333 28.9271111,36.6742222 C29.0786667,36.5937778 29.232,36.5155556 29.3804444,36.4315556 C29.5035556,36.3617778 29.6231111,36.2875556 29.744,36.2151111 C29.8848889,36.1311111 30.0266667,36.0493333 30.1648889,35.9622222 C30.2871111,35.8848889 30.4053333,35.8031111 30.5253333,35.7231111 C30.6577778,35.6351111 30.7915556,35.5484444 30.9213333,35.4568889 C31.0404444,35.3733333 31.1555556,35.2853333 31.2724444,35.1986667 C31.3982222,35.1057778 31.5248889,35.0142222 31.648,34.9186667 C31.764,34.8284444 31.8755556,34.7342222 31.9893333,34.6417778 C32.108,34.5444444 32.228,34.4484444 32.3444444,34.3484444 C32.4564444,34.2524444 32.5644444,34.1524444 32.6737778,34.0537778 C32.7862222,33.952 32.9,33.8515556 33.0097778,33.7475556 C33.1173333,33.6453333 33.2213333,33.54 33.3262222,33.4355556 C33.432,33.3302222 33.5391111,33.2257778 33.6422222,33.1177778 C33.7457778,33.0097778 33.8453333,32.8986667 33.9462222,32.7884444 C34.0457778,32.6795556 34.1462222,32.5711111 34.2426667,32.46 C34.3413333,32.3466667 34.4364444,32.2306667 34.532,32.1151111 C34.6253333,32.0026667 34.7191111,31.8906667 34.8093333,31.7764444 C34.9026667,31.6582222 34.9928889,31.5373333 35.0835556,31.4168889 C35.1706667,31.3008889 35.2582222,31.1853333 35.3426667,31.0671111 C35.4306667,30.9444444 35.5151111,30.8195556 35.5995556,30.6951111 C35.6808889,30.5755556 35.7626667,30.456 35.8408889,30.3346667 C35.9231111,30.208 36.0017778,30.0791111 36.0808889,29.9502222 C36.156,29.8275556 36.2315556,29.7044444 36.304,29.58 C36.38,29.4493333 36.4528889,29.3173333 36.5257778,29.1848889 C36.5951111,29.0586667 36.6644444,28.932 36.7311111,28.8044444 C36.8008889,28.6706667 36.8675556,28.5351111 36.9337778,28.3995556 C36.9973333,28.2702222 37.0604444,28.1408889 37.1208889,28.0097778 C37.184,27.8728889 37.2448889,27.7346667 37.3048889,27.596 C37.3622222,27.4635556 37.4191111,27.3311111 37.4733333,27.1973333 C37.5302222,27.0573333 37.5844444,26.9164444 37.6377778,26.7751111 C37.6888889,26.6404444 37.7391111,26.5048889 37.7871111,26.3688889 C37.8373333,26.2262222 37.8853333,26.0822222 37.932,25.9382222 C37.9764444,25.8008889 38.02,25.6635556 38.0617778,25.5253333 C38.1053333,25.3804444 38.1462222,25.2346667 38.1862222,25.0888889 C38.2244444,24.9488889 38.2617778,24.8084444 38.2968889,24.6675556 C38.3333333,24.5208889 38.3675556,24.3737778 38.4004444,24.2262222 C38.432,24.084 38.4626667,23.9413333 38.4911111,23.7982222 C38.5204444,23.6502222 38.548,23.5013333 38.5737778,23.3524444 C38.5986667,23.208 38.6222222,23.0631111 38.6435556,22.9177778 C38.6657778,22.7684444 38.6862222,22.6186667 38.7053333,22.4684444 C38.7235556,22.3222222 38.7395556,22.1755556 38.7542222,22.0288889 C38.7693333,21.8782222 38.7831111,21.7271111 38.7942222,21.5755556 C38.8053333,21.428 38.8142222,21.28 38.8217778,21.132 C38.8297778,20.9804444 38.836,20.8284444 38.84,20.6764444 C38.844,20.5271111 38.8453333,20.3768889 38.8457778,20.2271111 C38.8462222,20.076 38.8457778,19.9244444 38.8422222,19.7733333 C38.8386667,19.6222222 38.8324444,19.4706667 38.8253333,19.3191111 C38.8182222,19.1675556 38.8102222,19.016 38.7995556,18.864 C38.7884444,18.712 38.7746667,18.5595556 38.76,18.4071111 C38.7453333,18.2555556 38.7302222,18.1044444 38.712,17.9524444 C38.6933333,17.7995556 38.6711111,17.6462222 38.6488889,17.4933333 C38.6266667,17.3422222 38.604,17.1911111 38.5782222,17.0395556 C38.5515556,16.8857778 38.5213333,16.7324444 38.4906667,16.5786667 C38.4608889,16.428 38.4311111,16.2777778 38.3973333,16.1275556 C38.3626667,15.9733333 38.324,15.8195556 38.2853333,15.6657778 C38.2475556,15.516 38.2102222,15.3662222 38.1688889,15.2164444 C38.1564444,15.1715556 38.1417778,15.1266667 38.1288889,15.0817778 L20.4111111,20.8404444 L2.69333333,26.5968889 C2.71111111,26.6457778 2.72711111,26.6955556 2.74533333,26.744 C2.79422222,26.8746667 2.84666667,27.0035556 2.89822222,27.1324444 C2.96266667,27.2937778 3.02755556,27.4546667 3.096,27.6128889 C3.152,27.7426667 3.21111111,27.8702222 3.26977778,27.9977778 C3.34044444,28.1515556 3.41155556,28.3044444 3.48577778,28.4555556 C3.54888889,28.5835556 3.61466667,28.7093333 3.68044444,28.8355556 C3.75688889,28.9817778 3.83377778,29.128 3.91377778,29.2715556 C3.98355556,29.3968889 4.05555556,29.52 4.128,29.6431111 C4.21022222,29.7831111 4.29288889,29.9222222 4.37866667,30.0595556 C4.45511111,30.1822222 4.53377778,30.3026667 4.61288889,30.4235556 C4.69955556,30.556 4.78755556,30.6875556 4.87733333,30.8173333 C4.96088889,30.9373333 5.04622222,31.056 5.132,31.1737778 C5.22355556,31.2995556 5.316,31.4244444 5.41066667,31.5471111 C5.5,31.6635556 5.59111111,31.7782222 5.68311111,31.892 C5.77911111,32.0111111 5.87644444,32.1293333 5.97511111,32.2457778 C6.07111111,32.3586667 6.168,32.4697778 6.26622222,32.58 C6.36666667,32.6928889 6.468,32.804 6.57111111,32.9142222 C6.67244444,33.0226667 6.77511111,33.1293333 6.87866667,33.2351111 C6.98355556,33.3417778 7.08933333,33.4475556 7.19688889,33.5515556 C7.304,33.6551111 7.412,33.7577778 7.52133333,33.8586667 C7.62933333,33.9586667 7.73866667,34.0573333 7.84933333,34.1546667 C7.96222222,34.2542222 8.07555556,34.3524444 8.19066667,34.4488889 C8.30266667,34.5426667 8.41555556,34.6351111 8.52933333,34.7262222 C8.64711111,34.8204444 8.76533333,34.9137778 8.88533333,35.0048889 C9.00044444,35.0924444 9.11688889,35.1782222 9.23377778,35.2631111 C9.35644444,35.3524444 9.48,35.4404444 9.60444444,35.5266667 C9.72222222,35.608 9.84177778,35.6871111 9.96133333,35.7657778 C10.0888889,35.8497778 10.2168889,35.9328889 10.3466667,36.0133333 C10.4671111,36.0884444 10.5884444,36.1604444 10.7106667,36.2328889 C10.8435556,36.3115556 10.9764444,36.3893333 11.1111111,36.4644444 C11.2333333,36.5328889 11.3568889,36.5982222 11.4804444,36.664 C11.6177778,36.7368889 11.7551111,36.8088889 11.8942222,36.8782222 C12.0186667,36.94 12.144,36.9991111 12.2697778,37.0586667 C12.4115556,37.1253333 12.5533333,37.192 12.6968889,37.2551111 C12.8222222,37.3102222 12.9493333,37.3626667 13.076,37.4155556 C13.2222222,37.476 13.3684444,37.5368889 13.5164444,37.5937778 C13.6431111,37.6426667 13.7711111,37.688 13.8986667,37.7342222 C14.0493333,37.7884444 14.1995556,37.8431111 14.3515556,37.8933333 C14.4791111,37.9355556 14.6075556,37.9746667 14.736,38.0142222 C14.8902222,38.0617778 15.0444444,38.1097778 15.2004444,38.1533333 C15.3288889,38.1893333 15.4582222,38.2217778 15.5875556,38.2546667 C15.7453333,38.2951111 15.9031111,38.3364444 16.0617778,38.3728889 C16.1902222,38.4022222 16.32,38.428 16.4493333,38.4546667 C16.6111111,38.4884444 16.7728889,38.5226667 16.9355556,38.552 C17.0631111,38.5746667 17.1915556,38.5937778 17.32,38.6137778 C17.4862222,38.64 17.652,38.6671111 17.8191111,38.6888889 C17.9462222,38.7053333 18.0742222,38.7177778 18.2017778,38.7315556 C18.3706667,38.7502222 18.5395556,38.7697778 18.7093333,38.7835556 C18.8368889,38.7942222 18.9648889,38.7995556 19.0924444,38.8075556 C19.264,38.8177778 19.4355556,38.8297778 19.608,38.8355556 C19.7346667,38.8395556 19.8622222,38.8386667 19.9893333,38.8404444 C20.1631111,38.8426667 20.3368889,38.8462222 20.5111111,38.8435556 C20.6386667,38.8413333 20.7662222,38.8342222 20.8942222,38.8293333 C21.0688889,38.8231111 21.2435556,38.8182222 21.4191111,38.8066667 C21.5462222,38.7982222 21.6737778,38.7844444 21.8008889,38.7733333 C21.9768889,38.7582222 22.1528889,38.7448889 22.3293333,38.7248889 C22.4568889,38.7102222 22.5844444,38.6897778 22.7115556,38.672 C22.888,38.648 23.0644444,38.6262222 23.2408889,38.5968889 C23.3733333,38.5751111 23.5062222,38.5462222 23.6386667,38.5213333 C23.8093333,38.4893333 23.9804444,38.46 24.1506667,38.4231111 C24.3071111,38.3888889 24.4635556,38.3475556 24.62,38.3093333 C24.7662222,38.2737778 24.9128889,38.2413333 25.0591111,38.2022222 C25.3617778,38.1204444 25.6635556,38.0311111 25.9648889,37.9328889 C26.2671111,37.8346667 26.5653333,37.7288889 26.8591111,37.6168889 C26.9568889,37.5795556 27.0511111,37.5377778 27.1475556,37.4991111 Z" id="Path"></path>
                    <path d="M13.1457778,2.94488889 C12.9066667,3.04266667 12.6697778,3.144 12.4355556,3.25111111 C12.3342222,3.29777778 12.2333333,3.34488889 12.1328889,3.39288889 C11.8946667,3.50711111 11.6591111,3.62666667 11.4262222,3.75111111 C11.344,3.79511111 11.2604444,3.83688889 11.1791111,3.88177778 C10.8706667,4.052 10.5666667,4.22933333 10.2684444,4.41644444 C10.2328889,4.43911111 10.1986667,4.46355556 10.1635556,4.48622222 C9.912,4.64666667 9.66444444,4.81422222 9.42088889,4.98666667 C9.30177778,5.07111111 9.18533333,5.15822222 9.06888889,5.24533333 C8.91777778,5.35733333 8.76888889,5.472 8.62133333,5.58888889 C8.48222222,5.69955556 8.34311111,5.81066667 8.20755556,5.92488889 C8.10222222,6.01333333 8,6.10488889 7.89688889,6.19555556 C7.48,6.56266667 7.08088889,6.94666667 6.70088889,7.34711111 L19.5284444,18.7022222 L19.5284444,1.57644444 C19.3724444,1.58133333 19.2146667,1.58444444 19.0617778,1.59288889 C18.872,1.60355556 18.6817778,1.61333333 18.496,1.62933333 C18.2151111,1.65333333 17.9386667,1.688 17.6635556,1.72533333 C17.4888889,1.74888889 17.3128889,1.76933333 17.1391111,1.79822222 C16.8431111,1.84755556 16.5466667,1.91155556 16.2497778,1.97777778 C16.1008889,2.01111111 15.9528889,2.03733333 15.8031111,2.07466667 C15.3568889,2.18622222 14.9062222,2.31377778 14.4408889,2.46533333 C14.1008889,2.576 13.7657778,2.69822222 13.4342222,2.82711111 C13.3368889,2.86488889 13.2422222,2.90577778 13.1457778,2.94488889 Z" id="Path"></path>
                    <path d="M39.2195556,14.0204444 C36.4924444,5.62755556 29.028,0.204 20.2026667,0.204 C18.0115556,0.204 16.1057778,0.505777778 14.024,1.18222222 C13.6995556,1.28755556 13.3795556,1.40088889 13.0631111,1.52177778 C13.016,1.53955556 12.9711111,1.56 12.924,1.57822222 C12.9088889,1.584 12.8937778,1.59066667 12.8786667,1.59688889 C12.7857778,1.63333333 12.6937778,1.672 12.6013333,1.71022222 C12.4395556,1.77644444 12.2764444,1.84044444 12.1168889,1.91066667 C12.1075556,1.91466667 12.0982222,1.91955556 12.0884444,1.924 C11.9431111,1.988 11.8013333,2.05733333 11.6577778,2.12444444 C11.6022222,2.15066667 11.5457778,2.17555556 11.4906667,2.20266667 C7.57466667,4.08888889 4.39422222,7.18177778 2.38711111,11.1217778 C0.287111111,15.2426667 -0.311111111,19.8586667 0.637777778,24.3208889 C0.644444444,24.3511111 0.648888889,24.3817778 0.655555556,24.4124444 C0.710222222,24.664 0.773777778,24.9146667 0.838222222,25.1648889 C0.858666667,25.2453333 0.876,25.3257778 0.897333333,25.4062222 C0.959555556,25.6355556 1.03022222,25.8631111 1.10088889,26.0911111 C1.13022222,26.1862222 1.15511111,26.2817778 1.18577778,26.3773333 C3.07155556,32.1804444 7.37466667,36.536 12.6195556,38.6911111 C15.0035556,39.6706667 17.5822222,40.196 20.2168889,40.1955556 C22.2595556,40.1955556 24.3368889,39.8795556 26.3817778,39.2151111 C36.8675556,35.808 42.6266667,24.5062222 39.2195556,14.0204444 Z M20.8768889,1.57866667 C21.0306667,1.584 21.1853333,1.58755556 21.3382222,1.59644444 C21.5604444,1.60933333 21.7822222,1.62311111 22.0017778,1.64311111 C22.272,1.668 22.5395556,1.70088889 22.8062222,1.73688889 C23.0217778,1.76577778 23.2377778,1.79422222 23.4511111,1.83022222 C23.7173333,1.87511111 23.98,1.92977778 24.2422222,1.98577778 C24.4493333,2.02977778 24.6573333,2.072 24.8617778,2.12266667 C25.1253333,2.18844444 25.3844444,2.26444444 25.6435556,2.34133333 C25.8391111,2.39911111 26.0364444,2.45333333 26.2297778,2.51733333 C26.4937778,2.60488889 26.7515556,2.70444444 27.0097778,2.80311111 C27.1906667,2.87244444 27.3737778,2.93644444 27.552,3.01111111 C27.8204444,3.124 28.0822222,3.24977778 28.344,3.37466667 C28.5035556,3.45066667 28.6666667,3.52088889 28.824,3.60133333 C29.1137778,3.74977778 29.3946667,3.91333333 29.6751111,4.07688889 C29.7964444,4.14755556 29.9222222,4.21155556 30.0417778,4.28488889 C30.836,4.77288889 31.5902222,5.32088889 32.2995556,5.92533333 C32.4048889,6.01511111 32.5026667,6.11333333 32.6062222,6.20533333 C32.8502222,6.42266667 33.0933333,6.64088889 33.3257778,6.87155556 C33.4506667,6.996 33.5675556,7.12888889 33.6888889,7.25688889 C33.8888889,7.46755556 34.0893333,7.67733333 34.28,7.89822222 C34.4057778,8.04444444 34.524,8.19911111 34.6453333,8.34977778 C34.8191111,8.56488889 34.9937778,8.77955556 35.1586667,9.00355556 C35.2791111,9.16711111 35.3915556,9.33777778 35.5066667,9.50577778 C35.6595556,9.72844444 35.8124444,9.95155556 35.956,10.1817778 C36.0675556,10.3608889 36.1724444,10.5462222 36.2782222,10.7297778 C36.412,10.9613333 36.5448889,11.1937778 36.6697778,11.4324444 C36.7702222,11.6248889 36.8644444,11.8217778 36.9586667,12.0191111 C37.0746667,12.2608889 37.1884444,12.504 37.2951111,12.7524444 C37.3826667,12.9564444 37.4648889,13.1644444 37.5462222,13.3728889 C37.6013333,13.5151111 37.6524444,13.6595556 37.7048889,13.8035556 L20.8768889,19.2711111 L20.8768889,1.57866667 Z M2.276,25.3146667 C2.26444444,25.2742222 2.25111111,25.2337778 2.23955556,25.1928889 C2.19511111,25.0324444 2.15466667,24.8715556 2.11466667,24.7111111 C2.08133333,24.5786667 2.04711111,24.4462222 2.01688889,24.3133333 C1.97288889,24.1204444 1.93466667,23.9271111 1.89688889,23.7342222 C1.87777778,23.6364444 1.85733333,23.5386667 1.84,23.4408889 C1.79733333,23.2 1.76044444,22.9591111 1.72711111,22.7182222 C1.72044444,22.6706667 1.71288889,22.6235556 1.70666667,22.576 C1.03911111,17.3942222 2.60888889,12.2622222 5.80888889,8.35955556 L18.872,19.9226667 L2.276,25.3146667 Z M15.8031111,2.07466667 C15.9528889,2.03733333 16.1008889,2.01111111 16.2497778,1.97777778 C16.5466667,1.91155556 16.8431111,1.84755556 17.1391111,1.79777778 C17.3128889,1.76888889 17.4884444,1.74844444 17.6635556,1.72488889 C17.9386667,1.68755556 18.2151111,1.65333333 18.496,1.62888889 C18.6817778,1.61288889 18.872,1.60266667 19.0617778,1.59244444 C19.2146667,1.584 19.3724444,1.58088889 19.5284444,1.576 L19.5284444,18.7022222 L6.70133333,7.34755556 C7.08133333,6.94711111 7.48088889,6.56355556 7.89733333,6.196 C8.00044444,6.10533333 8.10266667,6.01377778 8.208,5.92533333 C8.34355556,5.81111111 8.48266667,5.7 8.62177778,5.58933333 C8.76933333,5.47244444 8.91822222,5.35777778 9.06933333,5.24577778 C9.18622222,5.15866667 9.30222222,5.07155556 9.42133333,4.98711111 C9.66488889,4.81466667 9.912,4.64755556 10.164,4.48666667 C10.1995556,4.464 10.2333333,4.43955556 10.2688889,4.41688889 C10.5666667,4.22977778 10.8711111,4.05244444 11.1795556,3.88222222 C11.2608889,3.83733333 11.3444444,3.79511111 11.4266667,3.75155556 C11.6595556,3.62755556 11.8951111,3.50755556 12.1333333,3.39333333 C12.2337778,3.34533333 12.3346667,3.29777778 12.436,3.25155556 C12.6702222,3.14444444 12.9075556,3.04311111 13.1462222,2.94533333 C13.2422222,2.90622222 13.3373333,2.86533333 13.4342222,2.82755556 C13.7662222,2.69822222 14.1013333,2.576 14.4408889,2.46577778 C14.9066667,2.31377778 15.3573333,2.18622222 15.8031111,2.07466667 Z M25.0591111,38.2017778 C24.9128889,38.2413333 24.7662222,38.2733333 24.62,38.3088889 C24.4635556,38.3471111 24.3075556,38.3888889 24.1506667,38.4226667 C23.98,38.4595556 23.8093333,38.4888889 23.6386667,38.5208889 C23.5062222,38.5457778 23.3737778,38.5742222 23.2408889,38.5964444 C23.0644444,38.6257778 22.888,38.6475556 22.7115556,38.6715556 C22.584,38.6888889 22.4564444,38.7097778 22.3293333,38.7244444 C22.1528889,38.7448889 21.9768889,38.7577778 21.8008889,38.7728889 C21.6737778,38.784 21.5462222,38.7977778 21.4191111,38.8062222 C21.244,38.8177778 21.0693333,38.8222222 20.8942222,38.8288889 C20.7666667,38.8333333 20.6386667,38.8408889 20.5111111,38.8431111 C20.3368889,38.8457778 20.1631111,38.8422222 19.9893333,38.84 C19.8622222,38.8382222 19.7346667,38.8391111 19.608,38.8351111 C19.4355556,38.8293333 19.264,38.8177778 19.0924444,38.8071111 C18.9648889,38.7991111 18.8364444,38.7937778 18.7093333,38.7831111 C18.5395556,38.7693333 18.3706667,38.7497778 18.2017778,38.7311111 C18.0742222,38.7173333 17.9462222,38.7048889 17.8191111,38.6884444 C17.652,38.6666667 17.4857778,38.6395556 17.32,38.6133333 C17.192,38.5928889 17.0631111,38.5742222 16.9355556,38.5515556 C16.7724444,38.5222222 16.6111111,38.488 16.4493333,38.4542222 C16.32,38.4275556 16.1902222,38.4017778 16.0617778,38.3724444 C15.9026667,38.336 15.7453333,38.2946667 15.5875556,38.2542222 C15.4582222,38.2208889 15.3288889,38.1888889 15.2004444,38.1528889 C15.0448889,38.1093333 14.8906667,38.0613333 14.736,38.0137778 C14.6075556,37.9742222 14.4791111,37.9351111 14.3515556,37.8928889 C14.1995556,37.8426667 14.0493333,37.788 13.8986667,37.7337778 C13.7711111,37.6875556 13.6431111,37.6422222 13.5164444,37.5933333 C13.3688889,37.5364444 13.2226667,37.4755556 13.076,37.4151111 C12.9493333,37.3622222 12.8222222,37.3102222 12.6968889,37.2546667 C12.5533333,37.1915556 12.4115556,37.1248889 12.2697778,37.0582222 C12.144,36.9991111 12.0186667,36.94 11.8942222,36.8777778 C11.7551111,36.8084444 11.6177778,36.736 11.4804444,36.6635556 C11.3568889,36.5982222 11.2333333,36.5324444 11.1111111,36.464 C10.9764444,36.3888889 10.8435556,36.3111111 10.7106667,36.2324444 C10.5888889,36.1604444 10.4671111,36.088 10.3466667,36.0128889 C10.2173333,35.9324444 10.0888889,35.8493333 9.96133333,35.7653333 C9.84177778,35.6866667 9.72222222,35.6075556 9.60444444,35.5262222 C9.47955556,35.4404444 9.35644444,35.352 9.23377778,35.2626667 C9.11688889,35.1777778 9.00044444,35.092 8.88533333,35.0044444 C8.76533333,34.9133333 8.64711111,34.82 8.52933333,34.7257778 C8.41555556,34.6346667 8.30266667,34.5422222 8.19066667,34.4484444 C8.07555556,34.352 7.96222222,34.2537778 7.84933333,34.1542222 C7.73911111,34.0568889 7.62977778,33.9582222 7.52133333,33.8582222 C7.412,33.7573333 7.304,33.6546667 7.19688889,33.5511111 C7.08977778,33.4471111 6.98355556,33.3417778 6.87866667,33.2346667 C6.77511111,33.1288889 6.67244444,33.0222222 6.57111111,32.9137778 C6.468,32.8035556 6.36666667,32.692 6.26622222,32.5795556 C6.168,32.4693333 6.07066667,32.3577778 5.97511111,32.2453333 C5.87644444,32.1288889 5.77911111,32.0106667 5.68311111,31.8915556 C5.59111111,31.7777778 5.5,31.6631111 5.41066667,31.5466667 C5.316,31.4235556 5.22355556,31.2986667 5.132,31.1733333 C5.04622222,31.0555556 4.96088889,30.9373333 4.87733333,30.8168889 C4.78755556,30.6871111 4.69955556,30.5555556 4.61288889,30.4231111 C4.53377778,30.3026667 4.45511111,30.1817778 4.37866667,30.0591111 C4.29333333,29.9217778 4.21022222,29.7826667 4.128,29.6426667 C4.05555556,29.5195556 3.98355556,29.3964444 3.91377778,29.2711111 C3.83377778,29.1275556 3.75688889,28.9813333 3.68044444,28.8351111 C3.61466667,28.7088889 3.54888889,28.5831111 3.48577778,28.4551111 C3.41155556,28.304 3.34044444,28.1511111 3.26977778,27.9973333 C3.21111111,27.8697778 3.152,27.7422222 3.096,27.6124444 C3.02755556,27.4542222 2.96266667,27.2928889 2.89822222,27.132 C2.84666667,27.0031111 2.79422222,26.8742222 2.74533333,26.7435556 C2.72711111,26.6951111 2.71111111,26.6448889 2.69333333,26.5964444 L20.4111111,20.84 L38.1288889,15.0831111 C38.1417778,15.128 38.1564444,15.1728889 38.1688889,15.2177778 C38.2102222,15.3671111 38.2475556,15.5173333 38.2853333,15.6671111 C38.324,15.8208889 38.3626667,15.9751111 38.3973333,16.1288889 C38.4311111,16.2791111 38.4608889,16.4297778 38.4906667,16.58 C38.5213333,16.7337778 38.5515556,16.8871111 38.5782222,17.0408889 C38.6044444,17.192 38.6266667,17.3435556 38.6488889,17.4946667 C38.6715556,17.6475556 38.6937778,17.8008889 38.712,17.9537778 C38.7302222,18.1053333 38.7453333,18.2568889 38.76,18.4084444 C38.7746667,18.5608889 38.7888889,18.7133333 38.7995556,18.8653333 C38.8102222,19.0173333 38.8182222,19.1688889 38.8253333,19.3204444 C38.8324444,19.472 38.8386667,19.6235556 38.8422222,19.7746667 C38.8457778,19.9262222 38.8462222,20.0773333 38.8457778,20.2284444 C38.8453333,20.3782222 38.844,20.528 38.84,20.6777778 C38.836,20.8297778 38.8293333,20.9817778 38.8217778,21.1333333 C38.8142222,21.2813333 38.8053333,21.4293333 38.7942222,21.5768889 C38.7826667,21.7284444 38.7693333,21.8791111 38.7542222,22.0302222 C38.7395556,22.1768889 38.7235556,22.3235556 38.7053333,22.4697778 C38.6866667,22.62 38.6662222,22.7697778 38.6435556,22.9191111 C38.6217778,23.0644444 38.5986667,23.2093333 38.5737778,23.3537778 C38.548,23.5026667 38.5204444,23.6515556 38.4911111,23.7995556 C38.4626667,23.9426667 38.4324444,24.0853333 38.4004444,24.2275556 C38.3675556,24.3751111 38.3333333,24.5222222 38.2968889,24.6688889 C38.2617778,24.8097778 38.2248889,24.9502222 38.1862222,25.0902222 C38.1462222,25.2364444 38.1048889,25.3817778 38.0617778,25.5266667 C38.0204444,25.6648889 37.9768889,25.8022222 37.932,25.9395556 C37.8853333,26.0835556 37.8373333,26.2275556 37.7871111,26.3702222 C37.7391111,26.5062222 37.6888889,26.6413333 37.6377778,26.7764444 C37.5844444,26.9177778 37.5302222,27.0586667 37.4733333,27.1986667 C37.4191111,27.3324444 37.3622222,27.4648889 37.3048889,27.5973333 C37.2448889,27.736 37.1844444,27.8742222 37.1208889,28.0111111 C37.0604444,28.1417778 36.9973333,28.2715556 36.9337778,28.4008889 C36.8671111,28.5364444 36.8004444,28.6715556 36.7311111,28.8057778 C36.6644444,28.9337778 36.5951111,29.06 36.5257778,29.1862222 C36.4528889,29.3186667 36.38,29.4506667 36.304,29.5813333 C36.2315556,29.7057778 36.156,29.8284444 36.0808889,29.9515556 C36.0017778,30.0804444 35.9231111,30.2093333 35.8408889,30.336 C35.7622222,30.4573333 35.6808889,30.5768889 35.5995556,30.6964444 C35.5146667,30.8213333 35.4302222,30.9457778 35.3426667,31.0684444 C35.2582222,31.1862222 35.1706667,31.3022222 35.0835556,31.4182222 C34.9928889,31.5386667 34.9031111,31.6595556 34.8093333,31.7777778 C34.7186667,31.8924444 34.6248889,32.004 34.532,32.1164444 C34.4364444,32.232 34.3413333,32.348 34.2426667,32.4613333 C34.1457778,32.5724444 34.0457778,32.6808889 33.9462222,32.7897778 C33.8453333,32.9 33.7457778,33.0111111 33.6422222,33.1191111 C33.5391111,33.2271111 33.432,33.3315556 33.3262222,33.4368889 C33.2213333,33.5413333 33.1173333,33.6466667 33.0097778,33.7488889 C32.9,33.8528889 32.7866667,33.9537778 32.6737778,34.0551111 C32.5644444,34.1537778 32.4564444,34.2537778 32.3444444,34.3497778 C32.2284444,34.4497778 32.1084444,34.5457778 31.9893333,34.6431111 C31.876,34.736 31.764,34.8297778 31.648,34.92 C31.5253333,35.016 31.3982222,35.1071111 31.2724444,35.2 C31.1555556,35.2862222 31.0404444,35.3742222 30.9213333,35.4582222 C30.7915556,35.5493333 30.6577778,35.636 30.5253333,35.7244444 C30.4053333,35.8044444 30.2871111,35.8862222 30.1648889,35.9635556 C30.0271111,36.0506667 29.8848889,36.1328889 29.744,36.2164444 C29.6226667,36.2884444 29.5035556,36.3631111 29.3804444,36.4328889 C29.2315556,36.5168889 29.0786667,36.5955556 28.9271111,36.6755556 C28.8071111,36.7391111 28.6888889,36.8053333 28.5671111,36.8662222 C28.4053333,36.9471111 28.2391111,37.0222222 28.0737778,37.0991111 C27.9577778,37.1528889 27.8435556,37.2102222 27.7262222,37.2622222 C27.536,37.3457778 27.3413333,37.4226667 27.1475556,37.5004444 C27.0511111,37.5391111 26.9568889,37.5813333 26.8591111,37.6186667 C26.5653333,37.7306667 26.2671111,37.8364444 25.9648889,37.9346667 C25.6635556,38.0306667 25.3617778,38.12 25.0591111,38.2017778 Z" id="Shape" fill="#5789AD" fill-rule="nonzero"></path>
                </g>
            </g>
        </g>
    </g>
</svg>