<?xml version="1.0" encoding="UTF-8"?>
<svg width="40px" height="38px" viewBox="0 0 40 38" version="1.1" xmlns="http://www.w3.org/2000/svg" xmlns:xlink="http://www.w3.org/1999/xlink">
    <!-- Generator: Sketch 52.2 (67145) - http://www.bohemiancoding.com/sketch -->
    <title>icon_bar_chart</title>
    <desc>Created with Sketch.</desc>
    <g id="Page-1" stroke="none" stroke-width="1" fill="none" fill-rule="evenodd">
        <g id="icon_bar_chart" fill="#5789AD">
            <g id="Group-9" transform="translate(0.000000, -0.000000)">
                <g id="icon_bar_chart">
                    <path d="M4.53777778,31.3260465 L8.02222222,31.3260465 C9.61940444,31.3260465 10.9186667,30.021414 10.9186667,28.4186047 L10.9186667,19.0186047 C10.9186667,17.4157953 9.61940444,16.1116 8.02222222,16.1116 L4.53777778,16.1116 C2.94059556,16.1116 1.64133333,17.4157953 1.64133333,19.0186047 L1.64133333,28.4186047 C1.64133333,30.021414 2.94059556,31.3260465 4.53777778,31.3260465 Z M3.07866667,19.0186047 C3.07866667,18.2110791 3.73287111,17.5539535 4.53777778,17.5539535 L8.02222222,17.5539535 C8.82712889,17.5539535 9.48133333,18.2110791 9.48133333,19.0186047 L9.48133333,28.4186047 C9.48133333,29.2265674 8.82712889,29.8832558 8.02222222,29.8832558 L4.53777778,29.8832558 C3.73287111,29.8832558 3.07866667,29.2265674 3.07866667,28.4186047 L3.07866667,19.0186047 Z" id="Shape" fill-rule="nonzero"></path>
                    <path d="M18.2577778,31.3260465 L21.7422222,31.3260465 C23.3394044,31.3260465 24.6386667,30.021414 24.6386667,28.4186047 L24.6386667,11.1488372 C24.6386667,9.5455907 23.3394044,8.24139535 21.7422222,8.24139535 L18.2577778,8.24139535 C16.6605956,8.24139535 15.3613333,9.5455907 15.3613333,11.1488372 L15.3613333,28.4186047 C15.3613333,30.021414 16.6605956,31.3260465 18.2577778,31.3260465 Z M16.7986667,11.1488372 C16.7986667,10.3413116 17.4528711,9.68418605 18.2577778,9.68418605 L21.7422222,9.68418605 C22.5471289,9.68418605 23.2013333,10.3413116 23.2013333,11.1488372 L23.2013333,28.4186047 C23.2013333,29.2265674 22.5471289,29.8832558 21.7422222,29.8832558 L18.2577778,29.8832558 C17.4528711,29.8832558 16.7986667,29.2265674 16.7986667,28.4186047 L16.7986667,11.1488372 Z" id="Shape" fill-rule="nonzero"></path>
                    <path d="M31.9777778,31.3260465 L35.4622222,31.3260465 C37.0594044,31.3260465 38.3586667,30.021414 38.3586667,28.4186047 L38.3586667,3.27906977 C38.3586667,1.67582326 37.0594044,0.371627907 35.4622222,0.371627907 L31.9777778,0.371627907 C30.3805956,0.371627907 29.0813333,1.67582326 29.0813333,3.27906977 L29.0813333,28.4186047 C29.0813333,30.021414 30.3805956,31.3260465 31.9777778,31.3260465 Z M30.5186667,3.27906977 C30.5186667,2.47154419 31.1728711,1.8144186 31.9777778,1.8144186 L35.4622222,1.8144186 C36.2671289,1.8144186 36.9213333,2.47154419 36.9213333,3.27906977 L36.9213333,28.4186047 C36.9213333,29.2265674 36.2671289,29.8832558 35.4622222,29.8832558 L31.9777778,29.8832558 C31.1728711,29.8832558 30.5186667,29.2265674 30.5186667,28.4186047 L30.5186667,3.27906977 Z" id="Shape" fill-rule="nonzero"></path>
                    <path d="M38.8813333,35.7855814 L1.11866667,35.7855814 C0.72144,35.7855814 0.4,36.1082419 0.4,36.5069767 C0.4,36.9057116 0.72144,37.2283721 1.11866667,37.2283721 L38.8813333,37.2283721 C39.27856,37.2283721 39.6,36.9057116 39.6,36.5069767 C39.6,36.1082419 39.27856,35.7855814 38.8813333,35.7855814 Z" id="Path"></path>
                </g>
            </g>
        </g>
    </g>
</svg>