<?xml version="1.0" encoding="UTF-8"?>
<svg width="50px" height="47px" viewBox="0 0 50 47" version="1.1" xmlns="http://www.w3.org/2000/svg" xmlns:xlink="http://www.w3.org/1999/xlink">
    <!-- Generator: Sketch 52.2 (67145) - http://www.bohemiancoding.com/sketch -->
    <title>icon_live_html</title>
    <desc>Created with Sketch.</desc>
    <g id="Page-1" stroke="none" stroke-width="1" fill="none" fill-rule="evenodd">
        <g id="icon_live_html" transform="translate(-1.000000, 0.000000)" fill="#5789AD">
            <g id="Group-3">
                <g id="icon_live_html">
                    <path d="M38.2123077,11.01 L36.4676923,12.9766667 L48.0984615,23.4 L36.4676923,33.8233333 L38.2123077,35.79 L50.36,24.8422222 C50.7772547,24.4688839 51.0162897,23.9316567 51.0162897,23.3672222 C51.0162897,22.8027877 50.7772547,22.2655605 50.36,21.8922222 L38.2123077,11.01 Z" id="Path"></path>
                    <path d="M13.7876923,35.79 L15.5323077,33.8233333 L3.90153846,23.4 L15.5323077,12.9766667 L13.7876923,11.01 L1.64,21.9577778 C1.22274531,22.3311161 0.983710251,22.8683433 0.983710251,23.4327778 C0.983710251,23.9972123 1.22274531,24.5344395 1.64,24.9077778 L13.7876923,35.79 Z" id="Path"></path>
                    <path d="M30.7169231,0.127777778 C30.3734929,0.0508130206 30.0139783,0.119185039 29.7213388,0.317116722 C29.4286992,0.515048406 29.2282169,0.825439724 29.1661538,1.17666667 L20.2492308,45.0988889 C20.1733698,45.4473161 20.2407613,45.8120617 20.4358543,46.1089592 C20.6309473,46.4058567 20.9368871,46.6092561 21.2830769,46.6722222 L21.5415385,46.6722222 C22.1654139,46.6849868 22.7091725,46.2436504 22.8338462,45.6233333 L31.7507692,1.70111111 C31.8266302,1.35268391 31.7592387,0.987938303 31.5641457,0.691040778 C31.3690527,0.394143253 31.0631129,0.19074385 30.7169231,0.127777778 Z" id="Path"></path>
                </g>
            </g>
        </g>
    </g>
</svg>