<?xml version="1.0" encoding="UTF-8"?>
<svg width="38px" height="38px" viewBox="0 0 38 38" version="1.1" xmlns="http://www.w3.org/2000/svg" xmlns:xlink="http://www.w3.org/1999/xlink">
    <!-- Generator: Sketch 52.2 (67145) - http://www.bohemiancoding.com/sketch -->
    <title>icon_wordcloud</title>
    <desc>Created with Sketch.</desc>
    <g id="Page-1" stroke="none" stroke-width="1" fill="none" fill-rule="evenodd">
        <g id="icon_wordcloud">
            <g id="Group-6" transform="translate(0.000000, -0.000000)">
                <g id="icon_wordcloud">
                    <rect id="Rectangle" x="1.75833333" y="1.76842105" width="34.5" height="34.8631579"></rect>
                    <path d="M13.427451,21.7254902 C12.4365645,21.7254902 11.6235294,20.9124551 11.6235294,19.9215686 C11.6235294,18.9306821 12.4365645,18.1176471 13.427451,18.1176471 C14.4183375,18.1176471 15.2313725,18.9306821 15.2313725,19.9215686 C15.2313725,20.9124551 14.4437448,21.7254902 13.427451,21.7254902 Z" id="Path" fill="#5789AD"></path>
                    <path d="M19.2,21.7254902 C18.2091135,21.7254902 17.3960784,20.9124551 17.3960784,19.9215686 C17.3960784,18.9306821 18.2091135,18.1176471 19.2,18.1176471 C20.1908865,18.1176471 21.0039216,18.9306821 21.0039216,19.9215686 C21.0039216,20.9124551 20.1908865,21.7254902 19.2,21.7254902 Z" id="Path" fill="#5789AD"></path>
                    <path d="M24.972549,21.7254902 C23.9816625,21.7254902 23.1686275,20.9124551 23.1686275,19.9215686 C23.1686275,18.9306821 23.9816625,18.1176471 24.972549,18.1176471 C25.9634355,18.1176471 26.7764706,18.9306821 26.7764706,19.9215686 C26.7764706,20.9124551 25.9634355,21.7254902 24.972549,21.7254902 Z" id="Path" fill="#5789AD"></path>
                    <path d="M35.3766667,37.6 L19.0083333,37.6 C18.0116667,37.6 13.4453316,34.8209646 14.8247855,34.947055 C16.2042394,35.0731454 17.9733333,35.449058 18.97,35.449058 L35.3766667,35.449058 L35.3766667,19.1612632 C35.3766667,18.1541053 35.2676739,16.609573 35.4645726,15.1438189 C35.6614714,13.6780649 37.255,18.1153684 37.255,19.1612632 L37.255,35.7406316 C37.2166667,36.7865263 36.4116667,37.6 35.3766667,37.6 Z" id="Path" fill="#5789AD"></path>
                    <path d="M19.0083333,37.6 C8.965,37.6 0.8,29.3490526 0.8,19.2 C0.8,9.05094737 8.965,0.8 19.0083333,0.8 C29.0516667,0.8 37.2166667,9.05094737 37.2166667,19.2 C37.2166667,20.2071579 37.2933333,21.4290058 36.2583333,21.4290058 C35.2233333,21.4290058 35.4624234,20.2458947 35.4624234,19.2 C35.4624234,11.0652632 28.9619638,3.03686275 18.97,3.03686275 C8.97803615,3.03686275 2.96019608,10.0824023 2.96019608,19.9215686 C2.96019608,29.760735 10.92,35.449058 18.97,35.449058 C19.9666667,35.449058 20.9891238,35.3410835 20.9891238,36.3869782 C20.9891238,37.4328729 20.005,37.6 19.0083333,37.6 Z" id="Path" fill="#5789AD"></path>
                </g>
            </g>
        </g>
    </g>
</svg>