<?xml version="1.0" encoding="UTF-8"?>
<svg width="37px" height="37px" viewBox="0 0 37 37" version="1.1" xmlns="http://www.w3.org/2000/svg" xmlns:xlink="http://www.w3.org/1999/xlink">
    <!-- Generator: Sketch 52.2 (67145) - http://www.bohemiancoding.com/sketch -->
    <title>icon_line_chart</title>
    <desc>Created with Sketch.</desc>
    <g id="Page-1" stroke="none" stroke-width="1" fill="none" fill-rule="evenodd">
        <g id="icon_line_chart" fill="#5789AD" fill-rule="nonzero">
            <g id="Group-10" transform="translate(0.000000, -0.000000)">
                <g id="icon_line_chart">
                    <path d="M1.41584436,0.189828 C0.953398055,0.241479016 0.606553198,0.637098931 0.61584436,1.102328 L0.61584436,35.027328 C0.469631133,35.4751092 0.692986991,35.9599461 1.12834436,36.139808 C1.14488931,36.1444175 1.1615628,36.1485526 1.17834436,36.152208 C1.19075226,36.1566148 1.20325526,36.1607492 1.21584436,36.164608 C1.2606116,36.1807567 1.30658908,36.1933294 1.35334436,36.202208 C1.36584301,36.2024681 1.37834571,36.2024681 1.39084436,36.202208 C1.49421421,36.220429 1.59997451,36.220429 1.70334436,36.202208 L35.7158444,36.202208 C36.0404167,36.2067983 36.3423176,36.0362702 36.5059433,35.7559224 C36.6695691,35.4755746 36.6695691,35.1288414 36.5059433,34.8484936 C36.3423176,34.5681458 36.0404167,34.3976177 35.7158444,34.402208 L2.41584436,34.402208 L2.41584436,1.102208 C2.42102728,0.84297687 2.31416874,0.59410216 2.12264023,0.419332394 C1.93111171,0.244562628 1.67351924,0.160875784 1.41584436,0.189708 L1.41584436,0.189828 Z M29.0533444,4.952328 C27.8527644,4.952328 26.8783444,5.926748 26.8783444,7.127328 C26.8783444,7.649032 27.0594932,8.127676 27.3658444,8.502328 L19.1033444,24.127328 C19.001626,24.112528 18.8966,24.102528 18.7908444,24.102528 C18.4906996,24.102528 18.2009192,24.167528 17.9408444,24.277528 L10.6283444,17.627528 C10.67771,17.445608 10.7158444,17.262528 10.7158444,17.06502 C10.7158444,15.864448 9.7414244,14.890028 8.5408444,14.890028 C7.3402644,14.890028 6.3658444,15.864448 6.3658444,17.06502 C6.3658444,18.265608 7.3402644,19.240008 8.5408444,19.240008 C8.8833048,19.240008 9.202688,19.156088 9.4908444,19.015008 L16.7283444,25.602528 C16.6594312,25.814408 16.6158444,26.042648 16.6158444,26.277528 C16.6158444,27.478088 17.5902644,28.452528 18.7908444,28.452528 C19.9914244,28.452528 20.9658444,27.478088 20.9658444,26.277528 C20.9658444,25.847328 20.8314284,25.452488 20.6158444,25.115008 L28.9783444,9.302528 C29.0030764,9.303328 29.0284092,9.302528 29.0533444,9.302528 C30.2539244,9.302528 31.2158444,8.328108 31.2158444,7.127528 C31.2158444,5.926948 30.2539244,4.952528 29.0533444,4.952528 L29.0533444,4.952328 Z" id="Shape"></path>
                </g>
            </g>
        </g>
    </g>
</svg>