<?xml version="1.0" encoding="UTF-8"?>
<svg width="18px" height="18px" viewBox="0 0 18 18" version="1.1" xmlns="http://www.w3.org/2000/svg" xmlns:xlink="http://www.w3.org/1999/xlink">
    <!-- Generator: Sketch 52.5 (67469) - http://www.bohemiancoding.com/sketch -->
    <title>Icon_move</title>
    <desc>Created with Sketch.</desc>
    <defs>
        <path d="M17.8683717,8.68184205 L15.1683042,5.98177454 C14.9927998,5.80627016 14.7074927,5.80627016 14.5319883,5.98177454 C14.3564839,6.15727893 14.3564839,6.44258606 14.5319883,6.61809045 L16.4634366,8.55043876 L9.44956124,8.55043876 L9.44956124,1.53656341 L11.3819095,3.4680117 C11.5574139,3.64351609 11.8427211,3.64351609 12.0182255,3.4680117 C12.1937298,3.29250731 12.1937298,3.00720018 12.0182255,2.83169579 L9.31815795,0.131628291 C9.14265357,-0.0438760969 8.85734643,-0.0438760969 8.68184205,0.131628291 L5.98177454,2.83169579 C5.80627016,3.00720018 5.80627016,3.29250731 5.98177454,3.4680117 C6.15727893,3.64351609 6.44258606,3.64351609 6.61809045,3.4680117 L8.54953874,1.53656341 L8.54953874,8.55043876 L1.53656341,8.55043876 L3.4680117,6.61809045 C3.64351609,6.44258606 3.64351609,6.15727893 3.4680117,5.98177454 C3.29250731,5.80627016 3.00720018,5.80627016 2.83169579,5.98177454 L0.131628291,8.68184205 C-0.0438760969,8.85734643 -0.0438760969,9.14265357 0.131628291,9.31815795 L2.83169579,12.0182255 C3.00720018,12.1937298 3.29250731,12.1937298 3.4680117,12.0182255 C3.64351609,11.8427211 3.64351609,11.5574139 3.4680117,11.3819095 L1.53656341,9.45046126 L8.54953874,9.45046126 L8.54953874,16.4634366 L6.61809045,14.5319883 C6.44258606,14.3564839 6.15727893,14.3564839 5.98177454,14.5319883 C5.80627016,14.7074927 5.80627016,14.9927998 5.98177454,15.1683042 L8.68184205,17.8683717 C8.85734643,18.0438761 9.14265357,18.0438761 9.31815795,17.8683717 L12.0182255,15.1683042 C12.1937298,14.9927998 12.1937298,14.7074927 12.0182255,14.5319883 C11.8427211,14.3564839 11.5574139,14.3564839 11.3819095,14.5319883 L9.44956124,16.4634366 L9.44956124,9.45046126 L16.4634366,9.45046126 L14.5319883,11.3819095 C14.3564839,11.5574139 14.3564839,11.8427211 14.5319883,12.0182255 C14.7074927,12.1937298 14.9927998,12.1937298 15.1683042,12.0182255 L17.8683717,9.31815795 C18.0438761,9.14265357 18.0438761,8.85734643 17.8683717,8.68184205" id="path-1"></path>
    </defs>
    <g id="2.-Style" stroke="none" stroke-width="1" fill="none" fill-rule="evenodd">
        <g id="Iconography" transform="translate(-720.000000, -539.000000)">
            <g id="ico-/-20-/-map-/-move" transform="translate(719.000000, 538.000000)">
                <g id="↳-🎨Color" transform="translate(1.000000, 1.000000)">
                    <mask id="mask-2" fill="white">
                        <use xlink:href="#path-1"></use>
                    </mask>
                    <use id="Mask" fill="#000000" xlink:href="#path-1"></use>
                    <g id="Color-/-03_neutral-/-grey-01" mask="url(#mask-2)" fill="#6E767D">
                        <g transform="translate(-1.000000, -1.000000)" id="Rectangle-2">
                            <rect x="0" y="0" width="20" height="20"></rect>
                        </g>
                    </g>
                </g>
            </g>
        </g>
    </g>
</svg>