<svg width="16" height="16" viewBox="0 0 16 16" fill="none" xmlns="http://www.w3.org/2000/svg">
<path fill-rule="evenodd" clip-rule="evenodd" d="M15.8536 0.146447C15.9084 0.201265 15.9478 0.265644 15.9719 0.334217L15.9976 0.450476C15.9992 0.466767 16 0.483288 16 0.5V0.504698V5.5C16 5.77614 15.7761 6 15.5 6C15.2239 6 15 5.77614 15 5.5V1.70713L10.0202 6.68689C9.82498 6.88215 9.5084 6.88215 9.31313 6.68689C9.11787 6.49163 9.11787 6.17504 9.31313 5.97978L14.2929 1H10.5C10.2239 1 10 0.776142 10 0.5C10 0.223858 10.2239 0 10.5 0H15.5C15.5639 0 15.6251 0.0120055 15.6813 0.0338845C15.7441 0.0582571 15.8029 0.0957778 15.8536 0.146447ZM1 10.5C1 10.2239 0.776142 10 0.5 10C0.223858 10 0 10.2239 0 10.5V15.4998V15.5C0 15.7761 0.223858 16 0.5 16H5.5C5.77614 16 6 15.7761 6 15.5C6 15.2239 5.77614 15 5.5 15H1.70695L6.68689 10.0201C6.88215 9.82479 6.88215 9.50821 6.68689 9.31295C6.49163 9.11769 6.17504 9.11769 5.97978 9.31295L1 14.2927V10.5Z" fill="#505D66"/>
</svg>
