<?xml version="1.0" encoding="UTF-8"?>
<svg width="12px" height="12px" viewBox="0 0 12 12" version="1.1" xmlns="http://www.w3.org/2000/svg" xmlns:xlink="http://www.w3.org/1999/xlink">
    <!-- Generator: Sketch 52.2 (67145) - http://www.bohemiancoding.com/sketch -->
    <title>icon_button_cross</title>
    <desc>Created with Sketch.</desc>
    <defs>
        <path d="M6.7056524,5.99715498 L11.8547431,11.1412817 C12.0500994,11.3364497 12.0502521,11.6530321 11.8550841,11.8483884 C11.6599162,12.0437447 11.3433337,12.0438974 11.1479774,11.8487294 L6.0010282,6.7067421 L0.85335893,11.8487533 C0.65798944,12.0439081 0.341407,12.043734 0.14625225,11.8483645 C-0.04890249,11.652995 -0.04872841,11.3364126 0.14664107,11.1412578 L5.29570792,5.9978506 L0.14661716,0.85372385 C-0.04873913,0.6585559 -0.04889181,0.34197345 0.14627615,0.14661716 C0.3414441,-0.04873913 0.65802655,-0.04889181 0.85338284,0.14627615 L6.0003321,5.28826344 L11.1480014,0.14625225 C11.3433708,-0.04890249 11.6599533,-0.04872841 11.855108,0.14664107 C12.0502628,0.34201056 12.0500887,0.658593 11.8547192,0.85374775 L6.7056524,5.99715498 Z" id="path-1"></path>
    </defs>
    <g id="Page-1" stroke="none" stroke-width="1" fill="none" fill-rule="evenodd">
        <g id="icon_button_cross">
            <g id="ico-/-20-/-suggested-/-close">
                <g>
                    <g id="Combined-Shape" fill="#6E767D">
                        <path d="M6.7056524,5.99715498 L11.8547431,11.1412817 C12.0500994,11.3364497 12.0502521,11.6530321 11.8550841,11.8483884 C11.6599162,12.0437447 11.3433337,12.0438974 11.1479774,11.8487294 L6.0010282,6.7067421 L0.85335893,11.8487533 C0.65798944,12.0439081 0.341407,12.043734 0.14625225,11.8483645 C-0.04890249,11.652995 -0.04872841,11.3364126 0.14664107,11.1412578 L5.29570792,5.9978506 L0.14661716,0.85372385 C-0.04873913,0.6585559 -0.04889181,0.34197345 0.14627615,0.14661716 C0.3414441,-0.04873913 0.65802655,-0.04889181 0.85338284,0.14627615 L6.0003321,5.28826344 L11.1480014,0.14625225 C11.3433708,-0.04890249 11.6599533,-0.04872841 11.855108,0.14664107 C12.0502628,0.34201056 12.0500887,0.658593 11.8547192,0.85374775 L6.7056524,5.99715498 Z" id="path-1"></path>
                    </g>
                    <g id="Color-/-03_neutral-/-white-Clipped">
                        <mask id="mask-2" fill="white">
                            <use xlink:href="#path-1"></use>
                        </mask>
                        <g id="path-1"></g>
                        <g id="Color-/-03_neutral-/-white" mask="url(#mask-2)" fill="rgb(6, 14, 20)">
                            <g transform="translate(-4.000000, -4.000000)" id="Rectangle-2">
                                <rect x="0" y="0" width="20" height="20"></rect>
                            </g>
                        </g>
                    </g>
                </g>
            </g>
        </g>
    </g>
</svg>