<?xml version="1.0" encoding="UTF-8"?>
<svg width="19px" height="13px" viewBox="0 0 19 13" version="1.1" xmlns="http://www.w3.org/2000/svg" xmlns:xlink="http://www.w3.org/1999/xlink">
    <!-- Generator: Sketch 52.2 (67145) - http://www.bohemiancoding.com/sketch -->
    <title>noun_menu_568033</title>
    <desc>Created with Sketch.</desc>
    <g id="Symbols" stroke="none" stroke-width="1" fill="none" fill-rule="evenodd">
        <g id="icon_menu" fill="#2E6C99">
            <g id="noun_menu_568033">
                <g id="Group">
                    <path d="M18,2 L1,2 C0.44771525,2 6.76353751e-17,1.55228475 0,1 C-6.76353751e-17,0.44771525 0.44771525,1.01453063e-16 1,0 L18,0 C18.5522847,3.38176876e-17 19,0.44771525 19,1 C19,1.55228475 18.5522847,2 18,2 Z" id="Path"></path>
                    <path d="M18,7.5 L1,7.5 C0.44771525,7.5 6.76353751e-17,7.05228475 0,6.5 C-6.76353751e-17,5.94771525 0.44771525,5.5 1,5.5 L18,5.5 C18.5522847,5.5 19,5.94771525 19,6.5 C19,7.05228475 18.5522847,7.5 18,7.5 Z" id="Path"></path>
                    <path d="M18,13 L1,13 C0.44771525,13 6.76353751e-17,12.5522847 0,12 C-6.76353751e-17,11.4477153 0.44771525,11 1,11 L18,11 C18.5522847,11 19,11.4477153 19,12 C19,12.5522847 18.5522847,13 18,13 Z" id="Path"></path>
                </g>
            </g>
        </g>
    </g>
</svg>