<?xml version="1.0" encoding="UTF-8"?>
<svg width="16px" height="21px" viewBox="0 0 16 21" version="1.1" xmlns="http://www.w3.org/2000/svg" xmlns:xlink="http://www.w3.org/1999/xlink">
    <!-- Generator: Sketch 52.2 (67145) - http://www.bohemiancoding.com/sketch -->
    <title>icon_menu_pages</title>
    <desc>Created with Sketch.</desc>
    <g id="Page-1" stroke="none" stroke-width="1" fill="none" fill-rule="evenodd">
        <g id="icon_menu_pages" fill="#6E767D" fill-rule="nonzero">
            <g id="Shape">
                <path d="M15.7705423,5.75643348 L10.49098,0.286879828 C10.4280306,0.118969957 10.2710902,0 10.087524,0 C10.0787354,0 10.06999,0.000270386266 10.0613312,0.000811158798 C10.0527157,0.000270386266 10.044057,0 10.0353549,0 L2.16469544,0 C0.971082374,0 0,1.01079399 0,2.25321888 L0,18.7467811 C0,19.989206 0.971082374,21 2.16469544,21 L13.8353045,21 C15.0289176,21 16,19.989206 16,18.7467811 L16,6.18148069 C16,6.17692918 15.9999567,6.17246781 15.9998268,6.16796137 C15.9999567,6.16340987 16,6.15890343 16,6.15430687 C16.0000433,5.98198069 15.9070913,5.83223176 15.7705423,5.75643348 Z M10.5204198,1.58906009 L14.4921597,5.70370815 L11.386298,5.70370815 C10.9088528,5.70370815 10.5204198,5.29939056 10.5204198,4.8024206 L10.5204198,1.58906009 Z M15.1341651,18.7467811 C15.1341651,19.4922361 14.5515157,20.0987124 13.8353478,20.0987124 L2.16469544,20.0987124 C1.4485276,20.0987124 0.865878176,19.4922361 0.865878176,18.7467811 L0.865878176,2.25321888 C0.865878176,1.50776395 1.4485276,0.901287554 2.16469544,0.901287554 L9.65454166,0.901287554 L9.65454166,4.80237554 C9.65454166,5.79631545 10.4314076,6.60495064 11.386298,6.60495064 L15.1341218,6.60495064 L15.1341218,18.7467811 L15.1341651,18.7467811 Z"></path>
            </g>
        </g>
    </g>
</svg>