<svg width="16" height="16" viewBox="0 0 16 16" fill="none" xmlns="http://www.w3.org/2000/svg">
<path d="M8 6.5C7.17157 6.5 6.5 7.17157 6.5 8C6.5 8.82843 7.17157 9.5 8 9.5C8.82843 9.5 9.5 8.82843 9.5 8C9.5 7.17157 8.82843 6.5 8 6.5ZM5.5 8C5.5 6.61929 6.61929 5.5 8 5.5C9.38071 5.5 10.5 6.61929 10.5 8C10.5 9.38071 9.38071 10.5 8 10.5C6.61929 10.5 5.5 9.38071 5.5 8Z" fill="#1168A6"/>
<path d="M0.99442 8.05903C0.9944 8.05904 0.994548 8.05836 0.994919 8.05695ZM1.01474 8C1.03026 8.03956 1.05359 8.09261 1.08632 8.15913C1.16635 8.32177 1.29042 8.54043 1.45787 8.79718C1.79241 9.31014 2.28661 9.9545 2.91605 10.5839C4.18433 11.8522 5.93923 13 8 13C10.0608 13 11.8157 11.8522 13.0839 10.5839C13.7134 9.9545 14.2076 9.31014 14.5421 8.79718C14.7096 8.54043 14.8336 8.32177 14.9137 8.15913C14.9464 8.09261 14.9697 8.03956 14.9853 8C14.9697 7.96044 14.9464 7.90739 14.9137 7.84087C14.8336 7.67823 14.7096 7.45957 14.5421 7.20282C14.2076 6.68986 13.7134 6.0455 13.0839 5.41605C11.8157 4.14778 10.0608 3 8 3C5.93923 3 4.18433 4.14778 2.91605 5.41605C2.28661 6.0455 1.79241 6.68986 1.45787 7.20282C1.29042 7.45957 1.16635 7.67823 1.08632 7.84087C1.05359 7.90739 1.03026 7.96044 1.01474 8ZM15.0056 8.05903C15.0056 8.05901 15.0054 8.05827 15.0051 8.05684ZM15.0051 7.94318C15.0054 7.94173 15.0056 7.94098 15.0056 7.94097ZM0.994918 7.94305C0.994547 7.94163 0.9944 7.94096 0.99442 7.94097ZM2.20895 4.70895C3.56567 3.35222 5.56077 2 8 2C10.4392 2 12.4343 3.35222 13.7911 4.70895C14.4741 5.392 15.0112 6.09139 15.3797 6.65655C15.5639 6.93887 15.7093 7.19286 15.8109 7.39936C15.8615 7.50209 15.9043 7.59933 15.9357 7.68648C15.961 7.75695 16 7.8758 16 8C16 8.1242 15.961 8.24305 15.9357 8.31352C15.9043 8.40067 15.8615 8.49791 15.8109 8.60064C15.7093 8.80714 15.5639 9.06113 15.3797 9.34345C15.0112 9.90861 14.4741 10.608 13.7911 11.2911C12.4343 12.6478 10.4392 14 8 14C5.56077 14 3.56567 12.6478 2.20895 11.2911C1.52589 10.608 0.98884 9.90861 0.620257 9.34345C0.436141 9.06113 0.290677 8.80714 0.189067 8.60064C0.138517 8.49791 0.095717 8.40067 0.0643463 8.31352C0.0389744 8.24305 0 8.1242 0 8C0 7.8758 0.0389744 7.75695 0.0643463 7.68648C0.095717 7.59933 0.138517 7.50209 0.189067 7.39936C0.290677 7.19286 0.436141 6.93887 0.620257 6.65655C0.98884 6.09139 1.52589 5.392 2.20895 4.70895Z" fill="#1168A6"/>
</svg>
