<svg width="16" height="16" viewBox="0 0 16 16" fill="none" xmlns="http://www.w3.org/2000/svg">
<path d="M3.5 2C2.67157 2 2 2.67157 2 3.5V12.5C2 13.3284 2.67157 14 3.5 14H12.5C13.3284 14 14 13.3284 14 12.5V3.5C14 2.67157 13.3284 2 12.5 2H3.5ZM3 3.5C3 3.22386 3.22386 3 3.5 3H12.5C12.7761 3 13 3.22386 13 3.5V12.5C13 12.7761 12.7761 13 12.5 13H3.5C3.22386 13 3 12.7761 3 12.5V3.5ZM4.5 6.5C4.5 6.22386 4.72386 6 5 6H11C11.2761 6 11.5 6.22386 11.5 6.5C11.5 6.77614 11.2761 7 11 7H5C4.72386 7 4.5 6.77614 4.5 6.5ZM4.5 9.5C4.5 9.22386 4.72386 9 5 9H11C11.2761 9 11.5 9.22386 11.5 9.5C11.5 9.77614 11.2761 10 11 10H5C4.72386 10 4.5 9.77614 4.5 9.5Z" fill="#505D66"/>
</svg>
