<svg width="16" height="16" viewBox="0 0 16 16" fill="none" xmlns="http://www.w3.org/2000/svg">
<g clip-path="url(#clip0_1003:48928)">
<path d="M0.0520025 0.277975C0.136382 0.107714 0.309981 0 0.500003 0H15.5C15.69 0 15.8636 0.107714 15.948 0.277975C16.0324 0.448235 16.013 0.65161 15.8979 0.802819L10 8.55196V15.5C10 15.6772 9.90626 15.8411 9.75357 15.9309C9.60088 16.0208 9.41205 16.0231 9.25718 15.9371L6.25718 14.2704C6.09845 14.1822 6 14.0149 6 13.8333V8.55196L0.102133 0.802819C-0.0129518 0.65161 -0.0323772 0.448235 0.0520025 0.277975ZM1.5089 1L6.89787 8.08051C6.96413 8.16756 7 8.27394 7 8.38333V13.5391L9 14.6502V8.38333C9 8.27394 9.03588 8.16756 9.10213 8.08051L14.4911 1H1.5089Z" fill="#505D66"/>
</g>
<defs>
<clipPath id="clip0_1003:48928">
<rect width="16" height="16" fill="white"/>
</clipPath>
</defs>
</svg>
