<?xml version="1.0" encoding="UTF-8"?>
<svg width="42px" height="46px" viewBox="0 0 42 46" version="1.1" xmlns="http://www.w3.org/2000/svg" xmlns:xlink="http://www.w3.org/1999/xlink">
    <!-- Generator: Sketch 52.2 (67145) - http://www.bohemiancoding.com/sketch -->
    <title>icon_map</title>
    <desc>Created with Sketch.</desc>
    <g id="Page-1" stroke="none" stroke-width="1" fill="none" fill-rule="evenodd">
        <g id="icon_map" fill="#5789AD" fill-rule="nonzero">
            <g id="Group-5" transform="translate(0.000000, -0.000000)">
                <g id="icon_map">
                    <path d="M1.0284,44.4471111 C1.03605,44.4728889 1.0335,44.5012444 1.0437,44.5244444 C1.0437,44.5244444 1.0437,44.5270222 1.0437,44.5270222 C1.04625,44.5321778 1.05135,44.5321778 1.05135,44.5373333 C1.1151,44.6816889 1.2222,44.7976889 1.34715,44.8904889 C1.37775,44.9136889 1.4058,44.9343111 1.43895,44.9523556 C1.57155,45.0296889 1.7169,45.0838222 1.88265,45.0838222 C2.01015,45.0838222 2.13,45.0580444 2.2371,45.0116444 C2.2371,45.0116444 2.23965,45.0116444 2.23965,45.0116444 L14.625,39.6447111 L27.01035,45.0116444 C27.01035,45.0116444 27.0129,45.0116444 27.0129,45.0116444 C27.12255,45.0580444 27.2424,45.0838222 27.36735,45.0838222 C27.4923,45.0838222 27.6147,45.0580444 27.7218,45.0116444 C27.7218,45.0116444 27.72435,45.0116444 27.72435,45.0116444 L40.46925,39.4900444 C40.50495,39.4745778 40.5279,39.4462222 40.56105,39.4256 C40.6299,39.3843556 40.7013,39.3456889 40.75995,39.2864 C40.8033,39.2425778 40.8288,39.1858667 40.86195,39.1317333 C40.89255,39.0853333 40.9308,39.0440889 40.9512,38.9899556 C40.992,38.8894222 41.00985,38.7811556 41.01495,38.6703111 C41.01495,38.66 41.02005,38.6522667 41.02005,38.6393778 L41.02005,38.6368 C41.02005,38.6342222 41.02005,38.6316444 41.02005,38.6290667 L41.02005,1.83386667 C41.02005,1.73848889 40.99455,1.64568889 40.96395,1.55288889 C40.9563,1.52968889 40.95885,1.49875556 40.94865,1.47555556 C40.94865,1.47555556 40.94865,1.47297778 40.94865,1.47297778 C40.9359,1.44204444 40.9104,1.424 40.89765,1.39822222 C40.8543,1.31831111 40.81095,1.24097778 40.7472,1.17911111 C40.71405,1.14817778 40.67325,1.13271111 40.63755,1.10435556 C40.584,1.06053333 40.5279,1.01155556 40.4565,0.9832 C40.39785,0.96 40.33665,0.957422222 40.27545,0.947111111 C40.2219,0.9368 40.17345,0.9136 40.11735,0.9136 C40.1148,0.9136 40.1148,0.9136 40.11225,0.9136 C40.0332,0.9136 39.95415,0.939377778 39.87765,0.96 C39.8394,0.970311111 39.7986,0.967733333 39.7629,0.9832 C39.7629,0.9832 39.76035,0.9832 39.76035,0.9832 L27.375,6.35013333 L14.9871,0.988355556 C14.9871,0.988355556 14.98455,0.988355556 14.98455,0.988355556 C14.8749,0.941955556 14.75505,0.916177778 14.6301,0.916177778 C14.6199,0.916177778 14.61225,0.921333333 14.60205,0.921333333 C14.5587,0.923911111 14.5179,0.939377778 14.47455,0.947111111 C14.3853,0.962577778 14.30115,0.980622222 14.2221,1.01928889 C14.20935,1.02702222 14.1915,1.02702222 14.1762,1.03475556 L1.4313,8.39688889 C1.3956,8.41751111 1.3752,8.45102222 1.34205,8.47422222 C1.2936,8.51288889 1.24515,8.54897778 1.20435,8.59795556 C1.1661,8.64177778 1.13805,8.69075556 1.10745,8.74231111 C1.0794,8.79386667 1.05135,8.84026667 1.03095,8.89697778 C1.01055,8.95884444 1.0029,9.02071111 0.99525,9.08773333 C0.99015,9.12382222 0.9723,9.15733333 0.9723,9.196 L0.9723,44.1661333 C0.9723,44.1661333 0.9723,44.1661333 0.9723,44.1661333 C0.9723,44.2589333 1.00035,44.3543111 1.0284,44.4471111 Z M27.732,8.20355556 L39.207,3.23102222 L39.207,38.0361778 L28.2828,42.7689778 L28.2828,12.8770667 C28.2828,12.3692444 27.8748,11.9568 27.37245,11.9568 C26.8701,11.9568 26.4621,12.3692444 26.4621,12.8770667 L26.4621,42.7689778 L14.9871,37.7964444 C14.75505,37.6984889 14.50005,37.6984889 14.268,37.7964444 L2.793,42.7689778 L2.793,9.73217778 L13.7172,3.42177778 L13.7172,33.1229333 C13.7172,33.6307556 14.1252,34.0432 14.62755,34.0432 C15.1299,34.0432 15.5379,33.6307556 15.5379,33.1229333 L15.5379,3.23102222 L27.0129,8.20355556 C27.24495,8.29893333 27.49995,8.29893333 27.732,8.20355556 Z" id="Shape"></path>
                </g>
            </g>
        </g>
    </g>
</svg>