<?xml version="1.0" encoding="UTF-8"?>
<svg width="18px" height="23px" viewBox="0 0 18 23" version="1.1" xmlns="http://www.w3.org/2000/svg" xmlns:xlink="http://www.w3.org/1999/xlink">
    <!-- Generator: Sketch 52.2 (67145) - http://www.bohemiancoding.com/sketch -->
    <title>icon_menu_style</title>
    <desc>Created with Sketch.</desc>
    <g id="Page-1" stroke="none" stroke-width="1" fill="none" fill-rule="evenodd">
        <g id="icon_menu_style" fill="#6E767D" fill-rule="nonzero">
            <g transform="translate(0.000000, -0.000000)" id="noun_paint_1835007">
                <g>
                    <path d="M17.4981381,0 L0.501861878,0 C0.227237569,0 0.00462430939,0.218207627 0.00462430939,0.487288136 L0.00462430939,8.81533475 L0.00462430939,10.3733898 C0.00462430939,11.9855339 1.34298895,13.2971186 2.98804972,13.2971186 L6.24729282,13.2971186 L6.24729282,20.5635593 C6.24729282,21.9070127 7.36259669,23 8.73348066,23 L9.26651934,23 C10.6374033,23 11.7527072,21.9070127 11.7527072,20.5635593 L11.7527072,13.2971186 L15.0119503,13.2971186 C16.657011,13.2971186 17.9953757,11.9855339 17.9953757,10.3733898 L17.9953757,8.81533475 L17.9953757,0.487288136 C17.9953757,0.218207627 17.7727624,0 17.4981381,0 Z M9.26651934,22.0254237 L8.73348066,22.0254237 C7.91095028,22.0254237 7.24176796,21.3696314 7.24176796,20.5635593 L7.24176796,15.690678 L10.758232,15.690678 L10.758232,20.5635593 C10.758232,21.3696314 10.0890497,22.0254237 9.26651934,22.0254237 Z M17.0009006,10.3733898 C17.0009006,11.4481525 16.1086575,12.3225424 15.0119503,12.3225424 L11.2554696,12.3225424 C10.9808453,12.3225424 10.758232,12.54075 10.758232,12.8098305 L10.758232,14.7161017 L7.24176796,14.7161017 L7.24176796,12.8098305 C7.24176796,12.54075 7.0191547,12.3225424 6.74453039,12.3225424 L2.98804972,12.3225424 C1.89134254,12.3225424 0.999099448,11.4481525 0.999099448,10.3733898 L0.999099448,8.81533475 L0.999099448,0.974576271 L4.10718232,0.974576271 L4.10718232,5.4043178 C4.10718232,5.67339831 4.32979558,5.89160593 4.60441989,5.89160593 C4.8790442,5.89160593 5.10165746,5.67339831 5.10165746,5.4043178 L5.10165746,0.974576271 L8.20969061,0.974576271 L8.20969061,5.4043178 C8.20969061,5.67339831 8.43230387,5.89160593 8.70692818,5.89160593 C8.98155249,5.89160593 9.20416575,5.67339831 9.20416575,5.4043178 L9.20416575,0.974576271 L12.6052707,0.974576271 L12.6052707,5.4043178 C12.6052707,5.67339831 12.827884,5.89160593 13.1025083,5.89160593 C13.3771326,5.89160593 13.5997459,5.67339831 13.5997459,5.4043178 L13.5997459,0.974576271 L17.0009006,0.974576271 L17.0008508,8.81533475 L17.0008508,10.3733898 L17.0009006,10.3733898 Z" id="Shape"></path>
                </g>
            </g>
        </g>
    </g>
</svg>