<svg width="16" height="16" viewBox="0 0 16 16" fill="none" xmlns="http://www.w3.org/2000/svg">
<path fill-rule="evenodd" clip-rule="evenodd" d="M0.4 0C0.179086 0 0 0.179086 0 0.4V15.6V15.6002C0 15.8211 0.179086 16.0002 0.4 16.0002H15.6C15.8209 16.0002 16 15.8211 16 15.6002C16 15.3793 15.8209 15.2002 15.6 15.2002L0.8 15.2002V9.76569L3.63456 6.93112C3.74776 6.97558 3.87103 7 4 7C4.21631 7 4.41657 6.93132 4.58018 6.81458L8.00819 8.87139C8.00279 8.9135 8 8.95642 8 9C8 9.55229 8.44771 10 9 10C9.55229 10 10 9.55229 10 9C10 8.90993 9.98809 8.82265 9.96577 8.73964L13.534 5.88503C13.6732 5.95844 13.8317 6 14 6C14.5523 6 15 5.55228 15 5C15 4.44772 14.5523 4 14 4C13.4477 4 13 4.44772 13 5C13 5.09007 13.0119 5.17735 13.0342 5.26036L9.46597 8.11497C9.32682 8.04156 9.16827 8 9 8C8.78369 8 8.58343 8.06868 8.41982 8.18542L4.99181 6.12861C4.99721 6.0865 5 6.04358 5 6C5 5.44772 4.55228 5 4 5C3.44772 5 3 5.44772 3 6C3 6.12897 3.02442 6.25224 3.06888 6.36544L0.8 8.63431V0.4C0.8 0.179086 0.620914 0 0.4 0Z" fill="#1B6EAA"/>
</svg>
