<svg width="16" height="16" viewBox="0 0 16 16" fill="none" xmlns="http://www.w3.org/2000/svg">
<path fill-rule="evenodd" clip-rule="evenodd" d="M4.8 2.29138L0.8 1.05389V12.9324C0.8 13.0551 0.801481 13.1 0.804505 13.1215C0.822651 13.1332 0.86251 13.1534 0.97337 13.2048L4.8 14.9806V2.29138ZM11.2 0.930142V13.7256L15.2 14.963V2.37011C15.2 2.24037 15.1984 2.19351 15.195 2.17135C15.1749 2.16156 15.1309 2.14624 15.0075 2.10808L11.2 0.930142ZM10.4 0.916275L5.6 2.29519V15.1007L10.4 13.7217V0.916275ZM1.03527 0.285095L5.2 1.57354L10.4285 0.0715367C10.5911 0.0248168 10.6456 0.012866 10.7083 0.00527572C10.7709 -0.00231456 10.8284 -0.00173044 10.8909 0.00713049C10.9534 0.0159914 11.0076 0.0290464 11.1693 0.0790596L15.2428 1.33928C15.527 1.42722 15.6234 1.48113 15.7184 1.55959C15.8134 1.63806 15.8838 1.73389 15.9304 1.84825C15.9771 1.96262 16 2.07109 16 2.37011V14.963C16 15.4073 15.6418 15.7674 15.2 15.7674C15.1203 15.7674 15.041 15.7554 14.9647 15.7318L10.8 14.4434L5.63816 15.9262C5.45251 15.9796 5.38762 15.9921 5.31305 15.9978C5.23848 16.0035 5.16939 15.9982 5.09659 15.981C5.02378 15.9638 4.96156 15.9415 4.78625 15.8601L0.638123 13.9352C0.391328 13.8206 0.309792 13.7631 0.230179 13.6845C0.150565 13.6059 0.0930207 13.5155 0.0553794 13.4098C0.017738 13.3042 0 13.2057 0 12.9324L0 1.05389C0 0.609652 0.358172 0.249525 0.8 0.249525C0.879748 0.249525 0.959047 0.261514 1.03527 0.285095Z" fill="#1168A6"/>
</svg>
