<svg width="16" height="16" viewBox="0 0 16 16" fill="none" xmlns="http://www.w3.org/2000/svg">
<g clip-path="url(#clip0_1003:27377)">
<path fill-rule="evenodd" clip-rule="evenodd" d="M15.8535 0.146447C16.0488 0.341709 16.0488 0.658291 15.8535 0.853553L10.8738 5.83325H14.6667C14.9428 5.83325 15.1667 6.05711 15.1667 6.33325C15.1667 6.60939 14.9428 6.83325 14.6667 6.83325H9.67577C9.54479 6.83563 9.41305 6.78684 9.3131 6.68689C9.25597 6.62975 9.21555 6.56223 9.19185 6.4904C9.17705 6.44565 9.16839 6.39809 9.16689 6.34874L9.16666 6.33284V1.33325C9.16666 1.05711 9.39051 0.833252 9.66666 0.833252C9.9428 0.833252 10.1667 1.05711 10.1667 1.33325V5.12623L15.1464 0.146447C15.3417 -0.0488155 15.6583 -0.0488155 15.8535 0.146447ZM6.33284 9.16675H1.33334C1.0572 9.16675 0.833344 9.39061 0.833344 9.66675C0.833344 9.94289 1.0572 10.1667 1.33334 10.1667H5.12623L0.146447 15.1465C-0.0488155 15.3418 -0.0488155 15.6584 0.146447 15.8536C0.341709 16.0489 0.658291 16.0489 0.853553 15.8536L5.83334 10.8738V14.6667C5.83334 14.9429 6.0572 15.1667 6.33334 15.1667C6.60949 15.1667 6.83334 14.9429 6.83334 14.6667V9.66675C6.83334 9.59463 6.81807 9.52608 6.7906 9.46415C6.76912 9.41565 6.73955 9.36986 6.70188 9.32884C6.69211 9.31819 6.68189 9.30797 6.67125 9.29821C6.62866 9.2591 6.58092 9.22871 6.53035 9.20706C6.47076 9.18148 6.4052 9.16716 6.33634 9.16676C6.33534 9.16675 6.33434 9.16675 6.33334 9.16675H6.33284Z" fill="#505D66"/>
</g>
<defs>
<clipPath id="clip0_1003:27377">
<rect width="16" height="16" fill="white"/>
</clipPath>
</defs>
</svg>
