<svg width="14" height="14" viewBox="0 0 14 14" fill="none" xmlns="http://www.w3.org/2000/svg">
<path fill-rule="evenodd" clip-rule="evenodd" d="M7.79334 0.0688477L6.90556 0.0688509C2.73908 0.0688661 -0.477359 3.73264 0.0621313 7.86404C0.0923716 8.09562 0.289687 8.26885 0.523232 8.26885H1.84654C1.83652 8.34738 1.83806 8.42949 1.85288 8.51382C1.99044 9.29676 2.28953 10.0464 2.73519 10.7134C3.36701 11.6589 4.26504 12.3959 5.31571 12.8311C6.36639 13.2663 7.52252 13.3802 8.63791 13.1583C9.7533 12.9365 10.7779 12.3889 11.582 11.5847C12.3862 10.7805 12.9338 9.756 13.1557 8.6406C13.3775 7.52521 13.2637 6.36908 12.8284 5.31841C12.3932 4.26773 11.6563 3.3697 10.7107 2.73789C10.0437 2.29223 9.29407 1.99313 8.51113 1.85557C8.42679 1.84076 8.34469 1.83921 8.26615 1.84924V0.541657C8.26615 0.280532 8.05447 0.0688467 7.79334 0.0688477ZM7.37452 8.26881C7.86493 8.26434 8.26164 7.86764 8.26611 7.37722C8.29869 7.26338 8.31614 7.14314 8.31614 7.01884V2.76884C8.31614 2.70913 8.34091 2.66797 8.35983 2.65004C8.36394 2.64614 8.36702 2.64402 8.3688 2.64295L8.37269 2.64351C9.04672 2.76193 9.69204 3.01941 10.2662 3.40306C11.0802 3.94697 11.7147 4.72006 12.0893 5.62455C12.464 6.52905 12.562 7.52433 12.371 8.48453C12.18 9.44474 11.7086 10.3267 11.0163 11.019C10.324 11.7113 9.44204 12.1827 8.48184 12.3737C7.52163 12.5647 6.52635 12.4667 5.62186 12.092C4.71736 11.7174 3.94428 11.0829 3.40037 10.2689C3.01672 9.69473 2.75923 9.04941 2.64081 8.37539L2.64026 8.37149C2.64132 8.36971 2.64345 8.36664 2.64735 8.36252C2.66527 8.3436 2.70643 8.31884 2.76614 8.31884H7.01614C7.14045 8.31884 7.26068 8.30139 7.37452 8.26881ZM7.46615 7.23702L7.46615 0.868849L6.90557 0.868851C3.32039 0.868864 0.530879 3.9373 0.824248 7.46885L7.23432 7.46885C7.33521 7.41984 7.41715 7.33791 7.46615 7.23702Z" fill="#1B6EAA"/>
</svg>
