<svg width="16" height="17" viewBox="0 0 16 17" fill="none" xmlns="http://www.w3.org/2000/svg">
<path d="M7.76248 0.600226C7.92399 0.596171 8.06554 0.688429 8.13211 0.824683L15.7047 7.45403C15.8019 7.53907 15.8504 7.66406 15.8398 7.78883L15.8281 7.72664C15.862 7.85551 15.829 7.98623 15.7506 8.08202L12.9103 16.1331C12.9095 16.1356 12.9085 16.1381 12.9076 16.1406C12.901 16.1581 12.8935 16.1746 12.8849 16.1905C12.8805 16.1987 12.8756 16.2069 12.8705 16.2149C12.858 16.2348 12.844 16.2532 12.8285 16.2703C12.8259 16.2727 12.8233 16.2755 12.8206 16.2783C12.8047 16.2954 12.787 16.311 12.7678 16.325C12.7654 16.3258 12.7634 16.3272 12.7613 16.3286C12.7436 16.342 12.7242 16.3533 12.7037 16.3629C12.6982 16.3645 12.6931 16.3667 12.688 16.3689C12.6697 16.3774 12.6501 16.3839 12.6296 16.3888C12.5984 16.3961 12.5661 16.4001 12.5331 16.4001L12.6132 16.3924C12.5876 16.3974 12.5609 16.4001 12.5331 16.4001H3.55139C3.54796 16.4001 3.54454 16.4001 3.54113 16.4C3.523 16.3995 3.50524 16.3978 3.48767 16.395C3.48139 16.394 3.47511 16.3928 3.4689 16.3915C3.448 16.3872 3.42753 16.3812 3.40759 16.3736C3.39904 16.3701 3.39033 16.3664 3.3818 16.3624C3.29271 16.3216 3.21745 16.2472 3.17755 16.1424L3.17712 16.1413L3.10952 15.9641L0.0674081 7.97065C0.0439271 7.90896 0.0365908 7.8471 0.0424448 7.78839C0.0324508 7.66811 0.0775328 7.54687 0.169215 7.46181L7.4501 0.706862C7.53512 0.627979 7.64612 0.592685 7.75439 0.601393C7.75696 0.600392 7.75972 0.600295 7.76248 0.600226ZM10.7121 14.2828C10.6715 14.2965 10.6283 14.3039 10.5838 14.3039L5.29354 14.3031L4.44503 15.6001H11.722L10.7121 14.2828ZM14.7835 8.41409L12.8655 8.9181L11.1475 13.5341L12.4005 15.1691L14.7835 8.41409ZM1.11755 8.4171L3.66055 15.1561L4.75353 13.6281L3.86654 9.1301L1.11755 8.4171ZM7.89654 10.6081L5.82653 13.5031H10.1145L7.89654 10.6081ZM11.9175 9.1681L8.49255 10.0681L10.5725 12.7831L11.9175 9.1681ZM4.72555 9.3531L5.38455 12.7021L7.16354 9.9851L4.72555 9.3531ZM8.31652 6.7911L8.37902 9.2721L11.6465 8.41209L8.31652 6.7911ZM7.51754 6.78409L5.13455 8.63209L7.57952 9.2661L7.51754 6.78409ZM7.39355 1.8491L1.18655 7.60809L4.15655 8.3781L7.49255 5.7911L7.39355 1.8491ZM8.19555 1.9471L8.29455 5.8901L12.7918 8.08036C12.8049 8.0867 12.8174 8.09366 12.8294 8.1012L14.6745 7.6161L8.19555 1.9471Z" fill="#1B6EAA"/>
</svg>
