<svg width="16" height="16" viewBox="0 0 16 16" fill="none" xmlns="http://www.w3.org/2000/svg">
<path d="M6.5 0.5C5.39543 0.5 4.5 1.39543 4.5 2.5V3.5H1C0.723858 3.5 0.5 3.72386 0.5 4C0.5 4.27614 0.723858 4.5 1 4.5H2.5V13C2.5 14.3807 3.61929 15.5 5 15.5H11C12.3807 15.5 13.5 14.3807 13.5 13V4.5H15C15.2761 4.5 15.5 4.27614 15.5 4C15.5 3.72386 15.2761 3.5 15 3.5H11.5V2.5C11.5 1.39543 10.6046 0.5 9.5 0.5H6.5ZM10.5 3.5H5.5V2.5C5.5 1.94772 5.94772 1.5 6.5 1.5H9.5C10.0523 1.5 10.5 1.94772 10.5 2.5V3.5ZM3.5 13V4.5H12.5V13C12.5 13.8284 11.8284 14.5 11 14.5H5C4.17157 14.5 3.5 13.8284 3.5 13ZM7 7C7 6.72386 6.77614 6.5 6.5 6.5C6.22386 6.5 6 6.72386 6 7V12C6 12.2761 6.22386 12.5 6.5 12.5C6.77614 12.5 7 12.2761 7 12V7ZM10 7C10 6.72386 9.77614 6.5 9.5 6.5C9.22386 6.5 9 6.72386 9 7V12C9 12.2761 9.22386 12.5 9.5 12.5C9.77614 12.5 10 12.2761 10 12V7Z" fill="#505D66"/>
</svg>
