<svg width="16" height="14" viewBox="0 0 16 14" fill="none" xmlns="http://www.w3.org/2000/svg">
<path fill-rule="evenodd" clip-rule="evenodd" d="M8.68553 3.14948C8.73707 3.02573 8.87917 2.96718 9.00292 3.01872C9.12668 3.07025 9.18522 3.21235 9.13369 3.3361L7.25378 7.85052C7.20225 7.97427 7.06015 8.03282 6.9364 7.98129C6.81264 7.92975 6.7541 7.78765 6.80563 7.6639L8.68553 3.14948ZM5.33558 7.08756C5.43698 7.17525 5.44809 7.32854 5.3604 7.42994C5.27271 7.53133 5.11942 7.54244 5.01803 7.45475L3.08396 5.78212C3.00353 5.71256 2.97991 5.60175 3.01733 5.50829C3.02487 5.45897 3.04764 5.41153 3.08562 5.37355L4.8937 3.56546C4.9885 3.47067 5.14218 3.47067 5.23697 3.56546C5.33177 3.66025 5.33177 3.81394 5.23697 3.90873L3.57808 5.56763L5.33558 7.08756ZM10.1517 3.88093C10.0503 3.79324 10.0392 3.63996 10.1269 3.53856C10.2146 3.43716 10.3678 3.42605 10.4692 3.51374L12.4033 5.18638C12.4837 5.25593 12.5074 5.36675 12.4699 5.46021C12.4624 5.50953 12.4396 5.55697 12.4016 5.59495L10.5936 7.40303C10.4988 7.49782 10.3451 7.49782 10.2503 7.40303C10.1555 7.30824 10.1555 7.15455 10.2503 7.05976L11.9092 5.40087L10.1517 3.88093Z" fill="#1B6EAA"/>
<path fill-rule="evenodd" clip-rule="evenodd" d="M1.8 0H13.8C14.7941 0 15.6 0.805887 15.6 1.8V8.8C15.6 9.79411 14.7941 10.6 13.8 10.6H8.8V12.8H10.4C10.6209 12.8 10.8 12.9791 10.8 13.2C10.8 13.4209 10.6209 13.6 10.4 13.6H6.2C5.97909 13.6 5.8 13.4209 5.8 13.2C5.8 12.9791 5.97909 12.8 6.2 12.8H7.8V10.6H1.8C0.805888 10.6 0 9.79411 0 8.8V1.8C0 0.805887 0.805888 0 1.8 0ZM7.8 9.8H8.8H13.8C14.3523 9.8 14.8 9.35229 14.8 8.8V1.8C14.8 1.24772 14.3523 0.8 13.8 0.8H1.8C1.24772 0.8 0.8 1.24772 0.8 1.8V8.8C0.8 9.35229 1.24772 9.8 1.8 9.8H7.8Z" fill="#1B6EAA"/>
</svg>
