<svg width="16" height="16" viewBox="0 0 16 16" fill="none" xmlns="http://www.w3.org/2000/svg">
<path d="M10.163 5.60778L8 1L5.837 5.60778L1 6.35121L4.5 9.93586L3.674 15L8 12.6078L12.326 15L11.5 9.93586L15 6.35121L10.163 5.60778ZM12.9258 7.04416L10.7845 9.23725C10.5627 9.46443 10.4619 9.78346 10.513 10.0968L11.0075 13.1282L8.48392 11.7327C8.1828 11.5662 7.8172 11.5662 7.51608 11.7327L4.99253 13.1282L5.48696 10.0968C5.53807 9.78346 5.43732 9.46443 5.2155 9.23725L3.0742 7.04416L5.98891 6.59618C6.3182 6.54557 6.60066 6.33429 6.74222 6.03271L8 3.35331L9.25778 6.03271C9.39934 6.33429 9.6818 6.54557 10.0111 6.59618L12.9258 7.04416Z" fill="#505D66"/>
</svg>
