<svg width="16" height="16" viewBox="0 0 16 16" fill="none" xmlns="http://www.w3.org/2000/svg">
<path fill-rule="evenodd" clip-rule="evenodd" d="M12.349 1.59998H3.65121C2.93799 1.59998 2.67936 1.67424 2.41862 1.81368C2.15788 1.95313 1.95325 2.15776 1.8138 2.4185C1.67436 2.67924 1.6001 2.93787 1.6001 3.65108V12.3489C1.6001 13.0621 1.67436 13.3207 1.8138 13.5815C1.95325 13.8422 2.15788 14.0468 2.41862 14.1863C2.67936 14.3257 2.93799 14.4 3.65121 14.4H12.349C13.0622 14.4 13.3208 14.3257 13.5816 14.1863C13.8423 14.0468 14.0469 13.8422 14.1864 13.5815C14.3258 13.3207 14.4001 13.0621 14.4001 12.3489V3.65108C14.4001 2.93787 14.3258 2.67924 14.1864 2.4185C14.0469 2.15776 13.8423 1.95313 13.5816 1.81368C13.3208 1.67424 13.0622 1.59998 12.349 1.59998ZM2.7958 2.51916C2.96038 2.43114 3.12163 2.4 3.65111 2.4H12.3489C12.8784 2.4 13.0396 2.43114 13.2042 2.51916C13.3255 2.58404 13.416 2.67448 13.4808 2.7958C13.5689 2.96038 13.6 3.12163 13.6 3.65111V12.3489C13.6 12.8784 13.5689 13.0396 13.4808 13.2042C13.416 13.3255 13.3255 13.416 13.2042 13.4808C13.0396 13.5689 12.8784 13.6 12.3489 13.6H3.65111C3.12163 13.6 2.96038 13.5689 2.7958 13.4808C2.67448 13.416 2.58404 13.3255 2.51916 13.2042C2.43114 13.0396 2.4 12.8784 2.4 12.3489V3.65111C2.4 3.12163 2.43114 2.96038 2.51916 2.7958C2.58404 2.67448 2.67448 2.58404 2.7958 2.51916ZM4 10C4 9.77909 4.17909 9.6 4.4 9.6H11.6C11.8209 9.6 12 9.77909 12 10C12 10.2209 11.8209 10.4 11.6 10.4H4.4C4.17909 10.4 4 10.2209 4 10ZM4.4 5.6C4.17909 5.6 4 5.77909 4 6C4 6.22091 4.17909 6.4 4.4 6.4H11.6C11.8209 6.4 12 6.22091 12 6C12 5.77909 11.8209 5.6 11.6 5.6H4.4Z" fill="#1168A6"/>
</svg>
