<svg width="16" height="16" viewBox="0 0 16 16" fill="none" xmlns="http://www.w3.org/2000/svg">
<path fill-rule="evenodd" clip-rule="evenodd" d="M14 0.8H4.8V7.70002L15.2 7.7V2C15.2 1.33726 14.6627 0.8 14 0.8ZM16 7.7L16 8.5V14C16 15.1046 15.1046 16 14 16H4.8H4H2C0.895431 16 0 15.1046 0 14V2C0 0.895431 0.895431 0 2 0H4H4.8H14C15.1046 0 16 0.895431 16 2L16 7.7ZM15.2 8.5L4.8 8.50002V15.2H14C14.6627 15.2 15.2 14.6627 15.2 14V8.5ZM2 15.2H4V0.8H2C1.33726 0.8 0.8 1.33726 0.8 2V14C0.8 14.6627 1.33726 15.2 2 15.2Z" fill="#1B6EAA"/>
</svg>
