<?xml version="1.0" encoding="UTF-8"?>
<svg width="38px" height="27px" viewBox="0 0 38 27" version="1.1" xmlns="http://www.w3.org/2000/svg" xmlns:xlink="http://www.w3.org/1999/xlink">
    <!-- Generator: sketchtool 51.2 (57519) - http://www.bohemiancoding.com/sketch -->
    <title>EA1D8BA2-FBBD-428C-BA1E-EBAC3716D705</title>
    <desc>Created with sketchtool.</desc>
    <defs></defs>
    <g id="Page-1" stroke="none" stroke-width="1" fill="none" fill-rule="evenodd">
        <g id="Assets_graficos" transform="translate(-565.000000, -609.000000)" fill-rule="nonzero" stroke="#5789AD" stroke-width="1.21">
            <g id="ico-/-cards-/-users" transform="translate(566.000000, 610.000000)">
                <path d="M9.14285714,10.4347826 C11.9831787,10.4347826 14.2857143,8.09887696 14.2857143,5.2173913 C14.2857143,2.33590565 11.9831787,0 9.14285714,0 C6.30253557,0 4,2.33590565 4,5.2173913 C4,8.09887696 6.30253557,10.4347826 9.14285714,10.4347826 Z" id="Path"></path>
                <path d="M25.1428571,10.4347826 C27.9831787,10.4347826 30.2857143,8.09887696 30.2857143,5.2173913 C30.2857143,2.33590565 27.9831787,0 25.1428571,0 C22.3025356,0 20,2.33590565 20,5.2173913 C20,8.09887696 22.3025356,10.4347826 25.1428571,10.4347826 Z" id="Path-Copy"></path>
                <path d="M20.5714286,22.4347826 C20.5714286,16.6718113 15.9663574,12 10.2857143,12 C4.60507114,12 0,16.6718113 0,22.4347826 C0,23.2840216 4.57012559,24.6086957 10.2857143,24.6086957 C16.001303,24.6086957 20.5714286,23.2840216 20.5714286,22.4347826 Z" id="Path"></path>
                <path d="M35.5714286,22.4347826 C35.5714286,16.6718113 30.9663574,12 25.2857143,12 C19.6050711,12 15,16.6718113 15,22.4347826 C15,23.2840216 19.5701256,24.6086957 25.2857143,24.6086957 C31.001303,24.6086957 35.5714286,23.2840216 35.5714286,22.4347826 Z" id="Path-Copy-2"></path>
            </g>
        </g>
    </g>
</svg>