<?xml version="1.0" encoding="UTF-8"?>
<svg width="28px" height="28px" viewBox="0 0 28 28" version="1.1" xmlns="http://www.w3.org/2000/svg" xmlns:xlink="http://www.w3.org/1999/xlink">
    <!-- Generator: sketchtool 51.2 (57519) - http://www.bohemiancoding.com/sketch -->
    <title>270B32B9-4884-4B50-BD7C-E82A74E226BE</title>
    <desc>Created with sketchtool.</desc>
    <defs></defs>
    <g id="Page-1" stroke="none" stroke-width="1" fill="none" fill-rule="evenodd">
        <g id="Assets_graficos" transform="translate(-570.000000, -551.000000)">
            <g id="ico-/-cards-/-widgets" transform="translate(570.000000, 551.000000)">
                <rect id="Rectangle-10" stroke="#5789AD" fill-rule="nonzero" x="0.5" y="0.5" width="11" height="11" rx="2"></rect>
                <rect id="Rectangle-10-Copy-2" stroke="#5789AD" fill-rule="nonzero" x="0.5" y="16.5" width="11" height="11" rx="2"></rect>
                <rect id="Rectangle-10-Copy" stroke="#5789AD" fill-rule="nonzero" x="16.5" y="0.5" width="11" height="11" rx="2"></rect>
                <path d="M20,21 L14.5,21 C14.2238576,21 14,21.2238576 14,21.5 C14,21.7761424 14.2238576,22 14.5,22 L20,22 L20,27.5 C20,27.7761424 20.2238576,28 20.5,28 C20.7761424,28 21,27.7761424 21,27.5 L21,22 L26.5,22 C26.7761424,22 27,21.7761424 27,21.5 C27,21.2238576 26.7761424,21 26.5,21 L21,21 L21,15.5 C21,15.2238576 20.7761424,15 20.5,15 C20.2238576,15 20,15.2238576 20,15.5 L20,21 Z" id="Combined-Shape-Copy-10" fill="#5789AD"></path>
            </g>
        </g>
    </g>
</svg>