<svg width="15" height="12" viewBox="0 0 15 12" fill="none" xmlns="http://www.w3.org/2000/svg">
<path fill-rule="evenodd" clip-rule="evenodd" d="M5 0.8H10C12.3196 0.8 14.2 2.6804 14.2 5V7C14.2 9.3196 12.3196 11.2 10 11.2H0.8V5C0.8 2.6804 2.6804 0.8 5 0.8ZM0 5C0 2.23858 2.23858 0 5 0H10C12.7614 0 15 2.23858 15 5V7C15 9.76142 12.7614 12 10 12H0.8H0V11.2V5ZM4.5 6.5C4.77614 6.5 5 6.27614 5 6C5 5.72386 4.77614 5.5 4.5 5.5C4.22386 5.5 4 5.72386 4 6C4 6.27614 4.22386 6.5 4.5 6.5ZM8 6C8 6.27614 7.77614 6.5 7.5 6.5C7.22386 6.5 7 6.27614 7 6C7 5.72386 7.22386 5.5 7.5 5.5C7.77614 5.5 8 5.72386 8 6ZM10.5 6.5C10.7761 6.5 11 6.27614 11 6C11 5.72386 10.7761 5.5 10.5 5.5C10.2239 5.5 10 5.72386 10 6C10 6.27614 10.2239 6.5 10.5 6.5Z" fill="#1B6EAA"/>
</svg>
