<?xml version="1.0" standalone="no"?>
<!DOCTYPE svg PUBLIC "-//W3C//DTD SVG 1.1//EN" "http://www.w3.org/Graphics/SVG/1.1/DTD/svg11.dtd" >
<svg xmlns="http://www.w3.org/2000/svg">
<metadata>Generated by IcoMoon</metadata>
<defs>
<font id="icomoon" horiz-adv-x="1024">
<font-face units-per-em="1024" ascent="960" descent="-64" />
<missing-glyph horiz-adv-x="1024" />
<glyph unicode="&#x20;" horiz-adv-x="512" d="" />
<glyph unicode="&#xe900;" glyph-name="zoom-out" d="M102.4 524.8c0 183.808 148.992 332.8 332.8 332.8s332.8-148.992 332.8-332.8c0-183.808-148.992-332.8-332.8-332.8s-332.8 148.992-332.8 332.8zM965.568 30.618l-241.613 241.613c59.136 67.581 95.232 155.747 95.232 252.566 0 212.070-171.878 384-384 384-212.070 0-384-171.93-384-384 0-212.118 171.929-383.997 384-383.997 96.819 0 184.986 36.096 252.57 95.232l241.613-241.613c10.035-10.035 26.214-10.035 36.198 0 10.035 9.984 10.035 26.163 0 36.198zM230.413 550.406h409.6c14.138 0 25.6-11.462 25.6-25.6s-11.462-25.6-25.6-25.6h-409.6c-14.139 0-25.6 11.461-25.6 25.6s11.461 25.6 25.6 25.6z" />
<glyph unicode="&#xe901;" glyph-name="zoom-in" d="M102.4 524.8c0 183.808 148.992 332.8 332.8 332.8s332.8-148.992 332.8-332.8c0-183.808-148.992-332.8-332.8-332.8s-332.8 148.992-332.8 332.8zM965.568 30.618l-241.613 241.613c59.136 67.581 95.232 155.747 95.232 252.566 0 212.070-171.878 384-384 384-212.070 0-384-171.93-384-384 0-212.118 171.929-383.997 384-383.997 96.819 0 184.986 36.096 252.57 95.232l241.613-241.613c10.035-10.035 26.214-10.035 36.198 0 10.035 9.984 10.035 26.163 0 36.198zM409.613 550.403h-179.2c-14.139 0-25.6-11.462-25.6-25.6s11.461-25.6 25.6-25.6h179.2v-179.2c0-14.141 11.461-25.603 25.6-25.603s25.6 11.462 25.6 25.603v179.2h179.2c14.138 0 25.6 11.461 25.6 25.6s-11.462 25.6-25.6 25.6h-179.2v179.2c0 14.138-11.462 25.6-25.6 25.6s-25.6-11.462-25.6-25.6v-179.2z" />
<glyph unicode="&#xe902;" glyph-name="warning" d="M1007.469 162.285l-355.629 711.265c-15.132 30.259-39.668 54.795-69.927 69.924-77.236 38.618-171.155 7.312-209.773-69.924l-355.633-711.265c-10.855-21.709-16.507-45.651-16.507-69.926 0-86.349 70.003-156.352 156.356-156.352h711.267c24.275 0 48.211 5.651 69.926 16.506 77.235 38.618 108.538 132.538 69.92 209.773zM559.016 897.675c20.35-10.175 36.852-26.676 47.027-47.027l355.634-711.263c25.971-51.949 4.915-115.11-47.027-141.082-14.605-7.302-30.701-11.104-47.027-11.104h-711.267c-58.076 0-105.156 47.078-105.156 105.158 0 16.32 3.801 32.422 11.102 47.027l355.633 711.263c25.972 51.945 89.136 72.999 141.081 47.027zM512 140.8c-14.138 0-25.6 11.462-25.6 25.6s11.462 25.6 25.6 25.6c14.138 0 25.6-11.462 25.6-25.6s-11.462-25.6-25.6-25.6zM486.4 268.813c0-14.138 11.462-25.6 25.6-25.6s25.6 11.462 25.6 25.6v358.4c0 14.138-11.462 25.6-25.6 25.6s-25.6-11.462-25.6-25.601v-358.399z" />
<glyph unicode="&#xe903;" glyph-name="visualization" d="M570.023 954.984h-64.935c-304.748-0.001-540.008-267.98-500.548-570.163 2.212-16.938 16.644-29.608 33.726-29.608h96.79c-0.733-5.745-0.62-11.75 0.464-17.919 10.062-57.266 31.939-112.095 64.535-160.881 46.213-69.164 111.898-123.070 188.747-154.902s161.412-40.155 242.995-23.932c81.583 16.23 156.523 56.283 215.337 115.105 58.821 58.814 98.875 133.755 115.105 215.338s7.899 166.145-23.932 242.995c-31.832 76.849-85.738 142.533-154.902 188.747-48.786 32.597-103.614 54.473-160.881 64.535-6.168 1.084-12.174 1.197-17.918 0.464v95.64c0 19.099-15.484 34.583-34.583 34.583zM539.388 355.215c35.871 0.327 64.887 29.343 65.214 65.213 2.383 8.327 3.659 17.121 3.659 26.214v310.857c0 4.367 1.811 7.378 3.195 8.689 0.301 0.285 0.526 0.441 0.656 0.519l0.285-0.040c49.3-8.662 96.5-27.495 138.494-55.556 59.546-39.783 105.947-96.329 133.354-162.486 27.399-66.157 34.575-138.955 20.604-209.187s-48.457-134.747-99.087-185.376c-50.637-50.637-115.15-85.124-185.383-99.087-70.232-13.97-143.029-6.802-209.187 20.597-66.157 27.407-122.703 73.808-162.486 133.354-28.061 41.994-46.894 89.195-55.556 138.495l-0.040 0.285c0.078 0.13 0.233 0.355 0.519 0.656 1.311 1.384 4.322 3.196 8.689 3.196h310.857c9.092 0 17.886 1.276 26.213 3.659zM546.091 430.683c-3.585-7.379-9.578-13.372-16.957-16.957l-468.851 0.001c-21.458 258.307 182.575 482.741 444.805 482.742h41.003v-465.786z" />
<glyph unicode="&#xe904;" glyph-name="view-it" d="M512 366.080c-45.243 0-81.92 36.677-81.92 81.92s36.677 81.92 81.92 81.92c45.243 0 81.92-36.677 81.92-81.92s-36.677-81.92-81.92-81.92zM512 311.467c75.405 0 136.533 61.128 136.533 136.533s-61.128 136.533-136.533 136.533c-75.405 0-136.533-61.128-136.533-136.533s61.128-136.533 136.533-136.533z" />
<glyph unicode="&#xe905;" glyph-name="user" d="M399.951 481.332c-55.858 36.575-92.757 99.709-92.757 171.461 0 113.108 91.692 204.8 204.8 204.8s204.8-91.692 204.8-204.8c0-71.752-36.896-134.886-92.757-171.461 143.068-47.044 246.357-181.729 246.357-340.539 0-153.6-716.8-153.6-716.8 0 0 158.81 103.292 293.495 246.357 340.539zM819.194 140.8c0 169.664-137.542 307.2-307.201 307.2-169.662 0-307.2-137.536-307.2-307.2 0-24.998 136.494-64 307.2-64 170.708 0 307.201 39.002 307.201 64zM511.992 499.2c84.831 0 153.601 68.769 153.601 153.6s-68.771 153.6-153.601 153.6c-84.831 0-153.6-68.769-153.6-153.6s68.769-153.6 153.6-153.6z" />
<glyph unicode="&#xe906;" glyph-name="user-role" d="M153.6 652.794c0-71.752 36.899-134.886 92.757-171.461-143.066-47.044-246.357-181.729-246.357-340.539 0-153.6 716.8-153.6 716.8 0 0 158.81-103.292 293.495-246.357 340.539 55.858 36.575 92.757 99.709 92.757 171.461 0 113.108-91.692 204.8-204.8 204.8s-204.8-91.692-204.8-204.8zM742.406 652.8c-14.138 0-25.6-11.462-25.6-25.6s11.462-25.6 25.6-25.6h256c14.138 0 25.6 11.462 25.6 25.6s-11.462 25.6-25.6 25.6h-256zM844.806 499.2c-14.138 0-25.6-11.462-25.6-25.6s11.462-25.6 25.6-25.6h153.6c14.138 0 25.6 11.462 25.6 25.6s-11.462 25.6-25.6 25.6h-153.6zM512.006 652.8c0-84.831-68.769-153.6-153.6-153.6s-153.6 68.769-153.6 153.6c0 84.831 68.769 153.6 153.6 153.6s153.6-68.769 153.6-153.6zM358.4 448c169.662 0 307.2-137.536 307.2-307.2 0-24.998-136.495-64-307.2-64s-307.2 39.002-307.2 64c0 169.664 137.538 307.2 307.2 307.2z" />
<glyph unicode="&#xe907;" glyph-name="url" d="M763.36 908.797c56.102 0 108.794-22.149 148.32-62.43 39.424-40.131 61.126-93.671 61.126-150.677 0-57.057-21.702-110.597-61.126-150.727l-201.254-204.82c-39.526-40.232-92.214-62.382-148.317-62.382-56.052 0-108.739 22.15-148.367 62.382-9.794 10.045-9.794 26.369 0 36.414 9.694 9.844 26.62 9.844 36.263 0 29.884-30.387 69.713-47.162 112.104-47.162 42.441 0 82.218 16.776 112.106 47.162l201.203 204.82c29.882 30.387 46.355 70.969 46.355 114.263 0 43.345-16.474 83.927-46.355 114.314-29.786 30.337-69.613 47.062-112.102 47.062-42.445 0-82.272-16.725-112.058-47.062l-153.889-156.553c-9.594-9.894-26.469-9.945-36.213 0-9.894 9.995-9.894 26.318 0 36.364l153.891 156.604c39.526 40.281 92.218 62.43 148.314 62.43zM334.428 697.513c13.712 0 24.912 11.2 24.912 24.912v96.885c0 13.711-11.2 24.912-24.912 24.912s-24.911-11.201-24.911-24.912v-96.885c0-13.712 11.2-24.912 24.911-24.912zM270.452 665.184c-6.529 0-12.607 2.561-17.178 7.182l-65.795 65.795c-4.621 4.571-7.132 10.648-7.132 17.178 0 6.479 2.511 12.607 7.132 17.177 9.141 9.191 25.163 9.191 34.354 0l65.796-65.846c4.621-4.57 7.132-10.648 7.132-17.177 0-6.479-2.511-12.607-7.132-17.178-4.52-4.57-10.648-7.132-17.177-7.132zM237.569 600.634h-96.886c-13.711 0-24.911 11.201-24.911 24.912 0 13.762 11.2 24.963 24.911 24.963h96.886c13.711 0 24.911-11.201 24.911-24.963 0-13.711-11.2-24.912-24.911-24.912zM704.058 191.302c9.197 9.242 25.165 9.293 34.355 0.051l65.85-65.843c4.621-4.576 7.13-10.701 7.13-17.178 0-6.483-2.56-12.608-7.13-17.178-4.57-4.621-10.701-7.136-17.178-7.136-6.528 0-12.659 2.566-17.229 7.187l-65.798 65.741c-4.57 4.57-7.13 10.701-7.13 17.178 0 6.483 2.56 12.608 7.13 17.178zM531.31 230.47h-0.051c-6.931 0-13.46-2.765-18.383-7.686l-133.048-135.206c-30.537-30.989-71.27-48.070-114.765-48.070-43.445 0-84.178 17.082-114.715 48.070-63.385 64.339-63.385 169.056 0 233.447l193.619 196.633c30.538 31.039 71.27 48.166 114.666 48.166h0.050c43.345 0 84.128-17.127 114.716-48.166 4.922-4.972 11.401-7.734 18.332-7.734h0.051c6.881 0 13.41 2.762 18.332 7.734 10.045 10.146 10.045 26.72 0 36.916-40.381 41.034-94.123 63.636-151.43 63.636-57.257 0-111.099-22.602-151.43-63.636l-193.62-196.633c-40.281-40.884-62.43-95.476-62.43-153.691 0-58.163 22.149-112.704 62.43-153.638 40.332-40.883 94.123-63.437 151.43-63.437 57.358 0 111.149 22.554 151.43 63.437l133.098 135.206c9.996 10.195 9.996 26.771 0 36.915-4.872 4.973-11.35 7.738-18.282 7.738zM600.104 141.235c0 13.76 11.2 24.96 24.911 24.96s24.911-11.2 24.911-24.96v-96.838c0-13.76-11.199-24.96-24.911-24.96s-24.911 11.2-24.911 24.96v96.838zM818.733 263.034h-96.838c-13.76 0-24.96-11.2-24.96-24.96 0-13.715 11.2-24.915 24.96-24.915h96.838c13.76 0 24.96 11.2 24.96 24.915 0 13.76-11.2 24.96-24.96 24.96z" />
<glyph unicode="&#xe908;" glyph-name="upload" d="M460.8 821.386l-263.507-263.242c-10.003-9.992-26.211-9.984-36.204 0.019s-9.984 26.211 0.019 36.204l307.254 306.944c9.997 9.986 26.194 9.985 36.189-0.003l307.149-306.944c9.997-9.994 10.003-26.203 0.006-36.204-9.99-10.001-26.202-10.006-36.198-0.012l-263.507 263.331v-655.078c0-14.138-11.462-25.6-25.6-25.6s-25.6 11.462-25.6 25.6v654.986zM102.4 12.8c0 14.138 11.462 25.6 25.6 25.6h768c14.138 0 25.6-11.462 25.6-25.6s-11.462-25.6-25.6-25.6h-768c-14.138 0-25.6 11.462-25.6 25.6z" />
<glyph unicode="&#xe909;" glyph-name="unlock" d="M512.924 934.398c140.932 0 255.178-114.247 255.178-255.177l-0.038-175.176c53.792-18.189 90.618-69.703 90.618-128.443v-292.556c0-74.598-59.392-135.27-132.352-135.27h-430.134c-72.96 0-132.352 60.672-132.352 135.27v292.556c0 61.901 40.96 115.866 99.584 131.123l453.43 0.051 0.045 172.445c0 112.653-91.325 203.978-203.978 203.978-109.238 0-198.422-85.873-203.728-193.796l-0.25-14.063c0-14.138-11.462-25.6-25.6-25.6s-25.6 11.462-25.6 25.6v3.883c0 140.931 114.248 255.176 255.178 255.176zM726.317 459.775h-430.13c-45.568 0-82.637-37.786-82.637-84.173v-292.556c0-46.387 37.069-84.122 82.637-84.122h430.13c45.568 0 82.637 37.734 82.637 84.122v292.556c0 46.387-37.069 84.173-82.637 84.173zM511.286 291.43c33.434 0 60.672-27.853 60.672-62.106s-27.238-62.106-60.672-62.106c-33.485 0-60.723 27.853-60.723 62.106s27.238 62.106 60.723 62.106z" />
<glyph unicode="&#xe90a;" glyph-name="tools" d="M790.339 40.732l-108.197 108.26 77.509 77.446c12.288 12.351 12.288 32.264 0 44.552-12.351 12.351-32.264 12.351-44.552 0l-77.509-77.446-70.514 70.514 128.866 128.866 223.327-223.264-128.929-128.929zM228.431 14.769l-165.73-0.504 0.315 165.604 525.485 525.17 164.785-164.785-524.855-525.485zM204.485 626.649l77.509 77.446c12.288 12.351 12.288 32.264 0 44.552-12.288 12.351-32.264 12.351-44.552 0l-77.509-77.446-70.829 70.766 128.929 128.929 223.579-223.579-128.929-128.929-108.197 108.26zM745.724 862.2c45.497 45.434 119.225 45.434 164.722 0 45.497-45.497 45.497-119.225 0-164.722l-112.672-112.608-164.722 164.722 112.672 112.608zM740.494 437.539l214.945 214.882c70.388 70.388 70.388 184.446 0 254.771-70.325 70.388-184.446 70.388-254.771 0l-214.945-214.882-267.689 267.689-218.033-218.033 267.689-267.689-267.689-267.752v-254.771h254.771l267.689 267.752 267.878-267.878 218.033 218.033-267.878 267.878z" />
<glyph unicode="&#xe90b;" glyph-name="timeseries" d="M641.706 960c15.081 0 27.307-12.225 27.307-27.306v-68.952h81.921c75.407 0 136.533-61.127 136.533-136.533v-296.059c80.725-38.345 136.533-120.629 136.533-215.939 0-131.959-106.974-238.933-238.933-238.933-95.314 0-177.592 55.808-215.94 136.533h-432.594c-75.406 0-136.533 61.126-136.533 136.533v477.865c0 75.406 61.127 136.533 136.533 136.533h68.267v68.952c0 15.081 12.225 27.306 27.306 27.306s27.307-12.225 27.307-27.306v-68.952h354.987v68.952c0 15.081 12.225 27.306 27.306 27.306zM613.99 283.942c-8.539-21.238-13.244-44.442-13.244-68.731 0-101.799 82.521-184.32 184.321-184.32s184.32 82.521 184.32 184.32c0 66.273-34.987 124.381-87.484 156.865l-0.608 0.341c-14.793 8.408-29.914 14.571-45.090 18.692-1.113 0.3-2.232 0.595-3.352 0.874-90.761 22.825-182.841-26.958-218.864-108.042zM832.853 449.363v141.313h-778.241v-341.331c0-45.247 36.677-81.92 81.921-81.92h410.556c-8.786 51.671-1.048 100.175 18.337 142.001 36.552 85.121 121.131 144.717 219.64 144.717 16.364 0 32.345-1.646 47.787-4.779zM750.933 809.129h-614.4c-45.244 0-81.921-36.679-81.921-81.921v-81.921h778.241v81.921c0 45.242-36.673 81.921-81.92 81.921zM860.16 215.211h-54.613v88.743c0 15.084-12.227 27.309-27.307 27.309s-27.307-12.225-27.307-27.309v-109.223c0-1.161 0.075-2.294 0.212-3.413-0.137-1.12-0.212-2.26-0.212-3.42 0-15.073 12.227-27.3 27.307-27.3h81.92c15.080 0 27.307 12.227 27.307 27.3 0 15.087-12.227 27.313-27.307 27.313z" />
<glyph unicode="&#xe90c;" glyph-name="tick" d="M449.361 363.564l228.111 322.013c18.106 21.723 50.387 24.658 72.109 6.556 21.728-18.102 24.659-50.388 7.725-70.602l-257.167-359.911c-16.751-20.096-45.962-24.333-67.734-9.824l-153.6 102.403c-23.528 15.685-29.885 47.474-14.2 71.002s47.474 29.885 71.002 14.2l113.754-75.836z" />
<glyph unicode="&#xe90d;" glyph-name="table" d="M790.336 857.594h-556.659c-45.646 0-62.198-4.753-78.886-13.677s-29.784-22.021-38.708-38.708c-8.924-16.687-13.677-33.24-13.677-78.886v-556.659c0-45.645 4.753-62.195 13.677-78.886 8.925-16.685 22.021-29.779 38.708-38.707 16.687-8.922 33.24-13.677 78.886-13.677h556.659c45.645 0 62.195 4.755 78.886 13.677 16.685 8.928 29.779 22.022 38.707 38.707 8.922 16.691 13.677 33.242 13.677 78.886v556.659c0 45.646-4.755 62.198-13.677 78.886-8.928 16.687-22.022 29.784-38.707 38.708-16.691 8.924-33.242 13.677-78.886 13.677zM178.931 798.774c10.533 5.633 20.853 7.626 54.74 7.626h556.659c33.888 0 44.205-1.993 54.739-7.626 7.763-4.152 13.555-9.94 17.702-17.705 5.638-10.533 7.629-20.853 7.629-54.74v-556.659c0-33.888-1.99-44.205-7.629-54.739-4.147-7.763-9.939-13.555-17.702-17.702-10.534-5.638-20.851-7.629-54.739-7.629h-556.659c-33.887 0-44.207 1.99-54.74 7.629-7.764 4.147-13.553 9.939-17.705 17.702-5.633 10.534-7.626 20.851-7.626 54.739v556.659c0 33.887 1.993 44.207 7.626 54.74 4.152 7.764 9.94 13.553 17.705 17.705zM256 320c0 14.138 11.462 25.6 25.6 25.6h460.8c14.138 0 25.6-11.462 25.6-25.6s-11.462-25.6-25.6-25.6h-460.8c-14.138 0-25.6 11.462-25.6 25.6zM281.6 601.6c-14.138 0-25.6-11.462-25.6-25.6s11.462-25.6 25.6-25.6h460.8c14.138 0 25.6 11.462 25.6 25.6s-11.462 25.6-25.6 25.6h-460.8z" />
<glyph unicode="&#xe90e;" glyph-name="sync" d="M834.221 652.8h-706.221c-42.415 0-76.8-34.385-76.8-76.8v-307.2c0-14.138-11.462-25.6-25.6-25.6s-25.6 11.462-25.6 25.6v307.2c0 70.692 57.308 128 128 128h706.182l-161.088 161.099c-9.997 9.997-9.99 26.207 0.006 36.204s26.202 9.997 36.205-0.001l204.8-204.814c9.99-9.997 9.997-26.204 0-36.201l-204.8-204.842c-9.997-9.999-26.208-10.001-36.205-0.004s-10.003 26.205-0.006 36.204l161.126 161.156zM350.904 30.842l-161.123 161.158h706.219c70.694 0 128 57.306 128 128v307.2c0 14.138-11.462 25.6-25.6 25.6s-25.6-11.462-25.6-25.6v-102.4c0-0.019 0-0.038 0-0.056v-204.744c0-42.413-34.387-76.8-76.8-76.8h-706.185l161.087 161.099c9.997 9.997 9.997 26.207-0.001 36.204s-26.207 9.997-36.204-0.001l-204.8-204.815c-9.996-9.997-9.997-26.202-0.001-36.198l204.8-204.845c9.996-9.997 26.205-9.997 36.204 0s10.001 26.202 0.004 36.198z" />
<glyph unicode="&#xe90f;" glyph-name="swagger" d="M599.638 720.235c5.436 13.052 20.422 19.227 33.475 13.792 13.050-5.435 19.226-20.422 13.793-33.474l-198.269-476.123c-5.436-13.052-20.422-19.227-33.475-13.792s-19.226 20.422-13.791 33.475l198.268 476.123zM246.328 304.895c10.694-9.249 11.866-25.415 2.618-36.109s-25.416-11.866-36.109-2.618l-203.981 176.409c-8.479 7.333-10.972 19.015-7.031 28.87 0.794 5.205 3.195 10.213 7.204 14.222l190.694 190.694c9.997 9.997 26.207 9.997 36.204 0s9.997-26.206 0-36.204l-174.959-174.959 185.361-160.305zM754.272 643.091c-10.694 9.248-11.866 25.415-2.618 36.109s25.414 11.866 36.109 2.617l203.981-176.409c8.48-7.333 10.976-19.015 7.034-28.87-0.794-5.205-3.194-10.213-7.206-14.222l-190.694-190.694c-9.997-9.997-26.202-9.997-36.205 0-9.997 9.997-9.997 26.206 0 36.204l174.963 174.959-185.363 160.306z" />
<glyph unicode="&#xe910;" glyph-name="swagger-edition" d="M531.168 921.516c8.146 4.723 18.227 4.593 26.248-0.339l429.054-263.81c7.61-4.678 11.68-12.388 12.147-20.292l0.045 0.009v-301.311c-1.197-6.405-4.512-12.484-10.272-16.79l-427.32-319.52c-8.706-6.509-20.574-6.81-29.599-0.749l-456.765 306.637c-7.553 5.070-11.308 13.121-11.331 21.17l-0.125 0.012 1.362 301.097c-3.491 10.852 0.42 23.641 11.523 30.077l455.033 263.809zM333.586 445.865l-197.13-120.227 383.626-257.568v256.45l-186.496 121.345zM748.051 449.193l-176.769-121.984v-256.003l356.404 266.337-179.635 111.65zM545.608 575.047l-163.574-99.615 161.526-105.122 157.004 108.45-154.956 96.287zM115.666 587.625l-1.023-215.296 171.391 104.448-170.368 110.848zM947.411 586.793l-153.408-105.857 153.408-95.359v201.216zM519.954 855.913l-382.154-221.603 196.683-127.966 183.679 112 1.792 237.569zM571.090 852.648l-1.664-232.128 177.089-110.080 179.635 123.935-355.060 218.273z" />
<glyph unicode="&#xe911;" glyph-name="support" d="M958.086 332.047c-44.378-171.228-184.749-303.804-360.251-336.867v132.755c103.739 27.75 187.412 104.595 224.603 204.111h135.648zM968.288 383.247h-131.322c4.154 20.941 6.33 42.593 6.33 64.753 0 1.508-0.013 3.014-0.032 4.518h129.517c0.013-1.504 0.019-3.010 0.019-4.518 0-21.978-1.536-43.596-4.512-64.753zM838.63 503.718c-21.696 128.119-116.947 231.219-240.795 264.349v132.753c195.592-36.849 347.547-197.294 371.63-397.102h-130.835zM546.636 907.518v-130.013c-11.384 1.183-22.939 1.789-34.636 1.789s-23.252-0.606-34.636-1.789v130.013c11.434 0.85 22.984 1.282 34.636 1.282s23.201-0.432 34.636-1.282zM426.164 768.067c-123.848-33.13-219.096-136.23-240.794-264.349h-130.837c24.082 199.809 176.036 360.253 371.63 397.102v-132.753zM51.222 452.518h129.514c-0.020-1.503-0.030-3.009-0.030-4.518 0-22.16 2.175-43.811 6.325-64.753h-131.317c-2.975 21.156-4.514 42.775-4.514 64.753 0 1.508 0.007 3.014 0.022 4.518zM426.164 127.936v-132.755c-175.503 33.062-315.871 165.638-360.253 336.867h135.652c37.188-99.516 120.861-176.361 224.6-204.111zM546.636 118.496v-130.016c-11.434-0.845-22.984-1.28-34.636-1.28s-23.201 0.435-34.636 1.28v130.016c11.384-1.184 22.939-1.792 34.636-1.792s23.252 0.608 34.636 1.792zM1024 448c0 282.77-229.229 512-512 512s-512-229.23-512-512c0-282.771 229.23-512 512-512s512 229.229 512 512zM792.096 448c0-154.694-125.402-280.096-280.096-280.096-154.692 0-280.094 125.402-280.094 280.096 0 154.692 125.402 280.094 280.094 280.094 154.694 0 280.096-125.402 280.096-280.094z" />
<glyph unicode="&#xe912;" glyph-name="store" d="M162.735 908.797c-49.782 0-93.176-31.979-105.251-77.564l-54.245-204.8c-2.151-8.122-3.239-16.463-3.239-24.836 0-54.625 45.316-99.26 102.4-102.241v-435.356c0-42.413 34.385-76.8 76.8-76.8h153.6c42.415 0 76.8 34.387 76.8 76.8v204.8c0 14.138 11.462 25.6 25.6 25.6h153.6c14.138 0 25.6-11.462 25.6-25.6v-204.8c0-42.413 34.387-76.8 76.8-76.8h153.6c42.413 0 76.8 34.387 76.8 76.8v435.36c6.81 0.362 13.574 1.331 20.198 2.894 58.125 13.716 93.466 69.313 78.938 124.179l-54.246 204.8c-12.070 45.585-55.469 77.564-105.248 77.564h-698.507zM153.6 499.197h716.8v-435.197c0-14.138-11.462-25.6-25.6-25.6h-153.6c-14.138 0-25.6 11.462-25.6 25.6v204.8c0 42.413-34.385 76.8-76.8 76.8h-153.6c-42.415 0-76.8-34.387-76.8-76.8v-204.8c0-14.138-11.462-25.6-25.6-25.6h-153.6c-14.138 0-25.6 11.462-25.6 25.6v435.197zM107.437 818.818c6.077 22.792 27.919 38.782 52.976 38.782h703.158c25.062 0 46.899-15.99 52.979-38.782l54.605-204.8c7.315-27.433-10.47-55.231-39.731-62.089-4.333-1.016-8.781-1.529-13.242-1.529h-812.376c-30.159 0-54.607 22.923-54.607 51.2 0 4.186 0.548 8.356 1.63 12.418l54.606 204.8z" />
<glyph unicode="&#xe913;" glyph-name="stop" d="M128 960h768c70.692 0 128-57.308 128-128v-768c0-70.692-57.308-128-128-128h-768c-70.692 0-128 57.308-128 128v768c0 70.692 57.308 128 128 128z" />
<glyph unicode="&#xe914;" glyph-name="stethoscope" d="M822.957 10.163c-35.642 0-64.659 29.408-64.659 65.536 0 36.134 29.018 65.536 64.659 65.536 35.648 0 64.659-29.402 64.659-65.536 0-36.128-29.011-65.536-64.659-65.536zM601.468 903.875c15.896 0 28.819-13.068 28.819-29.159s-12.922-29.16-28.819-29.16c-15.896 0-28.818 13.068-28.818 29.16s12.922 29.159 28.818 29.159zM142.675 874.716c0 16.092 12.922 29.159 28.818 29.159s28.867-13.068 28.867-29.159c0-16.092-12.971-29.16-28.867-29.16s-28.818 13.068-28.818 29.16zM847.488 188.051v138.776c0 57.539-46.272 104.35-103.13 104.35h-1.562c-56.858 0-103.132-46.812-103.132-104.35v-203.288c0-62.515-50.175-113.325-111.908-113.325h-2.73c-61.684 0-111.86 50.81-111.86 113.325v259.364c119.661 12.532 212.845 116.736 212.845 238.982v187.49c26.769 10.289 44.568 36.132 44.568 65.341 0 38.571-31.012 69.924-69.095 69.924-38.132 0-69.096-31.354-69.096-69.924 0-29.208 17.75-55.052 44.569-65.341v-187.49c0-105.18-84.505-190.756-188.319-190.756h-4.291c-103.814 0-188.319 85.577-188.319 190.756v187.49c26.819 10.289 44.569 36.132 44.569 65.341 0 38.571-30.964 69.924-69.096 69.924-38.083 0-69.096-31.354-69.096-69.924 0-29.208 17.798-55.052 44.568-65.341v-187.49c0-124.538 95.037-228.888 217.185-239.421v-258.925c0-89.818 72.119-162.912 160.866-162.912h2.73c88.747 0 160.916 73.094 160.916 162.912v203.288c0 30.183 24.282 54.808 54.125 54.808h1.562c29.843 0 54.074-24.625 54.074-54.808v-138.776c-51.878-11.507-89.184-58.221-89.184-112.346 0-63.443 51.008-115.078 113.715-115.078s113.709 51.635 113.709 115.078c0 54.125-37.299 100.787-89.184 112.346z" />
<glyph unicode="&#xe915;" glyph-name="step-by-step" d="M775.501 901.299c-9.997-9.997-9.997-26.206 0-36.204l109.894-109.899h-629.392c-112.993 0-204.8-74.012-204.8-179.2 0-104.621 93.319-179.2 204.8-179.2h511.997c86.854 0 153.6-53.811 153.6-127.997 0-74.195-66.746-128-153.6-128h-629.388l109.893 109.894c9.997 9.997 9.997 26.208-0.001 36.205s-26.207 9.997-36.204 0l-153.6-153.606c-9.997-10.003-9.997-26.208 0.001-36.205l153.6-153.594c9.998-9.997 26.207-9.997 36.204 0s9.997 26.208-0.001 36.205l-109.903 109.901h629.398c112.998 0 204.8 74.010 204.8 179.2 0 105.185-91.802 179.197-204.8 179.197h-511.997c-85.409 0-153.6 54.497-153.6 128 0 74.189 66.749 128 153.6 128h629.405l-109.907-109.898c-9.997-9.997-9.997-26.206 0-36.204s26.208-9.998 36.205-0.001l153.6 153.592c9.997 9.997 9.997 26.206 0 36.204l-153.6 153.608c-9.997 9.998-26.208 9.998-36.205 0.001z" />
<glyph unicode="&#xe916;" glyph-name="star" d="M512 960l-141.978-360.653-370.022-30.515 282.317-253.44-86.784-379.443 316.467 204.032 316.365-204.032-86.733 379.443 282.317 253.44-370.022 30.515-141.926 360.653zM338.946 333.416l-216.371 194.15 283.392 23.398 106.035 269.21 105.933-269.21 283.441-23.398-216.32-194.15 65.434-286.261-238.488 153.754-238.49-153.754 65.434 286.261z" />
<glyph unicode="&#xe917;" glyph-name="square" d="M931.194 912.648l5.766-0.375c14.989-2.342 26.624-15.126 27.014-30.831l21.466-874.87c0-17.722-14.195-32.173-31.994-32.173h-874.259c-8.349 0-16.368 3.264-22.345 9.094-12.651 12.339-12.903 32.602-0.562 45.248l852.795 874.26c5.83 5.979 13.773 9.441 22.118 9.646zM913.862 834.689l-789.187-809.089h809.027l-19.84 809.089zM760.832 528.545l5.76-0.375c14.995-2.346 26.624-15.132 27.008-30.837l7.52-309.524c0.013-17.715-14.202-32.166-31.994-32.166h-306.038c-8.297 0-16.27 3.219-22.237 8.986-12.708 12.282-13.055 32.538-0.774 45.248l298.521 308.916c5.843 6.045 13.83 9.549 22.234 9.753zM743.494 450.305l-235.202-243.457h241.154l-5.952 243.457z" />
<glyph unicode="&#xe918;" glyph-name="sort" d="M358.406 499.203h307.2l-153.6-153.6-153.6 153.6z" />
<glyph unicode="&#xe919;" glyph-name="sofa" d="M819.2 908.797c56.557 0 102.4-45.846 102.4-102.4v-204.788l51.2-0.006c28.275 0 51.2-22.923 51.2-51.2v-409.603c0-56.55-45.843-102.4-102.4-102.4v-25.6c0-14.138-11.462-25.6-25.6-25.6s-25.6 11.462-25.6 25.6v25.6h-716.8v-25.6c0-14.138-11.462-25.6-25.6-25.6s-25.6 11.462-25.6 25.6v25.6c-56.554 0-102.4 45.85-102.4 102.4v409.603c0 28.277 22.923 51.2 51.2 51.2h51.2v204.794c0 56.554 45.846 102.4 102.4 102.4h614.4zM256 550.403v-116.098c15.060 8.71 32.545 13.695 51.194 13.695h409.6c18.682 0 36.192-5.002 51.264-13.738l-0.058 116.14c-0.013 28.277 22.906 51.209 51.181 51.219l51.213-0.006v204.785c0 28.277-22.925 51.2-51.2 51.2h-614.4c-28.277 0-51.2-22.923-51.2-51.2v-204.797h51.206c28.277 0 51.2-22.923 51.2-51.2zM307.2 243.2h411.034c26.406 0.659 47.84 21.306 49.76 47.373v55.027c0 28.277-22.925 51.2-51.2 51.2h-409.6c-28.007 0-50.762-22.488-51.194-50.392v-52.008c0-28.275 22.923-51.2 51.2-51.2zM716.928 191.981l-409.728 0.019c-56.554 0-102.4 45.85-102.4 102.4v256.002h-153.6v-409.602c0-28.275 22.923-51.2 51.2-51.2h819.2c28.275 0 51.2 22.925 51.2 51.2v409.602l-153.6 0.019 0.134-256.002c0-56.589-45.85-102.438-102.406-102.438z" />
<glyph unicode="&#xe91a;" glyph-name="show-columns" d="M4.302 782.201c7.843 11.764 23.737 14.943 35.5 7.1l57.659-38.439 113.272 135.926c9.051 10.861 25.194 12.329 36.055 3.277s12.328-25.194 3.277-36.055l-127.998-153.597c-8.376-10.051-22.981-12.169-33.867-4.912l-76.799 51.199c-11.764 7.843-14.943 23.736-7.1 35.5zM409.6 768c-14.138 0-25.6-11.462-25.6-25.6s11.462-25.6 25.6-25.6h588.8c14.138 0 25.6 11.462 25.6 25.6s-11.462 25.6-25.6 25.6h-588.8zM409.6 448c-14.138 0-25.6-11.462-25.6-25.6s11.462-25.6 25.6-25.6h588.8c14.138 0 25.6 11.462 25.6 25.6s-11.462 25.6-25.6 25.6h-588.8zM384 102.4c0 14.138 11.462 25.6 25.6 25.6h588.8c14.138 0 25.6-11.462 25.6-25.6s-11.462-25.6-25.6-25.6h-588.8c-14.138 0-25.6 11.462-25.6 25.6zM39.802 469.301c-11.764 7.843-27.658 4.664-35.5-7.1s-4.664-27.658 7.1-35.5l76.799-51.199c10.886-7.257 25.491-5.139 33.867 4.912l127.998 153.597c9.051 10.861 7.583 27.004-3.277 36.055s-27.004 7.583-36.055-3.277l-113.272-135.926-57.659 38.439zM4.302 142.202c7.843 11.763 23.737 14.944 35.5 7.098l57.659-38.438 113.272 135.93c9.051 10.861 25.194 12.326 36.055 3.277s12.328-25.197 3.277-36.058l-127.998-153.594c-8.376-10.054-22.981-12.173-33.867-4.915l-76.799 51.2c-11.764 7.84-14.943 23.738-7.1 35.501z" />
<glyph unicode="&#xe91b;" glyph-name="ship" d="M762.522 809.437h-503.758l-42.496-293.837 40.755 10.65c67.84 17.715 144.742 37.837 227.226 59.802 22.374 5.99 33.843 6.042 56.115 0.051 84.019-22.118 167.528-44.288 262.811-69.734l1.894-0.512-42.547 291.994v1.587zM216.731 111.84c-8.653 0-16.691 4.301-21.504 11.571l-189.081 289.379c-6.4 9.882-7.782 20.326-4.096 30.259 3.994 10.496 13.107 18.534 25.088 21.914 37.683 10.701 85.043 23.296 134.349 36.301l0.819 0.205 45.875 315.085c-0.154 12.442 4.966 24.883 14.131 34.202 8.294 8.397 18.842 13.056 29.696 13.056h233.011v55.143c0 14.182 11.52 25.702 25.651 25.702 14.182 0 25.702-11.52 25.702-25.702v-55.143h233.010c24.371 0 44.134-23.194 44.134-51.814l45.619-310.63 0.819-0.205c48.282-13.005 94.874-25.6 133.786-36.25 14.746-5.376 23.706-13.978 26.624-25.498 2.662-10.24 0.154-20.838-6.963-29.338l-171.776-285.59c-7.219-11.981-22.989-15.923-35.277-8.806-5.837 3.533-9.984 9.114-11.622 15.77-1.638 6.707-0.563 13.568 2.97 19.456l162.662 269.974-1.638 0.41c-33.536 9.165-69.734 19.251-111.616 30.925-82.227 22.989-184.525 51.558-308.888 84.378-0.154 0.051-0.307 0.102-0.358 0.102l-1.741 0.717v-1.894c0-0.461 0.102-0.819 0.205-1.126 0.051-0.154 0.102-0.307 0.102-0.41v-450.403c0-14.131-11.52-25.651-25.702-25.651-14.131 0-25.651 11.52-25.651 25.651l0.051 450.506c0 0.122 0.032 0.243 0.071 0.39 0.010 0.039 0.021 0.079 0.031 0.122l0.307 1.946-1.894-0.512c-181.453-48.384-322.867-86.784-420.249-114.125l-1.69-0.512 176.537-269.872c3.738-5.734 5.069-12.595 3.635-19.302-1.382-6.707-5.376-12.493-11.11-16.23-4.147-2.714-9.011-4.147-14.029-4.147zM753.274 82.298c85.35 0 171.622-27.341 256.307-81.357 5.786-3.686 9.779-9.472 11.264-16.179 1.485-6.656 0.256-13.517-3.43-19.251-4.71-7.475-12.851-11.93-21.709-11.93-4.813 0-9.574 1.434-13.722 3.994-76.339 48.691-153.293 73.421-228.71 73.421-53.146 0-78.285-16.077-107.418-34.714l-0.192-0.122c-31.288-19.936-66.814-42.579-134.822-42.579-67.949 0-103.527 22.637-134.863 42.573l-0.203 0.128c-29.184 18.637-54.426 34.714-107.571 34.714-75.469 0-152.422-24.73-228.71-73.421-11.981-7.475-27.904-3.942-35.43 7.936-3.686 5.734-4.915 12.595-3.482 19.302 1.485 6.656 5.478 12.442 11.315 16.128 84.634 54.016 170.906 81.357 256.307 81.357 68.147 0 103.731-22.682 135.117-42.701l0.089-0.051c29.146-18.566 54.34-34.611 107.431-34.611 53.197 0 78.336 16.077 107.52 34.765 31.334 19.968 66.867 42.598 134.911 42.598z" />
<glyph unicode="&#xe91c;" glyph-name="shield" d="M241.513 823.63l205.345 29.333c43.222 6.174 87.102 6.174 130.324 0l205.346-29.333c50.445-7.206 87.917-50.411 87.917-101.371v-279.213c0-60.191-26.477-117.335-72.397-156.25l-220.471-186.816c-38.262-32.422-94.376-32.358-132.568 0.147l-219.353 186.688c-45.719 38.912-72.062 95.924-72.062 155.961v279.482c0 50.96 37.472 94.165 87.919 101.371zM248.76 772.951l-5.7-1.144c-22.296-5.805-38.26-26.021-38.26-49.541v-279.482c0-45.027 19.757-87.787 54.047-116.97l219.352-186.69c19.096-16.256 47.153-16.282 66.285-0.077l220.47 186.82c34.438 29.185 54.298 72.042 54.298 117.186v279.213c0 25.48-18.733 47.082-43.962 50.685l-205.341 29.333c-38.42 5.488-77.425 5.488-115.844 0l-205.345-29.333z" />
<glyph unicode="&#xe91d;" glyph-name="share" d="M819.206 601.597c84.832 0 153.6 68.769 153.6 153.6s-68.768 153.6-153.6 153.6c-84.832 0-153.6-68.769-153.6-153.6 0-14.079 1.894-27.716 5.44-40.671l-165.14-105.091c-46.94 57.699-118.509 94.558-198.687 94.558-141.385 0-256-114.615-256-256 0-141.382 114.615-256 256-256 80.18 0 151.75 36.864 198.69 94.56l165.138-105.088c-3.546-12.954-5.44-26.592-5.44-40.666 0-84.832 68.768-153.6 153.6-153.6s153.6 68.768 153.6 153.6c0 84.826-68.768 153.6-153.6 153.6-52.339 0-98.566-26.182-126.298-66.157l-158.809 101.059c18.598 35.478 29.119 75.856 29.119 118.691s-10.521 83.216-29.12 118.695l158.81 101.062c27.731-39.976 73.958-66.154 126.298-66.154zM512.019 447.994c0-113.108-91.692-204.8-204.8-204.8s-204.8 91.692-204.8 204.8c0 113.108 91.692 204.8 204.8 204.8s204.8-91.692 204.8-204.8zM921.606 755.197c0-56.554-45.843-102.4-102.4-102.4s-102.4 45.846-102.4 102.4c0 56.554 45.843 102.4 102.4 102.4s102.4-45.846 102.4-102.4zM921.606 140.8c0-56.557-45.843-102.4-102.4-102.4s-102.4 45.843-102.4 102.4c0 56.55 45.843 102.4 102.4 102.4s102.4-45.85 102.4-102.4z" />
<glyph unicode="&#xe91e;" glyph-name="send" d="M704.627 134.118l-297.577 193.128 3.482 3.379 479.439 467.149-185.344-663.656zM486.562 208.307l-103.987-119.603v191.949l106.854-69.018-2.867-3.328zM362.563 355.663l-230.963 150.17 689.258 296.192-458.294-446.362zM930.618 907.078l-863.591-371.508c-8.55-3.891-14.643-12.493-15.77-22.426-0.512-9.779 4.147-19.456 11.93-24.371l269.158-174.54v-293.12c0-10.906 6.349-20.531 16.23-24.627 2.56-1.075 5.734-1.638 9.165-1.638 7.219 0 13.568 2.918 18.278 8.448l156.774 181.094 2.765-1.843 170.753-111.206c3.43-2.509 8.038-3.891 12.851-3.891 3.277 0 5.939 0.512 9.267 1.741 7.373 2.765 12.902 8.96 15.053 16.998l220.621 788.838c2.765 9.216-0.154 20.326-7.066 27.034-6.81 6.554-16.998 8.499-26.419 5.018v0z" />
<glyph unicode="&#xe91f;" glyph-name="security-alarm" d="M511.233 145.203c-206.029 0-373.658 169.011-373.658 376.68 0 207.77 167.629 376.73 373.658 376.73s373.657-168.96 373.657-376.73c0-207.668-167.629-376.68-373.657-376.68v0zM884.89 83.046c0-46.387-37.478-84.122-83.507-84.122h-580.3c-46.029 0-83.507 37.734-83.507 84.122v146.278c0 14.592 3.738 28.928 10.906 41.523l8.499 15.053 9.984-14.029c79.667-111.36 208.333-177.818 344.269-177.818s264.652 66.458 344.268 177.818l9.984 13.978 8.499-14.95c7.168-12.544 10.906-26.931 10.906-41.574v-146.278zM890.803 330.451l3.328 6.963c27.443 57.907 41.318 119.962 41.318 184.474 0 235.93-190.31 427.878-424.195 427.878-233.882 0-424.192-191.949-424.192-427.878 0-64.563 13.926-126.618 41.37-184.474l3.277-6.963-5.427-5.478c-25.293-25.548-39.219-59.545-39.219-95.641v-146.278c0-74.598 60.16-135.27 134.042-135.27h580.304c73.882 0 134.042 60.672 134.042 135.27v146.278c0 36.096-13.926 70.093-39.219 95.641l-5.427 5.478zM511.232 437.757c-46.029 0-83.507 37.734-83.507 84.122 0 46.438 37.478 84.122 83.507 84.122s83.558-37.683 83.558-84.122c0-46.387-37.53-84.122-83.558-84.122v0zM511.243 657.2c-73.933 0-134.093-60.723-134.093-135.322s60.16-135.27 134.093-135.27c73.882 0 134.044 60.672 134.044 135.27s-60.162 135.322-134.044 135.322v0z" />
<glyph unicode="&#xe920;" glyph-name="search" d="M102.404 524.796c0 183.808 148.992 332.8 332.8 332.8s332.803-148.992 332.803-332.8c0-183.808-148.995-332.803-332.803-332.803s-332.8 148.995-332.8 332.803zM965.581 30.611l-241.613 241.619c59.136 67.581 95.232 155.747 95.232 252.566 0 212.070-171.878 384-383.997 384-212.070 0-384-171.93-384-384 0-212.118 171.93-383.997 384-383.997 96.819 0 184.986 36.096 252.566 95.232l241.619-241.613c10.035-10.035 26.208-10.035 36.192 0 10.035 9.984 10.035 26.157 0 36.192z" />
<glyph unicode="&#xe921;" glyph-name="scan" d="M972.8 960h51.2v-307.2h-51.2v256h-256v51.2h256zM204.8 499.2c0 141.385 114.615 256 256 256s256-114.615 256-256c0-74.532-31.853-141.625-82.684-188.41l177.75-177.472c10.003-9.99 10.016-26.195 0.026-36.205-9.99-10.003-26.195-10.016-36.205-0.026l-179.374 179.098c-1.199 1.197-2.253 2.483-3.165 3.834-38.62-23.366-83.912-36.819-132.347-36.819-141.385 0-256 114.615-256 256zM51.2 243.2v-256h256v-51.2h-307.2v307.2h51.2zM972.8 243.2v-256h-256v-51.2h307.2v307.2h-51.2zM0 652.8h51.2v256h256v51.2h-307.2v-307.2zM460.8 294.4c113.108 0 204.8 91.692 204.8 204.8s-91.692 204.8-204.8 204.8c-113.108 0-204.8-91.692-204.8-204.8s91.692-204.8 204.8-204.8z" />
<glyph unicode="&#xe922;" glyph-name="save" d="M737.778 925.867l231.608-220.398v-639.762c0-52.784-42.79-95.573-95.573-95.573h-778.241c-52.783 0-95.573 42.79-95.573 95.573v764.587c0 52.784 42.789 95.573 95.573 95.573h642.206zM715.981 871.253h-24.303l0.061-109.227c0-49.679-37.903-90.505-86.368-95.136l-9.204-0.438h-248.006c-52.784 0-95.574 42.79-95.574 95.573v109.227h-157.014c-20.359 0-37.249-14.854-40.424-34.316l-0.535-6.644v-764.587c0-22.624 18.338-40.96 40.959-40.96h778.241c22.624 0 40.96 18.336 40.96 40.96v616.38l-198.793 189.167zM491.52 557.227c113.108 0 204.8-91.692 204.8-204.8 0-113.111-91.692-204.8-204.8-204.8s-204.8 91.689-204.8 204.8c0 113.108 91.692 204.8 204.8 204.8zM491.52 502.613c-82.946 0-150.187-67.241-150.187-150.187s67.241-150.187 150.187-150.187c82.945 0 150.186 67.241 150.186 150.187s-67.241 150.187-150.186 150.187zM637.065 871.253h-329.865v-109.227c0-20.359 14.853-37.25 34.316-40.424l6.645-0.536h248.006c22.622 0 40.961 18.338 40.961 40.96l-0.063 109.227z" />
<glyph unicode="&#xe923;" glyph-name="ruler" d="M811.565 842.471c-20.173 20.174-52.883 20.174-73.056 0l-620.972-620.973c-20.174-20.173-20.174-52.883 0-73.056l146.111-146.112c20.173-20.173 52.882-20.173 73.055 0l620.973 620.975c20.173 20.174 20.173 52.882 0 73.056l-146.112 146.111zM665.446 696.371l54.797-54.793c10.086-10.087 26.438-10.087 36.525 0s10.086 26.441 0 36.528l-54.79 54.792 73.043 73.046 146.112-146.111-620.972-620.972-146.111 146.112 73.049 73.050 54.793-54.797c10.087-10.086 26.441-10.086 36.527 0s10.087 26.445 0 36.531l-54.792 54.79 73.072 73.073 91.321-91.32c10.086-10.086 26.44-10.086 36.527 0s10.087 26.438 0 36.525l-91.32 91.322 73.047 73.048 54.793-54.793c10.086-10.087 26.441-10.087 36.527 0s10.087 26.441 0 36.528l-54.792 54.792 73.047 73.048 91.319-91.321c10.086-10.086 26.445-10.086 36.531 0s10.086 26.441 0 36.528l-91.322 91.32 73.069 73.073z" />
<glyph unicode="&#xe924;" glyph-name="restapi" d="M66.265 869.641v-722.824c0-46.574 37.756-84.329 84.33-84.329h359.582v-27.425l2.544-5.090c4.812-9.626 13.835-17.185 23.422-23.022 10.219-6.222 23.71-12.071 40.823-17.131 34.235-10.132 84.919-17.685 157.652-17.685 72.734 0 123.416 7.554 157.654 17.685 17.113 5.060 30.606 10.909 40.821 17.131 9.589 5.837 18.613 13.396 23.426 23.022l2.542 5.090v109.785c0 0.488-0.012 0.976-0.030 1.452l0.030 0.066v132.048l-0.006 0.518-0.024 0.934 0.030 0.066v132.050c0 6.786-2.132 12.598-5.596 17.181 2.47 3.982 3.759 8.088 3.759 12.284 0 17.589-22.667 33.589-59.711 45.516v382.678c0 46.574-37.755 84.33-84.329 84.33h-662.588c-46.574 0-84.33-37.756-84.33-84.33zM849.324 869.641v-180.706h-734.871v180.706c0 19.96 16.181 36.141 36.141 36.141h662.588c19.962 0 36.141-16.181 36.141-36.141zM114.453 628.7h734.871v-130.008c-33.503 6.054-72.746 9.537-114.706 9.537-122.946 0-222.612-29.9-222.612-66.782 0-4.198 1.291-8.306 3.761-12.29-3.46-4.583-5.59-10.392-5.59-17.175v-24.223h-395.724v240.941zM114.453 327.523h395.724v-47.592l0.033-0.066c-0.022-0.476-0.033-0.964-0.033-1.452v-132.048l0.033-0.066c-0.022-0.476-0.033-0.964-0.033-1.452v-34.171h-359.582c-19.96 0-36.141 16.179-36.141 36.141v180.706zM914.046 456.49l-0.313-0.285c0.253 0.284 0.416 0.423 0.434 0.422 0.006 0-0.006-0.013-0.024-0.037l-0.096-0.099zM878.176 442.513c1.187-0.355 2.337-0.711 3.464-1.066-1.126-0.355-2.277-0.711-3.464-1.067-34.659-10.398-85.426-17.528-143.559-17.528-58.139 0-108.905 7.13-143.564 17.528-1.185 0.355-2.338 0.711-3.462 1.067 1.123 0.355 2.277 0.711 3.462 1.066 34.659 10.398 85.425 17.528 143.564 17.528 58.133 0 108.899-7.13 143.559-17.528zM555.063 456.627c-0.016-0.001 0.111-0.143 0.432-0.422-0.255 0.284-0.416 0.423-0.432 0.422zM734.618 287.455h-2.247c-40.183 0.054-78.511 1.65-110.768 4.741-27.206 2.602-48.737 6.15-63.237 10.192v83.966c16.974-3.716 37.075-6.5 58.649-8.564 34.746-3.324 75.481-4.959 117.603-4.959s82.86 1.635 117.603 4.959c21.576 2.064 41.677 4.848 58.651 8.564v-83.966c-14.499-4.042-36.033-7.59-63.235-10.192-32.262-3.090-70.584-4.686-110.773-4.741h-2.247zM888.266 244.995c8.282 0.982 15.824 2.126 22.606 3.488v-79.661c-14.499-4.042-36.033-7.59-63.235-10.192-32.262-3.090-70.584-4.686-110.773-4.741h-4.494c-40.183 0.054-78.511 1.65-110.768 4.741-27.206 2.602-48.737 6.15-63.237 10.192v79.661c6.784-1.361 14.326-2.506 22.604-3.488 32.502-3.843 81.233-5.692 151.359-5.728h4.578c70.126 0.036 118.856 1.885 151.359 5.728zM888.266 111.429c8.282 0.982 15.824 2.126 22.606 3.488v-64.952c-0.765-0.542-1.699-1.163-2.831-1.855-5.783-3.518-15.203-7.873-29.443-12.083-28.461-8.421-74.246-15.703-143.98-15.703s-115.515 7.282-143.981 15.703c-14.238 4.21-23.657 8.565-29.438 12.083-1.133 0.693-2.068 1.313-2.833 1.855v64.952c6.784-1.361 14.326-2.506 22.604-3.488 32.502-3.843 81.233-5.692 151.359-5.728h4.578c70.126 0.036 118.856 1.885 151.359 5.728zM240.948 195.006c16.633 0 30.118 13.481 30.118 30.118 0 16.631-13.484 30.118-30.118 30.118s-30.118-13.487-30.118-30.118c0-16.637 13.484-30.118 30.118-30.118zM271.065 508.229c0-16.633-13.484-30.118-30.118-30.118s-30.118 13.484-30.118 30.118c0 16.633 13.484 30.118 30.118 30.118s30.118-13.484 30.118-30.118zM240.947 761.218c16.633 0 30.118 13.484 30.118 30.118s-13.484 30.118-30.118 30.118c-16.633 0-30.118-13.484-30.118-30.118s13.484-30.118 30.118-30.118z" />
<glyph unicode="&#xe925;" glyph-name="reset" d="M248.5 353.047c9.999 9.996 10.001 26.205 0.004 36.204l-161.123 161.155h834.219c28.275 0 51.2-22.923 51.2-51.2v-307.199c0-28.275-22.925-51.2-51.2-51.2h-384c-14.138 0-25.6-11.462-25.6-25.6s11.462-25.6 25.6-25.6h384c56.557 0 102.4 45.843 102.4 102.4v307.199c0 56.554-45.843 102.4-102.4 102.4h-834.186l161.088 161.099c9.997 9.998 9.997 26.207-0.001 36.204s-26.207 9.997-36.204-0.001l-204.8-204.814c-9.996-9.997-9.997-26.204-0.001-36.201l204.8-204.842c9.996-9.998 26.205-10 36.204-0.003z" />
<glyph unicode="&#xe926;" glyph-name="reload" d="M102.4 755.203h819.2c56.557 0 102.4-45.846 102.4-102.4v-307.2c0-56.554-45.843-102.403-102.4-102.403h-322.22l161.125-161.152c9.997-9.997 9.99-26.208-0.006-36.205s-26.208-9.997-36.205 0.006l-204.798 204.838c-9.996 9.997-9.995 26.208 0.001 36.205l204.797 204.812c10.003 9.997 26.208 9.998 36.205 0.001s10.003-26.206 0.006-36.204l-161.091-161.101h322.185c28.275 0 51.2 22.925 51.2 51.203v307.2c0 28.276-22.925 51.2-51.2 51.2h-819.2c-28.277 0-51.2-22.924-51.2-51.2v-307.2c0-28.278 22.923-51.203 51.2-51.203h230.4c14.138 0 25.6-11.456 25.6-25.6 0-14.138-11.462-25.6-25.6-25.6h-230.4c-56.554 0-102.4 45.85-102.4 102.403v307.2c0 56.554 45.846 102.4 102.4 102.4z" />
<glyph unicode="&#xe927;" glyph-name="pushpin" d="M256.096 243.2h204.804v-254.982c0-4.397 1.132-8.717 3.288-12.55l22.312-39.667 22.312 39.667c2.156 3.834 3.288 8.154 3.288 12.55v254.982h204.796c43.744 0 67.341 51.302 38.874 84.517l-128.948 150.44c-7.954 9.279-12.326 21.098-12.326 33.32v219.546c0 7.949 1.85 15.788 5.405 22.897l40.387 80.779c17.024 34.043-7.731 74.097-45.792 74.097h-256c-38.061 0-62.817-40.054-45.795-74.097l40.389-80.779c3.555-7.109 5.405-14.948 5.405-22.897v-219.546c0-12.222-4.372-24.041-12.326-33.32l-128.948-150.44c-28.467-33.215-4.869-84.517 38.874-84.517zM716.902 294.4h-460.803l128.948 150.439c15.908 18.559 24.652 42.197 24.652 66.641v219.546c0 15.897-3.701 31.576-10.81 45.795l-40.39 80.779h256l-40.389-80.779c-7.11-14.219-10.811-29.898-10.811-45.795v-219.546c0-24.444 8.744-48.082 24.652-66.641l128.95-150.439z" />
<glyph unicode="&#xe928;" glyph-name="print" d="M687.949 908.797h-351.859c-45.645 0-62.198-4.753-78.885-13.677s-29.784-22.021-38.708-38.708c-8.925-16.687-13.677-33.24-13.677-78.886v-124.729h-22.329c-45.645 0-62.198-4.753-78.885-13.677s-29.784-22.021-38.708-38.708c-8.925-16.687-13.677-33.24-13.677-78.886v-249.455c0-45.651 4.753-62.202 13.677-78.886 8.924-16.691 22.021-29.786 38.708-38.707 16.687-8.928 33.24-13.677 78.885-13.677h22.342v-73.53c0-45.645 4.753-62.195 13.677-78.886 8.925-16.685 22.021-29.779 38.708-38.707 16.687-8.922 33.24-13.677 78.886-13.677h351.859c45.645 0 62.195 4.755 78.886 13.677 16.685 8.928 29.779 22.022 38.707 38.707 8.922 16.691 13.677 33.242 13.677 78.886v73.53h22.317c45.645 0 62.195 4.749 78.886 13.677 16.685 8.922 29.779 22.016 38.707 38.707 8.922 16.685 13.677 33.235 13.677 78.886v249.455c0 45.646-4.755 62.198-13.677 78.886-8.928 16.687-22.022 29.784-38.707 38.708-16.691 8.924-33.242 13.677-78.886 13.677h-22.33v124.729c0 45.646-4.755 62.198-13.677 78.886-8.928 16.687-22.022 29.784-38.707 38.708-16.691 8.924-33.242 13.677-78.886 13.677zM204.819 601.6v-0.003l636.743 0.003c33.888 0 44.205-1.993 54.739-7.626 7.763-4.152 13.549-9.94 17.702-17.705 5.638-10.533 7.629-20.853 7.629-54.74v-249.459c0-33.888-1.99-44.205-7.629-54.739-4.154-7.763-9.939-13.555-17.702-17.702-10.534-5.638-20.851-7.629-54.739-7.629h-23.187c-1.734 24.934-6.093 37.44-12.819 50.016-8.928 16.685-22.022 29.779-38.707 38.707-16.691 8.922-33.242 13.677-78.886 13.677h-351.859c-45.646 0-62.198-4.755-78.886-13.677-16.687-8.928-29.784-22.022-38.708-38.707-6.726-12.576-11.082-25.082-12.82-50.016h-23.185c-33.887 0-44.207 1.99-54.74 7.629-7.765 4.147-13.553 9.939-17.705 17.702-5.633 10.534-7.626 20.851-7.626 54.739v249.459c0 33.887 1.993 44.207 7.626 54.74 4.152 7.764 9.94 13.553 17.705 17.705 10.533 5.633 20.852 7.626 54.74 7.626h22.316zM336.102 243.2h351.859c33.888 0 44.205-1.99 54.739-7.629 7.763-4.147 13.549-9.939 17.702-17.702 5.638-10.534 7.629-20.851 7.629-54.739v-95.859c0-33.888-1.99-44.205-7.629-54.739-4.154-7.763-9.939-13.555-17.702-17.702-10.534-5.638-20.851-7.629-54.739-7.629h-351.859c-33.887 0-44.207 1.99-54.74 7.629-7.765 4.147-13.553 9.939-17.705 17.702-5.633 10.534-7.626 20.851-7.626 54.739v95.859c0 33.888 1.993 44.205 7.626 54.739 4.152 7.763 9.94 13.555 17.705 17.702 10.533 5.638 20.852 7.629 54.74 7.629zM256.019 652.797v124.729c0 33.887 1.993 44.207 7.626 54.74 4.153 7.764 9.94 13.553 17.706 17.705 10.533 5.633 20.852 7.626 54.739 7.626h351.859c33.888 0 44.205-1.993 54.739-7.626 7.763-4.152 13.555-9.94 17.702-17.705 5.638-10.533 7.629-20.853 7.629-54.74v-124.729h-512.001zM256.019 447.997c0-28.277-22.923-51.2-51.2-51.2s-51.2 22.923-51.2 51.2c0 28.277 22.924 51.2 51.2 51.2s51.2-22.923 51.2-51.2z" />
<glyph unicode="&#xe929;" glyph-name="previous" d="M230.397 857.601c14.139 0 25.6-10.79 25.6-24.102v0-770.997c0-13.312-11.461-24.102-25.6-24.102s-25.6 10.79-25.6 24.102v0 770.997c0 13.311 11.462 24.102 25.6 24.102zM819.2 833.46v-770.92c0-21.466-27.578-32.211-43.699-17.037l-409.603 385.461c-9.997 9.408-9.997 24.662 0 34.070l409.603 385.46c16.122 15.177 43.699 4.428 43.699-17.035zM767.994 775.3l-347.793-327.299 347.793-327.297v654.596z" />
<glyph unicode="&#xe92a;" glyph-name="preference" d="M972.819 703.994c0 95.99-66.035 176.555-155.162 198.743-15.898 3.959-32.531 6.060-49.651 6.060l-1.146-0.003h-459.642c-113.108 0-204.8-91.692-204.8-204.8s91.692-204.8 204.8-204.8h460.801c113.107 0 204.8 91.692 204.8 204.8zM632.54 550.397h-325.334c-84.831 0-153.6 68.769-153.6 153.6s68.769 153.6 153.6 153.6h325.334c-42.518-37.526-69.334-92.431-69.334-153.6s26.816-116.073 69.334-153.6zM768.013 396.797c113.107 0 204.8-91.69 204.8-204.797 0-113.114-91.693-204.8-204.8-204.8h-460.8c-32.807 0-63.812 7.712-91.301 21.421-67.287 33.568-113.505 103.078-113.505 183.379 0 113.107 91.692 204.8 204.8 204.8l460.806-0.003zM512.006 192c0-61.171-26.817-116.070-69.334-153.6h325.334c84.832 0 153.6 68.768 153.6 153.6s-68.768 153.6-153.6 153.6h-325.334c42.517-37.53 69.334-92.429 69.334-153.6zM921.606 704c0-84.831-68.768-153.6-153.6-153.6s-153.6 68.769-153.6 153.6c0 84.831 68.768 153.6 153.6 153.6s153.6-68.769 153.6-153.6zM460.8 192c0 84.832-68.769 153.6-153.6 153.6s-153.6-68.768-153.6-153.6c0-84.832 68.769-153.6 153.6-153.6s153.6 68.768 153.6 153.6z" />
<glyph unicode="&#xe92b;" glyph-name="polygon" d="M951.13 554.802l-408.566 292.979c-18.246 13.084-42.874 13.084-61.12 0l-408.566-292.979c-18.434-13.219-26.15-36.769-19.081-58.241l155.91-473.597c7.024-21.338 27.053-35.77 49.641-35.77h505.312c22.586 0 42.618 14.432 49.638 35.77l155.91 473.597c7.072 21.472-0.646 45.023-19.078 58.241zM102.707 513.2c0 0 409.602 293.274 410.013 292.979 0 0 408.919-293.404 408.849-293.602 0 0-156.397-474.177-156.915-474.177 0 0-506.223 0.282-506.321 0.576 0 0-155.9 474.028-155.625 474.224z" />
<glyph unicode="&#xe92c;" glyph-name="play" d="M324.837 749.177l416.859-250.115c23.494-14.098 33.018-48.383 21.274-76.579-4.602-11.046-12.070-20.003-21.274-25.526l-416.859-250.115c-23.496-14.099-52.067-2.669-63.816 25.523-3.302 7.93-5.021 16.666-5.021 25.53v500.23c0 31.523 21.296 57.078 47.565 57.078 7.384 0 14.667-2.063 21.272-6.026z" />
<glyph unicode="&#xe92d;" glyph-name="photo" d="M972.8 960h-256v-51.2h256v-256h51.2v307.2h-51.2zM0 243.2h51.2v-256h256v-51.2h-307.2v307.2zM1024 243.2h-51.2v-256h-256v-51.2h307.2v307.2zM0 652.8v307.2h307.2v-51.2h-256v-256h-51.2z" />
<glyph unicode="&#xe92e;" glyph-name="phone" d="M637.316 270.598l62.722 62.719c8.806 8.806 18.176 13.414 27.136 13.414 11.213 0 20.326-7.219 26.112-13.414l101.171-101.017c18.074-18.074 17.869-36.966-0.614-56.218-6.758-7.168-13.722-14.029-22.17-22.118l-1.69-1.638c-11.315-11.008-22.989-22.323-33.536-34.97-18.33-19.712-39.987-28.877-68.25-28.877-2.765 0-5.683 0.154-8.397 0.307-54.17 3.482-104.757 24.678-142.799 42.803-103.885 50.278-194.816 121.498-270.285 211.763-62.157 74.854-103.987 144.486-131.686 219.187-16.845 45.056-23.501 81.51-20.838 114.739 1.894 21.248 10.189 38.861 25.19 53.862l62.413 62.413c17.101 16.538 36.608 17.203 54.067-0.461 9.574-8.858 18.637-18.125 28.262-27.904l72.243-72.602c9.472-9.472 14.285-18.842 14.285-27.802s-4.813-18.33-14.285-27.802l-18.842-18.995c-14.387-14.592-27.955-28.314-42.854-41.523l-1.024-1.024c-15.974-16.026-13.158-31.898-9.626-42.445l0.614-1.741c13.363-32 31.693-61.901 59.648-97.075 50.534-62.259 103.834-110.797 162.918-148.377 6.246-4.045 12.698-7.322 18.995-10.496l3.635-1.843c6.4-3.174 12.595-6.349 19.046-10.342l1.229-0.717c16.486-8.448 33.587-5.581 47.206 8.192zM890.707 268.998l-100.813 100.813c-18.074 18.79-39.782 28.723-62.72 28.723-22.784 0-44.646-9.882-63.334-28.467l-57.345-57.395c-4.557 2.509-9.114 4.813-13.466 6.963-6.4 3.226-12.595 6.349-17.971 9.83-54.118 34.355-103.424 79.206-150.63 137.114-22.989 29.082-38.298 53.146-49.203 77.414 14.541 13.312 28.314 27.238 42.342 41.574 5.018 5.171 10.189 10.342 15.36 15.514 19.2 19.2 29.338 41.37 29.338 64 0 22.886-10.138 45.056-29.338 64.051l-49.971 49.971c-5.734 5.734-11.11 11.264-17.101 17.408-10.342 10.65-22.426 22.989-34.15 33.792-18.227 17.869-39.834 27.29-62.618 27.29-22.579 0-44.39-9.472-63.334-27.443l-62.72-62.771c-23.706-23.706-37.12-52.582-39.885-85.76-3.277-40.858 4.25-84.224 23.603-136.397 29.594-80.282 74.138-154.726 140.288-234.24 80.179-95.795 176.896-171.52 287.488-225.126 42.445-20.173 99.226-43.776 161.895-47.872l1.69-0.051c3.328-0.154 6.554-0.256 9.933-0.256 43.213 0 78.080 14.95 105.984 45.363l1.28 1.434c8.806 10.65 18.739 20.275 29.286 30.515l2.662 2.611c7.987 7.629 16.077 15.565 23.859 23.654 37.888 39.475 37.734 89.651-0.41 127.744v0z" />
<glyph unicode="&#xe92f;" glyph-name="overflow" d="M614.396 755.194c0-56.554-45.846-102.4-102.4-102.4s-102.4 45.846-102.4 102.4c0 56.554 45.846 102.4 102.4 102.4s102.4-45.846 102.4-102.4zM511.994 345.594c56.554 0 102.4 45.846 102.4 102.4s-45.846 102.4-102.4 102.4c-56.554 0-102.4-45.846-102.4-102.4s45.846-102.4 102.4-102.4zM511.994 38.394c56.554 0 102.4 45.85 102.4 102.4 0 56.557-45.846 102.4-102.4 102.4s-102.4-45.843-102.4-102.4c0-56.55 45.846-102.4 102.4-102.4z" />
<glyph unicode="&#xe930;" glyph-name="open-data" horiz-adv-x="1088" d="M64.014 863.994v-102.4h426.843c-12.314 79.747-81.249 140.8-164.443 140.8h-224c-21.208 0-38.4-17.192-38.4-38.4zM543.179 755.194l223.164 0.051c4.89 0.321 9.734 0.333 14.496 0.055h97.882c92.512 0 164.038-81.188 152.371-172.967l-70.573-555.235c-5.69-44.755-43.763-78.304-88.883-78.304h-743.622c-63.624 0-115.2 51.578-115.2 115.2v691.2h0.002v108.8c0 49.485 40.115 89.6 89.6 89.6h224c113.708 0 207.044-87.215 216.765-198.4zM870.118 704.1c12.294-18.348 19.494-40.443 19.494-64.312v-635.327c10.72 5.69 18.496 16.326 20.115 29.094l70.573 555.233c7.776 61.186-39.904 115.311-101.581 115.311h-8.602zM115.213 703.994h-51.2v-640c0-35.347 28.653-64 64-64h640c35.347 0 64 28.653 64 64v576c0 35.346-28.653 64-64 64h-652.8z" />
<glyph unicode="&#xe931;" glyph-name="offer" d="M583.542 806.406h338.051v-338.051l-384.682-398.928c-38.879-40.32-103.081-41.485-143.4-2.611-0.442 0.429-210.214 210.195-210.214 210.195-39.606 39.603-39.606 103.816 0 143.421 0.435 0.435 400.244 385.974 400.244 385.974zM604.213 755.2l-384.054-370.338c-20.262-20.25-20.262-52.044-0.652-71.652l208.899-208.902c20.615-19.891 52.404-19.309 71.655 0.653l370.338 384.053v266.187h-266.187zM819.2 652.8c0-28.277-22.925-51.2-51.2-51.2s-51.2 22.923-51.2 51.2c0 28.277 22.925 51.2 51.2 51.2s51.2-22.923 51.2-51.2z" />
<glyph unicode="&#xe932;" glyph-name="notification" d="M153.619 499.2v-204.8l-92.16-122.88c-6.647-8.864-10.24-19.642-10.24-30.72 0-28.275 22.923-51.2 51.2-51.2h256c0-84.832 68.769-153.6 153.6-153.6s153.601 68.768 153.601 153.6h256c11.078 0 21.856 3.59 30.72 10.24 22.624 16.966 27.206 49.056 10.24 71.68l-92.16 122.88v204.8c0 171.578-120.57 314.995-281.601 350.152v33.653c0.081 48.363-28.442 76.995-76.8 76.995s-76.881-28.631-76.799-77.037v-33.61c-161.034-35.158-281.601-178.575-281.601-350.152zM921.619 140.8h-819.201l92.16 122.88c6.647 8.864 10.24 19.642 10.24 30.72v204.8c0 169.662 137.539 307.2 307.2 307.2 169.665 0 307.201-137.538 307.201-307.2v-204.8c0-11.078 3.59-21.856 10.24-30.72l92.16-122.88zM512.019 857.6c-8.607 0-17.144-0.303-25.599-0.9v26.306c-0.034 20.163 5.576 25.795 25.599 25.795s25.634-5.632 25.6-25.752v-26.349c-8.456 0.597-16.992 0.9-25.6 0.9zM614.419 89.6c0-56.557-45.846-102.4-102.4-102.4s-102.4 45.843-102.4 102.4h204.8z" />
<glyph unicode="&#xe933;" glyph-name="next" d="M793.619 857.235c-14.138 0-25.6-10.786-25.6-24.092v0-770.647c0-13.306 11.462-24.090 25.6-24.090s25.6 10.784 25.6 24.090v0 770.647c0 13.306-11.462 24.092-25.6 24.092zM204.819 833.47v-770.923c0-21.459 27.575-32.211 43.702-17.030l409.597 385.457c9.997 9.409 9.997 24.662 0 34.070l-409.597 385.46c-16.127 15.176-43.702 4.428-43.702-17.035zM256.022 775.309l347.796-327.299-347.796-327.3v654.599z" />
<glyph unicode="&#xe934;" glyph-name="new" d="M511.997 448.003h-281.6c-14.138 0-25.6-11.462-25.6-25.6s11.462-25.6 25.6-25.6h281.6v-281.603c0-14.138 11.462-25.6 25.6-25.6s25.6 11.462 25.6 25.6v281.603h281.603c14.138 0 25.6 11.461 25.6 25.6s-11.462 25.6-25.6 25.6h-281.603v281.6c0 14.138-11.461 25.6-25.6 25.6s-25.6-11.462-25.6-25.6v-281.6z" />
<glyph unicode="&#xe935;" glyph-name="new-1" d="M961.088 448.763c0 248.064-201.779 449.843-449.844 449.843s-449.844-201.779-449.844-449.843c0-248.065 201.78-449.844 449.844-449.844s449.844 201.779 449.844 449.844zM1012.237 448.766c0-276.273-224.768-500.99-500.995-500.99-276.275 0-500.992 224.717-500.992 500.99 0 276.275 224.717 500.992 500.992 500.992 276.227 0 500.995-224.717 500.995-500.992zM579.685 406.832c5.427-10.803 10.342-20.992 14.694-30.618l4.045-6.451h18.739l-0.614 11.674c-0.614 10.189-1.024 21.658-1.331 34.56-0.307 13.005-0.461 26.112-0.461 39.322v197.888h77.467v-412.88h-96.257l-122.624 220.47c-5.222 9.165-10.445 18.842-15.616 28.979s-9.882 19.968-14.182 29.542l-4.096 6.451h-18.432l1.485-46.080c0.41-11.622 0.563-23.245 0.563-34.918v-204.445h-77.414v412.88h94.31l123.699-216.474c5.274-9.216 10.547-19.149 16.026-29.901z" />
<glyph unicode="&#xe936;" glyph-name="multiple" d="M665.6 704.001h22.33c45.651 0 62.202-4.753 78.886-13.677 16.691-8.925 29.786-22.021 38.707-38.708 8.928-16.687 13.677-33.24 13.677-78.885v-22.33h22.33c45.651 0 62.202-4.753 78.886-13.677 16.691-8.925 29.786-22.021 38.707-38.708 8.928-16.687 13.677-33.24 13.677-78.885v-249.46c0-45.645-4.749-62.195-13.677-78.886-8.922-16.685-22.016-29.779-38.707-38.707-16.685-8.922-33.235-13.677-78.886-13.677h-351.855c-45.646 0-62.198 4.755-78.886 13.677-16.687 8.928-29.784 22.022-38.708 38.707-8.925 16.691-13.677 33.242-13.677 78.886v22.33h-22.329c-45.646 0-62.198 4.755-78.886 13.677-16.687 8.928-29.784 22.022-38.708 38.707-8.925 16.691-13.677 33.242-13.677 78.888v22.329h-22.329c-45.646 0-62.198 4.753-78.886 13.677s-29.784 22.021-38.708 38.708c-8.924 16.687-13.677 33.24-13.677 78.885v249.459c0 45.645 4.753 62.198 13.677 78.885s22.021 29.784 38.708 38.708c16.687 8.924 33.24 13.677 78.886 13.677h351.858c45.646 0 62.198-4.753 78.886-13.677s29.784-22.021 38.705-38.708c8.928-16.687 13.677-33.24 13.677-78.885v-22.33zM256 345.6v-22.329c0-33.889 1.993-44.205 7.626-54.74 4.152-7.763 9.94-13.555 17.705-17.702 10.533-5.638 20.853-7.629 54.74-7.629h351.859c33.888 0 44.205 1.99 54.739 7.629 7.763 4.147 13.555 9.939 17.702 17.702 5.638 10.534 7.629 20.851 7.629 54.74v249.458c0 33.887-1.99 44.207-7.629 54.74-4.147 7.764-9.939 13.553-17.702 17.705-10.534 5.633-20.851 7.626-54.739 7.626h-22.33v-175.929c0-45.646-4.755-62.198-13.677-78.886-8.928-16.687-22.021-29.784-38.708-38.708s-33.24-13.677-78.886-13.677h-278.329zM409.6 192v-22.33c0-33.888 1.993-44.205 7.626-54.739 4.152-7.763 9.94-13.555 17.705-17.702 10.533-5.638 20.853-7.629 54.74-7.629h351.859c33.888 0 44.205 1.99 54.739 7.629 7.763 4.147 13.555 9.939 17.702 17.702 5.638 10.534 7.629 20.851 7.629 54.739v249.459c0 33.887-1.99 44.207-7.629 54.74-4.147 7.764-9.939 13.553-17.702 17.705-10.534 5.633-20.851 7.626-54.739 7.626h-22.33v-175.929c0-45.645-4.755-62.196-13.677-78.887-8.928-16.685-22.022-29.779-38.707-38.707-16.691-8.922-33.242-13.677-78.886-13.677h-278.33zM102.4 476.871c0-33.887 1.993-44.207 7.626-54.74 4.152-7.764 9.94-13.553 17.705-17.705 10.533-5.633 20.853-7.626 54.74-7.626h351.858c33.887 0 44.207 1.993 54.74 7.626 7.764 4.152 13.553 9.94 17.705 17.705 5.633 10.533 7.626 20.853 7.626 54.74v249.458c0 33.887-1.993 44.207-7.626 54.74-4.152 7.764-9.94 13.553-17.705 17.705-10.533 5.633-20.853 7.626-54.74 7.626h-351.858c-33.887 0-44.207-1.993-54.74-7.626-7.764-4.152-13.553-9.94-17.705-17.705-5.633-10.533-7.626-20.853-7.626-54.74v-249.458z" />
<glyph unicode="&#xe937;" glyph-name="move" d="M966.048 464.287l-138.246 138.243c-8.986 8.986-23.59 8.986-32.576 0s-8.986-23.594 0-32.579l98.893-98.936h-359.114v359.11l98.936-98.89c8.984-8.986 23.595-8.986 32.58 0s8.986 23.594 0 32.579l-138.244 138.244c-8.986 8.986-23.594 8.986-32.579 0l-138.244-138.244c-8.986-8.986-8.986-23.593 0-32.579s23.594-8.986 32.58 0l98.89 98.89v-359.11h-359.064l98.89 98.936c8.986 8.986 8.986 23.594 0 32.579s-23.594 8.986-32.579 0l-138.243-138.243c-8.986-8.986-8.986-23.594 0-32.58l138.243-138.241c8.986-8.986 23.594-8.986 32.579 0s8.986 23.59 0 32.577l-98.89 98.89h359.064v-359.064l-98.89 98.893c-8.986 8.986-23.594 8.986-32.58 0s-8.986-23.597 0-32.582l138.244-138.24c8.986-8.992 23.594-8.992 32.579 0l138.244 138.24c8.986 8.986 8.986 23.597 0 32.582s-23.597 8.986-32.58 0l-98.936-98.893v359.064h359.114l-98.893-98.89c-8.986-8.987-8.986-23.592 0-32.577s23.59-8.986 32.576 0l138.246 138.241c8.986 8.986 8.986 23.594 0 32.58z" />
<glyph unicode="&#xe938;" glyph-name="monitoring" d="M883.2 896c63.622 0 115.2-51.574 115.2-115.199v-448c0-63.625-51.578-115.201-115.2-115.201h-320.001v-140.8h102.401c14.138 0 25.6-11.462 25.6-25.6s-11.462-25.6-25.6-25.6h-268.799c-14.141 0-25.601 11.462-25.601 25.6s11.46 25.6 25.601 25.6h102.399v140.8h-384c-63.625 0-115.199 51.576-115.199 115.201v448c0 63.625 51.574 115.199 115.199 115.199h768.001zM563.199 268.801h320.001c35.347 0 64 28.653 64 64v448c0 35.348-28.653 64-64 64h-768.001c-35.348 0-64-28.652-64-64v-448c0-35.347 28.652-64 64-64h448zM580.508 459.101l-126.871 123.868-158.66-124.809c-11.114-8.742-27.207-6.82-35.949 4.293s-6.82 27.207 4.293 35.949l175.969 138.426c11.114 8.739 27.207 6.817 35.949-4.293l120.992-123.976 148.058 116.465c11.11 8.742 27.206 6.82 35.949-4.293s6.816-27.207-4.294-35.949l-160.966-126.621c-4.844-3.809-10.629-5.594-16.344-5.476-6.461-0.602-13.125 1.535-18.125 6.418z" />
<glyph unicode="&#xe939;" glyph-name="money" d="M511.626 474.157c-35.314 0-65.496 29.909-65.496 65.229s29.901 65.228 65.496 65.228c35.592 0 65.492-29.909 65.492-65.228h54.391c0 57.253-40.723 103.398-92.547 117.070v43.581h-54.392v-43.581c-54.387-13.672-92.547-59.817-92.547-117.070 0-65.229 54.392-119.917 119.884-119.917 35.309 0 65.496-29.908 65.496-65.514 0-35.599-29.9-65.231-65.496-65.231-35.309 0-65.492 29.914-65.492 65.231h-54.392c0-57.251 40.719-103.395 92.547-117.065v-38.17h54.392v38.17c54.387 13.67 92.547 59.814 92.547 117.065 0 65.801-54.391 120.203-119.884 120.203v0zM512.004 905.588c-253.153 0-457.329-204.228-457.329-457.452 0-253.217 204.176-457.453 457.329-457.453 253.148 0 457.327 204.237 457.327 457.453 0 253.224-203.891 457.452-457.327 457.452zM512.002-64c-283.053 0-512.002 228.723-512.002 512.141 0 283.415 228.948 511.859 512.002 511.859 283.051 0 511.998-228.726 511.998-512.141 0-283.418-228.659-511.859-511.998-511.859z" />
<glyph unicode="&#xe93a;" glyph-name="minus" d="M230.413 448h614.4c14.138 0 25.6-11.462 25.6-25.6s-11.462-25.6-25.6-25.6h-614.4c-14.139 0-25.6 11.462-25.6 25.6s11.461 25.6 25.6 25.6z" />
<glyph unicode="&#xe93b;" glyph-name="minimize" d="M929.101 901.3c9.984 9.984 26.214 9.984 36.198 0s9.984-26.215 0-36.199l-314.675-314.726h245.197c14.131 0 25.6-11.418 25.6-25.6 0-14.131-11.469-25.6-25.6-25.6h-307.046c-3.328 0-6.605 0.717-9.779 1.997-6.246 2.56-11.264 7.578-13.824 13.824-1.28 3.174-1.997 6.451-1.997 9.779v307.2c0 14.182 11.469 25.6 25.6 25.6 14.182 0 25.6-11.418 25.6-25.6v-245.35l314.726 314.676zM435.123 396.775c6.554 0 13.158-2.458 18.176-7.475 5.274-5.274 7.578-12.237 7.322-19.149v-306.177c0-14.131-11.469-25.6-25.6-25.6-14.182 0-25.6 11.469-25.6 25.6v245.248l-314.522-314.522c-5.018-5.018-11.571-7.526-18.125-7.526-6.502 0-13.056 2.509-18.074 7.526-9.984 9.984-9.984 26.214 0 36.198l314.676 314.676h-245.402c-14.131 0-25.6 11.469-25.6 25.6 0 14.182 11.469 25.6 25.6 25.6h307.149z" />
<glyph unicode="&#xe93c;" glyph-name="minimize-2" d="M965.312 901.309c-9.984 9.984-26.214 9.984-36.198 0l-826.726-826.672v347.747c0 14.182-11.418 25.6-25.6 25.6-14.131 0-25.6-11.418-25.6-25.6v-409.597c0-3.328 0.717-6.605 1.997-9.779 2.56-6.246 7.578-11.264 13.875-13.824 3.123-1.28 6.451-1.997 9.728-1.997h409.446c14.131 0 25.6 11.469 25.6 25.6 0 14.182-11.469 25.6-25.6 25.6h-347.597l826.675 826.723c9.984 9.984 9.984 26.214 0 36.198z" />
<glyph unicode="&#xe93d;" glyph-name="maximize" d="M947.149 908.797h-409.546c-14.131 0-25.6-11.418-25.6-25.6 0-14.131 11.469-25.6 25.6-25.6h347.798l-782.998-782.947v347.747c0 14.182-11.418 25.6-25.6 25.6-14.131 0-25.6-11.418-25.6-25.6v-409.597c0-3.328 0.717-6.605 1.997-9.779 2.56-6.246 7.578-11.264 13.875-13.824 3.123-1.28 6.451-1.997 9.728-1.997h409.446c14.131 0 25.6 11.469 25.6 25.6 0 14.182-11.469 25.6-25.6 25.6h-347.597l782.794 782.845v-347.648c0-14.131 11.418-25.6 25.6-25.6 14.131 0 25.6 11.469 25.6 25.6v408.576c0.256 6.912-2.048 13.875-7.322 19.149-5.018 5.018-11.622 7.475-18.176 7.475z" />
<glyph unicode="&#xe93e;" glyph-name="map" d="M307.2 813.351l-256 79.199v-760.223c0-7.859 0.095-10.726 0.288-12.102 1.161-0.755 3.712-2.042 10.807-5.331l244.904-113.651v812.109zM716.8 900.475v-818.907l256-79.2v805.949c0 8.304-0.102 11.302-0.32 12.721-1.286 0.627-4.102 1.607-12 4.049l-243.68 75.388zM665.6 901.362l-307.2-88.25v-819.551l307.2 88.25v819.551zM66.257 941.754l266.543-82.46 334.624 96.128c10.406 2.99 13.894 3.755 17.907 4.241 4.006 0.486 7.686 0.448 11.686-0.119s7.469-1.403 17.818-4.603l260.704-80.654c18.189-5.628 24.358-9.078 30.438-14.1s10.586-11.155 13.568-18.474c2.989-7.32 4.454-14.262 4.454-33.399v-805.945c0-28.435-22.925-51.482-51.2-51.482-5.101 0-10.176 0.768-15.059 2.278l-266.541 82.458-330.358-94.899c-11.882-3.418-16.035-4.218-20.807-4.582s-9.194-0.026-13.853 1.075c-4.66 1.101-8.642 2.528-19.862 7.738l-265.48 123.194c-15.795 7.334-21.013 11.014-26.108 16.045s-8.778 10.816-11.187 17.581c-2.409 6.758-3.544 13.062-3.544 30.554v760.225c0 28.431 22.923 51.479 51.2 51.479 5.104 0 10.179-0.767 15.057-2.276z" />
<glyph unicode="&#xe93f;" glyph-name="map-3d" d="M548.525 152.115v593.722h165.21c45.76 0 84.998-5.852 117.702-17.554s59.533-28.347 80.474-49.933c20.941-21.585 36.326-47.656 46.15-78.214s14.733-64.561 14.733-102.010v-96.743c0-37.709-4.589-71.908-13.766-102.593-9.178-30.688-24.045-56.89-44.595-78.605-20.557-21.715-47.251-38.49-80.090-50.323-32.832-11.834-73.037-17.747-120.608-17.747h-165.21zM898.739 498.125c0 33.809-4.006 62.285-12.026 85.431-8.013 23.146-20.032 41.87-36.064 56.173s-35.936 24.641-59.725 31.012c-23.782 6.372-51.578 9.558-83.379 9.558h-86.095v-463.436h86.095c31.802 0 59.597 3.251 83.379 9.754 23.789 6.502 43.693 17.101 59.725 31.795s28.051 33.741 36.064 57.146c8.019 23.409 12.026 52.015 12.026 85.823v96.744zM418.837 312.832c0-32.506-4.654-59.68-13.962-81.53-9.308-21.843-22.816-39.526-40.527-53.050s-39.363-23.149-64.959-28.87c-25.596-5.722-54.682-8.582-87.258-8.582-16.289 0-32.771 0.851-49.446 2.541s-32.318 3.642-46.926 5.85c-14.607 2.208-27.599 4.486-38.975 6.829-11.376 2.336-19.908 4.288-25.596 5.85v55.002c6.981-1.037 16.482-2.272 28.505-3.706 12.022-1.427 25.272-2.861 39.751-4.288 14.479-1.434 29.668-2.605 45.568-3.514s31.348-1.363 46.344-1.363c22.235 0 41.755 1.427 58.56 4.288s30.831 8.326 42.078 16.384c11.247 8.064 19.649 19.181 25.208 33.357 5.558 14.17 8.338 32.442 8.338 54.803v19.898c0 13.263-0.97 25.746-2.909 37.449s-6.334 21.91-13.185 30.623c-6.852 8.712-16.87 15.539-30.056 20.479s-30.895 7.412-53.13 7.412h-170.639v61.245h170.639c22.235 0 39.945 2.666 53.13 7.997s23.204 12.548 30.056 21.65c6.851 9.103 11.246 19.635 13.185 31.598s2.909 24.576 2.909 37.839c0 20.285-2.133 37.059-6.399 50.322s-11.505 23.796-21.718 31.598c-10.212 7.802-23.98 13.263-41.302 16.384s-39.169 4.681-65.541 4.681c-14.22 0-28.569-0.325-43.048-0.975s-28.504-1.56-42.078-2.73c-13.574-1.171-26.5-2.406-38.781-3.706l-33.158-3.511v56.564c2.585 0.52 9.178 1.756 19.778 3.706s23.463 3.966 38.588 6.046c15.124 2.081 31.477 3.901 49.059 5.462s34.644 2.34 51.192 2.34c34.904 0 65.282-2.666 91.137-7.997s47.313-14.369 64.378-27.112c17.064-12.743 29.862-29.777 38.394-51.103s12.798-47.981 12.798-79.969c0-13.263-1.293-26.202-3.878-38.815s-6.722-24.576-12.41-35.889c-5.688-11.313-13.057-21.651-22.106-31.012s-20.037-17.294-32.964-23.796c13.186-6.502 24.303-14.239 33.352-23.211s16.353-18.92 21.912-29.842c5.558-10.923 9.631-22.626 12.216-35.109s3.878-25.356 3.878-38.619v-19.898z" />
<glyph unicode="&#xe940;" glyph-name="map-2dk" d="M549.95 140.8v604.863h164.655c45.606 0 84.71-5.962 117.306-17.884 32.602-11.923 59.334-28.879 80.205-50.869s36.205-48.55 45.997-79.681c9.792-31.131 14.688-65.772 14.688-103.923v-98.559c0-38.417-4.576-73.256-13.722-104.52-9.152-31.264-23.968-57.958-44.454-80.077-20.48-22.125-47.085-39.213-79.814-51.27-32.723-12.051-72.794-18.080-120.205-18.080h-164.655zM898.982 493.308c0 34.443-3.994 63.453-11.981 87.034s-19.968 42.655-35.949 57.228c-15.974 14.572-35.814 25.103-59.52 31.594s-51.405 9.736-83.104 9.736h-85.804v-472.129h85.804c31.699 0 59.398 3.315 83.104 9.939s43.546 17.421 59.52 32.39c15.981 14.97 27.962 34.374 35.949 58.221 7.987 23.843 11.981 52.986 11.981 87.428v98.558zM51.188 140.8v76.704c0 33.12 3.285 61.53 9.856 85.242 6.571 23.716 17.006 45.043 31.308 63.987s32.854 36.562 55.658 52.856c22.804 16.294 50.44 33.449 82.908 51.465 24.479 13.777 44.449 26.097 59.91 36.959s27.507 21.527 36.139 31.992c8.632 10.465 14.559 21.13 17.78 31.992s4.831 23.182 4.831 36.959c0 15.366-2.383 28.282-7.151 38.748s-12.497 18.877-23.19 25.236c-10.694 6.358-24.544 10.929-41.551 13.711s-37.62 4.173-61.843 4.173c-12.111 0-24.737-0.265-37.878-0.795s-26.283-1.325-39.424-2.385c-13.142-1.060-26.026-2.318-38.652-3.775s-24.351-3.113-35.173-4.968v57.625c7.731 1.855 17.264 3.908 28.602 6.16s23.77 4.305 37.299 6.16c13.528 1.854 27.893 3.378 43.096 4.57s30.534 1.788 45.996 1.788c34.013 0 63.775-2.782 89.284-8.346s46.639-14.241 63.389-26.031c16.749-11.79 29.311-26.957 37.685-45.504s12.562-40.668 12.562-66.367c0-19.076-2.319-36.761-6.957-53.055s-12.755-32.124-24.351-47.491c-11.596-15.366-27.12-30.6-46.575-45.702s-43.998-30.733-73.631-46.895c-30.921-17.221-56.109-32.654-75.564-46.298s-34.593-27.686-45.416-42.126c-10.822-14.441-18.166-30.268-22.031-47.491s-5.798-37.754-5.798-61.6v-11.526h292.979v-65.971h-364.097z" />
<glyph unicode="&#xe941;" glyph-name="mail" d="M961.088 232.96c0-45.158-37.376-81.92-83.405-81.92h-731.442c-45.926 0-83.354 36.762-83.354 81.92v430.081c0 7.322 1.024 14.643 2.97 21.709l4.557 16.538 372.429-358.4c38.758-36.66 99.584-36.712 138.342 0.051l372.325 358.298 4.557-16.435c1.997-7.066 3.021-14.387 3.021-21.76v-430.081zM125.192 742.351c6.81 1.741 13.926 2.611 21.043 2.611h731.442c7.219 0 14.285-0.87 21.094-2.611l17.766-4.608-372.018-358.093c-9.165-8.602-20.838-12.954-32.563-12.954-11.674 0-23.347 4.301-32.41 12.902l-372.122 358.144 17.766 4.608zM877.683 796.156h-731.446c-74.957 0-135.987-59.699-135.987-133.12v-430.083c0-73.421 61.031-133.12 135.987-133.12h731.446c75.008 0 136.038 59.699 136.038 133.12v430.083c0 73.421-61.030 133.12-136.038 133.12v0z" />
<glyph unicode="&#xe942;" glyph-name="logout" d="M885.19 396.8h-654.806c-14.139 0-25.6 11.462-25.6 25.6s11.461 25.6 25.6 25.6h654.767l-237.677 237.907c-9.994 10.003-9.987 26.211 0.013 36.204 10.003 9.992 26.214 9.985 36.205-0.017l281.344-281.616c9.99-9.995 9.99-26.189 0.006-36.185l-281.344-281.656c-9.997-10.003-26.202-10.010-36.205-0.019-10.005 9.99-10.014 26.202-0.019 36.205l237.715 237.978zM76.787 806.406c14.139 0 25.6-11.462 25.6-25.6v-716.8c0-14.138-11.461-25.6-25.6-25.6s-25.6 11.462-25.6 25.6v716.8c0 14.138 11.462 25.6 25.6 25.6z" />
<glyph unicode="&#xe943;" glyph-name="lock" d="M808.96 375.602c0 46.387-37.069 84.173-82.637 84.173h-430.129c-45.568 0-82.637-37.786-82.637-84.173v-292.556c0-46.387 37.069-84.122 82.637-84.122h430.129c45.568 0 82.637 37.734 82.637 84.122v292.556zM321.083 510.926h380.364v209.51c0 98.253-85.298 178.176-190.156 178.176-104.909 0-190.208-79.923-190.208-178.176v-209.51zM858.682 375.609v-292.556c0-74.598-59.392-135.27-132.352-135.27h-430.134c-72.96 0-132.352 60.672-132.352 135.27v292.556c0 61.901 40.96 115.866 99.584 131.123l9.267 2.355-1.126 9.523c-0.102 1.075-0.205 2.15-0.205 3.277v198.554c0 126.464 107.622 229.325 239.923 229.325 132.303 0 239.875-102.861 239.875-229.325v-198.554c0-1.024-0.102-2.048-0.205-3.072l-1.28-9.677 9.421-2.406c58.624-15.258 99.584-69.171 99.584-131.123zM571.959 229.331c0-34.253-27.238-62.106-60.672-62.106-33.485 0-60.723 27.853-60.723 62.106s27.238 62.106 60.723 62.106c33.434 0 60.672-27.853 60.672-62.106z" />
<glyph unicode="&#xe944;" glyph-name="location" d="M512.006-64c-273.067 264.365-409.6 470.963-409.6 619.789 0 223.239 183.384 404.211 409.6 404.211 226.214 0 409.6-180.972 409.6-404.211 0-148.826-136.531-355.425-409.6-619.789zM870.4 555.789c0 194.81-160.314 353.011-358.4 353.011-198.090 0-358.4-158.201-358.4-353.011 0-124.491 118.601-309.69 358.4-548.071 239.802 238.381 358.4 423.58 358.4 548.071zM512 345.6c-113.108 0-204.8 91.692-204.8 204.8s91.692 204.8 204.8 204.8c113.108 0 204.8-91.692 204.8-204.8s-91.692-204.8-204.8-204.8zM511.997 396.797c84.831 0 153.603 68.769 153.603 153.6s-68.772 153.6-153.603 153.6c-84.831 0-153.6-68.769-153.6-153.6s68.769-153.6 153.6-153.6z" />
<glyph unicode="&#xe945;" glyph-name="location-check" d="M511.861 7.859c-239.702 238.31-358.255 423.465-358.255 547.93 0 194.81 160.31 353.011 358.4 353.011 31.606 0 62.381-3.907 91.953-11.565l-0.003-0.014 24.728-6.626c13.659-3.659 27.694 4.445 31.355 18.102s-4.448 27.694-18.106 31.353l-24.657 6.624c-33.529 8.727-68.765 13.325-105.269 13.325-226.216 0-409.6-180.972-409.6-404.211 0-148.826 136.533-355.425 409.6-619.789 270.368 264.019 407.046 468.133 410.035 612.35h0.070v25.6c0 14.138-11.462 25.6-25.6 25.6s-25.6-11.462-25.6-25.6v-18.751h-0.032c1.389-120.148-117.459-305.375-359.019-547.34zM482.916 432.956l342.024 415.317c8.992 10.914 25.12 12.476 36.038 3.487 10.912-8.988 12.474-25.121 3.488-36.035l-358.403-435.2c-9.027-10.961-25.25-12.481-36.156-3.388l-153.503 128c-10.859 9.055-12.321 25.197-3.267 36.056s25.197 12.321 36.056 3.267l133.721-111.505z" />
<glyph unicode="&#xe946;" glyph-name="kpi" d="M947.187 38.394c14.138 0 25.6-11.462 25.6-25.6s-11.462-25.6-25.6-25.6h-870.4c-7.069 0-13.469 2.867-18.102 7.501-4.633 4.627-7.498 11.027-7.498 18.099v819.2c0 14.139 11.462 25.6 25.6 25.6s25.6-11.461 25.6-25.6v-793.6h844.8zM386.11 384.067l-186.932-233.667c-8.832-11.040-24.942-12.826-35.982-3.994s-12.831 24.941-3.998 35.981l204.8 255.999c9.532 11.914 27.303 12.899 38.092 2.11l132.728-132.726 258.75 344.995h25.619v0.029h-128c-14.138 0-25.6 11.462-25.6 25.6s11.462 25.6 25.6 25.6h153.6c7.072 0 13.472-2.865 18.099-7.498 4.634-4.633 7.501-11.033 7.501-18.102v-153.6c0-14.138-11.462-25.6-25.6-25.6s-25.6 11.462-25.6 25.6v76.703l-261.12-348.063c-9.347-12.461-27.565-13.76-38.582-2.739l-133.375 133.373z" />
<glyph unicode="&#xe947;" glyph-name="key" d="M665.6 883.2c141.387 0 256-114.615 256-256s-114.613-256-256-256c-61.473 0-117.887 21.668-162.018 57.783l-211.23-211.178 45.75-46.1c8.886-8.888 9.873-22.685 2.962-32.659l-2.962-3.55c-9.998-9.994-26.207-9.994-36.204 0l-45.472 46.114c-0.032 0.034-0.064 0.068-0.096 0.102l-14.768-14.698 86.312-86.289c8.886-8.888 9.873-22.678 2.962-32.659l-2.962-3.543c-8.887-8.888-22.682-9.878-32.659-2.963l-3.545 2.963-86.307 86.296-59.261-59.324c-9.998-9.994-26.207-9.994-36.205 0-8.886 8.888-9.873 22.685-2.962 32.659l2.962 3.55 357.485 357.478c-36.115 44.131-57.783 100.545-57.783 162.018 0 141.385 114.615 256 256 256zM665.6 832c-113.108 0-204.8-91.692-204.8-204.8s91.692-204.8 204.8-204.8c113.111 0 204.8 91.692 204.8 204.8s-91.689 204.8-204.8 204.8z" />
<glyph unicode="&#xe948;" glyph-name="info" d="M0 448c0 282.77 229.23 512 512 512s512-229.23 512-512c0-282.771-229.229-512-512-512s-512 229.229-512 512zM972.8 448c0 254.493-206.304 460.8-460.8 460.8-254.493 0-460.8-206.307-460.8-460.8 0-254.496 206.307-460.8 460.8-460.8 254.496 0 460.8 206.304 460.8 460.8zM512 601.589c-14.138 0-25.6-11.462-25.6-25.6v-358.402c0-14.138 11.462-25.6 25.6-25.6s25.6 11.462 25.6 25.6v358.402c0 14.138-11.462 25.6-25.6 25.6zM486.4 678.4c0 14.138 11.462 25.6 25.6 25.6s25.6-11.462 25.6-25.6c0-14.138-11.462-25.6-25.6-25.6s-25.6 11.462-25.6 25.6z" />
<glyph unicode="&#xe949;" glyph-name="image" d="M805.216 857.594c76.077 0 103.661-7.921 131.475-22.795s49.638-36.702 64.512-64.514c14.874-27.812 22.797-55.4 22.797-131.476v-381.631c0-76.077-7.923-103.661-22.797-131.475s-36.698-49.638-64.512-64.512c-27.814-14.874-55.398-22.797-131.475-22.797h-586.431c-76.076 0-103.663 7.923-131.475 22.797s-49.64 36.698-64.514 64.512c-14.874 27.814-22.795 55.398-22.795 131.475v381.631c0 76.076 7.921 103.663 22.795 131.476s36.702 49.64 64.514 64.514c27.812 14.874 55.399 22.795 131.475 22.795h586.431zM972.8 319.994v318.813c0 61.631-4.352 84.154-16.749 107.33-10.099 18.89-24.621 33.409-43.507 43.511-23.181 12.395-45.702 16.744-107.334 16.744h-586.428c-61.631 0-84.153-4.349-107.329-16.744-18.89-10.102-33.409-24.621-43.511-43.511-12.395-23.176-16.744-45.699-16.744-107.33v-320.273l317.925 227.089c9.32 6.657 21.928 6.314 30.872-0.841l252.806-202.246 124.806 99.846c9.12 7.293 22.016 7.494 31.354 0.49l163.84-122.879zM611.821 309.754l-228.694 182.954-331.929-237.092c0.073-60.454 4.454-82.79 16.743-105.766 10.102-18.893 24.621-33.408 43.511-43.514 23.176-12.397 45.699-16.742 107.329-16.742h586.428c61.632 0 84.154 4.346 107.334 16.742 18.886 10.106 33.408 24.621 43.507 43.514 12.32 23.027 16.691 45.408 16.749 106.144l-178.694 134.019-240.513-192.413c-11.040-8.832-27.15-7.040-35.982 4s-7.043 27.149 3.998 35.981l90.212 72.173zM793.6 499.192c70.694 0 128 57.308 128 128s-57.306 128-128 128c-70.694 0-128-57.308-128-128s57.306-128 128-128zM870.4 627.192c0-42.415-34.387-76.8-76.8-76.8s-76.8 34.385-76.8 76.8c0 42.415 34.387 76.8 76.8 76.8s76.8-34.385 76.8-76.8z" />
<glyph unicode="&#xe94a;" glyph-name="home" horiz-adv-x="1088" d="M740.531-10.189c44.339-0.019 78.72 34.362 78.72 76.781v407.19c0 14.139 11.462 25.601 25.6 25.601h91.347l-406.136 402.008c-9.976 9.874-26.042 9.874-36.019 0l-406.137-402.008h91.347c14.138 0 25.6-11.462 25.6-25.601v-409.782c0-42.419 34.384-76.806 76.8-76.806h76.8v256.102c0 14.144 11.461 25.6 25.6 25.6h255.998c14.138 0 25.6-11.456 25.6-25.6v-251.61l74.88-1.875zM870.451 448.186v-381.594c0-70.688-57.306-128-128-128-1.6 0.006-1.6 0.006-3.2 0.038l-99.84 2.502c-13.885 0.346-24.96 11.699-24.96 25.587v250.982h-204.8v-256.102c0-14.138-11.461-25.6-25.6-25.6h-102.4c-70.692 0-128 57.306-128 128v384.186h-128c-22.87 0-34.263 27.706-18.009 43.795l450.381 445.802c29.928 29.623 78.128 29.623 108.055 0l450.382-445.802c16.256-16.089 4.864-43.795-18.010-43.795h-128z" />
<glyph unicode="&#xe94b;" glyph-name="help" d="M0 448c0-282.771 229.23-512 512-512s512 229.229 512 512c0 282.77-229.229 512-512 512s-512-229.23-512-512zM972.8 448c0-254.496-206.304-460.8-460.8-460.8-254.493 0-460.8 206.304-460.8 460.8 0 254.493 206.307 460.8 460.8 460.8 254.496 0 460.8-206.307 460.8-460.8zM460.8 192v102.4h102.4v-102.4h-102.4zM460.998 359.474v-14.024h102.084v14.024c0 1.196-0.028 2.575-0.059 4.101-0.165 8.163-0.415 20.534 3.063 31.437 2.022 6.338 9.311 17.868 13.761 23.94 6.037 8.239 12.237 15.733 15.519 19.589 6.021 7.075 16.503 18.748 25.519 28.789 5.971 6.65 11.3 12.585 14.264 15.994 7.442 8.556 13.413 16.89 17.912 25.005s7.712 16.228 9.645 24.343c1.926 8.115 2.893 16.758 2.893 25.931v4.233c0 31.752-11.296 54.684-33.894 68.796-22.596 14.112-55.848 21.168-99.755 21.168-23.331 0-45.514-1.455-66.548-4.366s-39.636-7.1-55.802-12.568v-61.652c6.797 0.529 13.962 1.059 21.494 1.588s15.064 0.97 22.596 1.323c7.532 0.353 14.927 0.662 22.183 0.926s14.1 0.397 20.53 0.397c9.369 0 17.452-0.485 24.25-1.455s12.492-2.646 17.085-5.027c4.593-2.381 7.992-5.601 10.196-9.658s3.307-9.261 3.307-15.612v-3.44c0-4.763-0.643-9.482-1.929-14.156s-3.628-9.746-7.027-15.214c-3.399-5.469-7.992-11.642-13.779-18.522s-13.089-14.906-21.907-24.079c-10.104-10.408-18.050-19.933-23.837-28.577-0.879-1.314-1.773-2.629-2.668-3.945-4.991-7.34-9.99-14.691-12.482-21.871-2.94-8.467-4.776-17.331-5.512-26.592s-1.102-19.537-1.102-30.826z" />
<glyph unicode="&#xe94c;" glyph-name="hand" d="M409.697 446.714c0-43.126-34.961-78.086-78.086-78.086-20.71 0-40.572 8.227-55.215 22.871l-37.105 37.104c-19.372 19.372-50.66 19.754-70.499 0.86-19.562-18.63-20.335-49.585-1.727-69.168 131.534-138.425 218.007-222.207 257.312-249.721 83.712-58.598 118.012-73.139 189.775-72.173 154.776 2.086 256.337 77.67 256.337 204.8v153.346h0.013v128.254c0 14.138-11.462 25.6-25.6 25.6-14.144 0-25.6-11.462-25.6-25.6v-51.2c0-14.138-11.462-25.6-25.6-25.6-14.144 0-25.6 11.462-25.6 25.6v102.4c0 14.138-11.462 25.6-25.6 25.6-14.144 0-25.6-11.462-25.6-25.6v-51.2c0-14.138-11.462-25.6-25.6-25.6-14.144 0-25.6 11.462-25.6 25.6v76.8c0 28.277-22.925 51.2-51.203 51.2-28.276 0-51.2-22.923-51.2-51.2v-25.6c0-14.138-11.461-25.6-25.6-25.6s-25.6 11.462-25.6 25.6v281.6c0 28.277-22.923 51.2-51.2 51.2s-51.2-22.923-51.2-51.2v-409.6h-0.003v-1.286zM707.552 644.405c10.483 5.367 22.362 8.395 34.95 8.395 35.418 0 65.229-23.974 74.106-56.579 8.755 3.471 18.304 5.379 28.294 5.379 42.413 0 76.8-34.385 76.8-76.8v-281.6h-0.013c0-159.155-126.861-253.574-306.847-256-84.786-1.139-128.12 17.235-219.826 81.427-43.238 30.266-130.891 115.194-265.066 256.398-38.070 40.065-36.49 103.396 3.532 141.512 39.962 38.060 102.99 37.292 142.013-1.731l37.104-37.105c5.043-5.042 11.881-7.875 19.012-7.875 14.849 0 26.886 12.037 26.886 26.886v52.486h0.003v358.4c0 56.554 45.846 102.4 102.4 102.4s102.4-45.846 102.4-102.4v-167.299c15.062 8.712 32.548 13.699 51.2 13.699 41.27 0 76.841-24.417 93.052-59.595z" />
<glyph unicode="&#xe94d;" glyph-name="gravitee" d="M308.797 767.022c-35.814 12.442-92.653 27.35-147.315 31.717-27.374 2.187-54.605 1.765-78.547-3.15-23.889-4.904-45.347-14.464-60.042-31.258-20.189-23.074-25.646-50.066-21.691-77.966 3.712-26.183 15.695-53.304 31.391-79.554-3.169-5.438-4.984-11.762-4.984-18.509 0-20.333 16.483-36.817 36.817-36.817 2.144 0 4.246 0.183 6.289 0.535 21.222-27.214 44.023-52.757 63.322-74.378l0.003-0.003c6.321-7.081 12.266-13.741 17.657-19.901 1.688-1.963 4.189-3.206 6.981-3.206 5.083 0 9.204 4.121 9.204 9.204 0 2.321-0.86 4.442-2.277 6.061-5.624 6.426-11.749 13.293-18.205 20.528-18.486 20.719-39.675 44.468-59.507 69.606 8.154 6.753 13.349 16.954 13.349 28.369 0 20.333-16.483 36.817-36.817 36.817-6.689 0-12.96-1.784-18.366-4.901-13.84 23.839-23.572 47.149-26.631 68.732-3.343 23.585 1.267 44.915 17.319 63.26 11.077 12.659 28.199 20.895 49.89 25.348 21.638 4.442 46.985 4.941 73.379 2.833 52.669-4.208 107.9-18.658 142.675-30.733 1.011-0.382 2.108-0.591 3.252-0.591 5.084 0 9.204 4.121 9.204 9.204 0 4.087-2.664 7.552-6.351 8.753zM625.883 674.772v-77.58c0-3.28-4.143-5.124-6.813-3.217-22.879 16.336-71.565 31.146-112.844 31.146-65.083 0-147.263-46.020-147.266-156.47s85.906-149.2 147.267-156.47c32.549 1.003 72.292 7.427 112.869 34.342 10.301 6.833 15.316 19.083 14.197 31.393l-6.498 71.493c-0.49 5.39 3.754 10.038 9.166 10.038h109.574c5.082 0 9.222-4.078 8.992-9.156-3.43-75.917-50.061-220.948-248.299-220.948-138.065 0-238.943 138.063-230.106 248.513-0.001 82.837 60.747 222.74 230.103 230.104 51.437 0 98.090-4.792 116.145-23.3 2.538-2.602 3.512-6.252 3.512-9.886zM843.802 463.95c-6.291 7.051-12.218 13.685-17.587 19.823-1.69 2.009-4.224 3.286-7.053 3.286-5.082 0-9.203-4.121-9.203-9.204 0-2.323 0.864-4.444 2.278-6.063v-0.001c5.626-6.427 11.75-13.293 18.208-20.528v-0.001c30.995-34.742 69.594-78.001 96.646-122.043 16.32-26.562 27.93-52.633 31.322-76.579 3.347-23.585-1.267-44.915-17.318-63.261-11.078-12.659-28.198-20.894-49.888-25.347-21.638-4.442-46.989-4.941-73.382-2.833-52.634 4.205-107.827 18.64-142.611 30.71-1.024 0.397-2.144 0.616-3.315 0.616-5.082 0-9.203-4.121-9.203-9.204 0-4.024 2.579-7.444 6.182-8.696 35.802-12.454 92.736-27.4 147.482-31.778 27.373-2.182 54.605-1.766 78.547 3.155 23.891 4.902 45.35 14.461 60.045 31.255 20.186 23.073 25.645 50.066 21.69 77.966-3.904 27.541-16.96 56.119-33.862 83.631-28.013 45.596-68 90.394-98.97 125.091l-0.006 0.004z" />
<glyph unicode="&#xe94e;" glyph-name="go" d="M512 960c282.771 0 512-229.23 512-512s-229.229-512-512-512c-282.77 0-512 229.229-512 512s229.23 512 512 512zM512 908.8c-254.493 0-460.8-206.307-460.8-460.8 0-254.496 206.307-460.8 460.8-460.8 254.496 0 460.8 206.304 460.8 460.8 0 254.493-206.304 460.8-460.8 460.8zM384.525 601.6c10.71 0 21.327-0.387 31.848-1.16s20.319-1.708 29.391-2.804c9.073-1.095 17.074-2.255 24.004-3.48s12.096-2.288 15.498-3.19v-50.266l-18.9 0.966c-7.56 0.387-15.404 0.774-23.532 1.16s-16.16 0.708-24.099 0.966c-7.939 0.258-14.806 0.387-20.602 0.387-7.56 0-14.522-0.355-20.886-1.063s-12.159-2.030-17.388-3.964c-5.229-1.933-9.86-4.704-13.892-8.313s-7.403-8.313-10.112-14.113c-2.709-5.8-4.756-12.856-6.143-21.169s-2.079-18.205-2.079-29.676v-34.799c0-15.724 1.165-28.709 3.496-38.956s5.923-18.366 10.774-24.36c4.851-5.993 10.931-10.15 18.239-12.47s15.939-3.48 25.894-3.48c5.922 0 11.718 0.032 17.389 0.097s10.899 0.29 15.688 0.676v107.298h67.286v-156.018c-5.040-1.030-11.246-2.093-18.617-3.187s-15.562-2.093-24.572-2.995c-9.009-0.902-18.617-1.677-28.823-2.323s-20.665-0.966-31.375-0.966c-11.467 0-22.524 0.774-33.171 2.317-10.647 1.549-20.696 4.288-30.147 8.218-9.45 3.936-18.081 9.184-25.894 15.758s-14.522 14.919-20.129 25.036c-5.608 10.118-9.955 22.201-13.042 36.25s-4.63 30.417-4.63 49.105v34.799c0 19.591 1.732 36.572 5.197 50.942s8.222 26.583 14.27 36.636c6.049 10.053 13.168 18.205 21.358 24.456s17.042 11.148 26.556 14.692c9.514 3.545 19.468 5.929 29.863 7.153s20.822 1.837 31.281 1.837zM642.253 608c41.997 0 74.163-10.958 96.499-32.875 22.33-21.917 33.498-55.542 33.498-100.875v-35.25l-0.333-13.344c-2.010-38.963-13.069-68.307-33.165-88.031-22.336-21.919-54.502-32.876-96.499-32.876-42.003 0-74.211 10.957-96.628 32.876-22.417 21.917-33.625 55.708-33.625 101.375v35.25l0.336 13.248c2.018 38.692 13.114 67.902 33.289 87.627 22.417 21.917 54.625 32.875 96.628 32.875zM642.253 550c-10.836 0-20.211-1.375-28.128-4.125s-14.458-7.125-19.625-13.125c-5.167-6-9-13.792-11.5-23.375s-3.75-21.292-3.75-35.124v-35.25l0.227-9.985c0.453-9.594 1.586-18.016 3.398-25.266 2.417-9.667 6.209-17.541 11.375-23.625s11.708-10.5 19.625-13.25c7.916-2.75 17.375-4.125 28.378-4.125 10.995 0 20.454 1.375 28.371 4.125s14.458 7.167 19.629 13.25c5.165 6.084 8.954 13.958 11.373 23.625s3.622 21.417 3.622 35.251v35.25l-0.224 9.976c-0.454 9.578-1.587 17.961-3.398 25.148-2.419 9.583-6.208 17.375-11.373 23.375-5.171 6-11.712 10.375-19.629 13.125s-17.376 4.125-28.371 4.125z" />
<glyph unicode="&#xe94f;" glyph-name="go-to" d="M834.253 396.794h-706.246c-14.139 0-25.6 11.462-25.6 25.6s11.461 25.6 25.6 25.6h706.24l-237.695 237.923c-9.992 10.003-9.985 26.211 0.018 36.204s26.211 9.985 36.204-0.018l281.346-281.615c4.627-4.632 7.488-11.029 7.488-18.094s-2.861-13.46-7.488-18.093l-281.345-281.651c-9.992-10.003-26.201-10.016-36.204-0.019-10.003 9.99-10.012 26.195-0.020 36.198l237.702 237.965z" />
<glyph unicode="&#xe950;" glyph-name="gift" d="M972.8 652.8h-409.6v-153.6h409.6v153.6zM512 499.2v153.6h-409.6v-153.6h409.6zM512 447.997h-307.194v-380.726c0-33.888 1.993-44.211 7.626-54.739 4.153-7.77 9.94-13.555 17.706-17.709 10.533-5.632 20.852-7.622 54.74-7.622h227.123v460.797zM563.2-12.8h227.136c33.888 0 44.205 1.99 54.739 7.622 7.763 4.154 13.555 9.939 17.702 17.709 5.638 10.528 7.629 20.851 7.629 54.739v380.726h-307.206v-460.797zM563.2-64h-278.329c-45.646 0-62.198 4.755-78.886 13.677-16.687 8.928-29.784 22.022-38.708 38.707-8.925 16.691-13.677 33.242-13.677 78.886v380.73h-51.197c-28.277 0-51.2 22.923-51.2 51.2v153.6c0 28.277 22.923 51.2 51.2 51.2h192.708c-24.322 27.175-39.111 63.060-39.111 102.4 0 84.831 68.769 153.6 153.6 153.6 53.428 0 100.484-27.278 128.001-68.667 27.518 41.389 74.574 68.667 127.999 68.667 84.832 0 153.6-68.769 153.6-153.6 0-39.34-14.784-75.225-39.11-102.4h192.71c28.282 0 51.2-22.923 51.2-51.2v-153.6c0-28.277-22.918-51.2-51.2-51.2h-51.2v-380.73c0-45.645-4.755-62.195-13.677-78.886-8.928-16.685-22.022-29.779-38.707-38.707-16.691-8.922-33.242-13.677-78.886-13.677h-227.13zM563.2 806.4c0-56.554 45.846-102.4 102.4-102.4 56.557 0 102.4 45.846 102.4 102.4s-45.843 102.4-102.4 102.4c-56.554 0-102.4-45.846-102.4-102.4zM409.6 704c56.554 0 102.4 45.846 102.4 102.4s-45.846 102.4-102.4 102.4c-56.554 0-102.4-45.846-102.4-102.4s45.846-102.4 102.4-102.4z" />
<glyph unicode="&#xe951;" glyph-name="geolocoation" d="M512 678.4c0-14.138 11.462-25.6 25.6-25.6s25.6 11.462 25.6 25.6v24.449c135.098-12.173 242.682-119.755 254.854-254.849h-24.454c-14.138 0-25.6-11.462-25.6-25.6s11.462-25.6 25.6-25.6h24.454c-12.173-135.098-119.757-242.682-254.854-254.854v24.454c0 14.138-11.462 25.6-25.6 25.6s-25.6-11.462-25.6-25.6v-24.454c-135.094 12.173-242.676 119.757-254.849 254.854h24.449c14.138 0 25.6 11.462 25.6 25.6s-11.462 25.6-25.6 25.6h-24.449c12.175 135.092 119.756 242.673 254.849 254.849v-24.449zM563.2 754.23v77.77c0 14.138-11.462 25.6-25.6 25.6s-25.6-11.462-25.6-25.6v-77.77c-163.389-12.429-293.801-142.84-306.23-306.23h-77.77c-14.138 0-25.6-11.462-25.6-25.6s11.462-25.6 25.6-25.6h77.77c12.429-163.392 142.84-293.798 306.23-306.227v-77.773c0-14.138 11.462-25.6 25.6-25.6s25.6 11.462 25.6 25.6v77.773c163.392 12.429 293.798 142.835 306.227 306.227h77.773c14.138 0 25.6 11.462 25.6 25.6s-11.462 25.6-25.6 25.6h-77.773c-12.429 163.389-142.835 293.801-306.227 306.23zM537.603 294.4c-70.692 0-128 57.304-128 127.997s57.308 128 128 128c70.692 0 127.997-57.308 127.997-128s-57.304-127.997-127.997-127.997zM614.403 422.397c0-42.415-34.385-76.8-76.8-76.8s-76.8 34.385-76.8 76.8c0 42.415 34.385 76.8 76.8 76.8s76.8-34.385 76.8-76.8z" />
<glyph unicode="&#xe952;" glyph-name="generate-js" d="M982.931 632.32h0.109v-515.338c0-48.688-5.072-66.342-14.589-84.145-9.523-17.797-23.491-31.764-41.288-41.288-17.804-9.516-35.458-14.589-84.145-14.589h-702.996c-48.689 0-66.345 5.072-84.145 14.589-17.8 9.523-31.769 23.491-41.289 41.288-9.519 17.804-14.589 35.458-14.589 84.145v702.996c0 48.689 5.070 66.345 14.589 84.145s23.489 31.769 41.289 41.289c17.8 9.519 35.455 14.589 84.145 14.589h515.338l327.571-327.68zM600.75 577.703v327.68h-460.724c-36.146 0-47.154-2.126-58.389-8.134-8.282-4.429-14.456-10.603-18.886-18.886-5.463-10.214-7.716-20.24-8.080-49.135l-0.054-712.247c0-36.147 2.126-47.159 8.134-58.388 4.429-8.288 10.603-14.459 18.886-18.889 11.235-6.007 22.243-8.131 58.389-8.131h702.992c36.147 0 47.159 2.123 58.388 8.131 8.288 4.431 14.459 10.602 18.889 18.889 6.007 11.23 8.131 22.241 8.131 58.388v460.721h-327.677zM655.35 882.717v-250.402h250.351l-250.351 250.402z" />
<glyph unicode="&#xe953;" glyph-name="folder-export" d="M332.803 883.203c90.278 0 164.964-66.758 177.386-153.603l318.662 0.003c70.688 0 128-57.308 128-128 0-6.159-0.448-12.31-1.331-18.405l-73.325-504.638c-5.485-37.754-37.85-65.76-76-65.76h-678.192c-42.415 0-76.8 34.387-76.8 76.8v716.803c0 42.415 34.385 76.8 76.8 76.8h204.8zM828.845 678.4l-35.232-0.003c16.070-21.392 25.587-47.983 25.587-76.797v-512c0-8.339-1.331-16.371-3.789-23.891 8.41 3.258 14.752 10.829 16.115 20.211l73.325 504.637c0.531 3.657 0.794 7.348 0.794 11.043 0 42.415-34.381 76.8-76.8 76.8zM691.2 678.4h-588.8v-588.8c0-14.138 11.462-25.6 25.6-25.6h614.4c14.138 0 25.6 11.462 25.6 25.6v512c0 42.415-34.387 76.8-76.8 76.8zM365.715 414.717c9.895 10.099 26.104 10.264 36.202 0.368v0l102.4-100.339c10.073-9.869 10.266-26.029 0.432-36.134v0l-102.4-105.254c-9.859-10.138-26.067-10.362-36.2-0.499-10.134 9.856-10.356 26.067-0.497 36.198v0l58.234 59.898-193.485-0.013c-14.138 0-25.6 11.462-25.6 25.6 0 12.563 9.056 23.021 20.998 25.184l4.602 0.415 195.226 0.014-59.542 58.362c-8.977 8.796-10.104 22.579-3.294 32.627l2.926 3.575zM332.8 832h-204.8c-14.138 0-25.6-11.462-25.6-25.6v-76.8h355.839l-1.962 8.245c-14.841 54.269-64.501 94.155-123.478 94.155z" />
<glyph unicode="&#xe954;" glyph-name="folder-cancel" d="M332.787 883.203c90.279 0 164.965-66.758 177.386-153.603l318.659 0.003c70.694 0 128-57.308 128-128 0-6.159-0.442-12.31-1.331-18.405l-73.318-504.638c-5.485-37.754-37.856-65.76-76.006-65.76h-678.189c-42.415 0-76.8 34.387-76.8 76.8v716.803c0 42.415 34.384 76.8 76.8 76.8h204.8zM828.832 678.4l-35.232-0.003c16.070-21.392 25.587-47.983 25.587-76.797v-512c0-8.339-1.331-16.371-3.789-23.891 8.41 3.258 14.752 10.829 16.115 20.211l73.325 504.637c0.531 3.657 0.794 7.348 0.794 11.043 0 42.415-34.381 76.8-76.8 76.8zM691.2 678.4h-588.8v-588.8c0-14.138 11.462-25.6 25.6-25.6h614.4c14.138 0 25.6 11.462 25.6 25.6v512c0 42.415-34.387 76.8-76.8 76.8zM274.906 387.914l3.546-2.963 54.193-54.198 54.222 54.198c8.886 8.887 22.681 9.874 32.659 2.963l3.546-2.963c8.886-8.886 9.874-22.681 2.962-32.658l-2.962-3.546-54.228-54.195 54.228-54.221c8.886-8.883 9.874-22.682 2.962-32.659l-2.962-3.546c-8.887-8.883-22.682-9.875-32.659-2.963l-3.546 2.963-54.222 54.227-54.193-54.227c-8.886-8.883-22.681-9.875-32.659-2.963l-3.545 2.963c-8.887 8.89-9.875 22.682-2.963 32.659l2.963 3.546 54.198 54.221-54.198 54.195c-8.887 8.886-9.875 22.681-2.963 32.659l2.963 3.545c8.886 8.887 22.681 9.874 32.658 2.963zM332.8 832h-204.8c-14.138 0-25.6-11.462-25.6-25.6v-76.8h355.839l-1.962 8.245c-14.841 54.269-64.501 94.155-123.478 94.155z" />
<glyph unicode="&#xe955;" glyph-name="folder-add" d="M332.787 883.203c90.279 0 164.965-66.758 177.386-153.603l308.291 0.003c70.694 0 128-57.308 128-128 0-9.687-1.101-19.343-3.277-28.782l-115.494-500.488c-8.045-34.848-39.072-59.533-74.835-59.533h-624.87c-42.415 0-76.8 34.387-76.8 76.8v716.803c0 42.415 34.384 76.8 76.8 76.8h204.8zM691.2 678.4h-588.8v-588.8c0-14.138 11.462-25.6 25.6-25.6h614.4c14.138 0 25.6 11.462 25.6 25.6v512c0 42.415-34.387 76.8-76.8 76.8zM328.059 421.988l4.602 0.412c12.568 0 23.020-9.056 25.188-20.998l0.412-4.602-0.014-76.646 76.675-0.014c12.568 0 23.020-9.055 25.187-20.997l0.413-4.602c0-12.57-9.056-23.021-20.998-25.19l-4.602-0.41-76.675 0.013 0.014-76.672c0-12.57-9.056-23.021-20.998-25.19l-4.602-0.41c-12.567 0-23.020 9.056-25.187 20.998l-0.413 4.602-0.014 76.672-76.646-0.013c-12.568 0-23.020 9.056-25.188 20.998l-0.412 4.602c0 12.563 9.056 23.021 20.998 25.184l4.602 0.415 76.646 0.014 0.014 76.646c0 12.568 9.056 23.020 20.998 25.188v0zM818.464 678.4l-24.864-0.003c16.070-21.392 25.587-47.983 25.587-76.797v-338.278l74.112 321.009c1.306 5.663 1.965 11.457 1.965 17.269 0 42.415-34.381 76.8-76.8 76.8zM332.8 832h-204.8c-14.138 0-25.6-11.462-25.6-25.6v-76.8h355.839l-1.962 8.245c-14.841 54.269-64.501 94.155-123.478 94.155z" />
<glyph unicode="&#xe956;" glyph-name="fodler-rest" d="M332.787 883.203c90.279 0 164.965-66.758 177.386-153.603l318.659 0.003c70.694 0 128-57.308 128-128 0-6.159-0.442-12.31-1.331-18.405l-73.318-504.638c-5.485-37.754-37.856-65.76-76.006-65.76h-678.189c-42.415 0-76.8 34.387-76.8 76.8v716.803c0 42.415 34.384 76.8 76.8 76.8h204.8zM828.832 678.4l-35.232-0.003c16.070-21.392 25.587-47.983 25.587-76.797v-512c0-8.339-1.331-16.371-3.789-23.891 8.41 3.258 14.752 10.829 16.115 20.211l73.325 504.637c0.531 3.657 0.794 7.348 0.794 11.043 0 42.415-34.381 76.8-76.8 76.8zM691.2 678.4h-588.8v-588.8c0-14.138 11.462-25.6 25.6-25.6h614.4c14.138 0 25.6 11.462 25.6 25.6v512c0 42.415-34.387 76.8-76.8 76.8zM434.922 268.934c14.138 0 25.6-11.456 25.6-25.6 0-14.138-11.462-25.6-25.6-25.6v0h-204.522c-14.138 0-25.6 11.462-25.6 25.6 0 14.144 11.462 25.6 25.6 25.6v0h204.522zM332.8 832h-204.8c-14.138 0-25.6-11.462-25.6-25.6v-76.8h355.839l-1.962 8.245c-14.841 54.269-64.501 94.155-123.478 94.155z" />
<glyph unicode="&#xe957;" glyph-name="fire" d="M438.564 609.905c-9.981-20.031-26.404-53.098-29.066-59.505-4.002 6.926-18.595 40.961-26.193 64.115-25.628 88.074-25.007 191.885-25.007 191.885-12.62-24.106-27.984-50.921-44.566-79.861-69.406-121.128-160.138-279.476-160.138-432.139 0-189.139 144.852-358.4 358.305-358.4s358.399 133.779 358.399 358.4c0 96.189-56.314 189.802-112.678 283.5-75.264 125.107-150.616 250.363-92.122 382.1-24.896 0-161.924-226.601-226.934-350.095zM456.79 530.765c15.561 37.473 70.579 137.407 126.044 228.664 7.218 11.876 14.295 23.363 21.176 34.371 14.719-69.494 52.029-144.666 112.285-245.375 17.741-29.659 21.562-36.082 29.203-49.238 51.334-88.41 73.606-146.353 73.606-204.787 0-192.109-117.702-307.2-307.199-307.2-176.342 0-307.105 137.133-307.105 307.2 0 17.299 1.343 35.157 3.996 53.588 11.872 82.509 47.329 169.368 108.646 280.996 1.405 2.556 3.687 6.634 6.973 10.202 9.463-44.469 22.64-83.044 40.758-114.401l51.862-89.753 39.755 95.732zM617.702 249.914c-32.304 63.814-66.946 132.242-54.496 198.086-36.729 0-204.8-221.805-204.8-332.8s53.946-179.2 153.6-179.2c99.654 0 153.6 86.528 153.6 179.2 0 40.090-23.27 86.061-47.904 134.714zM415.288 115.194c0 35.725 31.181 105.235 78.948 176.282 8.554 12.723 17.338 25.043 26.040 36.575 9.065-26.783 22.077-55.135 42.036-94.687 37.203-73.722 46.397-96.256 46.397-118.17 0-72.627-38.803-122.31-96.711-122.31-64.17 0-96.711 38.79-96.711 122.31z" />
<glyph unicode="&#xe958;" glyph-name="filter" d="M632.552 458.988l-0.272-0.367c-12.936-17.126-19.916-37.784-19.958-58.941v-310.957c0-10.694-6.65-20.262-16.675-23.994l-149.453-55.59c-16.726-6.221-34.525 6.15-34.525 23.994l0.001 366.497c-0.042 21.209-7.023 41.864-20.239 59.359l-282.906 388.803c-12.312 16.92-0.225 40.662 20.7 40.662h765.541c20.928 0 33.011-23.742 20.704-40.662l-282.917-388.803zM844.474 837.253h-664.966l253.043-347.768c19.622-25.965 30.251-57.414 30.315-89.805v-329.709l98.254 36.544v293.216c0.064 32.256 10.637 63.629 30.158 89.558l253.196 347.964z" />
<glyph unicode="&#xe959;" glyph-name="file" d="M228.894 960.001h542.118c59.88 0 108.424-48.543 108.424-108.424v-783.059c0-59.88-48.544-108.424-108.424-108.424h-542.118c-59.881 0-108.424 48.544-108.424 108.424v783.059c0 59.881 48.543 108.424 108.424 108.424zM228.894 911.812c-33.267 0-60.235-26.968-60.235-60.235v-783.059c0-33.268 26.968-60.235 60.235-60.235h542.118c33.268 0 60.235 26.967 60.235 60.235v783.059c0 33.267-26.967 60.235-60.235 60.235h-542.118zM289.129 707.012c0 13.307 10.787 24.094 24.094 24.094h192.753c13.307 0 24.094-10.787 24.094-24.094s-10.788-24.094-24.094-24.094h-192.753c-13.307 0-24.094 10.788-24.094 24.094zM313.223 568.471c-13.307 0-24.094-10.788-24.094-24.094s10.787-24.094 24.094-24.094h373.459c13.307 0 24.094 10.788 24.094 24.094s-10.788 24.094-24.094 24.094h-373.459zM289.129 381.741c0 13.307 10.787 24.094 24.094 24.094h373.459c13.307 0 24.094-10.788 24.094-24.094s-10.788-24.094-24.094-24.094h-373.459c-13.307 0-24.094 10.786-24.094 24.094zM313.223 243.2c-13.307 0-24.094-10.788-24.094-24.094s10.787-24.094 24.094-24.094h373.459c13.307 0 24.094 10.788 24.094 24.094s-10.788 24.094-24.094 24.094h-373.459z" />
<glyph unicode="&#xe95a;" glyph-name="file-rest" d="M972.685 601.597h0.102v-483.126c0-45.651-4.755-62.202-13.677-78.886-8.922-16.691-22.022-29.786-38.707-38.707-16.691-8.928-33.242-13.677-78.886-13.677h-659.059c-45.645 0-62.198 4.749-78.885 13.677-16.687 8.922-29.784 22.016-38.708 38.707-8.924 16.685-13.677 33.235-13.677 78.886v659.055c0 45.646 4.753 62.198 13.677 78.886s22.021 29.784 38.708 38.708c16.687 8.924 33.24 13.677 78.885 13.677h483.129l307.098-307.2zM460.522 243.334c0-14.138-11.462-25.6-25.6-25.6h-204.522c-14.138 0-25.6 11.462-25.6 25.6 0 14.144 11.462 25.6 25.6 25.6h204.522c14.138 0 25.6-11.456 25.6-25.6zM614.4 550.4v307.2h-431.929c-33.887 0-44.207-1.993-54.74-7.626-7.764-4.152-13.553-9.94-17.705-17.705-5.121-9.576-7.234-18.975-7.576-46.064l-0.051-667.734c0-33.888 1.993-44.205 7.626-54.739 4.152-7.763 9.94-13.555 17.705-17.702 10.533-5.638 20.853-7.629 54.74-7.629h659.059c33.888 0 44.205 1.99 54.739 7.629 7.763 4.147 13.555 9.939 17.702 17.702 5.638 10.534 7.629 20.851 7.629 54.739v431.93h-307.2zM665.6 601.598h234.701l-234.701 234.752v-234.752z" />
<glyph unicode="&#xe95b;" glyph-name="file-cancel" d="M655.361 960l327.679-327.68v-515.338c0-48.688-5.072-66.342-14.589-84.145-9.523-17.797-23.491-31.764-41.288-41.288-17.804-9.516-35.458-14.589-84.145-14.589h-702.995c-48.689 0-66.346 5.072-84.145 14.589-17.8 9.523-31.77 23.491-41.29 41.288-9.519 17.804-14.589 35.458-14.589 84.145v702.996c0 48.689 5.069 66.345 14.589 84.145s23.49 31.769 41.29 41.289c17.799 9.519 35.456 14.589 84.145 14.589h515.338zM600.75 905.383h-460.724c-36.146 0-47.154-2.126-58.389-8.134-8.282-4.429-14.456-10.604-18.886-18.886-5.463-10.214-7.716-20.24-8.080-49.135l-0.054-712.247c0-36.147 2.126-47.159 8.134-58.388 4.429-8.288 10.604-14.459 18.886-18.889 11.235-6.007 22.243-8.131 58.389-8.131h702.992c36.147 0 47.159 2.123 58.388 8.131 8.288 4.431 14.459 10.602 18.889 18.889 6.007 11.23 8.131 22.241 8.131 58.388v460.721h-327.677v327.68zM367.058 405.869c9.479 9.48 24.194 10.532 34.836 3.16l3.781-3.16c10.664-10.664 10.664-27.951 0-38.614l-57.842-57.808 57.842-57.836c9.479-9.482 10.532-24.194 3.159-34.836l-3.159-3.782c-10.664-10.663-27.953-10.663-38.617 0l-57.837 57.842-57.805-57.842c-9.479-9.482-24.194-10.534-34.836-3.161l-3.782 3.161c-10.664 10.663-10.664 27.955 0 38.618l57.811 57.836-57.811 57.808c-9.48 9.475-10.531 24.19-3.159 34.832l3.159 3.782c10.664 10.664 27.954 10.664 38.618 0l57.805-57.811 57.837 57.811zM655.35 882.717v-250.402h250.351l-250.351 250.402z" />
<glyph unicode="&#xe95c;" glyph-name="file-add" d="M972.698 601.597h0.102v-483.126c0-45.651-4.749-62.202-13.677-78.886-8.922-16.691-22.016-29.786-38.707-38.707-16.685-8.928-33.235-13.677-78.886-13.677h-659.055c-45.646 0-62.198 4.749-78.886 13.677-16.687 8.922-29.784 22.016-38.708 38.707-8.924 16.685-13.677 33.235-13.677 78.886v659.055c0 45.646 4.753 62.198 13.677 78.886s22.021 29.784 38.708 38.708c16.687 8.924 33.24 13.677 78.886 13.677h483.126l307.098-307.2zM332.66 396.8c12.568 0 23.020-9.056 25.188-20.998l0.412-4.602-0.014-76.646 76.675-0.013c12.567 0 23.020-9.056 25.187-20.998l0.413-4.602c0-12.57-9.056-23.021-20.998-25.19l-4.602-0.41-76.675 0.013 0.014-76.672c0-12.57-9.056-23.021-20.998-25.19l-4.602-0.41c-12.567 0-23.020 9.056-25.187 20.998l-0.413 4.602-0.014 76.672-76.646-0.013c-12.568 0-23.020 9.056-25.188 20.998l-0.412 4.602c0 12.563 9.056 23.021 20.998 25.184l4.602 0.416 76.646 0.013 0.014 76.646c0 12.568 9.056 23.020 20.998 25.187l4.602 0.413zM614.4 550.4v307.2h-431.929c-33.887 0-44.207-1.993-54.74-7.626-7.764-4.152-13.553-9.94-17.705-17.705-5.121-9.576-7.234-18.975-7.576-46.064l-0.051-667.734c0-33.888 1.993-44.205 7.626-54.739 4.152-7.763 9.94-13.555 17.705-17.702 10.533-5.638 20.853-7.629 54.74-7.629h659.059c33.888 0 44.205 1.99 54.739 7.629 7.763 4.147 13.555 9.939 17.702 17.702 5.638 10.534 7.629 20.851 7.629 54.739v431.93h-307.2zM665.6 601.598h234.701l-234.701 234.752v-234.752z" />
<glyph unicode="&#xe95d;" glyph-name="external-link" d="M921.581 821.352l-468.279-468.276c-9.997-9.997-26.206-9.997-36.204 0s-9.997 26.207 0 36.204l468.316 468.314-347.834-0.038c-14.139-0.001-25.601 11.459-25.603 25.597s11.459 25.601 25.597 25.603l409.599 0.044c14.138 0.002 25.606-11.46 25.606-25.6v-409.6c0-14.138-11.462-25.6-25.6-25.6-14.144 0-25.6 11.462-25.6 25.6v347.752zM102.387 38.368h844.8c14.138 0 25.6-11.462 25.6-25.6s-11.462-25.6-25.6-25.6h-870.4c-7.069 0-13.469 2.867-18.102 7.501s-7.498 11.034-7.498 18.099v870.401c0 14.138 11.462 25.6 25.6 25.6s25.6-11.462 25.6-25.6v-844.801z" />
<glyph unicode="&#xe95e;" glyph-name="export" d="M972.698 601.597h0.102v-483.126c0-45.651-4.749-62.202-13.677-78.886-8.922-16.691-22.016-29.786-38.707-38.707-16.685-8.928-33.235-13.677-78.886-13.677h-659.055c-45.646 0-62.198 4.749-78.886 13.677-16.687 8.922-29.784 22.016-38.708 38.707-8.924 16.685-13.677 33.235-13.677 78.886v659.055c0 45.646 4.753 62.198 13.677 78.886s22.021 29.784 38.708 38.708c16.687 8.924 33.24 13.677 78.886 13.677h483.126l307.098-307.2zM401.917 363.885l102.4-100.339c10.073-9.869 10.266-26.029 0.432-36.134l-102.4-105.254c-9.859-10.138-26.067-10.362-36.2-0.499-10.134 9.856-10.356 26.067-0.497 36.198l58.234 59.898-193.485-0.013c-14.138 0-25.6 11.462-25.6 25.6 0 12.563 9.056 23.021 20.998 25.184l4.602 0.416 195.226 0.013-59.542 58.362c-8.977 8.796-10.104 22.579-3.294 32.627l2.926 3.575c9.895 10.099 26.104 10.264 36.202 0.368zM614.4 550.4v307.2h-431.929c-33.887 0-44.207-1.993-54.74-7.626-7.764-4.152-13.553-9.94-17.705-17.705-5.121-9.576-7.234-18.975-7.576-46.064l-0.051-667.734c0-33.888 1.993-44.205 7.626-54.739 4.152-7.763 9.94-13.555 17.705-17.702 10.533-5.638 20.853-7.629 54.74-7.629h659.059c33.888 0 44.205 1.99 54.739 7.629 7.763 4.147 13.555 9.939 17.702 17.702 5.638 10.534 7.629 20.851 7.629 54.739v431.93h-307.2zM665.6 601.598h234.701l-234.701 234.752v-234.752z" />
<glyph unicode="&#xe95f;" glyph-name="expandir" d="M731.429 630.857l-219.429 219.429-219.429-219.429h438.857zM0 448c0 20.198 16.374 36.571 36.571 36.571h950.857c20.195 0 36.571-16.374 36.571-36.571s-16.377-36.571-36.571-36.571h-950.857c-20.198 0-36.571 16.374-36.571 36.571zM512 45.714l-219.429 219.429h438.857l-219.429-219.429z" />
</font>
</defs>
</svg>
