<?xml version="1.0" encoding="UTF-8"?>
<svg width="60px" height="60px" viewBox="0 0 60 60" version="1.1" xmlns="http://www.w3.org/2000/svg" xmlns:xlink="http://www.w3.org/1999/xlink">
    <!-- Generator: sketchtool 51.2 (57519) - http://www.bohemiancoding.com/sketch -->
    <title>4850F4A4-E228-4202-B621-801FA9647CEF</title>
    <desc>Created with sketchtool.</desc>
    <defs></defs>
    <g id="Page-1" stroke="none" stroke-width="1" fill="none" fill-rule="evenodd">
        <g id="Assets_graficos" transform="translate(-982.000000, -771.000000)" fill-rule="nonzero">
            <g id="illus-/-graph-/-apis_nodo" transform="translate(982.000000, 771.000000)">
                <rect id="Rectangle-12-Copy-4" stroke="#D3E1EB" fill="#F0F4F7" x="0.5" y="0.5" width="59" height="59" rx="29.5"></rect>
                <g id="Group-34" transform="translate(14.000000, 13.000000)">
                    <path d="M32.4646782,31.1490667 L18.7300471,31.1490667 C18.5780848,30.1363667 17.7733752,29.3402833 16.7503925,29.18995 L16.7503925,23.2893667 L27.3994976,23.2893667 C30.3827943,23.2893667 32.8100471,20.8881333 32.8100471,17.9375 C32.8100471,16.7129667 32.3817896,15.5239667 31.6012559,14.5714 C31.6399372,14.3172 31.6585871,14.0753 31.6585871,13.8375 C31.6585871,11.4765833 30.0194662,9.42453333 27.7262166,8.8642 C27.1128414,3.79318333 22.808854,0 17.6138148,0 C13.795416,0 10.2512402,2.16821667 8.52646782,5.54183333 C3.72791209,5.77621667 0,9.6309 0,14.4060333 C0,19.3041667 4.02838305,23.2893667 8.97959184,23.2893667 C9.04590267,23.2893667 9.11152276,23.2852667 9.17714286,23.2804833 L9.24207221,23.27365 L9.32634223,23.2791167 C9.40232339,23.2845833 9.47830455,23.2893667 9.55566719,23.2893667 L16.0596546,23.2893667 L16.0596546,29.18995 C15.0366719,29.3402833 14.2319623,30.1363667 14.08,31.1490667 L0.345368917,31.1490667 C0.154725275,31.1490667 0,31.3021333 0,31.4907333 C0,31.6793333 0.154725275,31.8324 0.345368917,31.8324 L14.08,31.8324 C14.24854,32.9571667 15.2217896,33.825 16.4050235,33.825 C17.5882575,33.825 18.5615071,32.9564833 18.7300471,31.8324 L32.4646782,31.8324 C32.6553218,31.8324 32.8100471,31.6793333 32.8100471,31.4907333 C32.8100471,31.3021333 32.6553218,31.1490667 32.4646782,31.1490667 Z M16.4050235,33.1416667 C15.48427,33.1416667 14.7355102,32.4009333 14.7355102,31.4907333 C14.7355102,30.57985 15.48427,29.8384333 16.4050235,29.8384333 C17.3257771,29.8384333 18.0745369,30.57985 18.0745369,31.4907333 C18.0745369,32.4009333 17.3257771,33.1416667 16.4050235,33.1416667 Z" id="Shape-Copy-16" stroke="#2E6C99" stroke-width="0.84" fill="#2E6C99"></path>
                    <path d="M9.37193093,22.59715 L9.2455259,22.591 L9.12740973,22.5985167 C9.07836735,22.6019333 9.02932496,22.6060333 8.97959184,22.6060333 C4.40897959,22.6060333 0.690737834,18.92765 0.690737834,14.4060333 C0.690737834,9.93498333 4.23284144,6.33791667 8.7544113,6.21765 C8.88357928,6.21423333 9.00031397,6.13906667 9.05626374,6.02358333 C10.6304553,2.77911667 13.9895133,0.683333333 17.6138148,0.683333333 C22.5360126,0.683333333 26.5989325,4.33506667 27.0651805,9.17716667 C27.079686,9.32818333 27.192967,9.45118333 27.3428571,9.47988333 C29.4433909,9.8851 30.9678493,11.7171167 30.9678493,13.8368167 C30.9678493,14.0835 30.9443642,14.3363333 30.8953218,14.6096667 C30.8773626,14.7108 30.9063736,14.8146667 30.9733752,14.8925667 C31.7124647,15.7412667 32.1193093,16.8223 32.1193093,17.9368167 C32.1193093,20.5116167 30.0021978,22.60535 27.3994976,22.60535 L9.55497645,22.60535 C9.49350078,22.6060333 9.43271586,22.6019333 9.37193093,22.59715 Z" id="Path" stroke="#2E6C99" stroke-width="0.84" fill="#FFFFFF"></path>
                    <path d="M16.8674188,16.0223924 C15.4985299,16.0223924 14.3846154,14.9069557 14.3846154,13.5361962 C14.3846154,12.1654367 15.4985299,11.05 16.8674188,11.05 C18.2366838,11.05 19.3502222,12.1654367 19.3502222,13.5361962 C19.3502222,14.9069557 18.2366838,16.0223924 16.8674188,16.0223924 Z M16.8674188,12.4625601 C16.2762393,12.4625601 15.7952479,12.9442089 15.7952479,13.5361962 C15.7952479,14.1281835 16.2762393,14.6098323 16.8674188,14.6098323 C17.4585983,14.6098323 17.9395897,14.1281835 17.9395897,13.5361962 C17.9395897,12.9442089 17.4585983,12.4625601 16.8674188,12.4625601 Z" id="Shape" fill="#2E6C99"></path>
                    <path d="M11.7055043,13.5126329 C11.3155214,13.5126329 11,13.1963038 11,12.8061646 C11,9.96296835 13.309812,7.65 16.1491282,7.65 C16.5391111,7.65 16.8546325,7.96595253 16.8546325,8.35646835 C16.8546325,8.74623101 16.5391111,9.06256013 16.1491282,9.06256013 C14.0878974,9.06256013 12.4106325,10.7417405 12.4106325,12.8061646 C12.4106325,13.1963038 12.094735,13.5126329 11.7055043,13.5126329 Z" id="Shape" fill="#2E6C99"></path>
                    <path d="M17.6282051,19.4618797 C17.2385983,19.4618797 16.9230769,19.1459272 16.9230769,18.755788 C16.9230769,18.3660253 17.2389744,18.0496962 17.6282051,18.0496962 C19.6894359,18.0496962 21.3663248,16.3701392 21.3663248,14.3060918 C21.3663248,13.9159525 21.6822222,13.6 22.0718291,13.6 C22.4614359,13.6 22.7769573,13.9163291 22.7769573,14.3060918 C22.7773333,17.1489114 20.4675214,19.4618797 17.6282051,19.4618797 Z" id="Shape" fill="#2E6C99"></path>
                </g>
            </g>
        </g>
    </g>
</svg>