<?xml version="1.0" encoding="UTF-8"?>
<svg width="60px" height="60px" viewBox="0 0 60 60" version="1.1" xmlns="http://www.w3.org/2000/svg" xmlns:xlink="http://www.w3.org/1999/xlink">
    <!-- Generator: sketchtool 51.2 (57519) - http://www.bohemiancoding.com/sketch -->
    <title>E893B1EF-92D8-407E-B65F-8C1590253F5D</title>
    <desc>Created with sketchtool.</desc>
    <defs></defs>
    <g id="Page-1" stroke="none" stroke-width="1" fill="none" fill-rule="evenodd">
        <g id="Assets_graficos" transform="translate(-798.000000, -771.000000)" fill-rule="nonzero">
            <g id="illus-/-graph-/-apis_categoria" transform="translate(798.000000, 771.000000)">
                <g id="Group-6">
                    <g id="Group-12">
                        <rect id="Rectangle-12-Copy-3" stroke="#D3E1EB" fill="#F0F4F7" x="0.5" y="0.5" width="59" height="59" rx="29.5"></rect>
                        <g id="Group-28" transform="translate(13.000000, 13.000000)" stroke="#2E6C99" stroke-width="0.81">
                            <path d="M15.3368421,23.0048677 L8.84837895,23.0048677 C8.77658947,22.5201347 8.39643158,22.1390861 7.91315789,22.0671284 L7.91315789,19.2427898 L12.9439684,19.2427898 C14.3533263,19.2427898 15.5,18.0934295 15.5,16.6810967 C15.5,16.0949687 15.2976842,15.525849 14.9289474,15.069899 C14.9472211,14.9482251 14.9560316,14.8324387 14.9560316,14.7186147 C14.9560316,13.5885522 14.1816842,12.60633 13.0983158,12.3381241 C12.8085474,9.91086099 10.7752737,8.0952381 8.32105263,8.0952381 C6.51717895,8.0952381 4.84285263,9.13306397 4.02804211,10.7478595 C1.76112632,10.8600481 0,12.7051082 0,14.9907456 C0,17.3352573 1.90307368,19.2427898 4.24210526,19.2427898 C4.27343158,19.2427898 4.30443158,19.2408273 4.33543158,19.2385378 L4.36610526,19.235267 L4.40591579,19.2378836 C4.44181053,19.2405002 4.47770526,19.2427898 4.51425263,19.2427898 L7.58684211,19.2427898 L7.58684211,22.0671284 C7.10356842,22.1390861 6.72341053,22.5201347 6.65162105,23.0048677 L0.163157895,23.0048677 C0.0730947368,23.0048677 0,23.0781337 0,23.1684079 C0,23.2586821 0.0730947368,23.3319481 0.163157895,23.3319481 L6.65162105,23.3319481 C6.73124211,23.8703223 7.19102105,24.2857143 7.75,24.2857143 C8.30897895,24.2857143 8.76875789,23.8699952 8.84837895,23.3319481 L15.3368421,23.3319481 C15.4269053,23.3319481 15.5,23.2586821 15.5,23.1684079 C15.5,23.0781337 15.4269053,23.0048677 15.3368421,23.0048677 Z" id="Shape" fill="#2E6C99"></path>
                            <path d="M30.8368421,32.7191534 L24.3483789,32.7191534 C24.2765895,32.2344204 23.8964316,31.8533718 23.4131579,31.7814141 L23.4131579,28.9570755 L28.4439684,28.9570755 C29.8533263,28.9570755 31,27.8077152 31,26.3953824 C31,25.8092544 30.7976842,25.2401347 30.4289474,24.7841847 C30.4472211,24.6625108 30.4560316,24.5467244 30.4560316,24.4329004 C30.4560316,23.3028379 29.6816842,22.3206157 28.5983158,22.0524098 C28.3085474,19.6251467 26.2752737,17.8095238 23.8210526,17.8095238 C22.0171789,17.8095238 20.3428526,18.8473497 19.5280421,20.4621453 C17.2611263,20.5743338 15.5,22.4193939 15.5,24.7050313 C15.5,27.049543 17.4030737,28.9570755 19.7421053,28.9570755 C19.7734316,28.9570755 19.8044316,28.955113 19.8354316,28.9528235 L19.8661053,28.9495527 L19.9059158,28.9521693 C19.9418105,28.954786 19.9777053,28.9570755 20.0142526,28.9570755 L23.0868421,28.9570755 L23.0868421,31.7814141 C22.6035684,31.8533718 22.2234105,32.2344204 22.1516211,32.7191534 L15.6631579,32.7191534 C15.5730947,32.7191534 15.5,32.7924194 15.5,32.8826936 C15.5,32.9729678 15.5730947,33.0462338 15.6631579,33.0462338 L22.1516211,33.0462338 C22.2312421,33.584608 22.6910211,34 23.25,34 C23.8089789,34 24.2687579,33.5842809 24.3483789,33.0462338 L30.8368421,33.0462338 C30.9269053,33.0462338 31,32.9729678 31,32.8826936 C31,32.7924194 30.9269053,32.7191534 30.8368421,32.7191534 Z" id="Shape-Copy" fill="#2E6C99"></path>
                            <path d="M30.6449842,14.9096296 L24.156521,14.9096296 C24.0847316,14.4248966 23.7045737,14.043848 23.2213,13.9718903 L23.2213,11.1475517 L28.2521105,11.1475517 C29.6614684,11.1475517 30.8081421,9.99819144 30.8081421,8.58585859 C30.8081421,7.99973064 30.6058263,7.43061087 30.2370895,6.97466089 C30.2553631,6.85298701 30.2641737,6.73720058 30.2641737,6.62337662 C30.2641737,5.49331409 29.4898263,4.51109187 28.4064579,4.242886 C28.1166895,1.8156229 26.0834158,0 23.6291947,0 C21.825321,0 20.1509947,1.03782588 19.3361842,2.65262145 C17.0692684,2.76481 15.3081421,4.60987013 15.3081421,6.89550746 C15.3081421,9.24001924 17.2112158,11.1475517 19.5502474,11.1475517 C19.5815737,11.1475517 19.6125737,11.1455892 19.6435737,11.1432997 L19.7140579,11.1426455 C19.7499526,11.1452621 19.7858474,11.1475517 19.8223947,11.1475517 L22.8949842,11.1475517 L22.8949842,13.9718903 C22.4117105,14.043848 22.0315526,14.4248966 21.9597631,14.9096296 L10.7684211,14.9096296 C10.6783579,14.9096296 10.6052632,14.9828956 10.6052632,15.0731698 C10.6052632,15.163444 10.6783579,15.23671 10.7684211,15.23671 L21.9597631,15.23671 C22.0393842,15.7750842 22.4991631,16.1904762 23.0581421,16.1904762 C23.617121,16.1904762 24.0769,15.7747571 24.156521,15.23671 L30.6449842,15.23671 C30.7350474,15.23671 30.8081421,15.163444 30.8081421,15.0731698 C30.8081421,14.9828956 30.7350474,14.9096296 30.6449842,14.9096296 Z" id="Shape-Copy-17" fill="#2E6C99"></path>
                            <path d="M4.47555013,18.9769413 L4.4176161,18.973991 L4.36348101,18.977597 C4.34100387,18.9792361 4.31852673,18.981203 4.29573301,18.981203 C2.20092682,18.981203 0.496779668,17.2165447 0.496779668,15.0473557 C0.496779668,12.9024255 2.12019906,11.1767778 4.19252811,11.1190814 C4.25172847,11.1174423 4.30523039,11.081382 4.33087333,11.0259804 C5.05235788,9.46948813 6.59188372,8.46406233 8.25297607,8.46406233 C10.5089212,8.46406233 12.3710415,10.2159356 12.5847326,12.5388725 C12.5913808,12.6113208 12.6432998,12.6703285 12.7119976,12.684097 C13.6747157,12.8784946 14.3734065,13.7573817 14.3734065,14.7742812 C14.3734065,14.8926244 14.3626428,15.013918 14.3401656,15.1450463 C14.3319346,15.1935637 14.3452309,15.2433925 14.3759391,15.280764 C14.7146791,15.6879172 14.9011444,16.2065294 14.9011444,16.7412048 C14.9011444,17.9764329 13.9308284,18.9808752 12.7379571,18.9808752 L4.55944369,18.9808752 C4.53126812,18.981203 4.50340913,18.9792361 4.47555013,18.9769413 Z" id="Path" fill="#FFFFFF"></path>
                            <path d="M19.995243,28.6273173 L19.9376629,28.6243669 L19.8838586,28.6279729 C19.8615188,28.629612 19.8391789,28.6315789 19.8165245,28.6315789 C17.7345162,28.6315789 16.0407802,26.8669206 16.0407802,24.6977317 C16.0407802,22.5528015 17.6542816,20.8271538 19.7139501,20.7694574 C19.7727888,20.7678183 19.8259638,20.731758 19.8514501,20.6763563 C20.5685269,19.1198641 22.0986472,18.1144383 23.7495914,18.1144383 C25.9917542,18.1144383 27.8424982,19.8663116 28.0548838,22.1892484 C28.0614914,22.2616968 28.1130932,22.3207045 28.1813712,22.3344729 C29.1382078,22.5288705 29.8326301,23.4077576 29.8326301,24.4246571 C29.8326301,24.5430004 29.8219321,24.664294 29.7995923,24.7954222 C29.7914115,24.8439397 29.8046266,24.8937684 29.8351472,24.9311399 C30.1718177,25.3382931 30.3571439,25.8569053 30.3571439,26.3915807 C30.3571439,27.6268088 29.3927559,28.6312511 28.2071722,28.6312511 L20.0786241,28.6312511 C20.0506206,28.6315789 20.0229318,28.629612 19.995243,28.6273173 Z" id="Path-Copy-3" fill="#FFFFFF"></path>
                            <path d="M19.9627079,10.8604 L19.904543,10.8574496 L19.8501922,10.8610556 C19.8276256,10.8626947 19.8050589,10.8646617 19.7821743,10.8646617 C17.6790223,10.8646617 15.9680857,9.10000333 15.9680857,6.93081438 C15.9680857,4.78588416 17.5979729,3.06023649 19.6785583,3.00254006 C19.7379945,3.00090096 19.7917095,2.96484069 19.8174546,2.90943901 C20.5418136,1.35294677 22.0874731,0.347520976 23.7551833,0.347520976 C26.0201163,0.347520976 27.8896554,2.09939429 28.1041978,4.42233111 C28.1108725,4.49477946 28.1629984,4.55378717 28.2319698,4.56755564 C29.1985234,4.76195326 29.8999979,5.6408403 29.8999979,6.65773982 C29.8999979,6.77608306 29.8891913,6.89737668 29.8666246,7.02850492 C29.8583608,7.07702237 29.8717101,7.12685111 29.9025406,7.16422265 C30.2426302,7.57137585 30.4298384,8.08998805 30.4298384,8.62466345 C30.4298384,9.8598915 29.4556566,10.8643338 28.2580328,10.8643338 L20.0469356,10.8643338 C20.0186478,10.8646617 19.9906778,10.8626947 19.9627079,10.8604 Z" id="Path" fill="#FFFFFF"></path>
                        </g>
                    </g>
                </g>
            </g>
        </g>
    </g>
</svg>