<svg width="16" height="16" viewBox="0 0 16 16" fill="none" xmlns="http://www.w3.org/2000/svg">
<path fill-rule="evenodd" clip-rule="evenodd" d="M8.00005 0.800049C11.9765 0.800049 15.2001 4.0236 15.2001 8.00005C15.2001 11.9765 11.9765 15.2001 8.00005 15.2001C4.0236 15.2001 0.800049 11.9765 0.800049 8.00005C0.800049 4.0236 4.0236 0.800049 8.00005 0.800049ZM8 1.6C4.46538 1.6 1.60001 4.46538 1.60001 8C1.60001 11.5346 4.46538 14.4 8 14.4C11.5346 14.4 14.4 11.5346 14.4 8C14.4 4.46538 11.5346 1.6 8 1.6ZM8 5C9.65685 5 11 6.34315 11 8C11 9.65685 9.65685 11 8 11C6.34315 11 5 9.65685 5 8C5 6.34315 6.34315 5 8 5ZM8 5.8C6.78497 5.8 5.8 6.78497 5.8 8C5.8 9.21503 6.78497 10.2 8 10.2C9.21503 10.2 10.2 9.21503 10.2 8C10.2 6.78497 9.21503 5.8 8 5.8Z" fill="#1168A6"/>
</svg>
