<?xml version="1.0" encoding="UTF-8"?>
<svg width="60px" height="60px" viewBox="0 0 60 60" version="1.1" xmlns="http://www.w3.org/2000/svg" xmlns:xlink="http://www.w3.org/1999/xlink">
    <!-- Generator: sketchtool 51.2 (57519) - http://www.bohemiancoding.com/sketch -->
    <title>4FC23041-1ABF-4C8E-B399-B4755DA1D838</title>
    <desc>Created with sketchtool.</desc>
    <defs></defs>
    <g id="Page-1" stroke="none" stroke-width="1" fill="none" fill-rule="evenodd">
        <g id="Assets_graficos" transform="translate(-1058.000000, -897.000000)" fill-rule="nonzero">
            <g id="illus-/-graph-/-devices_nodo_error" transform="translate(1058.000000, 897.000000)">
                <rect id="Rectangle-12-Copy-20" stroke="#D3E1EB" fill="#F0F4F7" x="0.5" y="0.5" width="59" height="59" rx="29.5"></rect>
                <g id="Group-31" transform="translate(19.000000, 13.000000)">
                    <rect id="Rectangle-3-Copy" stroke="#D0021B" stroke-width="0.9" fill="#D0021B" x="0.45" y="7.74411765" width="22.7736607" height="22.1473856" rx="1.8"></rect>
                    <path d="M18.1781465,14.4869281 C19.1539193,14.4869281 19.9445282,13.6928897 19.9445282,12.7141114 C19.9445282,11.7352858 19.1539193,10.9411765 18.1781465,10.9411765 C17.2023736,10.9411765 16.4117647,11.7352858 16.4117647,12.7141114 C16.4117647,13.6928897 17.2023736,14.4869281 18.1781465,14.4869281 Z" id="Shape-Copy-22" fill="#FFFFFF"></path>
                    <path d="M25.2846454,0.00321574646 C24.9176894,-0.0347116955 24.6176471,0.268048243 24.6176471,0.637009266 C24.6176471,1.00597029 24.9183308,1.30045672 25.2842178,1.34842899 C27.5551121,1.64620336 29.3538698,3.44469301 29.6515606,5.7158185 C29.6995545,6.08164978 29.9940386,6.38235294 30.3630255,6.38235294 C30.7320124,6.38235294 31.034727,6.08234457 30.9967808,5.71533749 C30.6858356,2.70618948 28.2940479,0.314208722 25.2846454,0.00321574646 Z" id="Shape-Copy-23" fill="#D0021B"></path>
                    <path d="M26.7624859,7.29411765 C27.1141991,7.29411765 27.404984,7.00671608 27.3450745,6.66016937 C27.080067,5.128458 25.8715878,3.91991037 24.3398219,3.65493403 C23.993305,3.59498398 23.7058824,3.88582932 23.7058824,4.23752129 C23.7058824,4.58921327 23.995954,4.86576392 24.3355427,4.95705426 C25.16592,5.18022655 25.8198294,5.83416496 26.0429614,6.66443842 C26.134252,7.00407722 26.4107727,7.29411765 26.7624859,7.29411765 Z" id="Shape-Copy-24" fill="#D0021B"></path>
                    <rect id="Rectangle-6-Copy-2" fill="#FFFFFF" x="3.64705882" y="25.5294118" width="16.4117647" height="1.82352941" rx="0.9"></rect>
                </g>
            </g>
        </g>
    </g>
</svg>