<?xml version="1.0" encoding="UTF-8"?>
<svg width="60px" height="60px" viewBox="0 0 60 60" version="1.1" xmlns="http://www.w3.org/2000/svg" xmlns:xlink="http://www.w3.org/1999/xlink">
    <!-- Generator: sketchtool 51.2 (57519) - http://www.bohemiancoding.com/sketch -->
    <title>1C0855DD-7AAB-4E6F-8459-3069CBF6BA88</title>
    <desc>Created with sketchtool.</desc>
    <defs></defs>
    <g id="Page-1" stroke="none" stroke-width="1" fill="none" fill-rule="evenodd">
        <g id="Assets_graficos" transform="translate(-798.000000, -897.000000)" fill-rule="nonzero">
            <g id="illus-/-graph-/-devices_categoria" transform="translate(798.000000, 897.000000)">
                <g id="Group-22">
                    <rect id="Rectangle-12-Copy-5" stroke="#D3E1EB" fill="#F0F4F7" x="0.5" y="0.5" width="59" height="59" rx="29.5"></rect>
                    <g id="Group-33" transform="translate(15.000000, 10.000000)">
                        <path d="M20.0090909,18.4228378 L10.9,18.4228378 C10.0798571,18.4228378 9.415,17.7579807 9.415,16.9378378 L9.415,8.92702703 C9.415,8.10688417 10.0798571,7.44202703 10.9,7.44202703 L20.0090909,7.44202703 C20.8292338,7.44202703 21.4940909,8.10688417 21.4940909,8.92702703 L21.4940909,16.9378378 C21.4940909,17.7579807 20.8292338,18.4228378 20.0090909,18.4228378 Z" id="Path-Copy-4" stroke="#2E6C99" stroke-width="1.17" fill="#FFFFFF"></path>
                        <path d="M23.3923151,0.00314565608 C23.0264352,-0.0339551197 22.7272727,0.262205866 22.7272727,0.623125019 C22.7272727,0.984044172 23.0270747,1.27211198 23.3918888,1.31903864 C25.6561235,1.61032273 27.4496063,3.36961251 27.746424,5.59123658 C27.7942772,5.94909421 28.0878977,6.24324324 28.4558025,6.24324324 C28.8237074,6.24324324 29.1255343,5.94977385 29.0876993,5.59076606 C28.777666,2.6472054 26.3928923,0.307360232 23.3923151,0.00314565608 Z" id="Shape-Copy-9" fill="#2E6C99"></path>
                        <path d="M24.8658217,7.13513514 C25.2165035,7.13513514 25.5064356,6.85399777 25.4467019,6.51500439 C25.1824715,5.01667818 23.9775363,3.83447204 22.4502623,3.57527112 C22.1047616,3.51662775 21.8181818,3.80113382 21.8181818,4.14516032 C21.8181818,4.48918682 22.1074028,4.75970978 22.4459956,4.84901036 C23.2739378,5.06731839 23.9259296,5.70700357 24.1484073,6.51918039 C24.2394301,6.85141643 24.5151399,7.13513514 24.8658217,7.13513514 Z" id="Shape-Copy-10" fill="#2E6C99"></path>
                        <path d="M29.1,33.585 L19.9909091,33.585 C19.1707662,33.585 18.5059091,32.9201429 18.5059091,32.1 L18.5059091,24.0891892 C18.5059091,23.2690463 19.1707662,22.6041892 19.9909091,22.6041892 L29.1,22.6041892 C29.9201429,22.6041892 30.585,23.2690463 30.585,24.0891892 L30.585,32.1 C30.585,32.9201429 29.9201429,33.585 29.1,33.585 Z" id="Path-Copy-5" stroke="#2E6C99" stroke-width="1.17" fill="#FFFFFF"></path>
                        <path d="M10.0090909,33.585 L0.9,33.585 C0.0798571465,33.585 -0.585,32.9201429 -0.585,32.1 L-0.585,24.0891892 C-0.585,23.2690463 0.0798571465,22.6041892 0.9,22.6041892 L10.0090909,22.6041892 C10.8292338,22.6041892 11.4940909,23.2690463 11.4940909,24.0891892 L11.4940909,32.1 C11.4940909,32.9201429 10.8292338,33.585 10.0090909,33.585 Z" id="Path-Copy-6" stroke="#2E6C99" stroke-width="1.17" fill="#FFFFFF"></path>
                        <rect id="Rectangle-6-Copy-3" fill="#2E6C99" x="1.81818182" y="29.4324324" width="7.27272727" height="1.78378378" rx="0.891891892"></rect>
                        <rect id="Rectangle-6-Copy-4" fill="#2E6C99" x="20.9090909" y="29.4324324" width="7.27272727" height="1.78378378" rx="0.891891892"></rect>
                        <rect id="Rectangle-6-Copy-5" fill="#2E6C99" x="11.8181818" y="14.2702703" width="7.27272727" height="1.78378378" rx="0.891891892"></rect>
                        <path d="M15.7045455,24.7143735 L18.3716216,24.7143735 L18.3716216,26.1234644 L11.6283784,26.1234644 L11.6283784,24.7143735 L14.2954545,24.7143735 L14.2954545,18.4797297 L15.7045455,18.4797297 L15.7045455,24.7143735 Z" id="Combined-Shape" stroke="#2E6C99" stroke-width="0.5" fill="#2E6C99"></path>
                    </g>
                </g>
            </g>
        </g>
    </g>
</svg>