<?xml version="1.0" encoding="UTF-8"?>
<svg width="60px" height="60px" viewBox="0 0 60 60" version="1.1" xmlns="http://www.w3.org/2000/svg" xmlns:xlink="http://www.w3.org/1999/xlink">
    <!-- Generator: sketchtool 51.2 (57519) - http://www.bohemiancoding.com/sketch -->
    <title>86B2099C-605F-48E3-A64E-D5FBB8211DDE</title>
    <desc>Created with sketchtool.</desc>
    <defs></defs>
    <g id="Page-1" stroke="none" stroke-width="1" fill="none" fill-rule="evenodd">
        <g id="Assets_graficos" transform="translate(-982.000000, -1026.000000)" fill-rule="nonzero">
            <g id="illus-/-graph-/-digital_twin_nodo" transform="translate(982.000000, 1026.000000)">
                <rect id="Rectangle-12-Copy-8" stroke="#D3E1EB" fill="#F0F4F7" x="0.5" y="0.5" width="59" height="59" rx="29.5"></rect>
                <g id="Group-27" transform="translate(15.000000, 16.000000)" stroke="#2E6C99">
                    <rect id="Rectangle-4-Copy" stroke-width="1.26" fill="#FFFFFF" x="1.46333333" y="1.52187182" width="27.5783838" height="25.5207725" rx="1.8"></rect>
                    <path d="M16.7505453,8.15299765 L21.9336441,17.8801321 C22.4011313,18.7574664 22.0688845,19.8476596 21.1915502,20.3151468 C20.931006,20.4539776 20.6403138,20.5265925 20.3450898,20.5265925 L9.97889225,20.5265925 C8.9847797,20.5265925 8.17889225,19.720705 8.17889225,18.7265925 C8.17889225,18.4313685 8.25150713,18.1406762 8.39033793,17.8801321 L13.5734367,8.15299765 C14.0409238,7.27566333 15.1311171,6.94341655 16.0084514,7.41090371 C16.3240377,7.5790637 16.5823853,7.83741138 16.7505453,8.15299765 Z" id="Triangle-2-Copy" stroke-width="1.8"></path>
                </g>
            </g>
        </g>
    </g>
</svg>