<?xml version="1.0" encoding="UTF-8"?>
<svg width="60px" height="60px" viewBox="0 0 60 60" version="1.1" xmlns="http://www.w3.org/2000/svg" xmlns:xlink="http://www.w3.org/1999/xlink">
    <!-- Generator: sketchtool 51.2 (57519) - http://www.bohemiancoding.com/sketch -->
    <title>A2F247E2-4CC9-41B7-8DC5-EC2F7723B709</title>
    <desc>Created with sketchtool.</desc>
    <defs></defs>
    <g id="Page-1" stroke="none" stroke-width="1" fill="none" fill-rule="evenodd">
        <g id="Assets_graficos" transform="translate(-798.000000, -1026.000000)">
            <g id="illus-/-graph-/-digital_twin_categoria" transform="translate(798.000000, 1026.000000)">
                <g id="Group-24" fill-rule="nonzero">
                    <rect id="Rectangle-12-Copy-7" stroke="#D3E1EB" fill="#F0F4F7" x="0.5" y="0.5" width="59" height="59" rx="29.5"></rect>
                    <g id="Group-29" transform="translate(10.000000, 18.000000)" stroke="#2E6C99">
                        <rect id="Rectangle-4" stroke-width="1.368" fill="#FFFFFF" x="0.684" y="7.94206452" width="17.8405182" height="16.3739355" rx="1.8"></rect>
                        <rect id="Rectangle-4-Copy-7" stroke-width="1.368" fill="#FFFFFF" x="22.4754818" y="0.684" width="17.8405182" height="16.3739355" rx="1.8"></rect>
                        <path d="M10.761536,12.0930653 L14.2860607,19.0886153 C14.6081126,19.7278307 14.3510008,20.5070919 13.7117854,20.8291439 C13.5309099,20.9202732 13.3311938,20.9677419 13.1286587,20.9677419 L6.07960929,20.9677419 C5.36384826,20.9677419 4.78360929,20.387503 4.78360929,19.6717419 C4.78360929,19.4692068 4.83107798,19.2694907 4.92220734,19.0886153 L8.44673204,12.0930653 C8.76878401,11.4538498 9.54804522,11.196738 10.1872607,11.51879 C10.4352698,11.6437429 10.6365831,11.8450562 10.761536,12.0930653 Z" id="Triangle-2" stroke-width="1.296"></path>
                        <path d="M32.5530178,4.83500074 L36.0775425,11.8305507 C36.3995944,12.4697662 36.1424826,13.2490274 35.5032672,13.5710794 C35.3223918,13.6622087 35.1226757,13.7096774 34.9201405,13.7096774 L27.8710911,13.7096774 C27.1553301,13.7096774 26.5750911,13.1294385 26.5750911,12.4136774 C26.5750911,12.2111423 26.6225598,12.0114262 26.7136891,11.8305507 L30.2382139,4.83500074 C30.5602658,4.19578529 31.339527,3.93867349 31.9787425,4.26072546 C32.2267516,4.38567834 32.4280649,4.58699166 32.5530178,4.83500074 Z" id="Triangle-2-Copy-2" stroke-width="1.296"></path>
                    </g>
                </g>
                <g id="Group-20" transform="translate(8.000000, 17.000000)"></g>
            </g>
        </g>
    </g>
</svg>