<?xml version="1.0" encoding="UTF-8"?>
<svg width="60px" height="60px" viewBox="0 0 60 60" version="1.1" xmlns="http://www.w3.org/2000/svg" xmlns:xlink="http://www.w3.org/1999/xlink">
    <!-- Generator: sketchtool 51.2 (57519) - http://www.bohemiancoding.com/sketch -->
    <title>C0696A16-CD81-4233-B699-0BC8D7EDF97E</title>
    <desc>Created with sketchtool.</desc>
    <defs></defs>
    <g id="Page-1" stroke="none" stroke-width="1" fill="none" fill-rule="evenodd">
        <g id="Assets_graficos" transform="translate(-984.000000, -1671.000000)" fill-rule="nonzero">
            <g id="illus-/-graph-/-flows_nodo" transform="translate(984.000000, 1671.000000)">
                <rect id="Rectangle-12-Copy-22" stroke="#D3E1EB" fill="#F0F4F7" x="0.5" y="0.5" width="59" height="59" rx="29.5"></rect>
                <g id="Group-13" transform="translate(11.000000, 19.000000)">
                    <rect id="Rectangle-7" fill="#FFFFFF" x="17.1904762" y="1.83333333" width="19.9047619" height="18.3333333"></rect>
                    <path d="M37.2651755,9.73958333 L21.5789484,9.73958333 L21.5789484,5.39763889 C21.5789484,2.19131909 19.9182309,0.50875 16.7535516,0.50875 L5.37202381,0.50875 C2.20734453,0.50875 0.546626984,2.19131909 0.546626984,5.39763889 L0.546626984,16.6023611 C0.546626984,19.8086809 2.20734453,21.49125 5.37202381,21.49125 L16.7535516,21.49125 C19.9182309,21.49125 21.5789484,19.8086809 21.5789484,16.6023611 L21.5789484,12.2604167 L37.2651755,12.2604167 L37.2651755,9.73958333 Z M2.35748478,18.0286945 C2.35659815,18.0054895 2.35615079,17.982172 2.35615079,17.95875 L2.35615079,4.14208333 L2.35615079,4.04143572 C2.35615079,3.04581164 3.13005108,2.23869885 4.08470546,2.23869885 L17.8180723,2.23869885 C18.7727267,2.23869885 19.546627,3.04581164 19.546627,4.04143572 L19.546627,17.9585643 C19.546627,18.9541884 18.7727267,19.7613011 17.8180723,19.7613011 L4.08470546,19.7613011 C3.15257234,19.7613011 2.39276556,18.9918204 2.35743512,18.0287047 Z" id="Shape" fill="#2E6C99" transform="translate(18.905901, 11.000000) scale(-1, 1) translate(-18.905901, -11.000000) "></path>
                </g>
            </g>
        </g>
    </g>
</svg>