<?xml version="1.0" encoding="UTF-8"?>
<svg width="60px" height="60px" viewBox="0 0 60 60" version="1.1" xmlns="http://www.w3.org/2000/svg" xmlns:xlink="http://www.w3.org/1999/xlink">
    <!-- Generator: sketchtool 51.2 (57519) - http://www.bohemiancoding.com/sketch -->
    <title>1C044416-1536-4AF5-938C-73C7C9734C88</title>
    <desc>Created with sketchtool.</desc>
    <defs></defs>
    <g id="Page-1" stroke="none" stroke-width="1" fill="none" fill-rule="evenodd">
        <g id="Assets_graficos" transform="translate(-798.000000, -1671.000000)" fill-rule="nonzero">
            <g id="illus-/-graph-/-flows_categoria" transform="translate(798.000000, 1671.000000)">
                <rect id="Rectangle-12-Copy-21" stroke="#D3E1EB" fill="#F0F4F7" x="0.5" y="0.5" width="59" height="59" rx="29.5"></rect>
                <g id="Group-14" transform="translate(11.000000, 13.000000)">
                    <rect id="Rectangle-7" fill="#FFFFFF" x="0.894736842" y="12.5263158" width="9.84210526" height="8.94736842"></rect>
                    <rect id="Rectangle-7-Copy" fill="#FFFFFF" x="25.0526316" y="1.78947368" width="7.15789474" height="7.15789474"></rect>
                    <rect id="Rectangle-7-Copy-2" fill="#FFFFFF" x="25.0526316" y="13.4210526" width="7.15789474" height="7.15789474"></rect>
                    <rect id="Rectangle-7-Copy-3" fill="#FFFFFF" x="25.0526316" y="25.0526316" width="7.15789474" height="7.15789474"></rect>
                    <path d="M30.9895833,0 L26.0702083,0 C24.5054015,-7.86407976e-17 23.236875,1.26852654 23.236875,2.83333333 L23.236875,4.34916667 L19.65625,4.34916667 C17.5046407,4.34916667 15.7604167,6.09339066 15.7604167,8.245 L15.7604167,15.9375 L11.4714583,15.9375 L11.4714583,14.2658333 C11.4714583,12.7010265 10.2029318,11.4325 8.638125,11.4325 L3.01041667,11.4325 C1.44560988,11.4325 0.177083333,12.7010265 0.177083333,14.2658333 L0.177083333,19.7341667 C0.177083333,21.2989735 1.44560988,22.5675 3.01041667,22.5675 L8.638125,22.5675 C10.2029318,22.5675 11.4714583,21.2989735 11.4714583,19.7341667 L11.4714583,18.0625 L15.7604167,18.0625 L15.7604167,25.755 C15.7604167,27.9066093 17.5046407,29.6508333 19.65625,29.6508333 L23.236875,29.6508333 L23.236875,31.1666667 C23.236875,32.7314735 24.5054015,34 26.0702083,34 L30.9895833,34 C32.5543901,34 33.8229167,32.7314735 33.8229167,31.1666667 L33.8229167,26.955625 C33.8229167,25.3908182 32.5543901,24.1222917 30.9895833,24.1222917 L26.0702083,24.1222917 C24.5054015,24.1222917 23.236875,25.3908182 23.236875,26.955625 L23.236875,27.5258333 L19.65625,27.5258333 C18.6782458,27.5258333 17.8854167,26.7330042 17.8854167,25.755 L17.8854167,18.0625 L23.236875,18.0625 L23.236875,19.10375 C23.236875,20.6685568 24.5054015,21.9370833 26.0702083,21.9370833 L30.9895833,21.9370833 C32.5543901,21.9370833 33.8229167,20.6685568 33.8229167,19.10375 L33.8229167,14.89625 C33.8229167,13.3314432 32.5543901,12.0629167 30.9895833,12.0629167 L26.0702083,12.0629167 C24.5054015,12.0629167 23.236875,13.3314432 23.236875,14.89625 L23.236875,15.9375 L17.8854167,15.9375 L17.8854167,8.245 C17.8854167,7.26699576 18.6782458,6.47416667 19.65625,6.47416667 L23.236875,6.47416667 L23.236875,7.044375 C23.236875,8.60918179 24.5054015,9.87770833 26.0702083,9.87770833 L30.9895833,9.87770833 C32.5543901,9.87770833 33.8229167,8.60918179 33.8229167,7.044375 L33.8229167,2.83333333 C33.8229167,1.26852654 32.5543901,1.57281595e-16 30.9895833,0 Z M10.0405973,20.4464878 C10.0405973,20.9396076 9.6609666,21.3393603 9.1926684,21.3393603 L2.45587326,21.3393603 C1.98757506,21.3393603 1.60794436,20.9396076 1.60794436,20.4464878 L1.60794436,13.5535122 C1.60794436,13.0603924 1.98757506,12.6606397 2.45587326,12.6606397 L9.1926684,12.6606397 C9.6609666,12.6606397 10.0405973,13.0603924 10.0405973,13.5535122 L10.0405973,20.4464878 Z M24.6893618,26.5086612 C24.6893618,26.0344145 25.0738147,25.6499616 25.5480614,25.6499616 L31.5117302,25.6499616 C31.9859769,25.6499616 32.3704299,26.0344145 32.3704299,26.5086612 L32.3704299,31.6136304 C32.3704299,32.0878771 31.9859769,32.47233 31.5117302,32.47233 L25.5480614,32.47233 C25.0738147,32.47233 24.6893618,32.0878771 24.6893618,31.6136304 L24.6893618,26.5086612 Z M24.5696601,14.3661888 C24.5696601,13.8771607 24.9660956,13.4807252 25.4551236,13.4807252 L31.604668,13.4807252 C32.093696,13.4807252 32.4901316,13.8771607 32.4901316,14.3661888 L32.4901316,19.6302696 C32.4901316,20.1192976 32.093696,20.5157331 31.604668,20.5157331 L25.4551236,20.5157331 C24.9660956,20.5157331 24.5696601,20.1192976 24.5696601,19.6302696 L24.5696601,14.3661888 Z M32.390472,7.50465911 C32.390472,7.9813807 32.0040128,8.36783991 31.5272912,8.36783991 L25.5325005,8.36783991 C25.0557789,8.36783991 24.6693197,7.9813807 24.6693197,7.50465911 L24.6693197,2.37304923 C24.6693197,1.89632763 25.0557789,1.50986842 25.5325005,1.50986842 L31.5272912,1.50986842 C32.0040128,1.50986842 32.390472,1.89632763 32.390472,2.37304923 L32.390472,7.50465911 Z" id="Shape" fill="#2E6C99"></path>
                </g>
            </g>
        </g>
    </g>
</svg>