<?xml version="1.0" encoding="UTF-8"?>
<svg width="60px" height="60px" viewBox="0 0 60 60" version="1.1" xmlns="http://www.w3.org/2000/svg" xmlns:xlink="http://www.w3.org/1999/xlink">
    <!-- Generator: sketchtool 51.2 (57519) - http://www.bohemiancoding.com/sketch -->
    <title>D0B00ABB-23B8-4963-BD1A-DCA355DCF717</title>
    <desc>Created with sketchtool.</desc>
    <defs></defs>
    <g id="Page-1" stroke="none" stroke-width="1" fill="none" fill-rule="evenodd">
        <g id="Assets_graficos" transform="translate(-798.000000, -1413.000000)">
            <g id="illus-/-graph-/-gadgets_categoria" transform="translate(798.000000, 1413.000000)">
                <rect id="Rectangle-12-Copy-12" stroke="#D3E1EB" fill="#F0F4F7" fill-rule="nonzero" x="0.5" y="0.5" width="59" height="59" rx="29.5"></rect>
                <g id="Group-18" transform="translate(15.000000, 14.000000)" stroke="#2E6C99">
                    <rect id="Rectangle-10" stroke-width="1.26" fill="#FFFFFF" fill-rule="nonzero" x="0.63" y="0.63" width="12.4164706" height="12.4164706" rx="2.16"></rect>
                    <rect id="Rectangle-10-Copy-2" stroke-width="1.26" fill="#FFFFFF" fill-rule="nonzero" x="0.63" y="17.9535294" width="12.4164706" height="12.4164706" rx="2.16"></rect>
                    <rect id="Rectangle-10-Copy" stroke-width="1.26" fill="#FFFFFF" fill-rule="nonzero" x="17.9535294" y="0.63" width="12.4164706" height="12.4164706" rx="2.16"></rect>
                    <path d="M22.2330317,23.1447964 L16.061086,23.1447964 C15.7512067,23.1447964 15.5,23.3960031 15.5,23.7058824 C15.5,24.0157616 15.7512067,24.2669683 16.061086,24.2669683 L22.2330317,24.2669683 L22.2330317,30.438914 C22.2330317,30.7487933 22.4842384,31 22.7941176,31 C23.1039969,31 23.3552036,30.7487933 23.3552036,30.438914 L23.3552036,24.2669683 L29.5271493,24.2669683 C29.8370285,24.2669683 30.0882353,24.0157616 30.0882353,23.7058824 C30.0882353,23.3960031 29.8370285,23.1447964 29.5271493,23.1447964 L23.3552036,23.1447964 L23.3552036,16.9728507 C23.3552036,16.6629715 23.1039969,16.4117647 22.7941176,16.4117647 C22.4842384,16.4117647 22.2330317,16.6629715 22.2330317,16.9728507 L22.2330317,23.1447964 Z" id="Combined-Shape-Copy-10" stroke-width="1.08" fill="#2E6C99"></path>
                </g>
            </g>
        </g>
    </g>
</svg>