<?xml version="1.0" encoding="UTF-8"?>
<svg width="60px" height="60px" viewBox="0 0 60 60" version="1.1" xmlns="http://www.w3.org/2000/svg" xmlns:xlink="http://www.w3.org/1999/xlink">
    <!-- Generator: Sketch 52.4 (67378) - http://www.bohemiancoding.com/sketch -->
    <title>illus / graph / notebook</title>
    <desc>Created with Sketch.</desc>
    <g id="Page-1" stroke="none" stroke-width="1" fill="none" fill-rule="evenodd">
        <g id="Assets_graficos" transform="translate(-989.000000, -1927.000000)">
            <g id="illus-/-graph-/-notebook" transform="translate(989.000000, 1927.000000)">
                <g id="illus-/-graph-/-script_nodo-copy">
                    <g id="Group-7">
                        <rect id="Rectangle-12-Copy-26" stroke="#D3E1EB" fill="#F0F4F7" fill-rule="nonzero" x="0.5" y="0.5" width="59" height="59" rx="29.5"></rect>
                        <g id="noun_Notebook_1547982" transform="translate(15.000000, 15.000000)">
                            <path d="M13.5395556,3.55952941 C13.5395556,4.05552941 13.1697778,4.464 12.6862222,4.464 C12.2026667,4.464 11.8044444,4.05552941 11.8044444,3.55952941 L11.8044444,3.12188235 L9.216,3.12188235 L9.216,3.55952941 C9.216,4.05552941 8.81777778,4.464 8.33422222,4.464 C7.85066667,4.464 7.45244444,4.05552941 7.45244444,3.55952941 L7.45244444,3.12188235 L5.29066667,3.12188235 L5.29066667,28.0677647 L24.4053333,28.0677647 L24.4053333,3.12188235 L22.2435556,3.12188235 L22.2435556,3.55952941 C22.2435556,4.05552941 21.8453333,4.464 21.3617778,4.464 C20.8782222,4.464 20.5084444,4.05552941 20.5084444,3.55952941 L20.5084444,3.12188235 L17.8915556,3.12188235 L17.8915556,3.55952941 C17.8915556,4.05552941 17.4933333,4.464 17.0097778,4.464 C16.5546667,4.464 16.1564444,4.05552941 16.1564444,3.55952941 L16.1564444,3.12188235 L13.5395556,3.12188235 L13.5395556,3.55952941 Z" id="Path" fill="#FFFFFF"></path>
                            <path d="M4.43733333,1.34211765 L7.45244444,1.34211765 L7.45244444,0.904470588 C7.45244444,0.408470588 7.85066667,0 8.33422222,0 C8.81777778,0 9.216,0.408470588 9.216,0.904470588 L9.216,1.34211765 L11.8044444,1.34211765 L11.8044444,0.904470588 C11.8044444,0.408470588 12.2026667,0 12.6862222,0 C13.1697778,0 13.5395556,0.408470588 13.5395556,0.904470588 L13.5395556,1.34211765 L16.1564444,1.34211765 L16.1564444,0.904470588 C16.1564444,0.408470588 16.5546667,0 17.0097778,0 C17.4933333,0 17.8915556,0.408470588 17.8915556,0.904470588 L17.8915556,1.34211765 L20.5084444,1.34211765 L20.5084444,0.904470588 C20.5084444,0.408470588 20.8782222,0 21.3617778,0 C21.8453333,0 22.2435556,0.408470588 22.2435556,0.904470588 L22.2435556,1.34211765 L25.2871111,1.34211765 C25.7706667,1.34211765 26.1404444,1.75058824 26.1404444,2.21741176 L26.1404444,28.9722353 C26.1404444,29.4682353 25.7706667,29.8475294 25.2871111,29.8475294 L4.43733333,29.8475294 C3.95377778,29.8475294 3.55555556,29.4682353 3.55555556,28.9722353 L3.55555556,2.21741176 C3.55555556,1.75058824 3.95377778,1.34211765 4.43733333,1.34211765 Z M8.33422222,18.7312941 C7.85066667,18.7312941 7.45244444,18.3228235 7.45244444,17.8268235 C7.45244444,17.3308235 7.85066667,16.9223529 8.33422222,16.9223529 L21.3617778,16.9223529 C21.8453333,16.9223529 22.2435556,17.3308235 22.2435556,17.8268235 C22.2435556,18.3228235 21.8453333,18.7312941 21.3617778,18.7312941 L8.33422222,18.7312941 Z M21.3617778,21.3863529 C21.8453333,21.3863529 22.2435556,21.7948235 22.2435556,22.2908235 C22.2435556,22.7868235 21.8453333,23.1661176 21.3617778,23.1661176 L8.33422222,23.1661176 C7.85066667,23.1661176 7.45244444,22.7868235 7.45244444,22.2908235 C7.45244444,21.7948235 7.85066667,21.3863529 8.33422222,21.3863529 L21.3617778,21.3863529 Z M8.33422222,9.80329412 C7.85066667,9.80329412 7.45244444,9.39482353 7.45244444,8.89882353 C7.45244444,8.432 7.85066667,8.02352941 8.33422222,8.02352941 L21.3617778,8.02352941 C21.8453333,8.02352941 22.2435556,8.432 22.2435556,8.89882353 C22.2435556,9.39482353 21.8453333,9.80329412 21.3617778,9.80329412 L8.33422222,9.80329412 Z M21.3617778,12.4875294 C21.8453333,12.4875294 22.2435556,12.8668235 22.2435556,13.3628235 C22.2435556,13.8588235 21.8453333,14.2672941 21.3617778,14.2672941 L8.33422222,14.2672941 C7.85066667,14.2672941 7.45244444,13.8588235 7.45244444,13.3628235 C7.45244444,12.8668235 7.85066667,12.4875294 8.33422222,12.4875294 L21.3617778,12.4875294 Z M13.5395556,3.55952941 C13.5395556,4.05552941 13.1697778,4.464 12.6862222,4.464 C12.2026667,4.464 11.8044444,4.05552941 11.8044444,3.55952941 L11.8044444,3.12188235 L9.216,3.12188235 L9.216,3.55952941 C9.216,4.05552941 8.81777778,4.464 8.33422222,4.464 C7.85066667,4.464 7.45244444,4.05552941 7.45244444,3.55952941 L7.45244444,3.12188235 L5.29066667,3.12188235 L5.29066667,28.0677647 L24.4053333,28.0677647 L24.4053333,3.12188235 L22.2435556,3.12188235 L22.2435556,3.55952941 C22.2435556,4.05552941 21.8453333,4.464 21.3617778,4.464 C20.8782222,4.464 20.5084444,4.05552941 20.5084444,3.55952941 L20.5084444,3.12188235 L17.8915556,3.12188235 L17.8915556,3.55952941 C17.8915556,4.05552941 17.4933333,4.464 17.0097778,4.464 C16.5546667,4.464 16.1564444,4.05552941 16.1564444,3.55952941 L16.1564444,3.12188235 L13.5395556,3.12188235 L13.5395556,3.55952941 Z" id="Shape" fill="#2E6C99" fill-rule="nonzero"></path>
                        </g>
                    </g>
                </g>
            </g>
        </g>
    </g>
</svg>