<?xml version="1.0" encoding="UTF-8"?>
<svg width="60px" height="60px" viewBox="0 0 60 60" version="1.1" xmlns="http://www.w3.org/2000/svg" xmlns:xlink="http://www.w3.org/1999/xlink">
    <!-- Generator: Sketch 52.4 (67378) - http://www.bohemiancoding.com/sketch -->
    <title>illus / graph / notebook_cat</title>
    <desc>Created with Sketch.</desc>
    <g id="Page-1" stroke="none" stroke-width="1" fill="none" fill-rule="evenodd">
        <g id="Assets_graficos" transform="translate(-805.000000, -2043.000000)">
            <g id="illus-/-graph-/-notebook_cat" transform="translate(805.000000, 2043.000000)">
                <g id="illus-/-graph-/-script_nodo-copy">
                    <g id="Group-7">
                        <rect id="Rectangle-12-Copy-26" stroke="#D3E1EB" fill="#F0F4F7" fill-rule="nonzero" x="0.5" y="0.5" width="59" height="59" rx="29.5"></rect>
                        <g id="noun_Notebook_1547982" transform="translate(9.000000, 23.000000)">
                            <path d="M9.30844444,2.52611765 C9.30844444,2.87811765 9.05422222,3.168 8.72177778,3.168 C8.38933333,3.168 8.11555556,2.87811765 8.11555556,2.52611765 L8.11555556,2.21552941 L6.336,2.21552941 L6.336,2.52611765 C6.336,2.87811765 6.06222222,3.168 5.72977778,3.168 C5.39733333,3.168 5.12355556,2.87811765 5.12355556,2.52611765 L5.12355556,2.21552941 L3.63733333,2.21552941 L3.63733333,19.9190588 L16.7786667,19.9190588 L16.7786667,2.21552941 L15.2924444,2.21552941 L15.2924444,2.52611765 C15.2924444,2.87811765 15.0186667,3.168 14.6862222,3.168 C14.3537778,3.168 14.0995556,2.87811765 14.0995556,2.52611765 L14.0995556,2.21552941 L12.3004444,2.21552941 L12.3004444,2.52611765 C12.3004444,2.87811765 12.0266667,3.168 11.6942222,3.168 C11.3813333,3.168 11.1075556,2.87811765 11.1075556,2.52611765 L11.1075556,2.21552941 L9.30844444,2.21552941 L9.30844444,2.52611765 Z" id="Path" fill="#FFFFFF"></path>
                            <path d="M3.05066667,0.952470588 L5.12355556,0.952470588 L5.12355556,0.641882353 C5.12355556,0.289882353 5.39733333,0 5.72977778,0 C6.06222222,0 6.336,0.289882353 6.336,0.641882353 L6.336,0.952470588 L8.11555556,0.952470588 L8.11555556,0.641882353 C8.11555556,0.289882353 8.38933333,0 8.72177778,0 C9.05422222,0 9.30844444,0.289882353 9.30844444,0.641882353 L9.30844444,0.952470588 L11.1075556,0.952470588 L11.1075556,0.641882353 C11.1075556,0.289882353 11.3813333,0 11.6942222,0 C12.0266667,0 12.3004444,0.289882353 12.3004444,0.641882353 L12.3004444,0.952470588 L14.0995556,0.952470588 L14.0995556,0.641882353 C14.0995556,0.289882353 14.3537778,0 14.6862222,0 C15.0186667,0 15.2924444,0.289882353 15.2924444,0.641882353 L15.2924444,0.952470588 L17.3848889,0.952470588 C17.7173333,0.952470588 17.9715556,1.24235294 17.9715556,1.57364706 L17.9715556,20.5609412 C17.9715556,20.9129412 17.7173333,21.1821176 17.3848889,21.1821176 L3.05066667,21.1821176 C2.71822222,21.1821176 2.44444444,20.9129412 2.44444444,20.5609412 L2.44444444,1.57364706 C2.44444444,1.24235294 2.71822222,0.952470588 3.05066667,0.952470588 Z M5.72977778,13.2931765 C5.39733333,13.2931765 5.12355556,13.0032941 5.12355556,12.6512941 C5.12355556,12.2992941 5.39733333,12.0094118 5.72977778,12.0094118 L14.6862222,12.0094118 C15.0186667,12.0094118 15.2924444,12.2992941 15.2924444,12.6512941 C15.2924444,13.0032941 15.0186667,13.2931765 14.6862222,13.2931765 L5.72977778,13.2931765 Z M14.6862222,15.1774118 C15.0186667,15.1774118 15.2924444,15.4672941 15.2924444,15.8192941 C15.2924444,16.1712941 15.0186667,16.4404706 14.6862222,16.4404706 L5.72977778,16.4404706 C5.39733333,16.4404706 5.12355556,16.1712941 5.12355556,15.8192941 C5.12355556,15.4672941 5.39733333,15.1774118 5.72977778,15.1774118 L14.6862222,15.1774118 Z M5.72977778,6.95717647 C5.39733333,6.95717647 5.12355556,6.66729412 5.12355556,6.31529412 C5.12355556,5.984 5.39733333,5.69411765 5.72977778,5.69411765 L14.6862222,5.69411765 C15.0186667,5.69411765 15.2924444,5.984 15.2924444,6.31529412 C15.2924444,6.66729412 15.0186667,6.95717647 14.6862222,6.95717647 L5.72977778,6.95717647 Z M14.6862222,8.86211765 C15.0186667,8.86211765 15.2924444,9.13129412 15.2924444,9.48329412 C15.2924444,9.83529412 15.0186667,10.1251765 14.6862222,10.1251765 L5.72977778,10.1251765 C5.39733333,10.1251765 5.12355556,9.83529412 5.12355556,9.48329412 C5.12355556,9.13129412 5.39733333,8.86211765 5.72977778,8.86211765 L14.6862222,8.86211765 Z M9.30844444,2.52611765 C9.30844444,2.87811765 9.05422222,3.168 8.72177778,3.168 C8.38933333,3.168 8.11555556,2.87811765 8.11555556,2.52611765 L8.11555556,2.21552941 L6.336,2.21552941 L6.336,2.52611765 C6.336,2.87811765 6.06222222,3.168 5.72977778,3.168 C5.39733333,3.168 5.12355556,2.87811765 5.12355556,2.52611765 L5.12355556,2.21552941 L3.63733333,2.21552941 L3.63733333,19.9190588 L16.7786667,19.9190588 L16.7786667,2.21552941 L15.2924444,2.21552941 L15.2924444,2.52611765 C15.2924444,2.87811765 15.0186667,3.168 14.6862222,3.168 C14.3537778,3.168 14.0995556,2.87811765 14.0995556,2.52611765 L14.0995556,2.21552941 L12.3004444,2.21552941 L12.3004444,2.52611765 C12.3004444,2.87811765 12.0266667,3.168 11.6942222,3.168 C11.3813333,3.168 11.1075556,2.87811765 11.1075556,2.52611765 L11.1075556,2.21552941 L9.30844444,2.21552941 L9.30844444,2.52611765 Z" id="Shape" fill="#2E6C99" fill-rule="nonzero"></path>
                        </g>
                        <g id="noun_Notebook_1547982-Copy" transform="translate(29.000000, 15.000000)">
                            <path d="M9.30844444,2.52611765 C9.30844444,2.87811765 9.05422222,3.168 8.72177778,3.168 C8.38933333,3.168 8.11555556,2.87811765 8.11555556,2.52611765 L8.11555556,2.21552941 L6.336,2.21552941 L6.336,2.52611765 C6.336,2.87811765 6.06222222,3.168 5.72977778,3.168 C5.39733333,3.168 5.12355556,2.87811765 5.12355556,2.52611765 L5.12355556,2.21552941 L3.63733333,2.21552941 L3.63733333,19.9190588 L16.7786667,19.9190588 L16.7786667,2.21552941 L15.2924444,2.21552941 L15.2924444,2.52611765 C15.2924444,2.87811765 15.0186667,3.168 14.6862222,3.168 C14.3537778,3.168 14.0995556,2.87811765 14.0995556,2.52611765 L14.0995556,2.21552941 L12.3004444,2.21552941 L12.3004444,2.52611765 C12.3004444,2.87811765 12.0266667,3.168 11.6942222,3.168 C11.3813333,3.168 11.1075556,2.87811765 11.1075556,2.52611765 L11.1075556,2.21552941 L9.30844444,2.21552941 L9.30844444,2.52611765 Z" id="Path" fill="#FFFFFF"></path>
                            <path d="M3.05066667,0.952470588 L5.12355556,0.952470588 L5.12355556,0.641882353 C5.12355556,0.289882353 5.39733333,0 5.72977778,0 C6.06222222,0 6.336,0.289882353 6.336,0.641882353 L6.336,0.952470588 L8.11555556,0.952470588 L8.11555556,0.641882353 C8.11555556,0.289882353 8.38933333,0 8.72177778,0 C9.05422222,0 9.30844444,0.289882353 9.30844444,0.641882353 L9.30844444,0.952470588 L11.1075556,0.952470588 L11.1075556,0.641882353 C11.1075556,0.289882353 11.3813333,0 11.6942222,0 C12.0266667,0 12.3004444,0.289882353 12.3004444,0.641882353 L12.3004444,0.952470588 L14.0995556,0.952470588 L14.0995556,0.641882353 C14.0995556,0.289882353 14.3537778,0 14.6862222,0 C15.0186667,0 15.2924444,0.289882353 15.2924444,0.641882353 L15.2924444,0.952470588 L17.3848889,0.952470588 C17.7173333,0.952470588 17.9715556,1.24235294 17.9715556,1.57364706 L17.9715556,20.5609412 C17.9715556,20.9129412 17.7173333,21.1821176 17.3848889,21.1821176 L3.05066667,21.1821176 C2.71822222,21.1821176 2.44444444,20.9129412 2.44444444,20.5609412 L2.44444444,1.57364706 C2.44444444,1.24235294 2.71822222,0.952470588 3.05066667,0.952470588 Z M5.72977778,13.2931765 C5.39733333,13.2931765 5.12355556,13.0032941 5.12355556,12.6512941 C5.12355556,12.2992941 5.39733333,12.0094118 5.72977778,12.0094118 L14.6862222,12.0094118 C15.0186667,12.0094118 15.2924444,12.2992941 15.2924444,12.6512941 C15.2924444,13.0032941 15.0186667,13.2931765 14.6862222,13.2931765 L5.72977778,13.2931765 Z M14.6862222,15.1774118 C15.0186667,15.1774118 15.2924444,15.4672941 15.2924444,15.8192941 C15.2924444,16.1712941 15.0186667,16.4404706 14.6862222,16.4404706 L5.72977778,16.4404706 C5.39733333,16.4404706 5.12355556,16.1712941 5.12355556,15.8192941 C5.12355556,15.4672941 5.39733333,15.1774118 5.72977778,15.1774118 L14.6862222,15.1774118 Z M5.72977778,6.95717647 C5.39733333,6.95717647 5.12355556,6.66729412 5.12355556,6.31529412 C5.12355556,5.984 5.39733333,5.69411765 5.72977778,5.69411765 L14.6862222,5.69411765 C15.0186667,5.69411765 15.2924444,5.984 15.2924444,6.31529412 C15.2924444,6.66729412 15.0186667,6.95717647 14.6862222,6.95717647 L5.72977778,6.95717647 Z M14.6862222,8.86211765 C15.0186667,8.86211765 15.2924444,9.13129412 15.2924444,9.48329412 C15.2924444,9.83529412 15.0186667,10.1251765 14.6862222,10.1251765 L5.72977778,10.1251765 C5.39733333,10.1251765 5.12355556,9.83529412 5.12355556,9.48329412 C5.12355556,9.13129412 5.39733333,8.86211765 5.72977778,8.86211765 L14.6862222,8.86211765 Z M9.30844444,2.52611765 C9.30844444,2.87811765 9.05422222,3.168 8.72177778,3.168 C8.38933333,3.168 8.11555556,2.87811765 8.11555556,2.52611765 L8.11555556,2.21552941 L6.336,2.21552941 L6.336,2.52611765 C6.336,2.87811765 6.06222222,3.168 5.72977778,3.168 C5.39733333,3.168 5.12355556,2.87811765 5.12355556,2.52611765 L5.12355556,2.21552941 L3.63733333,2.21552941 L3.63733333,19.9190588 L16.7786667,19.9190588 L16.7786667,2.21552941 L15.2924444,2.21552941 L15.2924444,2.52611765 C15.2924444,2.87811765 15.0186667,3.168 14.6862222,3.168 C14.3537778,3.168 14.0995556,2.87811765 14.0995556,2.52611765 L14.0995556,2.21552941 L12.3004444,2.21552941 L12.3004444,2.52611765 C12.3004444,2.87811765 12.0266667,3.168 11.6942222,3.168 C11.3813333,3.168 11.1075556,2.87811765 11.1075556,2.52611765 L11.1075556,2.21552941 L9.30844444,2.21552941 L9.30844444,2.52611765 Z" id="Shape" fill="#2E6C99" fill-rule="nonzero"></path>
                        </g>
                    </g>
                </g>
            </g>
        </g>
    </g>
</svg>