<?xml version="1.0" encoding="UTF-8"?>
<svg width="60px" height="60px" viewBox="0 0 60 60" version="1.1" xmlns="http://www.w3.org/2000/svg" xmlns:xlink="http://www.w3.org/1999/xlink">
    <!-- Generator: sketchtool 51.2 (57519) - http://www.bohemiancoding.com/sketch -->
    <title>F0A33ACE-F8FF-465E-9524-EB4B70F136DC</title>
    <desc>Created with sketchtool.</desc>
    <defs></defs>
    <g id="Page-1" stroke="none" stroke-width="1" fill="none" fill-rule="evenodd">
        <g id="Assets_graficos" transform="translate(-982.000000, -643.000000)" fill-rule="nonzero">
            <g id="illus-/-graph-/-ontologias_nodo" transform="translate(982.000000, 643.000000)">
                <rect id="Rectangle-12-Copy" stroke="#D3E1EB" fill="#F0F4F7" x="0.5" y="0.5" width="59" height="59" rx="29.5"></rect>
                <g id="Group-35" transform="translate(16.000000, 19.000000)">
                    <path d="M13,22 C19.4613514,22 26,20.5612698 26,17.8095238 L26,4.19047619 C26,1.43873016 19.4613514,0 13,0 C6.53864865,0 0,1.43873016 0,4.19047619 L0,17.8095238 C0,20.5612698 6.53864865,22 13,22 Z" id="Shape" stroke="#2E6C99" stroke-width="0.5" fill="#2E6C99"></path>
                    <path d="M12.8909599,0.916666667 C20.767288,0.916666667 24.8853681,2.84974206 24.8853681,3.88492063 C24.8853681,4.92009921 20.767288,6.8531746 12.8909599,6.8531746 C5.01463187,6.8531746 0.896551724,4.92009921 0.896551724,3.88492063 C0.896551724,2.84974206 5.01463187,0.916666667 12.8909599,0.916666667 Z" id="Path" fill="#FFFFFF"></path>
                    <path d="M0.896551724,5.5 C3.24091333,7.02865079 8.08956198,7.81894841 12.8909599,7.81894841 C17.6923579,7.81894841 22.5410065,7.02865079 24.8853681,5.5 L24.8853681,10.7872024 C24.8853681,11.822381 20.767288,13.7554563 12.8909599,13.7554563 C5.01463187,13.7554563 0.896551724,11.822381 0.896551724,10.7872024 L0.896551724,5.5 Z" id="Path" fill="#FFFFFF"></path>
                    <path d="M0.896551724,12.8333333 C3.24091333,14.3619841 8.08956198,15.1522817 12.8909599,15.1522817 C17.6923579,15.1522817 22.5410065,14.3619841 24.8853681,12.8333333 L24.8853681,18.1205357 C24.8853681,19.1557143 20.767288,21.0887897 12.8909599,21.0887897 C5.01463187,21.0887897 0.896551724,19.1557143 0.896551724,18.1205357 L0.896551724,12.8333333 Z" id="Path" fill="#FFFFFF"></path>
                </g>
            </g>
        </g>
    </g>
</svg>