<?xml version="1.0" encoding="UTF-8"?>
<svg width="60px" height="60px" viewBox="0 0 60 60" version="1.1" xmlns="http://www.w3.org/2000/svg" xmlns:xlink="http://www.w3.org/1999/xlink">
    <!-- Generator: sketchtool 51.2 (57519) - http://www.bohemiancoding.com/sketch -->
    <title>61772D56-A167-4338-95B2-EC34914F978B</title>
    <desc>Created with sketchtool.</desc>
    <defs></defs>
    <g id="Page-1" stroke="none" stroke-width="1" fill="none" fill-rule="evenodd">
        <g id="Assets_graficos" transform="translate(-798.000000, -643.000000)" fill-rule="nonzero">
            <g id="illus-/-graph-/-ontologias_categoria" transform="translate(798.000000, 643.000000)">
                <rect id="Rectangle-12" stroke="#D3E1EB" fill="#F0F4F7" x="0.5" y="0.5" width="59" height="59" rx="29.5"></rect>
                <g id="Group-36" transform="translate(11.000000, 17.000000)">
                    <path d="M1.08823529,10.4020785 C2.72058824,11.3071971 5.44117647,11.741654 8.16176471,11.741654 C10.8823529,11.741654 13.6029412,11.2709923 15.2352941,10.4020785 L15.2352941,14.9284228 C15.2352941,15.5801082 12.7478992,16.8472742 8.16176471,16.8472742 C3.57563025,16.8472742 1.08823529,15.5801082 1.08823529,14.9284228 L1.08823529,10.4020785 Z" id="Path" fill="#FFFFFF"></path>
                    <path d="M8.16176471,23.6296296 C3.57563025,23.6296296 1.08823529,22.1259259 1.08823529,21.3525926 L1.08823529,16.3287789 C2.75945378,17.402853 5.48004202,17.9613715 8.16176471,17.9613715 C10.8434874,17.9613715 13.6029412,17.402853 15.2352941,16.3717419 L15.2352941,21.3525926 C15.2352941,22.1259259 12.7478992,23.6296296 8.16176471,23.6296296 Z" id="Path" fill="#FFFFFF"></path>
                    <path d="M8.16176471,6.44444444 C12.7478992,6.44444444 15.2352941,7.87100244 15.2352941,8.60466084 C15.2352941,9.33831924 12.7478992,10.7648772 8.16176471,10.7648772 C3.57563025,10.7648772 1.08823529,9.33831924 1.08823529,8.60466084 C1.08823529,7.87100244 3.57563025,6.44444444 8.16176471,6.44444444 Z" id="Path" fill="#FFFFFF"></path>
                    <path d="M16.3235294,8.73741157 C16.3235294,6.52892218 12.2058824,5.37037037 8.16176471,5.37037037 C4.11764706,5.37037037 0,6.52892218 0,8.73741157 L0,21.3366625 C0,23.5451519 4.11764706,24.7037037 8.16176471,24.7037037 C12.2058824,24.7037037 16.3235294,23.5451519 16.3235294,21.3366625 L16.3235294,8.73741157 Z M8.16176471,6.44444444 C12.7478992,6.44444444 15.2352941,7.87100244 15.2352941,8.60466084 C15.2352941,9.33831924 12.7478992,10.7648772 8.16176471,10.7648772 C3.57563025,10.7648772 1.08823529,9.33831924 1.08823529,8.60466084 C1.08823529,7.87100244 3.57563025,6.44444444 8.16176471,6.44444444 Z M1.08823529,10.4020785 C2.72058824,11.3071971 5.44117647,11.741654 8.16176471,11.741654 C10.8823529,11.741654 13.6029412,11.2709923 15.2352941,10.4020785 L15.2352941,14.9284228 C15.2352941,15.5801082 12.7478992,16.8472742 8.16176471,16.8472742 C3.57563025,16.8472742 1.08823529,15.5801082 1.08823529,14.9284228 L1.08823529,10.4020785 Z M8.16176471,23.6296296 C3.57563025,23.6296296 1.08823529,22.1259259 1.08823529,21.3525926 L1.08823529,16.3287789 C2.75945378,17.402853 5.48004202,17.9613715 8.16176471,17.9613715 C10.8434874,17.9613715 13.6029412,17.402853 15.2352941,16.3717419 L15.2352941,21.3525926 C15.2352941,22.1259259 12.7478992,23.6296296 8.16176471,23.6296296 Z" id="Shape" fill="#2E6C99"></path>
                    <path d="M25.126902,25.4115961 L25.126902,25.4115961 C25.126902,25.1511408 24.9157613,24.94 24.6553059,24.94 L21.836605,24.94 L21.836605,14.7181923 L24.6553059,14.7181923 C24.9157613,14.7181923 25.126902,14.5070515 25.126902,14.2465961 L25.126902,14.2465961 C25.126902,13.9861408 24.9157613,13.775 24.6553059,13.775 L21.836605,13.775 L21.836605,4.06 L24.6722194,4.06 C24.9233337,4.06 25.126902,3.85643166 25.126902,3.60531738 L25.126902,3.60531738 C25.126902,3.35420311 24.9233337,3.15063477 24.6722194,3.15063477 L20.7861974,3.15063477 L20.7861974,25.8831923 L24.6553059,25.8831923 C24.9157613,25.8831923 25.126902,25.6720515 25.126902,25.4115961 Z" id="Shape" fill="#2E6C99"></path>
                    <path d="M35.8834411,11.12875 L29.0134036,11.12875 C28.4169361,11.12875 27.9334036,11.6122825 27.9334036,12.20875 L27.9334036,16.79125 C27.9334036,17.3877175 28.4169361,17.87125 29.0134036,17.87125 L35.8834411,17.87125 C36.4799087,17.87125 36.9634411,17.3877175 36.9634411,16.79125 L36.9634411,12.20875 C36.9634411,11.6122825 36.4799087,11.12875 35.8834411,11.12875 Z" id="Shape" stroke="#2E6C99" stroke-width="1.08" fill="#FFFFFF"></path>
                    <path d="M35.8834411,22.00375 L29.0134036,22.00375 C28.4169361,22.00375 27.9334036,22.4872825 27.9334036,23.08375 L27.9334036,27.66625 C27.9334036,28.2627175 28.4169361,28.74625 29.0134036,28.74625 L35.8834411,28.74625 C36.4799087,28.74625 36.9634411,28.2627175 36.9634411,27.66625 L36.9634411,23.08375 C36.9634411,22.4872825 36.4799087,22.00375 35.8834411,22.00375 Z" id="Shape" stroke="#2E6C99" stroke-width="1.08" fill="#FFFFFF"></path>
                    <path d="M35.8834411,0.25375 L29.0134036,0.25375 C28.4169361,0.25375 27.9334036,0.73728247 27.9334036,1.33375 L27.9334036,5.91625 C27.9334036,6.51271753 28.4169361,6.99625 29.0134036,6.99625 L35.8834411,6.99625 C36.4799087,6.99625 36.9634411,6.51271753 36.9634411,5.91625 L36.9634411,1.33375 C36.9634411,0.73728247 36.4799087,0.25375 35.8834411,0.25375 Z" id="Shape" stroke="#2E6C99" stroke-width="1.08" fill="#FFFFFF"></path>
                </g>
            </g>
        </g>
    </g>
</svg>