<?xml version="1.0" encoding="UTF-8"?>
<svg width="60px" height="60px" viewBox="0 0 60 60" version="1.1" xmlns="http://www.w3.org/2000/svg" xmlns:xlink="http://www.w3.org/1999/xlink">
    <!-- Generator: Sketch 52.4 (67378) - http://www.bohemiancoding.com/sketch -->
    <title>illus / graph / pipe_cat</title>
    <desc>Created with Sketch.</desc>
    <g id="Page-1" stroke="none" stroke-width="1" fill="none" fill-rule="evenodd">
        <g id="Assets_graficos" transform="translate(-805.000000, -2158.000000)" fill-rule="nonzero">
            <g id="illus-/-graph-/-pipe_cat" transform="translate(805.000000, 2158.000000)">
                <rect id="Rectangle-12-Copy-25" stroke="#D3E1EB" fill="#F0F4F7" x="0.5" y="0.5" width="59" height="59" rx="29.5"></rect>
                <g id="noun_Notebook_1195062" transform="translate(9.000000, 23.000000)">
                    <g id="Group-4">
                        <path d="M23.388,11.754717 L19.848,11.754717 C19.524,11.754717 19.254,12.045283 19.26,12.4084906 C19.26,12.4084906 19.26,12.4150943 19.26,12.4150943 L19.26,12.8773585 L15.18,12.8773585 L15.18,5.21698113 L15.594,5.21698113 C15.924,5.22358491 16.194,4.93301887 16.2,4.56981132 C16.2,4.56981132 16.2,4.56981132 16.2,4.56981132 L16.2,0.673584906 C16.2,0.303773585 15.93,0.00660377358 15.594,0 L8.406,0 C8.07,0.00660377358 7.8,0.303773585 7.8,0.673584906 L7.8,4.56981132 C7.806,4.93301887 8.076,5.22358491 8.406,5.21698113 C8.406,5.21698113 8.406,5.21698113 8.406,5.21698113 L8.82,5.21698113 L8.82,12.8773585 L4.74,12.8773585 L4.74,12.4150943 C4.746,12.0584906 4.482,11.7613208 4.158,11.754717 C4.158,11.754717 4.152,11.754717 4.152,11.754717 L0.612,11.754717 C0.276,11.754717 0.006,12.0518868 0,12.4150943 L0,20.3264151 C0.006,20.6962264 0.276,20.9933962 0.612,21 L4.152,21 C4.482,20.9933962 4.746,20.6962264 4.74,20.3264151 L4.74,19.8773585 L19.26,19.8773585 L19.26,20.3264151 C19.254,20.6896226 19.518,20.9933962 19.848,21 L23.388,21 C23.724,20.9933962 23.994,20.6962264 24,20.3264151 L24,12.4150943 C23.994,12.0518868 23.724,11.754717 23.388,11.754717 Z" id="Shape" fill="#2E6C99"></path>
                        <polygon id="Path" fill="#FFFFFF" points="3.54 19.6792453 1.2 19.6792453 1.2 13.0754717 3.54 13.0754717"></polygon>
                        <polygon id="Path" fill="#FFFFFF" points="9 1.32075472 15 1.32075472 15 3.89622642 9 3.89622642"></polygon>
                        <polygon id="Path" fill="#FFFFFF" points="13.98 5.21698113 13.98 12.8773585 10.02 12.8773585 10.02 5.21698113"></polygon>
                        <polygon id="Path" fill="#FFFFFF" points="19.26 18.5566038 4.74 18.5566038 4.74 14.1981132 19.26 14.1981132"></polygon>
                        <polygon id="Path" fill="#FFFFFF" points="22.8 19.6792453 20.46 19.6792453 20.46 13.0754717 22.8 13.0754717"></polygon>
                    </g>
                </g>
                <g id="noun_Notebook_1195062" transform="translate(29.000000, 10.000000)">
                    <g id="Group-4">
                        <path d="M23.388,11.754717 L19.848,11.754717 C19.524,11.754717 19.254,12.045283 19.26,12.4084906 C19.26,12.4084906 19.26,12.4150943 19.26,12.4150943 L19.26,12.8773585 L15.18,12.8773585 L15.18,5.21698113 L15.594,5.21698113 C15.924,5.22358491 16.194,4.93301887 16.2,4.56981132 C16.2,4.56981132 16.2,4.56981132 16.2,4.56981132 L16.2,0.673584906 C16.2,0.303773585 15.93,0.00660377358 15.594,0 L8.406,0 C8.07,0.00660377358 7.8,0.303773585 7.8,0.673584906 L7.8,4.56981132 C7.806,4.93301887 8.076,5.22358491 8.406,5.21698113 C8.406,5.21698113 8.406,5.21698113 8.406,5.21698113 L8.82,5.21698113 L8.82,12.8773585 L4.74,12.8773585 L4.74,12.4150943 C4.746,12.0584906 4.482,11.7613208 4.158,11.754717 C4.158,11.754717 4.152,11.754717 4.152,11.754717 L0.612,11.754717 C0.276,11.754717 0.006,12.0518868 0,12.4150943 L0,20.3264151 C0.006,20.6962264 0.276,20.9933962 0.612,21 L4.152,21 C4.482,20.9933962 4.746,20.6962264 4.74,20.3264151 L4.74,19.8773585 L19.26,19.8773585 L19.26,20.3264151 C19.254,20.6896226 19.518,20.9933962 19.848,21 L23.388,21 C23.724,20.9933962 23.994,20.6962264 24,20.3264151 L24,12.4150943 C23.994,12.0518868 23.724,11.754717 23.388,11.754717 Z" id="Shape" fill="#2E6C99"></path>
                        <polygon id="Path" fill="#FFFFFF" points="3.54 19.6792453 1.2 19.6792453 1.2 13.0754717 3.54 13.0754717"></polygon>
                        <polygon id="Path" fill="#FFFFFF" points="9 1.32075472 15 1.32075472 15 3.89622642 9 3.89622642"></polygon>
                        <polygon id="Path" fill="#FFFFFF" points="13.98 5.21698113 13.98 12.8773585 10.02 12.8773585 10.02 5.21698113"></polygon>
                        <polygon id="Path" fill="#FFFFFF" points="19.26 18.5566038 4.74 18.5566038 4.74 14.1981132 19.26 14.1981132"></polygon>
                        <polygon id="Path" fill="#FFFFFF" points="22.8 19.6792453 20.46 19.6792453 20.46 13.0754717 22.8 13.0754717"></polygon>
                    </g>
                </g>
            </g>
        </g>
    </g>
</svg>