<?xml version="1.0" encoding="UTF-8"?>
<svg width="60px" height="60px" viewBox="0 0 60 60" version="1.1" xmlns="http://www.w3.org/2000/svg" xmlns:xlink="http://www.w3.org/1999/xlink">
    <!-- Generator: Sketch 52.4 (67378) - http://www.bohemiancoding.com/sketch -->
    <title>illus / graph / pipe</title>
    <desc>Created with Sketch.</desc>
    <g id="Page-1" stroke="none" stroke-width="1" fill="none" fill-rule="evenodd">
        <g id="Assets_graficos" transform="translate(-989.000000, -2042.000000)" fill-rule="nonzero">
            <g id="illus-/-graph-/-pipe" transform="translate(989.000000, 2042.000000)">
                <rect id="Rectangle-12-Copy-25" stroke="#D3E1EB" fill="#F0F4F7" x="0.5" y="0.5" width="59" height="59" rx="29.5"></rect>
                <g id="noun_Notebook_1195062" transform="translate(12.000000, 14.000000)">
                    <g id="Group-4">
                        <path d="M34.1075,16.2327044 L28.945,16.2327044 C28.4725,16.2327044 28.07875,16.6339623 28.0875,17.1355346 C28.0875,17.1355346 28.0875,17.1446541 28.0875,17.1446541 L28.0875,17.7830189 L22.1375,17.7830189 L22.1375,7.20440252 L22.74125,7.20440252 C23.2225,7.21352201 23.61625,6.81226415 23.625,6.31069182 C23.625,6.31069182 23.625,6.31069182 23.625,6.31069182 L23.625,0.930188679 C23.625,0.419496855 23.23125,0.00911949686 22.74125,0 L12.25875,0 C11.76875,0.00911949686 11.375,0.419496855 11.375,0.930188679 L11.375,6.31069182 C11.38375,6.81226415 11.7775,7.21352201 12.25875,7.20440252 C12.25875,7.20440252 12.25875,7.20440252 12.25875,7.20440252 L12.8625,7.20440252 L12.8625,17.7830189 L6.9125,17.7830189 L6.9125,17.1446541 C6.92125,16.6522013 6.53625,16.2418239 6.06375,16.2327044 C6.06375,16.2327044 6.055,16.2327044 6.055,16.2327044 L0.8925,16.2327044 C0.4025,16.2327044 0.00875,16.6430818 0,17.1446541 L0,28.0698113 C0.00875,28.5805031 0.4025,28.9908805 0.8925,29 L6.055,29 C6.53625,28.9908805 6.92125,28.5805031 6.9125,28.0698113 L6.9125,27.4496855 L28.0875,27.4496855 L28.0875,28.0698113 C28.07875,28.5713836 28.46375,28.9908805 28.945,29 L34.1075,29 C34.5975,28.9908805 34.99125,28.5805031 35,28.0698113 L35,17.1446541 C34.99125,16.6430818 34.5975,16.2327044 34.1075,16.2327044 Z" id="Shape" fill="#2E6C99"></path>
                        <polygon id="Path" fill="#FFFFFF" points="5.1625 27.1761006 1.75 27.1761006 1.75 18.0566038 5.1625 18.0566038"></polygon>
                        <polygon id="Path" fill="#FFFFFF" points="13.125 1.82389937 21.875 1.82389937 21.875 5.38050314 13.125 5.38050314"></polygon>
                        <polygon id="Path" fill="#FFFFFF" points="20.3875 7.20440252 20.3875 17.7830189 14.6125 17.7830189 14.6125 7.20440252"></polygon>
                        <polygon id="Path" fill="#FFFFFF" points="28.0875 25.6257862 6.9125 25.6257862 6.9125 19.6069182 28.0875 19.6069182"></polygon>
                        <polygon id="Path" fill="#FFFFFF" points="33.25 27.1761006 29.8375 27.1761006 29.8375 18.0566038 33.25 18.0566038"></polygon>
                    </g>
                </g>
            </g>
        </g>
    </g>
</svg>