<?xml version="1.0" encoding="UTF-8"?>
<svg width="60px" height="60px" viewBox="0 0 60 60" version="1.1" xmlns="http://www.w3.org/2000/svg" xmlns:xlink="http://www.w3.org/1999/xlink">
    <!-- Generator: sketchtool 51.2 (57519) - http://www.bohemiancoding.com/sketch -->
    <title>F0EDA35E-C078-4963-845C-821464A5FAEE</title>
    <desc>Created with sketchtool.</desc>
    <defs></defs>
    <g id="Page-1" stroke="none" stroke-width="1" fill="none" fill-rule="evenodd">
        <g id="Assets_graficos" transform="translate(-798.000000, -1542.000000)" fill-rule="nonzero">
            <g id="illus-/-graph-/-projects_categoria" transform="translate(798.000000, 1542.000000)">
                <rect id="Rectangle-12-Copy-14" stroke="#D3E1EB" fill="#F0F4F7" x="0.5" y="0.5" width="59" height="59" rx="29.5"></rect>
                <g id="Group-16" transform="translate(13.000000, 16.000000)" fill="#FFFFFF" stroke="#2E6C99" stroke-width="1.134">
                    <path d="M13.5489744,2.35625 L6.94017094,2.35625 L6.14245014,0 L0.81,-1.11022302e-16 C0.362649353,-2.88453217e-17 3.89304556e-16,0.362649353 4.4408921e-16,0.81 L-1.11022302e-16,10.97125 C9.37080329e-16,11.4186006 0.362649353,11.78125 0.81,11.78125 L13.5489744,11.78125 C13.996325,11.78125 14.3589744,11.4186006 14.3589744,10.97125 L14.3589744,3.16625 C14.3589744,2.71889935 13.996325,2.35625 13.5489744,2.35625 Z" id="Shape"></path>
                    <path d="M34.19,2.35625 L27.5811966,2.35625 L26.7834758,0 L21.4510256,0 C21.003675,8.21769808e-17 20.6410256,0.362649353 20.6410256,0.81 L20.6410256,10.97125 C20.6410256,11.4186006 21.003675,11.78125 21.4510256,11.78125 L34.19,11.78125 C34.6373506,11.78125 35,11.4186006 35,10.97125 L35,3.16625 C35,2.71889935 34.6373506,2.35625 34.19,2.35625 Z" id="Shape"></path>
                    <path d="M13.5489744,19.575 L6.94017094,19.575 L6.14245014,17.21875 L0.81,17.21875 C0.362649353,17.21875 3.89304556e-16,17.5813994 4.4408921e-16,18.02875 L-1.11022302e-16,28.19 C9.37080329e-16,28.6373506 0.362649353,29 0.81,29 L13.5489744,29 C13.996325,29 14.3589744,28.6373506 14.3589744,28.19 L14.3589744,20.385 C14.3589744,19.9376494 13.996325,19.575 13.5489744,19.575 Z" id="Shape"></path>
                    <path d="M34.19,19.575 L27.5811966,19.575 L26.7834758,17.21875 L21.4510256,17.21875 C21.003675,17.21875 20.6410256,17.5813994 20.6410256,18.02875 L20.6410256,28.19 C20.6410256,28.6373506 21.003675,29 21.4510256,29 L34.19,29 C34.6373506,29 35,28.6373506 35,28.19 L35,20.385 C35,19.9376494 34.6373506,19.575 34.19,19.575 Z" id="Shape-Copy-20"></path>
                </g>
            </g>
        </g>
    </g>
</svg>