<?xml version="1.0" encoding="UTF-8"?>
<svg width="60px" height="60px" viewBox="0 0 60 60" version="1.1" xmlns="http://www.w3.org/2000/svg" xmlns:xlink="http://www.w3.org/1999/xlink">
    <!-- Generator: sketchtool 51.2 (57519) - http://www.bohemiancoding.com/sketch -->
    <title>C0C9CD28-9046-44AE-83B7-6A2069F9482C</title>
    <desc>Created with sketchtool.</desc>
    <defs></defs>
    <g id="Page-1" stroke="none" stroke-width="1" fill="none" fill-rule="evenodd">
        <g id="Assets_graficos" transform="translate(-984.000000, -1800.000000)">
            <g id="illus-/-graph-/-script_nodo" transform="translate(984.000000, 1800.000000)">
                <rect id="Rectangle-12-Copy-24" stroke="#D3E1EB" fill="#F0F4F7" fill-rule="nonzero" x="0.5" y="0.5" width="59" height="59" rx="29.5"></rect>
                <g id="Group-9" transform="translate(16.000000, 19.000000)" stroke="#2E6C99">
                    <path d="M26.2982156,1.06137237 L26.2982156,19.6088111 L2.36077875,19.6088111 L2.36077875,1.06137237 C2.36077875,0.581752928 2.76311101,0.19294439 3.25941292,0.19294439 L25.3995809,0.19294439 C25.8958828,0.19294439 26.2982156,0.581752874 26.2982156,1.06137237 Z" id="Shape" stroke-width="1.6" fill="#FFFFFF" stroke-linecap="round" stroke-linejoin="round"></path>
                    <path d="M27.9333333,19.6121457 L27.9333333,20.5978867 C27.9333333,21.8957412 26.9190125,22.9581235 25.6723389,22.9581235 L2.99432778,22.9581235 C1.74198204,22.9581235 0.733333333,21.8957412 0.733333333,20.5978867 L0.733333333,19.6121457 L27.9333333,19.6121457 Z" id="Shape" stroke-width="1.6" stroke-linecap="round" stroke-linejoin="round"></path>
                    <polygon id="Shape" stroke-width="0.5" fill="#2E6C99" fill-rule="nonzero" points="5.76743691 10.2161821 10.8995117 7.66154398 10.8995117 8.39921198 6.57444578 10.4942772 6.57444578 10.5156017 10.8995117 12.610667 10.8995117 13.3483349 5.76743691 10.7936968"></polygon>
                    <polygon id="Shape" stroke-width="0.5" fill="#2E6C99" fill-rule="nonzero" points="12.4227572 13.7757049 15.5084862 6.0260527 16.2605543 6.0260527 13.1640169 13.7757049"></polygon>
                    <polygon id="Shape" stroke-width="0.5" fill="#2E6C99" fill-rule="nonzero" points="22.8915569 10.8041408 17.7594822 13.348335 17.7594822 12.610667 22.1169729 10.5156018 22.1169729 10.4942773 17.7594822 8.39921203 17.7594822 7.66154404 22.8915569 10.2057382"></polygon>
                </g>
            </g>
        </g>
    </g>
</svg>