<?xml version="1.0" encoding="UTF-8"?>
<svg width="60px" height="60px" viewBox="0 0 60 60" version="1.1" xmlns="http://www.w3.org/2000/svg" xmlns:xlink="http://www.w3.org/1999/xlink">
    <!-- Generator: sketchtool 51.2 (57519) - http://www.bohemiancoding.com/sketch -->
    <title>3D2C13D7-4F1E-4BEA-9D40-BA695CE22EA2</title>
    <desc>Created with sketchtool.</desc>
    <defs></defs>
    <g id="Page-1" stroke="none" stroke-width="1" fill="none" fill-rule="evenodd">
        <g id="Assets_graficos" transform="translate(-798.000000, -1800.000000)">
            <g id="illus-/-graph-/-scripts_categoria" transform="translate(798.000000, 1800.000000)">
                <rect id="Rectangle-12-Copy-23" stroke="#D3E1EB" fill="#F0F4F7" fill-rule="nonzero" x="0.5" y="0.5" width="59" height="59" rx="29.5"></rect>
                <g id="Group-8" transform="translate(11.000000, 17.000000)">
                    <rect id="Rectangle-14" fill="#FFFFFF" fill-rule="nonzero" x="21" y="0" width="16.1702128" height="13.7837838"></rect>
                    <rect id="Rectangle-14-Copy" fill="#FFFFFF" fill-rule="nonzero" x="0.808510638" y="13.2162162" width="16.1702128" height="13.7837838"></rect>
                    <path d="M36.849862,0.930936146 L36.849862,13.8690993 L21.0883486,13.8690993 L21.0883486,0.930936146 C21.0883486,0.596367335 21.3532627,0.325145612 21.6800508,0.325145612 L36.2581595,0.325145612 C36.5849476,0.325145612 36.849862,0.596367297 36.849862,0.930936146 Z" id="Shape" stroke="#2E6C99" stroke-width="1.056" fill="#FFFFFF" stroke-linecap="round" stroke-linejoin="round"></path>
                    <path d="M37.926499,13.8714254 L37.926499,14.5590502 C37.926499,15.4643963 37.2586233,16.2054839 36.4377559,16.2054839 L21.5055065,16.2054839 C20.6809042,16.2054839 20.0167634,15.4643963 20.0167634,14.5590502 L20.0167634,13.8714254 L37.926499,13.8714254 Z" id="Shape" stroke="#2E6C99" stroke-width="1.056" stroke-linecap="round" stroke-linejoin="round"></path>
                    <polygon id="Shape" stroke="#2E6C99" stroke-width="0.5" fill="#2E6C99" fill-rule="nonzero" points="22.9761949 7.31706978 26.3553898 5.53502722 26.3553898 6.04960333 23.5075668 7.51106096 23.5075668 7.52593632 26.3553898 8.98739395 26.3553898 9.50197006 22.9761949 7.7199275"></polygon>
                    <polygon id="Shape" stroke="#2E6C99" stroke-width="0.5" fill="#2E6C99" fill-rule="nonzero" points="27.7136197 9.80009112 29.7454061 4.39415525 30.2406025 4.39415525 28.2016993 9.80009112"></polygon>
                    <polygon id="Shape" stroke="#2E6C99" stroke-width="0.5" fill="#2E6C99" fill-rule="nonzero" points="34.9620154 7.72721295 31.5828204 9.50197009 31.5828204 8.98739399 34.4519935 7.52593636 34.4519935 7.51106099 31.5828204 6.04960337 31.5828204 5.53502726 34.9620154 7.3097844"></polygon>
                    <path d="M16.8330986,9.93658016 L16.8330986,22.8747433 L1.07158519,22.8747433 L1.07158519,9.93658016 C1.07158519,9.60201135 1.33649932,9.33078963 1.66328741,9.33078963 L16.2413961,9.33078963 C16.5681842,9.33078963 16.8330986,9.60201131 16.8330986,9.93658016 Z" id="Shape" stroke="#2E6C99" stroke-width="1.056" fill="#FFFFFF" stroke-linecap="round" stroke-linejoin="round"></path>
                    <path d="M17.9097357,22.8770694 L17.9097357,23.5646942 C17.9097357,24.4700403 17.24186,25.2111279 16.4209925,25.2111279 L1.48874312,25.2111279 C0.664140869,25.2111279 0,24.4700403 0,23.5646942 L0,22.8770694 L17.9097357,22.8770694 Z" id="Shape" stroke="#2E6C99" stroke-width="1.056" stroke-linecap="round" stroke-linejoin="round"></path>
                    <polygon id="Shape" stroke="#2E6C99" stroke-width="0.5" fill="#2E6C99" fill-rule="nonzero" points="2.95943151 16.3227138 6.33862644 14.5406712 6.33862644 15.0552473 3.49080341 16.516705 3.49080341 16.5315803 6.33862644 17.993038 6.33862644 18.5076141 2.95943151 16.7255715"></polygon>
                    <polygon id="Shape" stroke="#2E6C99" stroke-width="0.5" fill="#2E6C99" fill-rule="nonzero" points="7.69685632 18.8057351 9.72864273 13.3997993 10.2238391 13.3997993 8.18493594 18.8057351"></polygon>
                    <polygon id="Shape" stroke="#2E6C99" stroke-width="0.5" fill="#2E6C99" fill-rule="nonzero" points="14.945252 16.732857 11.5660571 18.5076141 11.5660571 17.993038 14.4352301 16.5315804 14.4352301 16.516705 11.5660571 15.0552474 11.5660571 14.5406713 14.945252 16.3154284"></polygon>
                </g>
            </g>
        </g>
    </g>
</svg>