<?xml version="1.0" encoding="UTF-8"?>
<svg width="60px" height="60px" viewBox="0 0 60 60" version="1.1" xmlns="http://www.w3.org/2000/svg" xmlns:xlink="http://www.w3.org/1999/xlink">
    <!-- Generator: sketchtool 51.2 (57519) - http://www.bohemiancoding.com/sketch -->
    <title>8FA43BB5-48BD-4A8E-918A-1ABEDF40E907</title>
    <desc>Created with sketchtool.</desc>
    <defs></defs>
    <g id="Page-1" stroke="none" stroke-width="1" fill="none" fill-rule="evenodd">
        <g id="Assets_graficos" transform="translate(-982.000000, -1155.000000)" fill-rule="nonzero">
            <g id="illus-/-graph-/-simulador" transform="translate(982.000000, 1155.000000)">
                <rect id="Rectangle-12-Copy-18" stroke="#D3E1EB" fill="#F0F4F7" x="0.5" y="0.5" width="59" height="59" rx="29.5"></rect>
                <g id="Group-25" transform="translate(12.000000, 14.000000)">
                    <polygon id="Path-2" fill="#FFFFFF" points="25.415332 29.5285714 10.3456055 29.5285714 2.81953125 15.9875 10.3456055 2.98303571 25.415332 2.98303571 33.0670898 15.9875"></polygon>
                    <path d="M31.1184,11.347038 L27.3228,4.67240506 C27.7936,4.18065823 28.084,3.51068354 28.084,2.77346835 C28.084,1.26744304 26.874,0.041721519 25.3864,0.041721519 C23.8988,0.041721519 22.6888,1.26703797 22.6888,2.77346835 C22.6888,4.27989873 23.8988,5.50521519 25.3864,5.50521519 C25.566,5.50521519 25.7412,5.48698734 25.9108,5.45296203 L29.7248,12.1595949 C29.8736,12.4212658 30.144,12.5678987 30.422,12.5678987 C30.5584,12.5678987 30.6964,12.5326582 30.8228,12.4589367 C31.208,12.2345316 31.34,11.7367089 31.1184,11.347038 Z M24.2968,2.77346835 C24.2968,2.16506329 24.786,1.67007595 25.3868,1.67007595 C25.9876,1.67007595 26.4768,2.16506329 26.4768,2.77346835 C26.4768,3.38187342 25.9876,3.87726582 25.3868,3.87726582 C24.786,3.87726582 24.2968,3.38187342 24.2968,2.77346835 Z" id="Shape" fill="#2E6C99"></path>
                    <path d="M28.2924,25.3095696 L32.242,18.7272911 C32.894,18.9083544 33.6136,18.8439494 34.252,18.4887089 C35.5556,17.7636456 36.0336,16.1000506 35.3176,14.7795443 C34.6012,13.459443 32.9584,12.9753924 31.6548,13.7008608 C30.3512,14.4259241 29.8732,16.089519 30.5892,17.4096203 C30.6756,17.5692152 30.7756,17.7158481 30.8868,17.8503291 L26.9184,24.4646076 C26.7636,24.7226329 26.7672,25.0333165 26.9008,25.2804051 C26.9664,25.4007089 27.0632,25.5064304 27.1876,25.5833924 C27.5672,25.8163038 28.062,25.6939747 28.2924,25.3095696 Z M32.4284,15.1274937 C32.9552,14.8346329 33.6188,15.0302785 33.9084,15.5637468 C34.1976,16.0972152 34.0044,16.7692152 33.478,17.0620759 C32.9516,17.3549367 32.2876,17.1592911 31.9984,16.6262278 C31.7092,16.0927595 31.902,15.4207595 32.4284,15.1274937 Z" id="Shape" fill="#2E6C99"></path>
                    <path d="M4.5336,20.6586329 L8.3292,27.3336709 C7.8588,27.8254177 7.568,28.4949873 7.568,29.2326076 C7.568,30.739038 8.778,31.9643544 10.2656,31.9643544 C11.7532,31.9643544 12.9632,30.739038 12.9632,29.2326076 C12.9632,27.7265823 11.7532,26.5008608 10.2656,26.5008608 C10.086,26.5008608 9.9108,26.5194937 9.7412,26.553519 L5.9268,19.846481 C5.778,19.5848101 5.5076,19.4389873 5.2296,19.4389873 C5.0936,19.4389873 4.9552,19.4738228 4.8292,19.5475443 C4.4444,19.7715443 4.312,20.2693671 4.5336,20.6586329 Z M11.3552,29.2322025 C11.3552,29.8406076 10.866,30.336 10.2652,30.336 C9.6648,30.336 9.1756,29.8410127 9.1756,29.2322025 C9.1756,28.6242025 9.6648,28.1292152 10.2652,28.1292152 C10.8664,28.1292152 11.3552,28.6242025 11.3552,29.2322025 Z" id="Shape" fill="#2E6C99"></path>
                    <path d="M7.4668,6.69610127 L3.5172,13.2783797 C2.8648,13.0973165 2.1452,13.1617215 1.5068,13.516962 C0.2032,14.2424304 -0.2748,15.9064304 0.4416,17.2265316 C1.1576,18.5466329 2.8004,19.0306835 4.1044,18.3056203 C5.4084,17.5801519 5.8864,15.916557 5.17,14.5960506 C5.0836,14.4368608 4.9836,14.2898228 4.872,14.1557468 L8.8404,7.54146835 C8.9952,7.28344304 8.9916,6.97275949 8.858,6.72607595 C8.7924,6.60536709 8.6956,6.49924051 8.5708,6.42268354 C8.192,6.18977215 7.6976,6.31210127 7.4668,6.69610127 Z M3.3304,16.8785823 C2.804,17.171443 2.14,16.9762025 1.8508,16.4427342 C1.5616,15.9096709 1.7548,15.2372658 2.2812,14.9444051 C2.808,14.6511392 3.472,14.8471899 3.7612,15.3802532 C4.0504,15.9137215 3.8576,16.5857215 3.3304,16.8785823 Z" id="Shape" fill="#2E6C99"></path>
                    <path d="M20.3964,2.10187342 L12.7904,2.09377215 C12.6052,1.43513924 12.1776,0.845367089 11.5468,0.476759494 C10.2588,-0.275848101 8.6056,0.172556962 7.862,1.47686076 C7.1188,2.78156962 7.562,4.4556962 8.85,5.2083038 C10.138,5.96091139 11.7912,5.51210127 12.5344,4.20820253 C12.6244,4.05063291 12.696,3.88739241 12.7524,3.72172152 L20.3948,3.72982278 C20.6932,3.72982278 20.9532,3.56617722 21.0924,3.32192405 C21.1604,3.20283544 21.1996,3.06389873 21.1996,2.91605063 C21.2,2.46724051 20.8404,2.10227848 20.3964,2.10187342 Z M9.6532,3.79827848 C9.1332,3.49448101 8.954,2.81843038 9.2544,2.29144304 C9.5544,1.76405063 10.222,1.58298734 10.7424,1.88718987 C11.2628,2.19139241 11.442,2.86744304 11.1416,3.39402532 C10.8416,3.92141772 10.1736,4.10248101 9.6532,3.79827848 Z" id="Shape" fill="#2E6C99"></path>
                    <path d="M14.3504,29.3209114 C14.3504,29.4687595 14.3896,29.6072911 14.4576,29.7267848 C14.5968,29.9706329 14.8572,30.1346835 15.1556,30.1342785 L22.798,30.1265823 C22.854,30.2926582 22.9256,30.4554937 23.0156,30.6130633 C23.7588,31.9173671 25.412,32.3661772 26.7004,31.6131646 C27.9884,30.860557 28.4316,29.1864304 27.688,27.8821266 C26.9448,26.5774177 25.2912,26.1286076 24.0032,26.8820253 C23.3728,27.2506329 22.9448,27.84 22.76,28.4986329 L15.154,28.5063291 C14.7096,28.5063291 14.35,28.8712911 14.3504,29.3209114 Z M24.4076,29.798481 C24.1076,29.2718987 24.2864,28.595443 24.8068,28.2912405 C25.3268,27.987038 25.9948,28.1681013 26.2956,28.6950886 C26.5956,29.2220759 26.4168,29.8985316 25.8964,30.2023291 C25.376,30.5069367 24.708,30.3254684 24.4076,29.798481 Z" id="Shape" fill="#2E6C99"></path>
                    <path d="M17.7508,18.6790886 C16.2948,18.6790886 15.11,17.4792911 15.11,16.0048608 C15.11,14.5304304 16.2948,13.3306329 17.7508,13.3306329 C19.2072,13.3306329 20.3916,14.5304304 20.3916,16.0048608 C20.3916,17.4792911 19.2072,18.6790886 17.7508,18.6790886 Z M17.7508,14.8500253 C17.122,14.8500253 16.6104,15.3681013 16.6104,16.0048608 C16.6104,16.6416203 17.122,17.1596962 17.7508,17.1596962 C18.3796,17.1596962 18.8912,16.6416203 18.8912,16.0048608 C18.8912,15.3681013 18.3796,14.8500253 17.7508,14.8500253 Z" id="Shape" fill="#2E6C99"></path>
                    <path d="M13.0244,16.7647595 C12.6096,16.7647595 12.274,16.4245063 12.274,16.0048608 C12.274,12.9466329 14.7308,10.4587342 17.7508,10.4587342 C18.1656,10.4587342 18.5012,10.7985823 18.5012,11.2186329 C18.5012,11.6378734 18.1656,11.9781266 17.7508,11.9781266 C15.5584,11.9781266 13.7744,13.7843038 13.7744,16.0048608 C13.7744,16.4245063 13.4384,16.7647595 13.0244,16.7647595 Z" id="Shape" fill="#2E6C99"></path>
                    <path d="M17.7508,21.5509873 C17.3364,21.5509873 17.0008,21.2111392 17.0008,20.7914937 C17.0008,20.3722532 17.3368,20.032 17.7508,20.032 C19.9432,20.032 21.7268,18.2254177 21.7268,16.0052658 C21.7268,15.5856203 22.0628,15.2457722 22.4772,15.2457722 C22.8916,15.2457722 23.2272,15.5860253 23.2272,16.0052658 C23.2276,19.0630886 20.7708,21.5509873 17.7508,21.5509873 Z" id="Shape" fill="#2E6C99"></path>
                    <path d="M10.3208,16.7647595 C9.9068,16.7647595 9.5708,16.4245063 9.5708,16.0048608 C9.5708,11.4373671 13.2408,7.72091139 17.7516,7.72091139 C18.166,7.72091139 18.502,8.06116456 18.502,8.48040506 C18.502,8.9004557 18.166,9.2403038 17.7516,9.2403038 C14.0684,9.2403038 11.0716,12.2746329 11.0716,16.0044557 C11.0712,16.4245063 10.7356,16.7647595 10.3208,16.7647595 Z" id="Shape" fill="#2E6C99"></path>
                    <path d="M17.7512,24.2888101 C17.3364,24.2888101 17.0012,23.948557 17.0012,23.5289114 C17.0012,23.1092658 17.3368,22.7690127 17.7512,22.7690127 C21.4344,22.7690127 24.4308,19.7342785 24.4308,16.0044557 C24.4308,15.5848101 24.7668,15.244962 25.1812,15.244962 C25.5952,15.244962 25.9312,15.5852152 25.9312,16.0044557 C25.9312,20.5727595 22.2616,24.2888101 17.7512,24.2888101 Z" id="Shape" fill="#2E6C99"></path>
                </g>
            </g>
        </g>
    </g>
</svg>