<?xml version="1.0" encoding="UTF-8"?>
<svg width="60px" height="60px" viewBox="0 0 60 60" version="1.1" xmlns="http://www.w3.org/2000/svg" xmlns:xlink="http://www.w3.org/1999/xlink">
    <!-- Generator: sketchtool 51.2 (57519) - http://www.bohemiancoding.com/sketch -->
    <title>6B49E88C-E0FD-487C-9A77-8020CB14CA3A</title>
    <desc>Created with sketchtool.</desc>
    <defs></defs>
    <g id="Page-1" stroke="none" stroke-width="1" fill="none" fill-rule="evenodd">
        <g id="Assets_graficos" transform="translate(-798.000000, -511.000000)" fill-rule="nonzero">
            <g id="illus-/-graph-/-usuario" transform="translate(798.000000, 511.000000)">
                <rect id="Rectangle-12-Copy-2" stroke="#D3E1EB" fill="#F0F4F7" x="0.5" y="0.5" width="59" height="59" rx="29.5"></rect>
                <path d="M30.5,29 C33.5375661,29 36,26.3137085 36,23 C36,19.6862915 33.5375661,17 30.5,17 C27.4624339,17 25,19.6862915 25,23 C25,26.3137085 27.4624339,29 30.5,29 Z" id="Path-Copy" stroke="#2E6C99" stroke-width="1.8" fill="#FFFFFF"></path>
                <path d="M42,40.5862069 C42,34.1873215 36.8512746,29 30.5,29 C24.1487254,29 19,34.1873215 19,40.5862069 C19,41.529155 24.1096543,43 30.5,43 C36.8903457,43 42,41.529155 42,40.5862069 Z" id="Path-Copy-2" stroke="#2E6C99" stroke-width="1.8" fill="#FFFFFF"></path>
            </g>
        </g>
    </g>
</svg>