<?xml version="1.0" encoding="UTF-8"?>
<svg width="60px" height="60px" viewBox="0 0 60 60" version="1.1" xmlns="http://www.w3.org/2000/svg" xmlns:xlink="http://www.w3.org/1999/xlink">
    <!-- Generator: sketchtool 51.2 (57519) - http://www.bohemiancoding.com/sketch -->
    <title>B57D4D84-C59A-4AD5-B747-070BD512FF06</title>
    <desc>Created with sketchtool.</desc>
    <defs></defs>
    <g id="Page-1" stroke="none" stroke-width="1" fill="none" fill-rule="evenodd">
        <g id="Assets_graficos" transform="translate(-798.000000, -1155.000000)" fill-rule="nonzero">
            <g id="illus-/-graph-/-visualizacion" transform="translate(798.000000, 1155.000000)">
                <rect id="Rectangle-12-Copy-9" stroke="#D3E1EB" fill="#F0F4F7" x="0.5" y="0.5" width="59" height="59" rx="29.5"></rect>
                <g id="Group-26" transform="translate(17.000000, 17.000000)">
                    <path d="M0.252435858,0.548067536 L0.252435858,26.193673 C0.252484067,26.6320296 0.390912597,26.7126637 0.873083117,26.7127075 L29.1194137,26.7127075 C29.4342788,26.7167559 29.6432707,26.7127075 29.6432707,26.6083099 C29.6432707,26.5039124 29.4342788,26.4969774 29.1194137,26.5010258 L25.4339534,26.5010258 L25.4339534,0.793747667 C25.4339052,0.355391091 25.0430408,4.38290835e-05 24.5608703,0 L19.1737975,1.21098015e-13 C18.6419977,0.0385529461 18.2987656,0.382876459 18.3007143,0.793747667 L18.3007143,26.5010258 L14.5876732,26.5010258 L14.5876732,11.5794902 C14.587625,11.1411337 14.1967606,10.7857864 13.7145901,10.7857426 L8.1704464,10.7857426 C7.6386466,10.8242955 7.29541455,11.168619 7.29736328,11.5794902 L7.29736328,26.5010258 L0.494089704,26.5010258 L0.494089704,20.2428122 L3.21233576,20.2428122 C3.36918203,20.2448288 3.58939205,20.2418217 3.58997616,20.0431274 C3.59056464,19.8429477 3.37035462,19.8416969 3.21233576,19.8437286 L0.494089704,19.8437286 L0.494089704,13.9560425 L3.21233576,13.9560425 C3.37453052,13.9581279 3.59488241,13.9239656 3.58997616,13.7186829 C3.58535802,13.5254547 3.36500613,13.4917844 3.21233576,13.4937473 L0.494089704,13.4937473 L0.494089704,7.19771767 L3.21233576,7.19771767 C3.58501532,7.18588213 3.72507499,7.20952987 3.70816242,7.00202637 C3.6930094,6.81611119 3.56062996,6.76865434 3.21233576,6.78405762 L0.494089704,6.78405762 L0.494089704,0.548067536 C0.497787087,0.333250425 0.494089704,0.112651062 0.360079679,0.112651062 C0.226069653,0.112651062 0.252435858,0.333250425 0.252435858,0.548067536 Z" id="Shape" stroke="#2E6C99" stroke-width="1.17" fill="#FFFFFF"></path>
                    <rect id="Rectangle" fill="#2E6C99" x="6.36363636" y="26.1" width="22.7272727" height="1"></rect>
                </g>
            </g>
        </g>
    </g>
</svg>