<svg width="127px" height="27px" viewBox="0 0 127 27" version="1.1" xmlns="http://www.w3.org/2000/svg" xmlns:xlink="http://www.w3.org/1999/xlink">
    <title>onesait</title>
    <path d="M92.445,8.1 C91.7819286,7.48482136 90.9988899,7.01329592 90.145,6.715 C88.1971089,6.06934434 86.0928911,6.06934434 84.145,6.715 C83.2915384,7.01420739 82.5086767,7.48562631 81.845,8.1 C81.1934742,8.71180565 80.6818042,9.45713836 80.345,10.285 C79.9928577,11.1842521 79.8229005,12.1445104 79.845,13.11 L79.845,19.91 C79.845,22.09 80.505,23.805 81.81,25.01 C83.115,26.215 84.88,26.81 87.13,26.815 C89.38,26.82 91.18,26.2 92.47,25.01 C92.4823634,24.9925767 92.4975767,24.9773634 92.515,24.965 L92.515,25.055 L92.515,25.02 L93.15,26.585 L94.42,26.585 L94.42,13.11 C94.4410399,12.1445915 94.2711192,11.1845396 93.92,10.285 C93.5883303,9.46058189 93.0856061,8.71586841 92.445,8.1 Z M92.38,19.895 C92.3745096,20.4868286 92.2989842,21.075927 92.155,21.65 C92.0160725,22.2197195 91.7512519,22.7510692 91.38,23.205 C90.9552161,23.7073566 90.4170874,24.1015273 89.81,24.355 C88.9648037,24.6902439 88.0584366,24.8435767 87.15,24.805 C86.2443939,24.8429973 85.3410657,24.6878975 84.5,24.35 C83.8951371,24.0972585 83.3575628,23.7069179 82.93,23.21 C82.5555004,22.75439 82.2903824,22.2190227 82.155,21.645 C82.0107582,21.072674 81.9352257,20.4851995 81.93,19.895 L81.93,13.11 C81.93,11.54 82.385,10.32 83.29,9.47 C84.195,8.62 85.485,8.195 87.15,8.185 C88.815,8.175 90.125,8.625 91.025,9.47 C91.925,10.315 92.38,11.54 92.38,13.11 L92.38,19.895 Z" id="Shape"></path>
    <path d="M126.005,23.715 C125.088642,24.5325629 123.88634,24.9548962 122.66,24.89 C121.670469,24.9670703 120.697811,24.600721 120.005,23.89 C119.42,23.21 119.135,22.075 119.135,20.39 L119.135,8.32 L125.495,8.32 L125.545,8.32 L125.545,6.495 L125.495,6.495 L119.135,6.495 L119.135,0.365 L117.135,0.365 L117.135,20.51 C117.135,22.61 117.635,24.2 118.535,25.23 C119.435,26.26 120.86,26.8 122.64,26.8 C124.42,26.8 125.765,26.36 126.735,25.505 L126.005,23.715 Z" id="Shape"></path>
    <path d="M108.16,24.765 L108.16,6.475 L100.7,6.475 L100.7,8.275 L106.135,8.275 L106.135,24.775 L100.7,24.775 L100.7,26.575 L112.2,26.575 C112.258741,26.5698286 112.31716,26.5614831 112.375,26.55 L112.375,24.795 C112.31716,24.7835169 112.258741,24.7751714 112.2,24.77 L108.16,24.765 Z" id="Shape"></path>
    <path d="M70.69,16 L64.41,14.27 C63.7472648,14.0899511 63.1545888,13.7134275 62.71,13.19 C62.3477864,12.7559857 62.1464529,12.2102659 62.14,11.645 C62.1048171,11.0162167 62.2580165,10.3912327 62.58,9.85 C62.8589841,9.4221959 63.2474378,9.07690377 63.705,8.85 C64.1926466,8.591271 64.7226742,8.42193312 65.27,8.35 C65.8438971,8.25956179 66.4240209,8.21442248 67.005,8.215 C68.3639117,8.15040897 69.7136052,8.46920692 70.9,9.135 C71.83,9.71 72.32,10.675 72.37,11.995 C72.37,11.995 72.37,12.03 72.37,12.05 L74.335,12.05 C74.335,12.025 74.335,12.01 74.335,11.985 C74.28,10.065 73.58,8.605 72.26,7.65 C70.94,6.695 69.205,6.26 67.075,6.26 C66.1945766,6.2571074 65.3163298,6.34761374 64.455,6.53 C63.6678467,6.69791285 62.9196458,7.0134806 62.25,7.46 C61.6119847,7.88842485 61.0870602,8.4648125 60.72,9.14 C60.3148239,9.90956351 60.1150524,10.7706478 60.14,11.64 C60.1159159,12.6545916 60.4485693,13.6454741 61.08,14.44 C61.7606944,15.2630845 62.6969582,15.8350502 63.74,16.065 L70.05,17.845 C70.7788743,18.0274429 71.4220191,18.4567951 71.87,19.06 C72.2496703,19.6216159 72.4565196,20.282143 72.465,20.96 C72.4971563,21.6611831 72.3233417,22.3564414 71.965,22.96 C71.6611997,23.4336675 71.2389236,23.8197485 70.74,24.08 C70.1962817,24.3492378 69.6086124,24.5185949 69.005,24.58 C67.6437228,24.7619199 66.2625558,24.733251 64.91,24.495 C64.3230616,24.3792239 63.7611289,24.1608826 63.25,23.85 C62.8071144,23.5660506 62.4385354,23.1803285 62.175,22.725 C61.888981,22.1893732 61.7525338,21.5865877 61.78,20.98 C61.78,20.945 61.78,20.915 61.78,20.88 L59.78,20.88 C59.7776263,20.9149598 59.7776263,20.9500402 59.78,20.985 C59.82,22.925 60.525,24.385 61.87,25.33 C63.215,26.275 64.955,26.75 67.105,26.75 C68.0565098,26.7519337 69.005961,26.6615098 69.94,26.48 C70.7877087,26.3216192 71.5962335,25.9988888 72.32,25.53 C72.9977609,25.0595046 73.5532027,24.4337754 73.94,23.705 C74.3506123,22.8440751 74.5527332,21.8985604 74.53,20.945 C74.6149531,18.5871554 73.0108503,16.5022416 70.71,15.98 L70.69,16 Z" id="Shape"></path>
    <path d="M52.575,8.1 C51.9119286,7.48482136 51.1288899,7.01329592 50.275,6.715 C48.3271089,6.06934434 46.2228911,6.06934434 44.275,6.715 C43.4215384,7.01420739 42.6386767,7.48562631 41.975,8.1 C41.332503,8.71427531 40.8294852,9.45942381 40.5,10.285 C40.1478577,11.1842521 39.9779005,12.1445104 40,13.11 L40,19.91 C40,22.09 40.66,23.805 41.965,25.01 C43.27,26.215 45.035,26.81 47.285,26.815 C47.8746311,26.8145475 48.4632451,26.7660537 49.045,26.67 L49.09,26.67 L49.25,26.64 L49.425,26.605 L49.55,26.575 L49.85,26.505 L49.885,26.505 L50.16,26.42 L50.21,26.42 L50.495,26.325 C51.0941107,26.1092558 51.6571449,25.8041385 52.165,25.42 L52.365,25.255 L52.4,25.23 L52.595,25.055 C53.1801031,24.5123719 53.6450831,23.8532245 53.96,23.12 L52.17,22.04 C52.0239793,22.4637418 51.809467,22.8606739 51.535,23.215 C51.5233373,23.234492 51.5099504,23.252899 51.495,23.27 C51.277555,23.5348553 51.0233086,23.7672129 50.74,23.96 C50.4851655,24.1372107 50.2139239,24.2895748 49.93,24.415 L49.78,24.48 L49.715,24.505 L49.535,24.57 L49.49,24.57 C49.3466667,24.6133333 49.1916667,24.6533333 49.025,24.69 C48.4453944,24.8037007 47.8556073,24.8573177 47.265,24.85 C46.3593939,24.8879973 45.4560657,24.7328975 44.615,24.395 C44.0101371,24.1422585 43.4725628,23.7519179 43.045,23.255 C42.6724174,22.7981533 42.407528,22.2632476 42.27,21.69 C42.1257582,21.117674 42.0502257,20.5301995 42.045,19.94 L42.045,17.74 L54.545,17.74 L54.545,13.11 C54.5660399,12.1445915 54.3961192,11.1845396 54.045,10.285 C53.7147988,9.46103027 53.2138026,8.71635228 52.575,8.1 Z M52.51,15.6 L42.06,15.6 L42.06,13.1 C42.06,11.53 42.515,10.31 43.42,9.46 C44.325,8.61 45.615,8.185 47.28,8.175 C48.945,8.165 50.28,8.615 51.155,9.46 C52.03,10.305 52.51,11.53 52.51,13.1 L52.51,15.6 Z" id="Shape"></path>
    <path d="M27.445,6.255 C26.8696142,6.2601394 26.2970217,6.33570147 25.74,6.48 C25.1501431,6.61023233 24.5778128,6.80996051 24.035,7.075 C23.5013053,7.32667621 23.0063043,7.65330953 22.565,8.045 C22.4119172,8.17645072 22.2682321,8.31846508 22.135,8.47 L21.09,6.47 L20.145,6.47 L20.145,26.635 L22.145,26.635 L22.145,13.06 C22.1288372,12.3832513 22.265565,11.7115761 22.545,11.095 C22.8002629,10.5131303 23.1710987,9.98919711 23.635,9.555 C24.1185678,9.1099511 24.6887996,8.76951424 25.31,8.555 C26.0035361,8.31062284 26.7347304,8.1904497 27.47,8.2 C28.3668123,8.171934 29.2599501,8.32674456 30.095,8.655 C30.6989017,8.91909521 31.2380569,9.31151827 31.675,9.805 C32.045117,10.2636524 32.3143117,10.7952267 32.465,11.365 C32.6023154,11.9434652 32.6744313,12.5354863 32.68,13.13 L32.68,26.63 L34.68,26.63 L34.68,13.13 C34.68,10.935 34.04,9.225 32.78,8.04 C31.52,6.855 29.69,6.255 27.445,6.255 Z" id="Shape"></path>
    <path d="M12.775,8.105 C12.1130717,7.48830348 11.3296968,7.01657552 10.475,6.72 C8.52636857,6.07894732 6.42363143,6.07894732 4.475,6.72 C3.61945533,7.01793899 2.83471202,7.48946588 2.17,8.105 C1.51738485,8.71587001 1.00553957,9.46145797 0.67,10.29 C0.320269009,11.1899287 0.150397537,12.1497025 0.17,13.115 L0.17,19.91 C0.17,22.095 0.83,23.81 2.135,25.015 C3.44,26.22 5.21,26.81 7.46,26.815 C9.71,26.815 11.505,26.205 12.785,25.015 C14.065,23.825 14.745,22.095 14.745,19.91 L14.745,13.115 C14.7646025,12.1497025 14.594731,11.1899287 14.245,10.29 C13.9179537,9.46436497 13.416534,8.71905752 12.775,8.105 Z M12.71,19.905 C12.702568,20.4950464 12.6270686,21.0822641 12.485,21.655 C12.3450886,22.2273811 12.0804488,22.7617828 11.71,23.22 C11.2808113,23.7185484 10.7416273,24.1105265 10.135,24.365 C9.29303308,24.6997048 8.39039076,24.8546868 7.485,24.82 C6.57793765,24.8553882 5.67351968,24.7003938 4.83,24.365 C4.22481396,24.1104982 3.68726466,23.7184639 3.26,23.22 C2.88955123,22.7617828 2.62491142,22.2273811 2.485,21.655 C2.34047654,21.0827274 2.26493975,20.495219 2.26,19.905 L2.26,13.115 C2.26,11.545 2.715,10.325 3.625,9.47 C4.535,8.615 5.82,8.2 7.485,8.19 C9.15,8.19 10.455,8.63 11.345,9.47 C12.235,10.31 12.71,11.545 12.71,13.115 L12.71,19.905 Z" id="Shape"></path>
</svg>
