<svg width="16" height="16" viewBox="0 0 16 16" fill="none" xmlns="http://www.w3.org/2000/svg">
<path fill-rule="evenodd" clip-rule="evenodd" d="M0.4 0C0.179086 0 0 0.179086 0 0.4V15.6V15.6002C0 15.8211 0.179086 16.0002 0.4 16.0002H15.6C15.8209 16.0002 16 15.8211 16 15.6002C16 15.3793 15.8209 15.2002 15.6 15.2002L0.8 15.2002V11.2807L4.97852 8.49506L9.68765 12.2624C9.87026 12.4085 10.1297 12.4085 10.3123 12.2624L15.2499 8.31235C15.4224 8.17434 15.4504 7.92263 15.3123 7.75012C15.1743 7.57762 14.9226 7.54965 14.7501 7.68765L10 11.4878L5.30698 7.73333C5.13695 7.59731 4.89845 7.58696 4.71728 7.70774L0.8 10.3193V7.28074L5.01126 4.47323L9.72725 7.30283C9.92399 7.42087 10.1758 7.38987 10.3381 7.22763L15.2828 2.28284C15.4391 2.12663 15.4391 1.87337 15.2828 1.71716C15.1266 1.56095 14.8734 1.56095 14.7172 1.71716L9.93799 6.49632L5.26006 3.68956C5.09438 3.59015 4.88624 3.5951 4.72547 3.70228L0.8 6.31926V0.4C0.8 0.179086 0.620914 0 0.4 0Z" fill="#1B6EAA"/>
<circle cx="5" cy="4" r="1" fill="#1B6EAA"/>
<circle cx="5" cy="8" r="1" fill="#1B6EAA"/>
<circle cx="10" cy="12" r="1" fill="#1B6EAA"/>
<circle cx="10" cy="7" r="1" fill="#1B6EAA"/>
<circle cx="15" cy="2" r="1" fill="#1B6EAA"/>
<circle cx="15" cy="8" r="1" fill="#1B6EAA"/>
</svg>
